<svg width="66" height="67" viewBox="0 0 66 67" fill="none" xmlns="http://www.w3.org/2000/svg">
<path d="M0.461914 16.9141C0.461914 8.0775 7.62536 0.914062 16.4619 0.914062H49.849C58.6855 0.914062 65.849 8.07751 65.849 16.9141V50.3011C65.849 59.1377 58.6855 66.3011 49.849 66.3011H16.4619C7.62535 66.3011 0.461914 59.1377 0.461914 50.3011V16.9141Z" fill="#FF9B53"/>
<path d="M38.7612 18.9568C38.1023 18.3044 37.2089 17.938 36.2774 17.938C35.3458 17.938 34.4524 18.3044 33.7936 18.9568L18.3661 34.2418C18.0398 34.565 17.781 34.9488 17.6044 35.3711C17.4278 35.7934 17.3369 36.2461 17.3369 36.7032C17.3369 37.1603 17.4278 37.613 17.6044 38.0353C17.781 38.4576 18.0398 38.8413 18.3661 39.1646L20.1963 40.9762C20.9928 41.7667 22.1125 41.626 22.7886 41.2268C23.1617 41.0074 23.5978 40.9173 24.0282 40.9708C24.4587 41.0243 24.8588 41.2183 25.1656 41.5222C25.4723 41.8261 25.6682 42.2225 25.7222 42.6489C25.7761 43.0753 25.6852 43.5074 25.4637 43.8769C25.0624 44.5468 24.9187 45.6561 25.7167 46.4451L27.5485 48.2582C27.8748 48.5815 28.2622 48.8379 28.6885 49.0128C29.1148 49.1878 29.5717 49.2778 30.0331 49.2778C30.4945 49.2778 30.9515 49.1878 31.3778 49.0128C31.8041 48.8379 32.1914 48.5815 32.5177 48.2582L47.9436 32.9763C48.2699 32.6531 48.5287 32.2693 48.7053 31.847C48.8819 31.4247 48.9728 30.972 48.9728 30.5149C48.9728 30.0578 48.8819 29.6051 48.7053 29.1828C48.5287 28.7605 48.2699 28.3768 47.9436 28.0535L46.1149 26.2404C45.3185 25.4514 44.1972 25.5906 43.521 25.9897C43.148 26.2091 42.7119 26.2992 42.2815 26.2457C41.851 26.1922 41.4508 25.9982 41.1441 25.6944C40.8374 25.3905 40.6415 24.994 40.5875 24.5676C40.5335 24.1412 40.6245 23.7091 40.8459 23.3396C41.2489 22.6697 41.391 21.5605 40.593 20.7715L38.7627 18.9568H38.7612Z" fill="white"/>
</svg>
