<svg width="66" height="67" viewBox="0 0 66 67" fill="none" xmlns="http://www.w3.org/2000/svg">
<path d="M0.383789 16.9141C0.383789 8.0775 7.54723 0.914062 16.3838 0.914062H49.7708C58.6074 0.914062 65.7708 8.07751 65.7708 16.9141V50.3011C65.7708 59.1377 58.6074 66.3011 49.7708 66.3011H16.3838C7.54722 66.3011 0.383789 59.1377 0.383789 50.3011V16.9141Z" fill="#FDBF00"/>
<path d="M19.6172 41.5809C19.6172 43.0476 20.2733 44.3642 21.2996 45.2809V47.4142C21.2996 48.7975 22.4267 49.9142 23.8231 49.9142C25.2195 49.9142 26.3466 48.7975 26.3466 47.4142V46.5809H39.8056V47.4142C39.8056 48.7809 40.9328 49.9142 42.3291 49.9142C43.7087 49.9142 44.8527 48.7975 44.8527 47.4142V45.2809C45.8789 44.3642 46.535 43.0476 46.535 41.5809V24.9142C46.535 19.0809 40.5122 18.2476 33.0761 18.2476C25.6401 18.2476 19.6172 19.0809 19.6172 24.9142V41.5809ZM25.5055 43.2476C24.1091 43.2476 22.9819 42.1309 22.9819 40.7476C22.9819 39.3642 24.1091 38.2476 25.5055 38.2476C26.9018 38.2476 28.029 39.3642 28.029 40.7476C28.029 42.1309 26.9018 43.2476 25.5055 43.2476ZM40.6468 43.2476C39.2504 43.2476 38.1232 42.1309 38.1232 40.7476C38.1232 39.3642 39.2504 38.2476 40.6468 38.2476C42.0431 38.2476 43.1703 39.3642 43.1703 40.7476C43.1703 42.1309 42.0431 43.2476 40.6468 43.2476ZM43.1703 33.2476H22.9819V24.9142H43.1703V33.2476Z" fill="white"/>
</svg>
