<svg width="119" height="25" viewBox="0 0 119 25" fill="none" xmlns="http://www.w3.org/2000/svg">
<line x1="5.54297" y1="12.7456" x2="109.095" y2="12.7456" stroke="#CCCCCC" stroke-dasharray="3 3"/>
<path d="M58.1223 22.6641H56.7569C56.6197 22.664 56.4847 22.6325 56.3642 22.5725C56.2438 22.5125 56.1417 22.4258 56.0674 22.3204C55.993 22.2151 55.9488 22.0943 55.9387 21.9693C55.9286 21.8443 55.9529 21.7189 56.0095 21.6047L59.3159 14.9367L54.3512 14.8359L52.5405 16.8408C52.1953 17.2373 51.9199 17.4141 51.2171 17.4141H50.298C50.1524 17.4183 50.0079 17.3905 49.8766 17.3329C49.7454 17.2753 49.6313 17.1896 49.5439 17.0831C49.4219 16.9327 49.3018 16.6777 49.4188 16.3139L50.4354 12.9858C50.4431 12.9609 50.4524 12.9361 50.4626 12.9117C50.4631 12.9094 50.4631 12.907 50.4626 12.9047C50.452 12.8803 50.4429 12.8554 50.4354 12.8302L49.4178 9.48094C49.3075 9.12422 49.428 8.87484 49.5491 8.72812C49.6304 8.62956 49.7358 8.54979 49.857 8.49524C49.9781 8.4407 50.1116 8.41289 50.2467 8.41406H51.2171C51.7419 8.41406 52.2512 8.62922 52.5508 8.97656L54.324 10.9477L59.3159 10.8802L56.0105 4.22391C55.9539 4.10974 55.9294 3.98442 55.9394 3.85939C55.9494 3.73436 55.9935 3.61362 56.0678 3.5082C56.142 3.40278 56.244 3.31604 56.3644 3.25593C56.4847 3.19581 56.6197 3.16423 56.7569 3.16406H58.1372C58.3297 3.1676 58.519 3.21073 58.6908 3.29026C58.8626 3.36979 59.0126 3.48366 59.1297 3.62344L65.544 10.7484L68.5072 10.6772C68.7242 10.6664 69.3253 10.6627 69.4644 10.6627C72.2988 10.6641 73.9915 11.505 73.9915 12.9141C73.9915 13.3575 73.7976 14.1797 72.5004 14.7028C71.7346 15.0122 70.7128 15.1688 69.4633 15.1688C69.3259 15.1688 68.7262 15.165 68.5062 15.1542L65.5435 15.082L59.1133 22.207C58.9961 22.3462 58.8462 22.4595 58.6747 22.5386C58.5032 22.6177 58.3144 22.6606 58.1223 22.6641V22.6641Z" fill="#1262AE"/>
<circle cx="5.80273" cy="13.2456" r="4" fill="white" stroke="#1262AE" stroke-width="2"/>
<circle cx="113.152" cy="12.8286" r="4" fill="white" stroke="#1262AE" stroke-width="2"/>
</svg>
