<svg width="21" height="20" viewBox="0 0 21 20" fill="none" xmlns="http://www.w3.org/2000/svg">
<path d="M10.5001 1.66666C8.28994 1.66666 6.17033 2.54464 4.60752 4.10744C3.04472 5.67024 2.16675 7.78986 2.16675 10C2.16675 12.2101 3.04472 14.3298 4.60752 15.8926C6.17033 17.4554 8.28994 18.3333 10.5001 18.3333C12.7102 18.3333 14.8298 17.4554 16.3926 15.8926C17.9554 14.3298 18.8334 12.2101 18.8334 10C18.8334 7.78986 17.9554 5.67024 16.3926 4.10744C14.8298 2.54464 12.7102 1.66666 10.5001 1.66666ZM10.5001 16.6667C9.62455 16.6667 8.75759 16.4942 7.9487 16.1592C7.13981 15.8241 6.40484 15.333 5.78574 14.7139C5.16665 14.0948 4.67555 13.3599 4.3405 12.551C4.00545 11.7421 3.833 10.8751 3.833 9.99958C3.833 9.12405 4.00545 8.25709 4.3405 7.4482C4.67555 6.63931 5.16665 5.90434 5.78574 5.28524C6.40484 4.66615 7.13981 4.17505 7.9487 3.84C8.75759 3.50495 9.62455 3.3325 10.5001 3.3325C12.2683 3.3325 13.9641 4.03492 15.2144 5.28524C16.4647 6.53556 17.1672 8.23136 17.1672 9.99958C17.1672 11.7678 16.4647 13.4636 15.2144 14.7139C13.9641 15.9642 12.2683 16.6667 10.5001 16.6667Z" fill="#0C0D0D"/>
<path d="M13.0001 9.16666H11.3334V7.5C11.3334 7.27898 11.2456 7.06702 11.0893 6.91074C10.9331 6.75446 10.7211 6.66666 10.5001 6.66666C10.2791 6.66666 10.0671 6.75446 9.91083 6.91074C9.75455 7.06702 9.66675 7.27898 9.66675 7.5V9.16666H8.00008C7.77907 9.16666 7.56711 9.25446 7.41083 9.41074C7.25455 9.56702 7.16675 9.77898 7.16675 10C7.16675 10.221 7.25455 10.433 7.41083 10.5893C7.56711 10.7455 7.77907 10.8333 8.00008 10.8333H9.66675V12.5C9.66675 12.721 9.75455 12.933 9.91083 13.0893C10.0671 13.2455 10.2791 13.3333 10.5001 13.3333C10.7211 13.3333 10.9331 13.2455 11.0893 13.0893C11.2456 12.933 11.3334 12.721 11.3334 12.5V10.8333H13.0001C13.2211 10.8333 13.4331 10.7455 13.5893 10.5893C13.7456 10.433 13.8334 10.221 13.8334 10C13.8334 9.77898 13.7456 9.56702 13.5893 9.41074C13.4331 9.25446 13.2211 9.16666 13.0001 9.16666Z" fill="#0C0D0D"/>
</svg>
