<svg width="21" height="20" viewBox="0 0 21 20" fill="none" xmlns="http://www.w3.org/2000/svg">
<path d="M10.5 1.66666C8.28985 1.66666 6.17024 2.54464 4.60743 4.10744C3.04463 5.67024 2.16666 7.78986 2.16666 10C2.16666 12.2101 3.04463 14.3298 4.60743 15.8926C6.17024 17.4554 8.28985 18.3333 10.5 18.3333C12.7101 18.3333 14.8297 17.4554 16.3925 15.8926C17.9553 14.3298 18.8333 12.2101 18.8333 10C18.8333 7.78986 17.9553 5.67024 16.3925 4.10744C14.8297 2.54464 12.7101 1.66666 10.5 1.66666ZM10.5 16.6667C9.62446 16.6667 8.7575 16.4942 7.94861 16.1592C7.13972 15.8241 6.40475 15.333 5.78565 14.7139C5.16655 14.0948 4.67546 13.3599 4.34041 12.551C4.00536 11.7421 3.83291 10.8751 3.83291 9.99958C3.83291 9.12405 4.00536 8.25709 4.34041 7.4482C4.67546 6.63931 5.16655 5.90434 5.78565 5.28524C6.40475 4.66615 7.13972 4.17505 7.94861 3.84C8.7575 3.50495 9.62446 3.3325 10.5 3.3325C12.2682 3.3325 13.964 4.03492 15.2143 5.28524C16.4647 6.53556 17.1671 8.23136 17.1671 9.99958C17.1671 11.7678 16.4647 13.4636 15.2143 14.7139C13.964 15.9642 12.2682 16.6667 10.5 16.6667Z" fill="#0C0D0D"/>
<path d="M13 9.16666H11.3333V7.5C11.3333 7.27898 11.2455 7.06702 11.0892 6.91074C10.933 6.75446 10.721 6.66666 10.5 6.66666C10.279 6.66666 10.067 6.75446 9.91073 6.91074C9.75445 7.06702 9.66666 7.27898 9.66666 7.5V9.16666H7.99999C7.77898 9.16666 7.56701 9.25446 7.41073 9.41074C7.25445 9.56702 7.16666 9.77898 7.16666 10C7.16666 10.221 7.25445 10.433 7.41073 10.5893C7.56701 10.7455 7.77898 10.8333 7.99999 10.8333H9.66666V12.5C9.66666 12.721 9.75445 12.933 9.91073 13.0893C10.067 13.2455 10.279 13.3333 10.5 13.3333C10.721 13.3333 10.933 13.2455 11.0892 13.0893C11.2455 12.933 11.3333 12.721 11.3333 12.5V10.8333H13C13.221 10.8333 13.433 10.7455 13.5892 10.5893C13.7455 10.433 13.8333 10.221 13.8333 10C13.8333 9.77898 13.7455 9.56702 13.5892 9.41074C13.433 9.25446 13.221 9.16666 13 9.16666Z" fill="#0C0D0D"/>
</svg>
