<svg width="21" height="20" viewBox="0 0 21 20" fill="none" xmlns="http://www.w3.org/2000/svg">
<path d="M10.5 1.66666C8.28986 1.66666 6.17025 2.54464 4.60744 4.10744C3.04464 5.67024 2.16667 7.78986 2.16667 10C2.16667 12.2101 3.04464 14.3298 4.60744 15.8926C6.17025 17.4554 8.28986 18.3333 10.5 18.3333C12.7101 18.3333 14.8298 17.4554 16.3926 15.8926C17.9554 14.3298 18.8333 12.2101 18.8333 10C18.8333 7.78986 17.9554 5.67024 16.3926 4.10744C14.8298 2.54464 12.7101 1.66666 10.5 1.66666ZM10.5 16.6667C9.62447 16.6667 8.75751 16.4942 7.94862 16.1592C7.13973 15.8241 6.40476 15.333 5.78566 14.7139C5.16656 14.0948 4.67547 13.3599 4.34042 12.551C4.00537 11.7421 3.83292 10.8751 3.83292 9.99958C3.83292 9.12405 4.00537 8.25709 4.34042 7.4482C4.67547 6.63931 5.16656 5.90434 5.78566 5.28524C6.40476 4.66615 7.13973 4.17505 7.94862 3.84C8.75751 3.50495 9.62447 3.3325 10.5 3.3325C12.2682 3.3325 13.964 4.03492 15.2143 5.28524C16.4647 6.53556 17.1671 8.23136 17.1671 9.99958C17.1671 11.7678 16.4647 13.4636 15.2143 14.7139C13.964 15.9642 12.2682 16.6667 10.5 16.6667Z" fill="#0C0D0D"/>
<path d="M13 9.16666H11.3333V7.5C11.3333 7.27898 11.2455 7.06702 11.0893 6.91074C10.933 6.75446 10.721 6.66666 10.5 6.66666C10.279 6.66666 10.067 6.75446 9.91074 6.91074C9.75446 7.06702 9.66667 7.27898 9.66667 7.5V9.16666H8C7.77899 9.16666 7.56702 9.25446 7.41074 9.41074C7.25446 9.56702 7.16667 9.77898 7.16667 10C7.16667 10.221 7.25446 10.433 7.41074 10.5893C7.56702 10.7455 7.77899 10.8333 8 10.8333H9.66667V12.5C9.66667 12.721 9.75446 12.933 9.91074 13.0893C10.067 13.2455 10.279 13.3333 10.5 13.3333C10.721 13.3333 10.933 13.2455 11.0893 13.0893C11.2455 12.933 11.3333 12.721 11.3333 12.5V10.8333H13C13.221 10.8333 13.433 10.7455 13.5893 10.5893C13.7455 10.433 13.8333 10.221 13.8333 10C13.8333 9.77898 13.7455 9.56702 13.5893 9.41074C13.433 9.25446 13.221 9.16666 13 9.16666Z" fill="#0C0D0D"/>
</svg>
