<svg width="21" height="20" viewBox="0 0 21 20" fill="none" xmlns="http://www.w3.org/2000/svg">
<path d="M10.5 1.66666C8.28982 1.66666 6.17021 2.54464 4.6074 4.10744C3.0446 5.67024 2.16663 7.78986 2.16663 10C2.16663 12.2101 3.0446 14.3298 4.6074 15.8926C6.17021 17.4554 8.28982 18.3333 10.5 18.3333C12.7101 18.3333 14.8297 17.4554 16.3925 15.8926C17.9553 14.3298 18.8333 12.2101 18.8333 10C18.8333 7.78986 17.9553 5.67024 16.3925 4.10744C14.8297 2.54464 12.7101 1.66666 10.5 1.66666ZM10.5 16.6667C9.62443 16.6667 8.75746 16.4942 7.94858 16.1592C7.13969 15.8241 6.40472 15.333 5.78562 14.7139C5.16652 14.0948 4.67543 13.3599 4.34038 12.551C4.00533 11.7421 3.83288 10.8751 3.83288 9.99958C3.83288 9.12405 4.00533 8.25709 4.34038 7.4482C4.67543 6.63931 5.16652 5.90434 5.78562 5.28524C6.40472 4.66615 7.13969 4.17505 7.94858 3.84C8.75746 3.50495 9.62443 3.3325 10.5 3.3325C12.2682 3.3325 13.964 4.03492 15.2143 5.28524C16.4646 6.53556 17.167 8.23136 17.167 9.99958C17.167 11.7678 16.4646 13.4636 15.2143 14.7139C13.964 15.9642 12.2682 16.6667 10.5 16.6667Z" fill="#0C0D0D"/>
<path d="M13 9.16666H11.3333V7.5C11.3333 7.27898 11.2455 7.06702 11.0892 6.91074C10.9329 6.75446 10.721 6.66666 10.5 6.66666C10.2789 6.66666 10.067 6.75446 9.9107 6.91074C9.75442 7.06702 9.66663 7.27898 9.66663 7.5V9.16666H7.99996C7.77895 9.16666 7.56698 9.25446 7.4107 9.41074C7.25442 9.56702 7.16663 9.77898 7.16663 10C7.16663 10.221 7.25442 10.433 7.4107 10.5893C7.56698 10.7455 7.77895 10.8333 7.99996 10.8333H9.66663V12.5C9.66663 12.721 9.75442 12.933 9.9107 13.0893C10.067 13.2455 10.2789 13.3333 10.5 13.3333C10.721 13.3333 10.9329 13.2455 11.0892 13.0893C11.2455 12.933 11.3333 12.721 11.3333 12.5V10.8333H13C13.221 10.8333 13.4329 10.7455 13.5892 10.5893C13.7455 10.433 13.8333 10.221 13.8333 10C13.8333 9.77898 13.7455 9.56702 13.5892 9.41074C13.4329 9.25446 13.221 9.16666 13 9.16666Z" fill="#0C0D0D"/>
</svg>
