<svg width="24" height="24" viewBox="0 0 24 24" fill="none" xmlns="http://www.w3.org/2000/svg">
<path d="M12 16.001C11.7664 16.0015 11.5399 15.9201 11.36 15.771L5.36003 10.771C5.15581 10.6013 5.02739 10.3574 5.00301 10.0929C4.97863 9.8285 5.06029 9.56522 5.23003 9.361C5.39977 9.15678 5.64368 9.02836 5.90811 9.00398C6.17253 8.9796 6.43581 9.06126 6.64003 9.231L12 13.711L17.36 9.391C17.4623 9.30793 17.58 9.2459 17.7064 9.20847C17.8327 9.17104 17.9652 9.15894 18.0962 9.17288C18.2272 9.18682 18.3542 9.22652 18.4699 9.28969C18.5855 9.35287 18.6875 9.43827 18.77 9.541C18.8616 9.64382 18.931 9.76445 18.9738 9.89532C19.0166 10.0262 19.0319 10.1645 19.0187 10.3016C19.0056 10.4386 18.9643 10.5715 18.8974 10.6919C18.8305 10.8122 18.7395 10.9175 18.63 11.001L12.63 15.831C12.4449 15.9565 12.2231 16.0164 12 16.001Z" fill="#6C7275"/>
</svg>
