<svg width="12" height="13" viewBox="0 0 12 13" fill="none" xmlns="http://www.w3.org/2000/svg">
<g clip-path="url(#clip0_15_2128)">
<path d="M0.721267 8.06724C0.770368 8.07521 0.820059 8.07889 0.869777 8.07824L9.33554 8.07824L9.15094 8.1641C8.9705 8.24951 8.80635 8.36574 8.66583 8.50754L6.29182 10.8816C5.97916 11.18 5.92662 11.6602 6.16733 12.0192C6.44747 12.4018 6.98471 12.4848 7.36732 12.2047C7.39823 12.1821 7.42761 12.1574 7.45522 12.1308L11.7482 7.83784C12.0837 7.50272 12.084 6.95909 11.7489 6.6236C11.7486 6.62338 11.7484 6.62314 11.7482 6.62293L7.45522 2.32996C7.11945 1.99514 6.57583 1.99589 6.24098 2.33165C6.21463 2.35808 6.19002 2.3862 6.16733 2.41582C5.92662 2.77484 5.97916 3.25499 6.29182 3.55346L8.66154 5.93176C8.78751 6.05787 8.93235 6.16361 9.09084 6.24515L9.34841 6.36106L0.917026 6.36106C0.478419 6.34477 0.0936076 6.65115 0.0112094 7.08228C-0.0646956 7.55034 0.253199 7.99131 0.721267 8.06724Z" fill="white"/>
</g>
<defs>
<clipPath id="clip0_15_2128">
<rect width="12" height="12" fill="white" transform="matrix(-1 0 0 -1 12 12.082)"/>
</clipPath>
</defs>
</svg>
