<svg width="12" height="12" viewBox="0 0 12 12" fill="none" xmlns="http://www.w3.org/2000/svg">
<g clip-path="url(#clip0_15_2139)">
<path d="M11.2787 7.98521C11.2296 7.99318 11.1799 7.99686 11.1302 7.99621L2.66446 7.99621L2.84906 8.08207C3.0295 8.16748 3.19365 8.28371 3.33417 8.42551L5.70818 10.7995C6.02084 11.098 6.07338 11.5781 5.83267 11.9372C5.55253 12.3197 5.01529 12.4028 4.63268 12.1227C4.60177 12.1 4.57239 12.0753 4.54478 12.0488L0.251816 7.75581C-0.0836792 7.42069 -0.0839744 6.87706 0.251145 6.54157C0.25136 6.54135 0.251602 6.54111 0.251816 6.5409L4.54478 2.24793C4.88055 1.9131 5.42417 1.91385 5.75902 2.24962C5.78537 2.27605 5.80998 2.30417 5.83267 2.33379C6.07338 2.69281 6.02084 3.17296 5.70818 3.47142L3.33846 5.84973C3.21249 5.97583 3.06765 6.08158 2.90916 6.16312L2.65159 6.27903L11.083 6.27903C11.5216 6.26274 11.9064 6.56912 11.9888 7.00024C12.0647 7.46831 11.7468 7.90928 11.2787 7.98521Z" fill="white"/>
</g>
<defs>
<clipPath id="clip0_15_2139">
<rect width="12" height="12" fill="white" transform="matrix(1 0 0 -1 0 12)"/>
</clipPath>
</defs>
</svg>
