<svg width="66" height="67" viewBox="0 0 66 67" fill="none" xmlns="http://www.w3.org/2000/svg">
<path d="M0.461914 16.9141C0.461914 8.0775 7.62536 0.914062 16.4619 0.914062H49.849C58.6855 0.914062 65.849 8.07751 65.849 16.9141V50.3011C65.849 59.1377 58.6855 66.3011 49.849 66.3011H16.4619C7.62535 66.3011 0.461914 59.1377 0.461914 50.3011V16.9141Z" fill="#FF9B53"/>
<path d="M38.7612 18.9563C38.1023 18.3039 37.2089 17.9375 36.2774 17.9375C35.3458 17.9375 34.4524 18.3039 33.7936 18.9563L18.3661 34.2413C18.0398 34.5645 17.781 34.9483 17.6044 35.3706C17.4278 35.7929 17.3369 36.2456 17.3369 36.7027C17.3369 37.1598 17.4278 37.6125 17.6044 38.0348C17.781 38.4571 18.0398 38.8409 18.3661 39.1641L20.1963 40.9757C20.9928 41.7663 22.1125 41.6255 22.7886 41.2263C23.1617 41.0069 23.5978 40.9168 24.0282 40.9703C24.4587 41.0238 24.8588 41.2178 25.1656 41.5217C25.4723 41.8256 25.6682 42.222 25.7222 42.6484C25.7761 43.0749 25.6852 43.5069 25.4637 43.8765C25.0624 44.5463 24.9187 45.6556 25.7167 46.4446L27.5485 48.2577C27.8748 48.581 28.2622 48.8374 28.6885 49.0123C29.1148 49.1873 29.5717 49.2773 30.0331 49.2773C30.4945 49.2773 30.9515 49.1873 31.3778 49.0123C31.8041 48.8374 32.1914 48.581 32.5177 48.2577L47.9436 32.9758C48.2699 32.6526 48.5287 32.2688 48.7053 31.8465C48.8819 31.4242 48.9728 30.9715 48.9728 30.5144C48.9728 30.0573 48.8819 29.6047 48.7053 29.1823C48.5287 28.76 48.2699 28.3763 47.9436 28.053L46.1149 26.2399C45.3185 25.4509 44.1972 25.5901 43.521 25.9892C43.148 26.2087 42.7119 26.2987 42.2815 26.2452C41.851 26.1918 41.4508 25.9978 41.1441 25.6939C40.8374 25.39 40.6415 24.9935 40.5875 24.5671C40.5335 24.1407 40.6245 23.7086 40.8459 23.3391C41.2489 22.6692 41.391 21.56 40.593 20.771L38.7627 18.9563H38.7612Z" fill="white"/>
</svg>
