<svg width="66" height="67" fill="none" xmlns="http://www.w3.org/2000/svg"><path d="M.46 16.914c0-8.837 7.164-16 16-16h33.388c8.837 0 16 7.164 16 16v33.387c0 8.837-7.163 16-16 16H16.461c-8.837 0-16-7.163-16-16V16.914Z" fill="#FF9B53"/><path d="M38.76 18.956a3.53 3.53 0 0 0-2.484-1.018 3.53 3.53 0 0 0-2.483 1.018L18.365 34.241a3.479 3.479 0 0 0-1.03 2.462 3.452 3.452 0 0 0 1.03 2.461l1.83 1.812c.797.79 1.916.65 2.593.25a1.967 1.967 0 0 1 2.377.296 1.92 1.92 0 0 1 .298 2.355c-.402.67-.545 1.779.253 2.568l1.832 1.813a3.541 3.541 0 0 0 4.97 0l15.425-15.282a3.477 3.477 0 0 0 1.029-2.462 3.453 3.453 0 0 0-1.03-2.461l-1.828-1.813c-.796-.79-1.918-.65-2.594-.25a1.967 1.967 0 0 1-2.377-.296 1.919 1.919 0 0 1-.298-2.355c.403-.67.545-1.779-.253-2.568l-1.83-1.815h-.002Z" fill="#fff"/></svg>