<svg width="20" height="20" viewBox="0 0 20 20" fill="none" xmlns="http://www.w3.org/2000/svg">
<path d="M17.0999 12.6733L15.5999 11.165V7.44833C15.6199 6.06818 15.1398 4.72742 14.2483 3.67361C13.3569 2.6198 12.1143 1.92411 10.7499 1.715C9.95808 1.61072 9.15312 1.67651 8.38874 1.90798C7.62435 2.13944 6.91812 2.53126 6.31717 3.0573C5.71621 3.58333 5.23435 4.23148 4.90374 4.95849C4.57312 5.68551 4.40136 6.47467 4.3999 7.27333V11.165L2.8999 12.6733C2.71149 12.8649 2.58372 13.1077 2.53257 13.3715C2.48141 13.6353 2.50915 13.9083 2.6123 14.1564C2.71545 14.4045 2.88944 14.6166 3.11252 14.7664C3.33561 14.9161 3.59788 14.9968 3.86656 14.9983H6.66656V15.2817C6.70549 16.1277 7.07819 16.9237 7.703 17.4954C8.32781 18.0671 9.15378 18.3678 9.9999 18.3317C10.846 18.3678 11.672 18.0671 12.2968 17.4954C12.9216 16.9237 13.2943 16.1277 13.3332 15.2817V14.9983H16.1332C16.4019 14.9968 16.6642 14.9161 16.8873 14.7664C17.1104 14.6166 17.2843 14.4045 17.3875 14.1564C17.4907 13.9083 17.5184 13.6353 17.4672 13.3715C17.4161 13.1077 17.2883 12.8649 17.0999 12.6733ZM11.6666 15.2817C11.6203 15.6825 11.4213 16.05 11.1108 16.3077C10.8003 16.5654 10.4024 16.6934 9.9999 16.665C9.59741 16.6934 9.19948 16.5654 8.889 16.3077C8.57853 16.05 8.37945 15.6825 8.33323 15.2817V14.9983H11.6666V15.2817Z" fill="#6C7275"/>
</svg>
