<svg width="20" height="20" viewBox="0 0 20 20" fill="none" xmlns="http://www.w3.org/2000/svg">
<path d="M17.1 12.6733L15.6 11.165V7.44833C15.6199 6.06818 15.1399 4.72742 14.2484 3.67361C13.357 2.6198 12.1143 1.92411 10.75 1.715C9.95817 1.61072 9.15321 1.67651 8.38883 1.90798C7.62444 2.13944 6.91822 2.53126 6.31726 3.0573C5.71631 3.58333 5.23445 4.23148 4.90383 4.95849C4.57321 5.68551 4.40145 6.47467 4.39999 7.27333V11.165L2.89999 12.6733C2.71158 12.8649 2.58381 13.1077 2.53266 13.3715C2.4815 13.6353 2.50924 13.9083 2.61239 14.1564C2.71554 14.4045 2.88953 14.6166 3.11262 14.7664C3.3357 14.9161 3.59797 14.9968 3.86666 14.9983H6.66666V15.2817C6.70558 16.1277 7.07828 16.9237 7.70309 17.4954C8.32791 18.0671 9.15387 18.3678 9.99999 18.3317C10.8461 18.3678 11.6721 18.0671 12.2969 17.4954C12.9217 16.9237 13.2944 16.1277 13.3333 15.2817V14.9983H16.1333C16.402 14.9968 16.6643 14.9161 16.8874 14.7664C17.1104 14.6166 17.2844 14.4045 17.3876 14.1564C17.4907 13.9083 17.5185 13.6353 17.4673 13.3715C17.4162 13.1077 17.2884 12.8649 17.1 12.6733ZM11.6667 15.2817C11.6204 15.6825 11.4214 16.05 11.1109 16.3077C10.8004 16.5654 10.4025 16.6934 9.99999 16.665C9.5975 16.6934 9.19957 16.5654 8.8891 16.3077C8.57862 16.05 8.37954 15.6825 8.33332 15.2817V14.9983H11.6667V15.2817Z" fill="#0C0D0D"/>
</svg>
