<svg width="20" height="20" viewBox="0 0 20 20" fill="none" xmlns="http://www.w3.org/2000/svg">
<path d="M17.1 12.6733L15.6 11.165V7.44833C15.62 6.06818 15.1399 4.72742 14.2485 3.67361C13.357 2.6198 12.1144 1.92411 10.75 1.715C9.9582 1.61072 9.15324 1.67651 8.38886 1.90798C7.62448 2.13944 6.91825 2.53126 6.31729 3.0573C5.71634 3.58333 5.23448 4.23148 4.90386 4.95849C4.57325 5.68551 4.40148 6.47467 4.40002 7.27333V11.165L2.90002 12.6733C2.71161 12.8649 2.58384 13.1077 2.53269 13.3715C2.48153 13.6353 2.50927 13.9083 2.61242 14.1564C2.71557 14.4045 2.88956 14.6166 3.11265 14.7664C3.33573 14.9161 3.59801 14.9968 3.86669 14.9983H6.66669V15.2817C6.70561 16.1277 7.07831 16.9237 7.70312 17.4954C8.32794 18.0671 9.1539 18.3678 10 18.3317C10.8461 18.3678 11.6721 18.0671 12.2969 17.4954C12.9217 16.9237 13.2944 16.1277 13.3334 15.2817V14.9983H16.1334C16.402 14.9968 16.6643 14.9161 16.8874 14.7664C17.1105 14.6166 17.2845 14.4045 17.3876 14.1564C17.4908 13.9083 17.5185 13.6353 17.4674 13.3715C17.4162 13.1077 17.2884 12.8649 17.1 12.6733ZM11.6667 15.2817C11.6205 15.6825 11.4214 16.05 11.1109 16.3077C10.8004 16.5654 10.4025 16.6934 10 16.665C9.59753 16.6934 9.1996 16.5654 8.88913 16.3077C8.57865 16.05 8.37957 15.6825 8.33335 15.2817V14.9983H11.6667V15.2817Z" fill="#6C7275"/>
</svg>
