<svg width="18" height="18" viewBox="0 0 18 18" fill="none" xmlns="http://www.w3.org/2000/svg">
<g clip-path="url(#clip0_1_47)">
<path d="M1.5 15L16.5 15C16.6326 15 16.7598 14.9473 16.8536 14.8536C16.9473 14.7598 17 14.6326 17 14.5L17 3.5C17 3.36739 16.9473 3.24021 16.8536 3.14645C16.7598 3.05268 16.6326 3 16.5 3L1.5 3C1.36739 3 1.24022 3.05268 1.14645 3.14644C1.05268 3.24021 1 3.36739 1 3.5L1 14.5C1 14.6326 1.05268 14.7598 1.14645 14.8536C1.24021 14.9473 1.36739 15 1.5 15ZM6.105 7.295C6.19868 7.20187 6.32541 7.1496 6.4575 7.1496C6.58959 7.1496 6.71632 7.20187 6.81 7.295L9 9.5L11.19 7.31C11.2837 7.21687 11.4104 7.1646 11.5425 7.1646C11.6746 7.1646 11.8013 7.21687 11.895 7.31C11.9419 7.35648 11.9791 7.41178 12.0044 7.47271C12.0298 7.53364 12.0429 7.59899 12.0429 7.665C12.0429 7.73101 12.0298 7.79636 12.0044 7.85729C11.9791 7.91822 11.9419 7.97352 11.895 8.02L9 10.9L6.105 8C6.01187 7.90632 5.9596 7.77959 5.9596 7.6475C5.9596 7.51541 6.01187 7.38868 6.105 7.295ZM6.105 10.395C6.19868 10.3019 6.32541 10.2496 6.4575 10.2496C6.58959 10.2496 6.71632 10.3019 6.81 10.395L9 12.585L11.19 10.395C11.2837 10.3019 11.4104 10.2496 11.5425 10.2496C11.6746 10.2496 11.8013 10.3019 11.895 10.395C11.9419 10.4415 11.9791 10.4968 12.0044 10.5577C12.0298 10.6186 12.0429 10.684 12.0429 10.75C12.0429 10.816 12.0298 10.8814 12.0044 10.9423C11.9791 11.0032 11.9419 11.0585 11.895 11.105L9 14L6.105 11.105C6.05814 11.0585 6.02094 11.0032 5.99555 10.9423C5.97017 10.8814 5.9571 10.816 5.9571 10.75C5.9571 10.684 5.97017 10.6186 5.99555 10.5577C6.02094 10.4968 6.05814 10.4415 6.105 10.395Z" fill="#959798"/>
</g>
<defs>
<clipPath id="clip0_1_47">
<rect width="18" height="18" fill="white" transform="translate(18 18) rotate(-180)"/>
</clipPath>
</defs>
</svg>
