<svg width="18" height="18" viewBox="0 0 18 18" fill="none" xmlns="http://www.w3.org/2000/svg">
<g clip-path="url(#clip0_2_4271)">
<path d="M16.5 3L1.5 3C1.36739 3 1.24021 3.05268 1.14645 3.14645C1.05268 3.24021 1 3.36739 1 3.5L1 14.5C1 14.6326 1.05268 14.7598 1.14645 14.8536C1.24021 14.9473 1.36739 15 1.5 15L16.5 15C16.6326 15 16.7598 14.9473 16.8536 14.8536C16.9473 14.7598 17 14.6326 17 14.5V3.5C17 3.36739 16.9473 3.24021 16.8536 3.14645C16.7598 3.05268 16.6326 3 16.5 3ZM11.895 10.705C11.8013 10.7981 11.6746 10.8504 11.5425 10.8504C11.4104 10.8504 11.2837 10.7981 11.19 10.705L9 8.5L6.81 10.69C6.71632 10.7831 6.58959 10.8354 6.4575 10.8354C6.32541 10.8354 6.19868 10.7831 6.105 10.69C6.05814 10.6435 6.02094 10.5882 5.99555 10.5273C5.97017 10.4664 5.9571 10.401 5.9571 10.335C5.9571 10.269 5.97017 10.2036 5.99555 10.1427C6.02094 10.0818 6.05814 10.0265 6.105 9.98L9 7.1L11.895 10C11.9881 10.0937 12.0404 10.2204 12.0404 10.3525C12.0404 10.4846 11.9881 10.6113 11.895 10.705ZM11.895 7.605C11.8013 7.69813 11.6746 7.7504 11.5425 7.7504C11.4104 7.7504 11.2837 7.69813 11.19 7.605L9 5.415L6.81 7.605C6.71632 7.69813 6.58959 7.7504 6.4575 7.7504C6.32541 7.7504 6.19868 7.69813 6.105 7.605C6.05814 7.55852 6.02094 7.50322 5.99555 7.44229C5.97017 7.38136 5.9571 7.31601 5.9571 7.25C5.9571 7.18399 5.97017 7.11864 5.99555 7.05771C6.02094 6.99678 6.05814 6.94148 6.105 6.895L9 4L11.895 6.895C11.9419 6.94148 11.9791 6.99678 12.0044 7.05771C12.0298 7.11864 12.0429 7.18399 12.0429 7.25C12.0429 7.31601 12.0298 7.38136 12.0044 7.44229C11.9791 7.50322 11.9419 7.55852 11.895 7.605Z" fill="#959798"/>
</g>
<defs>
<clipPath id="clip0_2_4271">
<rect width="18" height="18" fill="white"/>
</clipPath>
</defs>
</svg>
