<svg width="66" height="67" fill="none" xmlns="http://www.w3.org/2000/svg"><path d="M.385 16.914c0-8.837 7.163-16 16-16h33.387c8.836 0 16 7.164 16 16v33.387c0 8.837-7.164 16-16 16H16.385c-8.837 0-16-7.163-16-16V16.914Z" fill="#FDBF00"/><path d="M19.62 41.581c0 1.467.655 2.784 1.681 3.7v2.134c0 1.383 1.128 2.5 2.524 2.5a2.509 2.509 0 0 0 2.524-2.5v-.834h13.458v.834c0 1.366 1.128 2.5 2.524 2.5 1.38 0 2.524-1.117 2.524-2.5V45.28c1.026-.916 1.682-2.233 1.682-3.7V24.915c0-5.834-6.023-6.667-13.459-6.667s-13.459.833-13.459 6.667V41.58Zm5.887 1.667a2.508 2.508 0 0 1-2.523-2.5c0-1.383 1.127-2.5 2.523-2.5a2.509 2.509 0 0 1 2.524 2.5c0 1.383-1.127 2.5-2.524 2.5Zm15.142 0a2.508 2.508 0 0 1-2.524-2.5c0-1.383 1.127-2.5 2.524-2.5a2.509 2.509 0 0 1 2.523 2.5c0 1.383-1.127 2.5-2.523 2.5Zm2.523-10H22.984v-8.333h20.188v8.333Z" fill="#fff"/></svg>