<svg width="66" height="67" viewBox="0 0 66 67" fill="none" xmlns="http://www.w3.org/2000/svg">
<path d="M0.383789 16.9141C0.383789 8.0775 7.54723 0.914062 16.3838 0.914062H49.7708C58.6074 0.914062 65.7708 8.07751 65.7708 16.9141V50.3011C65.7708 59.1377 58.6074 66.3011 49.7708 66.3011H16.3838C7.54722 66.3011 0.383789 59.1377 0.383789 50.3011V16.9141Z" fill="#FDBF00"/>
<path d="M19.6182 41.5814C19.6182 43.048 20.2743 44.3647 21.3005 45.2814V47.4147C21.3005 48.798 22.4277 49.9147 23.8241 49.9147C25.2204 49.9147 26.3476 48.798 26.3476 47.4147V46.5814H39.8065V47.4147C39.8065 48.7814 40.9337 49.9147 42.3301 49.9147C43.7096 49.9147 44.8536 48.798 44.8536 47.4147V45.2814C45.8799 44.3647 46.536 43.048 46.536 41.5814V24.9147C46.536 19.0814 40.5131 18.248 33.0771 18.248C25.641 18.248 19.6182 19.0814 19.6182 24.9147V41.5814ZM25.5064 43.248C24.1101 43.248 22.9829 42.1314 22.9829 40.748C22.9829 39.3647 24.1101 38.248 25.5064 38.248C26.9028 38.248 28.03 39.3647 28.03 40.748C28.03 42.1314 26.9028 43.248 25.5064 43.248ZM40.6477 43.248C39.2514 43.248 38.1242 42.1314 38.1242 40.748C38.1242 39.3647 39.2514 38.248 40.6477 38.248C42.0441 38.248 43.1713 39.3647 43.1713 40.748C43.1713 42.1314 42.0441 43.248 40.6477 43.248ZM43.1713 33.248H22.9829V24.9147H43.1713V33.248Z" fill="white"/>
</svg>
