<svg width="24" height="24" viewBox="0 0 24 24" fill="none" xmlns="http://www.w3.org/2000/svg">
<path d="M13 2C12.7348 2 12.4804 2.10536 12.2929 2.29289C12.1054 2.48043 12 2.73478 12 3V11C12 11.2652 12.1054 11.5196 12.2929 11.7071C12.4804 11.8946 12.7348 12 13 12H21C21.2652 12 21.5196 11.8946 21.7071 11.7071C21.8946 11.5196 22 11.2652 22 11C22 8.61305 21.0518 6.32387 19.364 4.63604C17.6761 2.94821 15.3869 2 13 2ZM14 10V4.07C15.4962 4.28561 16.8824 4.97978 17.9513 6.04868C19.0202 7.11759 19.7144 8.50379 19.93 10H14Z" fill="#4386F4"/>
<path d="M20.8201 14.062C20.696 14.0174 20.5644 13.9978 20.4327 14.0043C20.301 14.0109 20.1719 14.0434 20.0529 14.1001C19.9339 14.1569 19.8273 14.2366 19.7393 14.3348C19.6513 14.4329 19.5836 14.5475 19.5401 14.672C19.0894 15.9459 18.3234 17.0849 17.3136 17.9828C16.3037 18.8806 15.0829 19.508 13.7649 19.8064C12.447 20.1049 11.075 20.0646 9.77684 19.6894C8.47869 19.3142 7.29673 18.6163 6.34123 17.6608C5.38573 16.7053 4.68783 15.5234 4.31264 14.2252C3.93745 12.9271 3.8972 11.555 4.19564 10.2371C4.49408 8.91923 5.12148 7.69838 6.01932 6.68851C6.91716 5.67863 8.05617 4.91264 9.33009 4.46199C9.57854 4.37279 9.78169 4.18907 9.89534 3.95082C10.009 3.71256 10.0239 3.43906 9.9369 3.18985C9.84987 2.94063 9.66792 2.73588 9.43067 2.62017C9.19341 2.50445 8.92005 2.48713 8.67009 2.57199C7.07713 3.13476 5.65272 4.09195 4.5298 5.35421C3.40689 6.61646 2.62207 8.14264 2.24861 9.79029C1.87515 11.4379 1.92521 13.1534 2.39413 14.7764C2.86305 16.3995 3.73553 17.8773 4.93015 19.0719C6.12477 20.2665 7.60258 21.139 9.22565 21.6079C10.8487 22.0769 12.5641 22.1269 14.2118 21.7535C15.8594 21.38 17.3856 20.5952 18.6479 19.4723C19.9101 18.3494 20.8673 16.9249 21.4301 15.332C21.5166 15.0826 21.501 14.8092 21.3867 14.5713C21.2725 14.3334 21.0688 14.1503 20.8201 14.062Z" fill="#4386F4"/>
</svg>
