<svg width="67" height="67" viewBox="0 0 67 67" fill="none" xmlns="http://www.w3.org/2000/svg">
<rect x="0.922852" y="0.914062" width="65.387" height="65.387" rx="16" fill="#36DA76"/>
<path d="M42.0841 46.3528C42.0293 45.1793 41.9566 44.0121 41.8984 42.8475C41.7102 39.2043 41.7256 35.5077 41.5288 31.8465C41.3319 28.2127 41.4487 24.5765 41.3448 20.9429C41.3239 20.1877 41.3576 18.6963 40.5762 18.2657C38.8952 17.3409 37.8973 19.8635 37.4696 20.8905C36.6987 22.7547 36.2533 24.7153 35.7027 26.6465C35.2334 28.2997 34.6989 29.9474 34.5178 31.659C34.3836 32.9432 34.3959 34.381 35.0669 35.5382C35.4038 36.1198 35.9863 36.5156 36.6496 36.6829C37.3381 36.859 38.1252 36.6284 38.7784 36.9393C38.9468 37.0207 39.0952 37.1898 39.1628 37.3605C39.3745 37.9107 39.1742 38.7456 39.108 39.3132C38.8983 41.1419 38.6766 42.9889 38.5773 44.8263C38.5186 45.9376 38.4537 47.3608 39.1259 48.3289C39.538 48.9169 40.373 49.4659 41.1265 49.1737C42.2526 48.7426 42.1309 47.2865 42.0841 46.3528V46.3528Z" fill="white"/>
<path d="M27.7576 19.0764C27.4339 19.2062 27.5567 20.3633 27.5422 20.7188C27.521 21.3575 27.5646 22.2026 27.4877 23.0304C27.4872 23.0378 27.4861 23.0429 27.485 23.0481C27.4784 23.1056 27.473 23.1676 27.4635 23.2332C27.4534 23.2964 27.4427 23.3574 27.4349 23.4201C27.366 23.8237 27.2346 24.3016 26.9864 24.5307C26.7045 24.7928 26.073 24.7377 25.8537 24.428C25.4948 23.9239 25.5217 22.7985 25.4999 22.7654C25.4853 22.233 25.4078 20.6227 25.2914 19.561C25.2818 19.481 25.2663 18.9998 24.8269 18.9483C24.6221 18.9261 24.4065 19.1007 24.3366 19.4196C24.1302 20.3609 23.937 22.1552 23.9248 22.4373C23.9223 22.4647 23.9211 22.4965 23.921 22.5232C23.921 22.5232 23.9199 22.5284 23.9205 22.5306C23.9192 22.5892 23.8494 23.995 23.4937 24.4799C23.3078 24.7342 22.8251 24.9342 22.3454 24.6651C22.1543 24.5568 22.0234 24.3481 21.9311 24.1244C21.4294 22.5631 21.8797 20.8431 21.9438 20.0234C21.9628 19.7929 22.1715 19.0233 21.7058 19.049C21.0046 19.0871 20.099 22.0748 19.9371 22.7596C19.5401 24.4634 19.4799 26.284 20.1704 27.9275C20.5541 28.8376 21.3043 29.5826 22.2347 29.9438C22.6459 30.102 23.1028 30.2168 23.5867 30.2834C23.4126 34.1568 23.2149 38.1989 23.0349 40.4483C22.8965 42.1411 22.733 43.8525 22.755 45.5524C22.768 46.568 22.7573 47.779 23.424 48.6305C24.1213 49.5202 25.5923 49.1109 25.9894 48.0596C26.4349 46.8746 26.3053 45.4936 26.1536 43.3178C26.0013 41.1397 25.8299 38.1684 25.7354 36.5697C25.5971 34.2157 25.5488 32.1587 25.5356 30.2819C26.7742 30.105 27.9295 29.5735 28.576 28.596C28.8597 28.1685 29.0464 27.6908 29.174 27.1993C29.3696 26.4549 29.465 25.6393 29.4227 24.8715C29.3798 24.1645 28.7987 18.6594 27.7576 19.0764V19.0764Z" fill="white"/>
</svg>
