<svg width="67" height="67" fill="none" xmlns="http://www.w3.org/2000/svg"><rect x=".922" y=".914" width="65.387" height="65.387" rx="16" fill="#36DA76"/><path d="M42.082 46.353c-.055-1.174-.127-2.34-.186-3.506-.188-3.643-.172-7.34-.37-11-.196-3.634-.08-7.27-.183-10.904-.021-.755.013-2.247-.769-2.677-1.68-.925-2.679 1.598-3.106 2.625-.771 1.864-1.217 3.824-1.767 5.756-.47 1.653-1.004 3.3-1.185 5.012-.134 1.284-.122 2.722.549 3.88.337.58.92.977 1.583 1.144.688.176 1.475-.055 2.128.256a.83.83 0 0 1 .385.422c.212.55.011 1.385-.055 1.952-.21 1.829-.431 3.676-.53 5.513-.06 1.112-.124 2.535.548 3.503.412.588 1.247 1.137 2 .845 1.127-.431 1.005-1.888.958-2.821ZM27.756 19.076c-.324.13-.201 1.287-.216 1.643-.021.639.023 1.484-.054 2.311 0 .008-.002.013-.003.018-.007.058-.012.12-.021.185-.01.063-.021.124-.029.187-.069.404-.2.882-.449 1.11-.281.263-.913.208-1.132-.102-.36-.504-.332-1.63-.354-1.663a50.425 50.425 0 0 0-.209-3.204c-.01-.08-.025-.561-.464-.613-.205-.022-.42.153-.49.472-.207.94-.4 2.735-.412 3.017-.003.028-.004.06-.004.086v.008c-.002.058-.072 1.464-.427 1.949-.186.254-.669.454-1.149.185-.19-.108-.322-.317-.414-.54-.502-1.562-.051-3.282.013-4.102.019-.23.228-1-.238-.974-.701.038-1.607 3.026-1.769 3.71-.397 1.704-.457 3.525.234 5.168a3.728 3.728 0 0 0 2.064 2.017c.41.158.868.273 1.352.34-.174 3.873-.372 7.915-.552 10.164-.139 1.693-.302 3.404-.28 5.104.013 1.016.002 2.227.669 3.078.697.89 2.168.48 2.566-.57.445-1.185.315-2.566.164-4.742-.153-2.178-.324-5.15-.419-6.748a119.793 119.793 0 0 1-.2-6.288c1.24-.177 2.394-.709 3.041-1.686.284-.427.47-.905.598-1.397.196-.744.291-1.56.249-2.328-.043-.706-.624-6.212-1.665-5.795Z" fill="#fff"/></svg>