<svg width="18" height="18" viewBox="0 0 18 18" fill="none" xmlns="http://www.w3.org/2000/svg">
<g clip-path="url(#clip0_1_121)">
<path d="M0 5.25616H4.2418L10.623 0.0553131V17.9447L4.2418 12.7438H0V5.25616ZM13.0205 4.40779C14.2746 5.66189 14.9139 7.18648 14.9385 8.98156C14.9385 10.7029 14.2992 12.1783 13.0205 13.4078L11.7295 12.0799C12.6148 11.1947 13.0574 10.1496 13.0574 8.94467C13.0574 7.71517 12.6147 6.64552 11.7295 5.73566L13.0205 4.40779ZM15.2336 2.23156C17.0779 4.07582 18 6.30124 18 8.90779C18 11.5144 17.0779 13.7521 15.2336 15.6209L13.8689 14.2562C15.3443 12.8053 16.082 11.0287 16.082 8.92627C16.082 6.82381 15.3443 5.03486 13.8689 3.55945L15.2336 2.23156Z" fill="#282A2E"/>
</g>
<defs>
<clipPath id="clip0_1_121">
<rect width="18" height="18" fill="white"/>
</clipPath>
</defs>
</svg>
