<svg width="30" height="30" fill="none" xmlns="http://www.w3.org/2000/svg"><path fill-rule="evenodd" clip-rule="evenodd" d="M8 0a8 8 0 0 0-8 8v14c0 .19.007.378.02.565l-.02.028c0 .345.043.625.128.84A8.002 8.002 0 0 0 8 30h14a8 8 0 0 0 8-8V8a8 8 0 0 0-8-8H8Zm22 19.985c0 .314-.084.613-.251.898-.14.256-.363.456-.67.598-.223.143-.627.37-1.213.684l-1.84.94c-.67.314-1.312.628-1.926.941-.585.314-1.004.527-1.255.641-.558.257-.99.428-1.297.513-.279.057-.67.086-1.171.086-.53 0-1.019-.1-1.465-.3a2.798 2.798 0 0 1-1.046-.854 3.372 3.372 0 0 1-.586-1.24 3.212 3.212 0 0 1 .042-1.539c0-.912.154-1.753.46-2.522.335-.798.698-1.553 1.088-2.266a22.75 22.75 0 0 0 1.088-2.18 5.646 5.646 0 0 0 .502-2.35c-.613 0-1.269.199-1.966.598-.698.399-1.409.926-2.134 1.581a26.484 26.484 0 0 0-2.092 2.223c-.67.798-1.311 1.61-1.925 2.437a30.596 30.596 0 0 0-1.548 2.308c-.418.741-.74 1.354-.962 1.838-.056.029-.196.057-.419.086h-.418c-.446.228-.725.228-.837 0-.084-.257-.084-.642 0-1.155a14.09 14.09 0 0 1 .502-1.71c.223-.655.432-1.268.628-1.838a25 25 0 0 0 .502-1.453c.111-.399.125-.598.042-.598.083-.114.18-.3.293-.556.111-.257.223-.527.334-.812.112-.285.21-.542.293-.77.084-.256.126-.456.126-.598 0-.257-.098-.413-.293-.47a1.095 1.095 0 0 0-.502-.129c-.502-.285-1.046-.114-1.632.513-.558.599-1.172 1.468-1.841 2.608a146.506 146.506 0 0 0-2.134 3.847 41.817 41.817 0 0 1-2.51 4.147c-.642 0-1.13-.086-1.465-.257-.166-.085-.29-.232-.374-.443a8.006 8.006 0 0 1-.108-.867c.223-.32.55-.895.984-1.725.446-.883.949-1.852 1.506-2.907a126.485 126.485 0 0 1 1.758-3.206c.641-1.083 1.241-1.995 1.799-2.736.586-.77 1.102-1.282 1.548-1.539.474-.285.85-.156 1.13.385.474-.313.99-.584 1.548-.812a4.815 4.815 0 0 1 1.757-.342c.39 0 .711.128.963.385.278.228.488.527.627.897.167.342.293.713.377 1.112.083.37.125.698.125.983.307-.2.81-.542 1.507-1.026a54.866 54.866 0 0 1 2.3-1.539 25.89 25.89 0 0 1 2.428-1.325c.809-.399 1.464-.598 1.966-.598.446 0 .823.17 1.13.512.335.314.502.713.502 1.197a622.63 622.63 0 0 0-2.385 6.028c-.558 1.51-.934 2.693-1.13 3.548-.167.826-.167 1.425 0 1.795.195.342.53.613 1.004.813.754 0 1.479-.129 2.176-.385.697-.257 1.38-.542 2.05-.855a32.275 32.275 0 0 1 2.092-.855A6.373 6.373 0 0 1 30 19.985Z" fill="#fff"/></svg>