<svg width="24" height="24" viewBox="0 0 24 24" fill="none" xmlns="http://www.w3.org/2000/svg">
<path d="M6.99999 14C6.56347 14.0007 6.13236 14.0966 5.73673 14.281C5.3411 14.4655 4.9905 14.734 4.70938 15.068C4.42826 15.4019 4.22341 15.7932 4.10912 16.2145C3.99482 16.6358 3.97384 17.0769 4.04764 17.5072C4.12143 17.9374 4.28823 18.3463 4.53638 18.7055C4.78454 19.0646 5.10807 19.3652 5.48441 19.5864C5.86074 19.8076 6.28081 19.944 6.71529 19.986C7.14977 20.0281 7.58821 19.9749 7.99999 19.83" stroke="#FFAB3F" stroke-width="2" stroke-linecap="round" stroke-linejoin="round"/>
<path d="M4.26397 15.605C3.66554 15.3169 3.14826 14.8843 2.75883 14.3463C2.36939 13.8082 2.12006 13.1817 2.03333 12.5232C1.94661 11.8647 2.02521 11.195 2.26206 10.5745C2.49891 9.95399 2.88654 9.40222 3.38997 8.96899M3.41997 8.88799C3.09202 8.39724 2.94828 7.80627 3.0142 7.21972C3.08011 6.63316 3.35144 6.08885 3.78015 5.68314C4.20886 5.27742 4.76729 5.03648 5.35658 5.00296C5.94588 4.96944 6.52803 5.1455 6.99997 5.49999M7.23797 5.56499C7.07845 5.22603 6.99714 4.85556 7.00005 4.48095C7.00296 4.10634 7.09003 3.73718 7.25481 3.40075C7.41959 3.06431 7.65787 2.76921 7.95204 2.53726C8.24621 2.30531 8.58875 2.14243 8.95434 2.06067C9.31993 1.9789 9.69922 1.98035 10.0642 2.06489C10.4291 2.14944 10.7704 2.31492 11.0628 2.5491C11.3552 2.78329 11.5912 3.0802 11.7534 3.41788C11.9157 3.75555 11.9999 4.12537 12 4.49999V20C12 20.5304 11.7893 21.0391 11.4142 21.4142C11.0391 21.7893 10.5304 22 9.99997 22C9.46954 22 8.96083 21.7893 8.58576 21.4142C8.21069 21.0391 7.99997 20.5304 7.99997 20M12 6.99999C12 7.79564 12.316 8.5587 12.8787 9.12131C13.4413 9.68392 14.2043 9.99999 15 9.99999M17 14C17.4365 14.0006 17.8676 14.0965 18.2632 14.281C18.6589 14.4655 19.0095 14.734 19.2906 15.068C19.5717 15.4019 19.7765 15.7932 19.8908 16.2145C20.0051 16.6358 20.0261 17.0769 19.9523 17.5072C19.8785 17.9374 19.7117 18.3463 19.4636 18.7055C19.2154 19.0646 18.8919 19.3652 18.5156 19.5864C18.1392 19.8076 17.7192 19.9439 17.2847 19.986C16.8502 20.0281 16.4118 19.9748 16 19.83" stroke="#FFAB3F" stroke-width="2" stroke-linecap="round" stroke-linejoin="round"/>
<path d="M19.736 15.605C20.3344 15.3169 20.8517 14.8843 21.2411 14.3463C21.6306 13.8082 21.8799 13.1817 21.9666 12.5232C22.0534 11.8647 21.9748 11.195 21.7379 10.5745C21.5011 9.95399 21.1134 9.40222 20.61 8.96899M20.58 8.88799C20.908 8.39724 21.0517 7.80627 20.9858 7.21972C20.9199 6.63316 20.6485 6.08885 20.2198 5.68314C19.7911 5.27742 19.2327 5.03648 18.6434 5.00296C18.0541 4.96944 17.4719 5.1455 17 5.49999M12 4.49999C12.0001 4.12537 12.0843 3.75555 12.2465 3.41788C12.4087 3.0802 12.6448 2.78329 12.9372 2.5491C13.2296 2.31492 13.5708 2.14944 13.9358 2.06489C14.3008 1.98035 14.68 1.9789 15.0456 2.06067C15.4112 2.14243 15.7538 2.30531 16.0479 2.53726C16.3421 2.76921 16.5804 3.06431 16.7452 3.40075C16.9099 3.73718 16.997 4.10634 16.9999 4.48095C17.0028 4.85556 16.9215 5.22603 16.762 5.56499M16 20C16 20.5304 15.7893 21.0391 15.4142 21.4142C15.0391 21.7893 14.5304 22 14 22C13.4696 22 12.9609 21.7893 12.5858 21.4142C12.2107 21.0391 12 20.5304 12 20" stroke="#FFAB3F" stroke-width="2" stroke-linecap="round" stroke-linejoin="round"/>
</svg>
