<svg width="24" height="24" viewBox="0 0 24 24" fill="none" xmlns="http://www.w3.org/2000/svg">
<path d="M6.99993 14C6.56341 14.0007 6.1323 14.0966 5.73667 14.281C5.34104 14.4655 4.99044 14.734 4.70932 15.068C4.4282 15.4019 4.22335 15.7932 4.10906 16.2145C3.99476 16.6358 3.97378 17.0769 4.04758 17.5072C4.12137 17.9374 4.28817 18.3463 4.53632 18.7055C4.78448 19.0646 5.10801 19.3652 5.48435 19.5864C5.86068 19.8076 6.28075 19.944 6.71523 19.986C7.14971 20.0281 7.58815 19.9749 7.99993 19.83" stroke="#FFAB3F" stroke-width="2" stroke-linecap="round" stroke-linejoin="round"/>
<path d="M4.26391 15.605C3.66548 15.3169 3.1482 14.8843 2.75876 14.3463C2.36933 13.8082 2.12 13.1817 2.03327 12.5232C1.94655 11.8647 2.02515 11.195 2.262 10.5745C2.49885 9.95399 2.88648 9.40222 3.38991 8.96899M3.41991 8.88799C3.09196 8.39724 2.94821 7.80627 3.01413 7.21972C3.08005 6.63316 3.35138 6.08885 3.78009 5.68314C4.2088 5.27742 4.76723 5.03648 5.35652 5.00296C5.94582 4.96944 6.52797 5.1455 6.99991 5.49999M7.23791 5.56499C7.07839 5.22603 6.99708 4.85556 6.99999 4.48095C7.0029 4.10634 7.08997 3.73718 7.25475 3.40075C7.41953 3.06431 7.65781 2.76921 7.95198 2.53726C8.24615 2.30531 8.58869 2.14243 8.95428 2.06067C9.31987 1.9789 9.69916 1.98035 10.0641 2.06489C10.4291 2.14944 10.7704 2.31492 11.0627 2.5491C11.3551 2.78329 11.5912 3.0802 11.7534 3.41788C11.9156 3.75555 11.9999 4.12537 11.9999 4.49999V20C11.9999 20.5304 11.7892 21.0391 11.4141 21.4142C11.0391 21.7893 10.5303 22 9.99991 22C9.46948 22 8.96077 21.7893 8.5857 21.4142C8.21063 21.0391 7.99991 20.5304 7.99991 20M11.9999 6.99999C11.9999 7.79564 12.316 8.5587 12.8786 9.12131C13.4412 9.68392 14.2043 9.99999 14.9999 9.99999M16.9999 14C17.4364 14.0006 17.8675 14.0965 18.2632 14.281C18.6588 14.4655 19.0094 14.734 19.2905 15.068C19.5716 15.4019 19.7765 15.7932 19.8908 16.2145C20.0051 16.6358 20.0261 17.0769 19.9523 17.5072C19.8785 17.9374 19.7117 18.3463 19.4635 18.7055C19.2154 19.0646 18.8918 19.3652 18.5155 19.5864C18.1392 19.8076 17.7191 19.9439 17.2846 19.986C16.8501 20.0281 16.4117 19.9748 15.9999 19.83" stroke="#FFAB3F" stroke-width="2" stroke-linecap="round" stroke-linejoin="round"/>
<path d="M19.736 15.605C20.3344 15.3169 20.8517 14.8843 21.2411 14.3463C21.6306 13.8082 21.8799 13.1817 21.9666 12.5232C22.0534 11.8647 21.9748 11.195 21.7379 10.5745C21.5011 9.95399 21.1134 9.40222 20.61 8.96899M20.58 8.88799C20.908 8.39724 21.0517 7.80627 20.9858 7.21972C20.9199 6.63316 20.6485 6.08885 20.2198 5.68314C19.7911 5.27742 19.2327 5.03648 18.6434 5.00296C18.0541 4.96944 17.4719 5.1455 17 5.49999M12 4.49999C12.0001 4.12537 12.0843 3.75555 12.2465 3.41788C12.4087 3.0802 12.6448 2.78329 12.9372 2.5491C13.2296 2.31492 13.5708 2.14944 13.9358 2.06489C14.3008 1.98035 14.68 1.9789 15.0456 2.06067C15.4112 2.14243 15.7538 2.30531 16.0479 2.53726C16.3421 2.76921 16.5804 3.06431 16.7452 3.40075C16.9099 3.73718 16.997 4.10634 16.9999 4.48095C17.0028 4.85556 16.9215 5.22603 16.762 5.56499M16 20C16 20.5304 15.7893 21.0391 15.4142 21.4142C15.0391 21.7893 14.5304 22 14 22C13.4696 22 12.9609 21.7893 12.5858 21.4142C12.2107 21.0391 12 20.5304 12 20" stroke="#FFAB3F" stroke-width="2" stroke-linecap="round" stroke-linejoin="round"/>
</svg>
