<svg width="20" height="20" viewBox="0 0 20 20" fill="none" xmlns="http://www.w3.org/2000/svg">
<path d="M16.4499 6.94167L11.9166 1.94167C11.8387 1.85534 11.7436 1.78628 11.6374 1.73892C11.5311 1.69155 11.4162 1.66694 11.2999 1.66667H5.46659C5.18971 1.66337 4.9149 1.71464 4.65784 1.81755C4.40078 1.92046 4.16651 2.073 3.9684 2.26646C3.7703 2.45992 3.61225 2.69051 3.50327 2.94506C3.39429 3.19961 3.33652 3.47313 3.33325 3.75V16.25C3.33652 16.5269 3.39429 16.8004 3.50327 17.0549C3.61225 17.3095 3.7703 17.5401 3.9684 17.7335C4.16651 17.927 4.40078 18.0795 4.65784 18.1825C4.9149 18.2854 5.18971 18.3366 5.46659 18.3333H14.5333C15.0924 18.3398 15.6312 18.124 16.0312 17.7333C16.4312 17.3426 16.6598 16.8091 16.6666 16.25V7.5C16.666 7.29347 16.5888 7.0945 16.4499 6.94167ZM11.6666 4.16667L13.9499 6.66667H12.2833C12.196 6.6614 12.1106 6.6388 12.0322 6.6002C11.9538 6.56159 11.8838 6.50774 11.8264 6.44181C11.769 6.37587 11.7253 6.29916 11.6979 6.21615C11.6704 6.13314 11.6598 6.0455 11.6666 5.95834V4.16667ZM14.5333 16.6667H5.46659C5.40856 16.67 5.35045 16.6619 5.29556 16.6428C5.24068 16.6237 5.19012 16.5939 5.14676 16.5552C5.10341 16.5165 5.06812 16.4696 5.04292 16.4172C5.01772 16.3649 5.00311 16.308 4.99992 16.25V3.75C5.00311 3.69197 5.01772 3.63514 5.04292 3.58277C5.06812 3.53039 5.10341 3.48351 5.14676 3.4448C5.19012 3.40609 5.24068 3.37632 5.29556 3.35719C5.35045 3.33807 5.40856 3.32996 5.46659 3.33334H9.99992V5.95834C9.98647 6.57219 10.2164 7.16644 10.6395 7.61139C11.0626 8.05635 11.6445 8.31588 12.2583 8.33334H14.9999V16.25C14.9967 16.308 14.9821 16.3649 14.9569 16.4172C14.9317 16.4696 14.8964 16.5165 14.8531 16.5552C14.8097 16.5939 14.7592 16.6237 14.7043 16.6428C14.6494 16.6619 14.5913 16.67 14.5333 16.6667Z" fill="#0C0D0D"/>
<path d="M11.6667 10.8333H10.8333V10C10.8333 9.77899 10.7455 9.56703 10.5893 9.41075C10.433 9.25447 10.221 9.16667 10 9.16667C9.77899 9.16667 9.56702 9.25447 9.41074 9.41075C9.25446 9.56703 9.16667 9.77899 9.16667 10V10.8333H8.33333C8.11232 10.8333 7.90036 10.9211 7.74408 11.0774C7.5878 11.2337 7.5 11.4457 7.5 11.6667C7.5 11.8877 7.5878 12.0996 7.74408 12.2559C7.90036 12.4122 8.11232 12.5 8.33333 12.5H9.16667V13.3333C9.16667 13.5544 9.25446 13.7663 9.41074 13.9226C9.56702 14.0789 9.77899 14.1667 10 14.1667C10.221 14.1667 10.433 14.0789 10.5893 13.9226C10.7455 13.7663 10.8333 13.5544 10.8333 13.3333V12.5H11.6667C11.8877 12.5 12.0996 12.4122 12.2559 12.2559C12.4122 12.0996 12.5 11.8877 12.5 11.6667C12.5 11.4457 12.4122 11.2337 12.2559 11.0774C12.0996 10.9211 11.8877 10.8333 11.6667 10.8333Z" fill="#0C0D0D"/>
</svg>
