<svg width="20" height="20" viewBox="0 0 20 20" fill="none" xmlns="http://www.w3.org/2000/svg">
<path d="M16.45 6.94165L11.9166 1.94165C11.8387 1.85533 11.7436 1.78626 11.6374 1.7389C11.5312 1.69154 11.4163 1.66693 11.3 1.66665H5.46665C5.18977 1.66335 4.91496 1.71462 4.6579 1.81753C4.40084 1.92045 4.16657 2.07299 3.96846 2.26645C3.77036 2.45991 3.61231 2.6905 3.50333 2.94504C3.39435 3.19959 3.33658 3.47311 3.33331 3.74999V16.25C3.33658 16.5269 3.39435 16.8004 3.50333 17.0549C3.61231 17.3095 3.77036 17.5401 3.96846 17.7335C4.16657 17.927 4.40084 18.0795 4.6579 18.1824C4.91496 18.2854 5.18977 18.3366 5.46665 18.3333H14.5333C15.0924 18.3398 15.6312 18.1239 16.0313 17.7333C16.4313 17.3426 16.6598 16.8091 16.6666 16.25V7.49999C16.6661 7.29346 16.5889 7.09449 16.45 6.94165ZM11.6666 4.16665L13.95 6.66665H12.2833C12.196 6.66139 12.1107 6.63879 12.0323 6.60018C11.9538 6.56157 11.8839 6.50773 11.8265 6.44179C11.7691 6.37585 11.7254 6.29914 11.6979 6.21613C11.6705 6.13312 11.6598 6.04548 11.6666 5.95832V4.16665ZM14.5333 16.6667H5.46665C5.40862 16.67 5.35051 16.6619 5.29563 16.6428C5.24074 16.6237 5.19018 16.5939 5.14682 16.5552C5.10347 16.5165 5.06818 16.4696 5.04298 16.4172C5.01779 16.3649 5.00317 16.308 4.99998 16.25V3.74999C5.00317 3.69196 5.01779 3.63512 5.04298 3.58275C5.06818 3.53038 5.10347 3.48349 5.14682 3.44479C5.19018 3.40608 5.24074 3.37631 5.29563 3.35718C5.35051 3.33805 5.40862 3.32994 5.46665 3.33332H9.99998V5.95832C9.98653 6.57217 10.2164 7.16643 10.6395 7.61138C11.0626 8.05633 11.6446 8.31586 12.2583 8.33332H15V16.25C14.9968 16.308 14.9822 16.3649 14.957 16.4172C14.9318 16.4696 14.8965 16.5165 14.8531 16.5552C14.8098 16.5939 14.7592 16.6237 14.7043 16.6428C14.6495 16.6619 14.5913 16.67 14.5333 16.6667Z" fill="#0C0D0D"/>
<path d="M11.6667 10.8333H10.8333V9.99999C10.8333 9.77898 10.7455 9.56701 10.5893 9.41073C10.433 9.25445 10.221 9.16666 10 9.16666C9.77899 9.16666 9.56702 9.25445 9.41074 9.41073C9.25446 9.56701 9.16667 9.77898 9.16667 9.99999V10.8333H8.33333C8.11232 10.8333 7.90036 10.9211 7.74408 11.0774C7.5878 11.2337 7.5 11.4456 7.5 11.6667C7.5 11.8877 7.5878 12.0996 7.74408 12.2559C7.90036 12.4122 8.11232 12.5 8.33333 12.5H9.16667V13.3333C9.16667 13.5543 9.25446 13.7663 9.41074 13.9226C9.56702 14.0789 9.77899 14.1667 10 14.1667C10.221 14.1667 10.433 14.0789 10.5893 13.9226C10.7455 13.7663 10.8333 13.5543 10.8333 13.3333V12.5H11.6667C11.8877 12.5 12.0996 12.4122 12.2559 12.2559C12.4122 12.0996 12.5 11.8877 12.5 11.6667C12.5 11.4456 12.4122 11.2337 12.2559 11.0774C12.0996 10.9211 11.8877 10.8333 11.6667 10.8333Z" fill="#0C0D0D"/>
</svg>
