<svg width="20" height="20" viewBox="0 0 20 20" fill="none" xmlns="http://www.w3.org/2000/svg">
<path d="M16.4499 6.94165L11.9166 1.94165C11.8387 1.85533 11.7436 1.78626 11.6374 1.7389C11.5311 1.69154 11.4162 1.66693 11.2999 1.66665H5.46659C5.18971 1.66335 4.9149 1.71462 4.65784 1.81753C4.40078 1.92045 4.16651 2.07299 3.9684 2.26645C3.7703 2.45991 3.61225 2.6905 3.50327 2.94504C3.39429 3.19959 3.33652 3.47311 3.33325 3.74999V16.25C3.33652 16.5269 3.39429 16.8004 3.50327 17.0549C3.61225 17.3095 3.7703 17.5401 3.9684 17.7335C4.16651 17.927 4.40078 18.0795 4.65784 18.1824C4.9149 18.2854 5.18971 18.3366 5.46659 18.3333H14.5333C15.0924 18.3398 15.6312 18.1239 16.0312 17.7333C16.4312 17.3426 16.6598 16.8091 16.6666 16.25V7.49999C16.666 7.29346 16.5888 7.09449 16.4499 6.94165ZM11.6666 4.16665L13.9499 6.66665H12.2833C12.196 6.66139 12.1106 6.63879 12.0322 6.60018C11.9538 6.56157 11.8838 6.50773 11.8264 6.44179C11.769 6.37585 11.7253 6.29914 11.6979 6.21613C11.6704 6.13312 11.6598 6.04548 11.6666 5.95832V4.16665ZM14.5333 16.6667H5.46659C5.40856 16.67 5.35045 16.6619 5.29556 16.6428C5.24068 16.6237 5.19012 16.5939 5.14676 16.5552C5.10341 16.5165 5.06812 16.4696 5.04292 16.4172C5.01772 16.3649 5.00311 16.308 4.99992 16.25V3.74999C5.00311 3.69196 5.01772 3.63512 5.04292 3.58275C5.06812 3.53038 5.10341 3.48349 5.14676 3.44479C5.19012 3.40608 5.24068 3.37631 5.29556 3.35718C5.35045 3.33805 5.40856 3.32994 5.46659 3.33332H9.99992V5.95832C9.98647 6.57217 10.2164 7.16643 10.6395 7.61138C11.0626 8.05633 11.6445 8.31586 12.2583 8.33332H14.9999V16.25C14.9967 16.308 14.9821 16.3649 14.9569 16.4172C14.9317 16.4696 14.8964 16.5165 14.8531 16.5552C14.8097 16.5939 14.7592 16.6237 14.7043 16.6428C14.6494 16.6619 14.5913 16.67 14.5333 16.6667Z" fill="#0C0D0D"/>
<path d="M11.6667 10.8333H10.8333V9.99999C10.8333 9.77898 10.7455 9.56701 10.5893 9.41073C10.433 9.25445 10.221 9.16666 10 9.16666C9.77899 9.16666 9.56702 9.25445 9.41074 9.41073C9.25446 9.56701 9.16667 9.77898 9.16667 9.99999V10.8333H8.33333C8.11232 10.8333 7.90036 10.9211 7.74408 11.0774C7.5878 11.2337 7.5 11.4456 7.5 11.6667C7.5 11.8877 7.5878 12.0996 7.74408 12.2559C7.90036 12.4122 8.11232 12.5 8.33333 12.5H9.16667V13.3333C9.16667 13.5543 9.25446 13.7663 9.41074 13.9226C9.56702 14.0789 9.77899 14.1667 10 14.1667C10.221 14.1667 10.433 14.0789 10.5893 13.9226C10.7455 13.7663 10.8333 13.5543 10.8333 13.3333V12.5H11.6667C11.8877 12.5 12.0996 12.4122 12.2559 12.2559C12.4122 12.0996 12.5 11.8877 12.5 11.6667C12.5 11.4456 12.4122 11.2337 12.2559 11.0774C12.0996 10.9211 11.8877 10.8333 11.6667 10.8333Z" fill="#0C0D0D"/>
</svg>
