<svg width="24" height="24" viewBox="0 0 24 24" fill="none" xmlns="http://www.w3.org/2000/svg">
<path fill-rule="evenodd" clip-rule="evenodd" d="M7.42858 5.14286C7.27703 5.14286 7.13168 5.20306 7.02452 5.31022C6.91736 5.41739 6.85715 5.56273 6.85715 5.71429V8C6.85715 8.15155 6.91736 8.2969 7.02452 8.40406C7.13168 8.51122 7.27703 8.57143 7.42858 8.57143C7.58013 8.57143 7.72548 8.51122 7.83264 8.40406C7.9398 8.2969 8.00001 8.15155 8.00001 8V5.71429C8.00001 5.56273 7.9398 5.41739 7.83264 5.31022C7.72548 5.20306 7.58013 5.14286 7.42858 5.14286ZM7.42858 4C7.88324 4 8.31927 4.18061 8.64076 4.5021C8.96225 4.82359 9.14287 5.25963 9.14287 5.71429V8C9.14287 8.45466 8.96225 8.89069 8.64076 9.21218C8.31927 9.53367 7.88324 9.71429 7.42858 9.71429C6.97392 9.71429 6.53789 9.53367 6.2164 9.21218C5.89491 8.89069 5.71429 8.45466 5.71429 8V5.71429C5.71429 5.25963 5.89491 4.82359 6.2164 4.5021C6.53789 4.18061 6.97392 4 7.42858 4Z" fill="#303030"/>
<path fill-rule="evenodd" clip-rule="evenodd" d="M8 6.85713C8 6.54154 8.25584 6.28571 8.57143 6.28571H21.1429C21.4584 6.28571 21.7143 6.54154 21.7143 6.85713C21.7143 7.17273 21.4584 7.42856 21.1429 7.42856H8.57143C8.25584 7.42856 8 7.17273 8 6.85713Z" fill="#303030"/>
<path fill-rule="evenodd" clip-rule="evenodd" d="M2.28571 6.85713C2.28571 6.54154 2.54154 6.28571 2.85713 6.28571H6.28571C6.6013 6.28571 6.85713 6.54154 6.85713 6.85713C6.85713 7.17273 6.6013 7.42856 6.28571 7.42856H2.85713C2.54154 7.42856 2.28571 7.17273 2.28571 6.85713Z" fill="#303030"/>
<path fill-rule="evenodd" clip-rule="evenodd" d="M7.42858 16.5714C7.27703 16.5714 7.13168 16.6316 7.02452 16.7388C6.91736 16.846 6.85715 16.9913 6.85715 17.1429V19.4286C6.85715 19.5801 6.91736 19.7255 7.02452 19.8327C7.13168 19.9398 7.27703 20 7.42858 20C7.58013 20 7.72548 19.9398 7.83264 19.8327C7.9398 19.7255 8.00001 19.5801 8.00001 19.4286V17.1429C8.00001 16.9913 7.9398 16.846 7.83264 16.7388C7.72548 16.6316 7.58013 16.5714 7.42858 16.5714ZM6.2164 15.9307C6.53789 15.6092 6.97392 15.4286 7.42858 15.4286C7.88324 15.4286 8.31927 15.6092 8.64076 15.9307C8.96225 16.2522 9.14287 16.6882 9.14287 17.1429V19.4286C9.14287 19.8832 8.96225 20.3193 8.64076 20.6408C8.31927 20.9623 7.88324 21.1429 7.42858 21.1429C6.97392 21.1429 6.53789 20.9623 6.2164 20.6408C5.89491 20.3193 5.71429 19.8832 5.71429 19.4286V17.1429C5.71429 16.6882 5.89491 16.2522 6.2164 15.9307Z" fill="#303030"/>
<path fill-rule="evenodd" clip-rule="evenodd" d="M8 18.2857C8 17.9701 8.25584 17.7143 8.57143 17.7143H21.1429C21.4584 17.7143 21.7143 17.9701 21.7143 18.2857C21.7143 18.6013 21.4584 18.8572 21.1429 18.8572H8.57143C8.25584 18.8572 8 18.6013 8 18.2857Z" fill="#303030"/>
<path fill-rule="evenodd" clip-rule="evenodd" d="M2.28571 18.2857C2.28571 17.9701 2.54154 17.7143 2.85713 17.7143H6.28571C6.6013 17.7143 6.85713 17.9701 6.85713 18.2857C6.85713 18.6013 6.6013 18.8572 6.28571 18.8572H2.85713C2.54154 18.8572 2.28571 18.6013 2.28571 18.2857Z" fill="#303030"/>
<path fill-rule="evenodd" clip-rule="evenodd" d="M16.5714 10.8572C16.4199 10.8572 16.2745 10.9174 16.1673 11.0245C16.0602 11.1317 16 11.277 16 11.4286V13.7143C16 13.8658 16.0602 14.0112 16.1673 14.1184C16.2745 14.2255 16.4199 14.2857 16.5714 14.2857C16.723 14.2857 16.8683 14.2255 16.9755 14.1184C17.0826 14.0112 17.1428 13.8658 17.1428 13.7143V11.4286C17.1428 11.277 17.0826 11.1317 16.9755 11.0245C16.8683 10.9174 16.723 10.8572 16.5714 10.8572ZM16.5714 9.71429C17.0261 9.71429 17.4621 9.89491 17.7836 10.2164C18.1051 10.5379 18.2857 10.9739 18.2857 11.4286V13.7143C18.2857 14.169 18.1051 14.605 17.7836 14.9265C17.4621 15.248 17.0261 15.4286 16.5714 15.4286C16.1167 15.4286 15.6807 15.248 15.3592 14.9265C15.0377 14.605 14.8571 14.169 14.8571 13.7143V11.4286C14.8571 10.9739 15.0377 10.5379 15.3592 10.2164C15.6807 9.89491 16.1167 9.71429 16.5714 9.71429Z" fill="#303030"/>
<path fill-rule="evenodd" clip-rule="evenodd" d="M2.28571 12.5714C2.28571 12.2558 2.54154 12 2.85713 12H15.4286C15.7442 12 16 12.2558 16 12.5714C16 12.887 15.7442 13.1429 15.4286 13.1429H2.85713C2.54154 13.1429 2.28571 12.887 2.28571 12.5714Z" fill="#303030"/>
<path fill-rule="evenodd" clip-rule="evenodd" d="M17.1428 12.5714C17.1428 12.2558 17.3987 12 17.7143 12H21.1428C21.4584 12 21.7143 12.2558 21.7143 12.5714C21.7143 12.887 21.4584 13.1429 21.1428 13.1429H17.7143C17.3987 13.1429 17.1428 12.887 17.1428 12.5714Z" fill="#303030"/>
</svg>
