<svg width="108" height="16" viewBox="0 0 108 16" fill="none" xmlns="http://www.w3.org/2000/svg">
<path d="M4.52041 8.03241L101.528 8.17033" stroke="#CACACA" stroke-width="0.836813" stroke-linecap="square" stroke-dasharray="1.67 4.18"/>
<path d="M50.3662 15.6044H52.019L56.1509 9.24466L60.6961 9.24466C61.382 9.24466 61.9357 8.71204 61.9357 8.0522C61.9357 7.39237 61.382 6.85975 60.6961 6.85975L56.1509 6.85975L52.019 0.5L50.3662 0.5L52.4321 6.85978L47.887 6.85978L46.6474 5.26983H45.4078L46.2342 8.05224L45.4078 10.8346H46.6474L47.887 9.24466H52.4322L50.3662 15.6044Z" fill="#1262AE"/>
<circle cx="4.61682" cy="8" r="3.66319" fill="white" stroke="#1262AE" stroke-width="1.67363"/>
<path d="M106.39 8.68406C106.39 10.5024 104.848 12.0313 102.877 12.0313C100.906 12.0313 99.3643 10.5024 99.3643 8.68406C99.3643 6.8657 100.906 5.33681 102.877 5.33681C104.848 5.33681 106.39 6.8657 106.39 8.68406Z" fill="white" stroke="#1262AE" stroke-width="1.67363"/>
</svg>
