<svg width="118" height="25" viewBox="0 0 118 25" fill="none" xmlns="http://www.w3.org/2000/svg">
<line x1="5.04321" y1="12.7456" x2="108.595" y2="12.7456" stroke="#CCCCCC" stroke-dasharray="3 3"/>
<g clip-path="url(#clip0_16_2510)">
<path d="M57.6235 22.6641H56.2581C56.1209 22.664 55.9859 22.6325 55.8654 22.5725C55.745 22.5125 55.6429 22.4258 55.5686 22.3204C55.4942 22.2151 55.45 22.0943 55.4399 21.9693C55.4298 21.8443 55.4541 21.7189 55.5107 21.6047L58.8171 14.9367L53.8524 14.8359L52.0417 16.8408C51.6965 17.2373 51.4211 17.4141 50.7184 17.4141H49.7992C49.6536 17.4183 49.5091 17.3905 49.3779 17.3329C49.2466 17.2753 49.1325 17.1896 49.0452 17.0831C48.9231 16.9327 48.8031 16.6777 48.92 16.3139L49.9366 12.9858C49.9443 12.9609 49.9536 12.9361 49.9638 12.9117C49.9643 12.9094 49.9643 12.907 49.9638 12.9047C49.9532 12.8803 49.9442 12.8554 49.9366 12.8302L48.919 9.48094C48.8087 9.12422 48.9292 8.87484 49.0503 8.72812C49.1316 8.62956 49.237 8.54979 49.3582 8.49524C49.4794 8.4407 49.6128 8.41289 49.7479 8.41406H50.7184C51.2431 8.41406 51.7524 8.62922 52.052 8.97656L53.8252 10.9477L58.8171 10.8802L55.5118 4.22391C55.4551 4.10974 55.4306 3.98442 55.4406 3.85939C55.4506 3.73436 55.4948 3.61362 55.569 3.5082C55.6432 3.40278 55.7452 3.31604 55.8656 3.25593C55.986 3.19581 56.1209 3.16423 56.2581 3.16406H57.6384C57.831 3.1676 58.0202 3.21073 58.192 3.29026C58.3638 3.36979 58.5139 3.48366 58.6309 3.62344L65.0452 10.7484L68.0084 10.6772C68.2254 10.6664 68.8266 10.6627 68.9656 10.6627C71.8001 10.6641 73.4928 11.505 73.4928 12.9141C73.4928 13.3575 73.2989 14.1797 72.0016 14.7028C71.2358 15.0122 70.2141 15.1688 68.9645 15.1688C68.8271 15.1688 68.2275 15.165 68.0074 15.1542L65.0447 15.082L58.6145 22.207C58.4973 22.3462 58.3475 22.4595 58.1759 22.5386C58.0044 22.6177 57.8156 22.6606 57.6235 22.6641V22.6641Z" fill="#1262AE"/>
</g>
<circle cx="5.302" cy="13.2456" r="4" fill="white" stroke="#1262AE" stroke-width="2"/>
<circle cx="112.653" cy="12.8286" r="4" fill="white" stroke="#1262AE" stroke-width="2"/>
<defs>
<clipPath id="clip0_16_2510">
<rect width="26.2624" height="24" fill="white" transform="translate(48.051 0.914062)"/>
</clipPath>
</defs>
</svg>
