<svg width="100" height="77" viewBox="0 0 100 77" fill="none" xmlns="http://www.w3.org/2000/svg">
<g clip-path="url(#clip0_60_1827)">
<path d="M78.7124 39.9686C80.8626 36.838 80.5729 33.7413 78.4895 30.7234C78.1105 30.19 77.9184 29.544 77.9436 28.8878C77.9436 25.0366 76.8295 21.7822 73.0081 20.1719C72.373 19.9129 72.4399 19.4512 72.3619 19.0458C71.5263 14.3162 69.2647 11.9063 64.5631 10.8366C64.1732 10.7465 63.8167 10.7577 63.605 10.2848C62.0007 6.72632 59.026 5.48762 55.394 5.45383C55.1728 5.46214 54.9533 5.41134 54.7577 5.30656C54.5621 5.20177 54.3973 5.04671 54.2799 4.85701C51.0712 0.99826 47.2833 0.247532 42.9159 2.60482C42.4814 2.8413 42.2029 2.98769 41.8018 2.49221C41.2172 1.79624 40.499 1.22725 39.6908 0.819607C38.8825 0.411965 38.0009 0.174126 37.0992 0.120451C36.1974 0.0667759 35.2943 0.19838 34.4443 0.507314C33.5943 0.816247 32.815 1.2961 32.1536 1.9179C30.6273 3.53948 29.58 3.32552 27.7863 2.55977C19.709 -0.89733 11.7319 3.83226 10.551 12.6946C10.473 13.3252 10.1276 13.4716 9.70425 13.7081C8.03237 14.5301 6.66629 15.8736 5.80767 17.5404C4.94905 19.2072 4.6434 21.1088 4.93585 22.9646C5.01711 23.2996 4.98821 23.6523 4.85354 23.9692C4.71886 24.2862 4.48572 24.5502 4.1894 24.7213C0.757932 27.1649 -0.712694 34.4732 3.72147 37.7952C4.30251 38.1984 4.76604 38.7515 5.06386 39.3972C5.36168 40.0428 5.48291 40.7573 5.41492 41.4663C5.48177 47.4121 9.9605 51.7025 16.1215 50.3737C16.5606 50.3075 16.9957 50.2173 17.425 50.1034C18.0267 49.9232 18.3609 49.9908 18.6283 50.6777C21.0459 56.8487 26.5608 60.2833 34.4153 59.0221C36.3092 58.718 36.4652 58.5041 36.4652 56.601C36.4652 50.5426 36.4652 44.4842 36.4652 38.4258C36.4652 37.8628 36.3872 37.3786 37.0446 36.9619C37.742 36.5929 38.2846 35.9823 38.5731 35.242C38.8616 34.5017 38.8766 33.6811 38.6155 32.9305C38.3881 32.2131 37.9428 31.5863 37.3427 31.1395C36.7426 30.6927 36.0184 30.4486 35.2731 30.4418C34.535 30.4521 33.8179 30.6922 33.2197 31.1295C32.6216 31.5668 32.1714 32.18 31.9308 32.8855C31.6911 33.6419 31.7227 34.4596 32.0202 35.1948C32.3177 35.93 32.8619 36.5357 33.5574 36.9056C33.7575 37.0137 33.9233 37.1768 34.0357 37.376C34.1481 37.5753 34.2024 37.8026 34.1924 38.0317C34.1924 43.8198 34.1924 49.6079 34.1924 55.396C34.1924 56.1167 34.0142 56.3645 33.2677 56.4546C26.9841 57.2428 22.5054 54.3938 20.6114 48.3354C20.1769 46.9391 19.8092 46.7477 18.3832 47.1193C17.4808 47.3445 16.5783 47.5922 15.6647 47.7386C11.0412 48.4368 7.86597 45.8918 8.12221 41.1735C8.23362 38.6961 7.81026 37.1871 5.55975 35.802C2.72991 34.0566 2.90816 29.0455 5.55975 27.0748C6.52903 29.8788 8.27818 31.7931 11.3309 32.0972C11.6944 32.1041 12.0513 32.1974 12.3726 32.3696C12.6939 32.5417 12.9706 32.7879 13.1803 33.0882C13.6646 33.6844 14.3306 34.1017 15.0744 34.2749C15.8182 34.4481 16.5978 34.3674 17.2914 34.0453C17.9434 33.7479 18.4883 33.2537 18.8514 32.6307C19.2144 32.0076 19.3778 31.2863 19.319 30.5657C19.2364 29.8028 18.917 29.0858 18.4067 28.5174C17.8964 27.949 17.2213 27.5584 16.4781 27.4014C15.7525 27.2729 15.0054 27.3776 14.3418 27.7008C13.6783 28.024 13.1318 28.5495 12.7792 29.2031C12.5341 29.6198 12.5341 30.3292 11.6651 29.9801C10.6882 29.6853 9.81011 29.1251 9.12646 28.3606C8.44282 27.5962 7.97984 26.6567 7.78797 25.6447C7.61173 24.4548 7.50756 23.2552 7.47602 22.0524C7.3092 20.6067 7.6698 19.1492 8.49022 17.953C9.31064 16.7568 10.5345 15.9042 11.9325 15.5549C12.1379 15.5123 12.3328 15.4285 12.5056 15.3086C12.6785 15.1887 12.8259 15.035 12.9391 14.8565C13.0522 14.6781 13.1289 14.4786 13.1646 14.2698C13.2003 14.0609 13.1943 13.847 13.1469 13.6405C12.9995 12.1157 13.3101 10.5813 14.0381 9.23751C16.4446 4.53044 21.681 2.79626 26.9953 4.94709C28.9895 5.75788 28.9784 5.75788 28.2431 7.6835C28.0817 8.04945 27.944 8.4256 27.8309 8.80959C27.7546 9.26514 27.5868 9.70006 27.3377 10.0874C27.0885 10.4748 26.7635 10.8064 26.3825 11.0618C25.8307 11.4524 25.4221 12.0165 25.2206 12.6663C25.0191 13.316 25.0359 14.0149 25.2684 14.654C25.4558 15.3499 25.8587 15.9668 26.418 16.4146C26.9773 16.8624 27.6637 17.1175 28.3768 17.1427C29.0898 17.223 29.8096 17.0694 30.4295 16.7043C31.0495 16.3393 31.5368 15.7823 31.8194 15.1157C32.1192 14.4343 32.1922 13.673 32.0275 12.9461C31.8628 12.2191 31.4692 11.5659 30.9058 11.0843C30.527 10.7352 29.9922 10.555 30.2373 9.81181C30.8684 7.61624 32.0151 5.60733 33.5797 3.95613C34.0431 3.47007 34.6113 3.09882 35.2401 2.87137C35.8688 2.64392 36.5411 2.56641 37.2044 2.6449C37.8677 2.72339 38.5041 2.95575 39.0638 3.32384C39.6236 3.69194 40.0917 4.18581 40.4315 4.76692C41.345 6.56866 41.7238 6.65875 43.2724 5.42005C46.7039 2.67238 50.4919 3.31426 52.7981 7.07541C52.9466 7.39833 53.1929 7.66513 53.5013 7.83721C53.8098 8.00928 54.1644 8.07771 54.5138 8.03259C55.0888 7.9932 55.6657 7.9932 56.2407 8.03259C57.4579 7.99347 58.6512 8.37986 59.6193 9.12656C60.5874 9.87327 61.2711 10.9346 61.555 12.1316C61.6615 12.4677 61.8737 12.7596 62.1592 12.9628C62.4447 13.1661 62.788 13.2696 63.1371 13.2577C67.7829 13.8883 69.6212 15.9152 69.8217 20.6899C69.7876 21.094 69.9122 21.4954 70.1687 21.8073C70.4251 22.1192 70.7928 22.3165 71.1921 22.3565C72.1674 22.5206 73.061 23.0079 73.7323 23.7416C74.3688 24.4965 74.8375 25.3809 75.1066 26.3348C75.3757 27.2887 75.439 28.2899 75.292 29.2707C75.2407 29.7515 75.2884 30.2379 75.4322 30.6992C75.576 31.1604 75.8128 31.5866 76.1276 31.9508C76.8758 32.7422 77.3549 33.7542 77.4951 34.8397C77.6354 35.9251 77.4295 37.0275 76.9075 37.9867C75.5228 36.0263 73.5376 34.5817 71.2589 33.8764C70.7353 33.7188 70.8022 33.3584 70.7576 32.9418C70.7323 32.4478 70.603 31.965 70.3785 31.5255C70.154 31.086 69.8394 30.6999 69.4557 30.393C69.0719 30.0861 68.6278 29.8655 68.153 29.7457C67.6782 29.626 67.1836 29.6099 66.7022 29.6986C66.2205 29.7819 65.7616 29.9673 65.3558 30.2426C64.95 30.5179 64.6064 30.8768 64.3475 31.2958C64.0887 31.7148 63.9205 32.1845 63.8539 32.6739C63.7874 33.1633 63.8241 33.6614 63.9615 34.1354C64.0901 34.6133 64.3191 35.0575 64.6328 35.4378C64.9466 35.8182 65.3378 36.1257 65.7797 36.3394C66.2217 36.5531 66.704 36.6681 67.1939 36.6764C67.6838 36.6847 68.1697 36.5862 68.6185 36.3876C68.9579 36.2392 69.3238 36.1626 69.6936 36.1626C70.0634 36.1626 70.4293 36.2392 70.7687 36.3876C72.3063 36.9489 73.6567 37.9361 74.6654 39.2365C75.6741 40.5368 76.3005 42.0978 76.473 43.741C77.264 48.5832 73.7657 54.0898 69.0976 55.7114C68.4193 55.9231 67.7267 56.085 67.0253 56.1956C66.4571 56.3194 66.1452 56.1956 66.0672 55.4749C66.0115 54.4737 65.6922 53.5057 65.1425 52.6709C64.8967 52.3808 64.7429 52.0227 64.7012 51.6432C64.6595 51.2636 64.7317 50.8801 64.9085 50.5426C65.0795 50.0839 65.1498 49.5932 65.1143 49.1043C65.0789 48.6155 64.9387 48.1403 64.7033 47.7118C64.468 47.2832 64.1433 46.9115 63.7516 46.6225C63.3599 46.3335 62.9107 46.1342 62.4352 46.0382C61.9699 45.9317 61.4881 45.9216 61.0189 46.0085C60.5496 46.0953 60.1027 46.2774 59.705 46.5436C59.3072 46.8099 58.967 47.1548 58.7048 47.5576C58.4426 47.9604 58.2638 48.4127 58.1793 48.8872C58.0753 49.3495 58.0714 49.829 58.1679 50.2929C58.2644 50.7568 58.459 51.1941 58.7384 51.5749C59.0178 51.9556 59.3753 52.2709 59.7865 52.4989C60.1976 52.727 60.6527 52.8625 61.1205 52.8961C62.4575 52.8961 62.8808 53.6281 63.2596 54.6303C64.3737 57.5469 63.5047 59.754 60.6303 60.9477C58.0458 61.9614 55.2311 62.2189 52.5084 61.6909C49.1661 61.1504 47.8403 59.5513 47.8292 56.0604C47.8292 47.626 47.8292 39.1691 47.8292 30.7684C47.8021 30.5102 47.8524 30.2498 47.9736 30.0208C48.0948 29.7919 48.2812 29.6051 48.5088 29.4847C49.1385 29.1339 49.636 28.5828 49.9241 27.917C50.2121 27.2511 50.2747 26.5078 50.102 25.8023C49.9506 25.0465 49.5559 24.3625 48.9795 23.8573C48.403 23.3521 47.6773 23.054 46.9156 23.0096C46.1775 22.9633 45.4441 23.157 44.8227 23.5622C44.2012 23.9674 43.7244 24.563 43.4618 25.2618C43.1769 25.9704 43.1316 26.7543 43.3331 27.4915C43.5346 28.2288 43.9715 28.878 44.576 29.3383C45.0105 29.6761 45.5452 29.8225 45.5341 30.6107C45.5341 39.2591 45.5341 47.9188 45.5341 56.5784C45.5341 60.3846 47.2387 63.0084 50.9153 63.9656C54.2208 64.8309 57.7035 64.7097 60.9423 63.6165C61.9998 63.333 62.9843 62.822 63.8284 62.1185C64.6726 61.4149 65.3564 60.5354 65.8332 59.5401C66.0895 58.9545 66.5017 58.8532 67.081 58.7968C69.0489 58.549 70.9402 57.8724 72.6241 56.8138C74.3081 55.7551 75.7447 54.3397 76.8347 52.6652C77.9247 50.9906 78.6421 49.0969 78.9374 47.1149C79.2328 45.1328 79.099 43.1095 78.5452 41.1848C78.4627 40.9855 78.4346 40.7675 78.464 40.5535C78.4934 40.3396 78.5792 40.1375 78.7124 39.9686V39.9686ZM34.1479 33.9327C34.1365 33.7661 34.1619 33.599 34.2223 33.4436C34.2827 33.2881 34.3766 33.1482 34.4971 33.0339C34.6176 32.9197 34.7618 32.8339 34.9191 32.7829C35.0764 32.7319 35.243 32.717 35.4068 32.7391C35.5756 32.7233 35.7457 32.7467 35.9042 32.8074C36.0627 32.8681 36.2054 32.9646 36.3214 33.0895C36.4374 33.2144 36.5237 33.3644 36.5738 33.5281C36.6238 33.6917 36.6362 33.8648 36.6101 34.0341C36.6101 34.8449 36.0641 35.1602 35.3177 35.2728C35.1498 35.2703 34.9843 35.2329 34.8313 35.1631C34.6783 35.0932 34.5412 34.9923 34.4283 34.8667C34.3155 34.741 34.2294 34.5933 34.1755 34.4326C34.1215 34.272 34.1007 34.1018 34.1144 33.9327H34.1479ZM15.843 29.7324C16.0084 29.7162 16.1753 29.7375 16.3315 29.795C16.4876 29.8524 16.6291 29.9444 16.7456 30.0642C16.862 30.1841 16.9504 30.3287 17.0044 30.4876C17.0583 30.6464 17.0764 30.8155 17.0574 30.9824C17.0759 31.1526 17.0558 31.3248 16.9985 31.4859C16.9413 31.6471 16.8485 31.7929 16.7271 31.9123C16.6057 32.0318 16.459 32.1216 16.298 32.1751C16.1371 32.2286 15.9663 32.2443 15.7984 32.2211C15.6478 32.2392 15.4951 32.2225 15.3518 32.1723C15.2084 32.1221 15.0782 32.0397 14.971 31.9313C14.8637 31.8229 14.7822 31.6913 14.7326 31.5464C14.6829 31.4016 14.6664 31.2472 14.6843 31.095C14.6487 30.9277 14.6512 30.7545 14.6918 30.5883C14.7323 30.4222 14.8097 30.2676 14.9182 30.1363C15.0266 30.0049 15.1633 29.9003 15.3177 29.8303C15.4722 29.7603 15.6404 29.7268 15.8096 29.7324H15.843ZM28.633 15.0031C28.4654 15.0279 28.2943 15.0138 28.1329 14.9618C27.9715 14.9098 27.8239 14.8212 27.7015 14.7028C27.579 14.5845 27.4848 14.4395 27.4262 14.2788C27.3675 14.1181 27.3459 13.946 27.3629 13.7757C27.3417 13.6069 27.3587 13.4355 27.4124 13.2743C27.4662 13.1131 27.5554 12.9663 27.6733 12.8449C27.7913 12.7235 27.9349 12.6307 28.0934 12.5735C28.2519 12.5163 28.4211 12.4961 28.5885 12.5144C28.7536 12.4986 28.9202 12.5181 29.0773 12.5717C29.2345 12.6253 29.3788 12.7117 29.5007 12.8254C29.6226 12.939 29.7195 13.0774 29.785 13.2314C29.8505 13.3855 29.8831 13.5517 29.8808 13.7194C29.8889 13.8911 29.8612 14.0626 29.7995 14.2228C29.7378 14.383 29.6435 14.5283 29.5227 14.6493C29.402 14.7703 29.2574 14.8644 29.0983 14.9253C28.9393 14.9863 28.7694 15.0128 28.5996 15.0031H28.633ZM67.3707 34.4282C66.602 34.3269 66.1117 33.944 66.1006 33.1445C66.0753 32.9729 66.0896 32.7978 66.1423 32.6328C66.1949 32.4677 66.2846 32.3172 66.4043 32.193C66.524 32.0687 66.6705 31.9741 66.8323 31.9164C66.9941 31.8588 67.167 31.8397 67.3373 31.8607C67.5063 31.8386 67.6781 31.856 67.8395 31.9116C68.0008 31.9672 68.1474 32.0594 68.268 32.1812C68.3885 32.3031 68.4798 32.4512 68.5347 32.6143C68.5897 32.7774 68.6069 32.9511 68.5851 33.1219C68.6185 33.9778 68.0503 34.2593 67.3707 34.4282ZM61.4882 50.7791C61.3288 50.7804 61.1711 50.7472 61.0255 50.6817C60.88 50.6162 60.75 50.5199 60.6444 50.3993C60.5388 50.2787 60.46 50.1366 60.4134 49.9826C60.3668 49.8286 60.3533 49.6663 60.3741 49.5066C60.3702 49.3365 60.402 49.1676 60.4673 49.0108C60.5327 48.8541 60.6301 48.7131 60.7533 48.5971C60.8764 48.4812 61.0224 48.3929 61.1817 48.3381C61.341 48.2833 61.51 48.2632 61.6776 48.2791C61.8405 48.2855 62.0004 48.3262 62.1468 48.3987C62.2933 48.4712 62.4231 48.5738 62.528 48.7C62.6329 48.8262 62.7106 48.9731 62.756 49.1314C62.8014 49.2897 62.8136 49.4559 62.7917 49.6192C62.7832 49.7825 62.7426 49.9424 62.6721 50.0896C62.6017 50.2368 62.5028 50.3683 62.3814 50.4764C62.26 50.5844 62.1184 50.6668 61.965 50.7188C61.8116 50.7708 61.6495 50.7913 61.4882 50.7791ZM46.6371 27.8969C46.4691 27.9072 46.3009 27.8809 46.1439 27.8195C45.987 27.7582 45.845 27.6634 45.7276 27.5415C45.6102 27.4197 45.5202 27.2736 45.4637 27.1134C45.4073 26.9532 45.3857 26.7825 45.4004 26.6131C45.4004 25.8136 45.924 25.487 46.6259 25.3294C47.4281 25.4307 47.9183 25.8586 47.9072 26.6356C47.9191 26.8063 47.8943 26.9776 47.8343 27.1376C47.7744 27.2976 47.6808 27.4426 47.5601 27.5625C47.4393 27.6824 47.2943 27.7744 47.1349 27.8322C46.9755 27.8899 46.8057 27.912 46.6371 27.8969V27.8969Z" fill="#F9FBFC"/>
<path d="M97.5187 34.8674C97.18 34.6697 96.7957 34.5656 96.4046 34.5656C96.0135 34.5656 95.6292 34.6697 95.2905 34.8674C95.2905 38.2457 95.2905 41.5113 95.2905 44.822C95.3615 46.8848 95.2983 48.95 95.1011 51.0043C93.8422 59.2586 89.33 65.3169 82.2888 69.2808C73.5987 74.1455 64.3182 74.4608 54.9708 71.6118C48.832 69.7425 45.0329 65.3169 43.2169 59.1234C42.2991 55.8935 41.823 52.5517 41.802 49.1913C41.6906 40.0361 41.802 30.8923 41.802 21.7371C41.7553 21.4151 41.8085 21.0863 41.9541 20.7959C42.0997 20.5056 42.3307 20.2679 42.6153 20.1156C43.2437 19.7206 43.7247 19.1259 43.9828 18.4248C44.2409 17.7238 44.2615 16.956 44.0413 16.2418C43.8118 15.5099 43.3576 14.8709 42.7447 14.4173C42.1317 13.9638 41.3918 13.7193 40.6322 13.7194C39.8957 13.7359 39.183 13.9862 38.5951 14.4349C38.0073 14.8836 37.574 15.5078 37.3567 16.2193C37.1074 16.9239 37.1077 17.6941 37.3576 18.3985C37.6075 19.103 38.0915 19.6979 38.727 20.0818C39.0302 20.247 39.2741 20.5045 39.4241 20.8179C39.5741 21.1313 39.6226 21.4844 39.5626 21.8272C39.5626 31.1513 39.5626 40.4866 39.5626 49.8106C39.4748 52.2274 39.6053 54.6473 39.9526 57.0402C41.4009 65.1931 45.6902 71.0713 53.5224 74.0442C58.7881 75.8717 64.3919 76.4835 69.9222 75.8346C79.0467 75.0576 86.723 71.3303 92.4718 63.9656C95.2834 60.6412 97.0349 56.5353 97.4964 52.1867C97.8864 46.4324 97.4853 40.6442 97.5187 34.8674ZM40.5653 18.494C40.3963 18.5161 40.2244 18.4987 40.0631 18.4431C39.9017 18.3876 39.7552 18.2953 39.6346 18.1735C39.5141 18.0516 39.4228 17.9035 39.3678 17.7404C39.3129 17.5773 39.2956 17.4036 39.3175 17.2328C39.2971 17.0617 39.3159 16.8882 39.3723 16.7256C39.4287 16.563 39.5213 16.4157 39.6429 16.2949C39.7645 16.1742 39.9119 16.0832 40.0738 16.0291C40.2356 15.975 40.4076 15.9592 40.5765 15.9828C41.3675 15.9828 41.7574 16.4783 41.8465 17.244C41.8516 17.4134 41.8215 17.582 41.7583 17.7389C41.6951 17.8959 41.6001 18.0378 41.4795 18.1555C41.3588 18.2731 41.2152 18.3641 41.0578 18.4224C40.9004 18.4807 40.7326 18.5051 40.5653 18.494V18.494Z" fill="#F9FBFC"/>
<path d="M99.7801 30.2843C99.5632 29.5512 99.1238 28.9056 98.524 28.4388C97.9242 27.972 97.1944 27.7076 96.4378 27.683C95.6631 27.6764 94.9075 27.9259 94.2861 28.3935C93.6646 28.861 93.2113 29.521 92.9952 30.273C92.7618 30.9964 92.7718 31.7776 93.0237 32.4946C93.2756 33.2117 93.7553 33.8243 94.3878 34.2368L95.2346 34.8675H97.4628L98.3095 34.2368C98.9624 33.8449 99.4638 33.2399 99.7311 32.5214C99.9984 31.803 100.016 31.014 99.7801 30.2843V30.2843ZM96.4378 32.5364C95.7582 32.4013 95.2457 32.0522 95.2346 31.3315C95.2259 31.1701 95.2517 31.0086 95.3103 30.8581C95.3689 30.7076 95.4589 30.5717 95.5741 30.4595C95.6893 30.3473 95.8271 30.2615 95.9781 30.208C96.129 30.1544 96.2896 30.1343 96.4489 30.1491C96.602 30.1487 96.7536 30.1803 96.8941 30.2417C97.0346 30.3032 97.1611 30.3933 97.2656 30.5063C97.3702 30.6194 97.4506 30.753 97.5017 30.8989C97.5529 31.0447 97.5738 31.1997 97.563 31.354C97.5519 32.041 97.0617 32.4013 96.4044 32.5364H96.4378Z" fill="#F9FBFC"/>
</g>
<defs>
<clipPath id="clip0_60_1827">
<rect width="99" height="76" fill="white" transform="translate(0.947266 0.0373535)"/>
</clipPath>
</defs>
</svg>
