<svg width="154" height="46" viewBox="0 0 154 46" fill="none" xmlns="http://www.w3.org/2000/svg">
<path d="M147.806 45.5823H5.79401C2.66974 45.5823 0.113525 43.0261 0.113525 39.9018V5.81886C0.113525 2.69459 2.66974 0.138374 5.79401 0.138374H147.806C150.93 0.138374 153.487 2.69459 153.487 5.81886V39.9018C153.487 43.0261 150.93 45.5823 147.806 45.5823Z" fill="white"/>
<path d="M53.9855 11.7758C53.9855 12.7276 53.7037 13.4856 53.1391 14.0511C52.4979 14.7234 51.6622 15.0598 50.6348 15.0598C49.651 15.0598 48.8145 14.719 48.1266 14.0364C47.4374 13.3543 47.0935 12.5085 47.0935 11.4993C47.0935 10.4896 47.4374 9.64426 48.1266 8.9617C48.8145 8.27958 49.651 7.9383 50.6348 7.9383C51.123 7.9383 51.5904 8.03373 52.0342 8.22414C52.4779 8.41501 52.8339 8.66836 53.1002 8.98567L52.501 9.58519C52.0497 9.046 51.4284 8.77663 50.6348 8.77663C49.9173 8.77663 49.2969 9.02873 48.7732 9.53327C48.2495 10.0384 47.9877 10.6933 47.9877 11.4993C47.9877 12.3052 48.2495 12.9602 48.7732 13.4653C49.2969 13.9698 49.9173 14.2219 50.6348 14.2219C51.396 14.2219 52.0306 13.9685 52.5387 13.4609C52.8685 13.1302 53.0593 12.6705 53.1103 12.0802H50.6348V11.2614H53.938C53.97 11.4394 53.9855 11.6103 53.9855 11.7758" fill="black"/>
<path d="M53.9856 11.7758H53.872C53.8711 12.706 53.5995 13.4284 53.0589 13.9708L53.0576 13.9717L53.0572 13.9726C52.4363 14.6218 51.6383 14.9449 50.6349 14.9462C49.6773 14.9449 48.8758 14.6182 48.2065 13.9561C47.5387 13.2927 47.2085 12.4827 47.2072 11.4993C47.2085 10.5155 47.5387 9.70599 48.2065 9.04297C48.8758 8.38039 49.6773 8.05331 50.6349 8.05195C51.1084 8.05195 51.5594 8.14431 51.9894 8.32847C52.4198 8.514 52.7599 8.75712 53.0132 9.05898L53.1003 8.98571L53.0199 8.90538L52.4207 9.50536L52.5011 9.58523L52.5886 9.51251C52.1163 8.94662 51.4534 8.66135 50.6349 8.66306C49.8908 8.66215 49.2362 8.92799 48.6947 9.45173C48.148 9.97718 47.8733 10.6689 47.8742 11.4993C47.8733 12.3297 48.148 13.0215 48.6947 13.5469C49.2362 14.0707 49.8908 14.3365 50.6349 14.3356C51.4213 14.337 52.0915 14.0702 52.6191 13.5412C52.9715 13.1879 53.1713 12.6985 53.2236 12.09L53.2342 11.9666H50.7485V11.375H53.9381V11.2614L53.8262 11.2814C53.8573 11.4537 53.872 11.6174 53.872 11.7758H53.9856H54.0992C54.0992 11.6032 54.0832 11.4257 54.0499 11.2411L54.0331 11.1478H50.5213V12.0802V12.1938H53.1104V12.0802L52.9972 12.0704C52.9471 12.6421 52.7651 13.0726 52.4585 13.3806C51.9703 13.8669 51.3712 14.107 50.6349 14.1084C49.9439 14.1075 49.3577 13.8696 48.8523 13.3837C48.3517 12.8994 48.1027 12.2813 48.1014 11.4993C48.1027 10.7173 48.3517 10.0992 48.8523 9.61499C49.3577 9.12908 49.9439 8.89118 50.6349 8.89027C51.4031 8.89209 51.9832 9.1459 52.4142 9.6585L52.494 9.75348L53.1806 9.06603L53.2542 8.99241L53.1872 8.91288C52.908 8.58012 52.5362 8.31598 52.079 8.11989C51.6211 7.92323 51.1378 7.82473 50.6349 7.82473C49.6249 7.82382 48.7533 8.17885 48.0463 8.88141C47.3367 9.58261 46.9791 10.464 46.98 11.4993C46.9791 12.5342 47.3367 13.416 48.0468 14.1177C48.7533 14.8198 49.6249 15.1744 50.6349 15.1735C51.6867 15.1744 52.5592 14.825 53.2214 14.1296L53.1392 14.0511L53.2195 14.1314C53.808 13.5434 54.1 12.749 54.0992 11.7758H53.9856Z" fill="black"/>
<path d="M59.2221 8.92842H56.1178V11.0897H58.9173V11.9089H56.1178V14.0702H59.2221V14.9076H55.2427V8.09101H59.2221V8.92842Z" fill="black"/>
<path d="M59.2222 8.92846V8.81485H56.0043V11.2034H58.8038V11.7949L56.0043 11.7953V14.1838H59.1086V14.794H55.3564V8.20466H59.1086V8.92846H59.2222V8.81485V8.92846H59.3358V8.09105V7.97744H55.1292V15.0212H59.3358V14.0702V13.9566H56.2315V12.0225H59.031V11.0898V10.9762H56.2315V9.04207H59.3358V8.92846H59.2222" fill="black"/>
<path d="M62.9159 14.9076H62.0394V8.92842H60.1355V8.09101H64.8197V8.92842H62.9159V14.9076Z" fill="black"/>
<path d="M62.916 14.9076V14.794H62.1531V8.81485H60.2492V8.20466H64.7062V8.81485H62.8023V14.9076H62.916V14.794V14.9076H63.0296V9.04207H64.9334V8.09105V7.97744H60.022V8.92846V9.04207H61.9258V15.0212H62.916H63.0296V14.9076H62.916" fill="black"/>
<path d="M68.209 14.9076V8.09101H69.0846V14.9076H68.209Z" fill="black"/>
<path d="M68.2088 14.9076H68.3224V8.20466H68.9708V14.794H68.2088V14.9076H68.3224H68.2088V15.0212H69.0844H69.198V7.97744H68.2088H68.0952V15.0212H68.2088V14.9076Z" fill="black"/>
<path d="M72.97 14.9076H72.0935V8.92842H70.1897V8.09101H74.8738V8.92842H72.97V14.9076Z" fill="black"/>
<path d="M72.9698 14.9076V14.794H72.2069V8.81485H70.3031V8.20466H74.7601V8.81485H72.8562V14.9076H72.9698V14.794V14.9076H73.0834V9.04207H74.9873V8.09105V7.97744H70.0759V8.92846V9.04207H71.9797V15.0212H72.9698H73.0834V14.9076H72.9698" fill="black"/>
<path d="M79.3896 13.456C79.8942 13.9668 80.5115 14.2219 81.2416 14.2219C81.9716 14.2219 82.5893 13.9668 83.0931 13.456C83.5981 12.9452 83.8511 12.2923 83.8511 11.4993C83.8511 10.7063 83.5981 10.0534 83.0931 9.54258C82.5893 9.03179 81.9716 8.77663 81.2416 8.77663C80.5115 8.77663 79.8942 9.03179 79.3896 9.54258C78.8859 10.0534 78.633 10.7063 78.633 11.4993C78.633 12.2923 78.8859 12.9452 79.3896 13.456ZM83.741 14.0266C83.0708 14.7158 82.2374 15.0598 81.2416 15.0598C80.2448 15.0598 79.4118 14.7158 78.7431 14.0266C78.0724 13.3383 77.7388 12.4956 77.7388 11.4993C77.7388 10.5029 78.0724 9.66017 78.7431 8.97192C79.4118 8.28265 80.2448 7.9383 81.2416 7.9383C82.2321 7.9383 83.0633 8.28447 83.7366 8.97635C84.4089 9.66824 84.7453 10.5092 84.7453 11.4993C84.7453 12.4956 84.4097 13.3383 83.741 14.0266Z" fill="black"/>
<path d="M79.3897 13.456L79.3089 13.5359C79.8322 14.0671 80.485 14.337 81.2417 14.3356C81.9979 14.337 82.6516 14.0671 83.174 13.5359C83.7006 13.0042 83.9656 12.3163 83.9648 11.4993C83.9656 10.6824 83.7006 9.99445 83.174 9.46275C82.6516 8.93151 81.9979 8.66169 81.2417 8.66305C80.485 8.66169 79.8322 8.93151 79.3089 9.46275C78.7835 9.99445 78.5181 10.6824 78.5195 11.4993C78.5181 12.3163 78.7835 13.0042 79.3089 13.5359L79.3897 13.456L79.4705 13.3762C78.9886 12.8857 78.7476 12.2688 78.7467 11.4993C78.7476 10.7298 78.9886 10.1129 79.4705 9.62249C79.9569 9.13215 80.5377 8.89164 81.2417 8.89027C81.945 8.89164 82.5273 9.13215 83.0124 9.62249C83.4952 10.1129 83.7362 10.7298 83.7371 11.4993C83.7362 12.2688 83.4952 12.8857 83.0124 13.3762C82.5273 13.8665 81.945 14.107 81.2417 14.1084C80.5377 14.107 79.9569 13.8665 79.4705 13.3762L79.3897 13.456ZM83.7411 14.0267L83.6599 13.9477C83.0084 14.6152 82.2118 14.9449 81.2417 14.9462C80.2711 14.9449 79.4745 14.6152 78.8243 13.9477L78.8212 13.9442L78.8243 13.9477C78.1742 13.278 77.8534 12.4703 77.8525 11.4993C77.8534 10.5283 78.1742 9.72065 78.8243 9.05092C79.4745 8.38346 80.2711 8.05331 81.2417 8.05195C82.2055 8.05331 83.0004 8.38482 83.6554 9.0558C84.3078 9.7286 84.6304 10.535 84.6318 11.4993C84.6304 12.4703 84.3087 13.278 83.6599 13.9477L83.7411 14.0267L83.8228 14.1056C84.5115 13.3983 84.8598 12.5209 84.859 11.4993C84.8598 10.4835 84.5101 9.60794 83.8182 8.89743C83.126 8.18419 82.2588 7.82348 81.2417 7.82473C80.2192 7.82348 79.3494 8.18248 78.6615 8.893V8.89254C77.9714 9.60033 77.6243 10.4777 77.6252 11.4993C77.6243 12.5209 77.9714 13.3983 78.6615 14.1061L78.6645 14.1093L78.6615 14.1056C79.3494 14.8162 80.2192 15.1744 81.2417 15.1735C82.2637 15.1744 83.1335 14.8162 83.8228 14.1056L83.7411 14.0267" fill="black"/>
<path d="M85.9746 14.9076V8.09101H87.0406L90.3535 13.3939H90.3912L90.3535 12.0802V8.09101H91.23V14.9076H90.3158L86.8497 9.34776H86.812L86.8497 10.6619V14.9076H85.9746Z" fill="black"/>
<path d="M85.9747 14.9076H86.0883V8.20466H86.9776L90.2905 13.5075H90.3913H90.5079L90.4672 12.0785V8.20466H91.1164V14.794H90.3789L86.9129 9.23419H86.8121H86.6954L86.7362 10.6637V14.794H85.9747V14.9076H86.0883H85.9747V15.0212H86.8498H86.9634V10.6601L86.9257 9.34473L86.8121 9.3478V9.46141H86.8498V9.3478L86.7535 9.40824L90.2528 15.0212H91.2301H91.3437V7.97744H90.3535H90.2399V12.0816L90.2777 13.397L90.3913 13.3939V13.2803H90.3535V13.3939L90.4499 13.3336L87.1036 7.97744H85.9747H85.8611V15.0212H85.9747V14.9076Z" fill="black"/>
<path d="M121.603 34.2212H123.723V20.0186H121.603V34.2212ZM140.698 25.1347L138.267 31.2922H138.195L135.673 25.1347H133.389L137.171 33.741L135.015 38.5282H137.227L143.055 25.1347H140.698ZM128.675 32.6081C127.98 32.6081 127.012 32.261 127.012 31.4019C127.012 30.3057 128.219 29.8854 129.259 29.8854C130.192 29.8854 130.63 30.0864 131.196 30.3608C131.032 31.6761 129.899 32.6081 128.675 32.6081V32.6081ZM128.931 24.824C127.396 24.824 125.807 25.5003 125.149 26.9986L127.03 27.7841C127.433 26.9986 128.181 26.7425 128.967 26.7425C130.064 26.7425 131.178 27.4006 131.196 28.57V28.716C130.812 28.4968 129.991 28.168 128.986 28.168C126.958 28.168 124.892 29.2823 124.892 31.3654C124.892 33.2658 126.555 34.4901 128.419 34.4901C129.844 34.4901 130.63 33.8506 131.124 33.1016H131.196V34.1977H133.243V28.7524C133.243 26.2313 131.361 24.824 128.931 24.824V24.824ZM115.83 26.8636H112.814V21.9953H115.83C117.414 21.9953 118.314 23.3075 118.314 24.4294C118.314 25.5301 117.414 26.8636 115.83 26.8636ZM115.775 20.0186H110.696V34.2212H112.814V28.8403H115.775C118.124 28.8403 120.434 27.1392 120.434 24.4294C120.434 21.7197 118.124 20.0186 115.775 20.0186ZM88.0758 32.6107C86.6113 32.6107 85.3851 31.3845 85.3851 29.7003C85.3851 27.9985 86.6113 26.7536 88.0758 26.7536C89.5217 26.7536 90.6565 27.9985 90.6565 29.7003C90.6565 31.3845 89.5217 32.6107 88.0758 32.6107V32.6107ZM90.51 25.93H90.4368C89.9611 25.3627 89.0455 24.8502 87.8926 24.8502C85.4766 24.8502 83.2621 26.9733 83.2621 29.7003C83.2621 32.4093 85.4766 34.5141 87.8926 34.5141C89.0455 34.5141 89.9611 34.0015 90.4368 33.4162H90.51V34.1116C90.51 35.9605 89.5217 36.9488 87.9294 36.9488C86.6299 36.9488 85.8245 36.015 85.4947 35.2281L83.6464 35.9968C84.1772 37.278 85.5866 38.8522 87.9294 38.8522C90.4186 38.8522 92.5234 37.3876 92.5234 33.8187V25.1431H90.51V25.93ZM93.9875 34.2212H96.1107V20.0182H93.9875V34.2212ZM99.2406 29.5357C99.1856 27.6687 100.687 26.7172 101.766 26.7172C102.609 26.7172 103.322 27.1379 103.56 27.7424L99.2406 29.5357ZM105.83 27.9252C105.427 26.845 104.2 24.8502 101.693 24.8502C99.2038 24.8502 97.1358 26.8086 97.1358 29.6822C97.1358 32.3911 99.1856 34.5141 101.931 34.5141C104.146 34.5141 105.427 33.1596 105.958 32.3728L104.311 31.2744C103.762 32.0799 103.011 32.6107 101.931 32.6107C100.851 32.6107 100.083 32.1164 99.5881 31.1466L106.049 28.4741L105.83 27.9252ZM54.3551 26.3328V28.3827H59.2602C59.1137 29.5357 58.7294 30.3776 58.1436 30.9633C57.4301 31.6774 56.3135 32.4642 54.3551 32.4642C51.335 32.4642 48.9741 30.03 48.9741 27.0101C48.9741 23.9901 51.335 21.5555 54.3551 21.5555C55.9841 21.5555 57.1735 22.1963 58.0522 23.02L59.4981 21.5742C58.2719 20.4025 56.6427 19.5057 54.3551 19.5057C50.2184 19.5057 46.741 22.8735 46.741 27.0101C46.741 31.1466 50.2184 34.5141 54.3551 34.5141C56.5882 34.5141 58.2719 33.7823 59.5896 32.4092C60.944 31.0548 61.3652 29.1514 61.3652 27.6141C61.3652 27.1379 61.3287 26.699 61.2551 26.3328H54.3551ZM66.9418 32.6107C65.4773 32.6107 64.2143 31.4027 64.2143 29.6822C64.2143 27.9434 65.4773 26.7536 66.9418 26.7536C68.4058 26.7536 69.6688 27.9434 69.6688 29.6822C69.6688 31.4027 68.4058 32.6107 66.9418 32.6107V32.6107ZM66.9418 24.8502C64.2692 24.8502 62.0911 26.8818 62.0911 29.6822C62.0911 32.4642 64.2692 34.5141 66.9418 34.5141C69.6138 34.5141 71.7919 32.4642 71.7919 29.6822C71.7919 26.8818 69.6138 24.8502 66.9418 24.8502ZM77.5225 32.6107C76.0585 32.6107 74.7954 31.4027 74.7954 29.6822C74.7954 27.9434 76.0585 26.7536 77.5225 26.7536C78.9866 26.7536 80.2496 27.9434 80.2496 29.6822C80.2496 31.4027 78.9866 32.6107 77.5225 32.6107ZM77.5225 24.8502C74.8501 24.8502 72.6724 26.8818 72.6724 29.6822C72.6724 32.4642 74.8501 34.5141 77.5225 34.5141C80.1946 34.5141 82.3727 32.4642 82.3727 29.6822C82.3727 26.8818 80.1946 24.8502 77.5225 24.8502Z" fill="black"/>
<path d="M12.0538 36.9359L11.9694 36.8551C11.6388 36.5053 11.4436 35.9622 11.4436 35.2588V35.4243V10.2984C11.4436 10.2961 11.4436 10.2944 11.4436 10.2926C11.4436 10.2948 11.4436 10.2966 11.4436 10.2989V10.4648C11.4436 9.7032 11.6712 9.12947 12.0524 8.78546L26.1285 22.8611L12.0538 36.9359ZM11.4436 10.2912C11.4436 10.2286 11.4453 10.1679 11.4485 10.108C11.4453 10.1674 11.4436 10.2286 11.4436 10.2912ZM11.4485 10.1053C11.4485 10.1045 11.4485 10.1036 11.4488 10.1027C11.4485 10.1036 11.4485 10.1045 11.4485 10.1053ZM11.4488 10.0973C11.4488 10.0969 11.4488 10.0964 11.4488 10.096C11.4488 10.0964 11.4488 10.0969 11.4488 10.0973Z" fill="url(#paint0_linear_14_576)"/>
<path d="M30.8197 27.7211L30.9267 27.6603L36.4855 24.5018C37.0155 24.2005 37.3687 23.8353 37.5449 23.4488C37.3692 23.8353 37.0159 24.201 36.4855 24.5023L30.9267 27.6607L30.8197 27.7211V27.7211ZM30.8211 27.5546L26.1284 22.8612L30.8206 18.1685L36.4855 21.3869C37.2049 21.7956 37.6088 22.3224 37.6763 22.8607C37.6763 22.8612 37.6763 22.8621 37.6763 22.8629C37.6088 23.3999 37.2049 23.9272 36.4855 24.3358L30.8211 27.5546" fill="url(#paint1_linear_14_576)"/>
<path d="M13.0572 37.4719C12.664 37.4719 12.3209 37.3441 12.0534 37.1027L12.0538 37.1022C12.3214 37.3437 12.6649 37.4719 13.0581 37.4719C13.0922 37.4719 13.1269 37.471 13.162 37.4693C13.1264 37.471 13.0913 37.4719 13.0572 37.4719V37.4719ZM13.0577 37.3055C12.6645 37.3059 12.3214 37.1777 12.0538 36.9363V36.9359L26.1285 22.8611L30.8211 27.5546L14.3304 36.9243C13.8742 37.183 13.4419 37.3055 13.0577 37.3055V37.3055ZM12.0498 37.0996C12.025 37.077 12.0005 37.053 11.9766 37.0282L12.0498 37.0996Z" fill="url(#paint2_linear_14_576)"/>
<path d="M26.1283 22.8612L12.0522 8.78553C12.3198 8.54456 12.6624 8.41675 13.0552 8.41675C13.4404 8.41675 13.8731 8.53968 14.3302 8.79882L30.8205 18.1686L26.1283 22.8612V22.8612ZM30.9266 18.0626L14.3302 8.63295C13.8731 8.37369 13.4404 8.25077 13.0552 8.25077C13.0534 8.25077 13.0521 8.25077 13.0503 8.25077C13.0526 8.25077 13.0543 8.25077 13.057 8.25077C13.4414 8.25077 13.8735 8.37324 14.3302 8.63249L30.9266 18.0626V18.0626Z" fill="url(#paint3_linear_14_576)"/>
<path d="M13.1618 37.4692C13.519 37.4488 13.9145 37.3259 14.3303 37.0902L30.8196 27.721L14.3303 37.0902C13.9148 37.3263 13.519 37.4488 13.1618 37.4692V37.4692ZM12.0532 37.1026L12.0497 37.0996C12.0509 37.1005 12.0523 37.1017 12.0532 37.1026ZM11.9764 37.0281L11.9692 37.021V37.0206C11.972 37.0232 11.9741 37.0258 11.9764 37.0281Z" fill="white"/>
<path d="M30.8198 27.7211L30.9267 27.6604L30.8198 27.7211Z" fill="url(#paint4_linear_14_576)"/>
<path d="M13.058 37.4719C12.6648 37.4719 12.3212 37.3437 12.0537 37.1022L12.0532 37.1027C12.0523 37.1018 12.0509 37.1005 12.0497 37.0996L11.9764 37.0282C11.9741 37.0259 11.972 37.0233 11.9692 37.0207L12.0537 36.9363C12.3212 37.1777 12.6643 37.3059 13.0575 37.3055C13.4417 37.3055 13.874 37.183 14.3303 36.9243L30.821 27.5546L30.9266 27.6602L30.8196 27.721L14.3303 37.0903C13.9145 37.3259 13.519 37.4489 13.1618 37.4693C13.1267 37.471 13.092 37.4719 13.058 37.4719" fill="url(#paint5_linear_14_576)"/>
<path d="M11.9694 37.0212C11.6388 36.6714 11.4436 36.1283 11.4436 35.4249V35.4245C11.4436 36.1283 11.6388 36.671 11.9694 37.0208V37.0212" fill="white"/>
<path d="M11.9694 37.0208C11.6388 36.6709 11.4436 36.1282 11.4436 35.4244V35.2589C11.4436 35.9622 11.6388 36.5054 11.9694 36.8552L12.0538 36.936L11.9694 37.0208" fill="url(#paint6_linear_14_576)"/>
<path d="M11.9692 37.0208L12.0529 36.9367V36.9371L11.9692 37.0208" fill="url(#paint7_linear_14_576)"/>
<path d="M37.5449 23.4489C37.6323 23.2571 37.6763 23.0601 37.6763 22.863C37.6763 22.8626 37.6763 22.8622 37.6763 22.8622C37.6763 23.0596 37.6323 23.2566 37.5449 23.4489Z" fill="white"/>
<path d="M30.9267 27.6602L30.821 27.5545L36.4855 24.3357C37.2049 23.9271 37.6088 23.3998 37.6763 22.8628C37.6763 23.0599 37.6323 23.2569 37.5449 23.4486C37.3687 23.8351 37.0155 24.2004 36.4855 24.5017L30.9267 27.6602Z" fill="url(#paint8_linear_14_576)"/>
<path d="M37.6763 22.8612V22.8608C37.6758 22.2665 37.2786 21.6723 36.4855 21.2214L30.9267 18.0629H30.9263L30.9267 18.0626L36.4855 21.2209C37.2796 21.6718 37.6772 22.2669 37.6763 22.8612Z" fill="#404040"/>
<path d="M37.6762 22.8607C37.6087 22.3224 37.2049 21.7956 36.4855 21.3869L30.8206 18.1685L30.9262 18.0629H30.9267L36.4855 21.2213C37.2786 21.6722 37.6758 22.2664 37.6762 22.8607Z" fill="url(#paint9_linear_14_576)"/>
<path d="M11.4436 10.2926C11.4436 10.2921 11.4436 10.2917 11.4436 10.2912C11.4436 10.2917 11.4436 10.2921 11.4436 10.2926ZM11.4485 10.108C11.4485 10.1071 11.4485 10.1062 11.4485 10.1053C11.4485 10.1062 11.4485 10.1071 11.4485 10.108ZM11.4488 10.1026C11.4488 10.1008 11.4488 10.0991 11.4488 10.0973C11.4488 10.0991 11.4488 10.1008 11.4488 10.1026ZM11.4488 10.0959C11.5146 8.92883 12.1492 8.25467 13.047 8.2507C12.6577 8.25297 12.3187 8.38078 12.0533 8.61993V8.61947L12.0502 8.62265C12.0222 8.64787 11.9956 8.67457 11.9694 8.70207C11.6712 9.01756 11.483 9.49018 11.4488 10.0959Z" fill="#404040"/>
<path d="M11.4436 10.465V10.299C11.4436 10.2967 11.4436 10.2949 11.4436 10.2927C11.4436 10.2923 11.4436 10.2918 11.4436 10.2914C11.4436 10.2288 11.4453 10.1675 11.4485 10.1081C11.4485 10.1072 11.4485 10.1063 11.4485 10.1054C11.4485 10.1046 11.4485 10.1037 11.4488 10.1028C11.4488 10.101 11.4488 10.0993 11.4488 10.0974C11.4488 10.097 11.4488 10.0965 11.4488 10.0961C11.483 9.49031 11.6712 9.01769 11.9694 8.7022L12.0524 8.78559C11.6712 9.1296 11.4436 9.70332 11.4436 10.465V10.465ZM12.0502 8.62278L12.0533 8.6196C12.0524 8.62097 12.0511 8.62187 12.0502 8.62278Z" fill="url(#paint10_linear_14_576)"/>
<path d="M30.8205 18.1686L14.3303 8.79884C13.8731 8.5397 13.4405 8.41677 13.0552 8.41677C12.6625 8.41677 12.3198 8.54458 12.0523 8.78555L11.9692 8.70216C11.9955 8.67466 12.0221 8.64797 12.05 8.62274C12.0509 8.62184 12.0523 8.62093 12.0532 8.62002C12.3186 8.38087 12.6576 8.25306 13.0468 8.25079C13.0477 8.25079 13.049 8.25079 13.0503 8.25079C13.0522 8.25079 13.0534 8.25079 13.0552 8.25079C13.4405 8.25079 13.8731 8.37371 14.3303 8.63297L30.9266 18.0626L30.9262 18.0629L30.8205 18.1686Z" fill="url(#paint11_linear_14_576)"/>
<defs>
<linearGradient id="paint0_linear_14_576" x1="24.8803" y1="10.0334" x2="5.81379" y2="29.0999" gradientUnits="userSpaceOnUse">
<stop stop-color="#00A0FF"/>
<stop offset="0.00657445" stop-color="#00A1FF"/>
<stop offset="0.2601" stop-color="#00BEFF"/>
<stop offset="0.5122" stop-color="#00D2FF"/>
<stop offset="0.7604" stop-color="#00DFFF"/>
<stop offset="1" stop-color="#00E3FF"/>
</linearGradient>
<linearGradient id="paint1_linear_14_576" x1="38.5528" y1="22.8619" x2="11.0626" y2="22.8619" gradientUnits="userSpaceOnUse">
<stop stop-color="#FFE000"/>
<stop offset="0.4087" stop-color="#FFBD00"/>
<stop offset="0.7754" stop-color="#FFA500"/>
<stop offset="1" stop-color="#FF9C00"/>
</linearGradient>
<linearGradient id="paint2_linear_14_576" x1="28.3196" y1="25.4688" x2="2.4639" y2="51.3245" gradientUnits="userSpaceOnUse">
<stop stop-color="#FF3A44"/>
<stop offset="1" stop-color="#C31162"/>
</linearGradient>
<linearGradient id="paint3_linear_14_576" x1="8.4039" y1="0.338529" x2="19.9495" y2="11.8841" gradientUnits="userSpaceOnUse">
<stop stop-color="#32A071"/>
<stop offset="0.0685" stop-color="#2DA771"/>
<stop offset="0.4762" stop-color="#15CF74"/>
<stop offset="0.8009" stop-color="#06E775"/>
<stop offset="1" stop-color="#00F076"/>
</linearGradient>
<linearGradient id="paint4_linear_14_576" x1="38.5418" y1="22.8689" x2="11.091" y2="22.8689" gradientUnits="userSpaceOnUse">
<stop stop-color="#CCB300"/>
<stop offset="0.4087" stop-color="#CC9700"/>
<stop offset="0.7754" stop-color="#CC8400"/>
<stop offset="1" stop-color="#CC7D00"/>
</linearGradient>
<linearGradient id="paint5_linear_14_576" x1="28.3194" y1="25.4688" x2="2.46373" y2="51.3245" gradientUnits="userSpaceOnUse">
<stop stop-color="#CC2E36"/>
<stop offset="1" stop-color="#9C0E4E"/>
</linearGradient>
<linearGradient id="paint6_linear_14_576" x1="24.8804" y1="10.0334" x2="5.81382" y2="29.1" gradientUnits="userSpaceOnUse">
<stop stop-color="#008DE0"/>
<stop offset="0.00657445" stop-color="#008DE0"/>
<stop offset="0.2601" stop-color="#00A7E0"/>
<stop offset="0.5122" stop-color="#00B8E0"/>
<stop offset="0.7604" stop-color="#00C4E0"/>
<stop offset="1" stop-color="#00C7E0"/>
</linearGradient>
<linearGradient id="paint7_linear_14_576" x1="28.1822" y1="25.5662" x2="2.54437" y2="51.2049" gradientUnits="userSpaceOnUse">
<stop stop-color="#E0333C"/>
<stop offset="1" stop-color="#AB0F56"/>
</linearGradient>
<linearGradient id="paint8_linear_14_576" x1="38.5528" y1="22.8617" x2="11.0626" y2="22.8617" gradientUnits="userSpaceOnUse">
<stop stop-color="#E0C500"/>
<stop offset="0.4087" stop-color="#E0A600"/>
<stop offset="0.7754" stop-color="#E09100"/>
<stop offset="1" stop-color="#E08900"/>
</linearGradient>
<linearGradient id="paint9_linear_14_576" x1="38.5527" y1="22.8619" x2="11.0626" y2="22.8619" gradientUnits="userSpaceOnUse">
<stop stop-color="#FFE840"/>
<stop offset="0.4087" stop-color="#FFCE40"/>
<stop offset="0.7754" stop-color="#FFBC40"/>
<stop offset="1" stop-color="#FFB540"/>
</linearGradient>
<linearGradient id="paint10_linear_14_576" x1="24.8803" y1="10.0335" x2="5.81375" y2="29.1" gradientUnits="userSpaceOnUse">
<stop stop-color="#40B8FF"/>
<stop offset="0.00657445" stop-color="#40B9FF"/>
<stop offset="0.2601" stop-color="#40CEFF"/>
<stop offset="0.5122" stop-color="#40DDFF"/>
<stop offset="0.7604" stop-color="#40E7FF"/>
<stop offset="1" stop-color="#40EAFF"/>
</linearGradient>
<linearGradient id="paint11_linear_14_576" x1="8.40394" y1="0.338549" x2="19.9495" y2="11.8841" gradientUnits="userSpaceOnUse">
<stop stop-color="#65B895"/>
<stop offset="0.0685" stop-color="#62BD95"/>
<stop offset="0.4762" stop-color="#50DB97"/>
<stop offset="0.8009" stop-color="#44ED98"/>
<stop offset="1" stop-color="#40F498"/>
</linearGradient>
</defs>
</svg>
