<svg width="154" height="46" viewBox="0 0 154 46" fill="none" xmlns="http://www.w3.org/2000/svg">
<path d="M147.806 45.5823H5.79426C2.66999 45.5823 0.11377 43.0261 0.11377 39.9018V5.81886C0.11377 2.69459 2.66999 0.138374 5.79426 0.138374H147.806C150.931 0.138374 153.487 2.69459 153.487 5.81886V39.9018C153.487 43.0261 150.931 45.5823 147.806 45.5823Z" fill="white"/>
<path d="M53.9858 11.7758C53.9858 12.7276 53.7039 13.4856 53.1394 14.0511C52.4982 14.7234 51.6624 15.0598 50.6351 15.0598C49.6512 15.0598 48.8147 14.719 48.1268 14.0364C47.4376 13.3543 47.0938 12.5085 47.0938 11.4993C47.0938 10.4896 47.4376 9.64426 48.1268 8.9617C48.8147 8.27958 49.6512 7.9383 50.6351 7.9383C51.1233 7.9383 51.5906 8.03373 52.0344 8.22414C52.4782 8.41501 52.8341 8.66836 53.1004 8.98567L52.5012 9.58519C52.05 9.046 51.4286 8.77663 50.6351 8.77663C49.9175 8.77663 49.2971 9.02873 48.7735 9.53327C48.2497 10.0384 47.988 10.6933 47.988 11.4993C47.988 12.3052 48.2497 12.9602 48.7735 13.4653C49.2971 13.9698 49.9175 14.2219 50.6351 14.2219C51.3963 14.2219 52.0309 13.9685 52.5389 13.4609C52.8688 13.1302 53.0595 12.6705 53.1105 12.0802H50.6351V11.2614H53.9383C53.9702 11.4394 53.9858 11.6103 53.9858 11.7758" fill="black"/>
<path d="M53.9856 11.7758H53.872C53.8711 12.706 53.5995 13.4284 53.0589 13.9708L53.0576 13.9717L53.0572 13.9726C52.4363 14.6218 51.6383 14.9449 50.6349 14.9462C49.6773 14.9449 48.8758 14.6182 48.2065 13.9561C47.5387 13.2927 47.2085 12.4827 47.2072 11.4993C47.2085 10.5155 47.5387 9.70599 48.2065 9.04297C48.8758 8.38039 49.6773 8.05331 50.6349 8.05195C51.1084 8.05195 51.5594 8.14431 51.9894 8.32847C52.4198 8.514 52.7599 8.75712 53.0132 9.05898L53.1003 8.98571L53.0199 8.90538L52.4207 9.50536L52.5011 9.58523L52.5886 9.51251C52.1163 8.94662 51.4534 8.66135 50.6349 8.66306C49.8908 8.66215 49.2362 8.92799 48.6947 9.45173C48.148 9.97718 47.8733 10.6689 47.8742 11.4993C47.8733 12.3297 48.148 13.0215 48.6947 13.5469C49.2362 14.0707 49.8908 14.3365 50.6349 14.3356C51.4213 14.337 52.0915 14.0702 52.6191 13.5412C52.9715 13.1879 53.1713 12.6985 53.2236 12.09L53.2342 11.9666H50.7485V11.375H53.9381V11.2614L53.8262 11.2814C53.8573 11.4537 53.872 11.6174 53.872 11.7758H53.9856H54.0992C54.0992 11.6032 54.0832 11.4257 54.0499 11.2411L54.0331 11.1478H50.5213V12.0802V12.1938H53.1104V12.0802L52.9972 12.0704C52.9471 12.6421 52.7651 13.0726 52.4585 13.3806C51.9703 13.8669 51.3712 14.107 50.6349 14.1084C49.9439 14.1075 49.3577 13.8696 48.8523 13.3837C48.3517 12.8994 48.1027 12.2813 48.1014 11.4993C48.1027 10.7173 48.3517 10.0992 48.8523 9.61499C49.3577 9.12908 49.9439 8.89118 50.6349 8.89027C51.4031 8.89209 51.9832 9.1459 52.4142 9.6585L52.494 9.75348L53.1806 9.06603L53.2542 8.99241L53.1872 8.91288C52.908 8.58012 52.5362 8.31598 52.079 8.11989C51.6211 7.92323 51.1378 7.82473 50.6349 7.82473C49.6249 7.82382 48.7533 8.17885 48.0463 8.88141C47.3367 9.58261 46.9791 10.464 46.98 11.4993C46.9791 12.5342 47.3367 13.416 48.0468 14.1177C48.7533 14.8198 49.6249 15.1744 50.6349 15.1735C51.6867 15.1744 52.5592 14.825 53.2214 14.1296L53.1392 14.0511L53.2195 14.1314C53.808 13.5434 54.1 12.749 54.0992 11.7758H53.9856Z" fill="black"/>
<path d="M59.2221 8.92842H56.1178V11.0897H58.9173V11.9089H56.1178V14.0702H59.2221V14.9076H55.2427V8.09101H59.2221V8.92842Z" fill="black"/>
<path d="M59.2224 8.92846V8.81485H56.0045V11.2034H58.804V11.7949L56.0045 11.7953V14.1838H59.1088V14.794H55.3566V8.20466H59.1088V8.92846H59.2224V8.81485V8.92846H59.336V8.09105V7.97744H55.1294V15.0212H59.336V14.0702V13.9566H56.2318V12.0225H59.0312V11.0898V10.9762H56.2318V9.04207H59.336V8.92846H59.2224" fill="black"/>
<path d="M62.9161 14.9076H62.0396V8.92842H60.1357V8.09101H64.82V8.92842H62.9161V14.9076Z" fill="black"/>
<path d="M62.916 14.9076V14.794H62.1531V8.81485H60.2492V8.20466H64.7062V8.81485H62.8023V14.9076H62.916V14.794V14.9076H63.0296V9.04207H64.9334V8.09105V7.97744H60.022V8.92846V9.04207H61.9258V15.0212H62.916H63.0296V14.9076H62.916" fill="black"/>
<path d="M68.2095 14.9076V8.09101H69.0851V14.9076H68.2095Z" fill="black"/>
<path d="M68.2093 14.9076H68.3229V8.20466H68.9713V14.794H68.2093V14.9076H68.3229H68.2093V15.0212H69.0849H69.1985V7.97744H68.2093H68.0957V15.0212H68.2093V14.9076Z" fill="black"/>
<path d="M72.9702 14.9076H72.0937V8.92842H70.1899V8.09101H74.8741V8.92842H72.9702V14.9076Z" fill="black"/>
<path d="M72.97 14.9076V14.794H72.2071V8.81485H70.3034V8.20466H74.7603V8.81485H72.8564V14.9076H72.97V14.794V14.9076H73.0836V9.04207H74.9875V8.09105V7.97744H70.0762V8.92846V9.04207H71.9799V15.0212H72.97H73.0836V14.9076H72.97" fill="black"/>
<path d="M79.3901 13.456C79.8947 13.9668 80.512 14.2219 81.2421 14.2219C81.9721 14.2219 82.5898 13.9668 83.0936 13.456C83.5986 12.9452 83.8516 12.2923 83.8516 11.4993C83.8516 10.7063 83.5986 10.0534 83.0936 9.54258C82.5898 9.03179 81.9721 8.77663 81.2421 8.77663C80.512 8.77663 79.8947 9.03179 79.3901 9.54258C78.8864 10.0534 78.6335 10.7063 78.6335 11.4993C78.6335 12.2923 78.8864 12.9452 79.3901 13.456ZM83.7415 14.0266C83.0713 14.7158 82.2379 15.0598 81.2421 15.0598C80.2453 15.0598 79.4123 14.7158 78.7436 14.0266C78.0729 13.3383 77.7393 12.4956 77.7393 11.4993C77.7393 10.5029 78.0729 9.66017 78.7436 8.97192C79.4123 8.28265 80.2453 7.9383 81.2421 7.9383C82.2326 7.9383 83.0638 8.28447 83.737 8.97635C84.4094 9.66824 84.7458 10.5092 84.7458 11.4993C84.7458 12.4956 84.4102 13.3383 83.7415 14.0266Z" fill="black"/>
<path d="M79.39 13.456L79.3092 13.5359C79.8325 14.0671 80.4853 14.337 81.2419 14.3356C81.9981 14.337 82.6518 14.0671 83.1742 13.5359C83.7009 13.0042 83.9658 12.3163 83.965 11.4993C83.9658 10.6824 83.7009 9.99445 83.1742 9.46275C82.6518 8.93151 81.9981 8.66169 81.2419 8.66305C80.4853 8.66169 79.8325 8.93151 79.3092 9.46275C78.7837 9.99445 78.5183 10.6824 78.5197 11.4993C78.5183 12.3163 78.7837 13.0042 79.3092 13.5359L79.39 13.456L79.4707 13.3762C78.9888 12.8857 78.7478 12.2688 78.7469 11.4993C78.7478 10.7298 78.9888 10.1129 79.4707 9.62249C79.9571 9.13215 80.538 8.89164 81.2419 8.89027C81.9453 8.89164 82.5275 9.13215 83.0126 9.62249C83.4955 10.1129 83.7365 10.7298 83.7374 11.4993C83.7365 12.2688 83.4955 12.8857 83.0126 13.3762C82.5275 13.8665 81.9453 14.107 81.2419 14.1084C80.538 14.107 79.9571 13.8665 79.4707 13.3762L79.39 13.456ZM83.7413 14.0267L83.6601 13.9477C83.0087 14.6152 82.212 14.9449 81.2419 14.9462C80.2713 14.9449 79.4747 14.6152 78.8245 13.9477L78.8215 13.9442L78.8245 13.9477C78.1744 13.278 77.8536 12.4703 77.8527 11.4993C77.8536 10.5283 78.1744 9.72065 78.8245 9.05092C79.4747 8.38346 80.2713 8.05331 81.2419 8.05195C82.2058 8.05331 83.0006 8.38482 83.6557 9.0558C84.308 9.7286 84.6307 10.535 84.632 11.4993C84.6307 12.4703 84.3089 13.278 83.6601 13.9477L83.7413 14.0267L83.823 14.1056C84.5117 13.3983 84.8601 12.5209 84.8593 11.4993C84.8601 10.4835 84.5104 9.60794 83.8185 8.89743C83.1263 8.18419 82.2591 7.82348 81.2419 7.82473C80.2194 7.82348 79.3496 8.18248 78.6617 8.893V8.89254C77.9717 9.60033 77.6246 10.4777 77.6255 11.4993C77.6246 12.5209 77.9717 13.3983 78.6617 14.1061L78.6648 14.1093L78.6617 14.1056C79.3496 14.8162 80.2194 15.1744 81.2419 15.1735C82.264 15.1744 83.1337 14.8162 83.823 14.1056L83.7413 14.0267" fill="black"/>
<path d="M85.9746 14.9076V8.09101H87.0406L90.3535 13.3939H90.3912L90.3535 12.0802V8.09101H91.23V14.9076H90.3158L86.8497 9.34776H86.812L86.8497 10.6619V14.9076H85.9746Z" fill="black"/>
<path d="M85.9749 14.9076H86.0885V8.20466H86.9779L90.2907 13.5075H90.3915H90.5082L90.4674 12.0785V8.20466H91.1167V14.794H90.3791L86.9131 9.23419H86.8124H86.6957L86.7365 10.6637V14.794H85.9749V14.9076H86.0885H85.9749V15.0212H86.8501H86.9637V10.6601L86.926 9.34473L86.8124 9.3478V9.46141H86.8501V9.3478L86.7537 9.40824L90.253 15.0212H91.2303H91.3439V7.97744H90.3538H90.2402V12.0816L90.2779 13.397L90.3915 13.3939V13.2803H90.3538V13.3939L90.4501 13.3336L87.1039 7.97744H85.9749H85.8613V15.0212H85.9749V14.9076Z" fill="black"/>
<path d="M121.603 34.2212H123.723V20.0186H121.603V34.2212ZM140.698 25.1347L138.268 31.2922H138.195L135.673 25.1347H133.389L137.171 33.741L135.015 38.5282H137.227L143.055 25.1347H140.698ZM128.676 32.6081C127.98 32.6081 127.012 32.261 127.012 31.4019C127.012 30.3057 128.219 29.8854 129.26 29.8854C130.192 29.8854 130.63 30.0864 131.197 30.3608C131.032 31.6761 129.899 32.6081 128.676 32.6081V32.6081ZM128.931 24.824C127.396 24.824 125.807 25.5003 125.149 26.9986L127.031 27.7841C127.433 26.9986 128.181 26.7425 128.968 26.7425C130.064 26.7425 131.178 27.4006 131.197 28.57V28.716C130.813 28.4968 129.991 28.168 128.986 28.168C126.958 28.168 124.892 29.2823 124.892 31.3654C124.892 33.2658 126.556 34.4901 128.419 34.4901C129.845 34.4901 130.63 33.8506 131.124 33.1016H131.197V34.1977H133.243V28.7524C133.243 26.2313 131.361 24.824 128.931 24.824V24.824ZM115.83 26.8636H112.815V21.9953H115.83C117.415 21.9953 118.314 23.3075 118.314 24.4294C118.314 25.5301 117.415 26.8636 115.83 26.8636ZM115.775 20.0186H110.696V34.2212H112.815V28.8403H115.775C118.125 28.8403 120.434 27.1392 120.434 24.4294C120.434 21.7197 118.125 20.0186 115.775 20.0186ZM88.0761 32.6107C86.6115 32.6107 85.3853 31.3845 85.3853 29.7003C85.3853 27.9985 86.6115 26.7536 88.0761 26.7536C89.522 26.7536 90.6567 27.9985 90.6567 29.7003C90.6567 31.3845 89.522 32.6107 88.0761 32.6107V32.6107ZM90.5103 25.93H90.437C89.9613 25.3627 89.0457 24.8502 87.8928 24.8502C85.4768 24.8502 83.2623 26.9733 83.2623 29.7003C83.2623 32.4093 85.4768 34.5141 87.8928 34.5141C89.0457 34.5141 89.9613 34.0015 90.437 33.4162H90.5103V34.1116C90.5103 35.9605 89.522 36.9488 87.9296 36.9488C86.6302 36.9488 85.8248 36.015 85.495 35.2281L83.6467 35.9968C84.1774 37.278 85.5869 38.8522 87.9296 38.8522C90.4188 38.8522 92.5237 37.3876 92.5237 33.8187V25.1431H90.5103V25.93ZM93.9878 34.2212H96.1109V20.0182H93.9878V34.2212ZM99.2409 29.5357C99.1859 27.6687 100.687 26.7172 101.767 26.7172C102.609 26.7172 103.323 27.1379 103.56 27.7424L99.2409 29.5357ZM105.83 27.9252C105.428 26.845 104.201 24.8502 101.693 24.8502C99.204 24.8502 97.136 26.8086 97.136 29.6822C97.136 32.3911 99.1859 34.5141 101.931 34.5141C104.146 34.5141 105.428 33.1596 105.958 32.3728L104.311 31.2744C103.762 32.0799 103.011 32.6107 101.931 32.6107C100.851 32.6107 100.083 32.1164 99.5884 31.1466L106.049 28.4741L105.83 27.9252ZM54.3553 26.3328V28.3827H59.2604C59.114 29.5357 58.7297 30.3776 58.1439 30.9633C57.4303 31.6774 56.3137 32.4642 54.3553 32.4642C51.3352 32.4642 48.9743 30.03 48.9743 27.0101C48.9743 23.9901 51.3352 21.5555 54.3553 21.5555C55.9844 21.5555 57.1738 22.1963 58.0524 23.02L59.4983 21.5742C58.2721 20.4025 56.643 19.5057 54.3553 19.5057C50.2187 19.5057 46.7412 22.8735 46.7412 27.0101C46.7412 31.1466 50.2187 34.5141 54.3553 34.5141C56.5884 34.5141 58.2722 33.7823 59.5898 32.4092C60.9443 31.0548 61.3654 29.1514 61.3654 27.6141C61.3654 27.1379 61.3289 26.699 61.2553 26.3328H54.3553ZM66.942 32.6107C65.4775 32.6107 64.2145 31.4027 64.2145 29.6822C64.2145 27.9434 65.4775 26.7536 66.942 26.7536C68.406 26.7536 69.669 27.9434 69.669 29.6822C69.669 31.4027 68.406 32.6107 66.942 32.6107V32.6107ZM66.942 24.8502C64.2695 24.8502 62.0914 26.8818 62.0914 29.6822C62.0914 32.4642 64.2695 34.5141 66.942 34.5141C69.614 34.5141 71.7922 32.4642 71.7922 29.6822C71.7922 26.8818 69.614 24.8502 66.942 24.8502ZM77.5228 32.6107C76.0588 32.6107 74.7957 31.4027 74.7957 29.6822C74.7957 27.9434 76.0588 26.7536 77.5228 26.7536C78.9868 26.7536 80.2498 27.9434 80.2498 29.6822C80.2498 31.4027 78.9868 32.6107 77.5228 32.6107ZM77.5228 24.8502C74.8503 24.8502 72.6726 26.8818 72.6726 29.6822C72.6726 32.4642 74.8503 34.5141 77.5228 34.5141C80.1949 34.5141 82.373 32.4642 82.373 29.6822C82.373 26.8818 80.1949 24.8502 77.5228 24.8502Z" fill="black"/>
<path d="M12.054 36.9359L11.9696 36.8551C11.639 36.5053 11.4438 35.9622 11.4438 35.2588V35.4243V10.2984C11.4438 10.2961 11.4438 10.2944 11.4438 10.2926C11.4438 10.2948 11.4438 10.2966 11.4438 10.2989V10.4648C11.4438 9.7032 11.6714 9.12947 12.0527 8.78546L26.1287 22.8611L12.054 36.9359ZM11.4438 10.2912C11.4438 10.2286 11.4456 10.1679 11.4487 10.108C11.4456 10.1674 11.4438 10.2286 11.4438 10.2912ZM11.4487 10.1053C11.4487 10.1045 11.4487 10.1036 11.4491 10.1027C11.4487 10.1036 11.4487 10.1045 11.4487 10.1053ZM11.4491 10.0973C11.4491 10.0969 11.4491 10.0964 11.4491 10.096C11.4491 10.0964 11.4491 10.0969 11.4491 10.0973Z" fill="url(#paint0_linear_14_1379)"/>
<path d="M30.8202 27.7211L30.9272 27.6603L36.486 24.5018C37.016 24.2005 37.3692 23.8353 37.5454 23.4488C37.3697 23.8353 37.0164 24.201 36.486 24.5023L30.9272 27.6607L30.8202 27.7211V27.7211ZM30.8216 27.5546L26.1289 22.8612L30.8211 18.1685L36.486 21.3869C37.2054 21.7956 37.6093 22.3224 37.6768 22.8607C37.6768 22.8612 37.6768 22.8621 37.6768 22.8629C37.6093 23.3999 37.2054 23.9272 36.486 24.3358L30.8216 27.5546" fill="url(#paint1_linear_14_1379)"/>
<path d="M13.0572 37.4719C12.664 37.4719 12.3209 37.3441 12.0534 37.1027L12.0538 37.1022C12.3214 37.3437 12.6649 37.4719 13.0581 37.4719C13.0922 37.4719 13.1269 37.471 13.162 37.4693C13.1264 37.471 13.0913 37.4719 13.0572 37.4719V37.4719ZM13.0577 37.3055C12.6645 37.3059 12.3214 37.1777 12.0538 36.9363V36.9359L26.1285 22.8611L30.8211 27.5546L14.3304 36.9243C13.8742 37.183 13.4419 37.3055 13.0577 37.3055V37.3055ZM12.0498 37.0996C12.025 37.077 12.0005 37.053 11.9766 37.0282L12.0498 37.0996Z" fill="url(#paint2_linear_14_1379)"/>
<path d="M26.1288 22.8612L12.0527 8.78553C12.3203 8.54456 12.6629 8.41675 13.0557 8.41675C13.4409 8.41675 13.8736 8.53968 14.3307 8.79882L30.8209 18.1686L26.1288 22.8612V22.8612ZM30.9271 18.0626L14.3307 8.63295C13.8736 8.37369 13.4409 8.25077 13.0557 8.25077C13.0539 8.25077 13.0526 8.25077 13.0508 8.25077C13.0531 8.25077 13.0548 8.25077 13.0575 8.25077C13.4418 8.25077 13.874 8.37324 14.3307 8.63249L30.9271 18.0626V18.0626Z" fill="url(#paint3_linear_14_1379)"/>
<path d="M13.1623 37.4692C13.5195 37.4488 13.915 37.3259 14.3308 37.0902L30.8201 27.721L14.3308 37.0902C13.9153 37.3263 13.5195 37.4488 13.1623 37.4692V37.4692ZM12.0537 37.1026L12.0502 37.0996C12.0514 37.1005 12.0528 37.1017 12.0537 37.1026ZM11.9769 37.0281L11.9697 37.021V37.0206C11.9725 37.0232 11.9746 37.0258 11.9769 37.0281Z" fill="white"/>
<path d="M30.8198 27.7211L30.9267 27.6604L30.8198 27.7211Z" fill="url(#paint4_linear_14_1379)"/>
<path d="M13.0584 37.4719C12.6652 37.4719 12.3217 37.3437 12.0541 37.1022L12.0537 37.1027C12.0528 37.1018 12.0514 37.1005 12.0502 37.0996L11.9769 37.0282C11.9746 37.0259 11.9725 37.0233 11.9697 37.0207L12.0541 36.9363C12.3217 37.1777 12.6648 37.3059 13.058 37.3055C13.4422 37.3055 13.8745 37.183 14.3308 36.9243L30.8214 27.5546L30.9271 27.6602L30.8201 27.721L14.3308 37.0903C13.915 37.3259 13.5195 37.4489 13.1623 37.4693C13.1272 37.471 13.0925 37.4719 13.0584 37.4719" fill="url(#paint5_linear_14_1379)"/>
<path d="M11.9696 37.0212C11.639 36.6714 11.4438 36.1283 11.4438 35.4249V35.4245C11.4438 36.1283 11.639 36.671 11.9696 37.0208V37.0212" fill="white"/>
<path d="M11.9696 37.0208C11.639 36.6709 11.4438 36.1282 11.4438 35.4244V35.2589C11.4438 35.9622 11.639 36.5054 11.9696 36.8552L12.054 36.936L11.9696 37.0208" fill="url(#paint6_linear_14_1379)"/>
<path d="M11.9697 37.0208L12.0534 36.9367V36.9371L11.9697 37.0208" fill="url(#paint7_linear_14_1379)"/>
<path d="M37.5454 23.4489C37.6328 23.2571 37.6767 23.0601 37.6767 22.863C37.6767 22.8626 37.6767 22.8622 37.6767 22.8622C37.6767 23.0596 37.6328 23.2566 37.5454 23.4489Z" fill="white"/>
<path d="M30.9269 27.6602L30.8213 27.5545L36.4858 24.3357C37.2051 23.9271 37.609 23.3998 37.6765 22.8628C37.6765 23.0599 37.6325 23.2569 37.5452 23.4486C37.369 23.8351 37.0157 24.2004 36.4858 24.5017L30.9269 27.6602Z" fill="url(#paint8_linear_14_1379)"/>
<path d="M37.6768 22.8612V22.8608C37.6763 22.2665 37.2791 21.6723 36.486 21.2214L30.9272 18.0629H30.9268L30.9272 18.0626L36.486 21.2209C37.28 21.6718 37.6777 22.2669 37.6768 22.8612Z" fill="#404040"/>
<path d="M37.6765 22.8607C37.609 22.3224 37.2051 21.7956 36.4857 21.3869L30.8208 18.1685L30.9265 18.0629H30.9269L36.4857 21.2213C37.2788 21.6722 37.676 22.2664 37.6765 22.8607Z" fill="url(#paint9_linear_14_1379)"/>
<path d="M11.4438 10.2926C11.4438 10.2921 11.4438 10.2917 11.4438 10.2912C11.4438 10.2917 11.4438 10.2921 11.4438 10.2926ZM11.4487 10.108C11.4487 10.1071 11.4487 10.1062 11.4487 10.1053C11.4487 10.1062 11.4487 10.1071 11.4487 10.108ZM11.4491 10.1026C11.4491 10.1008 11.4491 10.0991 11.4491 10.0973C11.4491 10.0991 11.4491 10.1008 11.4491 10.1026ZM11.4491 10.0959C11.5149 8.92883 12.1495 8.25467 13.0472 8.2507C12.658 8.25297 12.319 8.38078 12.0536 8.61993V8.61947L12.0504 8.62265C12.0225 8.64787 11.9959 8.67457 11.9696 8.70207C11.6714 9.01756 11.4833 9.49018 11.4491 10.0959Z" fill="#404040"/>
<path d="M11.4438 10.465V10.299C11.4438 10.2967 11.4438 10.2949 11.4438 10.2927C11.4438 10.2923 11.4438 10.2918 11.4438 10.2914C11.4438 10.2288 11.4456 10.1675 11.4487 10.1081C11.4487 10.1072 11.4487 10.1063 11.4487 10.1054C11.4487 10.1046 11.4487 10.1037 11.4491 10.1028C11.4491 10.101 11.4491 10.0993 11.4491 10.0974C11.4491 10.097 11.4491 10.0965 11.4491 10.0961C11.4833 9.49031 11.6714 9.01769 11.9696 8.7022L12.0527 8.78559C11.6714 9.1296 11.4438 9.70332 11.4438 10.465V10.465ZM12.0504 8.62278L12.0536 8.6196C12.0527 8.62097 12.0513 8.62187 12.0504 8.62278Z" fill="url(#paint10_linear_14_1379)"/>
<path d="M30.821 18.1686L14.3308 8.79884C13.8736 8.5397 13.441 8.41677 13.0557 8.41677C12.663 8.41677 12.3203 8.54458 12.0528 8.78555L11.9697 8.70216C11.996 8.67466 12.0226 8.64797 12.0505 8.62274C12.0514 8.62184 12.0528 8.62093 12.0537 8.62002C12.3191 8.38087 12.6581 8.25306 13.0473 8.25079C13.0482 8.25079 13.0495 8.25079 13.0508 8.25079C13.0527 8.25079 13.0539 8.25079 13.0557 8.25079C13.441 8.25079 13.8736 8.37371 14.3308 8.63297L30.9271 18.0626L30.9267 18.0629L30.821 18.1686Z" fill="url(#paint11_linear_14_1379)"/>
<defs>
<linearGradient id="paint0_linear_14_1379" x1="24.8806" y1="10.0334" x2="5.81403" y2="29.0999" gradientUnits="userSpaceOnUse">
<stop stop-color="#00A0FF"/>
<stop offset="0.00657445" stop-color="#00A1FF"/>
<stop offset="0.2601" stop-color="#00BEFF"/>
<stop offset="0.5122" stop-color="#00D2FF"/>
<stop offset="0.7604" stop-color="#00DFFF"/>
<stop offset="1" stop-color="#00E3FF"/>
</linearGradient>
<linearGradient id="paint1_linear_14_1379" x1="38.5533" y1="22.8619" x2="11.0631" y2="22.8619" gradientUnits="userSpaceOnUse">
<stop stop-color="#FFE000"/>
<stop offset="0.4087" stop-color="#FFBD00"/>
<stop offset="0.7754" stop-color="#FFA500"/>
<stop offset="1" stop-color="#FF9C00"/>
</linearGradient>
<linearGradient id="paint2_linear_14_1379" x1="28.3196" y1="25.4688" x2="2.4639" y2="51.3245" gradientUnits="userSpaceOnUse">
<stop stop-color="#FF3A44"/>
<stop offset="1" stop-color="#C31162"/>
</linearGradient>
<linearGradient id="paint3_linear_14_1379" x1="8.40438" y1="0.338529" x2="19.95" y2="11.8841" gradientUnits="userSpaceOnUse">
<stop stop-color="#32A071"/>
<stop offset="0.0685" stop-color="#2DA771"/>
<stop offset="0.4762" stop-color="#15CF74"/>
<stop offset="0.8009" stop-color="#06E775"/>
<stop offset="1" stop-color="#00F076"/>
</linearGradient>
<linearGradient id="paint4_linear_14_1379" x1="38.5418" y1="22.8689" x2="11.091" y2="22.8689" gradientUnits="userSpaceOnUse">
<stop stop-color="#CCB300"/>
<stop offset="0.4087" stop-color="#CC9700"/>
<stop offset="0.7754" stop-color="#CC8400"/>
<stop offset="1" stop-color="#CC7D00"/>
</linearGradient>
<linearGradient id="paint5_linear_14_1379" x1="28.3199" y1="25.4688" x2="2.46422" y2="51.3245" gradientUnits="userSpaceOnUse">
<stop stop-color="#CC2E36"/>
<stop offset="1" stop-color="#9C0E4E"/>
</linearGradient>
<linearGradient id="paint6_linear_14_1379" x1="24.8806" y1="10.0334" x2="5.81406" y2="29.1" gradientUnits="userSpaceOnUse">
<stop stop-color="#008DE0"/>
<stop offset="0.00657445" stop-color="#008DE0"/>
<stop offset="0.2601" stop-color="#00A7E0"/>
<stop offset="0.5122" stop-color="#00B8E0"/>
<stop offset="0.7604" stop-color="#00C4E0"/>
<stop offset="1" stop-color="#00C7E0"/>
</linearGradient>
<linearGradient id="paint7_linear_14_1379" x1="28.1827" y1="25.5662" x2="2.54486" y2="51.2049" gradientUnits="userSpaceOnUse">
<stop stop-color="#E0333C"/>
<stop offset="1" stop-color="#AB0F56"/>
</linearGradient>
<linearGradient id="paint8_linear_14_1379" x1="38.553" y1="22.8617" x2="11.0629" y2="22.8617" gradientUnits="userSpaceOnUse">
<stop stop-color="#E0C500"/>
<stop offset="0.4087" stop-color="#E0A600"/>
<stop offset="0.7754" stop-color="#E09100"/>
<stop offset="1" stop-color="#E08900"/>
</linearGradient>
<linearGradient id="paint9_linear_14_1379" x1="38.553" y1="22.8619" x2="11.0628" y2="22.8619" gradientUnits="userSpaceOnUse">
<stop stop-color="#FFE840"/>
<stop offset="0.4087" stop-color="#FFCE40"/>
<stop offset="0.7754" stop-color="#FFBC40"/>
<stop offset="1" stop-color="#FFB540"/>
</linearGradient>
<linearGradient id="paint10_linear_14_1379" x1="24.8806" y1="10.0335" x2="5.814" y2="29.1" gradientUnits="userSpaceOnUse">
<stop stop-color="#40B8FF"/>
<stop offset="0.00657445" stop-color="#40B9FF"/>
<stop offset="0.2601" stop-color="#40CEFF"/>
<stop offset="0.5122" stop-color="#40DDFF"/>
<stop offset="0.7604" stop-color="#40E7FF"/>
<stop offset="1" stop-color="#40EAFF"/>
</linearGradient>
<linearGradient id="paint11_linear_14_1379" x1="8.40443" y1="0.338549" x2="19.95" y2="11.8841" gradientUnits="userSpaceOnUse">
<stop stop-color="#65B895"/>
<stop offset="0.0685" stop-color="#62BD95"/>
<stop offset="0.4762" stop-color="#50DB97"/>
<stop offset="0.8009" stop-color="#44ED98"/>
<stop offset="1" stop-color="#40F498"/>
</linearGradient>
</defs>
</svg>
