<svg width="154" height="46" fill="none" xmlns="http://www.w3.org/2000/svg"><path d="M147.806 45.582H5.794c-3.124 0-5.68-2.556-5.68-5.68V5.819c0-3.124 2.556-5.68 5.68-5.68h142.012c3.124 0 5.681 2.556 5.681 5.68v34.083c0 3.124-2.557 5.68-5.681 5.68Z" fill="#fff"/><path d="M53.986 11.776c0 .952-.282 1.71-.847 2.275-.641.672-1.477 1.009-2.504 1.009-.984 0-1.82-.341-2.508-1.024-.69-.682-1.033-1.527-1.033-2.537s.343-1.855 1.033-2.537c.688-.682 1.524-1.024 2.508-1.024.488 0 .956.096 1.4.286.443.191.799.444 1.065.762l-.599.6c-.451-.54-1.072-.81-1.866-.81-.718 0-1.338.253-1.862.757-.523.505-.785 1.16-.785 1.966s.262 1.461.785 1.966a2.592 2.592 0 0 0 1.862.757c.761 0 1.396-.253 1.904-.761.33-.33.52-.79.571-1.38h-2.475v-.82h3.303c.032.178.048.35.048.515" fill="#000"/><path d="M53.986 11.776h-.114c-.001.93-.273 1.652-.813 2.195h-.001v.002c-.622.649-1.42.972-2.423.973-.958-.001-1.76-.328-2.429-.99-.667-.663-.998-1.473-.999-2.457.001-.984.332-1.793 1-2.456.669-.663 1.47-.99 2.428-.991.473 0 .924.092 1.354.276.43.186.77.43 1.024.731l.087-.073-.08-.08-.6.6.081.08.088-.073c-.473-.566-1.136-.852-1.954-.85-.744 0-1.399.265-1.94.789-.547.525-.822 1.217-.82 2.047-.002.83.273 1.522.82 2.048.541.524 1.196.79 1.94.789.786.001 1.457-.266 1.984-.795.352-.353.552-.843.605-1.451l.01-.123h-2.486v-.592h3.19v-.114l-.112.02c.031.173.046.336.046.495h.227c0-.173-.016-.35-.05-.535l-.016-.093h-3.512v1.046h2.59v-.114l-.114-.01c-.05.572-.232 1.003-.539 1.31-.488.487-1.087.727-1.823.728a2.475 2.475 0 0 1-1.783-.724c-.5-.485-.75-1.103-.75-1.885s.25-1.4.75-1.884a2.475 2.475 0 0 1 1.783-.725c.768.002 1.348.256 1.78.768l.079.095.687-.687.073-.074-.067-.08c-.279-.332-.65-.596-1.108-.792a3.63 3.63 0 0 0-1.444-.295c-1.01-.001-1.882.354-2.589 1.056-.71.702-1.067 1.583-1.066 2.618-.001 1.035.357 1.917 1.067 2.619.706.702 1.578 1.056 2.588 1.056 1.052 0 1.924-.349 2.586-1.044l-.082-.079.08.08c.589-.588.881-1.382.88-2.355h-.113ZM59.222 8.928h-3.104v2.162h2.8v.819h-2.8v2.161h3.104v.838h-3.98V8.09h3.98v.837Z" fill="#000"/><path d="M59.222 8.928v-.113h-3.218v2.388h2.8v.592h-2.8v2.389h3.105v.61h-3.753v-6.59h3.753v.724h.113v-.113.113h.114v-.951h-4.207v7.044h4.207v-1.064H56.23v-1.934h2.8V10.976h-2.8V9.042h3.105v-.114h-.114M62.916 14.908h-.877v-5.98h-1.904v-.837h4.685v.837h-1.904v5.98Z" fill="#000"/><path d="M62.916 14.908v-.114h-.763v-5.98h-1.904v-.61h4.457v.61h-1.904v6.094h.114v-.114.114h.114V9.042h1.903V7.977h-4.911v1.065h1.904v5.98h1.104v-.114h-.114M68.209 14.908V8.09h.876v6.817h-.876Z" fill="#000"/><path d="M68.209 14.908h.114V8.205h.648v6.589h-.762v.114h.114-.114v.113h.989V7.977h-1.103v7.044h.114v-.113ZM72.97 14.908h-.877v-5.98H70.19v-.837h4.684v.837H72.97v5.98Z" fill="#000"/><path d="M72.97 14.908v-.114h-.763v-5.98h-1.904v-.61h4.457v.61h-1.904v6.094h.114v-.114.114h.113V9.042h1.904V7.977h-4.911v1.065h1.904v5.98h1.103v-.114h-.113M79.39 13.456c.504.51 1.122.766 1.852.766a2.5 2.5 0 0 0 1.851-.766c.505-.51.758-1.164.758-1.957 0-.793-.253-1.446-.758-1.956a2.5 2.5 0 0 0-1.851-.766c-.73 0-1.348.255-1.852.766-.504.51-.757 1.163-.757 1.956 0 .793.253 1.446.757 1.957Zm4.351.57c-.67.69-1.504 1.034-2.5 1.034s-1.83-.344-2.498-1.033c-.67-.689-1.004-1.531-1.004-2.528 0-.996.334-1.839 1.004-2.527.669-.69 1.502-1.034 2.499-1.034.99 0 1.821.346 2.495 1.038.672.692 1.008 1.533 1.008 2.523 0 .997-.335 1.84-1.004 2.528Z" fill="#000"/><path d="m79.39 13.456-.081.08a2.618 2.618 0 0 0 1.933.8 2.616 2.616 0 0 0 1.932-.8c.526-.532.791-1.22.79-2.037.002-.817-.263-1.505-.79-2.036a2.616 2.616 0 0 0-1.932-.8 2.618 2.618 0 0 0-1.933.8c-.526.531-.791 1.22-.79 2.036-.001.817.264 1.505.79 2.037l.08-.08.081-.08c-.482-.49-.722-1.107-.723-1.877 0-.77.241-1.386.723-1.877.487-.49 1.068-.73 1.772-.732.703.002 1.285.242 1.77.732.483.49.724 1.108.725 1.877 0 .77-.242 1.387-.725 1.877-.485.49-1.067.731-1.77.732-.704-.001-1.285-.242-1.772-.732l-.08.08Zm4.351.57-.081-.078c-.652.667-1.448.997-2.418.998-.971-.001-1.768-.33-2.418-.998l-.003-.004.003.004c-.65-.67-.97-1.478-.972-2.449.001-.97.322-1.778.972-2.448.65-.668 1.447-.998 2.418-1 .963.002 1.758.334 2.413 1.005.653.673.975 1.479.977 2.443-.002.971-.323 1.779-.972 2.449l.081.079.082.079c.688-.708 1.037-1.585 1.036-2.607 0-1.016-.349-1.891-1.04-2.602-.693-.713-1.56-1.074-2.577-1.072-1.023-.002-1.893.357-2.58 1.068-.69.707-1.038 1.585-1.037 2.606 0 1.022.346 1.9 1.036 2.607l.003.003-.003-.003c.688.71 1.558 1.068 2.58 1.068 1.023 0 1.892-.358 2.582-1.068l-.082-.08M85.975 14.908V8.09h1.066l3.312 5.303h.038l-.038-1.314V8.091h.877v6.817h-.914l-3.466-5.56h-.038l.038 1.314v4.246h-.875Z" fill="#000"/><path d="M85.975 14.908h.113V8.205h.89l3.312 5.303H90.508l-.04-1.43V8.206h.648v6.589h-.737l-3.466-5.56H86.695l.041 1.43v4.13h-.761v.114h.113-.113v.113h.988v-4.36l-.037-1.316-.114.003v.113h.038v-.113l-.097.06 3.5 5.613h1.091V7.977H90.24v4.105l.038 1.315.113-.003v-.114h-.038v.114l.097-.06-3.346-5.357H85.86v7.044h.114v-.113ZM121.603 34.221h2.12V20.02h-2.12V34.22Zm19.095-9.086-2.43 6.157h-.073l-2.522-6.157h-2.284l3.782 8.606-2.156 4.787h2.212l5.828-13.393h-2.357Zm-12.023 7.473c-.695 0-1.663-.347-1.663-1.206 0-1.096 1.207-1.517 2.247-1.517.933 0 1.371.201 1.937.476a2.57 2.57 0 0 1-2.521 2.247Zm.256-7.784c-1.535 0-3.124.676-3.782 2.175l1.881.785c.403-.785 1.151-1.041 1.937-1.041 1.097 0 2.211.658 2.229 1.827v.146c-.384-.22-1.205-.548-2.21-.548-2.028 0-4.094 1.114-4.094 3.197 0 1.9 1.664 3.125 3.527 3.125 1.426 0 2.211-.64 2.705-1.388h.072v1.096h2.047v-5.446c0-2.52-1.882-3.928-4.312-3.928Zm-13.101 2.04h-3.016v-4.869h3.016c1.584 0 2.484 1.313 2.484 2.434 0 1.101-.9 2.435-2.484 2.435Zm-.055-6.845h-5.079V34.22h2.118v-5.38h2.961c2.35 0 4.659-1.702 4.659-4.412s-2.309-4.41-4.659-4.41Zm-27.7 12.592c-1.464 0-2.69-1.226-2.69-2.91 0-1.703 1.226-2.947 2.69-2.947 1.447 0 2.581 1.244 2.581 2.946 0 1.684-1.134 2.91-2.58 2.91Zm2.435-6.681h-.073c-.476-.567-1.391-1.08-2.544-1.08-2.416 0-4.63 2.123-4.63 4.85 0 2.71 2.214 4.814 4.63 4.814 1.153 0 2.068-.513 2.544-1.098h.073v.696c0 1.849-.988 2.837-2.58 2.837-1.3 0-2.105-.934-2.435-1.72l-1.849.768c.531 1.281 1.94 2.855 4.284 2.855 2.489 0 4.593-1.464 4.593-5.033v-8.676H90.51v.787Zm3.478 8.291h2.123V20.018h-2.123v14.203Zm5.253-4.685c-.055-1.867 1.446-2.819 2.525-2.819.843 0 1.556.42 1.794 1.025l-4.32 1.794Zm6.589-1.61c-.402-1.081-1.629-3.076-4.137-3.076-2.49 0-4.557 1.959-4.557 4.832 0 2.71 2.05 4.832 4.795 4.832 2.215 0 3.497-1.354 4.027-2.141l-1.647-1.099c-.549.806-1.3 1.337-2.38 1.337-1.08 0-1.848-.495-2.343-1.464l6.461-2.673-.219-.549Zm-51.475-1.593v2.05h4.905c-.146 1.153-.53 1.995-1.116 2.58-.714.714-1.83 1.501-3.789 1.501-3.02 0-5.38-2.434-5.38-5.454 0-3.02 2.36-5.455 5.38-5.455 1.63 0 2.819.641 3.697 1.465l1.446-1.446c-1.226-1.172-2.855-2.068-5.143-2.068-4.136 0-7.614 3.367-7.614 7.504s3.477 7.504 7.614 7.504c2.233 0 3.917-.732 5.235-2.105 1.354-1.354 1.775-3.258 1.775-4.795 0-.476-.036-.915-.11-1.281h-6.9Zm12.587 6.278c-1.465 0-2.728-1.208-2.728-2.929 0-1.739 1.263-2.928 2.728-2.928 1.464 0 2.727 1.19 2.727 2.928 0 1.72-1.263 2.929-2.727 2.929Zm0-7.76c-2.673 0-4.85 2.03-4.85 4.831 0 2.782 2.177 4.832 4.85 4.832 2.672 0 4.85-2.05 4.85-4.832 0-2.8-2.178-4.832-4.85-4.832Zm10.58 7.76c-1.463 0-2.727-1.208-2.727-2.929 0-1.739 1.264-2.928 2.728-2.928 1.464 0 2.727 1.19 2.727 2.928 0 1.72-1.263 2.929-2.727 2.929Zm0-7.76c-2.672 0-4.85 2.03-4.85 4.831 0 2.782 2.178 4.832 4.85 4.832 2.673 0 4.85-2.05 4.85-4.832 0-2.8-2.177-4.832-4.85-4.832Z" fill="#000"/><path d="m12.054 36.936-.085-.08c-.33-.35-.525-.894-.525-1.597v.165-25.131V10.465c0-.762.227-1.336.608-1.68l14.076 14.076-14.074 14.075Zm-.61-26.645Zm.004-.186v-.002.002Zm0-.008v-.001.001Z" fill="url('#paint0_linear_14_175')"/><path d="m30.82 27.721.107-.06 5.559-3.16c.53-.3.883-.666 1.059-1.052-.176.386-.53.752-1.06 1.053l-5.558 3.159-.107.06Zm.001-.166-4.693-4.694 4.693-4.692 5.665 3.218c.719.409 1.123.935 1.19 1.474v.002c-.067.537-.471 1.064-1.19 1.473l-5.665 3.219" fill="url('#paint1_linear_14_175')"/><path d="M13.057 37.472a1.464 1.464 0 0 0 0 0Zm0-.166a1.46 1.46 0 0 1-1.003-.37L26.128 22.86l4.693 4.694-16.49 9.37c-.457.258-.89.38-1.273.38ZM12.05 37.1a1.584 1.584 0 0 1-.074-.072l.074.072Z" fill="url('#paint2_linear_14_175')"/><path d="M26.128 22.861 12.052 8.786c.268-.241.61-.37 1.003-.37.386 0 .818.124 1.275.383l16.49 9.37-4.692 4.692Zm4.799-4.798L14.33 8.633c-.457-.26-.89-.382-1.275-.382h-.005.007c.384 0 .817.122 1.273.381l16.597 9.43Z" fill="url('#paint3_linear_14_175')"/><path d="M13.162 37.47c.357-.021.753-.144 1.168-.38l16.49-9.369-16.49 9.37c-.415.235-.81.358-1.168.378Zm-1.109-.367-.003-.003.003.003Zm-.077-.075-.007-.007.008.007Z" fill="#fff"/><path d="m30.82 27.721.107-.06-.107.06Z" fill="url('#paint4_linear_14_175')"/><path d="M13.058 37.472c-.393 0-.737-.128-1.004-.37l-.004-.002-.074-.072-.007-.007.085-.085c.267.242.61.37 1.004.37.384 0 .816-.123 1.272-.382l16.491-9.37.106.106-.107.061-16.49 9.37c-.415.235-.81.358-1.168.378l-.104.003" fill="url('#paint5_linear_14_175')"/><path d="M11.97 37.021c-.331-.35-.526-.893-.526-1.596 0 .703.195 1.246.525 1.596" fill="#fff"/><path d="M11.97 37.02c-.331-.35-.526-.892-.526-1.596v-.165c0 .703.195 1.246.525 1.596l.085.081-.085.085" fill="url('#paint6_linear_14_175')"/><path d="m11.97 37.02.083-.083-.084.084" fill="url('#paint7_linear_14_175')"/><path d="M37.545 23.449a1.41 1.41 0 0 1 0 0Z" fill="#fff"/><path d="m30.927 27.66-.106-.105 5.665-3.22c.719-.408 1.123-.935 1.19-1.472 0 .197-.044.394-.131.586-.176.386-.53.751-1.06 1.053l-5.558 3.158Z" fill="url('#paint8_linear_14_175')"/><path d="M37.676 22.861c0-.595-.397-1.189-1.19-1.64l-5.56-3.158 5.56 3.158c.794.45 1.191 1.046 1.19 1.64Z" fill="#404040"/><path d="M37.676 22.86c-.067-.538-.471-1.064-1.19-1.473l-5.665-3.218.105-.106 5.56 3.158c.793.451 1.19 1.045 1.19 1.64Z" fill="url('#paint9_linear_14_175')"/><path d="M11.444 10.293v-.002.002Zm.004-.185v-.003.003Zm0-.005v-.006.006Zm0-.007c.067-1.167.701-1.841 1.599-1.845-.39.002-.728.13-.994.369l-.003.003a1.558 1.558 0 0 0-.08.08c-.299.315-.487.787-.521 1.393Z" fill="#404040"/><path d="M11.444 10.465V10.291c0-.062.001-.123.004-.183v-.011c.035-.607.223-1.08.521-1.395l.084.084c-.382.344-.61.917-.61 1.679Zm.606-1.842.003-.003-.003.003Z" fill="url('#paint10_linear_14_175')"/><path d="m30.82 18.169-16.49-9.37c-.457-.26-.89-.382-1.275-.382-.392 0-.735.128-1.003.369l-.083-.084c.027-.027.053-.054.081-.08l.003-.002c.266-.24.605-.367.994-.37h.008c.386 0 .818.124 1.275.383l16.597 9.43-.106.106Z" fill="url('#paint11_linear_14_175')"/><defs><linearGradient id="paint0_linear_14_175" x1="24.88" y1="10.033" x2="5.814" y2="29.1" gradientUnits="userSpaceOnUse"><stop stop-color="#00A0FF"/><stop offset=".007" stop-color="#00A1FF"/><stop offset=".26" stop-color="#00BEFF"/><stop offset=".512" stop-color="#00D2FF"/><stop offset=".76" stop-color="#00DFFF"/><stop offset="1" stop-color="#00E3FF"/></linearGradient><linearGradient id="paint1_linear_14_175" x1="38.553" y1="22.862" x2="11.063" y2="22.862" gradientUnits="userSpaceOnUse"><stop stop-color="#FFE000"/><stop offset=".409" stop-color="#FFBD00"/><stop offset=".775" stop-color="orange"/><stop offset="1" stop-color="#FF9C00"/></linearGradient><linearGradient id="paint2_linear_14_175" x1="28.32" y1="25.469" x2="2.464" y2="51.325" gradientUnits="userSpaceOnUse"><stop stop-color="#FF3A44"/><stop offset="1" stop-color="#C31162"/></linearGradient><linearGradient id="paint3_linear_14_175" x1="8.404" y1=".339" x2="19.95" y2="11.884" gradientUnits="userSpaceOnUse"><stop stop-color="#32A071"/><stop offset=".069" stop-color="#2DA771"/><stop offset=".476" stop-color="#15CF74"/><stop offset=".801" stop-color="#06E775"/><stop offset="1" stop-color="#00F076"/></linearGradient><linearGradient id="paint4_linear_14_175" x1="38.542" y1="22.869" x2="11.091" y2="22.869" gradientUnits="userSpaceOnUse"><stop stop-color="#CCB300"/><stop offset=".409" stop-color="#CC9700"/><stop offset=".775" stop-color="#CC8400"/><stop offset="1" stop-color="#CC7D00"/></linearGradient><linearGradient id="paint5_linear_14_175" x1="28.32" y1="25.469" x2="2.464" y2="51.325" gradientUnits="userSpaceOnUse"><stop stop-color="#CC2E36"/><stop offset="1" stop-color="#9C0E4E"/></linearGradient><linearGradient id="paint6_linear_14_175" x1="24.88" y1="10.033" x2="5.814" y2="29.1" gradientUnits="userSpaceOnUse"><stop stop-color="#008DE0"/><stop offset=".007" stop-color="#008DE0"/><stop offset=".26" stop-color="#00A7E0"/><stop offset=".512" stop-color="#00B8E0"/><stop offset=".76" stop-color="#00C4E0"/><stop offset="1" stop-color="#00C7E0"/></linearGradient><linearGradient id="paint7_linear_14_175" x1="28.182" y1="25.566" x2="2.545" y2="51.205" gradientUnits="userSpaceOnUse"><stop stop-color="#E0333C"/><stop offset="1" stop-color="#AB0F56"/></linearGradient><linearGradient id="paint8_linear_14_175" x1="38.553" y1="22.862" x2="11.063" y2="22.862" gradientUnits="userSpaceOnUse"><stop stop-color="#E0C500"/><stop offset=".409" stop-color="#E0A600"/><stop offset=".775" stop-color="#E09100"/><stop offset="1" stop-color="#E08900"/></linearGradient><linearGradient id="paint9_linear_14_175" x1="38.553" y1="22.862" x2="11.063" y2="22.862" gradientUnits="userSpaceOnUse"><stop stop-color="#FFE840"/><stop offset=".409" stop-color="#FFCE40"/><stop offset=".775" stop-color="#FFBC40"/><stop offset="1" stop-color="#FFB540"/></linearGradient><linearGradient id="paint10_linear_14_175" x1="24.88" y1="10.034" x2="5.814" y2="29.1" gradientUnits="userSpaceOnUse"><stop stop-color="#40B8FF"/><stop offset=".007" stop-color="#40B9FF"/><stop offset=".26" stop-color="#40CEFF"/><stop offset=".512" stop-color="#40DDFF"/><stop offset=".76" stop-color="#40E7FF"/><stop offset="1" stop-color="#40EAFF"/></linearGradient><linearGradient id="paint11_linear_14_175" x1="8.404" y1=".339" x2="19.95" y2="11.884" gradientUnits="userSpaceOnUse"><stop stop-color="#65B895"/><stop offset=".069" stop-color="#62BD95"/><stop offset=".476" stop-color="#50DB97"/><stop offset=".801" stop-color="#44ED98"/><stop offset="1" stop-color="#40F498"/></linearGradient></defs></svg>