<svg width="89" height="106" viewBox="0 0 89 106" fill="none" xmlns="http://www.w3.org/2000/svg">
<path d="M27.9083 23.3041V10.3603C27.9083 5.38978 31.9378 1.36035 36.9083 1.36035H78.732C83.7026 1.36035 87.732 5.38979 87.732 10.3604V96.2293C87.732 101.2 83.7026 105.229 78.732 105.229H36.9083C31.9378 105.229 27.9083 101.2 27.9083 96.2293V75.0038" stroke="white" stroke-width="1.5"/>
<line x1="52.9957" y1="9.05908" x2="62.6443" y2="9.05908" stroke="white" stroke-linecap="round"/>
<line x1="47.902" y1="98.1045" x2="67.738" y2="98.1045" stroke="white" stroke-linecap="round"/>
<rect x="1.01794" y="23.6196" width="51.2866" height="51.2866" rx="7.25" stroke="white" stroke-width="1.5"/>
<path d="M27.9084 72.105V86.1768M27.9084 86.1768L22.3282 80.5966M27.9084 86.1768L33.4887 80.5966" stroke="#FBA403" stroke-width="1.5" stroke-linecap="round"/>
<path d="M86.9183 28.2993H68.3319C63.9136 28.2993 60.3319 31.881 60.3319 36.2993V62.2269C60.3319 66.6452 63.9136 70.2269 68.3319 70.2269H86.9183" stroke="#404040" stroke-width="1.5"/>
<path d="M17.1079 54.8789C17.0736 54.8789 17.0565 54.8575 17.0565 54.8148L17.0822 45.9968C17.0822 45.9625 17.0993 45.9454 17.1335 45.9454H19.7263C20.1884 45.9454 20.612 46.0609 20.997 46.292C21.3906 46.5145 21.703 46.8182 21.934 47.2033C22.1651 47.5798 22.2806 48.0077 22.2806 48.4869C22.2806 48.8035 22.2335 49.0901 22.1394 49.3468C22.0453 49.595 21.934 49.8089 21.8057 49.9886C21.6773 50.1597 21.5618 50.2881 21.4591 50.3737C21.9212 50.8871 22.1522 51.4904 22.1522 52.1835L22.1651 54.8148C22.1651 54.8575 22.1437 54.8789 22.1009 54.8789H20.6505C20.6162 54.8789 20.5991 54.8661 20.5991 54.8404V52.1835C20.5991 51.8754 20.4879 51.6102 20.2654 51.3877C20.0515 51.1566 19.7862 51.0411 19.4696 51.0411H18.6225L18.6096 54.8148C18.6096 54.8575 18.5925 54.8789 18.5583 54.8789H17.1079ZM18.6225 49.5009H19.7263C19.9916 49.5009 20.2269 49.4025 20.4323 49.2056C20.6376 49.0088 20.7403 48.7692 20.7403 48.4869C20.7403 48.213 20.6376 47.9777 20.4323 47.7809C20.2354 47.5841 20.0001 47.4857 19.7263 47.4857H18.6225V49.5009Z" fill="#FBA403"/>
<path d="M23.3128 54.8789C23.27 54.8789 23.2487 54.8575 23.2487 54.8148L23.2615 45.9968C23.2615 45.9625 23.2786 45.9454 23.3128 45.9454H24.7504C24.7846 45.9454 24.8017 45.9625 24.8017 45.9968L24.8146 54.8148C24.8146 54.8575 24.7975 54.8789 24.7632 54.8789H23.3128Z" fill="#FBA403"/>
<path d="M26.0078 54.8789C25.965 54.8789 25.9436 54.8575 25.9436 54.8148L25.9693 45.9968C25.9693 45.9625 25.9864 45.9454 26.0206 45.9454L28.4209 45.9326C28.8915 45.924 29.3194 46.0353 29.7044 46.2663C30.098 46.4973 30.4104 46.8097 30.6414 47.2033C30.8724 47.5884 30.988 48.0162 30.988 48.4869V52.1706C30.988 52.667 30.8682 53.1205 30.6286 53.5312C30.389 53.9334 30.0681 54.2543 29.6659 54.4939C29.2637 54.7335 28.8102 54.8575 28.3053 54.8661L26.0078 54.8789ZM27.5095 53.3002H28.3053C28.622 53.3002 28.8872 53.1889 29.1011 52.9664C29.3236 52.744 29.4349 52.4787 29.4349 52.1706V48.474C29.4349 48.2002 29.3322 47.9649 29.1268 47.7681C28.93 47.5627 28.6947 47.4643 28.4209 47.4728L27.5224 47.4857L27.5095 53.3002Z" fill="#FBA403"/>
<path d="M32.0492 54.8789C32.015 54.8789 31.9979 54.8575 31.9979 54.8148L32.0107 45.9968C32.0107 45.9625 32.0278 45.9454 32.062 45.9454H36.1822C36.2165 45.9454 36.2336 45.9668 36.2336 46.0096V47.4472C36.2336 47.4814 36.2165 47.4985 36.1822 47.4985H33.551V49.5009H36.1822C36.2165 49.5009 36.2336 49.518 36.2336 49.5522L36.2464 51.0026C36.2464 51.0368 36.2293 51.054 36.1951 51.054H33.551V53.3002H36.1951C36.2293 53.3002 36.2464 53.3216 36.2464 53.3643C36.2464 53.4071 36.2464 54.8276 36.2464 54.8276C36.2464 54.8618 36.2293 54.8789 36.1951 54.8789C36.1608 54.8789 32.0492 54.8789 32.0492 54.8789Z" fill="#FBA403"/>
<path d="M25.2528 42.4843L25.2567 42.3525C25.2592 42.2698 25.267 42.1794 25.2799 42.0812L25.3109 41.8525C25.3174 41.7983 25.3238 41.7492 25.3303 41.7052C25.2076 41.8396 25.1087 41.9442 25.0338 42.0192L24.8109 42.2362C24.3122 42.7026 24.0151 42.9358 23.9195 42.9358C23.7787 42.9358 23.6307 42.9055 23.4757 42.8447C23.3917 42.8112 23.3439 42.7763 23.3323 42.7401C23.3142 42.6949 23.3052 42.6335 23.3052 42.556C23.3052 42.4772 23.3077 42.4048 23.3129 42.3389C23.3181 42.2731 23.3245 42.2078 23.3323 42.1432C23.34 42.0773 23.3478 42.0147 23.3555 41.9552C23.3646 41.8945 23.3717 41.8415 23.3769 41.7963C23.3898 41.6943 23.3924 41.6432 23.3846 41.6432L22.6637 42.5289C22.3239 42.9281 22.1308 43.149 22.0842 43.1916C21.9848 43.2821 21.875 43.3273 21.7548 43.3273C21.6954 43.3273 21.6463 43.3124 21.6075 43.2827C21.5688 43.253 21.5494 43.2162 21.5494 43.1723C21.5494 43.0844 21.5862 42.9927 21.6598 42.8971L23.3807 40.7091L23.5823 40.4669C23.8226 40.184 23.9802 40.0425 24.0551 40.0425C24.1598 40.0425 24.2593 40.069 24.3536 40.1219C24.4376 40.1684 24.4854 40.2137 24.497 40.2576C24.5022 40.2744 24.4912 40.3526 24.464 40.4921L24.3962 40.8584C24.32 41.2666 24.2819 41.5302 24.2819 41.649C24.2819 41.7666 24.2954 41.8254 24.3226 41.8254C24.4104 41.8254 24.5797 41.6813 24.8303 41.3932L25.4582 40.6413C25.5964 40.4824 25.6882 40.392 25.7334 40.37C25.7463 40.3635 25.765 40.3603 25.7896 40.3603C25.8141 40.3603 25.8413 40.3635 25.871 40.37C25.902 40.3765 25.933 40.3849 25.964 40.3952C25.9963 40.4055 26.0273 40.4178 26.057 40.432C26.0867 40.4462 26.1132 40.4611 26.1365 40.4766C26.1869 40.5102 26.2114 40.5379 26.2101 40.5599C26.2101 40.5806 26.205 40.6264 26.1946 40.6975C26.1843 40.7673 26.1714 40.8525 26.1559 40.9533C26.0486 41.6213 25.9924 42.0088 25.9873 42.1161C25.9834 42.2233 25.9944 42.2905 26.0202 42.3176C26.0473 42.3448 26.0867 42.3583 26.1384 42.3583C26.2327 42.3583 26.3697 42.3021 26.5493 42.1897C26.6707 42.1135 26.7708 42.0754 26.8497 42.0754C26.9298 42.0754 26.9698 42.1135 26.9698 42.1897C26.9698 42.2685 26.9272 42.3641 26.8419 42.4765C26.7192 42.6393 26.5357 42.7866 26.2915 42.9184C26.0861 43.0282 25.891 43.0831 25.7063 43.0831C25.4039 43.0831 25.2528 42.8835 25.2528 42.4843Z" fill="#FBA403"/>
<path d="M27.7217 42.1316C27.7217 42.191 27.7611 42.2207 27.8399 42.2207C28.0001 42.2207 28.2727 42.0211 28.6578 41.6219L28.8457 41.432C28.9736 41.3067 29.0583 41.244 29.0996 41.244C29.1409 41.244 29.1778 41.2511 29.2101 41.2653C29.2424 41.2795 29.2708 41.2976 29.2953 41.3196C29.3457 41.3648 29.3709 41.4133 29.3709 41.4649C29.3709 41.5153 29.3651 41.5715 29.3535 41.6335C29.3431 41.6943 29.3263 41.7627 29.3031 41.839C29.2605 41.9811 29.1836 42.1716 29.0725 42.4106L28.993 42.5812L29.3225 42.2827L29.9969 41.7052C30.0653 41.6536 30.1222 41.6277 30.1674 41.6277C30.2656 41.6277 30.3147 41.6749 30.3147 41.7692C30.3147 41.8661 30.2514 41.9908 30.1248 42.1432C30.086 42.191 30.044 42.2356 29.9988 42.2769L29.5415 42.6742L28.65 43.4281C28.5712 43.4965 28.5118 43.5508 28.4717 43.5909C28.4239 43.6684 28.3864 43.7259 28.3593 43.7633C28.3335 43.8021 28.3076 43.8428 28.2818 43.8854C28.256 43.9293 28.2308 43.9668 28.2062 43.9978C28.1532 44.065 28.1003 44.0986 28.0473 44.0986C27.9917 44.0986 27.9381 44.076 27.8865 44.0308C27.7908 43.9468 27.743 43.8719 27.743 43.806C27.743 43.7401 27.7611 43.6632 27.7973 43.5754C27.8335 43.4888 27.8806 43.3893 27.9388 43.2769L28.3496 42.5192C28.1519 42.6975 27.9969 42.8157 27.8845 42.8738C27.7721 42.9307 27.6772 42.9681 27.5996 42.9862C27.5234 43.0056 27.442 43.0153 27.3555 43.0153C27.2702 43.0153 27.1953 42.9972 27.1307 42.961C27.0661 42.9261 27.0124 42.879 26.9698 42.8196C26.8871 42.702 26.8458 42.5489 26.8458 42.3603C26.8458 42.16 26.8962 41.9623 26.9969 41.7672C27.0938 41.576 27.2217 41.4223 27.3806 41.306C27.5486 41.182 27.7211 41.12 27.8981 41.12C28.0751 41.12 28.1636 41.1891 28.1636 41.3273C28.1636 41.4139 28.0899 41.5424 27.9427 41.713C27.7954 41.8822 27.7217 42.0218 27.7217 42.1316Z" fill="#FBA403"/>
<rect x="28.4825" y="48.5679" width="0.962182" height="0.920833" fill="#FBA403"/>
<rect x="27.5201" y="49.4888" width="0.962182" height="0.920833" fill="#FBA403"/>
<rect x="28.4825" y="50.4019" width="0.962182" height="0.920833" fill="#FBA403"/>
<rect x="27.5201" y="51.3228" width="0.962182" height="0.920833" fill="#FBA403"/>
<path fill-rule="evenodd" clip-rule="evenodd" d="M15.005 41.9493C13.643 41.9493 12.4209 42.7859 11.9281 44.0556L8.3571 53.256C7.51744 55.4193 9.11346 57.7508 11.434 57.7508H41.8885C44.2091 57.7508 45.8051 55.4193 44.9654 53.256L41.3945 44.0556C40.9017 42.7859 39.6795 41.9493 38.3175 41.9493H32.6989V41.2158H38.3175C39.9822 41.2158 41.4759 42.2383 42.0782 43.7902L45.6492 52.9906C46.6754 55.6347 44.7248 58.4843 41.8885 58.4843H11.434C8.59778 58.4843 6.64709 55.6347 7.67334 52.9906L11.2443 43.7902C11.8466 42.2383 13.3403 41.2158 15.005 41.2158H19.9133V41.9493H15.005Z" fill="#FBA403"/>
</svg>
