<svg width="142" height="46" viewBox="0 0 142 46" fill="none" xmlns="http://www.w3.org/2000/svg">
<path d="M9.82284 45.5799C9.45997 45.5799 9.10587 45.5752 8.74585 45.5671C8.00003 45.5574 7.25596 45.4925 6.51973 45.3729C5.83324 45.2547 5.16821 45.0347 4.54658 44.7203C3.93066 44.4086 3.36888 43.9998 2.88278 43.5096C2.38964 43.0252 1.97908 42.4634 1.66737 41.8464C1.35222 41.2254 1.13412 40.5598 1.02067 39.8727C0.898143 39.1344 0.831853 38.3879 0.822368 37.6396C0.814817 37.3884 0.804932 36.5521 0.804932 36.5521V9.03973C0.804932 9.03973 0.81546 8.21628 0.822427 7.97435C0.831509 7.22723 0.897414 6.48188 1.01957 5.74475C1.13324 5.05579 1.35151 4.38824 1.66682 3.76522C1.97739 3.14866 2.38567 2.58642 2.87584 2.10028C3.36545 1.60953 3.92903 1.19862 4.546 0.882538C5.1662 0.569171 5.82997 0.350791 6.51508 0.234715C7.25372 0.113909 8.00038 0.0485953 8.74878 0.0393222L9.82342 0.0247803H132.219L133.306 0.0399058C134.048 0.0487181 134.788 0.113449 135.52 0.233548C136.212 0.35108 136.883 0.570984 137.51 0.886028C138.746 1.52302 139.752 2.5308 140.386 3.76812C140.696 4.38685 140.911 5.04895 141.023 5.73196C141.147 6.47513 141.216 7.22634 141.23 7.97959C141.234 8.31688 141.234 8.67918 141.234 9.03973C141.243 9.48635 141.243 9.91145 141.243 10.34V35.2657C141.243 35.6984 141.243 36.1206 141.234 36.5463C141.234 36.9336 141.234 37.2884 141.229 37.6535C141.215 38.3933 141.147 39.1311 141.026 39.861C140.915 40.553 140.698 41.2239 140.383 41.85C140.069 42.4602 139.66 43.0172 139.173 43.5003C138.687 43.9931 138.124 44.4043 137.506 44.7181C136.881 45.0349 136.211 45.2556 135.52 45.3729C134.784 45.4931 134.04 45.5581 133.294 45.5671C132.945 45.5752 132.58 45.5799 132.225 45.5799L130.934 45.5823L9.82284 45.5799Z" fill="white"/>
<path d="M29.5359 22.6721C29.5492 21.6384 29.8238 20.6249 30.3341 19.7258C30.8444 18.8267 31.5738 18.0713 32.4545 17.5298C31.895 16.7308 31.157 16.0732 30.2989 15.6093C29.4408 15.1455 28.4864 14.888 27.5115 14.8575C25.4317 14.6392 23.4155 16.102 22.3557 16.102C21.2754 16.102 19.6437 14.8792 17.8866 14.9154C16.75 14.9521 15.6424 15.2826 14.6716 15.8747C13.7007 16.4667 12.8998 17.3002 12.3469 18.2938C9.95167 22.4408 11.7383 28.5356 14.0327 31.8877C15.1807 33.5292 16.5223 35.3627 18.2778 35.2977C19.9957 35.2264 20.6373 34.2022 22.7109 34.2022C24.7653 34.2022 25.3672 35.2977 27.1584 35.2563C29.0017 35.2264 30.1631 33.6076 31.2708 31.9506C32.0956 30.781 32.7303 29.4884 33.1514 28.1205C32.0804 27.6676 31.1665 26.9094 30.5236 25.9405C29.8807 24.9716 29.5372 23.8349 29.5359 22.6721Z" fill="black"/>
<path d="M26.1527 12.6521C27.1578 11.4456 27.6529 9.89474 27.533 8.32898C25.9975 8.49026 24.5791 9.22414 23.5604 10.3844C23.0624 10.9512 22.6809 11.6106 22.4379 12.325C22.1948 13.0393 22.095 13.7945 22.144 14.5475C22.912 14.5554 23.6718 14.3889 24.3662 14.0606C25.0606 13.7323 25.6714 13.2507 26.1527 12.6521V12.6521Z" fill="black"/>
<path d="M50.1458 31.3057H44.5084L43.1546 35.3032H40.7668L46.1065 20.5135H48.5873L53.927 35.3032H51.4985L50.1458 31.3057ZM45.0923 29.4611H49.5609L47.358 22.9735H47.2963L45.0923 29.4611Z" fill="black"/>
<path d="M65.4586 29.912C65.4586 33.2628 63.6652 35.4156 60.9587 35.4156C60.2731 35.4515 59.5913 35.2935 58.9913 34.9599C58.3913 34.6262 57.8973 34.1304 57.566 33.5291H57.5148V38.8699H55.3015V24.52H57.4439V26.3134H57.4846C57.8311 25.715 58.3334 25.2217 58.938 24.886C59.5425 24.5503 60.2268 24.3848 60.918 24.4071C63.6547 24.4072 65.4586 26.5705 65.4586 29.912ZM63.1837 29.912C63.1837 27.7289 62.0555 26.2936 60.3341 26.2936C58.643 26.2936 57.5056 27.7591 57.5056 29.912C57.5056 32.0846 58.643 33.5396 60.3341 33.5396C62.0555 33.5396 63.1836 32.1148 63.1836 29.912H63.1837Z" fill="black"/>
<path d="M77.3274 29.912C77.3274 33.2628 75.5333 35.4156 72.8269 35.4156C72.1413 35.4515 71.4594 35.2935 70.8594 34.9599C70.2594 34.6262 69.7655 34.1304 69.4342 33.5291H69.383V38.8699H67.1697V24.52H69.312V26.3134H69.3528C69.6993 25.715 70.2015 25.2217 70.8061 24.886C71.4107 24.5503 72.095 24.3848 72.7861 24.4071C75.5229 24.4072 77.3274 26.5705 77.3274 29.912ZM75.0518 29.912C75.0518 27.7289 73.9236 26.2936 72.2023 26.2936C70.5112 26.2936 69.3737 27.7591 69.3737 29.912C69.3737 32.0846 70.5112 33.5396 72.2023 33.5396C73.9236 33.5396 75.0518 32.1148 75.0518 29.912V29.912Z" fill="black"/>
<path d="M85.17 31.1824C85.334 32.6491 86.7588 33.612 88.7057 33.612C90.5713 33.612 91.9135 32.649 91.9135 31.3266C91.9135 30.1786 91.104 29.4913 89.1873 29.0202L87.2705 28.5585C84.5548 27.9025 83.294 26.6324 83.294 24.5715C83.294 22.0197 85.5178 20.267 88.6743 20.267C91.8007 20.267 93.9431 22.0197 94.0152 24.5715H91.7809C91.6471 23.0956 90.4271 22.2046 88.6441 22.2046C86.8611 22.2046 85.641 23.106 85.641 24.418C85.641 25.4636 86.4203 26.0788 88.3266 26.5498L89.956 26.9499C92.9905 27.6675 94.2501 28.8865 94.2501 31.0497C94.2501 33.8167 92.0472 35.5497 88.5417 35.5497C85.2618 35.5497 83.0474 33.8574 82.9043 31.1823L85.17 31.1824Z" fill="black"/>
<path d="M99.0292 21.9695V24.5213H101.08V26.274H99.0292V32.2184C99.0292 33.1419 99.4397 33.5723 100.341 33.5723C100.585 33.568 100.828 33.5509 101.069 33.5211V35.2633C100.664 35.3391 100.252 35.3733 99.8398 35.3657C97.6567 35.3657 96.8054 34.5457 96.8054 32.4545V26.274H95.2375V24.5213H96.8053V21.9695H99.0292Z" fill="black"/>
<path d="M102.266 29.9131C102.266 26.5205 104.264 24.3885 107.38 24.3885C110.506 24.3885 112.495 26.5204 112.495 29.9131C112.495 33.3151 110.517 35.4377 107.38 35.4377C104.244 35.4377 102.266 33.3151 102.266 29.9131ZM110.24 29.9131C110.24 27.5858 109.174 26.2122 107.38 26.2122C105.587 26.2122 104.52 27.5963 104.52 29.9131C104.52 32.2497 105.587 33.6129 107.38 33.6129C109.174 33.6129 110.24 32.2497 110.24 29.9131H110.24Z" fill="black"/>
<path d="M114.32 24.5199H116.431V26.3552H116.482C116.625 25.782 116.961 25.2754 117.433 24.9206C117.906 24.5658 118.486 24.3845 119.076 24.407C119.331 24.4061 119.585 24.4338 119.834 24.4896V26.5599C119.512 26.4615 119.176 26.4163 118.84 26.4261C118.518 26.4131 118.198 26.4698 117.9 26.5923C117.603 26.7148 117.335 26.9003 117.116 27.136C116.897 27.3717 116.731 27.652 116.631 27.9577C116.53 28.2634 116.497 28.5872 116.533 28.9069V35.3027H114.32L114.32 24.5199Z" fill="black"/>
<path d="M130.039 32.1369C129.741 34.0944 127.835 35.4377 125.396 35.4377C122.259 35.4377 120.312 33.336 120.312 29.9643C120.312 26.5821 122.27 24.3885 125.303 24.3885C128.286 24.3885 130.162 26.4379 130.162 29.7073V30.4656H122.547V30.5993C122.511 30.9962 122.561 31.3959 122.692 31.7721C122.823 32.1483 123.033 32.4922 123.308 32.7811C123.582 33.0699 123.915 33.2971 124.284 33.4476C124.652 33.598 125.049 33.6682 125.447 33.6536C125.97 33.7026 126.495 33.5814 126.944 33.3082C127.392 33.0349 127.741 32.6241 127.937 32.1369L130.039 32.1369ZM122.557 28.9187H127.948C127.968 28.5619 127.914 28.2048 127.789 27.8699C127.664 27.535 127.472 27.2295 127.223 26.9725C126.975 26.7155 126.676 26.5126 126.346 26.3766C126.015 26.2406 125.66 26.1743 125.303 26.182C124.943 26.1799 124.585 26.2491 124.252 26.3858C123.918 26.5224 123.615 26.7238 123.36 26.9782C123.104 27.2326 122.902 27.5351 122.764 27.8682C122.627 28.2012 122.556 28.5583 122.557 28.9187V28.9187Z" fill="black"/>
</svg>
