<svg width="48" height="33" viewBox="0 0 48 33" fill="none" xmlns="http://www.w3.org/2000/svg">
<rect y="0.5" width="48" height="32" rx="4" fill="white"/>
<path d="M24 21L24.8044 20.2164L21.6656 17.0625L28.5 17.0625L28.5 15.9375L21.6656 15.9375L24.8044 12.8027L24 12L19.5 16.5L24 21Z" fill="#242424"/>
<path d="M24 8.625C25.5575 8.625 27.0801 9.08686 28.3751 9.95217C29.6702 10.8175 30.6795 12.0474 31.2755 13.4864C31.8716 14.9253 32.0275 16.5087 31.7237 18.0363C31.4198 19.5639 30.6698 20.9671 29.5685 22.0685C28.4671 23.1698 27.0639 23.9198 25.5363 24.2237C24.0087 24.5275 22.4253 24.3716 20.9864 23.7755C19.5474 23.1795 18.3175 22.1701 17.4522 20.8751C16.5869 19.5801 16.125 18.0575 16.125 16.5C16.1274 14.4121 16.9578 12.4105 18.4342 10.9342C19.9105 9.45783 21.9121 8.62738 24 8.625ZM24 23.25C25.335 23.25 26.6401 22.8541 27.7501 22.1124C28.8601 21.3707 29.7253 20.3165 30.2362 19.0831C30.7471 17.8497 30.8807 16.4925 30.6203 15.1831C30.3598 13.8738 29.717 12.671 28.773 11.727C27.829 10.783 26.6262 10.1401 25.3169 9.8797C24.0075 9.61925 22.6503 9.75292 21.4169 10.2638C20.1835 10.7747 19.1293 11.6399 18.3876 12.7499C17.6459 13.8599 17.25 15.165 17.25 16.5C17.2521 18.2896 17.9639 20.0052 19.2293 21.2707C20.4947 22.5361 22.2104 23.2479 24 23.25Z" fill="#242424"/>
</svg>
