<svg width="83" height="8" viewBox="0 0 83 8" fill="none" xmlns="http://www.w3.org/2000/svg">
<path d="M2.7246 0.437751C3.18863 0.404452 3.65426 0.474554 4.08791 0.642998C4.52156 0.811442 4.91243 1.07403 5.23231 1.41182C5.55219 1.74962 5.79311 2.15419 5.9377 2.59637C6.08229 3.03855 6.12694 3.5073 6.06843 3.96883C6.06843 6.23914 4.8414 7.54416 2.7246 7.54416H0.157715V0.437751H2.7246ZM1.26146 6.53916H2.60132C2.93289 6.55898 3.26471 6.50461 3.57263 6.38002C3.88054 6.25542 4.15681 6.06374 4.3813 5.81891C4.60579 5.57409 4.77286 5.28229 4.87036 4.96475C4.96786 4.64721 4.99332 4.31193 4.9449 3.98331C4.9898 3.65599 4.96176 3.32278 4.86277 3.00757C4.76378 2.69236 4.59629 2.40295 4.37231 2.16007C4.14833 1.91719 3.8734 1.72687 3.56722 1.60272C3.26104 1.47858 2.9312 1.42369 2.60132 1.442H1.26146V6.53916Z" fill="black"/>
<path d="M7.3147 4.86169C7.28098 4.50926 7.3213 4.15367 7.43306 3.81773C7.54483 3.48179 7.72556 3.17291 7.96369 2.91092C8.20182 2.64892 8.49208 2.43959 8.81585 2.29634C9.13962 2.1531 9.48975 2.0791 9.84379 2.0791C10.1978 2.0791 10.548 2.1531 10.8717 2.29634C11.1955 2.43959 11.4858 2.64892 11.7239 2.91092C11.962 3.17291 12.1428 3.48179 12.2545 3.81773C12.3663 4.15367 12.4066 4.50926 12.3729 4.86169C12.4072 5.21449 12.3674 5.57057 12.2559 5.90705C12.1445 6.24353 11.9638 6.55297 11.7256 6.81548C11.4875 7.07799 11.197 7.28776 10.8729 7.43132C10.5488 7.57487 10.1983 7.64903 9.84379 7.64903C9.48933 7.64903 9.13878 7.57487 8.81469 7.43132C8.49059 7.28776 8.20012 7.07799 7.96193 6.81548C7.72374 6.55297 7.54311 6.24353 7.43165 5.90705C7.32018 5.57057 7.28034 5.21449 7.3147 4.86169V4.86169ZM11.2842 4.86169C11.2842 3.69921 10.762 3.01939 9.84553 3.01939C8.92555 3.01939 8.40802 3.69921 8.40802 4.8617C8.40802 6.0335 8.92558 6.70807 9.84553 6.70807C10.762 6.70806 11.2843 6.02883 11.2843 4.86169H11.2842Z" fill="black"/>
<path d="M19.0973 7.54455H17.9993L16.8909 3.59476H16.8072L15.7034 7.54455H14.616L13.1377 2.18164H14.2112L15.1719 6.27386H15.251L16.3536 2.18164H17.369L18.4715 6.27386H18.5553L19.5113 2.18164H20.5697L19.0973 7.54455Z" fill="black"/>
<path d="M21.8125 2.18107H22.8313V3.03301H22.9104C23.0446 2.72702 23.2709 2.47052 23.5578 2.29925C23.8447 2.12798 24.1778 2.05048 24.5108 2.07754C24.7718 2.05793 25.0338 2.09727 25.2775 2.19266C25.5211 2.28806 25.7402 2.43705 25.9185 2.62862C26.0968 2.82018 26.2296 3.0494 26.3073 3.29929C26.385 3.54918 26.4054 3.81334 26.3671 4.0722V7.54392H25.3087V4.33798C25.3087 3.47615 24.9342 3.04755 24.1514 3.04755C23.9743 3.0393 23.7974 3.06946 23.633 3.13595C23.4686 3.20244 23.3205 3.3037 23.1988 3.43279C23.0772 3.56187 22.9849 3.71573 22.9283 3.88381C22.8717 4.0519 22.8521 4.23023 22.8709 4.4066V7.54398H21.8125L21.8125 2.18107Z" fill="black"/>
<path d="M28.0537 0.0878906H29.1121V7.54432H28.0537V0.0878906Z" fill="black"/>
<path d="M30.5832 4.85984C30.5495 4.50738 30.5899 4.15177 30.7017 3.81582C30.8135 3.47986 30.9942 3.17098 31.2324 2.90898C31.4705 2.64698 31.7608 2.43764 32.0846 2.29439C32.4084 2.15115 32.7585 2.07715 33.1126 2.07715C33.4667 2.07715 33.8168 2.15115 34.1406 2.29439C34.4644 2.43764 34.7547 2.64698 34.9928 2.90898C35.231 3.17098 35.4118 3.47986 35.5235 3.81582C35.6353 4.15177 35.6757 4.50738 35.642 4.85984C35.6763 5.21265 35.6364 5.56873 35.5249 5.90521C35.4134 6.24169 35.2328 6.55113 34.9945 6.81363C34.7563 7.07613 34.4658 7.28589 34.1417 7.42944C33.8176 7.57299 33.4671 7.64715 33.1126 7.64715C32.7581 7.64715 32.4076 7.57299 32.0835 7.42944C31.7594 7.28589 31.4689 7.07613 31.2307 6.81363C30.9924 6.55113 30.8118 6.24169 30.7003 5.90521C30.5888 5.56873 30.5489 5.21265 30.5832 4.85984V4.85984ZM34.5528 4.85984C34.5528 3.69735 34.0305 3.01754 33.1141 3.01754C32.1941 3.01754 31.6765 3.69735 31.6765 4.85985C31.6765 6.03164 32.1941 6.70622 33.1141 6.70622C34.0306 6.70621 34.5528 6.02698 34.5528 4.85984H34.5528Z" fill="black"/>
<path d="M36.7568 6.02839C36.7568 5.06304 37.4756 4.50652 38.7515 4.42742L40.2042 4.34369V3.88079C40.2042 3.31437 39.8297 2.99453 39.1062 2.99453C38.5154 2.99453 38.106 3.21144 37.9885 3.5906H36.9639C37.072 2.66945 37.9385 2.07861 39.1551 2.07861C40.4996 2.07861 41.2579 2.74795 41.2579 3.88079V7.54504H40.2391V6.79137H40.1553C39.9854 7.06172 39.7467 7.28211 39.4637 7.43004C39.1807 7.57797 38.8635 7.64815 38.5445 7.6334C38.3193 7.65681 38.0918 7.6328 37.8765 7.56289C37.6612 7.49298 37.463 7.37873 37.2946 7.22751C37.1261 7.07629 36.9913 6.89146 36.8986 6.68493C36.806 6.47839 36.7577 6.25474 36.7568 6.02839V6.02839ZM40.2042 5.57014V5.12178L38.8946 5.20552C38.156 5.25494 37.821 5.50617 37.821 5.97895C37.821 6.46162 38.2397 6.74251 38.8155 6.74251C38.9842 6.75958 39.1546 6.74255 39.3166 6.69242C39.4786 6.64229 39.6288 6.56009 39.7584 6.45071C39.8879 6.34133 39.9942 6.207 40.0708 6.05572C40.1473 5.90445 40.1927 5.73931 40.2042 5.57014V5.57014Z" fill="black"/>
<path d="M42.6484 4.86056C42.6484 3.16597 43.5196 2.09246 44.8746 2.09246C45.2097 2.07701 45.5424 2.15729 45.8336 2.3239C46.1248 2.49051 46.3626 2.73658 46.5191 3.03333H46.5982V0.0878906H47.6566V7.54433H46.6424V6.69702H46.5587C46.39 6.99178 46.144 7.23478 45.8471 7.39971C45.5503 7.56464 45.2139 7.64522 44.8746 7.63271C43.5103 7.63277 42.6484 6.55923 42.6484 4.86056ZM43.7418 4.86056C43.7418 5.99805 44.2779 6.68252 45.1747 6.68252C46.0667 6.68252 46.618 5.98817 46.618 4.86522C46.618 3.74751 46.0609 3.04327 45.1747 3.04327C44.2837 3.04327 43.7417 3.73238 43.7417 4.86056H43.7418Z" fill="black"/>
<path d="M52.0354 4.86169C52.0017 4.50926 52.042 4.15367 52.1538 3.81773C52.2655 3.48179 52.4463 3.17291 52.6844 2.91092C52.9225 2.64892 53.2128 2.43959 53.5365 2.29634C53.8603 2.1531 54.2105 2.0791 54.5645 2.0791C54.9185 2.0791 55.2687 2.1531 55.5924 2.29634C55.9162 2.43959 56.2065 2.64892 56.4446 2.91092C56.6827 3.17291 56.8635 3.48179 56.9752 3.81773C57.087 4.15367 57.1273 4.50926 57.0936 4.86169C57.128 5.21449 57.0881 5.57057 56.9766 5.90705C56.8652 6.24353 56.6845 6.55297 56.4464 6.81548C56.2082 7.07799 55.9177 7.28776 55.5936 7.43132C55.2695 7.57487 54.919 7.64903 54.5645 7.64903C54.21 7.64903 53.8595 7.57487 53.5354 7.43132C53.2113 7.28776 52.9208 7.07799 52.6826 6.81548C52.4444 6.55297 52.2638 6.24353 52.1523 5.90705C52.0409 5.57057 52.001 5.21449 52.0354 4.86169V4.86169ZM56.005 4.86169C56.005 3.69921 55.4827 3.01939 54.5662 3.01939C53.6463 3.01939 53.1287 3.69921 53.1287 4.8617C53.1287 6.0335 53.6463 6.70807 54.5662 6.70807C55.4827 6.70806 56.005 6.02883 56.005 4.86169Z" fill="black"/>
<path d="M58.5142 2.18107H59.533V3.03301H59.6121C59.7463 2.72702 59.9726 2.47052 60.2594 2.29925C60.5463 2.12798 60.8795 2.05048 61.2125 2.07754C61.4734 2.05793 61.7355 2.09727 61.9791 2.19266C62.2228 2.28806 62.4419 2.43705 62.6202 2.62862C62.7984 2.82018 62.9313 3.0494 63.009 3.29929C63.0866 3.54918 63.1071 3.81334 63.0688 4.0722V7.54392H62.0104V4.33798C62.0104 3.47615 61.6359 3.04755 60.8531 3.04755C60.6759 3.0393 60.4991 3.06946 60.3346 3.13595C60.1702 3.20244 60.0221 3.3037 59.9005 3.43279C59.7789 3.56187 59.6866 3.71573 59.63 3.88381C59.5734 4.0519 59.5538 4.23023 59.5726 4.4066V7.54398H58.5142V2.18107Z" fill="black"/>
<path d="M69.0491 0.846191V2.20582H70.211V3.09732H69.0491V5.85495C69.0491 6.41671 69.2806 6.6627 69.8074 6.6627C69.9423 6.66227 70.0771 6.65411 70.211 6.63827V7.51988C70.021 7.55388 69.8284 7.57197 69.6353 7.57396C68.4583 7.57396 67.9896 7.1599 67.9896 6.12594V3.09727H67.1382V2.20577H67.9896V0.846191H69.0491Z" fill="black"/>
<path d="M71.6567 0.0878906H72.7058V3.04325H72.7896C72.9303 2.73441 73.1628 2.47645 73.4554 2.30454C73.748 2.13262 74.0865 2.05511 74.4248 2.08256C74.6844 2.06843 74.9439 2.11177 75.1848 2.20948C75.4257 2.30719 75.6421 2.45687 75.8185 2.64783C75.9949 2.83879 76.127 3.06633 76.2053 3.31421C76.2837 3.5621 76.3064 3.82422 76.2717 4.08187V7.54433H75.2123V4.34297C75.2123 3.48637 74.8133 3.05254 74.0655 3.05254C73.8836 3.03763 73.7006 3.06263 73.5294 3.12582C73.3581 3.189 73.2028 3.28884 73.0742 3.41835C72.9455 3.54785 72.8468 3.70389 72.7848 3.87556C72.7228 4.04722 72.699 4.23037 72.7152 4.41217V7.54431H71.6568L71.6567 0.0878906Z" fill="black"/>
<path d="M82.4432 6.09564C82.2994 6.58578 81.9878 7.00975 81.563 7.29338C81.1382 7.57701 80.6272 7.70224 80.1194 7.64717C79.766 7.6565 79.4149 7.58882 79.0904 7.44885C78.7658 7.30887 78.4756 7.09995 78.2399 6.83658C78.0042 6.57321 77.8286 6.2617 77.7254 5.92367C77.6221 5.58564 77.5937 5.2292 77.642 4.87907C77.595 4.52787 77.6239 4.17066 77.7269 3.83162C77.8299 3.49258 78.0046 3.17962 78.239 2.91395C78.4735 2.64827 78.7623 2.43607 79.0859 2.29172C79.4095 2.14736 79.7604 2.07422 80.1147 2.07724C81.6069 2.07724 82.5071 3.09672 82.5071 4.78077V5.15008H78.7202V5.20939C78.7036 5.4062 78.7283 5.60429 78.7928 5.79098C78.8573 5.97767 78.96 6.14882 79.0945 6.29347C79.229 6.43813 79.3922 6.55308 79.5737 6.63097C79.7552 6.70885 79.9509 6.74795 80.1484 6.74576C80.4016 6.77615 80.6581 6.73057 80.8853 6.61479C81.1125 6.49902 81.3001 6.3183 81.4243 6.0956L82.4432 6.09564ZM78.7201 4.36732H81.4289C81.4423 4.18733 81.4178 4.00654 81.3571 3.83656C81.2964 3.66659 81.2009 3.51119 81.0765 3.38035C80.9522 3.24951 80.8019 3.14613 80.6352 3.07684C80.4686 3.00756 80.2893 2.9739 80.1088 2.97804C79.9258 2.97574 79.7441 3.01011 79.5746 3.07912C79.405 3.14813 79.251 3.25039 79.1216 3.37986C78.9921 3.50934 78.89 3.66341 78.821 3.833C78.7521 4.00259 78.7178 4.18427 78.7202 4.36732H78.7201Z" fill="black"/>
</svg>
