<svg width="86" height="106" fill="none" xmlns="http://www.w3.org/2000/svg"><path d="M13.088 23.304V10.36a9 9 0 0 1 9-9h41.824a9 9 0 0 1 9 9v12.944m-59.824 41.67V96.229a9 9 0 0 0 9 9h41.824a9 9 0 0 0 9-9V64.974M5.023 23.942h75.954a3.25 3.25 0 0 1 3.25 3.25V37.695a3.25 3.25 0 0 1-3.25 3.25H5.023a3.25 3.25 0 0 1-3.25-3.25V27.191a3.25 3.25 0 0 1 3.25-3.25ZM5.023 47.533h75.954a3.25 3.25 0 0 1 3.25 3.25v10.502a3.25 3.25 0 0 1-3.25 3.25H5.023a3.25 3.25 0 0 1-3.25-3.25V50.783a3.25 3.25 0 0 1 3.25-3.25Z" stroke="#fff" stroke-width="1.5"/><path d="M12.688 34.139a3.003 3.003 0 0 0-3.27-4.897 3 3 0 0 0-1.854 2.774c0 .796.317 1.56.88 2.123l.652.643.876.85.057.051a.855.855 0 0 0 1.132-.05l1.043-1.017.484-.477Zm-2.122-.838a1.286 1.286 0 1 1 0-2.573 1.286 1.286 0 0 1 0 2.573ZM12.688 57.73a3.003 3.003 0 0 0-3.27-4.897 3 3 0 0 0-1.854 2.774c0 .796.317 1.56.88 2.123l.652.642.876.852.057.05a.855.855 0 0 0 1.132-.05l1.043-1.017.484-.477Zm-2.122-.838a1.286 1.286 0 1 1 0-2.573 1.286 1.286 0 0 1 0 2.572Z" fill="#fff"/><path d="M21.516 70.15h42.968a3.25 3.25 0 0 1 3.25 3.25v10.502a3.25 3.25 0 0 1-3.25 3.25H21.516a3.25 3.25 0 0 1-3.25-3.25V73.4a3.25 3.25 0 0 1 3.25-3.25Z" stroke="#FBA403" stroke-width="1.5"/><path d="M24.107 78.65h37.541" stroke="#FBA403" stroke-width="1.5" stroke-linecap="round"/><path stroke="#fff" stroke-linecap="round" d="M38.176 9.059h9.648M33.082 98.105h19.836"/></svg>