<svg width="48" height="33" viewBox="0 0 48 33" fill="none" xmlns="http://www.w3.org/2000/svg">
<rect y="0.5" width="48" height="32" rx="4" fill="#FFED69"/>
<path d="M24 12L23.1956 12.7836L26.3344 15.9375H19.5V17.0625H26.3344L23.1956 20.1973L24 21L28.5 16.5L24 12Z" fill="#242424"/>
<path d="M24 24.375C22.4425 24.375 20.9199 23.9131 19.6249 23.0478C18.3299 22.1825 17.3205 20.9526 16.7245 19.5136C16.1284 18.0747 15.9725 16.4913 16.2763 14.9637C16.5802 13.4361 17.3302 12.0329 18.4315 10.9315C19.5329 9.8302 20.9361 9.08018 22.4637 8.77632C23.9913 8.47246 25.5747 8.62841 27.0136 9.22445C28.4526 9.82049 29.6825 10.8299 30.5478 12.1249C31.4131 13.4199 31.875 14.9425 31.875 16.5C31.8726 18.5879 31.0422 20.5895 29.5658 22.0658C28.0895 23.5422 26.0879 24.3726 24 24.375ZM24 9.75C22.665 9.75 21.3599 10.1459 20.2499 10.8876C19.1399 11.6293 18.2747 12.6835 17.7638 13.9169C17.2529 15.1503 17.1193 16.5075 17.3797 17.8169C17.6402 19.1262 18.283 20.329 19.227 21.273C20.171 22.217 21.3738 22.8599 22.6831 23.1203C23.9925 23.3808 25.3497 23.2471 26.5831 22.7362C27.8165 22.2253 28.8707 21.3601 29.6124 20.2501C30.3541 19.1401 30.75 17.835 30.75 16.5C30.7479 14.7104 30.0361 12.9948 28.7707 11.7293C27.5053 10.4639 25.7896 9.75209 24 9.75Z" fill="#242424"/>
</svg>
