<svg width="179" height="34" viewBox="0 0 179 34" fill="none" xmlns="http://www.w3.org/2000/svg">
<circle cx="162.368" cy="16.9062" r="16.1316" stroke="#A6A6A6"/>
<g clip-path="url(#clip0_60_1788)">
<path d="M163.415 16.2469C163.098 15.8028 162.577 15.511 161.994 15.511C161.41 15.511 160.89 15.8028 160.573 16.2469C160.37 16.5387 160.243 16.894 160.243 17.2747C160.243 18.239 161.029 19.0257 161.994 19.0257C162.958 19.0257 163.745 18.239 163.745 17.2747C163.745 16.894 163.618 16.5387 163.415 16.2469Z" fill="#A6A6A6"/>
<path d="M164.519 16.2595C164.646 16.5133 164.722 16.9193 164.722 17.2746C164.722 18.7718 163.504 20.0026 161.994 20.0026C160.484 20.0026 159.266 18.7845 159.266 17.2746C159.266 16.9066 159.342 16.5133 159.469 16.2595H157.934V20.3325C157.934 20.8654 158.403 21.3349 158.936 21.3349H165.052C165.585 21.3349 166.054 20.8654 166.054 20.3325V16.2595H164.519Z" fill="#A6A6A6"/>
<path d="M165.597 13.4426H164.125V15.1302H165.8V13.6583V13.4299L165.597 13.4426Z" fill="#A6A6A6"/>
<path d="M165.978 9.28101H158.01C155.802 9.28101 154 11.0828 154 13.2905V21.2715C154 23.4666 155.802 25.2683 158.01 25.2683H165.99C168.198 25.2683 170 23.4666 170 21.2588V13.2905C169.987 11.0828 168.186 9.28101 165.978 9.28101ZM166.942 16.2469V20.3326C166.942 21.3984 166.117 22.2231 165.052 22.2231H158.936C157.87 22.2231 157.045 21.3984 157.045 20.3326V16.2469V14.2168C157.045 13.151 157.87 12.3262 158.936 12.3262H165.052C166.117 12.3262 166.942 13.151 166.942 14.2168V16.2469Z" fill="#A6A6A6"/>
</g>
<circle cx="17.5788" cy="16.9065" r="16.1316" stroke="#A6A6A6"/>
<g clip-path="url(#clip1_60_1788)">
<path d="M14.1643 17.7965H15.9182V25.0168C15.9182 25.1594 16.0337 25.2749 16.1762 25.2749H19.15C19.2925 25.2749 19.408 25.1594 19.408 25.0168V17.8305H21.4242C21.5553 17.8305 21.6656 17.7321 21.6806 17.6019L21.9868 14.9438C21.9952 14.8706 21.9721 14.7974 21.9231 14.7425C21.8741 14.6876 21.8041 14.6562 21.7305 14.6562H19.4081V12.9899C19.4081 12.4876 19.6786 12.2329 20.2121 12.2329C20.2881 12.2329 21.7305 12.2329 21.7305 12.2329C21.8731 12.2329 21.9886 12.1173 21.9886 11.9748V9.53488C21.9886 9.39232 21.8731 9.27681 21.7305 9.27681H19.6379C19.6231 9.27609 19.5903 9.2749 19.542 9.2749C19.1789 9.2749 17.9168 9.34618 16.9199 10.2633C15.8153 11.2797 15.9688 12.4966 16.0055 12.7076V14.6561H14.1643C14.0218 14.6561 13.9062 14.7716 13.9062 14.9142V17.5384C13.9062 17.6809 14.0218 17.7965 14.1643 17.7965Z" fill="#A6A6A6"/>
</g>
<circle cx="65.842" cy="16.9062" r="16.1316" stroke="#A6A6A6"/>
<path d="M72.1314 13.2481C71.6533 13.4544 71.133 13.6028 70.5971 13.6606C71.1535 13.33 71.5702 12.8078 71.7689 12.1919C71.2468 12.5025 70.6748 12.7203 70.0783 12.8356C69.829 12.5691 69.5275 12.3568 69.1925 12.2119C68.8576 12.067 68.4964 11.9926 68.1314 11.9934C66.6549 11.9934 65.4674 13.1903 65.4674 14.659C65.4674 14.8653 65.4924 15.0715 65.533 15.27C63.3221 15.1544 61.3502 14.0981 60.0393 12.4809C59.8004 12.8889 59.6752 13.3535 59.6768 13.8262C59.6768 14.7512 60.1471 15.5669 60.8643 16.0465C60.4416 16.0299 60.0289 15.9137 59.6596 15.7075V15.7403C59.6596 17.0356 60.5752 18.109 61.7955 18.3559C61.5664 18.4154 61.3307 18.4459 61.0939 18.4465C60.9205 18.4465 60.7564 18.4294 60.5908 18.4059C60.9283 19.4622 61.9111 20.2294 63.0814 20.2544C62.1658 20.9715 61.0189 21.3934 59.7736 21.3934C59.5502 21.3934 59.3439 21.3856 59.1299 21.3606C60.3111 22.1184 61.7127 22.5559 63.2221 22.5559C68.1221 22.5559 70.8033 18.4965 70.8033 14.9731C70.8033 14.8575 70.8033 14.7419 70.7955 14.6262C71.3143 14.2465 71.7689 13.7762 72.1314 13.2481Z" fill="#A6A6A6"/>
<circle cx="114.105" cy="16.9062" r="16.1316" stroke="#A6A6A6"/>
<g clip-path="url(#clip2_60_1788)">
<path d="M116.416 14.8748C115.905 14.873 115.398 14.972 114.926 15.1662C114.453 15.3603 114.023 15.6457 113.661 16.0061C113.299 16.3665 113.011 16.7947 112.815 17.2664C112.618 17.738 112.516 18.2438 112.516 18.7548V22.6748C112.516 22.8339 112.579 22.9865 112.691 23.099C112.804 23.2116 112.956 23.2748 113.116 23.2748H114.516C114.675 23.2748 114.827 23.2116 114.94 23.099C115.052 22.9865 115.116 22.8339 115.116 22.6748V18.7548C115.115 18.573 115.154 18.3933 115.228 18.2273C115.302 18.0613 115.41 17.9128 115.545 17.7914C115.68 17.67 115.84 17.5785 116.013 17.5228C116.186 17.4671 116.368 17.4484 116.549 17.4681C116.873 17.5089 117.171 17.6672 117.386 17.913C117.601 18.1588 117.718 18.4749 117.716 18.8014V22.6748C117.716 22.8339 117.779 22.9865 117.891 23.099C118.004 23.2116 118.156 23.2748 118.316 23.2748H119.716C119.875 23.2748 120.027 23.2116 120.14 23.099C120.252 22.9865 120.316 22.8339 120.316 22.6748V18.7548C120.315 18.2438 120.213 17.738 120.017 17.2664C119.82 16.7947 119.532 16.3665 119.17 16.0061C118.808 15.6457 118.378 15.3603 117.906 15.1662C117.433 14.972 116.927 14.873 116.416 14.8748Z" fill="#A6A6A6"/>
<path d="M110.715 15.4746H108.915C108.584 15.4746 108.315 15.7432 108.315 16.0746V22.6746C108.315 23.006 108.584 23.2746 108.915 23.2746H110.715C111.047 23.2746 111.315 23.006 111.315 22.6746V16.0746C111.315 15.7432 111.047 15.4746 110.715 15.4746Z" fill="#A6A6A6"/>
<path d="M109.815 14.2747C110.644 14.2747 111.315 13.6031 111.315 12.7747C111.315 11.9462 110.644 11.2747 109.815 11.2747C108.987 11.2747 108.315 11.9462 108.315 12.7747C108.315 13.6031 108.987 14.2747 109.815 14.2747Z" fill="#A6A6A6"/>
</g>
<defs>
<clipPath id="clip0_60_1788">
<rect width="16" height="16" fill="white" transform="translate(154 9.27466)"/>
</clipPath>
<clipPath id="clip1_60_1788">
<rect width="16" height="16" fill="white" transform="translate(9.94727 9.2749)"/>
</clipPath>
<clipPath id="clip2_60_1788">
<rect width="16" height="16" fill="white" transform="translate(106.315 9.27466)"/>
</clipPath>
</defs>
</svg>
