<svg width="38" height="31" viewBox="0 0 38 31" fill="none" xmlns="http://www.w3.org/2000/svg">
<path d="M34.259 30.3716L3.79234 30.4999C1.77368 30.5116 0.105076 28.8547 0.0934075 26.836L6.12548e-05 4.32735C-0.0116073 2.30869 1.64533 0.640085 3.66399 0.628416L34.1306 0.500061C36.1493 0.488393 37.8179 2.14533 37.8295 4.16399L37.9229 26.6727C37.9346 28.703 36.2776 30.3716 34.259 30.3716Z" fill="#B2AEA9"/>
<path d="M14.6565 26.474C14.4931 26.474 14.3414 26.3923 14.2597 26.2406C14.143 26.0306 14.2364 25.7622 14.4464 25.6455C15.0765 25.3188 15.94 24.7004 16.4301 23.6502C17.0602 22.3083 16.8852 20.8497 16.6168 20.733C16.5468 20.698 16.2901 20.8381 16.1267 20.9197C15.7183 21.1298 15.1465 21.4215 14.4814 21.1998C13.828 20.9781 13.5129 20.4063 13.3613 20.1263C12.3578 18.3176 12.031 13.5919 13.0695 11.2348C13.4196 10.453 13.8863 9.98629 14.4698 9.84627C15.0649 9.70625 15.5549 9.95129 15.9517 10.1497C16.2784 10.313 16.4418 10.383 16.5351 10.3247C16.9435 10.0796 16.9318 8.5744 16.3484 7.3842C15.8467 6.33403 14.9832 5.72727 14.3414 5.40055C14.1314 5.29553 14.038 5.02716 14.1547 4.81712C14.2597 4.60709 14.5281 4.51374 14.7381 4.63042C15.4966 5.01548 16.5234 5.73894 17.1302 7.01081C17.737 8.27101 18.0287 10.4414 16.9785 11.0831C16.4534 11.4099 15.94 11.1532 15.5433 10.9431C15.2399 10.7914 14.9482 10.6397 14.6681 10.7097C14.2831 10.8031 14.0147 11.2465 13.863 11.5966C12.9529 13.6502 13.2329 18.1193 14.1197 19.7062C14.2714 19.9746 14.4464 20.2663 14.7615 20.3713C15.0532 20.4763 15.3332 20.348 15.73 20.1379C16.115 19.9396 16.5468 19.7179 17.0018 19.9396C17.982 20.4063 17.9237 22.5183 17.2236 24.0236C16.6285 25.3071 15.6016 26.0306 14.8432 26.4273C14.7965 26.4623 14.7265 26.474 14.6565 26.474Z" fill="#3D3D3C"/>
<path d="M13.2801 12.0285L5.39214 12.0635C5.1471 12.0635 4.94873 11.8651 4.94873 11.6317C4.94873 11.3867 5.1471 11.1883 5.38047 11.1883L13.2684 11.1533C13.5135 11.1533 13.7118 11.3517 13.7118 11.5851C13.7235 11.8301 13.5251 12.0285 13.2801 12.0285Z" fill="#3D3D3C"/>
<path d="M13.3145 19.9166L5.42657 19.9517C5.18153 19.9517 4.98315 19.7533 4.98315 19.5199C4.98315 19.2749 5.18152 19.0765 5.41489 19.0765L13.3028 19.0415C13.5479 19.0415 13.7462 19.2399 13.7462 19.4732C13.7462 19.7066 13.5595 19.9166 13.3145 19.9166Z" fill="#3D3D3C"/>
<path d="M23.8508 26.4396C23.7808 26.4396 23.7108 26.4279 23.6524 26.3929C22.894 26.0079 21.8671 25.2844 21.2604 24.0125C20.5369 22.519 20.4669 20.4069 21.4471 19.9285C21.9021 19.7068 22.3339 19.9285 22.7189 20.1152C23.1157 20.3136 23.3957 20.4419 23.6874 20.3369C24.0142 20.2202 24.2008 19.8702 24.3175 19.6601C25.181 18.0616 25.426 13.5925 24.5042 11.5505C24.3409 11.2004 24.0725 10.757 23.6874 10.6754C23.4541 10.617 23.3024 10.3836 23.3607 10.1503C23.419 9.9169 23.6524 9.76522 23.8858 9.82356C24.4692 9.96358 24.9476 10.4186 25.2977 11.2004C26.3595 13.5458 26.0678 18.2716 25.0877 20.0919C24.936 20.3719 24.6209 20.9554 23.9791 21.1771C23.314 21.4104 22.7423 21.1187 22.3339 20.9087C22.1705 20.827 21.9021 20.6987 21.8438 20.722C21.5754 20.8503 21.4237 22.3089 22.0655 23.6391C22.5672 24.6893 23.4307 25.2961 24.0725 25.6228C24.2825 25.7278 24.3759 25.9962 24.2592 26.2062C24.1658 26.3462 24.0142 26.4396 23.8508 26.4396Z" fill="#3D3D3C"/>
<path d="M22.0313 10.2433C21.8446 10.2433 21.6813 10.1266 21.6112 9.93991C20.6661 7.12779 22.8481 4.94576 23.5599 4.58403C23.7699 4.46735 24.0383 4.5607 24.155 4.77074C24.2717 4.98077 24.1783 5.24914 23.9683 5.36583C23.6532 5.52919 21.6463 7.2678 22.4514 9.65986C22.5331 9.89323 22.4047 10.1383 22.1713 10.22C22.1247 10.2316 22.078 10.2433 22.0313 10.2433Z" fill="#3D3D3C"/>
<path d="M32.9883 11.9469L25.1004 11.9819C24.8554 11.9819 24.657 11.7836 24.657 11.5502C24.657 11.3051 24.8554 11.1068 25.0887 11.1068L32.9767 11.0718C33.2217 11.0718 33.4201 11.2701 33.4201 11.5035C33.4317 11.7485 33.2334 11.9469 32.9883 11.9469Z" fill="#3D3D3C"/>
<path d="M33.0228 19.8346L25.1348 19.8696C24.8898 19.8696 24.6914 19.6713 24.6914 19.4379C24.6914 19.1928 24.8898 18.9945 25.1231 18.9945L33.0111 18.9595C33.2561 18.9595 33.4545 19.1578 33.4545 19.3912C33.4662 19.6363 33.2678 19.8346 33.0228 19.8346Z" fill="#3D3D3C"/>
</svg>
