<svg width="30" height="24" viewBox="0 0 30 24" fill="none" xmlns="http://www.w3.org/2000/svg">
<path d="M27.1015 23.8973L3.00004 24C1.40312 24.0093 0.0831233 22.6837 0.0738925 21.0688L4.84573e-05 3.06188C-0.00918228 1.44695 1.30158 0.112068 2.8985 0.102733L27 4.90038e-05C28.5969 -0.00928585 29.9169 1.31626 29.9261 2.93119L30 20.9381C30.0092 22.5624 28.6984 23.8973 27.1015 23.8973Z" fill="#B2AEA9"/>
<path d="M11.5954 20.7792C11.4661 20.7792 11.3461 20.7138 11.2815 20.5925C11.1892 20.4245 11.2631 20.2098 11.4292 20.1164C11.9277 19.855 12.6107 19.3603 12.9984 18.5201C13.4969 17.4466 13.3584 16.2798 13.1461 16.1864C13.0907 16.1584 12.8877 16.2704 12.7584 16.3358C12.4354 16.5038 11.9831 16.7372 11.4569 16.5598C10.94 16.3825 10.6908 15.9251 10.5708 15.701C9.77691 14.2541 9.51845 10.4735 10.34 8.58787C10.6169 7.96243 10.9861 7.58903 11.4477 7.47702C11.9184 7.365 12.3061 7.56103 12.62 7.71972C12.8784 7.85041 13.0077 7.90642 13.0815 7.85974C13.4046 7.66371 13.3954 6.45952 12.9338 5.50736C12.5369 4.66723 11.8538 4.18182 11.3461 3.92044C11.18 3.83643 11.1061 3.62172 11.1984 3.4537C11.2815 3.28567 11.4938 3.21099 11.66 3.30434C12.26 3.61239 13.0723 4.19115 13.5523 5.20865C14.0323 6.21681 14.2631 7.95309 13.4323 8.46651C13.0169 8.72788 12.6107 8.52252 12.2969 8.35449C12.0569 8.23314 11.8261 8.11178 11.6046 8.16779C11.3 8.24247 11.0877 8.5972 10.9677 8.87724C10.2477 10.5202 10.4692 14.0954 11.1708 15.365C11.2908 15.5797 11.4292 15.813 11.6784 15.897C11.9092 15.9811 12.1307 15.8784 12.4446 15.7104C12.7492 15.5517 13.0907 15.3743 13.4507 15.5517C14.2261 15.9251 14.18 17.6147 13.6261 18.8189C13.1554 19.8457 12.3431 20.4245 11.7431 20.7418C11.7061 20.7698 11.6507 20.7792 11.5954 20.7792Z" fill="#3D3D3C"/>
<path d="M10.5068 9.22306L4.26679 9.25107C4.07294 9.25107 3.91602 9.09237 3.91602 8.90567C3.91602 8.70964 4.07294 8.55095 4.25756 8.55095L10.4975 8.52295C10.6914 8.52295 10.8483 8.68164 10.8483 8.86833C10.8575 9.06437 10.7006 9.22306 10.5068 9.22306Z" fill="#3D3D3C"/>
<path d="M10.5331 15.5331L4.29316 15.5611C4.09931 15.5611 3.94238 15.4024 3.94238 15.2157C3.94238 15.0197 4.09931 14.861 4.28392 14.861L10.5239 14.833C10.7177 14.833 10.8747 14.9917 10.8747 15.1784C10.8747 15.3651 10.727 15.5331 10.5331 15.5331Z" fill="#3D3D3C"/>
<path d="M18.8681 20.7516C18.8127 20.7516 18.7573 20.7422 18.7111 20.7142C18.1112 20.4062 17.2989 19.8274 16.8189 18.8099C16.2465 17.6151 16.1912 15.9255 16.9665 15.5427C17.3265 15.3654 17.6681 15.5427 17.9727 15.6921C18.2865 15.8508 18.5081 15.9535 18.7388 15.8694C18.9973 15.7761 19.145 15.496 19.2373 15.328C19.9204 14.0491 20.1142 10.4739 19.385 8.8403C19.2558 8.56026 19.0435 8.20553 18.7388 8.14019C18.5542 8.09351 18.4342 7.90682 18.4804 7.72012C18.5265 7.53343 18.7112 7.41207 18.8958 7.45875C19.3573 7.57077 19.7358 7.93482 20.0127 8.56025C20.8527 10.4366 20.6219 14.2172 19.8465 15.6734C19.7265 15.8974 19.4773 16.3642 18.9696 16.5416C18.4435 16.7283 17.9912 16.4949 17.6681 16.3269C17.5388 16.2615 17.3265 16.1588 17.2804 16.1775C17.0681 16.2802 16.9481 17.447 17.4558 18.5112C17.8527 19.3513 18.5358 19.8368 19.0435 20.0981C19.2096 20.1821 19.2835 20.3968 19.1912 20.5649C19.1173 20.6769 18.9973 20.7516 18.8681 20.7516Z" fill="#3D3D3C"/>
<path d="M17.4292 7.79463C17.2815 7.79463 17.1523 7.70129 17.0969 7.55193C16.3492 5.30223 18.0753 3.55661 18.6384 3.26723C18.8046 3.17388 19.0169 3.24856 19.1092 3.41659C19.2015 3.58462 19.1276 3.79931 18.9615 3.89266C18.7123 4.02335 17.1246 5.41424 17.7615 7.32789C17.8261 7.51458 17.7246 7.71062 17.54 7.77596C17.503 7.7853 17.4661 7.79463 17.4292 7.79463Z" fill="#3D3D3C"/>
<path d="M26.0966 9.15763L19.8566 9.18564C19.6628 9.18564 19.5059 9.02694 19.5059 8.84024C19.5059 8.64421 19.6628 8.48552 19.8474 8.48552L26.0874 8.45752C26.2812 8.45752 26.4381 8.61621 26.4381 8.8029C26.4474 8.99894 26.2905 9.15763 26.0966 9.15763Z" fill="#3D3D3C"/>
<path d="M26.124 15.4677L19.884 15.4957C19.6901 15.4957 19.5332 15.337 19.5332 15.1503C19.5332 14.9543 19.6901 14.7956 19.8747 14.7956L26.1147 14.7676C26.3086 14.7676 26.4655 14.9263 26.4655 15.113C26.4747 15.309 26.3178 15.4677 26.124 15.4677Z" fill="#3D3D3C"/>
</svg>
