<svg width="89" height="106" viewBox="0 0 89 106" fill="none" xmlns="http://www.w3.org/2000/svg">
<path d="M27.9084 23.3041V10.3603C27.9084 5.38978 31.9379 1.36035 36.9084 1.36035H78.7322C83.7027 1.36035 87.7322 5.38979 87.7322 10.3604V96.2293C87.7322 101.2 83.7027 105.229 78.7322 105.229H36.9084C31.9379 105.229 27.9084 101.2 27.9084 96.2293V75.0038" stroke="white" stroke-width="1.5"/>
<line x1="52.9958" y1="9.05908" x2="62.6445" y2="9.05908" stroke="white" stroke-linecap="round"/>
<line x1="47.9021" y1="98.1045" x2="67.7382" y2="98.1045" stroke="white" stroke-linecap="round"/>
<rect x="1.01807" y="23.6196" width="51.2866" height="51.2866" rx="7.25" stroke="white" stroke-width="1.5"/>
<path d="M27.9086 72.105V86.1768M27.9086 86.1768L22.3284 80.5966M27.9086 86.1768L33.4888 80.5966" stroke="#FBA403" stroke-width="1.5" stroke-linecap="round"/>
<path d="M86.9184 28.2993H68.332C63.9138 28.2993 60.332 31.881 60.332 36.2993V62.2269C60.332 66.6452 63.9138 70.2269 68.332 70.2269H86.9184" stroke="#404040" stroke-width="1.5"/>
<path d="M17.108 54.8789C17.0738 54.8789 17.0566 54.8575 17.0566 54.8148L17.0823 45.9968C17.0823 45.9625 17.0994 45.9454 17.1337 45.9454H19.7264C20.1885 45.9454 20.6121 46.0609 20.9971 46.292C21.3908 46.5145 21.7031 46.8182 21.9341 47.2033C22.1652 47.5798 22.2807 48.0077 22.2807 48.4869C22.2807 48.8035 22.2336 49.0901 22.1395 49.3468C22.0454 49.595 21.9341 49.8089 21.8058 49.9886C21.6774 50.1597 21.5619 50.2881 21.4592 50.3737C21.9213 50.8871 22.1523 51.4904 22.1523 52.1835L22.1652 54.8148C22.1652 54.8575 22.1438 54.8789 22.101 54.8789H20.6506C20.6164 54.8789 20.5992 54.8661 20.5992 54.8404V52.1835C20.5992 51.8754 20.488 51.6102 20.2655 51.3877C20.0516 51.1566 19.7863 51.0411 19.4697 51.0411H18.6226L18.6097 54.8148C18.6097 54.8575 18.5926 54.8789 18.5584 54.8789H17.108ZM18.6226 49.5009H19.7264C19.9917 49.5009 20.227 49.4025 20.4324 49.2056C20.6378 49.0088 20.7404 48.7692 20.7404 48.4869C20.7404 48.213 20.6378 47.9777 20.4324 47.7809C20.2356 47.5841 20.0003 47.4857 19.7264 47.4857H18.6226V49.5009Z" fill="#FBA403"/>
<path d="M23.313 54.8789C23.2702 54.8789 23.2488 54.8575 23.2488 54.8148L23.2616 45.9968C23.2616 45.9625 23.2787 45.9454 23.313 45.9454H24.7505C24.7848 45.9454 24.8019 45.9625 24.8019 45.9968L24.8147 54.8148C24.8147 54.8575 24.7976 54.8789 24.7634 54.8789H23.313Z" fill="#FBA403"/>
<path d="M26.0079 54.8789C25.9651 54.8789 25.9437 54.8575 25.9437 54.8148L25.9694 45.9968C25.9694 45.9625 25.9865 45.9454 26.0207 45.9454L28.421 45.9326C28.8916 45.924 29.3195 46.0353 29.7045 46.2663C30.0982 46.4973 30.4105 46.8097 30.6415 47.2033C30.8726 47.5884 30.9881 48.0162 30.9881 48.4869V52.1706C30.9881 52.667 30.8683 53.1205 30.6287 53.5312C30.3891 53.9334 30.0682 54.2543 29.666 54.4939C29.2639 54.7335 28.8103 54.8575 28.3055 54.8661L26.0079 54.8789ZM27.5097 53.3002H28.3055C28.6221 53.3002 28.8873 53.1889 29.1013 52.9664C29.3238 52.744 29.435 52.4787 29.435 52.1706V48.474C29.435 48.2002 29.3323 47.9649 29.1269 47.7681C28.9301 47.5627 28.6948 47.4643 28.421 47.4728L27.5225 47.4857L27.5097 53.3002Z" fill="#FBA403"/>
<path d="M32.0493 54.8789C32.0151 54.8789 31.998 54.8575 31.998 54.8148L32.0108 45.9968C32.0108 45.9625 32.0279 45.9454 32.0622 45.9454H36.1824C36.2166 45.9454 36.2337 45.9668 36.2337 46.0096V47.4472C36.2337 47.4814 36.2166 47.4985 36.1824 47.4985H33.5511V49.5009H36.1824C36.2166 49.5009 36.2337 49.518 36.2337 49.5522L36.2465 51.0026C36.2465 51.0368 36.2294 51.054 36.1952 51.054H33.5511V53.3002H36.1952C36.2294 53.3002 36.2465 53.3216 36.2465 53.3643C36.2465 53.4071 36.2465 54.8276 36.2465 54.8276C36.2465 54.8618 36.2294 54.8789 36.1952 54.8789C36.161 54.8789 32.0493 54.8789 32.0493 54.8789Z" fill="#FBA403"/>
<path d="M25.253 42.4843L25.2568 42.3525C25.2594 42.2698 25.2672 42.1794 25.2801 42.0812L25.3111 41.8525C25.3176 41.7983 25.324 41.7492 25.3305 41.7052C25.2078 41.8396 25.1089 41.9442 25.034 42.0192L24.8111 42.2362C24.3124 42.7026 24.0153 42.9358 23.9197 42.9358C23.7788 42.9358 23.6309 42.9055 23.4759 42.8447C23.3919 42.8112 23.3441 42.7763 23.3325 42.7401C23.3144 42.6949 23.3053 42.6335 23.3053 42.556C23.3053 42.4772 23.3079 42.4048 23.3131 42.3389C23.3183 42.2731 23.3247 42.2078 23.3325 42.1432C23.3402 42.0773 23.348 42.0147 23.3557 41.9552C23.3648 41.8945 23.3719 41.8415 23.377 41.7963C23.39 41.6943 23.3925 41.6432 23.3848 41.6432L22.6639 42.5289C22.3241 42.9281 22.1309 43.149 22.0844 43.1916C21.985 43.2821 21.8751 43.3273 21.755 43.3273C21.6956 43.3273 21.6465 43.3124 21.6077 43.2827C21.5689 43.253 21.5496 43.2162 21.5496 43.1723C21.5496 43.0844 21.5864 42.9927 21.66 42.8971L23.3809 40.7091L23.5825 40.4669C23.8228 40.184 23.9804 40.0425 24.0553 40.0425C24.16 40.0425 24.2595 40.069 24.3538 40.1219C24.4377 40.1684 24.4855 40.2137 24.4972 40.2576C24.5023 40.2744 24.4914 40.3526 24.4642 40.4921L24.3964 40.8584C24.3202 41.2666 24.2821 41.5302 24.2821 41.649C24.2821 41.7666 24.2956 41.8254 24.3228 41.8254C24.4106 41.8254 24.5799 41.6813 24.8305 41.3932L25.4584 40.6413C25.5966 40.4824 25.6884 40.392 25.7336 40.37C25.7465 40.3635 25.7652 40.3603 25.7898 40.3603C25.8143 40.3603 25.8415 40.3635 25.8712 40.37C25.9022 40.3765 25.9332 40.3849 25.9642 40.3952C25.9965 40.4055 26.0275 40.4178 26.0572 40.432C26.0869 40.4462 26.1134 40.4611 26.1367 40.4766C26.1871 40.5102 26.2116 40.5379 26.2103 40.5599C26.2103 40.5806 26.2051 40.6264 26.1948 40.6975C26.1845 40.7673 26.1716 40.8525 26.1561 40.9533C26.0488 41.6213 25.9926 42.0088 25.9875 42.1161C25.9836 42.2233 25.9946 42.2905 26.0204 42.3176C26.0475 42.3448 26.0869 42.3583 26.1386 42.3583C26.2329 42.3583 26.3699 42.3021 26.5495 42.1897C26.6709 42.1135 26.771 42.0754 26.8498 42.0754C26.9299 42.0754 26.97 42.1135 26.97 42.1897C26.97 42.2685 26.9274 42.3641 26.8421 42.4765C26.7193 42.6393 26.5359 42.7866 26.2917 42.9184C26.0863 43.0282 25.8912 43.0831 25.7064 43.0831C25.4041 43.0831 25.253 42.8835 25.253 42.4843Z" fill="#FBA403"/>
<path d="M27.7219 42.1316C27.7219 42.191 27.7613 42.2207 27.8401 42.2207C28.0003 42.2207 28.2729 42.0211 28.6579 41.6219L28.8459 41.432C28.9738 41.3067 29.0584 41.244 29.0998 41.244C29.1411 41.244 29.178 41.2511 29.2102 41.2653C29.2425 41.2795 29.271 41.2976 29.2955 41.3196C29.3459 41.3648 29.3711 41.4133 29.3711 41.4649C29.3711 41.5153 29.3653 41.5715 29.3537 41.6335C29.3433 41.6943 29.3265 41.7627 29.3033 41.839C29.2606 41.9811 29.1838 42.1716 29.0727 42.4106L28.9932 42.5812L29.3227 42.2827L29.9971 41.7052C30.0655 41.6536 30.1224 41.6277 30.1676 41.6277C30.2658 41.6277 30.3149 41.6749 30.3149 41.7692C30.3149 41.8661 30.2516 41.9908 30.125 42.1432C30.0862 42.191 30.0442 42.2356 29.999 42.2769L29.5416 42.6742L28.6502 43.4281C28.5714 43.4965 28.5119 43.5508 28.4719 43.5909C28.4241 43.6684 28.3866 43.7259 28.3595 43.7633C28.3337 43.8021 28.3078 43.8428 28.282 43.8854C28.2561 43.9293 28.2309 43.9668 28.2064 43.9978C28.1534 44.065 28.1005 44.0986 28.0475 44.0986C27.9919 44.0986 27.9383 44.076 27.8866 44.0308C27.791 43.9468 27.7432 43.8719 27.7432 43.806C27.7432 43.7401 27.7613 43.6632 27.7975 43.5754C27.8337 43.4888 27.8808 43.3893 27.939 43.2769L28.3498 42.5192C28.1521 42.6975 27.9971 42.8157 27.8847 42.8738C27.7723 42.9307 27.6773 42.9681 27.5998 42.9862C27.5236 43.0056 27.4422 43.0153 27.3556 43.0153C27.2704 43.0153 27.1954 42.9972 27.1308 42.961C27.0662 42.9261 27.0126 42.879 26.97 42.8196C26.8873 42.702 26.846 42.5489 26.846 42.3603C26.846 42.16 26.8963 41.9623 26.9971 41.7672C27.094 41.576 27.2219 41.4223 27.3808 41.306C27.5488 41.182 27.7213 41.12 27.8983 41.12C28.0753 41.12 28.1638 41.1891 28.1638 41.3273C28.1638 41.4139 28.0901 41.5424 27.9428 41.713C27.7956 41.8822 27.7219 42.0218 27.7219 42.1316Z" fill="#FBA403"/>
<rect x="28.4827" y="48.5679" width="0.962182" height="0.920833" fill="#FBA403"/>
<rect x="27.5203" y="49.4888" width="0.962182" height="0.920833" fill="#FBA403"/>
<rect x="28.4827" y="50.4019" width="0.962182" height="0.920833" fill="#FBA403"/>
<rect x="27.5203" y="51.3228" width="0.962182" height="0.920833" fill="#FBA403"/>
<path fill-rule="evenodd" clip-rule="evenodd" d="M15.0051 41.9493C13.6431 41.9493 12.4209 42.7859 11.9281 44.0556L8.35716 53.256C7.5175 55.4193 9.11352 57.7508 11.4341 57.7508H41.8886C44.2091 57.7508 45.8052 55.4193 44.9655 53.256L41.3945 44.0556C40.9017 42.7859 39.6796 41.9493 38.3176 41.9493H32.699V41.2158H38.3176C39.9823 41.2158 41.476 42.2383 42.0783 43.7902L45.6493 52.9906C46.6755 55.6347 44.7248 58.4843 41.8886 58.4843H11.4341C8.59784 58.4843 6.64715 55.6347 7.6734 52.9906L11.2444 43.7902C11.8467 42.2383 13.3404 41.2158 15.0051 41.2158H19.9134V41.9493H15.0051Z" fill="#FBA403"/>
</svg>
