<svg width="96" height="106" viewBox="0 0 96 106" fill="none" xmlns="http://www.w3.org/2000/svg">
<path d="M14.2935 25.363V10.3603C14.2935 5.38979 18.3229 1.36035 23.2935 1.36035H65.1172C70.0877 1.36035 74.1172 5.38979 74.1172 10.3604V25.363M14.2935 70.974L14.2935 96.2293C14.2935 101.2 18.3229 105.229 23.2935 105.229H65.1172C70.0877 105.229 74.1172 101.2 74.1172 96.2293V70.974" stroke="white" stroke-width="1.5"/>
<line x1="39.3809" y1="9.05908" x2="49.0295" y2="9.05908" stroke="white" stroke-linecap="round"/>
<line x1="34.2871" y1="98.1045" x2="54.1232" y2="98.1045" stroke="white" stroke-linecap="round"/>
<path d="M84.9433 38.668V28.4902C84.9433 26.2811 83.1525 24.4902 80.9433 24.4902H4.98975C2.78061 24.4902 0.989746 26.2811 0.989746 28.4902V67.438C0.989746 69.6472 2.7806 71.438 4.98974 71.438H80.9433C83.1525 71.438 84.9433 69.6472 84.9433 67.438V57.3306" stroke="white" stroke-width="1.5"/>
<path d="M39.9678 18.705C39.9527 18.705 39.9451 18.6955 39.9451 18.6766L39.9565 14.7655C39.9565 14.7503 39.964 14.7427 39.9792 14.7427H41.1292C41.3342 14.7427 41.522 14.7939 41.6928 14.8964C41.8674 14.9951 42.0059 15.1298 42.1084 15.3006C42.2109 15.4676 42.2621 15.6574 42.2621 15.8699C42.2621 16.0104 42.2412 16.1375 42.1995 16.2514C42.1577 16.3614 42.1084 16.4563 42.0515 16.536C41.9945 16.6119 41.9433 16.6688 41.8978 16.7068C42.1027 16.9345 42.2052 17.2021 42.2052 17.5095L42.2109 18.6766C42.2109 18.6955 42.2014 18.705 42.1824 18.705H41.5391C41.5239 18.705 41.5163 18.6993 41.5163 18.688V17.5095C41.5163 17.3729 41.467 17.2552 41.3683 17.1565C41.2734 17.0541 41.1558 17.0028 41.0154 17.0028H40.6396L40.6339 18.6766C40.6339 18.6955 40.6263 18.705 40.6111 18.705H39.9678ZM40.6396 16.3197H41.1292C41.2469 16.3197 41.3512 16.276 41.4423 16.1887C41.5334 16.1014 41.579 15.9952 41.579 15.8699C41.579 15.7485 41.5334 15.6441 41.4423 15.5568C41.355 15.4695 41.2507 15.4259 41.1292 15.4259H40.6396V16.3197Z" fill="#FBA403"/>
<path d="M42.72 18.705C42.701 18.705 42.6915 18.6955 42.6915 18.6766L42.6972 14.7655C42.6972 14.7503 42.7048 14.7427 42.72 14.7427H43.3576C43.3728 14.7427 43.3803 14.7503 43.3803 14.7655L43.386 18.6766C43.386 18.6955 43.3784 18.705 43.3633 18.705H42.72Z" fill="#FBA403"/>
<path d="M43.9153 18.705C43.8963 18.705 43.8868 18.6955 43.8868 18.6766L43.8982 14.7655C43.8982 14.7503 43.9058 14.7427 43.921 14.7427L44.9855 14.737C45.1943 14.7332 45.3841 14.7826 45.5548 14.885C45.7294 14.9875 45.868 15.126 45.9704 15.3006C46.0729 15.4714 46.1241 15.6612 46.1241 15.8699V17.5038C46.1241 17.7239 46.071 17.9251 45.9647 18.1073C45.8585 18.2857 45.7161 18.428 45.5378 18.5342C45.3594 18.6405 45.1582 18.6955 44.9343 18.6993L43.9153 18.705ZM44.5813 18.0048H44.9343C45.0747 18.0048 45.1924 17.9555 45.2873 17.8568C45.386 17.7581 45.4353 17.6404 45.4353 17.5038V15.8642C45.4353 15.7428 45.3898 15.6384 45.2987 15.5511C45.2114 15.46 45.107 15.4164 44.9855 15.4202L44.587 15.4259L44.5813 18.0048Z" fill="#FBA403"/>
<path d="M46.5948 18.705C46.5797 18.705 46.5721 18.6955 46.5721 18.6766L46.5778 14.7655C46.5778 14.7503 46.5854 14.7427 46.6005 14.7427H48.428C48.4432 14.7427 48.4508 14.7522 48.4508 14.7712V15.4088C48.4508 15.424 48.4432 15.4316 48.428 15.4316H47.2609V16.3197H48.428C48.4432 16.3197 48.4508 16.3273 48.4508 16.3424L48.4565 16.9858C48.4565 17.0009 48.4489 17.0085 48.4337 17.0085H47.2609V18.0048H48.4337C48.4489 18.0048 48.4565 18.0143 48.4565 18.0333C48.4565 18.0522 48.4565 18.6823 48.4565 18.6823C48.4565 18.6974 48.4489 18.705 48.4337 18.705C48.4185 18.705 46.5948 18.705 46.5948 18.705Z" fill="#FBA403"/>
<path d="M43.5806 13.2075L43.5823 13.1491C43.5834 13.1124 43.5869 13.0723 43.5926 13.0288L43.6064 12.9273C43.6092 12.9033 43.6121 12.8815 43.615 12.862C43.5605 12.9216 43.5167 12.968 43.4834 13.0012L43.3846 13.0975C43.1634 13.3044 43.0316 13.4078 42.9892 13.4078C42.9268 13.4078 42.8611 13.3943 42.7924 13.3674C42.7551 13.3525 42.7339 13.337 42.7288 13.321C42.7207 13.3009 42.7167 13.2737 42.7167 13.2393C42.7167 13.2044 42.7179 13.1723 42.7202 13.1431C42.7225 13.1138 42.7253 13.0849 42.7288 13.0563C42.7322 13.027 42.7356 12.9992 42.7391 12.9729C42.7431 12.946 42.7462 12.9225 42.7485 12.9024C42.7543 12.8571 42.7554 12.8345 42.752 12.8345L42.4322 13.2273C42.2815 13.4044 42.1959 13.5024 42.1752 13.5213C42.1311 13.5614 42.0824 13.5814 42.0291 13.5814C42.0027 13.5814 41.981 13.5749 41.9638 13.5617C41.9466 13.5485 41.938 13.5322 41.938 13.5127C41.938 13.4737 41.9543 13.433 41.987 13.3906L42.7503 12.4202L42.8397 12.3128C42.9462 12.1873 43.0161 12.1245 43.0494 12.1245C43.0958 12.1245 43.1399 12.1363 43.1817 12.1598C43.219 12.1804 43.2402 12.2004 43.2454 12.2199C43.2476 12.2274 43.2428 12.262 43.2307 12.3239L43.2007 12.4864C43.1669 12.6675 43.1499 12.7844 43.1499 12.8371C43.1499 12.8892 43.156 12.9153 43.168 12.9153C43.207 12.9153 43.282 12.8514 43.3932 12.7236L43.6717 12.3901C43.733 12.3196 43.7737 12.2795 43.7937 12.2698C43.7995 12.2669 43.8078 12.2655 43.8187 12.2655C43.8296 12.2655 43.8416 12.2669 43.8548 12.2698C43.8685 12.2726 43.8823 12.2764 43.896 12.2809C43.9104 12.2855 43.9241 12.291 43.9373 12.2973C43.9505 12.3036 43.9622 12.3102 43.9725 12.317C43.9949 12.3319 44.0058 12.3443 44.0052 12.354C44.0052 12.3632 44.0029 12.3835 43.9983 12.415C43.9937 12.446 43.988 12.4838 43.9811 12.5285C43.9336 12.8248 43.9086 12.9967 43.9063 13.0442C43.9046 13.0918 43.9095 13.1216 43.921 13.1336C43.933 13.1457 43.9505 13.1517 43.9734 13.1517C44.0152 13.1517 44.076 13.1267 44.1556 13.0769C44.2095 13.0431 44.2539 13.0262 44.2888 13.0262C44.3244 13.0262 44.3421 13.0431 44.3421 13.0769C44.3421 13.1118 44.3232 13.1542 44.2854 13.2041C44.231 13.2763 44.1496 13.3416 44.0413 13.4001C43.9502 13.4488 43.8637 13.4731 43.7817 13.4731C43.6476 13.4731 43.5806 13.3846 43.5806 13.2075Z" fill="#FBA403"/>
<path d="M44.6756 13.0511C44.6756 13.0775 44.6931 13.0906 44.7281 13.0906C44.7991 13.0906 44.92 13.0021 45.0908 12.825L45.1742 12.7408C45.2309 12.6852 45.2684 12.6574 45.2868 12.6574C45.3051 12.6574 45.3214 12.6606 45.3358 12.6669C45.3501 12.6732 45.3627 12.6812 45.3736 12.691C45.3959 12.711 45.4071 12.7325 45.4071 12.7554C45.4071 12.7778 45.4045 12.8027 45.3994 12.8302C45.3948 12.8571 45.3873 12.8875 45.377 12.9213C45.3581 12.9843 45.324 13.0689 45.2747 13.1749L45.2395 13.2505L45.3856 13.1181L45.6847 12.862C45.7151 12.8391 45.7403 12.8276 45.7604 12.8276C45.8039 12.8276 45.8257 12.8485 45.8257 12.8904C45.8257 12.9333 45.7976 12.9886 45.7415 13.0563C45.7243 13.0775 45.7057 13.0972 45.6856 13.1156L45.4828 13.2918L45.0874 13.6261C45.0524 13.6565 45.026 13.6806 45.0083 13.6983C44.9871 13.7327 44.9705 13.7582 44.9584 13.7748C44.947 13.792 44.9355 13.8101 44.924 13.829C44.9126 13.8485 44.9014 13.8651 44.8905 13.8788C44.867 13.9086 44.8435 13.9235 44.82 13.9235C44.7954 13.9235 44.7716 13.9135 44.7487 13.8935C44.7063 13.8562 44.6851 13.823 44.6851 13.7937C44.6851 13.7645 44.6931 13.7304 44.7092 13.6915C44.7252 13.6531 44.7461 13.6089 44.7719 13.5591L44.9541 13.223C44.8665 13.3021 44.7977 13.3545 44.7478 13.3803C44.698 13.4055 44.6559 13.4221 44.6215 13.4302C44.5877 13.4388 44.5516 13.4431 44.5132 13.4431C44.4754 13.4431 44.4421 13.435 44.4135 13.419C44.3848 13.4035 44.361 13.3826 44.3421 13.3562C44.3055 13.3041 44.2871 13.2362 44.2871 13.1525C44.2871 13.0637 44.3095 12.976 44.3542 12.8895C44.3971 12.8047 44.4539 12.7365 44.5244 12.6849C44.5989 12.6299 44.6754 12.6024 44.7539 12.6024C44.8324 12.6024 44.8716 12.6331 44.8716 12.6944C44.8716 12.7328 44.839 12.7898 44.7736 12.8654C44.7083 12.9405 44.6756 13.0024 44.6756 13.0511Z" fill="#FBA403"/>
<rect x="45.0129" y="15.9058" width="0.426761" height="0.408421" fill="#FBA403"/>
<rect x="44.5862" y="16.3145" width="0.426761" height="0.408421" fill="#FBA403"/>
<rect x="45.0129" y="16.7192" width="0.426761" height="0.408421" fill="#FBA403"/>
<rect x="44.5862" y="17.1274" width="0.426761" height="0.408421" fill="#FBA403"/>
<path fill-rule="evenodd" clip-rule="evenodd" d="M39.0352 12.9702C38.4311 12.9702 37.889 13.3413 37.6704 13.9044L36.0866 17.9851C35.7142 18.9446 36.4221 19.9787 37.4513 19.9787H50.9589C51.9882 19.9787 52.6961 18.9446 52.3237 17.9851L50.7398 13.9044C50.5212 13.3413 49.9792 12.9702 49.3751 12.9702H46.883V12.6449H49.3751C50.1134 12.6449 50.7759 13.0984 51.0431 13.7867L52.6269 17.8674C53.0821 19.0402 52.2169 20.304 50.9589 20.304H37.4513C36.1934 20.304 35.3282 19.0402 35.7833 17.8674L37.3672 13.7867C37.6343 13.0984 38.2968 12.6449 39.0352 12.6449H41.2122V12.9702H39.0352Z" fill="#FBA403"/>
<line x1="31.8167" y1="61.3101" x2="38.1349" y2="61.3101" stroke="white" stroke-width="1.5" stroke-linecap="round"/>
<line x1="43.6348" y1="61.3101" x2="49.953" y2="61.3101" stroke="white" stroke-width="1.5" stroke-linecap="round"/>
<line x1="55.4529" y1="61.3101" x2="61.7711" y2="61.3101" stroke="white" stroke-width="1.5" stroke-linecap="round"/>
<line x1="67.271" y1="61.3101" x2="73.5892" y2="61.3101" stroke="white" stroke-width="1.5" stroke-linecap="round"/>
<line x1="31.8167" y1="34.3936" x2="71.4488" y2="34.3936" stroke="white" stroke-width="1.5" stroke-linecap="round"/>
<line x1="31.8167" y1="40.7778" x2="71.4488" y2="40.7778" stroke="white" stroke-width="1.5" stroke-linecap="round"/>
<line x1="31.8167" y1="46.4707" x2="53.8733" y2="46.4707" stroke="white" stroke-width="1.5" stroke-linecap="round"/>
<circle cx="84.9435" cy="47.7101" r="9.317" stroke="#FBA403" stroke-width="1.5"/>
<path d="M80.5757 47.1839L83.7751 50.3835L89.3114 44.8472" stroke="#FBA403" stroke-width="1.5" stroke-linecap="round"/>
<path fill-rule="evenodd" clip-rule="evenodd" d="M9.68799 58.7769C9.68799 58.2246 10.1357 57.7769 10.688 57.7769H17.8994C18.4517 57.7769 18.8994 58.2246 18.8994 58.7769V59.2881L9.68799 59.2881V58.7769ZM9.68799 60.1745L18.8994 60.1745V62.968C18.8994 63.5203 18.4517 63.968 17.8994 63.968H10.688C10.1357 63.968 9.68799 63.5203 9.68799 62.968V60.1745ZM11.2999 61.8916C11.0575 61.8916 10.8611 62.0881 10.8611 62.3304C10.8611 62.5728 11.0575 62.7692 11.2999 62.7692H12.2303C12.4727 62.7692 12.6691 62.5728 12.6691 62.3304C12.6691 62.0881 12.4727 61.8916 12.2303 61.8916H11.2999Z" fill="white"/>
<circle cx="14.2933" cy="37.4998" r="3.85578" stroke="white" stroke-width="1.5"/>
<path d="M7.32715 45.5773C7.32715 45.5773 7.55135 44.1496 9.20255 42.4984C10.3532 41.3477 12.048 40.8564 12.048 40.8564" stroke="white" stroke-width="1.5" stroke-linecap="round"/>
<path d="M21.2595 45.5773C21.2595 45.5773 21.0353 44.1496 19.3841 42.4984C18.2334 41.3477 16.5387 40.8564 16.5387 40.8564" stroke="white" stroke-width="1.5" stroke-linecap="round"/>
</svg>
