<svg width="89" height="106" fill="none" xmlns="http://www.w3.org/2000/svg"><path d="M27.908 23.304V10.36a9 9 0 0 1 9-9h41.824a9 9 0 0 1 9 9v85.87a9 9 0 0 1-9 8.999H36.908a9 9 0 0 1-9-9V75.004" stroke="#fff" stroke-width="1.5"/><path stroke="#fff" stroke-linecap="round" d="M52.996 9.059h9.648M47.902 98.105h19.836"/><rect x="1.018" y="23.62" width="51.287" height="51.287" rx="7.25" stroke="#fff" stroke-width="1.5"/><path d="M27.908 72.105v14.072m0 0-5.58-5.58m5.58 5.58 5.58-5.58" stroke="#FBA403" stroke-width="1.5" stroke-linecap="round"/><path d="M86.918 28.3H68.332a8 8 0 0 0-8 8v25.927a8 8 0 0 0 8 8h18.586" stroke="#404040" stroke-width="1.5"/><path d="M17.108 54.879c-.034 0-.052-.021-.052-.064l.026-8.818c0-.035.017-.052.052-.052h2.592c.462 0 .886.116 1.271.347.394.222.706.526.937.911.231.377.347.805.347 1.284 0 .316-.047.603-.142.86a2.821 2.821 0 0 1-.333.642c-.129.17-.244.3-.347.385.462.513.693 1.116.693 1.81l.013 2.63c0 .044-.021.065-.064.065h-1.45c-.035 0-.052-.013-.052-.039v-2.657c0-.308-.111-.573-.334-.795a1.04 1.04 0 0 0-.795-.347h-.848l-.012 3.774c0 .043-.017.064-.052.064h-1.45Zm1.514-5.378h1.104c.266 0 .5-.098.706-.295a.958.958 0 0 0 .308-.72.944.944 0 0 0-.308-.705.964.964 0 0 0-.706-.295h-1.104V49.5ZM23.313 54.879c-.043 0-.064-.021-.064-.064l.013-8.818c0-.035.017-.052.05-.052h1.438c.035 0 .052.017.052.052l.013 8.818c0 .043-.018.064-.052.064h-1.45ZM26.008 54.879c-.043 0-.064-.021-.064-.064l.025-8.818c0-.035.017-.052.052-.052l2.4-.012a2.36 2.36 0 0 1 1.283.333c.394.231.706.544.937.937.231.385.347.813.347 1.284v3.684a2.65 2.65 0 0 1-1.322 2.323 2.7 2.7 0 0 1-1.36.372l-2.298.013ZM27.51 53.3h.795c.317 0 .582-.111.796-.334.223-.222.334-.487.334-.795v-3.697a.944.944 0 0 0-.308-.706.902.902 0 0 0-.706-.295l-.899.013-.012 5.814ZM32.05 54.879c-.035 0-.052-.021-.052-.064l.013-8.818c0-.035.017-.052.051-.052h4.12c.035 0 .052.022.052.065v1.437c0 .034-.017.051-.052.051h-2.631v2.003h2.631c.035 0 .052.017.052.051l.012 1.45c0 .035-.017.052-.05.052H33.55V53.3h2.644c.034 0 .051.022.051.064v1.464c0 .034-.017.05-.05.05h-4.147ZM25.253 42.484l.004-.132a2.73 2.73 0 0 1 .023-.27l.03-.23a5.51 5.51 0 0 1 .02-.147c-.122.135-.221.24-.296.314l-.223.217c-.499.467-.796.7-.892.7-.14 0-.288-.03-.443-.091-.084-.034-.132-.069-.144-.105a.508.508 0 0 1-.027-.184 2.778 2.778 0 0 1 .027-.413 15.25 15.25 0 0 1 .045-.347c.013-.102.015-.153.008-.153l-.721.886c-.34.4-.533.62-.58.663-.1.09-.209.135-.33.135a.235.235 0 0 1-.146-.044.135.135 0 0 1-.059-.11c0-.089.037-.18.11-.276l1.722-2.188.201-.242c.24-.283.398-.425.473-.425.105 0 .204.027.299.08.084.046.131.092.143.136.005.016-.006.095-.033.234l-.068.366c-.076.409-.114.672-.114.791 0 .118.013.176.04.176.088 0 .258-.144.508-.432l.628-.752c.138-.159.23-.249.275-.271a.128.128 0 0 1 .057-.01c.024 0 .051.004.081.01a.844.844 0 0 1 .266.107c.05.033.074.06.073.083 0 .02-.005.066-.015.137l-.04.256c-.106.668-.163 1.056-.168 1.163-.004.107.007.175.033.202.027.027.067.04.118.04.095 0 .232-.056.411-.168.122-.076.222-.115.3-.115.08 0 .12.038.12.115 0 .079-.042.174-.127.287-.123.162-.306.31-.55.441-.206.11-.401.165-.586.165-.302 0-.453-.2-.453-.599Z" fill="#FBA403"/><path d="M27.722 42.132c0 .059.04.089.118.089.16 0 .433-.2.818-.6l.188-.189c.128-.125.212-.188.254-.188.04 0 .078.007.11.021.032.014.06.033.085.055.05.045.076.093.076.145 0 .05-.006.106-.017.168-.01.061-.028.13-.05.206-.043.142-.12.333-.231.572l-.08.17.33-.298.674-.578c.068-.051.125-.077.17-.077.099 0 .148.047.148.141 0 .097-.064.222-.19.374-.039.048-.081.093-.126.134l-.457.397-.892.754a3.659 3.659 0 0 0-.178.163 3.014 3.014 0 0 1-.113.172l-.077.122a.983.983 0 0 1-.076.113c-.053.067-.106.1-.159.1a.242.242 0 0 1-.16-.067c-.096-.084-.144-.16-.144-.225a.62.62 0 0 1 .054-.23 4.1 4.1 0 0 1 .142-.3l.41-.757a2.523 2.523 0 0 1-.465.355 1.328 1.328 0 0 1-.284.112.987.987 0 0 1-.245.03.47.47 0 0 1-.386-.196.782.782 0 0 1-.123-.46c0-.2.05-.398.15-.593.098-.191.226-.345.385-.461a.863.863 0 0 1 .517-.186c.177 0 .266.07.266.207 0 .087-.074.215-.221.386-.148.17-.221.309-.221.419ZM28.483 48.568h.962v.921h-.962zM27.52 49.489h.962v.921h-.962zM28.483 50.402h.962v.921h-.962zM27.52 51.323h.962v.921h-.962z" fill="#FBA403"/><path fill-rule="evenodd" clip-rule="evenodd" d="M15.005 41.95a3.3 3.3 0 0 0-3.077 2.106l-3.57 9.2c-.84 2.163.755 4.495 3.076 4.495h30.455c2.32 0 3.916-2.332 3.076-4.495l-3.57-9.2a3.3 3.3 0 0 0-3.078-2.107H32.7v-.733h5.619a4.034 4.034 0 0 1 3.76 2.574l3.571 9.2c1.026 2.645-.924 5.494-3.76 5.494H11.434c-2.836 0-4.787-2.85-3.76-5.493l3.57-9.2a4.034 4.034 0 0 1 3.761-2.575h4.908v.733h-4.908Z" fill="#FBA403"/></svg>