<svg width="44" height="44" viewBox="0 0 44 44" fill="none" xmlns="http://www.w3.org/2000/svg">
<circle cx="22" cy="22" r="22" fill="#3BB77E"/>
<path d="M19.6959 23.248C19.6239 23.248 18.0399 23.248 17.3199 23.248C16.9359 23.248 16.8159 23.104 16.8159 22.744C16.8159 21.784 16.8159 20.8 16.8159 19.84C16.8159 19.456 16.9599 19.336 17.3199 19.336H19.6959C19.6959 19.264 19.6959 17.872 19.6959 17.224C19.6959 16.264 19.8639 15.352 20.3439 14.512C20.8479 13.648 21.5679 13.072 22.4799 12.736C23.0799 12.52 23.6799 12.424 24.3279 12.424H26.6799C27.0159 12.424 27.1599 12.568 27.1599 12.904V15.64C27.1599 15.976 27.0159 16.12 26.6799 16.12C26.0319 16.12 25.3839 16.12 24.7359 16.144C24.0879 16.144 23.7519 16.456 23.7519 17.128C23.7279 17.848 23.7519 18.544 23.7519 19.288H26.5359C26.9199 19.288 27.0639 19.432 27.0639 19.816V22.72C27.0639 23.104 26.9439 23.224 26.5359 23.224C25.6719 23.224 23.8239 23.224 23.7519 23.224V31.048C23.7519 31.456 23.6319 31.6 23.1999 31.6C22.1919 31.6 21.2079 31.6 20.1999 31.6C19.8399 31.6 19.6959 31.456 19.6959 31.096C19.6959 28.576 19.6959 23.32 19.6959 23.248V23.248Z" fill="white"/>
</svg>
