<svg width="142" height="46" viewBox="0 0 142 46" fill="none" xmlns="http://www.w3.org/2000/svg">
<path d="M9.73178 45.6366C9.36891 45.6366 9.0148 45.632 8.65478 45.6239C7.90897 45.6142 7.16489 45.5493 6.42867 45.4296C5.74217 45.3114 5.07715 45.0915 4.45552 44.7771C3.83959 44.4653 3.27782 44.0565 2.79172 43.5664C2.29858 43.082 1.88802 42.5201 1.57631 41.9031C1.26116 41.2822 1.04306 40.6165 0.929602 39.9295C0.807079 39.1912 0.740789 38.4447 0.731303 37.6964C0.723752 37.4452 0.713867 36.6089 0.713867 36.6089V9.0965C0.713867 9.0965 0.724396 8.27304 0.731363 8.03112C0.740445 7.28399 0.80635 6.53864 0.928506 5.80151C1.04217 5.11255 1.26044 4.44501 1.57576 3.82198C1.88632 3.20542 2.2946 2.64318 2.78477 2.15705C3.27439 1.66629 3.83796 1.25538 4.45494 0.939301C5.07513 0.625934 5.7389 0.407554 6.42401 0.291478C7.16266 0.170672 7.90931 0.105358 8.65771 0.0960849L9.73236 0.081543H132.128L133.215 0.0966685C133.957 0.105481 134.697 0.170212 135.429 0.29031C136.121 0.407843 136.791 0.627746 137.419 0.94279C138.655 1.57978 139.661 2.58757 140.295 3.82489C140.605 4.44361 140.82 5.10571 140.932 5.78872C141.056 6.5319 141.125 7.28311 141.139 8.03636C141.143 8.37364 141.143 8.73594 141.143 9.0965C141.152 9.54312 141.152 9.96821 141.152 10.3968V35.3225C141.152 35.7552 141.152 36.1774 141.143 36.603C141.143 36.9903 141.143 37.3451 141.138 37.7103C141.124 38.4501 141.056 39.1879 140.935 39.9178C140.824 40.6098 140.607 41.2806 140.292 41.9067C139.978 42.517 139.569 43.074 139.082 43.5571C138.595 44.0499 138.033 44.4611 137.415 44.7748C136.79 45.0916 136.12 45.3124 135.429 45.4296C134.693 45.5499 133.948 45.6148 133.203 45.6239C132.854 45.632 132.488 45.6366 132.134 45.6366L130.843 45.639L9.73178 45.6366Z" fill="white"/>
<path d="M29.4451 22.7289C29.4584 21.6952 29.733 20.6816 30.2433 19.7825C30.7536 18.8834 31.483 18.128 32.3637 17.5866C31.8042 16.7876 31.0661 16.13 30.2081 15.6661C29.35 15.2022 28.3956 14.9448 27.4206 14.9143C25.3409 14.696 23.3247 16.1588 22.2649 16.1588C21.1846 16.1588 19.5529 14.936 17.7958 14.9721C16.6592 15.0088 15.5516 15.3393 14.5807 15.9314C13.6099 16.5235 12.809 17.357 12.2561 18.3506C9.86085 22.4976 11.6475 28.5923 13.9419 31.9445C15.0899 33.5859 16.4315 35.4194 18.187 35.3544C19.9049 35.2832 20.5465 34.259 22.6201 34.259C24.6745 34.259 25.2764 35.3544 27.0675 35.3131C28.9109 35.2832 30.0723 33.6644 31.18 32.0074C32.0048 30.8378 32.6395 29.5451 33.0606 28.1773C31.9896 27.7243 31.0757 26.9662 30.4328 25.9973C29.7898 25.0284 29.4463 23.8917 29.4451 22.7289Z" fill="black"/>
<path d="M26.0619 12.7089C27.0669 11.5023 27.5621 9.9515 27.4422 8.38574C25.9067 8.54702 24.4883 9.2809 23.4696 10.4412C22.9716 11.008 22.5901 11.6674 22.3471 12.3817C22.104 13.0961 22.0041 13.8513 22.0531 14.6042C22.8212 14.6122 23.581 14.4457 24.2754 14.1174C24.9697 13.7891 25.5806 13.3075 26.0619 12.7089V12.7089Z" fill="black"/>
<path d="M50.0548 31.3625H44.4174L43.0636 35.3599H40.6758L46.0154 20.5703H48.4962L53.8359 35.3599H51.4074L50.0548 31.3625ZM45.0012 29.5178H49.4698L47.2669 23.0302H47.2052L45.0012 29.5178Z" fill="black"/>
<path d="M65.3676 29.9687C65.3676 33.3195 63.5741 35.4724 60.8677 35.4724C60.1821 35.5082 59.5002 35.3503 58.9002 35.0167C58.3002 34.683 57.8063 34.1871 57.475 33.5858H57.4238V38.9267H55.2104V24.5767H57.3528V26.3702H57.3935C57.7401 25.7717 58.2423 25.2785 58.8469 24.9428C59.4515 24.6071 60.1358 24.4416 60.8269 24.4639C63.5636 24.4639 65.3676 26.6272 65.3676 29.9687ZM63.0926 29.9687C63.0926 27.7856 61.9644 26.3504 60.2431 26.3504C58.552 26.3504 57.4145 27.8159 57.4145 29.9687C57.4145 32.1413 58.552 33.5963 60.2431 33.5963C61.9644 33.5963 63.0926 32.1716 63.0926 29.9687H63.0926Z" fill="black"/>
<path d="M77.2363 29.9687C77.2363 33.3195 75.4423 35.4724 72.7358 35.4724C72.0502 35.5082 71.3684 35.3503 70.7684 35.0167C70.1684 34.683 69.6744 34.1871 69.3431 33.5858H69.2919V38.9267H67.0786V24.5767H69.221V26.3702H69.2617C69.6082 25.7717 70.1105 25.2785 70.7151 24.9428C71.3196 24.6071 72.0039 24.4416 72.6951 24.4639C75.4318 24.4639 77.2363 26.6272 77.2363 29.9687ZM74.9608 29.9687C74.9608 27.7856 73.8326 26.3504 72.1112 26.3504C70.4201 26.3504 69.2827 27.8159 69.2827 29.9687C69.2827 32.1413 70.4201 33.5963 72.1112 33.5963C73.8326 33.5963 74.9608 32.1716 74.9608 29.9687V29.9687Z" fill="black"/>
<path d="M85.0787 31.2392C85.2427 32.7058 86.6675 33.6688 88.6144 33.6688C90.48 33.6688 91.8222 32.7058 91.8222 31.3834C91.8222 30.2354 91.0127 29.5481 89.096 29.077L87.1792 28.6153C84.4635 27.9593 83.2027 26.6892 83.2027 24.6283C83.2027 22.0765 85.4265 20.3237 88.583 20.3237C91.7094 20.3237 93.8517 22.0765 93.9239 24.6283H91.6896C91.5558 23.1523 90.3358 22.2614 88.5528 22.2614C86.7698 22.2614 85.5497 23.1628 85.5497 24.4747C85.5497 25.5203 86.329 26.1356 88.2353 26.6066L89.8647 27.0067C92.8992 27.7243 94.1588 28.9432 94.1588 31.1065C94.1588 33.8734 91.9559 35.6064 88.4504 35.6064C85.1705 35.6064 82.956 33.9142 82.813 31.2391L85.0787 31.2392Z" fill="black"/>
<path d="M98.9381 22.0262V24.578H100.989V26.3308H98.9381V32.2752C98.9381 33.1987 99.3487 33.629 100.25 33.629C100.493 33.6248 100.736 33.6077 100.978 33.5778V35.3201C100.573 35.3958 100.161 35.4301 99.7487 35.4224C97.5657 35.4224 96.7143 34.6025 96.7143 32.5113V26.3308H95.1465V24.578H96.7143V22.0262H98.9381Z" fill="black"/>
<path d="M102.175 29.9699C102.175 26.5772 104.173 24.4453 107.289 24.4453C110.415 24.4453 112.404 26.5772 112.404 29.9699C112.404 33.3719 110.426 35.4945 107.289 35.4945C104.153 35.4945 102.175 33.3719 102.175 29.9699ZM110.149 29.9699C110.149 27.6426 109.082 26.269 107.289 26.269C105.495 26.269 104.429 27.6531 104.429 29.9699C104.429 32.3065 105.495 33.6696 107.289 33.6696C109.082 33.6696 110.149 32.3065 110.149 29.9699H110.149Z" fill="black"/>
<path d="M114.229 24.5766H116.34V26.4119H116.391C116.534 25.8387 116.87 25.3322 117.342 24.9774C117.814 24.6226 118.395 24.4412 118.985 24.4638C119.24 24.4629 119.494 24.4906 119.743 24.5464V26.6166C119.421 26.5182 119.085 26.4731 118.749 26.4829C118.427 26.4698 118.107 26.5265 117.809 26.6491C117.511 26.7716 117.244 26.9571 117.025 27.1928C116.806 27.4285 116.64 27.7088 116.54 28.0145C116.439 28.3201 116.406 28.644 116.442 28.9637V35.3594H114.229L114.229 24.5766Z" fill="black"/>
<path d="M129.948 32.1937C129.65 34.1511 127.744 35.4945 125.305 35.4945C122.168 35.4945 120.221 33.3928 120.221 30.0211C120.221 26.6389 122.179 24.4453 125.212 24.4453C128.195 24.4453 130.071 26.4946 130.071 29.764V30.5223H122.455V30.6561C122.42 31.0529 122.47 31.4527 122.601 31.8289C122.732 32.205 122.942 32.549 123.217 32.8378C123.491 33.1267 123.824 33.3539 124.192 33.5043C124.561 33.6548 124.958 33.725 125.356 33.7103C125.879 33.7593 126.404 33.6382 126.853 33.3649C127.301 33.0917 127.65 32.6809 127.846 32.1937L129.948 32.1937ZM122.466 28.9755H127.857C127.877 28.6187 127.822 28.2616 127.698 27.9267C127.573 27.5918 127.381 27.2862 127.132 27.0292C126.884 26.7723 126.585 26.5694 126.255 26.4334C125.924 26.2973 125.569 26.2311 125.212 26.2388C124.851 26.2366 124.494 26.3059 124.161 26.4425C123.827 26.5792 123.524 26.7805 123.269 27.035C123.013 27.2894 122.811 27.5919 122.673 27.9249C122.535 28.258 122.465 28.615 122.466 28.9755V28.9755Z" fill="black"/>
</svg>
