<svg width="87" height="8" viewBox="0 0 87 8" fill="none" xmlns="http://www.w3.org/2000/svg">
<path d="M3.22683 0.437751C3.71293 0.404452 4.20072 0.474554 4.65501 0.642998C5.1093 0.811442 5.51876 1.07403 5.85386 1.41182C6.18897 1.74962 6.44135 2.15419 6.59283 2.59637C6.7443 3.03855 6.79107 3.5073 6.72978 3.96883C6.72978 6.23914 5.44435 7.54416 3.22683 7.54416H0.537781V0.437751H3.22683ZM1.69405 6.53916H3.09767C3.44502 6.55898 3.79264 6.50461 4.1152 6.38002C4.43777 6.25542 4.72718 6.06374 4.96236 5.81891C5.19753 5.57409 5.37256 5.28229 5.47469 4.96475C5.57683 4.64721 5.6035 4.31193 5.55278 3.98331C5.59982 3.65599 5.57044 3.32278 5.46674 3.00757C5.36304 2.69236 5.18758 2.40295 4.95294 2.16007C4.7183 1.91719 4.43029 1.72687 4.10954 1.60272C3.78879 1.47858 3.44325 1.42369 3.09767 1.442H1.69405V6.53916Z" fill="black"/>
<path d="M8.0356 4.86169C8.00028 4.50926 8.04252 4.15367 8.1596 3.81773C8.27668 3.48179 8.46602 3.17291 8.71548 2.91092C8.96494 2.64892 9.26901 2.43959 9.60819 2.29634C9.94737 2.1531 10.3142 2.0791 10.6851 2.0791C11.0559 2.0791 11.4227 2.1531 11.7619 2.29634C12.1011 2.43959 12.4052 2.64892 12.6546 2.91092C12.9041 3.17291 13.0934 3.48179 13.2105 3.81773C13.3276 4.15367 13.3698 4.50926 13.3345 4.86169C13.3705 5.21449 13.3288 5.57057 13.212 5.90705C13.0952 6.24353 12.906 6.55297 12.6565 6.81548C12.4069 7.07799 12.1026 7.28776 11.7631 7.43132C11.4236 7.57487 11.0564 7.64903 10.6851 7.64903C10.3137 7.64903 9.94649 7.57487 9.60698 7.43132C9.26746 7.28776 8.96316 7.07799 8.71364 6.81548C8.46412 6.55297 8.27489 6.24353 8.15812 5.90705C8.04135 5.57057 7.99961 5.21449 8.0356 4.86169V4.86169ZM12.1941 4.86169C12.1941 3.69921 11.647 3.01939 10.6869 3.01939C9.72311 3.01939 9.18095 3.69921 9.18095 4.8617C9.18095 6.0335 9.72315 6.70807 10.6869 6.70807C11.647 6.70806 12.1941 6.02883 12.1941 4.86169H12.1941Z" fill="black"/>
<path d="M20.3784 7.54455H19.2282L18.067 3.59476H17.9793L16.823 7.54455H15.6838L14.1352 2.18164H15.2598L16.2662 6.27386H16.3491L17.5041 2.18164H18.5678L19.7229 6.27386H19.8106L20.8121 2.18164H21.9209L20.3784 7.54455Z" fill="black"/>
<path d="M23.2233 2.18107H24.2906V3.03301H24.3735C24.514 2.72702 24.7511 2.47052 25.0516 2.29925C25.3521 2.12798 25.7011 2.05048 26.05 2.07754C26.3234 2.05793 26.5979 2.09727 26.8531 2.19266C27.1084 2.28806 27.3379 2.43705 27.5247 2.62862C27.7114 2.82018 27.8506 3.0494 27.932 3.29929C28.0133 3.54918 28.0347 3.81334 27.9946 4.0722V7.54392H26.8858V4.33798C26.8858 3.47615 26.4935 3.04755 25.6735 3.04755C25.4879 3.0393 25.3026 3.06946 25.1304 3.13595C24.9581 3.20244 24.803 3.3037 24.6756 3.43279C24.5482 3.56187 24.4515 3.71573 24.3922 3.88381C24.3329 4.0519 24.3124 4.23023 24.332 4.4066V7.54398H23.2233L23.2233 2.18107Z" fill="black"/>
<path d="M29.7615 0.0878906H30.8703V7.54432H29.7615V0.0878906Z" fill="black"/>
<path d="M32.4112 4.85984C32.3759 4.50738 32.4182 4.15177 32.5353 3.81582C32.6524 3.47986 32.8417 3.17098 33.0912 2.90898C33.3407 2.64698 33.6448 2.43764 33.984 2.29439C34.3232 2.15115 34.69 2.07715 35.0609 2.07715C35.4318 2.07715 35.7987 2.15115 36.1379 2.29439C36.4771 2.43764 36.7812 2.64698 37.0306 2.90898C37.2801 3.17098 37.4695 3.47986 37.5866 3.81582C37.7037 4.15177 37.746 4.50738 37.7107 4.85984C37.7466 5.21265 37.7049 5.56873 37.588 5.90521C37.4712 6.24169 37.282 6.55113 37.0324 6.81363C36.7829 7.07613 36.4786 7.28589 36.139 7.42944C35.7995 7.57299 35.4323 7.64715 35.0609 7.64715C34.6896 7.64715 34.3224 7.57299 33.9828 7.42944C33.6433 7.28589 33.339 7.07613 33.0894 6.81363C32.8399 6.55113 32.6506 6.24169 32.5338 5.90521C32.417 5.56873 32.3752 5.21265 32.4112 4.85984V4.85984ZM36.5696 4.85984C36.5696 3.69735 36.0226 3.01754 35.0625 3.01754C34.0987 3.01754 33.5565 3.69735 33.5565 4.85985C33.5565 6.03164 34.0987 6.70622 35.0625 6.70622C36.0226 6.70621 36.5696 6.02698 36.5696 4.85984H36.5696Z" fill="black"/>
<path d="M38.8784 6.02839C38.8784 5.06304 39.6313 4.50652 40.9679 4.42742L42.4897 4.34369V3.88079C42.4897 3.31437 42.0974 2.99453 41.3396 2.99453C40.7206 2.99453 40.2917 3.21144 40.1687 3.5906H39.0952C39.2085 2.66945 40.1163 2.07861 41.3907 2.07861C42.7992 2.07861 43.5936 2.74795 43.5936 3.88079V7.54504H42.5263V6.79137H42.4386C42.2605 7.06172 42.0105 7.28211 41.714 7.43004C41.4175 7.57797 41.0852 7.64815 40.7511 7.6334C40.5152 7.65681 40.2768 7.6328 40.0513 7.56289C39.8258 7.49298 39.6181 7.37873 39.4417 7.22751C39.2652 7.07629 39.1239 6.89146 39.0269 6.68493C38.9299 6.47839 38.8793 6.25474 38.8784 6.02839V6.02839ZM42.4897 5.57014V5.12178L41.1178 5.20552C40.3441 5.25494 39.9932 5.50617 39.9932 5.97895C39.9932 6.46162 40.4318 6.74251 41.035 6.74251C41.2117 6.75958 41.3902 6.74255 41.5599 6.69242C41.7296 6.64229 41.887 6.56009 42.0227 6.45071C42.1585 6.34133 42.2698 6.207 42.35 6.05572C42.4302 5.90445 42.4777 5.73931 42.4897 5.57014V5.57014Z" fill="black"/>
<path d="M45.0508 4.86056C45.0508 3.16597 45.9634 2.09246 47.3828 2.09246C47.7339 2.07701 48.0824 2.15729 48.3875 2.3239C48.6926 2.49051 48.9417 2.73658 49.1057 3.03333H49.1885V0.0878906H50.2973V7.54433H49.2348V6.69702H49.1471C48.9704 6.99178 48.7127 7.23478 48.4017 7.39971C48.0907 7.56464 47.7384 7.64522 47.3828 7.63271C45.9536 7.63277 45.0508 6.55923 45.0508 4.86056ZM46.1961 4.86056C46.1961 5.99805 46.7578 6.68252 47.6972 6.68252C48.6317 6.68252 49.2093 5.98817 49.2093 4.86522C49.2093 3.74751 48.6257 3.04327 47.6972 3.04327C46.7639 3.04327 46.1961 3.73238 46.1961 4.86056H46.1961Z" fill="black"/>
<path d="M54.8845 4.86169C54.8492 4.50926 54.8914 4.15367 55.0085 3.81773C55.1256 3.48179 55.3149 3.17291 55.5644 2.91092C55.8139 2.64892 56.1179 2.43959 56.4571 2.29634C56.7963 2.1531 57.1631 2.0791 57.534 2.0791C57.9049 2.0791 58.2717 2.1531 58.6108 2.29634C58.95 2.43959 59.2541 2.64892 59.5035 2.91092C59.753 3.17291 59.9423 3.48179 60.0594 3.81773C60.1765 4.15367 60.2187 4.50926 60.1834 4.86169C60.2194 5.21449 60.1777 5.57057 60.0609 5.90705C59.9441 6.24353 59.7549 6.55297 59.5054 6.81548C59.2559 7.07799 58.9516 7.28776 58.612 7.43132C58.2725 7.57487 57.9053 7.64903 57.534 7.64903C57.1626 7.64903 56.7954 7.57487 56.4559 7.43132C56.1164 7.28776 55.8121 7.07799 55.5625 6.81548C55.313 6.55297 55.1238 6.24353 55.007 5.90705C54.8902 5.57057 54.8485 5.21449 54.8845 4.86169V4.86169ZM59.043 4.86169C59.043 3.69921 58.4959 3.01939 57.5358 3.01939C56.572 3.01939 56.0299 3.69921 56.0299 4.8617C56.0299 6.0335 56.5721 6.70807 57.5358 6.70807C58.4959 6.70806 59.043 6.02883 59.043 4.86169Z" fill="black"/>
<path d="M61.6712 2.18107H62.7386V3.03301H62.8214C62.962 2.72702 63.199 2.47052 63.4996 2.29925C63.8001 2.12798 64.1491 2.05048 64.498 2.07754C64.7713 2.05793 65.0458 2.09727 65.3011 2.19266C65.5564 2.28806 65.7859 2.43705 65.9726 2.62862C66.1594 2.82018 66.2986 3.0494 66.3799 3.29929C66.4613 3.54918 66.4827 3.81334 66.4426 4.0722V7.54392H65.3338V4.33798C65.3338 3.47615 64.9415 3.04755 64.1215 3.04755C63.9359 3.0393 63.7506 3.06946 63.5784 3.13595C63.4061 3.20244 63.251 3.3037 63.1235 3.43279C62.9961 3.56187 62.8995 3.71573 62.8402 3.88381C62.7809 4.0519 62.7603 4.23023 62.78 4.4066V7.54398H61.6712V2.18107Z" fill="black"/>
<path d="M72.7076 0.846191V2.20582H73.9248V3.09732H72.7076V5.85495C72.7076 6.41671 72.95 6.6627 73.502 6.6627C73.6433 6.66227 73.7844 6.65411 73.9248 6.63827V7.51988C73.7256 7.55388 73.5239 7.57197 73.3216 7.57396C72.0886 7.57396 71.5976 7.1599 71.5976 6.12594V3.09727H70.7057V2.20577H71.5976V0.846191H72.7076Z" fill="black"/>
<path d="M75.4395 0.0878906H76.5385V3.04325H76.6262C76.7736 2.73441 77.0171 2.47645 77.3237 2.30454C77.6302 2.13262 77.9849 2.05511 78.3392 2.08256C78.6112 2.06843 78.883 2.11177 79.1354 2.20948C79.3878 2.30719 79.6145 2.45687 79.7993 2.64783C79.9841 2.83879 80.1224 3.06633 80.2045 3.31421C80.2866 3.5621 80.3103 3.82422 80.2741 4.08187V7.54433H79.1642V4.34297C79.1642 3.48637 78.7462 3.05254 77.9628 3.05254C77.7723 3.03763 77.5806 3.06263 77.4012 3.12582C77.2218 3.189 77.0591 3.28884 76.9243 3.41835C76.7896 3.54785 76.6861 3.70389 76.6212 3.87556C76.5562 4.04722 76.5313 4.23037 76.5483 4.41217V7.54431H75.4395L75.4395 0.0878906Z" fill="black"/>
<path d="M86.7388 6.09564C86.5882 6.58578 86.2618 7.00975 85.8168 7.29338C85.3718 7.57701 84.8364 7.70224 84.3044 7.64717C83.9343 7.6565 83.5665 7.58882 83.2265 7.44885C82.8865 7.30887 82.5825 7.09995 82.3356 6.83658C82.0886 6.57321 81.9047 6.2617 81.7965 5.92367C81.6884 5.58564 81.6586 5.2292 81.7092 4.87907C81.6599 4.52787 81.6902 4.17066 81.7981 3.83162C81.9061 3.49258 82.089 3.17962 82.3346 2.91395C82.5803 2.64827 82.8828 2.43607 83.2218 2.29172C83.5608 2.14736 83.9284 2.07422 84.2996 2.07724C85.8628 2.07724 86.8058 3.09672 86.8058 4.78077V5.15008H82.8387V5.20939C82.8213 5.4062 82.8472 5.60429 82.9148 5.79098C82.9823 5.97767 83.0899 6.14882 83.2308 6.29347C83.3717 6.43813 83.5427 6.55308 83.7328 6.63097C83.9229 6.70885 84.128 6.74795 84.3349 6.74576C84.6001 6.77615 84.8688 6.73057 85.1068 6.61479C85.3448 6.49902 85.5414 6.3183 85.6715 6.0956L86.7388 6.09564ZM82.8386 4.36732H85.6763C85.6903 4.18733 85.6647 4.00654 85.6011 3.83656C85.5375 3.66659 85.4374 3.51119 85.3072 3.38035C85.1769 3.24951 85.0195 3.14613 84.8449 3.07684C84.6703 3.00756 84.4825 2.9739 84.2934 2.97804C84.1017 2.97574 83.9114 3.01011 83.7337 3.07912C83.5561 3.14813 83.3947 3.25039 83.2592 3.37986C83.1236 3.50934 83.0165 3.66341 82.9443 3.833C82.8721 4.00259 82.8362 4.18427 82.8387 4.36732H82.8386Z" fill="black"/>
</svg>
