<svg width="148" height="46" viewBox="0 0 148 46" fill="none" xmlns="http://www.w3.org/2000/svg">
<path d="M9.56873 45.6366C9.1886 45.6366 8.81764 45.632 8.44049 45.6239C7.65918 45.6142 6.8797 45.5493 6.10843 45.4296C5.38927 45.3114 4.69259 45.0915 4.04139 44.7771C3.39615 44.4653 2.80764 44.0565 2.2984 43.5664C1.7818 43.082 1.3517 42.5201 1.02515 41.9031C0.69501 41.2822 0.46653 40.6165 0.347675 39.9295C0.219321 39.1912 0.149876 38.4447 0.139939 37.6964C0.132029 37.4452 0.121674 36.6089 0.121674 36.6089V9.0965C0.121674 9.0965 0.132703 8.27304 0.140002 8.03112C0.149516 7.28399 0.218557 6.53864 0.346527 5.80151C0.465602 5.11255 0.694259 4.44501 1.02458 3.82198C1.34993 3.20542 1.77764 2.64318 2.29113 2.15705C2.80405 1.66629 3.39444 1.25538 4.04077 0.939301C4.69049 0.625934 5.38585 0.407554 6.10356 0.291478C6.87735 0.170672 7.65954 0.105358 8.44356 0.0960849L9.56934 0.081543H137.79L138.929 0.0966685C139.706 0.105481 140.481 0.170212 141.247 0.29031C141.972 0.407843 142.675 0.627746 143.332 0.94279C144.627 1.57978 145.681 2.58757 146.345 3.82489C146.67 4.44361 146.895 5.10571 147.013 5.78872C147.143 6.5319 147.215 7.28311 147.23 8.03636C147.234 8.37364 147.234 8.73594 147.234 9.0965C147.243 9.54312 147.243 9.96821 147.243 10.3968V35.3225C147.243 35.7552 147.243 36.1774 147.234 36.603C147.234 36.9903 147.233 37.3451 147.229 37.7103C147.214 38.4501 147.143 39.1879 147.015 39.9178C146.899 40.6098 146.672 41.2806 146.342 41.9067C146.013 42.517 145.585 43.074 145.075 43.5571C144.565 44.0499 143.975 44.4611 143.329 44.7748C142.673 45.0916 141.972 45.3124 141.247 45.4296C140.476 45.5499 139.697 45.6148 138.915 45.6239C138.55 45.632 138.167 45.6366 137.796 45.6366L136.443 45.639L9.56873 45.6366Z" fill="white"/>
<path d="M30.2199 22.7289C30.2339 21.6952 30.5215 20.6816 31.0561 19.7825C31.5907 18.8834 32.3548 18.128 33.2774 17.5866C32.6913 16.7876 31.9181 16.13 31.0192 15.6661C30.1203 15.2022 29.1205 14.9448 28.0991 14.9143C25.9204 14.696 23.8083 16.1588 22.698 16.1588C21.5663 16.1588 19.8569 14.936 18.0162 14.9721C16.8256 15.0088 15.6652 15.3393 14.6482 15.9314C13.6312 16.5235 12.7922 17.357 12.2129 18.3506C9.7037 22.4976 11.5753 28.5923 13.979 31.9445C15.1816 33.5859 16.587 35.4194 18.4261 35.3544C20.2257 35.2832 20.8978 34.259 23.0701 34.259C25.2223 34.259 25.8529 35.3544 27.7292 35.3131C29.6603 35.2832 30.877 33.6644 32.0374 32.0074C32.9015 30.8378 33.5664 29.5451 34.0075 28.1773C32.8856 27.7243 31.9282 26.9662 31.2546 25.9973C30.5811 25.0284 30.2212 23.8917 30.2199 22.7289Z" fill="black"/>
<path d="M26.6757 12.7089C27.7286 11.5023 28.2474 9.9515 28.1218 8.38574C26.5131 8.54702 25.0273 9.2809 23.9601 10.4412C23.4384 11.008 23.0388 11.6674 22.7841 12.3817C22.5295 13.0961 22.4249 13.8513 22.4762 14.6042C23.2808 14.6122 24.0768 14.4457 24.8042 14.1174C25.5316 13.7891 26.1715 13.3075 26.6757 12.7089V12.7089Z" fill="black"/>
<path d="M51.8106 31.3625H45.905L44.4867 35.3599H41.9853L47.5791 20.5703H50.178L55.7717 35.3599H53.2277L51.8106 31.3625ZM46.5166 29.5178H51.1978L48.8901 23.0302H48.8255L46.5166 29.5178Z" fill="black"/>
<path d="M67.8522 29.9687C67.8522 33.3195 65.9734 35.4724 63.1381 35.4724C62.4199 35.5082 61.7056 35.3503 61.077 35.0167C60.4485 34.683 59.931 34.1871 59.584 33.5858H59.5303V38.9267H57.2117V24.5767H59.456V26.3702H59.4986C59.8617 25.7717 60.3878 25.2785 61.0212 24.9428C61.6545 24.6071 62.3714 24.4416 63.0954 24.4639C65.9624 24.4639 67.8522 26.6272 67.8522 29.9687ZM65.4689 29.9687C65.4689 27.7856 64.2871 26.3504 62.4838 26.3504C60.7122 26.3504 59.5206 27.8159 59.5206 29.9687C59.5206 32.1413 60.7122 33.5963 62.4838 33.5963C64.2871 33.5963 65.4689 32.1716 65.4689 29.9687H65.4689Z" fill="black"/>
<path d="M80.2857 29.9687C80.2857 33.3195 78.4063 35.4724 75.571 35.4724C74.8528 35.5082 74.1385 35.3503 73.51 35.0167C72.8814 34.683 72.364 34.1871 72.0169 33.5858H71.9633V38.9267H69.6446V24.5767H71.8889V26.3702H71.9316C72.2946 25.7717 72.8208 25.2785 73.4541 24.9428C74.0875 24.6071 74.8043 24.4416 75.5284 24.4639C78.3953 24.4639 80.2857 26.6272 80.2857 29.9687ZM77.9019 29.9687C77.9019 27.7856 76.72 26.3504 74.9168 26.3504C73.1452 26.3504 71.9536 27.8159 71.9536 29.9687C71.9536 32.1413 73.1452 33.5963 74.9168 33.5963C76.72 33.5963 77.9019 32.1716 77.9019 29.9687V29.9687Z" fill="black"/>
<path d="M88.5015 31.2392C88.6733 32.7058 90.1659 33.6688 92.2055 33.6688C94.1599 33.6688 95.5659 32.7058 95.5659 31.3834C95.5659 30.2354 94.7179 29.5481 92.71 29.077L90.702 28.6153C87.857 27.9593 86.5362 26.6892 86.5362 24.6283C86.5362 22.0765 88.8658 20.3237 92.1726 20.3237C95.4477 20.3237 97.6921 22.0765 97.7676 24.6283H95.427C95.2869 23.1523 94.0088 22.2614 92.1409 22.2614C90.2731 22.2614 88.995 23.1628 88.995 24.4747C88.995 25.5203 89.8113 26.1356 91.8083 26.6066L93.5153 27.0067C96.6941 27.7243 98.0137 28.9432 98.0137 31.1065C98.0137 33.8734 95.706 35.6064 92.0337 35.6064C88.5977 35.6064 86.2779 33.9142 86.128 31.2391L88.5015 31.2392Z" fill="black"/>
<path d="M103.02 22.0262V24.578H105.168V26.3308H103.02V32.2752C103.02 33.1987 103.45 33.629 104.395 33.629C104.65 33.6248 104.904 33.6077 105.157 33.5778V35.3201C104.733 35.3958 104.301 35.4301 103.87 35.4224C101.583 35.4224 100.691 34.6025 100.691 32.5113V26.3308H99.0483V24.578H100.691V22.0262H103.02Z" fill="black"/>
<path d="M106.411 29.9699C106.411 26.5772 108.504 24.4453 111.769 24.4453C115.044 24.4453 117.127 26.5772 117.127 29.9699C117.127 33.3719 115.055 35.4945 111.769 35.4945C108.484 35.4945 106.411 33.3719 106.411 29.9699ZM114.765 29.9699C114.765 27.6426 113.647 26.269 111.769 26.269C109.89 26.269 108.773 27.6531 108.773 29.9699C108.773 32.3065 109.89 33.6696 111.769 33.6696C113.647 33.6696 114.765 32.3065 114.765 29.9699H114.765Z" fill="black"/>
<path d="M119.039 24.5766H121.25V26.4119H121.304C121.454 25.8387 121.805 25.3322 122.3 24.9774C122.795 24.6226 123.403 24.4412 124.021 24.4638C124.288 24.4629 124.555 24.4906 124.815 24.5464V26.6166C124.478 26.5182 124.126 26.4731 123.774 26.4829C123.437 26.4698 123.101 26.5265 122.789 26.6491C122.478 26.7716 122.197 26.9571 121.968 27.1928C121.738 27.4285 121.565 27.7088 121.459 28.0145C121.354 28.3201 121.319 28.644 121.358 28.9637V35.3594H119.039L119.039 24.5766Z" fill="black"/>
<path d="M135.506 32.1937C135.194 34.1511 133.197 35.4945 130.642 35.4945C127.356 35.4945 125.316 33.3928 125.316 30.0211C125.316 26.6389 127.367 24.4453 130.544 24.4453C133.67 24.4453 135.635 26.4946 135.635 29.764V30.5223H127.657V30.6561C127.62 31.0529 127.672 31.4527 127.809 31.8289C127.947 32.205 128.167 32.549 128.454 32.8378C128.741 33.1267 129.09 33.3539 129.476 33.5043C129.863 33.6548 130.278 33.725 130.696 33.7103C131.243 33.7593 131.793 33.6382 132.263 33.3649C132.733 33.0917 133.098 32.6809 133.304 32.1937L135.506 32.1937ZM127.668 28.9755H133.315C133.336 28.6187 133.279 28.2616 133.149 27.9267C133.018 27.5918 132.816 27.2862 132.556 27.0292C132.296 26.7723 131.983 26.5694 131.637 26.4334C131.291 26.2973 130.919 26.2311 130.544 26.2388C130.167 26.2366 129.793 26.3059 129.443 26.4425C129.094 26.5792 128.776 26.7805 128.509 27.035C128.241 27.2894 128.029 27.5919 127.885 27.9249C127.741 28.258 127.667 28.615 127.668 28.9755V28.9755Z" fill="black"/>
</svg>
