<svg width="96" height="106" fill="none" xmlns="http://www.w3.org/2000/svg"><path d="M14.293 25.363V10.36a9 9 0 0 1 9-9h41.824a9 9 0 0 1 9 9v15.003M14.293 70.974v25.255a9 9 0 0 0 9 9h41.824a9 9 0 0 0 9-9V70.974" stroke="#fff" stroke-width="1.5"/><path stroke="#fff" stroke-linecap="round" d="M39.381 9.059h9.648M34.287 98.105h19.836"/><path d="M84.943 38.668V28.49a4 4 0 0 0-4-4H4.99a4 4 0 0 0-4 4v38.948a4 4 0 0 0 4 4h75.953a4 4 0 0 0 4-4V57.331" stroke="#fff" stroke-width="1.5"/><path d="M39.968 18.705c-.016 0-.023-.01-.023-.028l.011-3.912c0-.015.008-.022.023-.022h1.15c.205 0 .393.05.564.153.174.1.313.234.415.405.103.167.154.356.154.569a1.103 1.103 0 0 1-.21.666 1.032 1.032 0 0 1-.154.17c.205.229.307.496.307.803l.006 1.168c0 .018-.01.028-.029.028h-.643c-.015 0-.023-.006-.023-.017V17.51a.482.482 0 0 0-.148-.354.462.462 0 0 0-.353-.153h-.376l-.005 1.674c0 .018-.008.028-.023.028h-.643Zm.671-2.385h.49a.44.44 0 0 0 .313-.131.425.425 0 0 0 .137-.32.419.419 0 0 0-.137-.312.427.427 0 0 0-.313-.131h-.49v.894ZM42.72 18.705c-.02 0-.029-.01-.029-.028l.006-3.912c0-.015.008-.022.023-.022h.638c.015 0 .022.007.022.022l.006 3.912c0 .018-.008.028-.023.028h-.643ZM43.915 18.705c-.019 0-.028-.01-.028-.028l.011-3.912c0-.015.008-.022.023-.022l1.064-.006c.21-.004.399.046.57.148a1.148 1.148 0 0 1 .569.985v1.634a1.176 1.176 0 0 1-.586 1.03c-.179.107-.38.162-.604.165l-1.019.006Zm.666-.7h.353a.47.47 0 0 0 .353-.148.482.482 0 0 0 .148-.353v-1.64a.419.419 0 0 0-.137-.313.4.4 0 0 0-.313-.13l-.398.005-.006 2.579ZM46.595 18.705c-.015 0-.023-.01-.023-.028l.006-3.912c0-.015.007-.022.022-.022h1.828c.015 0 .023.01.023.028v.638c0 .015-.008.023-.023.023H47.26v.888h1.167c.015 0 .023.007.023.022l.005.644c0 .015-.007.023-.022.023H47.26v.996h1.173c.015 0 .022.01.022.028v.65c0 .014-.007.022-.022.022h-1.84ZM43.58 13.207l.002-.058c.001-.037.005-.077.01-.12l.014-.102.009-.065c-.055.06-.098.106-.132.14l-.098.095c-.222.207-.353.31-.396.31a.54.54 0 0 1-.197-.04c-.037-.015-.058-.03-.063-.046a.226.226 0 0 1-.012-.082 1.23 1.23 0 0 1 .012-.183 6.338 6.338 0 0 1 .02-.154c.005-.045.006-.067.003-.067l-.32.392a6.97 6.97 0 0 1-.257.294.212.212 0 0 1-.146.06.104.104 0 0 1-.065-.02.06.06 0 0 1-.026-.048c0-.04.016-.08.049-.122l.763-.97.09-.108c.106-.126.176-.189.21-.189.046 0 .09.012.132.036.037.02.058.04.063.06a.463.463 0 0 1-.014.104l-.03.162c-.034.181-.051.298-.051.351 0 .052.006.078.018.078.039 0 .114-.064.225-.191l.279-.334a.62.62 0 0 1 .122-.12.057.057 0 0 1 .025-.005.37.37 0 0 1 .154.052c.022.015.033.027.032.037a19.682 19.682 0 0 1-.024.175 8.616 8.616 0 0 0-.075.515c-.002.048.003.078.015.09.012.012.03.018.052.018.042 0 .103-.025.183-.075a.27.27 0 0 1 .133-.05c.035 0 .053.016.053.05 0 .035-.019.077-.057.127a.74.74 0 0 1-.244.196.552.552 0 0 1-.26.073c-.133 0-.2-.088-.2-.266Z" fill="#FBA403"/><path d="M44.675 13.051c0 .027.018.04.053.04.071 0 .192-.089.363-.266l.083-.084c.057-.056.094-.084.113-.084a.12.12 0 0 1 .049.01.14.14 0 0 1 .038.024c.022.02.033.041.033.064a.752.752 0 0 1-.03.166 2.02 2.02 0 0 1-.102.254l-.036.075.147-.132.299-.256c.03-.023.055-.034.075-.034.044 0 .066.02.066.062 0 .043-.029.099-.085.166a.56.56 0 0 1-.056.06l-.202.176-.396.334c-.035.03-.061.055-.079.072a1.34 1.34 0 0 1-.05.077 1.508 1.508 0 0 0-.034.054.424.424 0 0 1-.034.05c-.023.03-.047.045-.07.045a.108.108 0 0 1-.071-.03c-.043-.038-.064-.071-.064-.1 0-.03.008-.064.024-.103.016-.038.037-.082.063-.132l.182-.336c-.088.08-.156.131-.206.157a.596.596 0 0 1-.127.05.438.438 0 0 1-.108.013.208.208 0 0 1-.171-.087.346.346 0 0 1-.055-.204c0-.088.022-.176.067-.262a.566.566 0 0 1 .17-.205.383.383 0 0 1 .23-.083c.078 0 .117.031.117.092 0 .039-.032.096-.098.171-.065.075-.098.137-.098.186ZM45.013 15.906h.427v.408h-.427zM44.586 16.314h.427v.408h-.427zM45.013 16.719h.427v.408h-.427zM44.586 17.127h.427v.408h-.427z" fill="#FBA403"/><path fill-rule="evenodd" clip-rule="evenodd" d="M39.035 12.97c-.604 0-1.146.371-1.365.934l-1.584 4.081a1.464 1.464 0 0 0 1.365 1.994H50.96a1.464 1.464 0 0 0 1.364-1.994l-1.583-4.08a1.464 1.464 0 0 0-1.365-.935h-2.492v-.325h2.492c.738 0 1.4.453 1.668 1.142l1.584 4.08a1.79 1.79 0 0 1-1.668 2.437H37.45a1.79 1.79 0 0 1-1.668-2.437l1.584-4.08a1.79 1.79 0 0 1 1.668-1.142h2.177v.325h-2.177Z" fill="#FBA403"/><path stroke="#fff" stroke-width="1.5" stroke-linecap="round" d="M31.817 61.31h6.318M43.635 61.31h6.318M55.453 61.31h6.318M67.271 61.31h6.318M31.817 34.394h39.632M31.817 40.778h39.632M31.817 46.471h22.056"/><circle cx="84.943" cy="47.71" r="9.317" stroke="#FBA403" stroke-width="1.5"/><path d="m80.576 47.184 3.199 3.2 5.536-5.537" stroke="#FBA403" stroke-width="1.5" stroke-linecap="round"/><path fill-rule="evenodd" clip-rule="evenodd" d="M9.688 58.777a1 1 0 0 1 1-1h7.211a1 1 0 0 1 1 1v.511H9.688v-.511Zm0 1.398h9.211v2.793a1 1 0 0 1-1 1h-7.211a1 1 0 0 1-1-1v-2.794Zm1.612 1.717a.439.439 0 1 0 0 .877h.93a.439.439 0 1 0 0-.877h-.93Z" fill="#fff"/><circle cx="14.293" cy="37.5" r="3.856" stroke="#fff" stroke-width="1.5"/><path d="M7.327 45.577s.224-1.427 1.875-3.079c1.151-1.15 2.846-1.642 2.846-1.642M21.26 45.577s-.225-1.427-1.876-3.079c-1.15-1.15-2.846-1.642-2.846-1.642" stroke="#fff" stroke-width="1.5" stroke-linecap="round"/></svg>