<svg width="83" height="8" viewBox="0 0 83 8" fill="none" xmlns="http://www.w3.org/2000/svg">
<path d="M2.81567 0.380989C3.27969 0.34769 3.74532 0.417791 4.17897 0.586235C4.61262 0.754679 5.00349 1.01727 5.32337 1.35506C5.64325 1.69285 5.88417 2.09743 6.02876 2.53961C6.17335 2.98178 6.218 3.45054 6.15949 3.91206C6.15949 6.18237 4.93246 7.48739 2.81567 7.48739H0.248779V0.380989H2.81567ZM1.35252 6.48239H2.69238C3.02396 6.50221 3.35578 6.44785 3.66369 6.32325C3.97161 6.19866 4.24787 6.00697 4.47236 5.76215C4.69685 5.51732 4.86393 5.22552 4.96142 4.90798C5.05892 4.59045 5.08438 4.25517 5.03596 3.92655C5.08087 3.59922 5.05282 3.26602 4.95383 2.95081C4.85484 2.6356 4.68735 2.34619 4.46337 2.10331C4.23939 1.86043 3.96446 1.6701 3.65828 1.54596C3.3521 1.42182 3.02226 1.36693 2.69238 1.38524H1.35252V6.48239Z" fill="black"/>
<path d="M7.40601 4.80493C7.37229 4.45249 7.41261 4.0969 7.52437 3.76096C7.63613 3.42502 7.81687 3.11615 8.055 2.85416C8.29313 2.59216 8.58339 2.38283 8.90716 2.23958C9.23092 2.09633 9.58106 2.02234 9.9351 2.02234C10.2891 2.02234 10.6393 2.09633 10.963 2.23958C11.2868 2.38283 11.5771 2.59216 11.8152 2.85416C12.0533 3.11615 12.2341 3.42502 12.3458 3.76096C12.4576 4.0969 12.4979 4.45249 12.4642 4.80493C12.4985 5.15772 12.4587 5.5138 12.3472 5.85029C12.2358 6.18677 12.0551 6.49621 11.817 6.75872C11.5788 7.02123 11.2883 7.231 10.9642 7.37456C10.6401 7.51811 10.2896 7.59227 9.9351 7.59227C9.58063 7.59227 9.23009 7.51811 8.906 7.37456C8.5819 7.231 8.29143 7.02123 8.05324 6.75872C7.81505 6.49621 7.63442 6.18677 7.52295 5.85029C7.41149 5.5138 7.37165 5.15772 7.40601 4.80493V4.80493ZM11.3755 4.80493C11.3755 3.64244 10.8533 2.96263 9.93684 2.96263C9.01686 2.96263 8.49933 3.64244 8.49933 4.80494C8.49933 5.97674 9.01689 6.65131 9.93684 6.65131C10.8534 6.6513 11.3756 5.97207 11.3756 4.80493H11.3755Z" fill="black"/>
<path d="M19.1881 7.48779H18.0901L16.9817 3.538H16.898L15.7943 7.48779H14.7068L13.2285 2.12488H14.302L15.2627 6.21709H15.3418L16.4444 2.12488H17.4598L18.5624 6.21709H18.6461L19.6021 2.12488H20.6605L19.1881 7.48779Z" fill="black"/>
<path d="M21.9038 2.1243H22.9227V2.97625H23.0018C23.1359 2.67026 23.3622 2.41376 23.6491 2.24249C23.936 2.07121 24.2691 1.99371 24.6021 2.02078C24.8631 2.00116 25.1251 2.04051 25.3688 2.1359C25.6124 2.23129 25.8315 2.38029 26.0098 2.57185C26.1881 2.76342 26.321 2.99263 26.3986 3.24253C26.4763 3.49242 26.4967 3.75658 26.4584 4.01544V7.48716H25.4V4.28122C25.4 3.41939 25.0255 2.99079 24.2427 2.99079C24.0656 2.98254 23.8887 3.01269 23.7243 3.07919C23.5599 3.14568 23.4118 3.24694 23.2901 3.37602C23.1685 3.50511 23.0762 3.65896 23.0196 3.82705C22.963 3.99513 22.9434 4.17347 22.9622 4.34983V7.48722H21.9038L21.9038 2.1243Z" fill="black"/>
<path d="M28.145 0.0311279H29.2034V7.48756H28.145V0.0311279Z" fill="black"/>
<path d="M30.6743 4.80307C30.6406 4.45062 30.6809 4.09501 30.7927 3.75905C30.9045 3.4231 31.0853 3.11422 31.3234 2.85222C31.5616 2.59022 31.8519 2.38088 32.1757 2.23763C32.4995 2.09438 32.8496 2.02039 33.2037 2.02039C33.5577 2.02039 33.9079 2.09438 34.2317 2.23763C34.5555 2.38088 34.8457 2.59022 35.0839 2.85222C35.3221 3.11422 35.5028 3.4231 35.6146 3.75905C35.7264 4.09501 35.7667 4.45062 35.733 4.80307C35.7674 5.15588 35.7275 5.51197 35.616 5.84845C35.5045 6.18493 35.3238 6.49436 35.0856 6.75687C34.8474 7.01937 34.5569 7.22913 34.2328 7.37268C33.9087 7.51623 33.5581 7.59039 33.2037 7.59039C32.8492 7.59039 32.4986 7.51623 32.1745 7.37268C31.8504 7.22913 31.5599 7.01937 31.3217 6.75687C31.0835 6.49436 30.9029 6.18493 30.7914 5.84845C30.6799 5.51197 30.64 5.15588 30.6743 4.80307V4.80307ZM34.6438 4.80307C34.6438 3.64059 34.1216 2.96078 33.2051 2.96078C32.2851 2.96078 31.7676 3.64059 31.7676 4.80309C31.7676 5.97488 32.2852 6.64946 33.2051 6.64946C34.1216 6.64944 34.6438 5.97021 34.6438 4.80307H34.6438Z" fill="black"/>
<path d="M36.8477 5.97163C36.8477 5.00628 37.5664 4.44975 38.8423 4.37066L40.295 4.28692V3.82402C40.295 3.2576 39.9205 2.93776 39.1971 2.93776C38.6062 2.93776 38.1968 3.15468 38.0793 3.53384H37.0547C37.1628 2.61269 38.0293 2.02185 39.2459 2.02185C40.5904 2.02185 41.3487 2.69118 41.3487 3.82402V7.48827H40.3299V6.73461H40.2461C40.0762 7.00495 39.8375 7.22534 39.5545 7.37328C39.2715 7.52121 38.9543 7.59138 38.6353 7.57663C38.4102 7.60005 38.1826 7.57603 37.9673 7.50612C37.752 7.43622 37.5538 7.32197 37.3854 7.17075C37.217 7.01953 37.0821 6.8347 36.9895 6.62816C36.8969 6.42163 36.8485 6.19798 36.8477 5.97163V5.97163ZM40.295 5.51337V5.06502L38.9854 5.14876C38.2468 5.19818 37.9119 5.44941 37.9119 5.92219C37.9119 6.40486 38.3306 6.68574 38.9063 6.68574C39.075 6.70282 39.2454 6.68579 39.4074 6.63566C39.5694 6.58553 39.7196 6.50333 39.8492 6.39395C39.9788 6.28457 40.085 6.15024 40.1616 5.99896C40.2382 5.84768 40.2835 5.68255 40.295 5.51337V5.51337Z" fill="black"/>
<path d="M42.7397 4.8038C42.7397 3.10921 43.6109 2.0357 44.9659 2.0357C45.301 2.02025 45.6337 2.10053 45.9249 2.26714C46.2161 2.43375 46.4539 2.67982 46.6104 2.97657H46.6895V0.0311279H47.7479V7.48756H46.7337V6.64026H46.65C46.4813 6.93502 46.2353 7.17802 45.9384 7.34295C45.6416 7.50788 45.3052 7.58845 44.9659 7.57595C43.6016 7.576 42.7397 6.50246 42.7397 4.8038ZM43.8331 4.8038C43.8331 5.94129 44.3693 6.62576 45.266 6.62576C46.158 6.62576 46.7093 5.93141 46.7093 4.80846C46.7093 3.69074 46.1522 2.9865 45.266 2.9865C44.375 2.9865 43.833 3.67562 43.833 4.8038H43.8331Z" fill="black"/>
<path d="M52.1267 4.80493C52.093 4.45249 52.1333 4.0969 52.2451 3.76096C52.3568 3.42502 52.5376 3.11615 52.7757 2.85416C53.0138 2.59216 53.3041 2.38283 53.6279 2.23958C53.9516 2.09633 54.3018 2.02234 54.6558 2.02234C55.0099 2.02234 55.36 2.09633 55.6838 2.23958C56.0075 2.38283 56.2978 2.59216 56.5359 2.85416C56.774 3.11615 56.9548 3.42502 57.0665 3.76096C57.1783 4.0969 57.2186 4.45249 57.1849 4.80493C57.2193 5.15772 57.1794 5.5138 57.068 5.85029C56.9565 6.18677 56.7759 6.49621 56.5377 6.75872C56.2995 7.02123 56.009 7.231 55.6849 7.37456C55.3608 7.51811 55.0103 7.59227 54.6558 7.59227C54.3013 7.59227 53.9508 7.51811 53.6267 7.37456C53.3026 7.231 53.0121 7.02123 52.7739 6.75872C52.5358 6.49621 52.3551 6.18677 52.2437 5.85029C52.1322 5.5138 52.0924 5.15772 52.1267 4.80493V4.80493ZM56.0963 4.80493C56.0963 3.64244 55.574 2.96263 54.6576 2.96263C53.7376 2.96263 53.22 3.64244 53.22 4.80494C53.22 5.97674 53.7376 6.65131 54.6576 6.65131C55.5741 6.6513 56.0963 5.97207 56.0963 4.80493Z" fill="black"/>
<path d="M58.6052 2.1243H59.6241V2.97625H59.7032C59.8373 2.67026 60.0636 2.41376 60.3505 2.24249C60.6374 2.07121 60.9705 1.99371 61.3036 2.02078C61.5645 2.00116 61.8265 2.04051 62.0702 2.1359C62.3139 2.23129 62.533 2.38029 62.7112 2.57185C62.8895 2.76342 63.0224 2.99263 63.1 3.24253C63.1777 3.49242 63.1981 3.75658 63.1598 4.01544V7.48716H62.1014V4.28122C62.1014 3.41939 61.7269 2.99079 60.9442 2.99079C60.767 2.98254 60.5901 3.01269 60.4257 3.07919C60.2613 3.14568 60.1132 3.24694 59.9916 3.37602C59.8699 3.50511 59.7777 3.65896 59.721 3.82705C59.6644 3.99513 59.6449 4.17347 59.6636 4.34983V7.48722H58.6052V2.1243Z" fill="black"/>
<path d="M69.1402 0.789429V2.14905H70.3021V3.04055H69.1402V5.79819C69.1402 6.35995 69.3716 6.60594 69.8985 6.60594C70.0334 6.60551 70.1681 6.59735 70.3021 6.58151V7.46311C70.112 7.49712 69.9194 7.51521 69.7264 7.51719C68.5493 7.51719 68.0806 7.10314 68.0806 6.06917V3.0405H67.2292V2.14901H68.0806V0.789429H69.1402Z" fill="black"/>
<path d="M71.7478 0.0311279H72.7969V2.98649H72.8806C73.0213 2.67765 73.2538 2.41969 73.5464 2.24777C73.8391 2.07586 74.1776 1.99835 74.5158 2.0258C74.7754 2.01167 75.0349 2.05501 75.2758 2.15272C75.5168 2.25043 75.7331 2.40011 75.9096 2.59107C76.086 2.78203 76.2181 3.00956 76.2964 3.25745C76.3747 3.50533 76.3974 3.76745 76.3628 4.02511V7.48757H75.3034V4.28621C75.3034 3.42961 74.9044 2.99578 74.1566 2.99578C73.9747 2.98086 73.7917 3.00587 73.6204 3.06906C73.4492 3.13224 73.2938 3.23208 73.1652 3.36158C73.0366 3.49109 72.9378 3.64713 72.8758 3.8188C72.8138 3.99046 72.7901 4.1736 72.8062 4.35541V7.48755H71.7478L71.7478 0.0311279Z" fill="black"/>
<path d="M82.534 6.03888C82.3902 6.52901 82.0786 6.95298 81.6538 7.23662C81.229 7.52025 80.718 7.64548 80.2102 7.59041C79.8569 7.59973 79.5057 7.53206 79.1812 7.39209C78.8566 7.25211 78.5664 7.04319 78.3307 6.77982C78.095 6.51645 77.9195 6.20494 77.8162 5.86691C77.713 5.52888 77.6845 5.17244 77.7328 4.82231C77.6858 4.47111 77.7147 4.11389 77.8177 3.77485C77.9207 3.43581 78.0954 3.12286 78.3299 2.85718C78.5643 2.59151 78.8531 2.37931 79.1767 2.23495C79.5003 2.0906 79.8512 2.01745 80.2055 2.02048C81.6977 2.02048 82.5979 3.03996 82.5979 4.72401V5.09332H78.811V5.15263C78.7944 5.34943 78.8192 5.54753 78.8836 5.73422C78.9481 5.9209 79.0508 6.09206 79.1853 6.23671C79.3198 6.38136 79.483 6.49632 79.6645 6.5742C79.846 6.65209 80.0418 6.69119 80.2392 6.689C80.4924 6.71939 80.7489 6.6738 80.9761 6.55803C81.2033 6.44226 81.3909 6.26154 81.5151 6.03884L82.534 6.03888ZM78.811 4.31056H81.5198C81.5331 4.13057 81.5086 3.94978 81.4479 3.7798C81.3873 3.60983 81.2917 3.45443 81.1674 3.32359C81.043 3.19275 80.8927 3.08937 80.7261 3.02008C80.5594 2.95079 80.3801 2.91714 80.1997 2.92128C80.0166 2.91898 79.835 2.95334 79.6654 3.02236C79.4958 3.09137 79.3418 3.19362 79.2124 3.3231C79.083 3.45258 78.9808 3.60665 78.9118 3.77624C78.8429 3.94583 78.8086 4.12751 78.811 4.31056H78.811Z" fill="black"/>
</svg>
