<svg width="45" height="44" viewBox="0 0 45 44" fill="none" xmlns="http://www.w3.org/2000/svg">
<circle cx="22.3333" cy="22" r="22" fill="#3BB77E"/>
<path d="M31.9331 31.6V24.568C31.9331 21.112 31.1891 18.472 27.1571 18.472C25.2131 18.472 23.9171 19.528 23.3891 20.536H23.3411V18.784H19.5251V31.6H23.5091V25.24C23.5091 23.56 23.8211 21.952 25.8851 21.952C27.9251 21.952 27.9491 23.848 27.9491 25.336V31.576H31.9331V31.6Z" fill="white"/>
<path d="M13.0452 18.784H17.0292V31.6H13.0452V18.784Z" fill="white"/>
<path d="M15.0372 12.4C13.7652 12.4 12.7332 13.432 12.7332 14.704C12.7332 15.976 13.7652 17.032 15.0372 17.032C16.3092 17.032 17.3412 15.976 17.3412 14.704C17.3412 13.432 16.3092 12.4 15.0372 12.4V12.4Z" fill="white"/>
</svg>
