<svg width="86" height="106" viewBox="0 0 86 106" fill="none" xmlns="http://www.w3.org/2000/svg">
<path d="M13.0884 23.3041V10.3603C13.0884 5.38978 17.1178 1.36035 22.0884 1.36035H63.9121C68.8827 1.36035 72.9121 5.38979 72.9121 10.3604V23.3041M13.0884 64.9737V75.0038V96.2293C13.0884 101.2 17.1178 105.229 22.0884 105.229H63.9121C68.8827 105.229 72.9121 101.2 72.9121 96.2293V64.9737" stroke="white" stroke-width="1.5"/>
<path d="M5.02319 23.9424H80.9768C82.7717 23.9424 84.2268 25.3975 84.2268 27.1924V28.7798V36.1346V37.6943C84.2268 39.4892 82.7717 40.9443 80.9768 40.9443H5.02319C3.22826 40.9443 1.77319 39.4892 1.77319 37.6943V27.1924C1.77319 25.3975 3.22827 23.9424 5.02319 23.9424Z" stroke="white" stroke-width="1.5"/>
<path d="M5.02319 47.5332H80.9768C82.7717 47.5332 84.2268 48.9883 84.2268 50.7832V52.3706V59.7254V61.2851C84.2268 63.08 82.7717 64.5351 80.9768 64.5351H5.02319C3.22826 64.5351 1.77319 63.08 1.77319 61.2851V50.7832C1.77319 48.9883 3.22827 47.5332 5.02319 47.5332Z" stroke="white" stroke-width="1.5"/>
<path d="M12.6881 34.1389C13.251 33.5757 13.5672 32.8121 13.5672 32.0158C13.5672 31.2195 13.251 30.4559 12.6881 29.8927C12.4094 29.6139 12.0786 29.3927 11.7145 29.2418C11.3503 29.0909 10.96 29.0132 10.5658 29.0132C10.1716 29.0132 9.78133 29.0909 9.41718 29.2418C9.05303 29.3927 8.72219 29.6139 8.44356 29.8927C7.88066 30.4559 7.56445 31.2195 7.56445 32.0158C7.56445 32.8121 7.88066 33.5757 8.44356 34.1389L9.09567 34.7816L9.97158 35.6326L10.0286 35.6832C10.3609 35.9525 10.8475 35.9353 11.1605 35.6326L12.2045 34.6165L12.6881 34.1389ZM10.5658 33.3007C10.2247 33.3007 9.89754 33.1652 9.65632 32.924C9.41511 32.6828 9.2796 32.3556 9.2796 32.0145C9.2796 31.6734 9.41511 31.3462 9.65632 31.105C9.89754 30.8638 10.2247 30.7283 10.5658 30.7283C10.9069 30.7283 11.2341 30.8638 11.4753 31.105C11.7165 31.3462 11.852 31.6734 11.852 32.0145C11.852 32.3556 11.7165 32.6828 11.4753 32.924C11.2341 33.1652 10.9069 33.3007 10.5658 33.3007Z" fill="white"/>
<path d="M12.6881 57.7297C13.251 57.1665 13.5672 56.4029 13.5672 55.6066C13.5672 54.8104 13.251 54.0467 12.6881 53.4835C12.4094 53.2047 12.0786 52.9835 11.7145 52.8326C11.3503 52.6817 10.96 52.604 10.5658 52.604C10.1716 52.604 9.78133 52.6817 9.41718 52.8326C9.05303 52.9835 8.72219 53.2047 8.44356 53.4835C7.88066 54.0467 7.56445 54.8104 7.56445 55.6066C7.56445 56.4029 7.88066 57.1665 8.44356 57.7297L9.09567 58.3724L9.97158 59.2235L10.0286 59.2741C10.3609 59.5433 10.8475 59.5261 11.1605 59.2235L12.2045 58.2073L12.6881 57.7297ZM10.5658 56.8915C10.2247 56.8915 9.89754 56.756 9.65632 56.5148C9.41511 56.2736 9.2796 55.9465 9.2796 55.6053C9.2796 55.2642 9.41511 54.937 9.65632 54.6958C9.89754 54.4546 10.2247 54.3191 10.5658 54.3191C10.9069 54.3191 11.2341 54.4546 11.4753 54.6958C11.7165 54.937 11.852 55.2642 11.852 55.6053C11.852 55.9465 11.7165 56.2736 11.4753 56.5148C11.2341 56.756 10.9069 56.8915 10.5658 56.8915Z" fill="white"/>
<path d="M21.5156 70.1499H64.4842C66.2792 70.1499 67.7342 71.605 67.7342 73.3999V74.9873V82.3421V83.9018C67.7342 85.6967 66.2792 87.1518 64.4842 87.1518H21.5156C19.7207 87.1518 18.2656 85.6967 18.2656 83.9018V73.3999C18.2656 71.605 19.7207 70.1499 21.5156 70.1499Z" stroke="#FBA403" stroke-width="1.5"/>
<path d="M24.1074 78.6509H61.6482" stroke="#FBA403" stroke-width="1.5" stroke-linecap="round"/>
<line x1="38.1758" y1="9.05908" x2="47.8244" y2="9.05908" stroke="white" stroke-linecap="round"/>
<line x1="33.082" y1="98.1045" x2="52.9181" y2="98.1045" stroke="white" stroke-linecap="round"/>
</svg>
