<svg width="96" height="106" viewBox="0 0 96 106" fill="none" xmlns="http://www.w3.org/2000/svg">
<path d="M14.2935 25.363V10.3603C14.2935 5.38979 18.3229 1.36035 23.2935 1.36035H65.1172C70.0877 1.36035 74.1172 5.38979 74.1172 10.3604V25.363M14.2935 70.974L14.2935 96.2293C14.2935 101.2 18.3229 105.229 23.2935 105.229H65.1172C70.0877 105.229 74.1172 101.2 74.1172 96.2293V70.974" stroke="white" stroke-width="1.5"/>
<line x1="39.3809" y1="9.05908" x2="49.0295" y2="9.05908" stroke="white" stroke-linecap="round"/>
<line x1="34.2871" y1="98.1045" x2="54.1232" y2="98.1045" stroke="white" stroke-linecap="round"/>
<path d="M84.9433 38.668V28.4902C84.9433 26.2811 83.1525 24.4902 80.9433 24.4902H4.98975C2.78061 24.4902 0.989746 26.2811 0.989746 28.4902V67.438C0.989746 69.6472 2.7806 71.438 4.98974 71.438H80.9433C83.1525 71.438 84.9433 69.6472 84.9433 67.438V57.3306" stroke="white" stroke-width="1.5"/>
<path d="M39.9676 18.705C39.9524 18.705 39.9448 18.6955 39.9448 18.6766L39.9562 14.7655C39.9562 14.7503 39.9638 14.7427 39.979 14.7427H41.129C41.3339 14.7427 41.5218 14.7939 41.6926 14.8964C41.8672 14.9951 42.0057 15.1298 42.1082 15.3006C42.2106 15.4676 42.2619 15.6574 42.2619 15.8699C42.2619 16.0104 42.241 16.1375 42.1993 16.2514C42.1575 16.3614 42.1082 16.4563 42.0512 16.536C41.9943 16.6119 41.9431 16.6688 41.8975 16.7068C42.1025 16.9345 42.2049 17.2021 42.2049 17.5095L42.2106 18.6766C42.2106 18.6955 42.2011 18.705 42.1822 18.705H41.5389C41.5237 18.705 41.5161 18.6993 41.5161 18.688V17.5095C41.5161 17.3729 41.4668 17.2552 41.3681 17.1565C41.2732 17.0541 41.1555 17.0028 41.0151 17.0028H40.6394L40.6337 18.6766C40.6337 18.6955 40.6261 18.705 40.6109 18.705H39.9676ZM40.6394 16.3197H41.129C41.2466 16.3197 41.351 16.276 41.4421 16.1887C41.5332 16.1014 41.5787 15.9952 41.5787 15.8699C41.5787 15.7485 41.5332 15.6441 41.4421 15.5568C41.3548 15.4695 41.2504 15.4259 41.129 15.4259H40.6394V16.3197Z" fill="#FBA403"/>
<path d="M42.7197 18.705C42.7007 18.705 42.6912 18.6955 42.6912 18.6766L42.6969 14.7655C42.6969 14.7503 42.7045 14.7427 42.7197 14.7427H43.3573C43.3725 14.7427 43.3801 14.7503 43.3801 14.7655L43.3858 18.6766C43.3858 18.6955 43.3782 18.705 43.363 18.705H42.7197Z" fill="#FBA403"/>
<path d="M43.915 18.705C43.896 18.705 43.8866 18.6955 43.8866 18.6766L43.8979 14.7655C43.8979 14.7503 43.9055 14.7427 43.9207 14.7427L44.9853 14.737C45.194 14.7332 45.3838 14.7826 45.5546 14.885C45.7292 14.9875 45.8677 15.126 45.9702 15.3006C46.0727 15.4714 46.1239 15.6612 46.1239 15.8699V17.5038C46.1239 17.7239 46.0708 17.9251 45.9645 18.1073C45.8582 18.2857 45.7159 18.428 45.5375 18.5342C45.3591 18.6405 45.158 18.6955 44.9341 18.6993L43.915 18.705ZM44.5811 18.0048H44.9341C45.0745 18.0048 45.1921 17.9555 45.287 17.8568C45.3857 17.7581 45.435 17.6404 45.435 17.5038V15.8642C45.435 15.7428 45.3895 15.6384 45.2984 15.5511C45.2111 15.46 45.1068 15.4164 44.9853 15.4202L44.5868 15.4259L44.5811 18.0048Z" fill="#FBA403"/>
<path d="M46.5946 18.705C46.5794 18.705 46.5718 18.6955 46.5718 18.6766L46.5775 14.7655C46.5775 14.7503 46.5851 14.7427 46.6003 14.7427H48.4277C48.4429 14.7427 48.4505 14.7522 48.4505 14.7712V15.4088C48.4505 15.424 48.4429 15.4316 48.4277 15.4316H47.2607V16.3197H48.4277C48.4429 16.3197 48.4505 16.3273 48.4505 16.3424L48.4562 16.9858C48.4562 17.0009 48.4486 17.0085 48.4334 17.0085H47.2607V18.0048H48.4334C48.4486 18.0048 48.4562 18.0143 48.4562 18.0333C48.4562 18.0522 48.4562 18.6823 48.4562 18.6823C48.4562 18.6974 48.4486 18.705 48.4334 18.705C48.4183 18.705 46.5946 18.705 46.5946 18.705Z" fill="#FBA403"/>
<path d="M43.5801 13.2075L43.5818 13.1491C43.583 13.1124 43.5864 13.0723 43.5921 13.0288L43.6059 12.9273C43.6087 12.9033 43.6116 12.8815 43.6145 12.862C43.56 12.9216 43.5162 12.968 43.483 13.0012L43.3841 13.0975C43.1629 13.3044 43.0311 13.4078 42.9887 13.4078C42.9263 13.4078 42.8607 13.3943 42.7919 13.3674C42.7546 13.3525 42.7334 13.337 42.7283 13.321C42.7203 13.3009 42.7162 13.2737 42.7162 13.2393C42.7162 13.2044 42.7174 13.1723 42.7197 13.1431C42.722 13.1138 42.7248 13.0849 42.7283 13.0563C42.7317 13.027 42.7352 12.9992 42.7386 12.9729C42.7426 12.946 42.7458 12.9225 42.7481 12.9024C42.7538 12.8571 42.7549 12.8345 42.7515 12.8345L42.4317 13.2273C42.281 13.4044 42.1954 13.5024 42.1747 13.5213C42.1306 13.5614 42.0819 13.5814 42.0286 13.5814C42.0023 13.5814 41.9805 13.5749 41.9633 13.5617C41.9461 13.5485 41.9375 13.5322 41.9375 13.5127C41.9375 13.4737 41.9538 13.433 41.9865 13.3906L42.7498 12.4202L42.8392 12.3128C42.9457 12.1873 43.0157 12.1245 43.0489 12.1245C43.0953 12.1245 43.1394 12.1363 43.1813 12.1598C43.2185 12.1804 43.2397 12.2004 43.2449 12.2199C43.2472 12.2274 43.2423 12.262 43.2303 12.3239L43.2002 12.4864C43.1664 12.6675 43.1495 12.7844 43.1495 12.8371C43.1495 12.8892 43.1555 12.9153 43.1675 12.9153C43.2065 12.9153 43.2815 12.8514 43.3927 12.7236L43.6712 12.3901C43.7325 12.3196 43.7732 12.2795 43.7933 12.2698C43.799 12.2669 43.8073 12.2655 43.8182 12.2655C43.8291 12.2655 43.8411 12.2669 43.8543 12.2698C43.868 12.2726 43.8818 12.2764 43.8955 12.2809C43.9099 12.2855 43.9236 12.291 43.9368 12.2973C43.95 12.3036 43.9617 12.3102 43.972 12.317C43.9944 12.3319 44.0053 12.3443 44.0047 12.354C44.0047 12.3632 44.0024 12.3835 43.9978 12.415C43.9932 12.446 43.9875 12.4838 43.9806 12.5285C43.9331 12.8248 43.9081 12.9967 43.9059 13.0442C43.9041 13.0918 43.909 13.1216 43.9205 13.1336C43.9325 13.1457 43.95 13.1517 43.9729 13.1517C44.0147 13.1517 44.0755 13.1267 44.1551 13.0769C44.209 13.0431 44.2534 13.0262 44.2884 13.0262C44.3239 13.0262 44.3416 13.0431 44.3416 13.0769C44.3416 13.1118 44.3227 13.1542 44.2849 13.2041C44.2305 13.2763 44.1491 13.3416 44.0408 13.4001C43.9497 13.4488 43.8632 13.4731 43.7812 13.4731C43.6471 13.4731 43.5801 13.3846 43.5801 13.2075Z" fill="#FBA403"/>
<path d="M44.6751 13.0511C44.6751 13.0775 44.6926 13.0906 44.7276 13.0906C44.7986 13.0906 44.9195 13.0021 45.0903 12.825L45.1737 12.7408C45.2304 12.6852 45.2679 12.6574 45.2863 12.6574C45.3046 12.6574 45.321 12.6606 45.3353 12.6669C45.3496 12.6732 45.3622 12.6812 45.3731 12.691C45.3954 12.711 45.4066 12.7325 45.4066 12.7554C45.4066 12.7778 45.404 12.8027 45.3989 12.8302C45.3943 12.8571 45.3869 12.8875 45.3765 12.9213C45.3576 12.9843 45.3235 13.0689 45.2743 13.1749L45.239 13.2505L45.3851 13.1181L45.6843 12.862C45.7146 12.8391 45.7398 12.8276 45.7599 12.8276C45.8034 12.8276 45.8252 12.8485 45.8252 12.8904C45.8252 12.9333 45.7971 12.9886 45.741 13.0563C45.7238 13.0775 45.7052 13.0972 45.6851 13.1156L45.4823 13.2918L45.0869 13.6261C45.0519 13.6565 45.0256 13.6806 45.0078 13.6983C44.9866 13.7327 44.97 13.7582 44.9579 13.7748C44.9465 13.792 44.935 13.8101 44.9236 13.829C44.9121 13.8485 44.9009 13.8651 44.89 13.8788C44.8665 13.9086 44.843 13.9235 44.8196 13.9235C44.7949 13.9235 44.7711 13.9135 44.7482 13.8935C44.7058 13.8562 44.6846 13.823 44.6846 13.7937C44.6846 13.7645 44.6926 13.7304 44.7087 13.6915C44.7247 13.6531 44.7456 13.6089 44.7714 13.5591L44.9536 13.223C44.866 13.3021 44.7972 13.3545 44.7474 13.3803C44.6975 13.4055 44.6554 13.4221 44.621 13.4302C44.5872 13.4388 44.5511 13.4431 44.5127 13.4431C44.4749 13.4431 44.4416 13.435 44.413 13.419C44.3843 13.4035 44.3606 13.3826 44.3416 13.3562C44.305 13.3041 44.2866 13.2362 44.2866 13.1525C44.2866 13.0637 44.309 12.976 44.3537 12.8895C44.3967 12.8047 44.4534 12.7365 44.5239 12.6849C44.5984 12.6299 44.6749 12.6024 44.7534 12.6024C44.8319 12.6024 44.8711 12.6331 44.8711 12.6944C44.8711 12.7328 44.8385 12.7898 44.7731 12.8654C44.7078 12.9405 44.6751 13.0024 44.6751 13.0511Z" fill="#FBA403"/>
<rect x="45.0127" y="15.9058" width="0.426761" height="0.408421" fill="#FBA403"/>
<rect x="44.5859" y="16.3145" width="0.426761" height="0.408421" fill="#FBA403"/>
<rect x="45.0127" y="16.7192" width="0.426761" height="0.408421" fill="#FBA403"/>
<rect x="44.5859" y="17.1274" width="0.426761" height="0.408421" fill="#FBA403"/>
<path fill-rule="evenodd" clip-rule="evenodd" d="M39.0349 12.9702C38.4308 12.9702 37.8888 13.3413 37.6702 13.9044L36.0864 17.9851C35.7139 18.9446 36.4218 19.9787 37.4511 19.9787H50.9587C51.9879 19.9787 52.6958 18.9446 52.3234 17.9851L50.7396 13.9044C50.521 13.3413 49.9789 12.9702 49.3749 12.9702H46.8828V12.6449H49.3749C50.1132 12.6449 50.7757 13.0984 51.0428 13.7867L52.6267 17.8674C53.0819 19.0402 52.2167 20.304 50.9587 20.304H37.4511C36.1931 20.304 35.3279 19.0402 35.7831 17.8674L37.3669 13.7867C37.6341 13.0984 38.2966 12.6449 39.0349 12.6449H41.212V12.9702H39.0349Z" fill="#FBA403"/>
<line x1="31.8164" y1="61.3101" x2="38.1346" y2="61.3101" stroke="white" stroke-width="1.5" stroke-linecap="round"/>
<line x1="43.6348" y1="61.3101" x2="49.953" y2="61.3101" stroke="white" stroke-width="1.5" stroke-linecap="round"/>
<line x1="55.4531" y1="61.3101" x2="61.7713" y2="61.3101" stroke="white" stroke-width="1.5" stroke-linecap="round"/>
<line x1="67.271" y1="61.3101" x2="73.5892" y2="61.3101" stroke="white" stroke-width="1.5" stroke-linecap="round"/>
<line x1="31.8164" y1="34.3936" x2="71.4485" y2="34.3936" stroke="white" stroke-width="1.5" stroke-linecap="round"/>
<line x1="31.8164" y1="40.7778" x2="71.4485" y2="40.7778" stroke="white" stroke-width="1.5" stroke-linecap="round"/>
<line x1="31.8164" y1="46.4707" x2="53.873" y2="46.4707" stroke="white" stroke-width="1.5" stroke-linecap="round"/>
<circle cx="84.9435" cy="47.7101" r="9.317" stroke="#FBA403" stroke-width="1.5"/>
<path d="M80.5757 47.1839L83.7751 50.3835L89.3114 44.8472" stroke="#FBA403" stroke-width="1.5" stroke-linecap="round"/>
<path fill-rule="evenodd" clip-rule="evenodd" d="M9.68799 58.7769C9.68799 58.2246 10.1357 57.7769 10.688 57.7769H17.8994C18.4517 57.7769 18.8994 58.2246 18.8994 58.7769V59.2881L9.68799 59.2881V58.7769ZM9.68799 60.1745L18.8994 60.1745V62.968C18.8994 63.5203 18.4517 63.968 17.8994 63.968H10.688C10.1357 63.968 9.68799 63.5203 9.68799 62.968V60.1745ZM11.2999 61.8916C11.0575 61.8916 10.8611 62.0881 10.8611 62.3304C10.8611 62.5728 11.0575 62.7692 11.2999 62.7692H12.2303C12.4727 62.7692 12.6691 62.5728 12.6691 62.3304C12.6691 62.0881 12.4727 61.8916 12.2303 61.8916H11.2999Z" fill="white"/>
<circle cx="14.2933" cy="37.4998" r="3.85578" stroke="white" stroke-width="1.5"/>
<path d="M7.32715 45.5773C7.32715 45.5773 7.55135 44.1496 9.20255 42.4984C10.3532 41.3477 12.048 40.8564 12.048 40.8564" stroke="white" stroke-width="1.5" stroke-linecap="round"/>
<path d="M21.2598 45.5773C21.2598 45.5773 21.0356 44.1496 19.3844 42.4984C18.2337 41.3477 16.5389 40.8564 16.5389 40.8564" stroke="white" stroke-width="1.5" stroke-linecap="round"/>
</svg>
