<svg width="96" height="106" viewBox="0 0 96 106" fill="none" xmlns="http://www.w3.org/2000/svg">
<path d="M14.2933 25.363V10.3603C14.2933 5.38979 18.3228 1.36035 23.2933 1.36035H65.1171C70.0876 1.36035 74.1171 5.38979 74.1171 10.3604V25.363M14.2933 70.974L14.2933 96.2293C14.2933 101.2 18.3228 105.229 23.2933 105.229H65.1171C70.0876 105.229 74.1171 101.2 74.1171 96.2293V70.974" stroke="white" stroke-width="1.5"/>
<line x1="39.3808" y1="9.05908" x2="49.0294" y2="9.05908" stroke="white" stroke-linecap="round"/>
<line x1="34.287" y1="98.1045" x2="54.1231" y2="98.1045" stroke="white" stroke-linecap="round"/>
<path d="M84.9432 38.668V28.4902C84.9432 26.2811 83.1524 24.4902 80.9432 24.4902H4.98964C2.7805 24.4902 0.989639 26.2811 0.989639 28.4902V67.438C0.989639 69.6472 2.7805 71.438 4.98964 71.438H80.9432C83.1524 71.438 84.9432 69.6472 84.9432 67.438V57.3306" stroke="white" stroke-width="1.5"/>
<path d="M39.9678 18.705C39.9526 18.705 39.945 18.6955 39.945 18.6766L39.9564 14.7655C39.9564 14.7503 39.964 14.7427 39.9792 14.7427H41.1292C41.3341 14.7427 41.522 14.7939 41.6928 14.8964C41.8673 14.9951 42.0059 15.1298 42.1084 15.3006C42.2108 15.4676 42.2621 15.6574 42.2621 15.8699C42.2621 16.0104 42.2412 16.1375 42.1994 16.2514C42.1577 16.3614 42.1084 16.4563 42.0514 16.536C41.9945 16.6119 41.9433 16.6688 41.8977 16.7068C42.1027 16.9345 42.2051 17.2021 42.2051 17.5095L42.2108 18.6766C42.2108 18.6955 42.2013 18.705 42.1824 18.705H41.5391C41.5239 18.705 41.5163 18.6993 41.5163 18.688V17.5095C41.5163 17.3729 41.4669 17.2552 41.3683 17.1565C41.2734 17.0541 41.1557 17.0028 41.0153 17.0028H40.6396L40.6339 18.6766C40.6339 18.6955 40.6263 18.705 40.6111 18.705H39.9678ZM40.6396 16.3197H41.1292C41.2468 16.3197 41.3512 16.276 41.4423 16.1887C41.5334 16.1014 41.5789 15.9952 41.5789 15.8699C41.5789 15.7485 41.5334 15.6441 41.4423 15.5568C41.355 15.4695 41.2506 15.4259 41.1292 15.4259H40.6396V16.3197Z" fill="#FBA403"/>
<path d="M42.7199 18.705C42.7009 18.705 42.6914 18.6955 42.6914 18.6766L42.6971 14.7655C42.6971 14.7503 42.7047 14.7427 42.7199 14.7427H43.3575C43.3727 14.7427 43.3803 14.7503 43.3803 14.7655L43.386 18.6766C43.386 18.6955 43.3784 18.705 43.3632 18.705H42.7199Z" fill="#FBA403"/>
<path d="M43.9152 18.705C43.8962 18.705 43.8867 18.6955 43.8867 18.6766L43.8981 14.7655C43.8981 14.7503 43.9057 14.7427 43.9209 14.7427L44.9855 14.737C45.1942 14.7332 45.384 14.7826 45.5548 14.885C45.7294 14.9875 45.8679 15.126 45.9704 15.3006C46.0729 15.4714 46.1241 15.6612 46.1241 15.8699V17.5038C46.1241 17.7239 46.071 17.9251 45.9647 18.1073C45.8584 18.2857 45.7161 18.428 45.5377 18.5342C45.3593 18.6405 45.1582 18.6955 44.9343 18.6993L43.9152 18.705ZM44.5813 18.0048H44.9343C45.0747 18.0048 45.1923 17.9555 45.2872 17.8568C45.3859 17.7581 45.4352 17.6404 45.4352 17.5038V15.8642C45.4352 15.7428 45.3897 15.6384 45.2986 15.5511C45.2113 15.46 45.1069 15.4164 44.9855 15.4202L44.587 15.4259L44.5813 18.0048Z" fill="#FBA403"/>
<path d="M46.5948 18.705C46.5796 18.705 46.572 18.6955 46.572 18.6766L46.5777 14.7655C46.5777 14.7503 46.5853 14.7427 46.6005 14.7427H48.4279C48.4431 14.7427 48.4507 14.7522 48.4507 14.7712V15.4088C48.4507 15.424 48.4431 15.4316 48.4279 15.4316H47.2609V16.3197H48.4279C48.4431 16.3197 48.4507 16.3273 48.4507 16.3424L48.4564 16.9858C48.4564 17.0009 48.4488 17.0085 48.4336 17.0085H47.2609V18.0048H48.4336C48.4488 18.0048 48.4564 18.0143 48.4564 18.0333C48.4564 18.0522 48.4564 18.6823 48.4564 18.6823C48.4564 18.6974 48.4488 18.705 48.4336 18.705C48.4184 18.705 46.5948 18.705 46.5948 18.705Z" fill="#FBA403"/>
<path d="M43.5805 13.2075L43.5822 13.1491C43.5833 13.1124 43.5868 13.0723 43.5925 13.0288L43.6063 12.9273C43.6091 12.9033 43.612 12.8815 43.6149 12.862C43.5604 12.9216 43.5166 12.968 43.4833 13.0012L43.3845 13.0975C43.1633 13.3044 43.0315 13.4078 42.9891 13.4078C42.9266 13.4078 42.861 13.3943 42.7923 13.3674C42.755 13.3525 42.7338 13.337 42.7287 13.321C42.7206 13.3009 42.7166 13.2737 42.7166 13.2393C42.7166 13.2044 42.7178 13.1723 42.7201 13.1431C42.7224 13.1138 42.7252 13.0849 42.7287 13.0563C42.7321 13.027 42.7355 12.9992 42.739 12.9729C42.743 12.946 42.7461 12.9225 42.7484 12.9024C42.7542 12.8571 42.7553 12.8345 42.7519 12.8345L42.4321 13.2273C42.2814 13.4044 42.1957 13.5024 42.1751 13.5213C42.131 13.5614 42.0823 13.5814 42.029 13.5814C42.0026 13.5814 41.9809 13.5749 41.9637 13.5617C41.9465 13.5485 41.9379 13.5322 41.9379 13.5127C41.9379 13.4737 41.9542 13.433 41.9869 13.3906L42.7502 12.4202L42.8395 12.3128C42.9461 12.1873 43.016 12.1245 43.0493 12.1245C43.0957 12.1245 43.1398 12.1363 43.1816 12.1598C43.2189 12.1804 43.2401 12.2004 43.2452 12.2199C43.2475 12.2274 43.2427 12.262 43.2306 12.3239L43.2006 12.4864C43.1667 12.6675 43.1498 12.7844 43.1498 12.8371C43.1498 12.8892 43.1559 12.9153 43.1679 12.9153C43.2069 12.9153 43.2819 12.8514 43.3931 12.7236L43.6716 12.3901C43.7329 12.3196 43.7736 12.2795 43.7936 12.2698C43.7994 12.2669 43.8077 12.2655 43.8186 12.2655C43.8295 12.2655 43.8415 12.2669 43.8547 12.2698C43.8684 12.2726 43.8822 12.2764 43.8959 12.2809C43.9103 12.2855 43.924 12.291 43.9372 12.2973C43.9504 12.3036 43.9621 12.3102 43.9724 12.317C43.9948 12.3319 44.0057 12.3443 44.0051 12.354C44.0051 12.3632 44.0028 12.3835 43.9982 12.415C43.9936 12.446 43.9879 12.4838 43.981 12.5285C43.9335 12.8248 43.9085 12.9967 43.9062 13.0442C43.9045 13.0918 43.9094 13.1216 43.9209 13.1336C43.9329 13.1457 43.9504 13.1517 43.9733 13.1517C44.0151 13.1517 44.0759 13.1267 44.1555 13.0769C44.2094 13.0431 44.2538 13.0262 44.2887 13.0262C44.3243 13.0262 44.342 13.0431 44.342 13.0769C44.342 13.1118 44.3231 13.1542 44.2853 13.2041C44.2309 13.2763 44.1495 13.3416 44.0412 13.4001C43.9501 13.4488 43.8635 13.4731 43.7816 13.4731C43.6475 13.4731 43.5805 13.3846 43.5805 13.2075Z" fill="#FBA403"/>
<path d="M44.6755 13.0511C44.6755 13.0775 44.693 13.0906 44.728 13.0906C44.799 13.0906 44.9199 13.0021 45.0907 12.825L45.1741 12.7408C45.2308 12.6852 45.2683 12.6574 45.2867 12.6574C45.305 12.6574 45.3213 12.6606 45.3357 12.6669C45.35 12.6732 45.3626 12.6812 45.3735 12.691C45.3958 12.711 45.407 12.7325 45.407 12.7554C45.407 12.7778 45.4044 12.8027 45.3993 12.8302C45.3947 12.8571 45.3872 12.8875 45.3769 12.9213C45.358 12.9843 45.3239 13.0689 45.2746 13.1749L45.2394 13.2505L45.3855 13.1181L45.6846 12.862C45.715 12.8391 45.7402 12.8276 45.7603 12.8276C45.8038 12.8276 45.8256 12.8485 45.8256 12.8904C45.8256 12.9333 45.7975 12.9886 45.7414 13.0563C45.7242 13.0775 45.7056 13.0972 45.6855 13.1156L45.4826 13.2918L45.0873 13.6261C45.0523 13.6565 45.0259 13.6806 45.0082 13.6983C44.987 13.7327 44.9704 13.7582 44.9583 13.7748C44.9469 13.792 44.9354 13.8101 44.9239 13.829C44.9125 13.8485 44.9013 13.8651 44.8904 13.8788C44.8669 13.9086 44.8434 13.9235 44.8199 13.9235C44.7953 13.9235 44.7715 13.9135 44.7486 13.8935C44.7062 13.8562 44.685 13.823 44.685 13.7937C44.685 13.7645 44.693 13.7304 44.7091 13.6915C44.7251 13.6531 44.746 13.6089 44.7718 13.5591L44.954 13.223C44.8664 13.3021 44.7976 13.3545 44.7477 13.3803C44.6979 13.4055 44.6558 13.4221 44.6214 13.4302C44.5876 13.4388 44.5515 13.4431 44.5131 13.4431C44.4753 13.4431 44.442 13.435 44.4134 13.419C44.3847 13.4035 44.3609 13.3826 44.342 13.3562C44.3054 13.3041 44.287 13.2362 44.287 13.1525C44.287 13.0637 44.3094 12.976 44.3541 12.8895C44.397 12.8047 44.4538 12.7365 44.5243 12.6849C44.5987 12.6299 44.6752 12.6024 44.7537 12.6024C44.8323 12.6024 44.8715 12.6331 44.8715 12.6944C44.8715 12.7328 44.8388 12.7898 44.7735 12.8654C44.7082 12.9405 44.6755 13.0024 44.6755 13.0511Z" fill="#FBA403"/>
<rect x="45.0129" y="15.9058" width="0.426761" height="0.408421" fill="#FBA403"/>
<rect x="44.5861" y="16.3145" width="0.426761" height="0.408421" fill="#FBA403"/>
<rect x="45.0129" y="16.7192" width="0.426761" height="0.408421" fill="#FBA403"/>
<rect x="44.5861" y="17.1274" width="0.426761" height="0.408421" fill="#FBA403"/>
<path fill-rule="evenodd" clip-rule="evenodd" d="M39.0351 12.9702C38.431 12.9702 37.8889 13.3413 37.6703 13.9044L36.0865 17.9851C35.7141 18.9446 36.422 19.9787 37.4512 19.9787H50.9588C51.9881 19.9787 52.696 18.9446 52.3236 17.9851L50.7397 13.9044C50.5211 13.3413 49.9791 12.9702 49.375 12.9702H46.8829V12.6449H49.375C50.1133 12.6449 50.7758 13.0984 51.043 13.7867L52.6268 17.8674C53.082 19.0402 52.2168 20.304 50.9588 20.304H37.4512C36.1932 20.304 35.328 19.0402 35.7832 17.8674L37.3671 13.7867C37.6342 13.0984 38.2967 12.6449 39.0351 12.6449H41.2121V12.9702H39.0351Z" fill="#FBA403"/>
<line x1="31.8165" y1="61.3101" x2="38.1347" y2="61.3101" stroke="white" stroke-width="1.5" stroke-linecap="round"/>
<line x1="43.6347" y1="61.3101" x2="49.9529" y2="61.3101" stroke="white" stroke-width="1.5" stroke-linecap="round"/>
<line x1="55.4528" y1="61.3101" x2="61.771" y2="61.3101" stroke="white" stroke-width="1.5" stroke-linecap="round"/>
<line x1="67.2709" y1="61.3101" x2="73.5891" y2="61.3101" stroke="white" stroke-width="1.5" stroke-linecap="round"/>
<line x1="31.8165" y1="34.3936" x2="71.4487" y2="34.3936" stroke="white" stroke-width="1.5" stroke-linecap="round"/>
<line x1="31.8165" y1="40.7778" x2="71.4487" y2="40.7778" stroke="white" stroke-width="1.5" stroke-linecap="round"/>
<line x1="31.8165" y1="46.4707" x2="53.8732" y2="46.4707" stroke="white" stroke-width="1.5" stroke-linecap="round"/>
<circle cx="84.9434" cy="47.7101" r="9.317" stroke="#FBA403" stroke-width="1.5"/>
<path d="M80.5756 47.1839L83.775 50.3835L89.3113 44.8472" stroke="#FBA403" stroke-width="1.5" stroke-linecap="round"/>
<path fill-rule="evenodd" clip-rule="evenodd" d="M9.68788 58.7769C9.68788 58.2246 10.1356 57.7769 10.6879 57.7769H17.8993C18.4516 57.7769 18.8993 58.2246 18.8993 58.7769V59.2881L9.68788 59.2881V58.7769ZM9.68788 60.1745L18.8993 60.1745V62.968C18.8993 63.5203 18.4516 63.968 17.8993 63.968H10.6879C10.1356 63.968 9.68788 63.5203 9.68788 62.968V60.1745ZM11.2998 61.8916C11.0574 61.8916 10.861 62.0881 10.861 62.3304C10.861 62.5728 11.0574 62.7692 11.2998 62.7692H12.2302C12.4726 62.7692 12.669 62.5728 12.669 62.3304C12.669 62.0881 12.4726 61.8916 12.2302 61.8916H11.2998Z" fill="white"/>
<circle cx="14.2932" cy="37.4998" r="3.85578" stroke="white" stroke-width="1.5"/>
<path d="M7.32704 45.5773C7.32704 45.5773 7.55124 44.1496 9.20245 42.4984C10.3531 41.3477 12.0479 40.8564 12.0479 40.8564" stroke="white" stroke-width="1.5" stroke-linecap="round"/>
<path d="M21.2594 45.5773C21.2594 45.5773 21.0352 44.1496 19.384 42.4984C18.2333 41.3477 16.5385 40.8564 16.5385 40.8564" stroke="white" stroke-width="1.5" stroke-linecap="round"/>
</svg>
