<svg width="83" height="8" fill="none" xmlns="http://www.w3.org/2000/svg"><path d="M2.816.381a3.144 3.144 0 0 1 3.343 3.531c0 2.27-1.227 3.575-3.343 3.575H.249V.381h2.567ZM1.353 6.482h1.34a2.234 2.234 0 0 0 2.343-2.555 2.24 2.24 0 0 0-2.344-2.542h-1.34v5.097ZM7.406 4.805a2.54 2.54 0 1 1 5.058 0 2.541 2.541 0 1 1-5.058 0Zm3.97 0c0-1.163-.523-1.842-1.44-1.842-.92 0-1.437.68-1.437 1.842 0 1.172.518 1.846 1.438 1.846.916 0 1.439-.679 1.439-1.846ZM19.188 7.488H18.09l-1.108-3.95h-.084l-1.104 3.95h-1.087l-1.479-5.363h1.074l.96 4.092h.08l1.102-4.092h1.016l1.102 4.092h.084l.956-4.092h1.058l-1.472 5.363ZM21.904 2.124h1.019v.852h.079a1.605 1.605 0 0 1 1.6-.955 1.745 1.745 0 0 1 1.856 1.994v3.472H25.4V4.281c0-.862-.374-1.29-1.157-1.29a1.23 1.23 0 0 0-1.28 1.359v3.137h-1.06V2.124ZM28.145.031h1.058v7.457h-1.058V.03ZM30.674 4.803a2.54 2.54 0 1 1 5.059 0 2.54 2.54 0 0 1-4.411 1.954 2.541 2.541 0 0 1-.648-1.954Zm3.97 0c0-1.162-.522-1.842-1.439-1.842-.92 0-1.437.68-1.437 1.842 0 1.172.517 1.846 1.437 1.846.917 0 1.439-.679 1.439-1.846ZM36.848 5.972c0-.966.718-1.522 1.994-1.601l1.453-.084v-.463c0-.566-.375-.886-1.098-.886-.59 0-1 .217-1.118.596h-1.024c.108-.921.974-1.512 2.19-1.512 1.345 0 2.104.67 2.104 1.802v3.664h-1.02v-.753h-.083a1.804 1.804 0 0 1-1.61.842 1.62 1.62 0 0 1-1.788-1.605Zm3.447-.459v-.448l-1.31.084c-.738.05-1.073.3-1.073.773 0 .483.419.764.994.764a1.264 1.264 0 0 0 1.389-1.173ZM42.74 4.804c0-1.695.87-2.768 2.226-2.768a1.767 1.767 0 0 1 1.644.94h.08V.032h1.058v7.457h-1.014V6.64h-.084a1.861 1.861 0 0 1-1.684.936c-1.364 0-2.226-1.074-2.226-2.772Zm1.093 0c0 1.137.536 1.822 1.433 1.822.892 0 1.443-.695 1.443-1.818 0-1.117-.557-1.821-1.443-1.821-.891 0-1.433.689-1.433 1.817ZM52.127 4.805a2.54 2.54 0 1 1 5.058 0 2.541 2.541 0 1 1-5.058 0Zm3.97 0c0-1.163-.523-1.842-1.44-1.842-.92 0-1.437.68-1.437 1.842 0 1.172.518 1.846 1.438 1.846.916 0 1.438-.679 1.438-1.846ZM58.605 2.124h1.019v.852h.08a1.605 1.605 0 0 1 1.6-.955 1.745 1.745 0 0 1 1.856 1.994v3.472H62.1V4.281c0-.862-.374-1.29-1.157-1.29a1.23 1.23 0 0 0-1.28 1.359v3.137h-1.059V2.124ZM69.14.79v1.359h1.162v.892H69.14v2.757c0 .562.232.808.758.808.135 0 .27-.009.404-.024v.881c-.19.034-.383.052-.576.054-1.177 0-1.645-.414-1.645-1.448V3.041h-.852v-.892h.852V.789h1.06ZM71.748.031h1.049v2.955h.084a1.65 1.65 0 0 1 1.635-.96 1.767 1.767 0 0 1 1.847 2v3.462h-1.06V4.286c0-.856-.398-1.29-1.146-1.29a1.253 1.253 0 0 0-1.35 1.36v3.132h-1.059V.03ZM82.534 6.039A2.177 2.177 0 0 1 80.21 7.59a2.436 2.436 0 0 1-2.477-2.768 2.474 2.474 0 0 1 2.472-2.802c1.493 0 2.393 1.02 2.393 2.704v.37H78.81v.059a1.418 1.418 0 0 0 1.428 1.536 1.286 1.286 0 0 0 1.276-.65h1.019ZM78.811 4.31h2.709a1.295 1.295 0 0 0-1.32-1.39 1.372 1.372 0 0 0-1.389 1.39Z" fill="#000"/></svg>