<svg width="89" height="106" viewBox="0 0 89 106" fill="none" xmlns="http://www.w3.org/2000/svg">
<path d="M27.9082 23.3041V10.3603C27.9082 5.38978 31.9376 1.36035 36.9082 1.36035H78.7319C83.7025 1.36035 87.7319 5.38979 87.7319 10.3604V96.2293C87.7319 101.2 83.7025 105.229 78.7319 105.229H36.9082C31.9376 105.229 27.9082 101.2 27.9082 96.2293V75.0038" stroke="white" stroke-width="1.5"/>
<line x1="52.9961" y1="9.05908" x2="62.6447" y2="9.05908" stroke="white" stroke-linecap="round"/>
<line x1="47.9023" y1="98.1045" x2="67.7384" y2="98.1045" stroke="white" stroke-linecap="round"/>
<rect x="1.01807" y="23.6196" width="51.2866" height="51.2866" rx="7.25" stroke="white" stroke-width="1.5"/>
<path d="M27.9083 72.105V86.1768M27.9083 86.1768L22.3281 80.5966M27.9083 86.1768L33.4885 80.5966" stroke="#FBA403" stroke-width="1.5" stroke-linecap="round"/>
<path d="M86.9184 28.2993H68.332C63.9138 28.2993 60.332 31.881 60.332 36.2993V62.2269C60.332 66.6452 63.9138 70.2269 68.332 70.2269H86.9184" stroke="#404040" stroke-width="1.5"/>
<path d="M17.108 54.8789C17.0738 54.8789 17.0566 54.8575 17.0566 54.8148L17.0823 45.9968C17.0823 45.9625 17.0994 45.9454 17.1337 45.9454H19.7264C20.1885 45.9454 20.6121 46.0609 20.9971 46.292C21.3908 46.5145 21.7031 46.8182 21.9341 47.2033C22.1652 47.5798 22.2807 48.0077 22.2807 48.4869C22.2807 48.8035 22.2336 49.0901 22.1395 49.3468C22.0454 49.595 21.9341 49.8089 21.8058 49.9886C21.6774 50.1597 21.5619 50.2881 21.4592 50.3737C21.9213 50.8871 22.1523 51.4904 22.1523 52.1835L22.1652 54.8148C22.1652 54.8575 22.1438 54.8789 22.101 54.8789H20.6506C20.6164 54.8789 20.5992 54.8661 20.5992 54.8404V52.1835C20.5992 51.8754 20.488 51.6102 20.2655 51.3877C20.0516 51.1566 19.7863 51.0411 19.4697 51.0411H18.6226L18.6097 54.8148C18.6097 54.8575 18.5926 54.8789 18.5584 54.8789H17.108ZM18.6226 49.5009H19.7264C19.9917 49.5009 20.227 49.4025 20.4324 49.2056C20.6378 49.0088 20.7404 48.7692 20.7404 48.4869C20.7404 48.213 20.6378 47.9777 20.4324 47.7809C20.2356 47.5841 20.0003 47.4857 19.7264 47.4857H18.6226V49.5009Z" fill="#FBA403"/>
<path d="M23.313 54.8789C23.2702 54.8789 23.2488 54.8575 23.2488 54.8148L23.2616 45.9968C23.2616 45.9625 23.2787 45.9454 23.313 45.9454H24.7505C24.7848 45.9454 24.8019 45.9625 24.8019 45.9968L24.8147 54.8148C24.8147 54.8575 24.7976 54.8789 24.7634 54.8789H23.313Z" fill="#FBA403"/>
<path d="M26.0079 54.8789C25.9651 54.8789 25.9437 54.8575 25.9437 54.8148L25.9694 45.9968C25.9694 45.9625 25.9865 45.9454 26.0207 45.9454L28.421 45.9326C28.8916 45.924 29.3195 46.0353 29.7045 46.2663C30.0982 46.4973 30.4105 46.8097 30.6415 47.2033C30.8726 47.5884 30.9881 48.0162 30.9881 48.4869V52.1706C30.9881 52.667 30.8683 53.1205 30.6287 53.5312C30.3891 53.9334 30.0682 54.2543 29.666 54.4939C29.2639 54.7335 28.8103 54.8575 28.3055 54.8661L26.0079 54.8789ZM27.5097 53.3002H28.3055C28.6221 53.3002 28.8873 53.1889 29.1013 52.9664C29.3238 52.744 29.435 52.4787 29.435 52.1706V48.474C29.435 48.2002 29.3323 47.9649 29.1269 47.7681C28.9301 47.5627 28.6948 47.4643 28.421 47.4728L27.5225 47.4857L27.5097 53.3002Z" fill="#FBA403"/>
<path d="M32.0493 54.8789C32.0151 54.8789 31.998 54.8575 31.998 54.8148L32.0108 45.9968C32.0108 45.9625 32.0279 45.9454 32.0622 45.9454H36.1824C36.2166 45.9454 36.2337 45.9668 36.2337 46.0096V47.4472C36.2337 47.4814 36.2166 47.4985 36.1824 47.4985H33.5511V49.5009H36.1824C36.2166 49.5009 36.2337 49.518 36.2337 49.5522L36.2465 51.0026C36.2465 51.0368 36.2294 51.054 36.1952 51.054H33.5511V53.3002H36.1952C36.2294 53.3002 36.2465 53.3216 36.2465 53.3643C36.2465 53.4071 36.2465 54.8276 36.2465 54.8276C36.2465 54.8618 36.2294 54.8789 36.1952 54.8789C36.161 54.8789 32.0493 54.8789 32.0493 54.8789Z" fill="#FBA403"/>
<path d="M25.2532 42.4843L25.2571 42.3525C25.2597 42.2698 25.2674 42.1794 25.2803 42.0812L25.3114 41.8525C25.3178 41.7983 25.3243 41.7492 25.3307 41.7052C25.208 41.8396 25.1092 41.9442 25.0342 42.0192L24.8114 42.2362C24.3127 42.7026 24.0155 42.9358 23.9199 42.9358C23.7791 42.9358 23.6312 42.9055 23.4761 42.8447C23.3921 42.8112 23.3443 42.7763 23.3327 42.7401C23.3146 42.6949 23.3056 42.6335 23.3056 42.556C23.3056 42.4772 23.3082 42.4048 23.3133 42.3389C23.3185 42.2731 23.325 42.2078 23.3327 42.1432C23.3405 42.0773 23.3482 42.0147 23.356 41.9552C23.365 41.8945 23.3721 41.8415 23.3773 41.7963C23.3902 41.6943 23.3928 41.6432 23.385 41.6432L22.6641 42.5289C22.3243 42.9281 22.1312 43.149 22.0847 43.1916C21.9852 43.2821 21.8754 43.3273 21.7552 43.3273C21.6958 43.3273 21.6467 43.3124 21.6079 43.2827C21.5692 43.253 21.5498 43.2162 21.5498 43.1723C21.5498 43.0844 21.5866 42.9927 21.6603 42.8971L23.3812 40.7091L23.5827 40.4669C23.823 40.184 23.9806 40.0425 24.0556 40.0425C24.1602 40.0425 24.2597 40.069 24.354 40.1219C24.438 40.1684 24.4858 40.2137 24.4974 40.2576C24.5026 40.2744 24.4916 40.3526 24.4645 40.4921L24.3966 40.8584C24.3204 41.2666 24.2823 41.5302 24.2823 41.649C24.2823 41.7666 24.2959 41.8254 24.323 41.8254C24.4109 41.8254 24.5801 41.6813 24.8307 41.3932L25.4586 40.6413C25.5969 40.4824 25.6886 40.392 25.7338 40.37C25.7467 40.3635 25.7655 40.3603 25.79 40.3603C25.8146 40.3603 25.8417 40.3635 25.8714 40.37C25.9024 40.3765 25.9334 40.3849 25.9644 40.3952C25.9967 40.4055 26.0277 40.4178 26.0575 40.432C26.0872 40.4462 26.1137 40.4611 26.1369 40.4766C26.1873 40.5102 26.2118 40.5379 26.2106 40.5599C26.2106 40.5806 26.2054 40.6264 26.1951 40.6975C26.1847 40.7673 26.1718 40.8525 26.1563 40.9533C26.0491 41.6213 25.9929 42.0088 25.9877 42.1161C25.9838 42.2233 25.9948 42.2905 26.0206 42.3176C26.0478 42.3448 26.0872 42.3583 26.1389 42.3583C26.2332 42.3583 26.3701 42.3021 26.5497 42.1897C26.6711 42.1135 26.7713 42.0754 26.8501 42.0754C26.9302 42.0754 26.9702 42.1135 26.9702 42.1897C26.9702 42.2685 26.9276 42.3641 26.8423 42.4765C26.7196 42.6393 26.5361 42.7866 26.292 42.9184C26.0865 43.0282 25.8914 43.0831 25.7067 43.0831C25.4044 43.0831 25.2532 42.8835 25.2532 42.4843Z" fill="#FBA403"/>
<path d="M27.7222 42.1316C27.7222 42.191 27.7616 42.2207 27.8404 42.2207C28.0006 42.2207 28.2732 42.0211 28.6582 41.6219L28.8462 41.432C28.9741 41.3067 29.0587 41.244 29.1 41.244C29.1414 41.244 29.1782 41.2511 29.2105 41.2653C29.2428 41.2795 29.2712 41.2976 29.2958 41.3196C29.3462 41.3648 29.3713 41.4133 29.3713 41.4649C29.3713 41.5153 29.3655 41.5715 29.3539 41.6335C29.3436 41.6943 29.3268 41.7627 29.3035 41.839C29.2609 41.9811 29.184 42.1716 29.0729 42.4106L28.9934 42.5812L29.3229 42.2827L29.9973 41.7052C30.0658 41.6536 30.1226 41.6277 30.1678 41.6277C30.266 41.6277 30.3151 41.6749 30.3151 41.7692C30.3151 41.8661 30.2518 41.9908 30.1252 42.1432C30.0864 42.191 30.0445 42.2356 29.9992 42.2769L29.5419 42.6742L28.6504 43.4281C28.5716 43.4965 28.5122 43.5508 28.4721 43.5909C28.4243 43.6684 28.3869 43.7259 28.3597 43.7633C28.3339 43.8021 28.3081 43.8428 28.2822 43.8854C28.2564 43.9293 28.2312 43.9668 28.2066 43.9978C28.1537 44.065 28.1007 44.0986 28.0477 44.0986C27.9922 44.0986 27.9386 44.076 27.8869 44.0308C27.7913 43.9468 27.7435 43.8719 27.7435 43.806C27.7435 43.7401 27.7616 43.6632 27.7977 43.5754C27.8339 43.4888 27.8811 43.3893 27.9392 43.2769L28.35 42.5192C28.1524 42.6975 27.9973 42.8157 27.8849 42.8738C27.7725 42.9307 27.6776 42.9681 27.6001 42.9862C27.5238 43.0056 27.4424 43.0153 27.3559 43.0153C27.2706 43.0153 27.1957 42.9972 27.1311 42.961C27.0665 42.9261 27.0129 42.879 26.9702 42.8196C26.8875 42.702 26.8462 42.5489 26.8462 42.3603C26.8462 42.16 26.8966 41.9623 26.9974 41.7672C27.0943 41.576 27.2222 41.4223 27.3811 41.306C27.549 41.182 27.7215 41.12 27.8985 41.12C28.0755 41.12 28.164 41.1891 28.164 41.3273C28.164 41.4139 28.0904 41.5424 27.9431 41.713C27.7958 41.8822 27.7222 42.0218 27.7222 42.1316Z" fill="#FBA403"/>
<rect x="28.4829" y="48.5679" width="0.962182" height="0.920833" fill="#FBA403"/>
<rect x="27.5205" y="49.4888" width="0.962182" height="0.920833" fill="#FBA403"/>
<rect x="28.4829" y="50.4019" width="0.962182" height="0.920833" fill="#FBA403"/>
<rect x="27.5205" y="51.3228" width="0.962182" height="0.920833" fill="#FBA403"/>
<path fill-rule="evenodd" clip-rule="evenodd" d="M15.0053 41.9493C13.6433 41.9493 12.4212 42.7859 11.9284 44.0556L8.3574 53.256C7.51774 55.4193 9.11376 57.7508 11.4343 57.7508H41.8888C44.2094 57.7508 45.8054 55.4193 44.9657 53.256L41.3948 44.0556C40.902 42.7859 39.6798 41.9493 38.3178 41.9493H32.6992V41.2158H38.3178C39.9825 41.2158 41.4762 42.2383 42.0785 43.7902L45.6495 52.9906C46.6758 55.6347 44.7251 58.4843 41.8888 58.4843H11.4343C8.59808 58.4843 6.64739 55.6347 7.67364 52.9906L11.2446 43.7902C11.8469 42.2383 13.3406 41.2158 15.0053 41.2158H19.9137V41.9493H15.0053Z" fill="#FBA403"/>
</svg>
