<svg width="142" height="46" fill="none" xmlns="http://www.w3.org/2000/svg"><path d="M9.823 45.58c-.363 0-.717-.005-1.077-.013-.746-.01-1.49-.075-2.226-.194a7.006 7.006 0 0 1-1.973-.653 6.436 6.436 0 0 1-1.664-1.21 6.337 6.337 0 0 1-1.216-1.664 6.814 6.814 0 0 1-.646-1.973 14.784 14.784 0 0 1-.199-2.233c-.007-.252-.017-1.088-.017-1.088V9.04s.01-.824.017-1.066c.01-.747.075-1.492.198-2.23a6.855 6.855 0 0 1 .647-1.979A6.4 6.4 0 0 1 2.876 2.1 6.628 6.628 0 0 1 4.546.883a6.935 6.935 0 0 1 1.97-.648A14.99 14.99 0 0 1 8.748.039L9.823.025H132.22l1.087.015c.742.009 1.482.073 2.214.194a7.07 7.07 0 0 1 1.99.652 6.66 6.66 0 0 1 2.876 2.882c.31.619.525 1.28.637 1.964.124.743.193 1.494.207 2.248.004.337.004.7.004 1.06.009.446.009.871.009 1.3v24.926c0 .432 0 .855-.009 1.28 0 .388 0 .742-.005 1.108-.014.74-.082 1.477-.203 2.207a6.834 6.834 0 0 1-.643 1.989 6.543 6.543 0 0 1-1.21 1.65 6.43 6.43 0 0 1-1.667 1.218 6.976 6.976 0 0 1-1.986.655c-.736.12-1.48.185-2.226.194-.349.008-.714.013-1.069.013l-1.291.002L9.823 45.58Z" fill="#fff"/><path d="M29.536 22.672a6.129 6.129 0 0 1 2.919-5.142 6.274 6.274 0 0 0-4.943-2.673c-2.08-.218-4.096 1.245-5.156 1.245-1.08 0-2.712-1.223-4.47-1.187a6.582 6.582 0 0 0-5.54 3.379c-2.394 4.147-.608 10.242 1.687 13.594 1.148 1.641 2.49 3.475 4.245 3.41 1.718-.072 2.36-1.096 4.433-1.096 2.054 0 2.656 1.096 4.447 1.054 1.844-.03 3.005-1.648 4.113-3.305a13.577 13.577 0 0 0 1.88-3.83 5.922 5.922 0 0 1-3.615-5.449ZM26.153 12.652a6.034 6.034 0 0 0 1.38-4.323 6.14 6.14 0 0 0-3.973 2.055 5.741 5.741 0 0 0-1.416 4.163 5.077 5.077 0 0 0 4.009-1.895ZM50.146 31.306h-5.638l-1.353 3.997h-2.388l5.34-14.79h2.48l5.34 14.79h-2.428l-1.353-3.997Zm-5.054-1.845h4.469l-2.203-6.487h-.062l-2.204 6.487ZM65.459 29.912c0 3.35-1.794 5.504-4.5 5.504a3.655 3.655 0 0 1-3.393-1.887h-.051v5.34H55.3V24.52h2.143v1.793h.04a3.825 3.825 0 0 1 3.434-1.906c2.737 0 4.54 2.163 4.54 5.505Zm-2.275 0c0-2.183-1.128-3.618-2.85-3.618-1.691 0-2.828 1.465-2.828 3.618 0 2.173 1.137 3.628 2.828 3.628 1.721 0 2.85-1.425 2.85-3.628ZM77.327 29.912c0 3.35-1.794 5.504-4.5 5.504a3.656 3.656 0 0 1-3.393-1.887h-.051v5.34H67.17V24.52h2.142v1.793h.04a3.825 3.825 0 0 1 3.434-1.906c2.737 0 4.541 2.163 4.541 5.505Zm-2.275 0c0-2.183-1.128-3.618-2.85-3.618-1.69 0-2.828 1.465-2.828 3.618 0 2.173 1.137 3.628 2.828 3.628 1.722 0 2.85-1.425 2.85-3.628ZM85.17 31.182c.164 1.467 1.589 2.43 3.536 2.43 1.865 0 3.207-.963 3.207-2.285 0-1.148-.809-1.836-2.726-2.307l-1.916-.462c-2.716-.655-3.977-1.926-3.977-3.986 0-2.552 2.224-4.305 5.38-4.305 3.127 0 5.27 1.753 5.341 4.305h-2.234c-.134-1.476-1.354-2.367-3.137-2.367s-3.003.901-3.003 2.213c0 1.046.78 1.66 2.686 2.132l1.629.4c3.034.718 4.294 1.937 4.294 4.1 0 2.767-2.203 4.5-5.708 4.5-3.28 0-5.495-1.693-5.638-4.368h2.266ZM99.03 21.97v2.551h2.05v1.753h-2.05v5.944c0 .924.41 1.354 1.311 1.354.244-.004.487-.021.728-.05v1.741c-.405.076-.817.11-1.23.103-2.182 0-3.034-.82-3.034-2.911v-6.181h-1.568v-1.753h1.568V21.97h2.224ZM102.266 29.913c0-3.393 1.998-5.524 5.114-5.524 3.126 0 5.115 2.131 5.115 5.524 0 3.402-1.978 5.525-5.115 5.525-3.136 0-5.114-2.123-5.114-5.525Zm7.974 0c0-2.327-1.066-3.7-2.86-3.7-1.793 0-2.86 1.383-2.86 3.7 0 2.337 1.067 3.7 2.86 3.7 1.794 0 2.86-1.363 2.86-3.7ZM114.32 24.52h2.111v1.835h.051a2.575 2.575 0 0 1 2.594-1.948c.255 0 .509.027.758.083v2.07a3.094 3.094 0 0 0-.994-.134 2.233 2.233 0 0 0-2.307 2.48v6.397h-2.213V24.52ZM130.039 32.137c-.298 1.957-2.204 3.3-4.643 3.3-3.137 0-5.084-2.101-5.084-5.473 0-3.382 1.958-5.575 4.991-5.575 2.983 0 4.859 2.049 4.859 5.318v.759h-7.615v.133a2.798 2.798 0 0 0 .761 2.182 2.806 2.806 0 0 0 2.139.873 2.442 2.442 0 0 0 2.49-1.517h2.102Zm-7.482-3.218h5.391a2.585 2.585 0 0 0-.725-1.947 2.591 2.591 0 0 0-1.92-.79 2.728 2.728 0 0 0-2.746 2.737Z" fill="#000"/></svg>