<svg width="66" height="67" fill="none" xmlns="http://www.w3.org/2000/svg"><rect y=".914" width="65.387" height="65.387" rx="16" fill="#F9668D"/><path d="M31.55 29.07h2.29v-1.134c0-.301.121-.59.336-.802a1.15 1.15 0 0 1 .81-.333h3.435c.304 0 .595.12.81.333.214.212.335.5.335.802v1.134h4.58v-4.537a4.516 4.516 0 0 0-1.341-3.209 4.603 4.603 0 0 0-3.239-1.329H25.825c-1.215 0-2.38.478-3.24 1.33a4.516 4.516 0 0 0-1.34 3.208v4.537h4.58v-1.134c0-.301.12-.59.335-.802a1.15 1.15 0 0 1 .81-.333h3.435c.304 0 .595.12.81.333.215.212.335.5.335.802v1.134ZM22.39 31.339A5.753 5.753 0 0 0 18.34 33a5.645 5.645 0 0 0-1.677 4.01v9.076c0 .3.12.59.335.802a1.15 1.15 0 0 0 1.62 0c.215-.213.335-.501.335-.802v-5.672h27.482v5.672c0 .3.12.59.335.802a1.15 1.15 0 0 0 1.62 0c.214-.213.335-.501.335-.802V37.01A5.645 5.645 0 0 0 47.049 33a5.753 5.753 0 0 0-4.048-1.662H22.389Z" fill="#fff"/></svg>