<svg width="66" height="66" viewBox="0 0 66 66" fill="none" xmlns="http://www.w3.org/2000/svg">
<rect width="65.387" height="65.387" rx="16" fill="#F9668D"/>
<path d="M31.5502 28.1561H33.8404V27.0217C33.8404 26.7208 33.961 26.4323 34.1758 26.2196C34.3905 26.0068 34.6818 25.8873 34.9855 25.8873H38.4209C38.7246 25.8873 39.0158 26.0068 39.2306 26.2196C39.4453 26.4323 39.566 26.7208 39.566 27.0217V28.1561H44.1464V23.6186C44.1464 22.4151 43.6638 21.261 42.8048 20.4101C41.9458 19.5591 40.7808 19.0811 39.566 19.0811H25.8246C24.6098 19.0811 23.4447 19.5591 22.5857 20.4101C21.7267 21.261 21.2441 22.4151 21.2441 23.6186V28.1561H25.8246V27.0217C25.8246 26.7208 25.9452 26.4323 26.16 26.2196C26.3747 26.0068 26.666 25.8873 26.9697 25.8873H30.4051C30.7088 25.8873 31 26.0068 31.2148 26.2196C31.4295 26.4323 31.5502 26.7208 31.5502 27.0217V28.1561Z" fill="white"/>
<path d="M22.3894 30.4248C20.8709 30.4248 19.4147 31.0224 18.341 32.0861C17.2673 33.1497 16.6641 34.5924 16.6641 36.0967V45.1717C16.6641 45.4726 16.7847 45.7611 16.9994 45.9738C17.2142 46.1866 17.5054 46.3061 17.8091 46.3061C18.1128 46.3061 18.4041 46.1866 18.6188 45.9738C18.8336 45.7611 18.9542 45.4726 18.9542 45.1717V39.4998H46.4358V45.1717C46.4358 45.4726 46.5564 45.7611 46.7711 45.9738C46.9859 46.1866 47.2771 46.3061 47.5808 46.3061C47.8845 46.3061 48.1758 46.1866 48.3905 45.9738C48.6053 45.7611 48.7259 45.4726 48.7259 45.1717V36.0967C48.7259 34.5924 48.1227 33.1497 47.049 32.0861C45.9753 31.0224 44.519 30.4248 43.0006 30.4248H22.3894Z" fill="white"/>
</svg>
