<svg width="18" height="18" viewBox="0 0 18 18" fill="none" xmlns="http://www.w3.org/2000/svg">
<path d="M14.1975 8.7525C14.2005 8.72759 14.2005 8.70241 14.1975 8.6775C13.6385 7.34369 12.581 6.28076 11.25 5.715V3H12C12.1989 3 12.3897 2.92098 12.5304 2.78033C12.671 2.63968 12.75 2.44891 12.75 2.25C12.75 2.05109 12.671 1.86032 12.5304 1.71967C12.3897 1.57902 12.1989 1.5 12 1.5H6.00003C5.80112 1.5 5.61035 1.57902 5.4697 1.71967C5.32905 1.86032 5.25003 2.05109 5.25003 2.25C5.25003 2.44891 5.32905 2.63968 5.4697 2.78033C5.61035 2.92098 5.80112 3 6.00003 3H6.75003V5.715C5.42334 6.29602 4.37633 7.37263 3.83253 8.715C3.82954 8.73991 3.82954 8.76509 3.83253 8.79C3.47886 9.6446 3.34137 10.5732 3.43225 11.4936C3.52312 12.414 3.83955 13.2978 4.35351 14.0668C4.86747 14.8357 5.5631 15.466 6.37881 15.902C7.19453 16.3379 8.10514 16.566 9.03003 16.566C9.95492 16.566 10.8655 16.3379 11.6812 15.902C12.497 15.466 13.1926 14.8357 13.7066 14.0668C14.2205 13.2978 14.5369 12.414 14.6278 11.4936C14.7187 10.5732 14.5812 9.6446 14.2275 8.79L14.1975 8.7525ZM7.73253 6.945C7.8829 6.89597 8.01392 6.80066 8.10686 6.6727C8.1998 6.54473 8.24991 6.39066 8.25003 6.2325V3H9.75003V6.2325C9.75015 6.39066 9.80026 6.54473 9.8932 6.6727C9.98615 6.80066 10.1172 6.89597 10.2675 6.945C11.0151 7.1871 11.6767 7.64032 12.1725 8.25H5.82753C6.32333 7.64032 6.98492 7.1871 7.73253 6.945ZM9.00003 15C7.90662 14.998 6.85856 14.5628 6.08541 13.7896C5.31225 13.0165 4.87701 11.9684 4.87503 10.875C4.87625 10.4941 4.93181 10.1152 5.04003 9.75H12.96C13.0683 10.1152 13.1238 10.4941 13.125 10.875C13.123 11.9684 12.6878 13.0165 11.9147 13.7896C11.1415 14.5628 10.0934 14.998 9.00003 15ZM10.5 12C10.3517 12 10.2067 12.044 10.0834 12.1264C9.96002 12.2088 9.86389 12.3259 9.80712 12.463C9.75036 12.6 9.7355 12.7508 9.76444 12.8963C9.79338 13.0418 9.86481 13.1754 9.9697 13.2803C10.0746 13.3852 10.2082 13.4567 10.3537 13.4856C10.4992 13.5145 10.65 13.4997 10.787 13.4429C10.9241 13.3861 11.0412 13.29 11.1236 13.1667C11.206 13.0433 11.25 12.8983 11.25 12.75C11.25 12.5511 11.171 12.3603 11.0304 12.2197C10.8897 12.079 10.6989 12 10.5 12ZM7.50003 11.25C7.35169 11.25 7.20669 11.294 7.08335 11.3764C6.96002 11.4588 6.86389 11.5759 6.80712 11.713C6.75036 11.85 6.7355 12.0008 6.76444 12.1463C6.79338 12.2918 6.86481 12.4254 6.9697 12.5303C7.07459 12.6352 7.20823 12.7067 7.35371 12.7356C7.4992 12.7645 7.65 12.7497 7.78704 12.6929C7.92409 12.6361 8.04122 12.54 8.12363 12.4167C8.20604 12.2933 8.25003 12.1483 8.25003 12C8.25003 11.8011 8.17101 11.6103 8.03036 11.4697C7.88971 11.329 7.69894 11.25 7.50003 11.25Z" fill="#242424"/>
</svg>
