<svg width="18" height="18" viewBox="0 0 18 18" fill="none" xmlns="http://www.w3.org/2000/svg">
<path d="M2.25 9L3.75 7.5M3.75 7.5L9 2.25L14.25 7.5M3.75 7.5V15C3.75 15.1989 3.82902 15.3897 3.96967 15.5303C4.11032 15.671 4.30109 15.75 4.5 15.75H6.75M14.25 7.5L15.75 9M14.25 7.5V15C14.25 15.1989 14.171 15.3897 14.0303 15.5303C13.8897 15.671 13.6989 15.75 13.5 15.75H11.25M6.75 15.75C6.94891 15.75 7.13968 15.671 7.28033 15.5303C7.42098 15.3897 7.5 15.1989 7.5 15V12C7.5 11.8011 7.57902 11.6103 7.71967 11.4697C7.86032 11.329 8.05109 11.25 8.25 11.25H9.75C9.94891 11.25 10.1397 11.329 10.2803 11.4697C10.421 11.6103 10.5 11.8011 10.5 12V15C10.5 15.1989 10.579 15.3897 10.7197 15.5303C10.8603 15.671 11.0511 15.75 11.25 15.75M6.75 15.75H11.25" stroke="#959798" stroke-width="1.5" stroke-linecap="round" stroke-linejoin="round"/>
</svg>
