<svg width="42" height="43" viewBox="0 0 42 43" fill="none" xmlns="http://www.w3.org/2000/svg">
<circle cx="21" cy="21.5" r="21" fill="#EBE8E8"/>
<path d="M29.3336 20.641V22.3577C29.3336 22.816 28.9669 23.191 28.5003 23.2077H26.8669C25.9669 23.2077 25.1419 22.5493 25.0669 21.6493C25.0169 21.1243 25.2169 20.6327 25.5669 20.291C25.8753 19.9743 26.3003 19.791 26.7669 19.791H28.5003C28.9669 19.8077 29.3336 20.1827 29.3336 20.641Z" fill="#363A3F"/>
<path d="M28.0584 24.4582H26.8667C25.2834 24.4582 23.9501 23.2665 23.8167 21.7498C23.7417 20.8832 24.0584 20.0165 24.6917 19.3998C25.2251 18.8498 25.9667 18.5415 26.7667 18.5415H28.0584C28.3001 18.5415 28.5001 18.3415 28.4751 18.0998C28.2917 16.0748 26.9501 14.6915 24.9584 14.4582C24.7584 14.4248 24.5501 14.4165 24.3334 14.4165H16.8334C16.6001 14.4165 16.3751 14.4332 16.1584 14.4665C14.0334 14.7332 12.6667 16.3165 12.6667 18.5832V24.4165C12.6667 26.7165 14.5334 28.5832 16.8334 28.5832H24.3334C26.6667 28.5832 28.2751 27.1248 28.4751 24.8998C28.5001 24.6582 28.3001 24.4582 28.0584 24.4582ZM21.8334 19.6248H16.8334C16.4917 19.6248 16.2084 19.3415 16.2084 18.9998C16.2084 18.6582 16.4917 18.3748 16.8334 18.3748H21.8334C22.1751 18.3748 22.4584 18.6582 22.4584 18.9998C22.4584 19.3415 22.1751 19.6248 21.8334 19.6248Z" fill="#363A3F"/>
</svg>
