<svg width="16" height="16" viewBox="0 0 16 16" fill="none" xmlns="http://www.w3.org/2000/svg">
<g clip-path="url(#clip0_1_83)">
<mask id="mask0_1_83" style="mask-type:luminance" maskUnits="userSpaceOnUse" x="0" y="0" width="16" height="16">
<path d="M8 14.6667C8.87565 14.6678 9.74288 14.4959 10.5519 14.1608C11.3609 13.8257 12.0956 13.334 12.714 12.714C13.334 12.0956 13.8257 11.3609 14.1608 10.5519C14.4959 9.74288 14.6678 8.87565 14.6667 8C14.6678 7.12436 14.4958 6.25713 14.1607 5.44814C13.8256 4.63916 13.334 3.90437 12.714 3.286C12.0956 2.66601 11.3609 2.17433 10.5519 1.83923C9.74288 1.50412 8.87565 1.3322 8 1.33333C7.12436 1.33222 6.25713 1.50415 5.44814 1.83925C4.63916 2.17436 3.90437 2.66602 3.286 3.286C2.66602 3.90437 2.17436 4.63916 1.83925 5.44814C1.50415 6.25713 1.33222 7.12436 1.33333 8C1.3322 8.87565 1.50412 9.74288 1.83923 10.5519C2.17433 11.3609 2.66601 12.0956 3.286 12.714C3.90437 13.334 4.63916 13.8256 5.44814 14.1607C6.25713 14.4958 7.12436 14.6678 8 14.6667Z" fill="white" stroke="white" stroke-width="1.5" stroke-linejoin="round"/>
<path d="M5.33333 8L7.33333 10L11.3333 6" stroke="black" stroke-width="1.5" stroke-linecap="round" stroke-linejoin="round"/>
</mask>
<g mask="url(#mask0_1_83)">
<path d="M0 0H16V16H0V0Z" fill="#47FF91"/>
</g>
</g>
<defs>
<clipPath id="clip0_1_83">
<rect width="16" height="16" fill="white"/>
</clipPath>
</defs>
</svg>
