<svg width="21" height="20" viewBox="0 0 21 20" fill="none" xmlns="http://www.w3.org/2000/svg">
<path fill-rule="evenodd" clip-rule="evenodd" d="M3.26461 3.40662L3.32506 3.34344C4.93125 1.73711 5.97721 1.31134 7.09323 1.9531C7.41426 2.13771 7.71522 2.39611 8.12446 2.81176L9.37977 4.11344C10.0731 4.87002 10.2307 5.59573 10.005 6.44562L9.97387 6.55814L9.93935 6.67001L9.77154 7.16237C9.41236 8.26652 9.56231 8.88948 10.8402 10.1671C12.1691 11.4956 12.7895 11.6043 13.9788 11.1887L14.1908 11.1151L14.4471 11.0318L14.5592 11.0007C15.4626 10.7597 16.2257 10.952 17.035 11.7608L18.0464 12.7377L18.3442 13.0306C18.6743 13.3672 18.8924 13.6339 19.0536 13.9158C19.6913 15.0315 19.2651 16.0768 17.6126 17.7232L17.4554 17.8825C17.2087 18.1203 16.9782 18.2906 16.6395 18.4514C16.0711 18.7213 15.3995 18.8231 14.6192 18.7145C12.6963 18.4471 10.2575 16.9299 7.16724 13.8405C6.91569 13.589 6.67476 13.3423 6.44422 13.1005L5.9969 12.6231C1.80536 8.06912 1.43558 5.27165 3.15332 3.51717L3.26461 3.40662ZM7.11269 3.56752C6.84119 3.29986 6.64397 3.1367 6.4701 3.03671C6.0855 2.81555 5.67025 2.90904 4.90175 3.57048L4.66028 3.7862C4.61816 3.82508 4.57508 3.86544 4.53099 3.90732L4.2541 4.17701L4.22915 4.20818L4.04143 4.39677C3.58781 4.86012 3.37293 5.42561 3.55809 6.39814C3.86193 7.99399 5.25269 10.1589 8.05101 12.9565C10.9667 15.8715 13.1883 17.2535 14.7913 17.4764C15.7259 17.6064 16.2025 17.3801 16.6886 16.8821L17.0593 16.508C17.2332 16.3261 17.3817 16.1612 17.5071 16.0106L17.6782 15.795C18.1154 15.2126 18.1554 14.8633 17.9684 14.5361C17.8972 14.4117 17.7937 14.2752 17.6431 14.1084L17.4387 13.8926L17.3178 13.7716L16.0417 12.5394C15.6153 12.1462 15.3239 12.0904 14.8815 12.2084L14.7538 12.2452L14.2252 12.4246C12.6917 12.9198 11.5855 12.6797 9.95645 11.0511C8.26925 9.36429 8.07138 8.23789 8.63669 6.61606L8.67296 6.51184L8.77324 6.20969L8.82254 6.01711C8.90995 5.59797 8.81015 5.30573 8.35958 4.85509C8.34103 4.83654 8.3203 4.81563 8.29774 4.79275L7.11269 3.56752Z" fill="#3BB77E"/>
</svg>
