<svg width="20" height="20" viewBox="0 0 20 20" fill="none" xmlns="http://www.w3.org/2000/svg">
<path d="M9.99996 1.66667C7.78982 1.66667 5.67021 2.54465 4.1074 4.10745C2.5446 5.67025 1.66663 7.78987 1.66663 10C1.66663 12.2101 2.5446 14.3298 4.1074 15.8926C5.67021 17.4554 7.78982 18.3333 9.99996 18.3333C12.2101 18.3333 14.3297 17.4554 15.8925 15.8926C17.4553 14.3298 18.3333 12.2101 18.3333 10C18.3333 7.78987 17.4553 5.67025 15.8925 4.10745C14.3297 2.54465 12.2101 1.66667 9.99996 1.66667ZM10.8333 13.3333C10.8333 13.5544 10.7455 13.7663 10.5892 13.9226C10.4329 14.0789 10.221 14.1667 9.99996 14.1667C9.77895 14.1667 9.56698 14.0789 9.4107 13.9226C9.25442 13.7663 9.16663 13.5544 9.16663 13.3333V9.16667C9.16663 8.94566 9.25442 8.7337 9.4107 8.57742C9.56698 8.42114 9.77895 8.33334 9.99996 8.33334C10.221 8.33334 10.4329 8.42114 10.5892 8.57742C10.7455 8.7337 10.8333 8.94566 10.8333 9.16667V13.3333ZM9.99996 7.50001C9.77895 7.50001 9.56698 7.41221 9.4107 7.25593C9.25442 7.09965 9.16663 6.88769 9.16663 6.66667C9.16663 6.44566 9.25442 6.2337 9.4107 6.07742C9.56698 5.92114 9.77895 5.83334 9.99996 5.83334C10.221 5.83334 10.4329 5.92114 10.5892 6.07742C10.7455 6.2337 10.8333 6.44566 10.8333 6.66667C10.8333 6.88769 10.7455 7.09965 10.5892 7.25593C10.4329 7.41221 10.221 7.50001 9.99996 7.50001Z" fill="#6C7275"/>
</svg>
