<svg width="20" height="20" viewBox="0 0 20 20" fill="none" xmlns="http://www.w3.org/2000/svg">
<path d="M10.0001 1.66667C7.78994 1.66667 5.67033 2.54465 4.10752 4.10745C2.54472 5.67025 1.66675 7.78987 1.66675 10C1.66675 12.2101 2.54472 14.3298 4.10752 15.8926C5.67033 17.4554 7.78994 18.3333 10.0001 18.3333C12.2102 18.3333 14.3298 17.4554 15.8926 15.8926C17.4554 14.3298 18.3334 12.2101 18.3334 10C18.3334 7.78987 17.4554 5.67025 15.8926 4.10745C14.3298 2.54465 12.2102 1.66667 10.0001 1.66667ZM10.8334 13.3333C10.8334 13.5544 10.7456 13.7663 10.5893 13.9226C10.4331 14.0789 10.2211 14.1667 10.0001 14.1667C9.77907 14.1667 9.56711 14.0789 9.41083 13.9226C9.25455 13.7663 9.16675 13.5544 9.16675 13.3333V9.16667C9.16675 8.94566 9.25455 8.7337 9.41083 8.57742C9.56711 8.42114 9.77907 8.33334 10.0001 8.33334C10.2211 8.33334 10.4331 8.42114 10.5893 8.57742C10.7456 8.7337 10.8334 8.94566 10.8334 9.16667V13.3333ZM10.0001 7.50001C9.77907 7.50001 9.56711 7.41221 9.41083 7.25593C9.25455 7.09965 9.16675 6.88769 9.16675 6.66667C9.16675 6.44566 9.25455 6.2337 9.41083 6.07742C9.56711 5.92114 9.77907 5.83334 10.0001 5.83334C10.2211 5.83334 10.4331 5.92114 10.5893 6.07742C10.7456 6.2337 10.8334 6.44566 10.8334 6.66667C10.8334 6.88769 10.7456 7.09965 10.5893 7.25593C10.4331 7.41221 10.2211 7.50001 10.0001 7.50001Z" fill="#6C7275"/>
</svg>
