<svg width="144" height="40" viewBox="0 0 144 40" fill="none" xmlns="http://www.w3.org/2000/svg">
<path d="M52.1951 15.0272L49.6126 17.5681V24.1379H48.0486V5.80762H49.6126V15.6806L59.0332 5.80762H60.9973L53.2863 13.9746L61.5793 24.1379H59.6879L52.1951 15.0272Z" fill="white"/>
<path d="M65.1803 10.5263L65.2166 12.8494C65.7259 12.0145 66.3806 11.3612 67.1444 10.9256C67.9082 10.49 68.7448 10.2722 69.6905 10.2722C71.1454 10.2722 72.2366 10.6715 72.964 11.5064C73.6915 12.3412 74.0552 13.5753 74.0552 15.2087V24.1379H72.5639V15.2087C72.5639 13.9746 72.3093 13.0672 71.8001 12.4864C71.2909 11.9056 70.4907 11.579 69.3631 11.579C68.4174 11.579 67.6172 11.8693 66.8898 12.4501C66.1623 13.0309 65.6531 13.8294 65.2894 14.8095V24.1379H63.7981V10.5263H65.1803Z" fill="white"/>
<path d="M77.074 17.1325C77.074 15.8258 77.3286 14.628 77.8378 13.6116C78.347 12.5953 79.0745 11.7604 79.9838 11.1797C80.8931 10.5989 81.9843 10.3085 83.1482 10.3085C84.9669 10.3085 86.4218 10.9619 87.5493 12.2323C88.6769 13.5027 89.2225 15.1724 89.2225 17.2777V17.6044C89.2225 18.9111 88.9679 20.1089 88.4587 21.1615C87.9494 22.2142 87.222 23.0127 86.3127 23.5935C85.4033 24.1742 84.3485 24.4646 83.1482 24.4646C81.3296 24.4646 79.8747 23.8113 78.7471 22.5408C77.6196 21.2704 77.0376 19.6007 77.0376 17.4955V17.1325H77.074ZM78.6016 17.5681C78.6016 19.2015 79.0381 20.5445 79.8747 21.5608C80.7113 22.6134 81.8388 23.1216 83.1846 23.1216C84.5304 23.1216 85.658 22.6134 86.4945 21.5608C87.3311 20.5082 87.7676 19.1289 87.7676 17.4229V17.1325C87.7676 16.0799 87.5857 15.1361 87.1856 14.265C86.7855 13.3938 86.2399 12.7405 85.5488 12.2686C84.8578 11.7967 84.0576 11.5427 83.1482 11.5427C81.8024 11.5427 80.7113 12.0871 79.8383 13.1397C78.9654 14.1924 78.5653 15.5717 78.5653 17.2777V17.5681H78.6016Z" fill="white"/>
<path d="M95.6606 21.0163L95.8789 22.1778L96.1698 20.9437L99.4434 10.5263H100.716L103.954 20.8711L104.317 22.323L104.608 21.0163L107.409 10.5626H108.973L105.008 24.1742H103.735L100.244 13.3575L100.062 12.6316L99.8799 13.3938L96.4245 24.1742H95.1514L91.2231 10.5263H92.7872L95.6606 21.0163Z" fill="white"/>
<path d="M113.556 24.1379H112.028V4.79129H113.556V24.1379Z" fill="white"/>
<path d="M122.94 24.392C121.776 24.392 120.721 24.1016 119.776 23.5209C118.83 22.9401 118.103 22.1416 117.593 21.1252C117.084 20.1089 116.793 18.9474 116.793 17.6769V17.1325C116.793 15.8258 117.048 14.6279 117.557 13.6116C118.066 12.5953 118.757 11.7241 119.667 11.1434C120.576 10.5626 121.558 10.2359 122.613 10.2359C124.286 10.2359 125.595 10.8167 126.541 11.9419C127.487 13.0671 127.996 14.6279 127.996 16.5517V17.4229H118.248V17.7132C118.248 19.274 118.685 20.5445 119.594 21.5608C120.467 22.5771 121.594 23.0853 122.94 23.0853C123.74 23.0853 124.468 22.9401 125.086 22.6497C125.705 22.3593 126.25 21.8875 126.759 21.2341L127.705 21.9601C126.687 23.5935 125.05 24.392 122.94 24.392ZM122.686 11.5426C121.558 11.5426 120.576 11.9419 119.812 12.7768C119.048 13.6116 118.575 14.7368 118.394 16.1161H126.577V15.9347C126.541 14.6279 126.177 13.5753 125.45 12.7405C124.722 11.9056 123.813 11.5426 122.686 11.5426Z" fill="white"/>
<path d="M136.289 24.392C135.125 24.392 134.07 24.1016 133.125 23.5209C132.179 22.9401 131.452 22.1416 130.942 21.1252C130.433 20.1089 130.142 18.9474 130.142 17.6769V17.1325C130.142 15.8258 130.397 14.6279 130.906 13.6116C131.415 12.5953 132.106 11.7241 133.016 11.1434C133.925 10.5626 134.907 10.2359 135.962 10.2359C137.635 10.2359 138.944 10.8167 139.89 11.9419C140.836 13.0671 141.345 14.6279 141.345 16.5517V17.4229H131.67V17.7132C131.67 19.274 132.106 20.5445 133.016 21.5608C133.888 22.5771 135.016 23.0853 136.362 23.0853C137.162 23.0853 137.89 22.9401 138.508 22.6497C139.126 22.3593 139.672 21.8875 140.181 21.2341L141.127 21.9601C140.036 23.5935 138.435 24.392 136.289 24.392ZM136.034 11.5426C134.907 11.5426 133.925 11.9419 133.161 12.7768C132.397 13.6116 131.924 14.7368 131.743 16.1161H139.926V15.9347C139.89 14.6279 139.526 13.5753 138.799 12.7405C138.071 11.9056 137.162 11.5426 136.034 11.5426Z" fill="white"/>
<path d="M49.8672 30.3448L50.9948 28.2032H51.6495L50.1582 30.8893V32.4864H49.5762V30.8893L48.085 28.2032H48.7397L49.8672 30.3448Z" fill="white"/>
<path d="M51.7585 30.853C51.7585 30.5263 51.8313 30.2722 51.9404 30.0181C52.0495 29.764 52.2314 29.5825 52.4496 29.4374C52.6679 29.2922 52.9225 29.2196 53.2135 29.2196C53.6499 29.2196 54.0137 29.3648 54.2683 29.6551C54.5229 29.9455 54.6684 30.3448 54.6684 30.853V30.8893C54.6684 31.2159 54.5956 31.47 54.4865 31.7241C54.3774 31.9782 54.1955 32.1597 53.9773 32.3049C53.759 32.4501 53.5044 32.5227 53.2135 32.5227C52.777 32.5227 52.4133 32.3775 52.1586 32.0871C51.904 31.7967 51.7585 31.3974 51.7585 30.8893V30.853ZM52.3041 30.9256C52.3041 31.2885 52.3769 31.5789 52.5587 31.7604C52.7406 31.9782 52.9588 32.0871 53.2135 32.0871C53.5044 32.0871 53.7227 31.9782 53.8682 31.7604C54.0137 31.5426 54.1228 31.2522 54.1228 30.853C54.1228 30.49 54.05 30.2359 53.8682 30.0181C53.6863 29.8003 53.4681 29.6914 53.2135 29.6914C52.9588 29.6914 52.7406 29.8003 52.5587 30.0181C52.3769 30.2359 52.3041 30.5263 52.3041 30.9256Z" fill="white"/>
<path d="M57.3238 32.1597C57.1055 32.4138 56.8145 32.5227 56.3781 32.5227C56.0507 32.5227 55.7961 32.4138 55.6142 32.2323C55.4324 32.0508 55.3596 31.7604 55.3596 31.3611V29.2922H55.9052V31.3611C55.9052 31.833 56.0871 32.0871 56.4872 32.0871C56.8873 32.0871 57.1783 31.9419 57.3238 31.6152V29.2922H57.8693V32.4864H57.3601L57.3238 32.1597Z" fill="white"/>
<path d="M60.2335 29.8003C60.1607 29.8003 60.0516 29.764 59.9789 29.764C59.6151 29.764 59.3605 29.9092 59.2514 30.2359V32.4864H58.7058V29.2922H59.2514V29.6551C59.4333 29.3648 59.6879 29.2196 60.0152 29.2196C60.1244 29.2196 60.1971 29.2196 60.2698 29.2559V29.8003H60.2335Z" fill="white"/>
<path d="M62.8886 30.8167V32.4864H62.3066V28.2032H63.907C64.3799 28.2032 64.7436 28.3121 64.9982 28.5662C65.2528 28.8203 65.3983 29.1107 65.3983 29.51C65.3983 29.9092 65.2528 30.2359 64.9982 30.49C64.7436 30.7441 64.3799 30.8167 63.8707 30.8167H62.8886ZM62.8886 30.3448H63.907C64.198 30.3448 64.4526 30.2722 64.5981 30.127C64.7436 29.9818 64.8527 29.764 64.8527 29.51C64.8527 29.2559 64.78 29.0381 64.5981 28.8929C64.4526 28.7477 64.198 28.6751 63.9434 28.6388H62.8886V30.3448Z" fill="white"/>
<path d="M67.3263 32.5589C66.8898 32.5589 66.526 32.4138 66.2714 32.1234C66.0168 31.833 65.8713 31.47 65.8713 30.9981V30.8893C65.8713 30.5626 65.9441 30.3085 66.0532 30.0544C66.1623 29.8003 66.3442 29.6188 66.5624 29.4736C66.7807 29.3285 66.9989 29.2559 67.2535 29.2559C67.6536 29.2559 67.981 29.401 68.2356 29.6551C68.4538 29.9455 68.5629 30.3085 68.5629 30.8167V31.0344H66.3806C66.3806 31.3611 66.4897 31.6152 66.6715 31.7967C66.8534 31.9782 67.0716 32.0871 67.3263 32.0871C67.5081 32.0871 67.69 32.0508 67.7991 31.9782C67.9446 31.9056 68.0537 31.7967 68.1628 31.6515L68.4902 31.9056C68.2719 32.3412 67.8718 32.5589 67.3263 32.5589ZM67.2535 29.6914C67.0353 29.6914 66.8534 29.764 66.7079 29.9455C66.5624 30.0907 66.4533 30.3448 66.4169 30.6352H68.0173V30.5989C68.0173 30.3085 67.9446 30.0907 67.7991 29.9455C67.69 29.764 67.5081 29.6914 67.2535 29.6914Z" fill="white"/>
<path d="M70.7452 29.8003C70.6724 29.8003 70.5633 29.764 70.4906 29.764C70.1268 29.764 69.8722 29.9092 69.7631 30.2359V32.4864H69.2175V29.2922H69.7631V29.6551C69.945 29.3648 70.1996 29.2196 70.5269 29.2196C70.6361 29.2196 70.7088 29.2196 70.7816 29.2559V29.8003H70.7452Z" fill="white"/>
<path d="M73.1094 31.6515C73.1094 31.5063 73.0366 31.3974 72.9275 31.3248C72.8184 31.2523 72.6365 31.1797 72.3456 31.1071C72.0546 31.0345 71.8363 30.9619 71.6908 30.8893C71.5454 30.8167 71.3999 30.7078 71.3271 30.5989C71.2544 30.49 71.218 30.3448 71.218 30.1996C71.218 29.9455 71.3271 29.7277 71.5454 29.5463C71.7636 29.3648 72.0546 29.2922 72.3819 29.2922C72.7457 29.2922 73.0366 29.4011 73.2549 29.5826C73.4731 29.764 73.5822 30.0181 73.5822 30.3085H73.0366C73.0366 30.1633 72.9639 30.0181 72.8548 29.9092C72.7457 29.8003 72.5638 29.764 72.3819 29.764C72.2001 29.764 72.0182 29.8003 71.9091 29.9092C71.8 29.9818 71.7272 30.127 71.7272 30.2359C71.7272 30.3811 71.7636 30.4537 71.8727 30.5263C71.9818 30.5989 72.1637 30.6715 72.4547 30.7078C72.7093 30.7804 72.9639 30.853 73.1094 30.9256C73.2549 30.9982 73.4004 31.1071 73.4731 31.216C73.5459 31.3248 73.5822 31.47 73.5822 31.6515C73.5822 31.9419 73.4731 32.1597 73.2549 32.3412C73.0366 32.5227 72.7457 32.5953 72.3819 32.5953C72.1273 32.5953 71.9091 32.559 71.6908 32.4501C71.509 32.3775 71.3271 32.2323 71.218 32.0871C71.1089 31.9419 71.0361 31.7604 71.0361 31.5789H71.5817C71.5817 31.7604 71.6545 31.9056 71.8 32.0145C71.9455 32.1234 72.1273 32.1597 72.3456 32.1597C72.5638 32.1597 72.7093 32.1234 72.8548 32.0508C73.0003 31.9782 73.1094 31.7967 73.1094 31.6515Z" fill="white"/>
<path d="M74.2371 30.853C74.2371 30.5263 74.3098 30.2722 74.4189 30.0181C74.528 29.764 74.7099 29.5825 74.9281 29.4374C75.1464 29.2922 75.401 29.2196 75.692 29.2196C76.1284 29.2196 76.4922 29.3648 76.7468 29.6551C77.0014 29.9455 77.1469 30.3448 77.1469 30.853V30.8893C77.1469 31.2159 77.0741 31.47 76.965 31.7241C76.8559 31.9782 76.674 32.1597 76.4558 32.3049C76.2376 32.4501 75.983 32.5227 75.692 32.5227C75.2555 32.5227 74.8918 32.3775 74.6372 32.0871C74.3825 31.7967 74.2371 31.3974 74.2371 30.8893V30.853ZM74.7827 30.9256C74.7827 31.2885 74.8554 31.5789 75.0373 31.7604C75.2191 31.9782 75.4374 32.0871 75.692 32.0871C75.983 32.0871 76.2012 31.9782 76.3467 31.7604C76.4922 31.5426 76.6013 31.2522 76.6013 30.853C76.6013 30.49 76.5285 30.2359 76.3467 30.0181C76.1648 29.8003 75.9466 29.6914 75.692 29.6914C75.4374 29.6914 75.2191 29.8003 75.0373 30.0181C74.8554 30.2359 74.7827 30.5263 74.7827 30.9256Z" fill="white"/>
<path d="M78.3471 29.2922V29.6914C78.6017 29.4011 78.8927 29.2196 79.2928 29.2196C79.9839 29.2196 80.3112 29.5825 80.3112 30.3448V32.4501H79.7657V30.3448C79.7657 30.127 79.6929 29.9455 79.6202 29.8366C79.511 29.7277 79.3656 29.6551 79.1473 29.6551C78.9655 29.6551 78.82 29.6914 78.6745 29.8003C78.529 29.9092 78.4199 30.0181 78.3471 30.1633V32.4501H77.8379V29.2559H78.3471V29.2922Z" fill="white"/>
<path d="M83.1485 32.4864C83.1121 32.4138 83.0757 32.3049 83.0757 32.1597C82.8211 32.4138 82.5301 32.559 82.1664 32.559C81.839 32.559 81.5844 32.4864 81.4026 32.3049C81.2207 32.1234 81.1116 31.9056 81.1116 31.6152C81.1116 31.2886 81.2207 31.0345 81.4753 30.853C81.7299 30.6715 82.0936 30.5626 82.5301 30.5626H83.0757V30.3085C83.0757 30.127 83.003 29.9818 82.8938 29.8366C82.7847 29.7278 82.6029 29.6552 82.3846 29.6552C82.2028 29.6552 82.0209 29.6915 81.9118 29.8003C81.8027 29.9092 81.7299 30.0181 81.7299 30.1633H81.1843C81.1843 30.0181 81.2571 29.8366 81.3662 29.6915C81.4753 29.5463 81.6208 29.4374 81.839 29.3285C82.0573 29.2196 82.2391 29.1833 82.4937 29.1833C82.8575 29.1833 83.1484 29.2922 83.3667 29.4737C83.5849 29.6552 83.694 29.9092 83.694 30.2359V31.6878C83.694 31.9782 83.7304 32.196 83.8032 32.3775V32.4138H83.1485V32.4864ZM82.2391 32.0871C82.421 32.0871 82.5665 32.0508 82.712 31.9419C82.8575 31.8693 82.9666 31.7241 83.0393 31.6152V30.9619H82.6029C81.9481 30.9619 81.5844 31.1434 81.5844 31.5426C81.5844 31.7241 81.6572 31.833 81.7663 31.9419C81.9118 32.0145 82.0573 32.0871 82.2391 32.0871Z" fill="white"/>
<path d="M85.0397 32.4864H84.4941V27.9492H85.0397V32.4864Z" fill="white"/>
<path d="M88.0588 32.0145H90.0956V32.4864H87.4768V28.2032H88.0588V32.0145Z" fill="white"/>
<path d="M91.9869 32.5589C91.5504 32.5589 91.1867 32.4138 90.9321 32.1234C90.6775 31.833 90.532 31.47 90.532 30.9981V30.8893C90.532 30.5626 90.6047 30.3085 90.7138 30.0544C90.823 29.8003 91.0048 29.6188 91.2231 29.4736C91.4413 29.3285 91.6595 29.2559 91.9142 29.2559C92.3143 29.2559 92.6416 29.401 92.8962 29.6551C93.1145 29.9455 93.2236 30.3085 93.2236 30.8167V31.0344H91.0412C91.0412 31.3611 91.1503 31.6152 91.3322 31.7967C91.5141 31.9782 91.7323 32.0871 91.9869 32.0871C92.1688 32.0871 92.3506 32.0508 92.4597 31.9782C92.6052 31.9056 92.7144 31.7967 92.8235 31.6515L93.1508 31.9056C92.9326 32.3412 92.5325 32.5589 91.9869 32.5589ZM91.9142 29.6914C91.6959 29.6914 91.514 29.764 91.3686 29.9455C91.2231 30.0907 91.1139 30.3448 91.0776 30.6352H92.678V30.5989C92.678 30.3085 92.6052 30.0907 92.4597 29.9455C92.3506 29.764 92.1688 29.6914 91.9142 29.6914Z" fill="white"/>
<path d="M95.8425 32.4864C95.8062 32.4138 95.7698 32.3049 95.7698 32.1597C95.5152 32.4138 95.2242 32.559 94.8605 32.559C94.5331 32.559 94.2785 32.4864 94.0967 32.3049C93.9148 32.1234 93.8057 31.9056 93.8057 31.6152C93.8057 31.2886 93.9148 31.0345 94.1694 30.853C94.424 30.6715 94.7877 30.5626 95.2242 30.5626H95.7698V30.3085C95.7698 30.127 95.697 29.9818 95.5879 29.8366C95.4788 29.7278 95.2969 29.6552 95.0787 29.6552C94.8968 29.6552 94.715 29.6915 94.6059 29.8003C94.4968 29.9092 94.424 30.0181 94.424 30.1633H93.842C93.842 30.0181 93.9148 29.8366 94.0239 29.6915C94.133 29.5463 94.2785 29.4374 94.4967 29.3285C94.715 29.2196 94.8969 29.1833 95.1515 29.1833C95.5152 29.1833 95.8062 29.2922 96.0244 29.4737C96.2426 29.6552 96.3518 29.9092 96.3518 30.2359V31.6878C96.3518 31.9782 96.3881 32.196 96.4609 32.3775V32.4138H95.8425V32.4864ZM94.9332 32.0871C95.1151 32.0871 95.2606 32.0508 95.4061 31.9419C95.5516 31.8693 95.6607 31.7241 95.7334 31.6152V30.9619H95.297C94.6422 30.9619 94.2785 31.1434 94.2785 31.5426C94.2785 31.7241 94.3513 31.833 94.4604 31.9419C94.6059 32.0145 94.7514 32.0871 94.9332 32.0871Z" fill="white"/>
<path d="M98.7159 29.8003C98.6431 29.8003 98.534 29.764 98.4613 29.764C98.0976 29.764 97.8429 29.9092 97.7338 30.2359V32.4864H97.1882V29.2922H97.7338V29.6551C97.9157 29.3648 98.1703 29.2196 98.4976 29.2196C98.6068 29.2196 98.6795 29.2196 98.7523 29.2559V29.8003H98.7159Z" fill="white"/>
<path d="M99.7343 29.2922V29.6914C99.9889 29.4011 100.28 29.2196 100.68 29.2196C101.371 29.2196 101.698 29.5825 101.698 30.3448V32.4501H101.153V30.3448C101.153 30.127 101.08 29.9455 101.007 29.8366C100.898 29.7277 100.753 29.6551 100.535 29.6551C100.353 29.6551 100.207 29.6914 100.062 29.8003C99.9162 29.9092 99.8071 30.0181 99.7343 30.1633V32.4501H99.1887V29.2559H99.7343V29.2922Z" fill="white"/>
<path d="M102.535 28.4573C102.535 28.3847 102.572 28.3121 102.608 28.2395C102.644 28.1669 102.753 28.1306 102.863 28.1306C102.972 28.1306 103.044 28.1669 103.117 28.2395C103.19 28.3121 103.19 28.3847 103.19 28.4573C103.19 28.5299 103.153 28.6025 103.117 28.6751C103.081 28.7477 102.972 28.7477 102.863 28.7477C102.753 28.7477 102.681 28.7114 102.608 28.6751C102.572 28.6025 102.535 28.5299 102.535 28.4573ZM103.153 32.4864H102.608V29.2922H103.153V32.4864Z" fill="white"/>
<path d="M104.536 29.2922V29.6914C104.79 29.4011 105.081 29.2196 105.481 29.2196C106.172 29.2196 106.5 29.5825 106.5 30.3448V32.4501H105.954V30.3448C105.954 30.127 105.881 29.9455 105.809 29.8366C105.7 29.7277 105.554 29.6551 105.336 29.6551C105.154 29.6551 105.008 29.6914 104.863 29.8003C104.717 29.9092 104.608 30.0181 104.536 30.1633V32.4501H104.026V29.2559H104.536V29.2922Z" fill="white"/>
<path d="M107.227 30.853C107.227 30.3448 107.336 29.9455 107.591 29.6551C107.809 29.3648 108.136 29.2196 108.5 29.2196C108.9 29.2196 109.191 29.3648 109.409 29.6188L109.446 29.2559H109.955V32.3775C109.955 32.7767 109.846 33.1034 109.591 33.3575C109.337 33.6116 109.009 33.7205 108.609 33.7205C108.391 33.7205 108.136 33.6842 107.918 33.5753C107.7 33.4664 107.518 33.3575 107.409 33.176L107.7 32.8493C107.918 33.1397 108.209 33.2849 108.573 33.2849C108.827 33.2849 109.046 33.2123 109.191 33.0671C109.337 32.9219 109.409 32.7041 109.409 32.4501V32.1597C109.191 32.4138 108.9 32.5227 108.5 32.5227C108.136 32.5227 107.809 32.3775 107.591 32.0871C107.373 31.7967 107.227 31.3974 107.227 30.853ZM107.773 30.9256C107.773 31.2885 107.845 31.5789 107.991 31.7604C108.136 31.9782 108.355 32.0508 108.609 32.0508C108.937 32.0508 109.191 31.9056 109.373 31.5789V30.127C109.191 29.8366 108.937 29.6551 108.609 29.6551C108.355 29.6551 108.136 29.764 107.991 29.9818C107.845 30.1996 107.773 30.5263 107.773 30.9256Z" fill="white"/>
<path d="M115.484 31.1434C115.447 31.5789 115.266 31.9419 114.975 32.196C114.684 32.4501 114.32 32.559 113.847 32.559C113.338 32.559 112.938 32.3775 112.61 32.0145C112.319 31.6515 112.137 31.1796 112.137 30.5626V30.127C112.137 29.7277 112.21 29.3648 112.356 29.0744C112.501 28.784 112.683 28.5299 112.974 28.3847C113.229 28.2395 113.556 28.1306 113.883 28.1306C114.356 28.1306 114.72 28.2758 114.975 28.5299C115.266 28.784 115.411 29.147 115.447 29.5826H114.938C114.902 29.2559 114.793 29.0018 114.611 28.8203C114.429 28.6751 114.211 28.6025 113.92 28.6025C113.556 28.6025 113.265 28.7477 113.083 29.0018C112.865 29.2559 112.792 29.6551 112.792 30.127V30.5263C112.792 30.9982 112.901 31.3611 113.083 31.6515C113.265 31.9419 113.556 32.0508 113.883 32.0508C114.211 32.0508 114.429 31.9782 114.611 31.833C114.793 31.6878 114.902 31.4337 114.938 31.1071H115.484V31.1434Z" fill="white"/>
<path d="M116.029 30.853C116.029 30.5263 116.102 30.2722 116.211 30.0181C116.32 29.764 116.502 29.5825 116.72 29.4374C116.939 29.2922 117.193 29.2196 117.484 29.2196C117.921 29.2196 118.284 29.3648 118.539 29.6551C118.794 29.9455 118.939 30.3448 118.939 30.853V30.8893C118.939 31.2159 118.866 31.47 118.757 31.7241C118.648 31.9782 118.466 32.1597 118.248 32.3049C118.03 32.4501 117.775 32.5227 117.484 32.5227C117.048 32.5227 116.684 32.3775 116.429 32.0871C116.175 31.7967 116.029 31.3974 116.029 30.8893V30.853ZM116.575 30.9256C116.575 31.2885 116.648 31.5789 116.83 31.7604C117.011 31.9782 117.23 32.0871 117.484 32.0871C117.775 32.0871 117.993 31.9782 118.139 31.7604C118.284 31.5426 118.394 31.2522 118.394 30.853C118.394 30.49 118.321 30.2359 118.139 30.0181C117.957 29.8003 117.739 29.6914 117.484 29.6914C117.23 29.6914 117.011 29.8003 116.83 30.0181C116.648 30.2359 116.575 30.5263 116.575 30.9256Z" fill="white"/>
<path d="M120.14 29.2922V29.6551C120.358 29.3648 120.685 29.2559 121.085 29.2559C121.522 29.2559 121.849 29.4373 121.995 29.764C122.104 29.6188 122.249 29.4736 122.395 29.4011C122.54 29.3285 122.758 29.2559 123.013 29.2559C123.704 29.2559 124.068 29.6188 124.068 30.3811V32.5226H123.522V30.4174C123.522 30.1996 123.486 30.0181 123.377 29.9092C123.268 29.8003 123.086 29.7277 122.868 29.7277C122.649 29.7277 122.504 29.8003 122.358 29.9092C122.213 30.0181 122.14 30.1996 122.14 30.3811V32.4864H121.595V30.3811C121.595 29.9092 121.376 29.6914 120.903 29.6914C120.54 29.6914 120.285 29.8366 120.176 30.1633V32.4864H119.63V29.2922H120.14Z" fill="white"/>
<path d="M127.632 30.9256C127.632 31.3974 127.523 31.7967 127.305 32.0871C127.087 32.3775 126.796 32.5226 126.396 32.5226C125.995 32.5226 125.705 32.4138 125.486 32.1597V33.6842H124.941V29.2922H125.45L125.486 29.6551C125.705 29.3648 126.032 29.2559 126.396 29.2559C126.796 29.2559 127.087 29.4011 127.305 29.6914C127.523 29.9818 127.632 30.3811 127.632 30.8893V30.9256ZM127.087 30.853C127.087 30.49 127.014 30.1996 126.868 30.0181C126.723 29.8003 126.505 29.6914 126.25 29.6914C125.923 29.6914 125.668 29.8366 125.523 30.127V31.6515C125.668 31.9419 125.923 32.0871 126.286 32.0871C126.541 32.0871 126.759 31.9782 126.905 31.7604C127.014 31.5789 127.087 31.2885 127.087 30.853Z" fill="white"/>
<path d="M130.287 32.4864C130.251 32.4138 130.215 32.3049 130.215 32.1597C129.96 32.4138 129.669 32.559 129.305 32.559C128.978 32.559 128.723 32.4864 128.542 32.3049C128.36 32.1234 128.251 31.9056 128.251 31.6152C128.251 31.2886 128.36 31.0345 128.614 30.853C128.869 30.6715 129.233 30.5626 129.669 30.5626H130.215V30.3085C130.215 30.127 130.142 29.9818 130.033 29.8366C129.924 29.7278 129.742 29.6552 129.524 29.6552C129.342 29.6552 129.16 29.6915 129.051 29.8003C128.942 29.9092 128.869 30.0181 128.869 30.1633H128.323C128.323 30.0181 128.396 29.8366 128.505 29.6915C128.614 29.5463 128.76 29.4374 128.978 29.3285C129.196 29.2196 129.378 29.1833 129.633 29.1833C129.997 29.1833 130.287 29.2922 130.506 29.4737C130.724 29.6552 130.833 29.9092 130.833 30.2359V31.6878C130.833 31.9782 130.869 32.196 130.942 32.3775V32.4138H130.287V32.4864ZM129.378 32.0871C129.56 32.0871 129.706 32.0508 129.851 31.9419C129.997 31.8693 130.106 31.7241 130.178 31.6152V30.9619H129.742C129.087 30.9619 128.723 31.1434 128.723 31.5426C128.723 31.7241 128.796 31.833 128.905 31.9419C129.051 32.0145 129.196 32.0871 129.378 32.0871Z" fill="white"/>
<path d="M132.143 29.2922V29.6914C132.397 29.4011 132.688 29.2196 133.088 29.2196C133.779 29.2196 134.107 29.5825 134.107 30.3448V32.4501H133.561V30.3448C133.561 30.127 133.488 29.9455 133.416 29.8366C133.306 29.7277 133.161 29.6551 132.943 29.6551C132.761 29.6551 132.615 29.6914 132.47 29.8003C132.324 29.9092 132.215 30.0181 132.143 30.1633V32.4501H131.597V29.2559H132.143V29.2922Z" fill="white"/>
<path d="M134.943 28.4573C134.943 28.3847 134.98 28.3121 135.016 28.2395C135.052 28.1669 135.161 28.1306 135.271 28.1306C135.38 28.1306 135.452 28.1669 135.525 28.2395C135.598 28.3121 135.598 28.3847 135.598 28.4573C135.598 28.5299 135.562 28.6025 135.525 28.6751C135.489 28.7477 135.38 28.7477 135.271 28.7477C135.161 28.7477 135.089 28.7114 135.016 28.6751C134.98 28.6025 134.943 28.5299 134.943 28.4573ZM135.525 32.4864H134.98V29.2922H135.525V32.4864Z" fill="white"/>
<path d="M136.252 30.8531C136.252 30.5264 136.325 30.2723 136.434 30.0182C136.543 29.7641 136.725 29.5826 136.944 29.4375C137.162 29.2923 137.416 29.2197 137.707 29.2197C138.144 29.2197 138.508 29.3649 138.762 29.6552C139.017 29.9456 139.162 30.3449 139.162 30.8531V30.8894C139.162 31.216 139.09 31.4701 138.98 31.7242C138.871 31.9783 138.689 32.1598 138.471 32.305C138.253 32.4502 137.998 32.5228 137.707 32.5228C137.271 32.5228 136.907 32.3776 136.653 32.0872C136.398 31.7968 136.252 31.3975 136.252 30.8894V30.8531ZM136.834 30.9257C136.834 31.2886 136.907 31.579 137.089 31.7605C137.271 31.9783 137.489 32.0872 137.744 32.0872C138.035 32.0872 138.253 31.9783 138.398 31.7605C138.544 31.5427 138.653 31.2523 138.653 30.8531C138.653 30.4901 138.58 30.236 138.398 30.0182C138.217 29.8004 137.998 29.6915 137.744 29.6915C137.489 29.6915 137.271 29.8004 137.089 30.0182C136.907 30.236 136.834 30.5264 136.834 30.9257Z" fill="white"/>
<path d="M140.363 29.2922V29.6914C140.617 29.4011 140.908 29.2196 141.309 29.2196C142 29.2196 142.327 29.5825 142.327 30.3448V32.4501H141.781V30.3448C141.781 30.127 141.709 29.9455 141.636 29.8366C141.527 29.7277 141.381 29.6551 141.163 29.6551C140.981 29.6551 140.836 29.6914 140.69 29.8003C140.545 29.9092 140.436 30.0181 140.363 30.1633V32.4501H139.817V29.2559H140.363V29.2922Z" fill="white"/>
<path d="M23.1696 30.0181C20.6962 30.0181 18.6593 27.9855 18.4411 25.5898C18.4411 25.4446 18.4047 25.2994 18.4047 25.1543V10.0907C18.1865 10.1633 6.11072 13.7568 6.11072 13.7568C4.51032 14.3013 2.90991 15.7895 2.90991 17.4591L2.94629 32.4138C2.90991 34.5553 5.23777 36.588 7.67475 36.588C8.1476 36.588 8.62045 36.5154 9.09329 36.3702L20.5871 32.9582C22.2966 32.5227 23.1696 33.1397 23.7879 33.6479C23.8243 33.6842 23.897 33.6842 23.9334 33.6842C24.0789 33.6842 24.188 33.5753 24.188 33.4301V29.8729C23.8607 30.0181 23.5333 30.0181 23.1696 30.0181Z" fill="#4386F4"/>
<path d="M39.6465 7.5499C39.6829 5.40834 37.355 3.37567 34.918 3.37567C34.4452 3.37567 33.9724 3.44827 33.4995 3.59346L22.0057 7.00544C20.2962 7.44101 19.4232 6.82395 18.8049 6.31578C18.7685 6.27948 18.6958 6.27948 18.6594 6.27948C18.5139 6.27948 18.4048 6.38838 18.4048 6.53357V10.0907C18.7321 9.98184 19.0959 9.98184 19.4596 9.98184C21.9329 9.98184 23.9698 12.0145 24.1881 14.4102C24.1881 14.5553 24.2244 14.7005 24.2244 14.8457V29.9093C24.4427 29.8367 36.5184 26.2432 36.5184 26.2432C38.1189 25.6624 39.7193 24.2105 39.7193 22.5408L39.6465 7.5499Z" fill="#FFAB3F"/>
<path d="M24.1881 14.4102C23.9698 11.9782 21.9329 9.94556 19.4232 9.94556C19.0595 9.94556 18.6958 9.94556 18.3684 10.0544V25.118C18.3684 25.2632 18.3684 25.4083 18.4048 25.5535C18.623 27.9855 20.6599 29.9819 23.1332 29.9819C23.497 29.9819 23.8607 29.9819 24.1881 29.873V14.8094C24.2244 14.7005 24.2244 14.5554 24.1881 14.4102Z" fill="#4386F4"/>
<path opacity="0.9" d="M24.1881 14.4102C23.9698 11.9782 21.9329 9.94556 19.4232 9.94556C19.0595 9.94556 18.6958 9.94556 18.3684 10.0544V25.118C18.3684 25.2632 18.3684 25.4083 18.4048 25.5535C18.623 27.9855 20.6599 29.9819 23.1332 29.9819C23.497 29.9819 23.8607 29.9819 24.1881 29.873V14.8094C24.2244 14.7005 24.2244 14.5554 24.1881 14.4102Z" fill="#FFAB3F"/>
</svg>
