<svg width="24" height="24" viewBox="0 0 24 24" fill="none" xmlns="http://www.w3.org/2000/svg">
<path d="M12.3536 12.3536C12.2598 12.4473 12.1326 12.5 12 12.5C11.8674 12.5 11.7402 12.4473 11.6464 12.3536C11.5527 12.2598 11.5 12.1326 11.5 12C11.5 11.8674 11.5527 11.7402 11.6464 11.6464C11.7402 11.5527 11.8674 11.5 12 11.5C12.1326 11.5 12.2598 11.5527 12.3536 11.6464C12.4473 11.7402 12.5 11.8674 12.5 12C12.5 12.1326 12.4473 12.2598 12.3536 12.3536Z" fill="#3FDD78" stroke="#3FDD78"/>
<path d="M16.3536 12.3536C16.2598 12.4473 16.1326 12.5 16 12.5C15.8674 12.5 15.7402 12.4473 15.6464 12.3536C15.5527 12.2598 15.5 12.1326 15.5 12C15.5 11.8674 15.5527 11.7402 15.6464 11.6464C15.7402 11.5527 15.8674 11.5 16 11.5C16.1326 11.5 16.2598 11.5527 16.3536 11.6464C16.4473 11.7402 16.5 11.8674 16.5 12C16.5 12.1326 16.4473 12.2598 16.3536 12.3536Z" fill="#3FDD78" stroke="#3FDD78"/>
<path d="M8.35355 12.3536C8.25978 12.4473 8.13261 12.5 8 12.5C7.86739 12.5 7.74022 12.4473 7.64645 12.3536C7.55268 12.2598 7.5 12.1326 7.5 12C7.5 11.8674 7.55268 11.7402 7.64645 11.6464C7.74022 11.5527 7.86739 11.5 8 11.5C8.13261 11.5 8.25978 11.5527 8.35355 11.6464C8.44732 11.7402 8.5 11.8674 8.5 12C8.5 12.1326 8.44732 12.2598 8.35355 12.3536Z" fill="#3FDD78" stroke="#3FDD78"/>
<path d="M19.07 4.929C17.4292 3.2775 15.2636 2.25021 12.9466 2.02424C10.6296 1.79827 8.30634 2.38778 6.37738 3.69113C4.44842 4.99448 3.03463 6.93001 2.37976 9.16401C1.72489 11.398 1.86997 13.7905 2.79 15.929C2.886 16.127 2.917 16.351 2.88 16.569L2 20.799C1.95252 21.0284 1.98708 21.2672 2.09765 21.4737C2.20821 21.6802 2.38777 21.8413 2.605 21.929C2.73058 21.9788 2.86495 22.0026 3 21.999H3.2L7.48 21.139C7.697 21.112 7.918 21.143 8.12 21.229C10.2585 22.149 12.651 22.2941 14.885 21.6392C17.119 20.9844 19.0545 19.5706 20.3579 17.6416C21.6612 15.7127 22.2507 13.3894 22.0248 11.0724C21.7988 8.75536 20.7715 6.58979 19.12 4.949L19.07 4.929ZM19.9 13.289C19.7043 14.4829 19.2404 15.6169 18.5432 16.6056C17.846 17.5943 16.9337 18.4121 15.8748 18.9973C14.816 19.5826 13.6382 19.9201 12.4301 19.9845C11.222 20.0488 10.015 19.8384 8.9 19.369C8.50455 19.2007 8.07973 19.1124 7.65 19.109C7.46227 19.1103 7.27498 19.127 7.09 19.159L4.27 19.729L4.84 16.909C4.95352 16.2983 4.88034 15.6675 4.63 15.099C4.14966 13.9565 3.94135 12.718 4.02151 11.4812C4.10167 10.2444 4.46809 9.04309 5.09188 7.97212C5.71567 6.90115 6.57977 5.98975 7.61601 5.30983C8.65226 4.62991 9.83231 4.20005 11.0631 4.05416C12.2939 3.90827 13.5417 4.05034 14.7082 4.46917C15.8747 4.888 16.9279 5.57213 17.7848 6.46759C18.6417 7.36306 19.2788 8.44537 19.6458 9.62916C20.0129 10.8129 20.0999 12.0658 19.9 13.289Z" fill="#3FDD78"/>
</svg>
