<svg width="25" height="24" viewBox="0 0 25 24" fill="none" xmlns="http://www.w3.org/2000/svg">
<path fill-rule="evenodd" clip-rule="evenodd" d="M5.28401 2.481C6.06194 2.15798 6.89598 1.9917 7.73831 1.9917C8.58064 1.9917 9.41469 2.15798 10.1926 2.481C10.9706 2.80402 11.6771 3.27743 12.2716 3.87408L12.275 3.87742L12.3333 3.93653L12.3917 3.87743L12.395 3.87408C12.9896 3.27743 13.6961 2.80402 14.474 2.481C15.2519 2.15798 16.086 1.9917 16.9283 1.9917C17.7706 1.9917 18.6047 2.15798 19.3826 2.481C20.1603 2.80391 20.8666 3.2771 21.461 3.87346C24.0061 6.41915 24.0626 10.6283 21.047 13.7005L21.0405 13.7071L13.0404 21.7071C12.8529 21.8946 12.5985 22 12.3333 22C12.0681 22 11.8137 21.8946 11.6262 21.7071L3.61965 13.7005C0.603951 10.6283 0.660571 6.41915 3.2056 3.87346C3.80005 3.2771 4.50635 2.80391 5.28401 2.481ZM7.73831 3.9917C7.15921 3.9917 6.58581 4.10602 6.05098 4.32809C5.51615 4.55017 5.03042 4.87564 4.62165 5.28584L4.62042 5.28706C2.92681 6.98068 2.72307 9.92921 5.04383 12.2963L12.3333 19.5857L19.6228 12.2963C21.9436 9.92922 21.7398 6.98068 20.0462 5.28706L20.045 5.28584C19.6362 4.87564 19.1505 4.55017 18.6157 4.32809C18.0808 4.10602 17.5074 3.9917 16.9283 3.9917C16.3492 3.9917 15.7758 4.10602 15.241 4.32809C14.7069 4.54988 14.2217 4.87478 13.8133 5.28422C13.8127 5.28476 13.8122 5.2853 13.8116 5.28584L13.045 6.06249C12.8571 6.25282 12.6008 6.35996 12.3333 6.35996C12.0659 6.35996 11.8096 6.25282 11.6217 6.06249L10.855 5.28584C10.8544 5.2853 10.8539 5.28476 10.8534 5.28422C10.4449 4.87478 9.95977 4.54988 9.42565 4.32809C8.89082 4.10602 8.31742 3.9917 7.73831 3.9917Z" fill="#253D4E"/>
</svg>
