<svg width="18" height="18" viewBox="0 0 18 18" fill="none" xmlns="http://www.w3.org/2000/svg">
<g clip-path="url(#clip0_11_1032)">
<path d="M14.9174 17.1975C14.8499 17.1975 14.7824 17.1975 14.7074 17.19C12.2849 16.9275 9.9299 16.0875 7.8974 14.7675C6.0074 13.5675 4.3724 11.9325 3.1724 10.0425C1.8524 8.0025 1.0124 5.64 0.757398 3.2175C0.727398 2.895 0.764898 2.5875 0.862398 2.2875C0.959898 1.9875 1.1249 1.7175 1.3349 1.485C1.5449 1.2525 1.7999 1.0725 2.0849 0.945C2.3774 0.8175 2.6849 0.75 2.9999 0.75H5.2499C5.7749 0.75 6.3149 0.9375 6.7349 1.2975C7.1474 1.65 7.4174 2.145 7.4924 2.685C7.5824 3.3525 7.7474 4.0125 7.9799 4.635C8.1299 5.04 8.1674 5.475 8.0699 5.895C7.9799 6.315 7.7699 6.705 7.4699 7.005L6.9299 7.545C7.8149 8.925 8.9849 10.1025 10.3724 10.9875L10.9124 10.4475C11.2199 10.14 11.6099 9.93 12.0299 9.8475C12.4499 9.7575 12.8849 9.7875 13.2899 9.9375C13.9124 10.17 14.5724 10.335 15.2324 10.425C15.7874 10.5 16.2824 10.7775 16.6424 11.1975C16.9949 11.6175 17.1899 12.15 17.1749 12.6975V14.94C17.1749 15.255 17.1149 15.555 16.9874 15.8475C16.8599 16.1325 16.6724 16.395 16.4474 16.605C16.2149 16.815 15.9449 16.98 15.6449 17.0775C15.4049 17.16 15.1649 17.1975 14.9174 17.1975ZM5.2649 2.25H5.2574H2.9999C2.8949 2.25 2.7974 2.2725 2.6999 2.3175C2.6024 2.355 2.5124 2.415 2.4449 2.49C2.3699 2.565 2.3174 2.655 2.2874 2.76C2.2574 2.8575 2.2424 2.9625 2.2499 3.0675C2.4824 5.25 3.2399 7.38 4.4324 9.2325C5.5199 10.9425 6.9974 12.42 8.7074 13.5075C10.5524 14.7075 12.6824 15.4575 14.8574 15.6975C14.9474 15.705 15.0524 15.69 15.1499 15.66C15.2474 15.63 15.3374 15.57 15.4199 15.5025C15.5024 15.435 15.5624 15.345 15.5999 15.2475C15.6449 15.15 15.6599 15.045 15.6599 14.94V12.69C15.6599 12.6825 15.6599 12.675 15.6599 12.675C15.6674 12.4875 15.5999 12.315 15.4799 12.1725C15.3599 12.03 15.1949 11.94 15.0149 11.9175C14.2499 11.82 13.4849 11.625 12.7499 11.355C12.6149 11.3025 12.4649 11.295 12.3299 11.325C12.1874 11.355 12.0599 11.4225 11.9549 11.5275L11.0099 12.48C10.7699 12.72 10.4024 12.765 10.1099 12.6C8.1149 11.4675 6.4649 9.81 5.3249 7.8225C5.1674 7.5075 5.2124 7.14 5.4524 6.9L6.4049 5.9475C6.5024 5.85 6.5699 5.7225 6.5999 5.58C6.6299 5.4375 6.6224 5.295 6.5699 5.16C6.2924 4.425 6.1049 3.66 5.9999 2.8875C5.9774 2.715 5.8874 2.55 5.7524 2.43C5.6174 2.3175 5.4449 2.25 5.2649 2.25Z" fill="#3BB77E"/>
</g>
<defs>
<clipPath id="clip0_11_1032">
<rect width="18" height="18" fill="white"/>
</clipPath>
</defs>
</svg>
