<svg width="25" height="24" viewBox="0 0 25 24" fill="none" xmlns="http://www.w3.org/2000/svg">
<path fill-rule="evenodd" clip-rule="evenodd" d="M11.1667 4C7.30075 4 4.16675 7.13401 4.16675 11C4.16675 14.866 7.30075 18 11.1667 18C15.0327 18 18.1667 14.866 18.1667 11C18.1667 7.13401 15.0327 4 11.1667 4ZM2.16675 11C2.16675 6.02944 6.19619 2 11.1667 2C16.1373 2 20.1667 6.02944 20.1667 11C20.1667 15.9706 16.1373 20 11.1667 20C6.19619 20 2.16675 15.9706 2.16675 11Z" fill="white"/>
<path fill-rule="evenodd" clip-rule="evenodd" d="M16.1095 15.9428C16.5001 15.5523 17.1332 15.5523 17.5238 15.9428L21.8738 20.2928C22.2643 20.6833 22.2643 21.3165 21.8738 21.707C21.4832 22.0975 20.8501 22.0975 20.4595 21.707L16.1095 17.357C15.719 16.9665 15.719 16.3333 16.1095 15.9428Z" fill="white"/>
</svg>
