<svg width="25" height="25" viewBox="0 0 25 25" fill="none" xmlns="http://www.w3.org/2000/svg">
<g clip-path="url(#clip0_11_1140)">
<path fill-rule="evenodd" clip-rule="evenodd" d="M7.33325 21.5C7.33325 20.3954 8.22868 19.5 9.33325 19.5C10.4378 19.5 11.3333 20.3954 11.3333 21.5C11.3333 22.6046 10.4378 23.5 9.33325 23.5C8.22868 23.5 7.33325 22.6046 7.33325 21.5Z" fill="#253D4E"/>
<path fill-rule="evenodd" clip-rule="evenodd" d="M18.3333 21.5C18.3333 20.3954 19.2287 19.5 20.3333 19.5C21.4378 19.5 22.3333 20.3954 22.3333 21.5C22.3333 22.6046 21.4378 23.5 20.3333 23.5C19.2287 23.5 18.3333 22.6046 18.3333 21.5Z" fill="#253D4E"/>
<path fill-rule="evenodd" clip-rule="evenodd" d="M0.333252 1.5C0.333252 0.947715 0.780967 0.5 1.33325 0.5H5.33325C5.80988 0.5 6.22026 0.836385 6.3138 1.30374L7.15368 5.5H23.3333C23.6313 5.5 23.9138 5.63293 24.1037 5.86256C24.2937 6.09218 24.3714 6.39458 24.3155 6.68733L22.7141 15.0848C22.577 15.7754 22.2012 16.3958 21.6528 16.8373C21.107 17.2766 20.4249 17.511 19.7246 17.5H10.0219C9.32163 17.511 8.63946 17.2766 8.09373 16.8373C7.5455 16.3959 7.16989 15.7759 7.03258 15.0857C7.03252 15.0854 7.03264 15.0859 7.03258 15.0857L5.36204 6.7392C5.35527 6.71159 5.34963 6.68353 5.3452 6.65508L4.51357 2.5H1.33325C0.780967 2.5 0.333252 2.05228 0.333252 1.5ZM7.55398 7.5L8.99409 14.6952C9.03981 14.9254 9.16505 15.1322 9.34786 15.2793C9.53068 15.4265 9.75944 15.5047 9.99409 15.5002L10.0133 15.5H19.7333L19.7524 15.5002C19.9871 15.5047 20.2158 15.4265 20.3986 15.2793C20.5806 15.1328 20.7055 14.9273 20.7518 14.6984L22.1245 7.5H7.55398Z" fill="#253D4E"/>
</g>
<defs>
<clipPath id="clip0_11_1140">
<rect width="24" height="24" fill="white" transform="translate(0.333252 0.5)"/>
</clipPath>
</defs>
</svg>
