<svg width="20" height="20" viewBox="0 0 20 20" fill="none" xmlns="http://www.w3.org/2000/svg">
<path d="M14.1666 6.66666H13.3333V5.09166C13.3333 4.20761 12.9821 3.35976 12.3569 2.73464C11.7318 2.10952 10.884 1.75833 9.99992 1.75833C9.11586 1.75833 8.26802 2.10952 7.6429 2.73464C7.01777 3.35976 6.66659 4.20761 6.66659 5.09166V6.66666H5.83325C5.17021 6.66666 4.53433 6.93006 4.06549 7.3989C3.59664 7.86774 3.33325 8.50362 3.33325 9.16666V15.8333C3.33325 16.4964 3.59664 17.1323 4.06549 17.6011C4.53433 18.0699 5.17021 18.3333 5.83325 18.3333H14.1666C14.8296 18.3333 15.4655 18.0699 15.9344 17.6011C16.4032 17.1323 16.6666 16.4964 16.6666 15.8333V9.16666C16.6666 8.50362 16.4032 7.86774 15.9344 7.3989C15.4655 6.93006 14.8296 6.66666 14.1666 6.66666ZM8.33325 5.09166C8.32204 4.63774 8.49112 4.19787 8.80349 3.86833C9.11585 3.53879 9.54605 3.34642 9.99992 3.33333C10.4538 3.34642 10.884 3.53879 11.1963 3.86833C11.5087 4.19787 11.6778 4.63774 11.6666 5.09166V6.66666H8.33325V5.09166ZM14.9999 15.8333C14.9999 16.0543 14.9121 16.2663 14.7558 16.4226C14.5996 16.5789 14.3876 16.6667 14.1666 16.6667H5.83325C5.61224 16.6667 5.40028 16.5789 5.244 16.4226C5.08772 16.2663 4.99992 16.0543 4.99992 15.8333V9.16666C4.99992 8.94565 5.08772 8.73369 5.244 8.57741C5.40028 8.42113 5.61224 8.33333 5.83325 8.33333H14.1666C14.3876 8.33333 14.5996 8.42113 14.7558 8.57741C14.9121 8.73369 14.9999 8.94565 14.9999 9.16666V15.8333Z" fill="#0C0D0D"/>
<path d="M9.99999 10C9.6679 9.99393 9.33793 10.0541 9.02935 10.177C8.72078 10.2999 8.43979 10.483 8.20279 10.7157C7.96579 10.9485 7.77754 11.2261 7.64904 11.5323C7.52053 11.8386 7.45435 12.1674 7.45435 12.4996C7.45435 12.8317 7.52053 13.1605 7.64904 13.4668C7.77754 13.7731 7.96579 14.0507 8.20279 14.2834C8.43979 14.5161 8.72078 14.6993 9.02935 14.8222C9.33793 14.9451 9.6679 15.0052 9.99999 14.9992C10.655 14.9872 11.2792 14.7186 11.7382 14.2511C12.1972 13.7837 12.4543 13.1547 12.4543 12.4996C12.4543 11.8444 12.1972 11.2155 11.7382 10.748C11.2792 10.2806 10.655 10.012 9.99999 10ZM9.99999 13.3333C9.77897 13.3333 9.56701 13.2455 9.41073 13.0893C9.25445 12.933 9.16665 12.721 9.16665 12.5C9.16665 12.279 9.25445 12.067 9.41073 11.9107C9.56701 11.7545 9.77897 11.6667 9.99999 11.6667C10.221 11.6667 10.433 11.7545 10.5892 11.9107C10.7455 12.067 10.8333 12.279 10.8333 12.5C10.8333 12.721 10.7455 12.933 10.5892 13.0893C10.433 13.2455 10.221 13.3333 9.99999 13.3333Z" fill="#0C0D0D"/>
</svg>
