<svg width="20" height="20" viewBox="0 0 20 20" fill="none" xmlns="http://www.w3.org/2000/svg">
<path d="M9.99996 13.3333C10.221 13.3333 10.4329 13.2455 10.5892 13.0892C10.7455 12.933 10.8333 12.721 10.8333 12.5C10.8333 12.279 10.7455 12.067 10.5892 11.9107C10.4329 11.7545 10.221 11.6667 9.99996 11.6667C9.77895 11.6667 9.56698 11.7545 9.4107 11.9107C9.25442 12.067 9.16663 12.279 9.16663 12.5C9.16663 12.721 9.25442 12.933 9.4107 13.0892C9.56698 13.2455 9.77895 13.3333 9.99996 13.3333Z" fill="#0C0D0D"/>
<path d="M14.1667 6.66666H13.3334V5.09166C13.3334 4.20761 12.9822 3.35976 12.3571 2.73464C11.7319 2.10952 10.8841 1.75833 10 1.75833C9.11599 1.75833 8.26814 2.10952 7.64302 2.73464C7.0179 3.35976 6.66671 4.20761 6.66671 5.09166V6.66666H5.83337C5.17033 6.66666 4.53445 6.93006 4.06561 7.3989C3.59677 7.86774 3.33337 8.50362 3.33337 9.16666V15.8333C3.33337 16.4964 3.59677 17.1323 4.06561 17.6011C4.53445 18.0699 5.17033 18.3333 5.83337 18.3333H14.1667C14.8297 18.3333 15.4656 18.0699 15.9345 17.6011C16.4033 17.1323 16.6667 16.4964 16.6667 15.8333V9.16666C16.6667 8.50362 16.4033 7.86774 15.9345 7.3989C15.4656 6.93006 14.8297 6.66666 14.1667 6.66666ZM8.33337 5.09166C8.32216 4.63774 8.49125 4.19787 8.80361 3.86833C9.11597 3.53879 9.54617 3.34642 10 3.33333C10.4539 3.34642 10.8841 3.53879 11.1965 3.86833C11.5088 4.19787 11.6779 4.63774 11.6667 5.09166V6.66666H8.33337V5.09166ZM10 15C9.33689 15 8.7009 14.7366 8.23198 14.2676C7.76306 13.7987 7.49962 13.1627 7.49962 12.4996C7.49962 11.8364 7.76306 11.2004 8.23198 10.7315C8.7009 10.2626 9.33689 9.99916 10 9.99916C10.6631 9.99916 11.299 10.2626 11.7678 10.7314C12.2366 11.2002 12.5 11.8361 12.5 12.4992C12.5 13.1622 12.2366 13.7981 11.7678 14.2669C11.299 14.7358 10.6631 15 10 15Z" fill="#0C0D0D"/>
</svg>
