<svg width="20" height="20" viewBox="0 0 20 20" fill="none" xmlns="http://www.w3.org/2000/svg">
<path d="M14.1667 6.66666H13.3333V5.09166C13.3333 4.20761 12.9822 3.35976 12.357 2.73464C11.7319 2.10952 10.8841 1.75833 10 1.75833C9.11595 1.75833 8.26811 2.10952 7.64299 2.73464C7.01787 3.35976 6.66668 4.20761 6.66668 5.09166V6.66666H5.83334C5.1703 6.66666 4.53442 6.93006 4.06558 7.3989C3.59674 7.86774 3.33334 8.50362 3.33334 9.16666V15.8333C3.33334 16.4964 3.59674 17.1323 4.06558 17.6011C4.53442 18.0699 5.1703 18.3333 5.83334 18.3333H14.1667C14.8297 18.3333 15.4656 18.0699 15.9344 17.6011C16.4033 17.1323 16.6667 16.4964 16.6667 15.8333V9.16666C16.6667 8.50362 16.4033 7.86774 15.9344 7.3989C15.4656 6.93006 14.8297 6.66666 14.1667 6.66666ZM8.33334 5.09166C8.32213 4.63774 8.49122 4.19787 8.80358 3.86833C9.11594 3.53879 9.54614 3.34642 10 3.33333C10.4539 3.34642 10.8841 3.53879 11.1964 3.86833C11.5088 4.19787 11.6779 4.63774 11.6667 5.09166V6.66666H8.33334V5.09166ZM15 15.8333C15 16.0543 14.9122 16.2663 14.7559 16.4226C14.5997 16.5789 14.3877 16.6667 14.1667 16.6667H5.83334C5.61233 16.6667 5.40037 16.5789 5.24409 16.4226C5.08781 16.2663 5.00001 16.0543 5.00001 15.8333V9.16666C5.00001 8.94565 5.08781 8.73369 5.24409 8.57741C5.40037 8.42113 5.61233 8.33333 5.83334 8.33333H14.1667C14.3877 8.33333 14.5997 8.42113 14.7559 8.57741C14.9122 8.73369 15 8.94565 15 9.16666V15.8333Z" fill="#0C0D0D"/>
<path d="M9.99999 10C9.6679 9.99393 9.33793 10.0541 9.02935 10.177C8.72078 10.2999 8.43979 10.483 8.20279 10.7157C7.96579 10.9485 7.77754 11.2261 7.64904 11.5323C7.52053 11.8386 7.45435 12.1674 7.45435 12.4996C7.45435 12.8317 7.52053 13.1605 7.64904 13.4668C7.77754 13.7731 7.96579 14.0507 8.20279 14.2834C8.43979 14.5161 8.72078 14.6993 9.02935 14.8222C9.33793 14.9451 9.6679 15.0052 9.99999 14.9992C10.655 14.9872 11.2792 14.7186 11.7382 14.2511C12.1972 13.7837 12.4543 13.1547 12.4543 12.4996C12.4543 11.8444 12.1972 11.2155 11.7382 10.748C11.2792 10.2806 10.655 10.012 9.99999 10ZM9.99999 13.3333C9.77897 13.3333 9.56701 13.2455 9.41073 13.0893C9.25445 12.933 9.16665 12.721 9.16665 12.5C9.16665 12.279 9.25445 12.067 9.41073 11.9107C9.56701 11.7545 9.77897 11.6667 9.99999 11.6667C10.221 11.6667 10.433 11.7545 10.5892 11.9107C10.7455 12.067 10.8333 12.279 10.8333 12.5C10.8333 12.721 10.7455 12.933 10.5892 13.0893C10.433 13.2455 10.221 13.3333 9.99999 13.3333Z" fill="#0C0D0D"/>
</svg>
