<svg width="24" height="24" viewBox="0 0 24 24" fill="none" xmlns="http://www.w3.org/2000/svg">
<path d="M12 16C12.2652 16 12.5196 15.8946 12.7071 15.7071C12.8946 15.5196 13 15.2652 13 15C13 14.7348 12.8946 14.4804 12.7071 14.2929C12.5196 14.1054 12.2652 14 12 14C11.7348 14 11.4804 14.1054 11.2929 14.2929C11.1054 14.4804 11 14.7348 11 15C11 15.2652 11.1054 15.5196 11.2929 15.7071C11.4804 15.8946 11.7348 16 12 16Z" fill="#6C7275"/>
<path d="M17 8H16V6.11C16 5.04913 15.5786 4.03172 14.8284 3.28157C14.0783 2.53143 13.0609 2.11 12 2.11C10.9391 2.11 9.92172 2.53143 9.17157 3.28157C8.42143 4.03172 8 5.04913 8 6.11V8H7C6.20435 8 5.44129 8.31607 4.87868 8.87868C4.31607 9.44129 4 10.2044 4 11V19C4 19.7956 4.31607 20.5587 4.87868 21.1213C5.44129 21.6839 6.20435 22 7 22H17C17.7956 22 18.5587 21.6839 19.1213 21.1213C19.6839 20.5587 20 19.7956 20 19V11C20 10.2044 19.6839 9.44129 19.1213 8.87868C18.5587 8.31607 17.7956 8 17 8ZM10 6.11C9.98655 5.5653 10.1894 5.03745 10.5643 4.642C10.9391 4.24655 11.4554 4.0157 12 4C12.5446 4.0157 13.0609 4.24655 13.4357 4.642C13.8106 5.03745 14.0135 5.5653 14 6.11V8H10V6.11ZM12 18C11.2042 18 10.441 17.6839 9.87833 17.1212C9.31562 16.5585 8.9995 15.7953 8.9995 14.9995C8.9995 14.2037 9.31562 13.4405 9.87833 12.8778C10.441 12.3151 11.2042 11.999 12 11.999C12.7956 11.999 13.5587 12.3151 14.1213 12.8777C14.6839 13.4403 15 14.2034 15 14.999C15 15.7947 14.6839 16.5577 14.1213 17.1203C13.5587 17.6829 12.7956 18 12 18Z" fill="#6C7275"/>
</svg>
