<svg width="20" height="20" viewBox="0 0 20 20" fill="none" xmlns="http://www.w3.org/2000/svg">
<path d="M10.0001 13.3333C10.2211 13.3333 10.4331 13.2455 10.5893 13.0892C10.7456 12.933 10.8334 12.721 10.8334 12.5C10.8334 12.279 10.7456 12.067 10.5893 11.9107C10.4331 11.7545 10.2211 11.6667 10.0001 11.6667C9.77907 11.6667 9.56711 11.7545 9.41083 11.9107C9.25455 12.067 9.16675 12.279 9.16675 12.5C9.16675 12.721 9.25455 12.933 9.41083 13.0892C9.56711 13.2455 9.77907 13.3333 10.0001 13.3333Z" fill="#6C7275"/>
<path d="M14.1666 6.66666H13.3333V5.09166C13.3333 4.20761 12.9821 3.35976 12.3569 2.73464C11.7318 2.10952 10.884 1.75833 9.99992 1.75833C9.11586 1.75833 8.26802 2.10952 7.6429 2.73464C7.01777 3.35976 6.66659 4.20761 6.66659 5.09166V6.66666H5.83325C5.17021 6.66666 4.53433 6.93006 4.06549 7.3989C3.59664 7.86774 3.33325 8.50362 3.33325 9.16666V15.8333C3.33325 16.4964 3.59664 17.1323 4.06549 17.6011C4.53433 18.0699 5.17021 18.3333 5.83325 18.3333H14.1666C14.8296 18.3333 15.4655 18.0699 15.9344 17.6011C16.4032 17.1323 16.6666 16.4964 16.6666 15.8333V9.16666C16.6666 8.50362 16.4032 7.86774 15.9344 7.3989C15.4655 6.93006 14.8296 6.66666 14.1666 6.66666ZM8.33325 5.09166C8.32204 4.63774 8.49112 4.19787 8.80349 3.86833C9.11585 3.53879 9.54605 3.34642 9.99992 3.33333C10.4538 3.34642 10.884 3.53879 11.1963 3.86833C11.5087 4.19787 11.6778 4.63774 11.6666 5.09166V6.66666H8.33325V5.09166ZM9.99992 15C9.33677 15 8.70078 14.7366 8.23186 14.2676C7.76294 13.7987 7.4995 13.1627 7.4995 12.4996C7.4995 11.8364 7.76294 11.2004 8.23186 10.7315C8.70078 10.2626 9.33677 9.99916 9.99992 9.99916C10.663 9.99916 11.2988 10.2626 11.7677 10.7314C12.2365 11.2002 12.4999 11.8361 12.4999 12.4992C12.4999 13.1622 12.2365 13.7981 11.7677 14.2669C11.2988 14.7358 10.663 15 9.99992 15Z" fill="#6C7275"/>
</svg>
