<svg width="126" height="61" viewBox="0 0 126 61" fill="none" xmlns="http://www.w3.org/2000/svg">
<path d="M31.6645 48.6035C31.5529 48.6035 31.4971 48.5337 31.4971 48.3942L31.5808 19.6434C31.5808 19.5318 31.6366 19.476 31.7482 19.476H40.2018C41.7084 19.476 43.0895 19.8526 44.345 20.6059C45.6284 21.3313 46.6467 22.3218 47.4 23.5772C48.1533 24.8048 48.53 26.1998 48.53 27.7622C48.53 28.7945 48.3765 29.7292 48.0696 30.5662C47.7627 31.3753 47.4 32.0728 46.9815 32.6587C46.563 33.2167 46.1864 33.6352 45.8516 33.9142C47.3582 35.5882 48.1115 37.5551 48.1115 39.815L48.1533 48.3942C48.1533 48.5337 48.0836 48.6035 47.9441 48.6035H43.215C43.1034 48.6035 43.0476 48.5616 43.0476 48.4779V39.815C43.0476 38.8106 42.6849 37.9457 41.9595 37.2203C41.262 36.467 40.3971 36.0904 39.3648 36.0904H36.6028L36.5609 48.3942C36.5609 48.5337 36.5051 48.6035 36.3935 48.6035H31.6645ZM36.6028 31.0684H40.2018C41.0667 31.0684 41.834 30.7475 42.5036 30.1058C43.1732 29.4641 43.508 28.6829 43.508 27.7622C43.508 26.8694 43.1732 26.1022 42.5036 25.4605C41.8619 24.8188 41.0946 24.4979 40.2018 24.4979H36.6028V31.0684Z" fill="white"/>
<path d="M51.8956 48.6035C51.7561 48.6035 51.6864 48.5337 51.6864 48.3942L51.7282 19.6434C51.7282 19.5318 51.784 19.476 51.8956 19.476H56.5828C56.6944 19.476 56.7502 19.5318 56.7502 19.6434L56.792 48.3942C56.792 48.5337 56.7362 48.6035 56.6246 48.6035H51.8956Z" fill="white"/>
<path d="M60.6824 48.6035C60.5429 48.6035 60.4732 48.5337 60.4732 48.3942L60.5569 19.6434C60.5569 19.5318 60.6127 19.476 60.7243 19.476L68.5502 19.4341C70.0847 19.4062 71.4797 19.7689 72.7352 20.5222C74.0186 21.2755 75.037 22.2939 75.7903 23.5772C76.5435 24.8327 76.9202 26.2277 76.9202 27.7622V39.7731C76.9202 41.3913 76.5296 42.87 75.7484 44.2092C74.9672 45.5205 73.921 46.5668 72.6097 47.348C71.2984 48.1292 69.8197 48.5337 68.1736 48.5616L60.6824 48.6035ZM65.5789 43.4559H68.1736C69.2059 43.4559 70.0708 43.0932 70.7683 42.3678C71.4937 41.6424 71.8564 40.7775 71.8564 39.7731V27.7204C71.8564 26.8276 71.5216 26.0603 70.852 25.4186C70.2103 24.749 69.443 24.4282 68.5502 24.4561L65.6207 24.4979L65.5789 43.4559Z" fill="white"/>
<path d="M80.3803 48.6035C80.2687 48.6035 80.2129 48.5337 80.2129 48.3942L80.2548 19.6434C80.2548 19.5318 80.3106 19.476 80.4222 19.476H93.856C93.9676 19.476 94.0234 19.5457 94.0234 19.6852V24.3724C94.0234 24.484 93.9676 24.5398 93.856 24.5398H85.2768V31.0684H93.856C93.9676 31.0684 94.0234 31.1242 94.0234 31.2358L94.0652 35.9648C94.0652 36.0764 94.0094 36.1322 93.8978 36.1322H85.2768V43.4559H93.8978C94.0094 43.4559 94.0652 43.5257 94.0652 43.6652C94.0652 43.8047 94.0652 48.4361 94.0652 48.4361C94.0652 48.5477 94.0094 48.6035 93.8978 48.6035C93.7862 48.6035 80.3803 48.6035 80.3803 48.6035Z" fill="white"/>
<path d="M58.2206 8.1907L58.2333 7.76103C58.2417 7.49144 58.267 7.19657 58.3091 6.87643L58.4102 6.13083C58.4312 5.95391 58.4523 5.79384 58.4734 5.65062C58.0732 6.08871 57.7509 6.42991 57.5066 6.67423L56.78 7.38192C55.154 8.9026 54.1851 9.66294 53.8734 9.66294C53.4143 9.66294 52.9319 9.56395 52.4265 9.36596C52.1526 9.25644 51.9968 9.1427 51.9589 9.02476C51.8999 8.87732 51.8704 8.67723 51.8704 8.42449C51.8704 8.16753 51.8788 7.93164 51.8957 7.7168C51.9125 7.50197 51.9336 7.28924 51.9589 7.07862C51.9842 6.86379 52.0094 6.65949 52.0347 6.46572C52.0642 6.26774 52.0874 6.09503 52.1042 5.94759C52.1463 5.61481 52.1548 5.44842 52.1295 5.44842L49.779 8.33603C48.6711 9.63766 48.0413 10.358 47.8897 10.497C47.5653 10.7919 47.2073 10.9393 46.8155 10.9393C46.6218 10.9393 46.4617 10.8909 46.3353 10.794C46.2089 10.6971 46.1458 10.577 46.1458 10.4338C46.1458 10.1474 46.2658 9.84828 46.5059 9.53656L52.1168 2.40285L52.774 1.61302C53.5575 0.690507 54.0714 0.229248 54.3157 0.229248C54.6569 0.229248 54.9813 0.315602 55.2888 0.488311C55.5626 0.639958 55.7185 0.787392 55.7564 0.930614C55.7732 0.985375 55.7374 1.24023 55.6489 1.69517L55.4278 2.88938C55.1793 4.22051 55.055 5.07984 55.055 5.46738C55.055 5.85071 55.0992 6.04237 55.1877 6.04237C55.4741 6.04237 56.026 5.57269 56.8432 4.63332L58.8904 2.1817C59.3411 1.66357 59.6402 1.3687 59.7876 1.29709C59.8298 1.27603 59.8908 1.2655 59.9709 1.2655C60.0509 1.2655 60.1394 1.27603 60.2363 1.29709C60.3374 1.31816 60.4385 1.34554 60.5396 1.37924C60.6449 1.41293 60.746 1.45295 60.8428 1.49929C60.9397 1.54563 61.0261 1.59407 61.1019 1.64462C61.2662 1.75414 61.3462 1.84471 61.342 1.91632C61.342 1.98372 61.3252 2.13326 61.2915 2.36494C61.2578 2.59241 61.2156 2.87043 61.1651 3.199C60.8155 5.37681 60.6322 6.64053 60.6154 6.99016C60.6027 7.33979 60.6385 7.55884 60.7228 7.6473C60.8113 7.73576 60.9397 7.77999 61.1082 7.77999C61.4157 7.77999 61.8623 7.59675 62.4478 7.23027C62.8437 6.98174 63.1702 6.85747 63.4272 6.85747C63.6883 6.85747 63.8189 6.98174 63.8189 7.23027C63.8189 7.48723 63.6799 7.79895 63.4019 8.16543C63.0017 8.69619 62.4035 9.1764 61.6074 9.60607C60.9376 9.96412 60.3016 10.1432 59.6992 10.1432C58.7135 10.1432 58.2206 9.49233 58.2206 8.1907Z" fill="white"/>
<path d="M66.2705 7.04071C66.2705 7.23448 66.399 7.33137 66.656 7.33137C67.1783 7.33137 68.0671 6.68055 69.3224 5.37892L69.9353 4.75969C70.3524 4.35109 70.6283 4.14679 70.7631 4.14679C70.8979 4.14679 71.0179 4.16996 71.1232 4.21629C71.2285 4.26263 71.3212 4.3216 71.4013 4.39321C71.5655 4.54065 71.6477 4.69861 71.6477 4.86711C71.6477 5.03139 71.6287 5.21463 71.5908 5.41683C71.5571 5.61481 71.5023 5.83807 71.4265 6.0866C71.2875 6.54997 71.0369 7.1713 70.6746 7.95059L70.4155 8.50663L71.4897 7.53356L73.6886 5.65062C73.9118 5.48212 74.0972 5.39787 74.2446 5.39787C74.5648 5.39787 74.7248 5.55163 74.7248 5.85913C74.7248 6.17506 74.5184 6.58156 74.1056 7.07862C73.9792 7.23448 73.8423 7.37981 73.6949 7.51461L72.2037 8.80992L69.2972 11.2679C69.0402 11.4911 68.8464 11.668 68.7158 11.7986C68.56 12.0514 68.4378 12.2388 68.3494 12.361C68.2651 12.4874 68.1809 12.62 68.0966 12.7591C68.0124 12.9023 67.9302 13.0244 67.8502 13.1255C67.6775 13.3446 67.5048 13.4541 67.3321 13.4541C67.1509 13.4541 66.9761 13.3804 66.8076 13.233C66.4959 12.9591 66.34 12.7148 66.34 12.5C66.34 12.2852 66.399 12.0345 66.517 11.7481C66.6349 11.4658 66.7887 11.1415 66.9782 10.775L68.3178 8.30444C67.6733 8.88575 67.1678 9.27118 66.8013 9.46074C66.4348 9.64609 66.1252 9.76825 65.8725 9.82722C65.6239 9.89041 65.3585 9.922 65.0763 9.922C64.7983 9.922 64.554 9.86303 64.3434 9.74508C64.1327 9.63134 63.9579 9.47759 63.8189 9.28382C63.5493 8.90049 63.4145 8.40132 63.4145 7.78631C63.4145 7.13339 63.5788 6.48889 63.9074 5.85281C64.2233 5.22938 64.6403 4.7281 65.1585 4.34898C65.7061 3.94459 66.2684 3.7424 66.8455 3.7424C67.4226 3.7424 67.7112 3.96776 67.7112 4.41849C67.7112 4.70072 67.4711 5.11985 66.9909 5.67589C66.5106 6.22772 66.2705 6.68266 66.2705 7.04071Z" fill="white"/>
<rect x="68.7512" y="28.0261" width="3.13717" height="3.00235" fill="white"/>
<rect x="65.614" y="31.0286" width="3.13717" height="3.00235" fill="white"/>
<rect x="68.7512" y="34.0054" width="3.13717" height="3.00235" fill="white"/>
<rect x="65.614" y="37.0078" width="3.13717" height="3.00235" fill="white"/>
<path fill-rule="evenodd" clip-rule="evenodd" d="M24.8083 6.44635C20.3676 6.44635 16.3829 9.17409 14.7761 13.3139L3.13305 43.3116C0.395363 50.365 5.59914 57.9668 13.1653 57.9668H112.461C120.028 57.9668 125.231 50.365 122.494 43.3115L110.851 13.3139C109.244 9.17408 105.259 6.44635 100.818 6.44635H82.4989V4.05493H100.818C106.246 4.05493 111.116 7.38881 113.08 12.4486L124.723 42.4463C128.069 51.0672 121.709 60.3582 112.461 60.3582H13.1653C3.91778 60.3582 -2.4424 51.0672 0.903663 42.4463L12.5467 12.4486C14.5106 7.38883 19.3808 4.05493 24.8083 4.05493H40.8119V6.44635H24.8083Z" fill="white"/>
</svg>
