<svg width="174" height="34" viewBox="0 0 174 34" fill="none" xmlns="http://www.w3.org/2000/svg">
<g clip-path="url(#clip0_20_18744)">
<path d="M129.851 8.3598C131.214 8.3598 132.452 8.5332 133.564 8.87998C134.676 9.22677 135.615 9.6752 136.38 10.2253C136.858 10.5601 137.235 10.9308 137.51 11.3374C137.785 11.744 137.923 12.2701 137.923 12.9159V25.4719L137.917 25.8133C137.877 26.937 137.64 27.9174 137.205 28.7544C136.727 29.6752 136.075 30.4405 135.25 31.0504C134.425 31.6603 133.456 32.1087 132.344 32.3957C131.232 32.6827 130.042 32.8262 128.775 32.8262C126.598 32.8262 124.888 32.5332 123.645 31.9472C122.401 31.3613 121.779 30.4106 121.779 29.0952C121.779 28.5452 121.893 28.0609 122.12 27.6423C122.347 27.2238 122.604 26.9069 122.891 26.6916C123.585 27.0743 124.368 27.3972 125.241 27.6603C126.114 27.9233 127.017 28.0549 127.95 28.0549C129.241 28.0549 130.269 27.8396 131.035 27.4091C131.8 26.9786 132.183 26.2851 132.183 25.3284V24.7544L131.91 24.8665C130.983 25.2223 129.878 25.4002 128.595 25.4002C127.519 25.4002 126.497 25.2387 125.528 24.9159C124.559 24.593 123.71 24.0907 122.981 23.4091C122.251 22.7275 121.665 21.8486 121.223 20.7724C120.781 19.6961 120.559 18.4166 120.559 16.9338C120.559 15.4749 120.793 14.2073 121.259 13.1311C121.725 12.0549 122.371 11.164 123.196 10.4585C124.021 9.75293 125.002 9.22677 126.138 8.87998C127.274 8.5332 128.512 8.3598 129.851 8.3598ZM33.2869 8.91672C35.4197 8.91672 37.165 9.39531 38.5227 10.3525C39.8804 11.3096 40.6841 13.0003 40.9338 15.4244H36.3769L36.3333 15.1562C36.2301 14.6275 36.0313 14.1447 35.737 13.7077C35.2377 13.0211 34.4626 12.6777 33.4118 12.6777C31.9136 12.6777 30.8888 13.4216 30.3374 14.9094C30.0461 15.7001 29.9004 16.7509 29.9004 18.0618C29.9004 19.3102 30.0461 20.3142 30.3374 21.0737C30.868 22.4886 31.8668 23.1961 33.3337 23.1961C34.3741 23.1961 35.1128 22.9152 35.5498 22.3534C35.9867 21.7916 36.252 21.0633 36.3457 20.1686H40.887L40.8561 20.4794C40.7054 21.7175 40.2267 22.8936 39.42 24.0076C38.0259 25.9532 35.9607 26.9259 33.2245 26.9259C30.4883 26.9259 28.4751 26.1144 27.185 24.4914C25.8949 22.8684 25.2499 20.7616 25.2499 18.171C25.2499 15.2475 25.9626 12.9743 27.3879 11.3512C28.8132 9.72823 30.7796 8.91672 33.2869 8.91672ZM74.6185 8.86991C76.0334 8.86991 77.3079 9.13521 78.4419 9.66581C79.5759 10.1964 80.5123 11.0339 81.251 12.1784C81.9168 13.1875 82.3486 14.358 82.5462 15.6897C82.6607 16.47 82.7075 17.5936 82.6867 19.0606H71.0447L71.0606 19.3564C71.1718 20.9058 71.7023 22.0036 72.6521 22.6499C73.2659 23.0765 74.0046 23.2897 74.8681 23.2897C75.7837 23.2897 76.5276 23.0297 77.0998 22.5095C77.4119 22.2285 77.6876 21.8384 77.9269 21.339H82.4682L82.4345 21.5722C82.2705 22.5059 81.7563 23.453 80.892 24.4134C79.4355 26.0676 77.3963 26.8947 74.7745 26.8947C72.6105 26.8947 70.7014 26.1976 69.0471 24.8035C67.3929 23.4094 66.5658 21.1413 66.5658 17.9994C66.5658 15.055 67.3123 12.7974 68.8053 11.2264C70.2982 9.6554 72.236 8.86991 74.6185 8.86991ZM105.848 2.61989C106.374 2.61989 106.846 2.65577 107.265 2.72752C107.683 2.79927 108.036 2.94276 108.323 3.15801C108.61 3.37326 108.831 3.66623 108.987 4.03693C109.142 4.40764 109.22 4.89194 109.22 5.48985V26.297L109.099 26.3186C108.843 26.364 108.495 26.4226 108.054 26.4943C107.54 26.578 107.019 26.6199 106.493 26.6199C105.967 26.6199 105.495 26.584 105.076 26.5123C104.658 26.4405 104.305 26.297 104.018 26.0818C103.731 25.8665 103.51 25.5736 103.354 25.2029C103.199 24.8322 103.121 24.3478 103.121 23.7499V2.94276L103.242 2.92117C103.498 2.87577 103.846 2.8172 104.287 2.74545C104.801 2.66175 105.321 2.61989 105.848 2.61989ZM115.015 8.82617C115.541 8.82617 116.014 8.86205 116.432 8.93379C116.851 9.00554 117.203 9.14904 117.49 9.36429C117.777 9.57953 117.999 9.87251 118.154 10.2432C118.31 10.6139 118.387 11.0982 118.387 11.6961V26.297L118.267 26.3186C118.011 26.364 117.662 26.4226 117.221 26.4943C116.707 26.578 116.187 26.6199 115.661 26.6199C115.135 26.6199 114.662 26.584 114.244 26.5123C113.825 26.4405 113.473 26.297 113.186 26.0818C112.899 25.8665 112.677 25.5736 112.522 25.2029C112.366 24.8322 112.289 24.3478 112.289 23.7499V9.14904L112.409 9.12744C112.665 9.08205 113.014 9.02348 113.455 8.95173C113.969 8.86803 114.489 8.82617 115.015 8.82617ZM143.574 2.61989C144.101 2.61989 144.573 2.65577 144.991 2.72752C145.41 2.79927 145.763 2.94276 146.05 3.15801C146.337 3.37326 146.558 3.66623 146.713 4.03693C146.869 4.40764 146.947 4.89194 146.947 5.48985V9.00554L147.071 8.95986C147.378 8.8513 147.809 8.72901 148.364 8.59299C148.997 8.43753 149.697 8.3598 150.462 8.3598C152.83 8.3598 154.678 8.95173 156.005 10.1356C157.332 11.3194 157.996 13.0833 157.996 15.4271V26.297L157.885 26.3278C157.646 26.3893 157.307 26.4508 156.866 26.5123C156.352 26.584 155.82 26.6199 155.27 26.6199C154.743 26.6199 154.271 26.584 153.852 26.5123C153.434 26.4405 153.081 26.297 152.794 26.0818C152.507 25.8665 152.286 25.5736 152.131 25.2029C151.975 24.8322 151.897 24.3478 151.897 23.7499V15.7858L151.893 15.5647C151.858 14.7012 151.614 14.0873 151.162 13.723C150.672 13.3284 150.068 13.1311 149.35 13.1311C148.872 13.1311 148.417 13.1909 147.987 13.3105C147.557 13.4301 147.21 13.5736 146.947 13.741V26.297L146.836 26.3278C146.597 26.3893 146.257 26.4508 145.817 26.5123C145.302 26.584 144.77 26.6199 144.22 26.6199C143.694 26.6199 143.222 26.584 142.803 26.5123C142.385 26.4405 142.032 26.297 141.745 26.0818C141.458 25.8665 141.237 25.5736 141.081 25.2029C140.926 24.8322 140.848 24.3478 140.848 23.7499V2.94276L140.968 2.92117C141.225 2.87577 141.573 2.8172 142.014 2.74545C142.528 2.66175 143.048 2.61989 143.574 2.61989ZM100.626 4.59299L100.708 4.732C100.843 4.97615 100.965 5.28257 101.075 5.65128C101.206 6.09374 101.272 6.55412 101.272 7.03245C101.272 7.96519 101.075 8.62886 100.68 9.02348C100.285 9.4181 99.7533 9.61541 99.0836 9.61541H91.55V13.6692H99.4065L99.4997 13.8077C99.6508 14.0502 99.7812 14.3508 99.8908 14.7096C100.022 15.1401 100.088 15.5945 100.088 16.0728C100.088 16.9816 99.8908 17.6333 99.4962 18.028C99.1016 18.4226 98.5694 18.6199 97.8998 18.6199H91.6217V26.1894L91.4998 26.2201C91.2377 26.2816 90.8658 26.3431 90.3841 26.4046C89.822 26.4764 89.266 26.5123 88.7159 26.5123C88.1658 26.5123 87.6815 26.4704 87.263 26.3867C86.8445 26.303 86.4917 26.1535 86.2047 25.9383C85.9177 25.723 85.7025 25.4241 85.559 25.0414C85.4155 24.6588 85.3437 24.1565 85.3437 23.5347V7.92931L85.3499 7.67669C85.3956 6.76688 85.6925 6.03793 86.2406 5.48985C86.8385 4.89194 87.6516 4.59299 88.68 4.59299H100.626ZM16.3082 3.36103V7.40295H4.7754V12.6933H14.8724V16.6885H4.7754V26.3329H0V3.36103H16.3082ZM22.8234 9.32248V26.3329H18.3133V9.32248H22.8234ZM47.4022 3.40784V15.7989L52.9423 9.40051H58.4512L52.5054 15.9082L58.6853 26.3329H53.3169L49.2437 19.0606L47.4022 20.9801V26.3329H43.0326V3.40784H47.4022ZM64.4827 3.32982V26.3329H60.035V3.32982H64.4827ZM158.328 4.44546C159.074 4.22127 160.346 4.1714 161.836 4.83011C163.339 5.49509 164.277 6.63568 164.649 8.25189L172.721 8.93791C172.821 8.94371 172.92 8.96396 173.019 8.99866C173.167 9.05072 173.247 9.12396 173.314 9.18129C173.478 9.32186 173.531 9.43025 173.609 9.62434C173.748 9.96947 173.706 10.3757 173.525 10.6542C173.233 11.1032 172.777 11.3938 172.156 11.5258L165.639 12.9109L166.79 18.3225C166.922 18.9437 167.213 19.3438 167.663 19.5228C168.113 19.7019 168.696 19.7152 169.413 19.5628C169.772 19.4867 170.136 19.3781 170.505 19.2371C170.875 19.0961 171.193 18.9474 171.459 18.7908C171.73 19.008 171.977 19.2613 172.201 19.5508C172.425 19.8403 172.585 20.2121 172.682 20.666C173.038 22.3442 170.397 23.9296 168.666 24.2408C167.062 24.5289 164.602 24.7683 163.195 21.0835C161.789 17.3988 159.58 11.2224 157.894 6.07518C157.748 5.63098 157.658 5.19471 157.814 4.83471C157.899 4.64012 157.96 4.55613 158.328 4.44546ZM130.138 13.1311C128.966 13.1311 128.087 13.46 127.501 14.1177C126.915 14.7754 126.622 15.7141 126.622 16.9338C126.622 18.3209 126.915 19.3194 127.501 19.9293C128.087 20.5392 128.834 20.8441 129.743 20.8441C130.724 20.8441 131.501 20.6169 132.075 20.1625V13.5616L131.965 13.5042C131.806 13.4277 131.598 13.3511 131.34 13.2746C131.017 13.1789 130.616 13.1311 130.138 13.1311ZM74.6185 12.5373C73.5885 12.5373 72.79 12.8598 72.2229 13.5049C71.6559 14.1499 71.2996 15.0238 71.1539 16.1266H78.0674C77.9945 14.951 77.6382 14.0589 76.9984 13.4502C76.3585 12.8416 75.5652 12.5373 74.6185 12.5373ZM22.8234 3.18936V7.29371H18.3133V3.18936H22.8234ZM115.338 0.826172C116.342 0.826172 117.15 1.13708 117.76 1.75891C118.369 2.38073 118.674 3.14605 118.674 4.05487C118.674 4.96369 118.369 5.72901 117.76 6.35084C117.15 6.97266 116.342 7.28357 115.338 7.28357C114.334 7.28357 113.526 6.97266 112.916 6.35084C112.307 5.72901 112.002 4.96369 112.002 4.05487C112.002 3.14605 112.307 2.38073 112.916 1.75891C113.526 1.13708 114.334 0.826172 115.338 0.826172Z" fill="white"/>
</g>
<defs>
<clipPath id="clip0_20_18744">
<rect width="174" height="33" fill="white" transform="translate(0 0.300781)"/>
</clipPath>
</defs>
</svg>
