<svg width="174" height="34" fill="none" xmlns="http://www.w3.org/2000/svg"><g clip-path="url('#clip0_569_26877')"><path d="M129.851 8.36c1.363 0 2.601.173 3.713.52 1.112.347 2.051.795 2.816 1.345.478.335.855.706 1.13 1.112.275.407.413.933.413 1.579v12.556l-.006.341c-.04 1.124-.277 2.104-.712 2.941a6.595 6.595 0 0 1-1.955 2.296c-.825.61-1.794 1.059-2.906 1.346-1.112.287-2.302.43-3.569.43-2.177 0-3.887-.293-5.13-.879-1.244-.586-1.866-1.536-1.866-2.852 0-.55.114-1.034.341-1.453.227-.418.484-.735.771-.95.694.382 1.477.705 2.35.968a9.34 9.34 0 0 0 2.709.395c1.291 0 2.319-.215 3.085-.646.765-.43 1.148-1.124 1.148-2.08v-.575l-.273.112c-.927.356-2.032.534-3.315.534a9.639 9.639 0 0 1-3.067-.484 6.855 6.855 0 0 1-2.547-1.507c-.73-.681-1.316-1.56-1.758-2.637-.442-1.076-.664-2.355-.664-3.838 0-1.46.234-2.727.7-3.803.466-1.076 1.112-1.967 1.937-2.672.825-.706 1.806-1.232 2.942-1.579 1.136-.347 2.374-.52 3.713-.52Zm-96.564.557c2.133 0 3.878.478 5.236 1.435 1.357.958 2.161 2.648 2.41 5.072h-4.556l-.044-.268a3.905 3.905 0 0 0-.596-1.448c-.5-.687-1.274-1.03-2.325-1.03-1.498 0-2.523.744-3.075 2.231-.29.791-.437 1.842-.437 3.153 0 1.248.146 2.252.437 3.012.531 1.415 1.53 2.122 2.997 2.122 1.04 0 1.779-.28 2.216-.843.437-.561.702-1.29.796-2.184h4.541l-.03.31c-.152 1.239-.63 2.415-1.437 3.529-1.394 1.945-3.46 2.918-6.196 2.918-2.736 0-4.749-.812-6.039-2.435s-1.935-3.73-1.935-6.32c0-2.923.713-5.197 2.138-6.82 1.425-1.623 3.392-2.434 5.899-2.434Zm41.331-.047c1.415 0 2.69.265 3.824.796 1.134.53 2.07 1.368 2.809 2.512.666 1.01 1.098 2.18 1.295 3.512.115.78.161 1.904.14 3.37H71.046l.016.296c.11 1.55.641 2.648 1.591 3.294.614.427 1.353.64 2.216.64.916 0 1.66-.26 2.232-.78.312-.282.588-.672.827-1.171h4.541l-.034.233c-.163.934-.678 1.881-1.542 2.841-1.456 1.655-3.496 2.482-6.117 2.482-2.165 0-4.074-.697-5.728-2.091-1.654-1.395-2.481-3.663-2.481-6.805 0-2.944.746-5.202 2.24-6.773 1.492-1.57 3.43-2.356 5.813-2.356Zm31.23-6.25c.526 0 .998.036 1.417.108.418.071.771.215 1.058.43.287.215.508.508.664.879.155.37.233.855.233 1.453v20.807l-.121.022c-.256.045-.604.104-1.045.175a9.703 9.703 0 0 1-1.561.126c-.526 0-.998-.036-1.417-.108a2.417 2.417 0 0 1-1.058-.43 2.076 2.076 0 0 1-.664-.88c-.155-.37-.233-.854-.233-1.452V2.943l.121-.022c.256-.045.604-.104 1.045-.176a9.693 9.693 0 0 1 1.561-.125Zm9.167 6.206c.526 0 .999.036 1.417.108a2.41 2.41 0 0 1 1.058.43c.287.216.509.509.664.88.156.37.233.854.233 1.452v14.601l-.12.022c-.256.045-.605.104-1.046.175a9.69 9.69 0 0 1-1.56.126 8.44 8.44 0 0 1-1.417-.108 2.412 2.412 0 0 1-1.058-.43 2.068 2.068 0 0 1-.664-.88c-.156-.37-.233-.854-.233-1.452V9.149l.12-.022a79.21 79.21 0 0 1 1.046-.175 9.69 9.69 0 0 1 1.56-.126Zm28.559-6.206c.527 0 .999.036 1.417.108.419.071.772.215 1.059.43.287.215.508.508.663.879.156.37.234.855.234 1.453v3.516l.124-.046c.307-.109.738-.231 1.293-.367a8.802 8.802 0 0 1 2.098-.233c2.368 0 4.216.592 5.543 1.776 1.327 1.183 1.991 2.947 1.991 5.291v10.87l-.111.03a9.734 9.734 0 0 1-1.019.185c-.514.072-1.046.108-1.596.108-.527 0-.999-.036-1.418-.108a2.417 2.417 0 0 1-1.058-.43 2.066 2.066 0 0 1-.663-.88c-.156-.37-.234-.854-.234-1.452v-7.964l-.004-.221c-.035-.864-.279-1.478-.731-1.842-.49-.395-1.094-.592-1.812-.592-.478 0-.933.06-1.363.18-.43.12-.777.263-1.04.43v12.556l-.111.03a9.784 9.784 0 0 1-1.019.185 11.57 11.57 0 0 1-1.597.108c-.526 0-.998-.036-1.417-.108a2.417 2.417 0 0 1-1.058-.43 2.076 2.076 0 0 1-.664-.88c-.155-.37-.233-.854-.233-1.452V2.943l.12-.022a81.94 81.94 0 0 1 1.046-.176 9.69 9.69 0 0 1 1.56-.125Zm-42.948 1.973.082.139c.135.244.257.55.367.92.131.442.197.902.197 1.38 0 .933-.197 1.597-.592 1.991-.395.395-.927.592-1.596.592H91.55v4.054h7.856l.094.139c.15.242.281.543.39.902.132.43.198.884.198 1.363 0 .909-.197 1.56-.592 1.955-.394.395-.927.592-1.596.592h-6.278v7.57l-.122.03a11.66 11.66 0 0 1-1.116.185c-.562.071-1.118.107-1.668.107-.55 0-1.034-.042-1.453-.125a2.582 2.582 0 0 1-1.058-.449 1.938 1.938 0 0 1-.646-.897c-.144-.382-.215-.884-.215-1.506V7.929l.006-.252c.046-.91.343-1.64.89-2.187.599-.598 1.412-.897 2.44-.897h11.946ZM16.308 3.361v4.042H4.775v5.29h10.097v3.996H4.775v9.644H0V3.36h16.308Zm6.515 5.961v17.01h-4.51V9.323h4.51Zm24.58-5.914v12.39l5.54-6.397h5.508l-5.946 6.507 6.18 10.425h-5.368l-4.073-7.272-1.842 1.92v5.352h-4.37V3.408h4.37Zm17.08-.078v23.003h-4.448V3.33h4.448Zm93.845 1.115c.746-.224 2.018-.274 3.508.385 1.503.665 2.441 1.806 2.813 3.422l8.072.686c.1.006.199.026.298.06.148.053.228.126.295.183.164.14.217.25.295.443.139.345.097.752-.084 1.03-.292.45-.748.74-1.369.872l-6.517 1.385 1.151 5.412c.132.62.423 1.02.873 1.2.45.179 1.033.192 1.75.04a7.304 7.304 0 0 0 1.092-.326c.37-.14.688-.29.954-.446.271.217.518.47.742.76.224.29.384.661.481 1.115.356 1.678-2.285 3.264-4.016 3.575-1.604.288-4.064.527-5.471-3.157-1.406-3.685-3.615-9.862-5.301-15.009-.146-.444-.236-.88-.08-1.24.085-.195.146-.279.514-.39Zm-28.19 8.686c-1.172 0-2.051.329-2.637.987-.586.657-.879 1.596-.879 2.816 0 1.387.293 2.385.879 2.995.586.61 1.333.915 2.242.915.981 0 1.758-.227 2.332-.681v-6.601l-.11-.058a4.288 4.288 0 0 0-.625-.23c-.323-.095-.724-.143-1.202-.143Zm-55.52-.594c-1.03 0-1.828.323-2.395.968s-.923 1.519-1.07 2.622h6.914c-.072-1.176-.429-2.068-1.069-2.677-.64-.608-1.433-.913-2.38-.913ZM22.823 3.19v4.105h-4.51V3.189h4.51ZM115.338.826c1.004 0 1.812.311 2.422.933.609.622.914 1.387.914 2.296 0 .909-.305 1.674-.914 2.296-.61.622-1.418.933-2.422.933-1.004 0-1.812-.311-2.422-.933-.609-.622-.914-1.387-.914-2.296 0-.909.305-1.674.914-2.296.61-.622 1.418-.933 2.422-.933Z" fill="#fff"/></g><defs><clipPath id="clip0_569_26877"><path fill="#fff" transform="translate(0 .3)" d="M0 0h174v33H0z"/></clipPath></defs></svg>