<svg width="118" height="64" viewBox="0 0 118 64" fill="none" xmlns="http://www.w3.org/2000/svg">
<g clip-path="url(#clip0_1_153)" filter="url(#filter0_f_1_153)">
<path d="M22.1405 27.9696H24.5461L21.4769 35.3668H19.0714L16.0022 27.9696H18.6359L20.3675 32.2917L22.1405 27.9696Z" fill="#8B8F94"/>
<path d="M31.2701 35.3668V27.9696H33.7172V35.3668H31.2701Z" fill="#8B8F94"/>
<path d="M41.3757 35.3668V27.9696H44.953C47.3793 27.9696 49.0486 29.3751 49.0486 31.6682C49.0486 33.9613 47.3793 35.3668 44.953 35.3668H41.3757ZM43.8228 33.4224H44.8493C45.8758 33.4224 46.5809 32.7989 46.5809 31.6682C46.5809 30.5375 45.8758 29.914 44.8493 29.914H43.8228V33.4224Z" fill="#8B8F94"/>
<path d="M70.3336 35.5358C67.9695 35.5358 66.2379 33.9085 66.2379 31.6682C66.2379 29.4279 67.9695 27.8005 70.3336 27.8005C72.6977 27.8005 74.4293 29.4279 74.4293 31.6682C74.4293 33.9085 72.6977 35.5358 70.3336 35.5358ZM70.3336 33.5175C71.2357 33.5175 71.9615 32.82 71.9615 31.6682C71.9615 30.5163 71.2357 29.8189 70.3336 29.8189C69.4315 29.8189 68.7057 30.5163 68.7057 31.6682C68.7057 32.82 69.4315 33.5175 70.3336 33.5175Z" fill="#8B8F94"/>
<path d="M87.6978 29.8506H84.245V31.1187H87.2727V32.9997H84.245V35.3668H81.798V27.9696H87.6978V29.8506Z" fill="#8B8F94"/>
<path d="M102.002 27.9696L99.2648 32.6827V35.3668H96.8178V32.651L94.0804 27.9696H96.6622L98.145 30.5269L99.6381 27.9696H102.002Z" fill="#8B8F94"/>
<path fill-rule="evenodd" clip-rule="evenodd" d="M58.0303 16.4102C57.8122 15.8632 57.038 15.8632 56.82 16.4102L56.3782 17.5181C56.2669 17.7971 55.9794 17.9639 55.682 17.9219L54.508 17.7563C53.9311 17.6748 53.5456 18.3336 53.8991 18.7967L54.6504 19.7808C54.8286 20.0142 54.8286 20.338 54.6504 20.5715L53.8991 21.5555C53.5456 22.0186 53.9311 22.6774 54.508 22.596L55.682 22.4303C55.9794 22.3883 56.2669 22.5551 56.3782 22.8341L56.82 23.942C57.038 24.489 57.8122 24.489 58.0303 23.942L58.4721 22.8341C58.5833 22.5551 58.8709 22.3883 59.1683 22.4303L60.3423 22.596C60.9192 22.6774 61.3047 22.0186 60.9512 21.5555L60.1999 20.5715C60.0217 20.338 60.0217 20.0142 60.1999 19.7808L60.9512 18.7967C61.3047 18.3336 60.9192 17.6748 60.3423 17.7563L59.1683 17.9219C58.8709 17.9639 58.5833 17.7971 58.4721 17.5181L58.0303 16.4102ZM58.7212 27.4412H56.129V48.5759H58.7212V27.4412Z" fill="#444444"/>
</g>
<defs>
<filter id="filter0_f_1_153" x="0" y="0" width="118" height="64" filterUnits="userSpaceOnUse" color-interpolation-filters="sRGB">
<feFlood flood-opacity="0" result="BackgroundImageFix"/>
<feBlend mode="normal" in="SourceGraphic" in2="BackgroundImageFix" result="shape"/>
<feGaussianBlur stdDeviation="8" result="effect1_foregroundBlur_1_153"/>
</filter>
<clipPath id="clip0_1_153">
<rect width="86" height="32" fill="white" transform="translate(16 16)"/>
</clipPath>
</defs>
</svg>
