<svg width="126" height="61" fill="none" xmlns="http://www.w3.org/2000/svg"><path d="M31.665 48.603c-.112 0-.168-.07-.168-.209l.084-28.75c0-.112.056-.168.167-.168h8.454c1.506 0 2.888.377 4.143 1.13a8.217 8.217 0 0 1 3.055 2.971c.753 1.228 1.13 2.623 1.13 4.185 0 1.032-.154 1.967-.46 2.804-.307.81-.67 1.507-1.089 2.093-.418.558-.795.976-1.13 1.255 1.507 1.674 2.26 3.641 2.26 5.901l.042 8.58c0 .139-.07.208-.209.208h-4.729c-.112 0-.167-.041-.167-.125v-8.663c0-1.004-.363-1.87-1.089-2.595-.697-.753-1.562-1.13-2.594-1.13h-2.762l-.042 12.304c0 .14-.056.21-.167.21h-4.73Zm4.938-17.535h3.599c.865 0 1.632-.32 2.302-.962.67-.642 1.004-1.423 1.004-2.344 0-.893-.335-1.66-1.004-2.302-.642-.641-1.41-.962-2.302-.962h-3.6v6.57ZM51.896 48.603c-.14 0-.21-.07-.21-.209l.042-28.75c0-.112.056-.168.168-.168h4.687c.111 0 .167.056.167.167l.042 28.751c0 .14-.056.21-.167.21h-4.73ZM60.682 48.603c-.14 0-.209-.07-.209-.209l.084-28.75c0-.112.056-.168.167-.168l7.826-.042c1.535-.028 2.93.335 4.185 1.088a8.441 8.441 0 0 1 3.055 3.055c.753 1.256 1.13 2.65 1.13 4.185v12.011c0 1.618-.39 3.097-1.172 4.436a8.901 8.901 0 0 1-3.138 3.139c-1.312.781-2.79 1.186-4.436 1.214l-7.492.041Zm4.897-5.147h2.595c1.032 0 1.897-.363 2.594-1.088.726-.726 1.088-1.59 1.088-2.595V27.72c0-.892-.334-1.66-1.004-2.301-.642-.67-1.409-.99-2.302-.963l-2.93.042-.041 18.958ZM80.38 48.603c-.111 0-.167-.07-.167-.209l.042-28.75c0-.112.056-.168.167-.168h13.434c.112 0 .167.07.167.21v4.686c0 .112-.055.168-.167.168h-8.58v6.528h8.58c.112 0 .167.056.167.168l.042 4.729c0 .111-.056.167-.167.167h-8.621v7.324h8.62c.112 0 .168.07.168.21v4.77c0 .112-.056.167-.167.167H80.38ZM58.22 8.19l.013-.429c.009-.27.034-.564.076-.885l.101-.745c.021-.177.042-.337.063-.48-.4.438-.722.779-.966 1.023l-.727.708c-1.626 1.52-2.595 2.28-2.907 2.28-.459 0-.941-.098-1.447-.296-.273-.11-.43-.223-.467-.341-.06-.148-.089-.348-.089-.6 0-.257.009-.493.026-.708.017-.215.038-.428.063-.638.025-.215.05-.42.076-.613.03-.198.052-.371.07-.518.041-.333.05-.5.024-.5l-2.35 2.888c-1.108 1.302-1.738 2.022-1.89 2.161-.324.295-.682.442-1.074.442a.767.767 0 0 1-.48-.145.439.439 0 0 1-.19-.36c0-.287.12-.586.36-.897l5.612-7.134.657-.79C53.557.691 54.07.229 54.316.229c.34 0 .665.087.973.26.273.151.43.298.467.442.017.054-.019.31-.107.764l-.221 1.194c-.249 1.332-.373 2.19-.373 2.578 0 .384.044.575.133.575.286 0 .838-.47 1.655-1.409l2.047-2.451c.451-.518.75-.813.898-.885a.421.421 0 0 1 .183-.031c.08 0 .168.01.265.031a2.702 2.702 0 0 1 .866.348c.164.11.244.2.24.271 0 .068-.017.217-.05.449l-.127.834c-.35 2.178-.533 3.442-.55 3.791-.012.35.023.569.108.657.088.089.217.133.385.133.308 0 .754-.183 1.34-.55.396-.248.722-.373.98-.373.26 0 .39.125.39.373 0 .257-.138.569-.416.935-.4.531-.998 1.011-1.795 1.441-.67.358-1.306.537-1.908.537-.986 0-1.478-.65-1.478-1.952Z" fill="#fff"/><path d="M66.27 7.04c0 .194.129.291.386.291.522 0 1.411-.65 2.666-1.952l.613-.62c.417-.408.693-.612.828-.612s.255.023.36.07c.105.046.198.105.278.176.165.148.247.306.247.474a3 3 0 0 1-.057.55 5.477 5.477 0 0 1-.164.67c-.14.463-.39 1.084-.753 1.864l-.259.556 1.075-.973 2.199-1.883c.223-.169.408-.253.556-.253.32 0 .48.154.48.461 0 .316-.207.723-.62 1.22a4.02 4.02 0 0 1-.41.436L72.204 8.81l-2.907 2.458a12 12 0 0 0-.581.53c-.156.253-.278.44-.367.563-.084.126-.168.259-.252.398a3.238 3.238 0 0 1-.247.367c-.173.219-.345.328-.518.328-.181 0-.356-.074-.524-.221-.312-.274-.468-.518-.468-.733 0-.215.059-.466.177-.752.118-.282.272-.606.461-.973l1.34-2.47c-.645.58-1.15.966-1.517 1.156-.366.185-.676.307-.929.366a3.221 3.221 0 0 1-.796.095c-.278 0-.522-.059-.733-.177a1.534 1.534 0 0 1-.524-.461c-.27-.384-.405-.883-.405-1.498 0-.653.165-1.297.493-1.933a4.149 4.149 0 0 1 1.251-1.504c.548-.404 1.11-.607 1.688-.607.577 0 .865.226.865.676 0 .283-.24.702-.72 1.258-.48.552-.72 1.007-.72 1.365ZM68.751 28.026h3.137v3.002h-3.137zM65.614 31.029h3.137v3.002h-3.137zM68.751 34.005h3.137v3.002h-3.137zM65.614 37.008h3.137v3.002h-3.137z" fill="#fff"/><path fill-rule="evenodd" clip-rule="evenodd" d="M24.808 6.446c-4.44 0-8.425 2.728-10.032 6.868L3.133 43.312C.395 50.365 5.6 57.967 13.165 57.967h99.296c7.567 0 12.77-7.602 10.033-14.655l-11.643-29.998a10.762 10.762 0 0 0-10.033-6.868h-18.32V4.055h18.32a13.153 13.153 0 0 1 12.262 8.394l11.643 29.997c3.346 8.621-3.014 17.912-12.262 17.912H13.165c-9.247 0-15.607-9.29-12.261-17.912L12.547 12.45a13.153 13.153 0 0 1 12.261-8.394h16.004v2.391H24.808Z" fill="#fff"/></svg>