<svg width="18" height="18" viewBox="0 0 18 18" fill="none" xmlns="http://www.w3.org/2000/svg">
<path d="M12.75 7.5C12.3375 7.5 11.9843 7.35625 11.6903 7.06875C11.3963 6.78125 11.2495 6.425 11.25 6V3C11.25 2.575 11.397 2.21875 11.691 1.93125C11.985 1.64375 12.338 1.5 12.75 1.5C13.175 1.5 13.5313 1.64375 13.8188 1.93125C14.1063 2.21875 14.25 2.575 14.25 3V6C14.25 6.425 14.1063 6.78125 13.8188 7.06875C13.5313 7.35625 13.175 7.5 12.75 7.5ZM3.75 16.5C3.3375 16.5 2.98425 16.353 2.69025 16.059C2.39625 15.765 2.2495 15.412 2.25 15V3C2.25 2.5875 2.397 2.23425 2.691 1.94025C2.985 1.64625 3.338 1.4995 3.75 1.5H9.75V3H3.75V15H12V13.5H13.5V15C13.5 15.4125 13.353 15.7658 13.059 16.0598C12.765 16.3538 12.412 16.5005 12 16.5H3.75ZM5.25 13.5V12H10.5V13.5H5.25ZM5.25 11.25V9.75H9V11.25H5.25ZM13.5 12H12V10.05C11.0375 9.875 10.2343 9.40925 9.59025 8.65275C8.94625 7.89625 8.6245 7.012 8.625 6H10.125C10.125 6.725 10.3813 7.34375 10.8938 7.85625C11.4063 8.36875 12.025 8.625 12.75 8.625C13.4875 8.625 14.1095 8.36875 14.616 7.85625C15.1225 7.34375 15.3755 6.725 15.375 6H16.875C16.875 7.0125 16.5563 7.897 15.9188 8.6535C15.2813 9.41 14.475 9.8755 13.5 10.05V12Z" fill="#959798"/>
</svg>
