<svg width="22" height="22" viewBox="0 0 22 22" fill="none" xmlns="http://www.w3.org/2000/svg">
<g clip-path="url(#clip0_1_5195)">
<path d="M4.50008 9.1665C3.48716 9.1665 2.66675 9.98692 2.66675 10.9998C2.66675 12.0128 3.48716 12.8332 4.50008 12.8332C5.513 12.8332 6.33341 12.0128 6.33341 10.9998C6.33341 9.98692 5.513 9.1665 4.50008 9.1665ZM17.5001 9.1665C16.4872 9.1665 15.6667 9.98692 15.6667 10.9998C15.6667 12.0128 16.4872 12.8332 17.5001 12.8332C18.513 12.8332 19.3334 12.0128 19.3334 10.9998C19.3334 9.98692 18.513 9.1665 17.5001 9.1665ZM11.0001 9.1665C9.98716 9.1665 9.16675 9.98692 9.16675 10.9998C9.16675 12.0128 9.98716 12.8332 11.0001 12.8332C12.013 12.8332 12.8334 12.0128 12.8334 10.9998C12.8334 9.98692 12.013 9.1665 11.0001 9.1665Z" fill="#929EAE"/>
</g>
<defs>
<clipPath id="clip0_1_5195">
<rect width="22" height="22" fill="white"/>
</clipPath>
</defs>
</svg>
