<svg width="66" height="67" fill="none" xmlns="http://www.w3.org/2000/svg"><path d="M.613 16.914c0-8.837 7.164-16 16-16H50c8.837 0 16 7.164 16 16v33.387c0 8.837-7.163 16-16 16H16.613c-8.836 0-16-7.163-16-16V16.914Z" fill="#79CA00"/><path d="M43.75 21.968H22.863c-1.44 0-2.611 1.16-2.611 2.586V42.66c0 1.427 1.17 2.587 2.61 2.587H43.75c1.44 0 2.611-1.16 2.611-2.587V24.554c0-1.426-1.17-2.586-2.61-2.586Zm.002 7.76c-.002 0-.002 0 0 0h-.608l-3.481-5.174h4.087l.002 5.174Zm-5.876 7.76-7.18 3.879v-7.76l7.18 3.88Zm-1.259-7.76-3.481-5.174h3.389l3.481 5.174h-3.389Zm-3.138 0h-3.39l-3.48-5.174h3.388l3.482 5.174Zm-10.616-5.174h.607l3.482 5.174h-4.09v-5.174Z" fill="#fff"/></svg>