<svg width="66" height="67" viewBox="0 0 66 67" fill="none" xmlns="http://www.w3.org/2000/svg">
<path d="M0.613281 16.9141C0.613281 8.0775 7.77673 0.914062 16.6133 0.914062H50.0003C58.8369 0.914062 66.0003 8.07751 66.0003 16.9141V50.3011C66.0003 59.1377 58.8369 66.3011 50.0003 66.3011H16.6133C7.77672 66.3011 0.613281 59.1377 0.613281 50.3011V16.9141Z" fill="#79CA00"/>
<path d="M43.7502 21.9678H22.8629C21.4229 21.9678 20.252 23.1278 20.252 24.5543V42.6603C20.252 44.0867 21.4229 45.2468 22.8629 45.2468H43.7502C45.1901 45.2468 46.3611 44.0867 46.3611 42.6603V24.5543C46.3611 23.1278 45.1901 21.9678 43.7502 21.9678ZM43.7515 29.7275C43.7502 29.7275 43.7502 29.7275 43.7515 29.7275H43.1444L39.6628 24.5543H43.7502L43.7515 29.7275ZM37.8756 37.4871L30.6956 41.367V33.6073L37.8756 37.4871ZM36.6172 29.7275L33.1355 24.5543H36.5245L40.0061 29.7275H36.6172V29.7275ZM33.4788 29.7275H30.0899L26.6082 24.5543H29.9972L33.4788 29.7275ZM22.8629 24.5543H23.4699L26.9516 29.7275H22.8629V24.5543Z" fill="white"/>
</svg>
