<svg width="20" height="20" viewBox="0 0 20 20" fill="none" xmlns="http://www.w3.org/2000/svg">
<path d="M12.3749 3.29232V6.45898H11.1249V3.29232C11.1249 3.06732 10.9249 2.95898 10.7916 2.95898C10.7499 2.95898 10.7083 2.96732 10.6666 2.98398L4.05825 5.47565C3.61659 5.64232 3.33325 6.05898 3.33325 6.53398V7.09232C2.57492 7.65898 2.08325 8.56733 2.08325 9.59233V6.53398C2.08325 5.54232 2.69159 4.65898 3.61659 4.30898L10.2333 1.80898C10.4166 1.74232 10.6083 1.70898 10.7916 1.70898C11.6249 1.70898 12.3749 2.38398 12.3749 3.29232ZM17.9172 12.0833V12.9167C17.9172 13.1417 17.7422 13.325 17.5088 13.3333H16.2922C15.8505 13.3333 15.4505 13.0083 15.4172 12.575C15.3922 12.3167 15.4922 12.075 15.6588 11.9083C15.8088 11.75 16.0172 11.6667 16.2422 11.6667H17.5005C17.7422 11.675 17.9172 11.8583 17.9172 12.0833Z" fill="#929EAE"/>
<path d="M16.2333 10.7918H17.0833C17.5416 10.7918 17.9166 10.4168 17.9166 9.9585V9.59183C17.9166 7.86683 16.5083 6.4585 14.7833 6.4585H5.21659C4.50825 6.4585 3.85825 6.69183 3.33325 7.09183C2.57492 7.6585 2.08325 8.56683 2.08325 9.59183V15.2002C2.08325 16.9252 3.49159 18.3335 5.21659 18.3335H14.7833C16.5083 18.3335 17.9166 16.9252 17.9166 15.2002V15.0418C17.9166 14.5835 17.5416 14.2085 17.0833 14.2085H16.3583C15.5583 14.2085 14.7916 13.7168 14.5833 12.9418C14.4083 12.3085 14.6166 11.7002 15.0333 11.2918C15.3416 10.9752 15.7666 10.7918 16.2333 10.7918ZM11.6666 10.6252H5.83325C5.49159 10.6252 5.20825 10.3418 5.20825 10.0002C5.20825 9.6585 5.49159 9.37516 5.83325 9.37516H11.6666C12.0083 9.37516 12.2916 9.6585 12.2916 10.0002C12.2916 10.3418 12.0083 10.6252 11.6666 10.6252Z" fill="#929EAE"/>
</svg>
