<svg width="20" height="10" fill="none" xmlns="http://www.w3.org/2000/svg"><path d="m8.73 5.657.009-.286c.005-.18.022-.376.05-.589l.068-.496c.014-.117.028-.224.042-.32a21.9 21.9 0 0 1-.644.682l-.483.47C6.69 6.13 6.046 6.637 5.84 6.637c-.306 0-.627-.066-.963-.198-.182-.072-.286-.148-.311-.227a1.102 1.102 0 0 1-.059-.399c0-.17.006-.328.017-.47.011-.144.025-.285.042-.425a32.876 32.876 0 0 1 .097-.753c.028-.221.033-.332.016-.332L3.115 5.753c-.737.866-1.156 1.345-1.257 1.438a1.04 1.04 0 0 1-.715.294.51.51 0 0 1-.32-.097.292.292 0 0 1-.125-.24c0-.19.08-.389.24-.596L4.67 1.806l.437-.525C5.628.667 5.97.36 6.133.36c.227 0 .443.057.647.172.182.1.286.199.311.294.011.036-.012.206-.071.509l-.147.794c-.166.885-.248 1.457-.248 1.715 0 .255.029.382.088.382.19 0 .558-.312 1.101-.937l1.362-1.63c.3-.345.499-.542.597-.59a.28.28 0 0 1 .122-.02c.053 0 .112.007.176.02a1.79 1.79 0 0 1 .576.232c.11.073.163.133.16.18 0 .045-.011.145-.034.3l-.084.554c-.232 1.449-.354 2.29-.365 2.522-.009.233.015.378.071.437.059.059.144.088.256.088.205 0 .502-.122.892-.365.263-.166.48-.248.651-.248.174 0 .26.082.26.248 0 .17-.092.378-.277.622-.266.353-.664.672-1.194.958-.445.238-.868.357-1.269.357-.656 0-.984-.433-.984-1.298Z" fill="#FBA403"/><path d="M14.086 4.892c0 .128.085.193.256.193.348 0 .939-.433 1.774-1.299l.407-.412c.278-.272.462-.408.551-.408.09 0 .17.016.24.047.07.03.131.07.185.117.109.098.164.204.164.316 0 .109-.013.23-.038.365-.023.132-.059.28-.11.446-.092.308-.259.721-.5 1.24l-.172.37.715-.648 1.462-1.252c.149-.112.272-.168.37-.168.213 0 .32.102.32.307 0 .21-.138.48-.412.81-.084.104-.175.201-.273.29l-.992.863-1.934 1.635c-.17.148-.3.266-.387.353a6.598 6.598 0 0 1-.243.374 7.141 7.141 0 0 0-.169.265c-.056.095-.11.176-.164.243-.114.146-.23.219-.344.219a.526.526 0 0 1-.35-.147c-.207-.182-.31-.345-.31-.488 0-.143.039-.31.117-.5.079-.188.181-.403.307-.647l.892-1.644c-.43.387-.766.643-1.01.77-.243.123-.45.204-.617.243a2.144 2.144 0 0 1-.53.063.982.982 0 0 1-.488-.117 1.02 1.02 0 0 1-.348-.307c-.18-.255-.27-.587-.27-.996 0-.435.11-.864.329-1.287a2.76 2.76 0 0 1 .832-1c.364-.27.738-.404 1.122-.404.384 0 .576.15.576.45 0 .188-.16.467-.48.837-.319.367-.478.67-.478.908Z" fill="#FBA403"/></svg>