<svg width="20" height="10" viewBox="0 0 20 10" fill="none" xmlns="http://www.w3.org/2000/svg">
<path d="M8.73047 5.65661L8.73888 5.37078C8.74448 5.19143 8.7613 4.99528 8.78932 4.78231L8.85657 4.28631C8.87058 4.16861 8.88459 4.06213 8.89861 3.96685C8.63239 4.25828 8.41802 4.48527 8.25549 4.6478L7.7721 5.11858C6.69043 6.13019 6.04591 6.63599 5.83855 6.63599C5.5331 6.63599 5.21224 6.57014 4.87597 6.43844C4.69383 6.36558 4.59014 6.28992 4.56492 6.21145C4.52569 6.11337 4.50608 5.98027 4.50608 5.81213C4.50608 5.6412 4.51168 5.48427 4.52289 5.34135C4.5341 5.19844 4.54811 5.05693 4.56492 4.91681C4.58174 4.7739 4.59855 4.63799 4.61536 4.50909C4.63498 4.37738 4.65039 4.26249 4.6616 4.16441C4.68962 3.94303 4.69523 3.83234 4.67841 3.83234L3.11476 5.75329C2.37777 6.61918 1.95883 7.09837 1.85795 7.19084C1.64217 7.387 1.40398 7.48508 1.14337 7.48508C1.01447 7.48508 0.907984 7.45285 0.823916 7.3884C0.739849 7.32395 0.697815 7.24408 0.697815 7.14881C0.697815 6.95825 0.777679 6.75929 0.937408 6.55193L4.67001 1.80631L5.10716 1.28089C5.62838 0.667198 5.97025 0.360352 6.13278 0.360352C6.35977 0.360352 6.57554 0.417798 6.7801 0.53269C6.96225 0.633571 7.06593 0.73165 7.09115 0.826927C7.10236 0.863356 7.07854 1.03289 7.0197 1.33554L6.87258 2.12997C6.70724 3.01549 6.62458 3.58714 6.62458 3.84495C6.62458 4.09996 6.654 4.22746 6.71285 4.22746C6.9034 4.22746 7.2705 3.91501 7.81413 3.29011L9.17603 1.6592C9.47587 1.31452 9.67483 1.11836 9.77291 1.07072C9.80093 1.05671 9.84156 1.04971 9.89481 1.04971C9.94805 1.04971 10.0069 1.05671 10.0713 1.07072C10.1386 1.08473 10.2059 1.10295 10.2731 1.12537C10.3432 1.14778 10.4104 1.17441 10.4749 1.20523C10.5393 1.23606 10.5968 1.26828 10.6472 1.30191C10.7565 1.37477 10.8097 1.43502 10.8069 1.48265C10.8069 1.52749 10.7957 1.62697 10.7733 1.78109C10.7509 1.93241 10.7229 2.11736 10.6892 2.33594C10.4567 3.7847 10.3348 4.62538 10.3236 4.85797C10.3151 5.09055 10.339 5.23627 10.395 5.29512C10.4539 5.35396 10.5393 5.38339 10.6514 5.38339C10.856 5.38339 11.153 5.26149 11.5425 5.01769C11.8059 4.85236 12.0231 4.7697 12.1941 4.7697C12.3678 4.7697 12.4547 4.85236 12.4547 5.01769C12.4547 5.18863 12.3622 5.396 12.1772 5.63979C11.911 5.99288 11.5131 6.31234 10.9835 6.59816C10.5379 6.83636 10.1148 6.95545 9.71406 6.95545C9.05833 6.95545 8.73047 6.5225 8.73047 5.65661Z" fill="#FBA403"/>
<path d="M14.0856 4.89159C14.0856 5.0205 14.171 5.08495 14.342 5.08495C14.6895 5.08495 15.2807 4.652 16.1158 3.7861L16.5235 3.37417C16.801 3.10236 16.9845 2.96645 17.0742 2.96645C17.1638 2.96645 17.2437 2.98186 17.3138 3.01268C17.3838 3.04351 17.4455 3.08274 17.4987 3.13038C17.608 3.22846 17.6627 3.33354 17.6627 3.44563C17.6627 3.55492 17.65 3.67682 17.6248 3.81132C17.6024 3.94303 17.566 4.09155 17.5155 4.25688C17.4231 4.56513 17.2563 4.97846 17.0153 5.49688L16.843 5.86678L17.5576 5.21946L19.0203 3.96685C19.1689 3.85476 19.2922 3.79871 19.3902 3.79871C19.6032 3.79871 19.7097 3.901 19.7097 4.10556C19.7097 4.31573 19.5724 4.58615 19.2978 4.91681C19.2137 5.0205 19.1226 5.11717 19.0245 5.20685L18.0325 6.06854L16.099 7.70365C15.9281 7.85217 15.7992 7.96987 15.7123 8.05674C15.6086 8.22487 15.5273 8.34957 15.4685 8.43084C15.4124 8.5149 15.3564 8.60318 15.3004 8.69565C15.2443 8.79093 15.1897 8.87219 15.1364 8.93945C15.0215 9.08516 14.9066 9.15802 14.7917 9.15802C14.6712 9.15802 14.555 9.10898 14.4429 9.0109C14.2355 8.82876 14.1318 8.66623 14.1318 8.52331C14.1318 8.3804 14.171 8.21366 14.2495 8.02311C14.328 7.83536 14.4303 7.61959 14.5564 7.37579L15.4475 5.73227C15.0187 6.11898 14.6825 6.37539 14.4387 6.50149C14.1949 6.62479 13.9889 6.70605 13.8208 6.74528C13.6554 6.78732 13.4789 6.80833 13.2911 6.80833C13.1062 6.80833 12.9437 6.7691 12.8035 6.69064C12.6634 6.61498 12.5471 6.5127 12.4547 6.38379C12.2753 6.12879 12.1856 5.79672 12.1856 5.38759C12.1856 4.95324 12.2949 4.5245 12.5135 4.10136C12.7237 3.68662 13.0011 3.35316 13.3458 3.10095C13.7101 2.83194 14.0842 2.69743 14.4681 2.69743C14.852 2.69743 15.0439 2.84735 15.0439 3.14719C15.0439 3.33494 14.8842 3.61377 14.5648 3.98366C14.2453 4.35076 14.0856 4.6534 14.0856 4.89159Z" fill="#FBA403"/>
</svg>
