<svg width="24" height="25" fill="none" xmlns="http://www.w3.org/2000/svg"><path d="M21.673 19.054A9.598 9.598 0 0 1 20 17.1a8.42 8.42 0 0 1-.9-3.206V10.6a7.207 7.207 0 0 0-6.294-7.166v-.86a.89.89 0 1 0-1.78 0v.873a7.207 7.207 0 0 0-6.22 7.153v3.294a8.42 8.42 0 0 1-.9 3.206 9.6 9.6 0 0 1-1.646 1.954.667.667 0 0 0-.227.5v.906a.667.667 0 0 0 .667.667h18.533a.667.667 0 0 0 .667-.667v-.906a.667.667 0 0 0-.227-.5Zm-18.253.74c.62-.6 1.166-1.271 1.627-2a9.494 9.494 0 0 0 1.1-3.9V10.6a5.827 5.827 0 1 1 11.646 0v3.294a9.493 9.493 0 0 0 1.1 3.9c.46.729 1.007 1.4 1.627 2H3.42ZM12 23.313a1.78 1.78 0 0 0 1.72-1.52h-3.507A1.78 1.78 0 0 0 12 23.313Z" fill="#424242"/><circle cx="18.457" cy="5.938" r="3.5" fill="#F99A0E" stroke="#fff"/></svg>