<svg width="18" height="18" viewBox="0 0 18 18" fill="none" xmlns="http://www.w3.org/2000/svg">
<path fill-rule="evenodd" clip-rule="evenodd" d="M14.625 2.8125H3.375C3.22582 2.8125 3.08274 2.87176 2.97725 2.97725C2.87176 3.08274 2.8125 3.22582 2.8125 3.375V14.625C2.8125 14.7742 2.87176 14.9173 2.97725 15.0227C3.08274 15.1282 3.22582 15.1875 3.375 15.1875H14.625C14.7742 15.1875 14.9173 15.1282 15.0227 15.0227C15.1282 14.9173 15.1875 14.7742 15.1875 14.625V3.375C15.1875 3.22582 15.1282 3.08274 15.0227 2.97725C14.9173 2.87176 14.7742 2.8125 14.625 2.8125ZM3.375 1.125C2.77826 1.125 2.20597 1.36205 1.78401 1.78401C1.36205 2.20597 1.125 2.77826 1.125 3.375V14.625C1.125 15.2217 1.36205 15.794 1.78401 16.216C2.20597 16.6379 2.77826 16.875 3.375 16.875H14.625C15.2217 16.875 15.794 16.6379 16.216 16.216C16.6379 15.794 16.875 15.2217 16.875 14.625V3.375C16.875 2.77826 16.6379 2.20597 16.216 1.78401C15.794 1.36205 15.2217 1.125 14.625 1.125H3.375ZM13.5 12.2141L10.6875 9L7.902 12.1837L6.1875 10.125L4.5 12.15V13.5H13.5V12.2141ZM7.3125 9C7.76005 9 8.18928 8.82221 8.50574 8.50574C8.82221 8.18928 9 7.76005 9 7.3125C9 6.86495 8.82221 6.43572 8.50574 6.11926C8.18928 5.80279 7.76005 5.625 7.3125 5.625C6.86495 5.625 6.43572 5.80279 6.11926 6.11926C5.80279 6.43572 5.625 6.86495 5.625 7.3125C5.625 7.76005 5.80279 8.18928 6.11926 8.50574C6.43572 8.82221 6.86495 9 7.3125 9Z" fill="#959798"/>
</svg>
