<svg width="16" height="29" viewBox="0 0 16 29" fill="none" xmlns="http://www.w3.org/2000/svg">
<path d="M1.53685 28.9359L1.45606 28.8551C1.13963 28.5053 0.95282 27.9622 0.95282 27.2588V27.4243V2.2984C0.95282 2.29613 0.95282 2.29443 0.95282 2.29261C0.95282 2.29477 0.95282 2.29658 0.95282 2.29886V2.46484C0.95282 1.7032 1.17062 1.12947 1.53554 0.785463L15.0079 14.8611L1.53685 28.9359ZM0.95282 2.29125C0.95282 2.22865 0.954451 2.16787 0.957495 2.10799C0.954451 2.16741 0.95282 2.22865 0.95282 2.29125ZM0.957495 2.10527C0.957495 2.10447 0.957494 2.10356 0.957821 2.10265C0.957494 2.10356 0.957495 2.10447 0.957495 2.10527ZM0.957821 2.09731C0.957821 2.09686 0.957821 2.09641 0.957821 2.09595C0.957821 2.09641 0.957821 2.09686 0.957821 2.09731Z" fill="url(#paint0_linear_1_1533)"/>
<defs>
<linearGradient id="paint0_linear_1_1533" x1="13.8133" y1="2.03335" x2="-5.23496" y2="20.2647" gradientUnits="userSpaceOnUse">
<stop stop-color="#00A0FF"/>
<stop offset="0.00657445" stop-color="#00A1FF"/>
<stop offset="0.2601" stop-color="#00BEFF"/>
<stop offset="0.5122" stop-color="#00D2FF"/>
<stop offset="0.7604" stop-color="#00DFFF"/>
<stop offset="1" stop-color="#00E3FF"/>
</linearGradient>
</defs>
</svg>
