<svg width="147" height="46" viewBox="0 0 147 46" fill="none" xmlns="http://www.w3.org/2000/svg">
<path d="M141.467 0.138374H5.54545C2.55517 0.138374 0.108582 2.69459 0.108582 5.81886V39.9018C0.108582 43.0261 2.55517 45.5823 5.54545 45.5823H141.467C144.457 45.5823 146.904 43.0261 146.904 39.9018V5.81886C146.904 2.69459 144.457 0.138374 141.467 0.138374ZM141.467 1.04725C143.986 1.04725 146.034 3.18811 146.034 5.81886V39.9018C146.034 42.533 143.986 44.6739 141.467 44.6739H5.54545C3.02753 44.6739 0.978481 42.533 0.978481 39.9018V5.81886C0.978481 3.18811 3.02753 1.04725 5.54545 1.04725H141.467Z" fill="black"/>
</svg>
