<svg width="3" height="3" viewBox="0 0 3 3" fill="none" xmlns="http://www.w3.org/2000/svg">
<path d="M0.95282 2.2926C0.95282 2.29215 0.95282 2.29169 0.95282 2.29124C0.95282 2.29169 0.95282 2.29215 0.95282 2.2926ZM0.957493 2.10799C0.957493 2.10708 0.957493 2.10617 0.957493 2.10526C0.957493 2.10617 0.957493 2.10708 0.957493 2.10799ZM0.957818 2.10265C0.957818 2.10083 0.957818 2.09913 0.957818 2.09731C0.957818 2.09913 0.957818 2.10083 0.957818 2.10265ZM0.957818 2.09595C1.02074 0.928834 1.62779 0.254673 2.48652 0.250697C2.11421 0.252969 1.78993 0.38078 1.53607 0.619928V0.619474L1.53302 0.622654C1.50629 0.647875 1.48086 0.674574 1.45576 0.702067C1.17049 1.01756 0.990528 1.49018 0.957818 2.09595Z" fill="#404040"/>
</svg>
