<svg width="19" height="16" viewBox="0 0 19 16" fill="none" xmlns="http://www.w3.org/2000/svg">
<path d="M1.49714 15.4719C1.1208 15.4719 0.792412 15.3441 0.536335 15.1027L0.536772 15.1022C0.792848 15.3437 1.12167 15.4719 1.49801 15.4719C1.53063 15.4719 1.5638 15.471 1.5974 15.4693C1.56336 15.471 1.52976 15.4719 1.49714 15.4719V15.4719ZM1.49758 15.3055C1.12124 15.3059 0.792848 15.1777 0.536772 14.9363V14.9359L14.0078 0.861138L18.4992 5.55459L2.71576 14.9243C2.27907 15.183 1.86532 15.3055 1.49758 15.3055V15.3055ZM0.532966 15.0996C0.509152 15.077 0.485773 15.053 0.46283 15.0282L0.532966 15.0996Z" fill="url(#paint0_linear_1_1539)"/>
<defs>
<linearGradient id="paint0_linear_1_1539" x1="16.1049" y1="3.46882" x2="-9.72592" y2="28.1918" gradientUnits="userSpaceOnUse">
<stop stop-color="#FF3A44"/>
<stop offset="1" stop-color="#C31162"/>
</linearGradient>
</defs>
</svg>
