<svg width="8" height="9" viewBox="0 0 8 9" fill="none" xmlns="http://www.w3.org/2000/svg">
<path d="M7.67027 4.77585H7.56154C7.56067 5.70597 7.30067 6.42841 6.7833 6.97079L6.7821 6.9717L6.78167 6.9726C6.18742 7.62177 5.42365 7.94488 4.46328 7.94624C3.54673 7.94488 2.77959 7.61825 2.13901 6.95613C1.49986 6.29265 1.18376 5.48273 1.18256 4.49932C1.18376 3.51546 1.49986 2.70599 2.13901 2.04297C2.77959 1.38039 3.54673 1.05331 4.46328 1.05195C4.91649 1.05195 5.34807 1.14431 5.75964 1.32847C6.17165 1.514 6.4971 1.75712 6.73959 2.05898L6.82288 1.98571L6.74601 1.90538L6.17252 2.50536L6.2494 2.58523L6.33313 2.51251C5.88111 1.94662 5.24662 1.66135 4.46328 1.66306C3.75105 1.66215 3.1245 1.92799 2.60626 2.45173C2.08301 2.97718 1.82009 3.66895 1.82096 4.49932C1.82009 5.3297 2.08301 6.02147 2.60626 6.54691C3.1245 7.07065 3.75105 7.3365 4.46328 7.33559C5.21596 7.33695 5.8574 7.0702 6.36238 6.54123C6.69968 6.1879 6.89084 5.69847 6.94097 5.08998L6.95108 4.9666H4.57201V4.37503H7.62482V4.26142L7.51771 4.28142C7.54751 4.45365 7.56154 4.61736 7.56154 4.77585H7.67027H7.77901C7.77901 4.60316 7.76368 4.4257 7.73182 4.24109L7.71572 4.14781H4.35454V5.08021V5.19382H6.83256V5.08021L6.72426 5.07044C6.6763 5.64212 6.50211 6.07259 6.20862 6.38058C5.74138 6.86695 5.168 7.10701 4.46328 7.10837C3.80194 7.10746 3.24085 6.86956 2.75708 6.38365C2.27798 5.89945 2.03963 5.2813 2.03843 4.49932C2.03963 3.71735 2.27798 3.0992 2.75708 2.61499C3.24085 2.12908 3.80194 1.89118 4.46328 1.89027C5.19856 1.89209 5.75377 2.1459 6.16621 2.6585L6.24266 2.75348L6.89976 2.06603L6.97022 1.99241L6.90607 1.91288C6.6389 1.58012 6.283 1.31598 5.84544 1.11989C5.40712 0.923228 4.94455 0.824729 4.46328 0.824729C3.4966 0.823821 2.66237 1.17885 1.9857 1.88141C1.30652 2.58261 0.96422 3.464 0.96509 4.49932C0.96422 5.53419 1.30652 6.41603 1.98613 7.11769C2.66237 7.81979 3.4966 8.17437 4.46328 8.17346C5.46997 8.17437 6.30507 7.82502 6.93879 7.12962L6.86018 7.05111L6.93705 7.13143C7.50031 6.54339 7.77977 5.74903 7.77901 4.77585H7.67027Z" fill="black"/>
</svg>
