<svg width="93" height="20" viewBox="0 0 93 20" fill="none" xmlns="http://www.w3.org/2000/svg">
<path d="M72.3881 15.2212H74.4171V1.01863H72.3881V15.2212ZM90.6636 6.1347L88.3377 12.2922H88.2681L85.8541 6.1347H83.6685L87.2884 14.741L85.2245 19.5282H87.3417L92.9199 6.1347H90.6636ZM79.157 13.6081C78.4915 13.6081 77.5651 13.261 77.5651 12.4019C77.5651 11.3057 78.7199 10.8854 79.7159 10.8854C80.6086 10.8854 81.0273 11.0864 81.5699 11.3608C81.4122 12.6761 80.3281 13.6081 79.157 13.6081V13.6081ZM79.4016 5.82398C77.9326 5.82398 76.4114 6.5003 75.7818 7.99858L77.5825 8.78408C77.9674 7.99859 78.684 7.74251 79.4365 7.74251C80.4858 7.74251 81.5525 8.40065 81.5699 9.57004V9.71602C81.2023 9.49676 80.4162 9.16797 79.4538 9.16797C77.5129 9.16797 75.536 10.2823 75.536 12.3654C75.536 14.2658 77.128 15.4901 78.9112 15.4901C80.2759 15.4901 81.0273 14.8506 81.5003 14.1016H81.5699V15.1977H83.5282V9.75238C83.5282 7.23127 81.7275 5.82398 79.4016 5.82398V5.82398ZM66.8621 7.86362H63.9762V2.99532H66.8621C68.3789 2.99532 69.2401 4.30752 69.2401 5.42942C69.2401 6.53007 68.3789 7.86362 66.8621 7.86362ZM66.8099 1.01863H61.9482V15.2212H63.9762V9.84031H66.8099C69.0586 9.84031 71.2692 8.13924 71.2692 5.42942C71.2692 2.71971 69.0586 1.01863 66.8099 1.01863ZM40.2986 13.6107C38.8969 13.6107 37.7233 12.3845 37.7233 10.7003C37.7233 8.99847 38.8969 7.75364 40.2986 7.75364C41.6825 7.75364 42.7686 8.99847 42.7686 10.7003C42.7686 12.3845 41.6825 13.6107 40.2986 13.6107V13.6107ZM42.6284 6.92997H42.5583C42.103 6.36272 41.2267 5.85022 40.1232 5.85022C37.8108 5.85022 35.6913 7.97325 35.6913 10.7003C35.6913 13.4093 37.8108 15.5141 40.1232 15.5141C41.2267 15.5141 42.103 15.0015 42.5583 14.4162H42.6284V15.1116C42.6284 16.9605 41.6825 17.9488 40.1584 17.9488C38.9147 17.9488 38.1439 17.015 37.8282 16.2281L36.0591 16.9968C36.5672 18.278 37.9162 19.8522 40.1584 19.8522C42.5409 19.8522 44.5554 18.3876 44.5554 14.8187V6.14311H42.6284V6.92997ZM45.9567 15.2212H47.9888V1.01818H45.9567V15.2212ZM50.9845 10.5357C50.9319 8.66866 52.3684 7.71717 53.4019 7.71717C54.2083 7.71717 54.8911 8.13787 55.1184 8.74239L50.9845 10.5357ZM57.291 8.92519C56.9061 7.84499 55.7317 5.85022 53.3318 5.85022C50.9493 5.85022 48.97 7.80863 48.97 10.6822C48.97 13.3911 50.9319 15.5141 53.5594 15.5141C55.6795 15.5141 56.9061 14.1596 57.4139 13.3728L55.8372 12.2744C55.312 13.0799 54.5932 13.6107 53.5594 13.6107C52.526 13.6107 51.7904 13.1164 51.3172 12.1466L57.5008 9.47415L57.291 8.92519ZM8.02403 7.33283V9.38269H12.7188C12.5786 10.5357 12.2107 11.3776 11.6501 11.9633C10.9671 12.6774 9.89844 13.4642 8.02403 13.4642C5.13346 13.4642 2.87379 11.03 2.87379 8.01006C2.87379 4.99009 5.13346 2.55554 8.02403 2.55554C9.58321 2.55554 10.7216 3.1963 11.5626 4.01997L12.9465 2.57417C11.7729 1.40252 10.2136 0.50568 8.02403 0.50568C4.06479 0.50568 0.73645 3.87353 0.73645 8.01006C0.73645 12.1466 4.06479 15.5141 8.02403 15.5141C10.1614 15.5141 11.7729 14.7823 13.034 13.4092C14.3304 12.0548 14.7335 10.1514 14.7335 8.61412C14.7335 8.13787 14.6985 7.699 14.6281 7.33283H8.02403ZM20.0709 13.6107C18.6692 13.6107 17.4604 12.4027 17.4604 10.6822C17.4604 8.94336 18.6692 7.75364 20.0709 7.75364C21.4721 7.75364 22.681 8.94336 22.681 10.6822C22.681 12.4027 21.4721 13.6107 20.0709 13.6107V13.6107ZM20.0709 5.85022C17.513 5.85022 15.4283 7.88179 15.4283 10.6822C15.4283 13.4642 17.513 15.5141 20.0709 15.5141C22.6283 15.5141 24.713 13.4642 24.713 10.6822C24.713 7.88179 22.6283 5.85022 20.0709 5.85022ZM30.1979 13.6107C28.7967 13.6107 27.5877 12.4027 27.5877 10.6822C27.5877 8.94336 28.7967 7.75364 30.1979 7.75364C31.5992 7.75364 32.808 8.94336 32.808 10.6822C32.808 12.4027 31.5992 13.6107 30.1979 13.6107ZM30.1979 5.85022C27.64 5.85022 25.5558 7.88179 25.5558 10.6822C25.5558 13.4642 27.64 15.5141 30.1979 15.5141C32.7554 15.5141 34.8401 13.4642 34.8401 10.6822C34.8401 7.88179 32.7554 5.85022 30.1979 5.85022Z" fill="black"/>
</svg>
