<svg width="19" height="11" viewBox="0 0 19 11" fill="none" xmlns="http://www.w3.org/2000/svg">
<path d="M1.49802 10.4719C1.12168 10.4719 0.792863 10.3437 0.536787 10.1022L0.53635 10.1027C0.535481 10.1018 0.534177 10.1005 0.532981 10.0996L0.462844 10.0282C0.46067 10.0259 0.458603 10.0233 0.455994 10.0207L0.536787 9.93625C0.792863 10.1777 1.12125 10.3059 1.49759 10.3055C1.86534 10.3055 2.27908 10.183 2.71577 9.92432L18.4992 0.554586L18.6003 0.660242L18.4979 0.721024L2.71577 10.0903C2.31779 10.3259 1.93928 10.4489 1.59741 10.4693C1.56381 10.471 1.53065 10.4719 1.49802 10.4719" fill="url(#paint0_linear_1_1549)"/>
<defs>
<linearGradient id="paint0_linear_1_1549" x1="16.1049" y1="-1.53118" x2="-9.7259" y2="23.1918" gradientUnits="userSpaceOnUse">
<stop stop-color="#CC2E36"/>
<stop offset="1" stop-color="#9C0E4E"/>
</linearGradient>
</defs>
</svg>
