<svg width="2" height="3" viewBox="0 0 2 3" fill="none" xmlns="http://www.w3.org/2000/svg">
<path d="M0.95282 2.46497V2.29898C0.95282 2.29671 0.95282 2.29489 0.95282 2.29273C0.95282 2.29228 0.95282 2.29183 0.95282 2.29137C0.95282 2.22877 0.95445 2.16754 0.957493 2.10812C0.957493 2.10721 0.957493 2.1063 0.957493 2.10539C0.957493 2.1046 0.957492 2.10369 0.957818 2.10278C0.957818 2.10096 0.957818 2.09926 0.957818 2.09744C0.957818 2.09698 0.957818 2.09653 0.957818 2.09608C0.990528 1.49031 1.17049 1.01769 1.45576 0.702195L1.5352 0.785586C1.17049 1.1296 0.95282 1.70332 0.95282 2.46497V2.46497ZM1.53302 0.622782L1.53607 0.619602C1.5352 0.620966 1.53389 0.621873 1.53302 0.622782Z" fill="url(#paint0_linear_1_1568)"/>
<defs>
<linearGradient id="paint0_linear_1_1568" x1="13.8057" y1="2.03348" x2="-5.2421" y2="20.2535" gradientUnits="userSpaceOnUse">
<stop stop-color="#40B8FF"/>
<stop offset="0.00657445" stop-color="#40B9FF"/>
<stop offset="0.2601" stop-color="#40CEFF"/>
<stop offset="0.5122" stop-color="#40DDFF"/>
<stop offset="0.7604" stop-color="#40E7FF"/>
<stop offset="1" stop-color="#40EAFF"/>
</linearGradient>
</defs>
</svg>
