<svg width="7" height="9" viewBox="0 0 7 9" fill="none" xmlns="http://www.w3.org/2000/svg">
<path d="M6.67036 4.77581C6.67036 5.72763 6.40058 6.48564 5.86026 7.05107C5.24655 7.72342 4.44667 8.05981 3.46336 8.05981C2.5217 8.05981 1.72106 7.71899 1.06266 7.03642C0.403057 6.3543 0.0739136 5.50848 0.0739136 4.49928C0.0739136 3.48963 0.403057 2.64426 1.06266 1.9617C1.72106 1.27958 2.5217 0.9383 3.46336 0.9383C3.93061 0.9383 4.37795 1.03373 4.80268 1.22414C5.22741 1.41501 5.56808 1.66836 5.82296 1.98567L5.24948 2.58519C4.81758 2.046 4.22289 1.77663 3.46336 1.77663C2.77658 1.77663 2.18276 2.02873 1.68159 2.53327C1.18031 3.03838 0.929782 3.69334 0.929782 4.49928C0.929782 5.30523 1.18031 5.96019 1.68159 6.4653C2.18276 6.96984 2.77658 7.22194 3.46336 7.22194C4.1919 7.22194 4.79931 6.96848 5.28558 6.46087C5.60125 6.13015 5.78382 5.67049 5.83264 5.08017H3.46336V4.26139H6.6249C6.65546 4.43941 6.67036 4.61028 6.67036 4.77581" fill="black"/>
</svg>
