<svg width="6" height="9" viewBox="0 0 6 9" fill="none" xmlns="http://www.w3.org/2000/svg">
<path d="M0.287448 7.90763H0.396186V1.20466H1.24738L4.41816 6.5075H4.51461H4.62628L4.58725 5.07852V1.20466H5.20868V7.79402H4.50276L1.1854 2.23419H1.08895H0.977277L1.01631 3.66374V7.79402H0.287448V7.90763H0.396186H0.287448V8.02124H1.12505H1.23378V3.6601L1.19769 2.34473L1.08895 2.3478V2.46141H1.12505V2.3478L1.03284 2.40824L4.38206 8.02124H5.31742H5.42616V0.977436H4.47851H4.36977V5.08159L4.40588 6.39696L4.51461 6.39389V6.28028H4.47851V6.39389L4.57072 6.33357L1.36797 0.977436H0.287448H0.178711V8.02124H0.287448V7.90763Z" fill="black"/>
</svg>
