<svg width="8" height="9" viewBox="0 0 8 9" fill="none" xmlns="http://www.w3.org/2000/svg">
<path d="M1.98483 6.45602L1.90751 6.53589C2.40835 7.06713 3.03316 7.33695 3.75735 7.33559C4.48111 7.33695 5.10679 7.06713 5.60676 6.53589C6.11087 6.0042 6.36444 5.31629 6.36368 4.49932C6.36444 3.68235 6.11087 2.99445 5.60676 2.46275C5.10679 1.93151 4.48111 1.66169 3.75735 1.66305C3.03316 1.66169 2.40835 1.93151 1.90751 2.46275C1.4046 2.99445 1.15059 3.68235 1.15189 4.49932C1.15059 5.31629 1.4046 6.0042 1.90751 6.53589L1.98483 6.45602L2.06214 6.37615C1.60087 5.8857 1.37024 5.2688 1.36937 4.49932C1.37024 3.72984 1.60087 3.11294 2.06214 2.62249C2.52764 2.13215 3.08361 1.89164 3.75735 1.89027C4.43055 1.89164 4.98783 2.13215 5.45214 2.62249C5.91427 3.11294 6.14491 3.72984 6.14578 4.49932C6.14491 5.2688 5.91427 5.8857 5.45214 6.37615C4.98783 6.86649 4.43055 7.10701 3.75735 7.10837C3.08361 7.10701 2.52764 6.86649 2.06214 6.37615L1.98483 6.45602ZM6.14958 7.02668L6.07184 6.94772C5.44833 7.61518 4.68586 7.94488 3.75735 7.94624C2.82841 7.94488 2.06594 7.61518 1.44363 6.94772L1.4407 6.9442L1.44363 6.94772C0.821437 6.27799 0.514367 5.47034 0.513497 4.49932C0.514367 3.5283 0.821437 2.72065 1.44363 2.05092C2.06594 1.38346 2.82841 1.05331 3.75735 1.05195C4.67988 1.05331 5.44061 1.38482 6.06759 2.0558C6.69197 2.7286 7.00078 3.535 7.00208 4.49932C7.00078 5.47034 6.69284 6.27799 6.07184 6.94772L6.14958 7.02668L6.22776 7.10564C6.88693 6.39831 7.22032 5.5209 7.21956 4.49932C7.22032 3.48354 6.88563 2.60794 6.22341 1.89743C5.56088 1.18419 4.73088 0.823478 3.75735 0.824727C2.77871 0.823478 1.94622 1.18248 1.28781 1.893V1.89254C0.627342 2.60033 0.295152 3.47774 0.296022 4.49932C0.295152 5.5209 0.627342 6.39831 1.28781 7.1061L1.29075 7.10928L1.28781 7.10564C1.94622 7.81616 2.77871 8.17437 3.75735 8.17346C4.73556 8.17437 5.56805 7.81616 6.22776 7.10564L6.14958 7.02668" fill="black"/>
</svg>
