<svg width="8" height="9" viewBox="0 0 8 9" fill="none" xmlns="http://www.w3.org/2000/svg">
<path d="M1.98497 6.45598C2.46787 6.96677 3.05874 7.22194 3.75749 7.22194C4.45623 7.22194 5.04744 6.96677 5.52958 6.45598C6.01291 5.9452 6.25507 5.29228 6.25507 4.49928C6.25507 3.70629 6.01291 3.05337 5.52958 2.54258C5.04744 2.03179 4.45623 1.77663 3.75749 1.77663C3.05874 1.77663 2.46787 2.03179 1.98497 2.54258C1.50283 3.05337 1.26077 3.70629 1.26077 4.49928C1.26077 5.29228 1.50283 5.9452 1.98497 6.45598ZM6.14971 7.02665C5.50827 7.7158 4.71057 8.05981 3.75749 8.05981C2.80343 8.05981 2.00617 7.7158 1.36614 7.02665C0.724265 6.33829 0.404907 5.49564 0.404907 4.49928C0.404907 3.50293 0.724265 2.66017 1.36614 1.97192C2.00617 1.28265 2.80343 0.9383 3.75749 0.9383C4.70557 0.9383 5.50109 1.28447 6.14547 1.97635C6.78897 2.66824 7.11095 3.50918 7.11095 4.49928C7.11095 5.49564 6.78973 6.33829 6.14971 7.02665Z" fill="black"/>
</svg>
