<svg width="19" height="11" viewBox="0 0 19 11" fill="none" xmlns="http://www.w3.org/2000/svg">
<path d="M18.4988 10.1686L2.71577 0.798842C2.27821 0.539698 1.86414 0.416771 1.49541 0.416771C1.11951 0.416771 0.791558 0.544582 0.535481 0.785549L0.455994 0.702158C0.481112 0.674665 0.506556 0.647966 0.533306 0.622744C0.534176 0.621835 0.535481 0.620928 0.53635 0.620019C0.790361 0.380871 1.11483 0.25306 1.48737 0.250787C1.48824 0.250787 1.48943 0.250787 1.49074 0.250787C1.49248 0.250787 1.49368 0.250787 1.49541 0.250787C1.86414 0.250787 2.27821 0.373711 2.71577 0.632969L18.6003 10.0626L18.5999 10.0629L18.4988 10.1686Z" fill="url(#paint0_linear_1_1572)"/>
<defs>
<linearGradient id="paint0_linear_1_1572" x1="-2.9564" y1="-7.66145" x2="8.57811" y2="3.37838" gradientUnits="userSpaceOnUse">
<stop stop-color="#65B895"/>
<stop offset="0.0685" stop-color="#62BD95"/>
<stop offset="0.4762" stop-color="#50DB97"/>
<stop offset="0.8009" stop-color="#44ED98"/>
<stop offset="1" stop-color="#40F498"/>
</linearGradient>
</defs>
</svg>
