<svg width="24" height="24" viewBox="0 0 24 24" fill="none" xmlns="http://www.w3.org/2000/svg">
<path d="M21.6599 4.249C21.4609 4.07419 21.2007 3.9855 20.9363 4.00237C20.672 4.01924 20.4251 4.14031 20.2499 4.339L18.3799 6.489L17.7499 5.779C17.5736 5.58008 17.3254 5.45938 17.06 5.44344C16.7947 5.4275 16.5338 5.51763 16.3349 5.694C16.136 5.87037 16.0153 6.11853 15.9994 6.38389C15.9834 6.64926 16.0736 6.91008 16.2499 7.109L17.6399 8.669C17.7344 8.77312 17.8498 8.85615 17.9786 8.91266C18.1073 8.96917 18.2465 8.99789 18.3872 8.99694C18.5278 8.996 18.6666 8.96541 18.7946 8.90718C18.9226 8.84895 19.0368 8.76438 19.1299 8.659L21.7399 5.659C21.9159 5.46125 22.0064 5.20178 21.9914 4.93746C21.9764 4.67315 21.8572 4.42556 21.6599 4.249Z" fill="#6C7275"/>
<path d="M10 11C11.0609 11 12.0783 10.5786 12.8284 9.82843C13.5786 9.07828 14 8.06087 14 7C14 5.93913 13.5786 4.92172 12.8284 4.17157C12.0783 3.42143 11.0609 3 10 3C8.93913 3 7.92172 3.42143 7.17157 4.17157C6.42143 4.92172 6 5.93913 6 7C6 8.06087 6.42143 9.07828 7.17157 9.82843C7.92172 10.5786 8.93913 11 10 11Z" fill="#6C7275"/>
<path d="M16 21C16.2652 21 16.5196 20.8946 16.7071 20.7071C16.8946 20.5196 17 20.2652 17 20C17 19.0807 16.8189 18.1705 16.4672 17.3212C16.1154 16.4719 15.5998 15.7003 14.9497 15.0503C14.2997 14.4002 13.5281 13.8846 12.6788 13.5328C11.8295 13.1811 10.9193 13 10 13C9.08075 13 8.1705 13.1811 7.32122 13.5328C6.47194 13.8846 5.70026 14.4002 5.05025 15.0503C4.40024 15.7003 3.88463 16.4719 3.53284 17.3212C3.18106 18.1705 3 19.0807 3 20C3 20.2652 3.10536 20.5196 3.29289 20.7071C3.48043 20.8946 3.73478 21 4 21" fill="#6C7275"/>
</svg>
