<svg width="84" height="39" fill="none" xmlns="http://www.w3.org/2000/svg"><path fill-rule="evenodd" clip-rule="evenodd" d="M16.503 2.496A7.159 7.159 0 0 0 9.83 7.065L2.084 27.02c-1.821 4.693 1.64 9.75 6.674 9.75h66.056c5.033 0 8.495-5.058 6.673-9.75L73.742 7.065a7.159 7.159 0 0 0-6.674-4.569H54.881V.906h12.187a8.75 8.75 0 0 1 8.157 5.583l7.745 19.956c2.226 5.735-2.005 11.915-8.156 11.915H8.758c-6.152 0-10.383-6.18-8.157-11.915L8.347 6.489A8.75 8.75 0 0 1 16.503.905H27.15v1.591H16.503Z" fill="#FBA403"/></svg>