<svg width="84" height="39" viewBox="0 0 84 39" fill="none" xmlns="http://www.w3.org/2000/svg">
<path fill-rule="evenodd" clip-rule="evenodd" d="M16.5034 2.4962C13.5493 2.4962 10.8985 4.31079 9.82961 7.06476L2.08422 27.0203C0.26301 31.7126 3.72476 36.7695 8.75804 36.7695H74.8135C79.8468 36.7695 83.3085 31.7125 81.4873 27.0203L73.7419 7.06476C72.673 4.31078 70.0222 2.4962 67.0681 2.4962H54.8813V0.905334H67.0681C70.6787 0.905334 73.9186 3.12316 75.225 6.48913L82.9704 26.4447C85.1963 32.1796 80.9653 38.3604 74.8135 38.3604H8.75804C2.60625 38.3604 -1.62477 32.1797 0.601151 26.4447L8.34654 6.48914C9.65299 3.12317 12.8928 0.905334 16.5034 0.905334H27.1496V2.4962H16.5034Z" fill="#FBA403"/>
</svg>
