<svg width="43" height="20" fill="none" xmlns="http://www.w3.org/2000/svg"><path d="M1.064 19.54c-.074 0-.11-.046-.11-.139L1.008.275c0-.074.037-.111.111-.111h5.624c1.002 0 1.92.25 2.756.752a5.467 5.467 0 0 1 2.032 1.976c.502.817.752 1.745.752 2.784 0 .687-.102 1.309-.306 1.866a6.12 6.12 0 0 1-.724 1.392c-.278.37-.529.65-.752.835 1.002 1.113 1.504 2.422 1.504 3.925l.027 5.707c0 .093-.046.14-.139.14H8.748c-.074 0-.111-.028-.111-.084v-5.763c0-.668-.241-1.243-.724-1.726a2.257 2.257 0 0 0-1.726-.752H4.35l-.028 8.185c0 .093-.037.14-.112.14H1.064ZM4.35 7.877h2.394c.575 0 1.086-.214 1.531-.64.446-.428.668-.947.668-1.56 0-.594-.222-1.104-.668-1.53a2.09 2.09 0 0 0-1.531-.641H4.35v4.37ZM14.523 19.54c-.093 0-.14-.046-.14-.139L14.413.275c0-.074.037-.111.111-.111h3.118c.074 0 .111.037.111.111l.028 19.127c0 .092-.037.139-.111.139h-3.146ZM20.368 19.54c-.092 0-.139-.046-.139-.139L20.285.275c0-.074.037-.111.111-.111l5.206-.028c1.021-.018 1.95.223 2.784.724a5.615 5.615 0 0 1 2.033 2.032c.5.836.751 1.764.751 2.784v7.99c0 1.077-.26 2.06-.78 2.951a5.922 5.922 0 0 1-2.087 2.088c-.873.52-1.856.79-2.951.808l-4.984.028Zm3.258-3.424h1.726c.686 0 1.262-.24 1.726-.723a2.356 2.356 0 0 0 .724-1.727V5.648c0-.593-.223-1.104-.668-1.53-.427-.446-.938-.66-1.532-.641l-1.948.028-.028 12.611ZM33.472 19.54c-.074 0-.111-.046-.111-.139L33.389.275c0-.074.037-.111.11-.111h8.938c.074 0 .111.046.111.14V3.42c0 .075-.037.112-.111.112h-5.708v4.343h5.708c.074 0 .111.037.111.111l.028 3.146c0 .074-.037.111-.111.111h-5.736v4.872h5.736c.074 0 .11.047.11.14v3.173c0 .075-.036.112-.11.112h-8.993Z" fill="#FBA403"/></svg>