<svg width="43" height="20" viewBox="0 0 43 20" fill="none" xmlns="http://www.w3.org/2000/svg">
<path d="M1.06449 19.5407C0.990245 19.5407 0.953125 19.4943 0.953125 19.4015L1.00881 0.275326C1.00881 0.201086 1.04593 0.163966 1.12017 0.163966H6.74387C7.74611 0.163966 8.66483 0.414527 9.50004 0.915649C10.3538 1.39821 11.0312 2.05709 11.5324 2.8923C12.0335 3.70894 12.284 4.63694 12.284 5.67631C12.284 6.36303 12.182 6.98479 11.9778 7.54159C11.7736 8.07983 11.5324 8.54384 11.254 8.9336C10.9756 9.3048 10.725 9.5832 10.5023 9.7688C11.5045 10.8824 12.0056 12.1909 12.0056 13.6943L12.0335 19.4015C12.0335 19.4943 11.9871 19.5407 11.8943 19.5407H8.74835C8.67411 19.5407 8.63699 19.5128 8.63699 19.4572V13.6943C8.63699 13.0261 8.39571 12.4507 7.91315 11.9682C7.44915 11.467 6.87379 11.2165 6.18706 11.2165H4.34962L4.32178 19.4015C4.32178 19.4943 4.28466 19.5407 4.21042 19.5407H1.06449ZM4.34962 7.87567H6.74387C7.31923 7.87567 7.82963 7.66223 8.27507 7.23535C8.72051 6.80847 8.94323 6.28879 8.94323 5.67631C8.94323 5.08238 8.72051 4.57198 8.27507 4.1451C7.84819 3.71822 7.33779 3.50478 6.74387 3.50478H4.34962V7.87567Z" fill="#FBA403"/>
<path d="M14.523 19.5407C14.4302 19.5407 14.3838 19.4943 14.3838 19.4015L14.4116 0.275326C14.4116 0.201086 14.4488 0.163966 14.523 0.163966H17.6411C17.7153 0.163966 17.7524 0.201086 17.7524 0.275326L17.7803 19.4015C17.7803 19.4943 17.7432 19.5407 17.6689 19.5407H14.523Z" fill="#FBA403"/>
<path d="M20.3683 19.5407C20.2755 19.5407 20.2291 19.4943 20.2291 19.4015L20.2848 0.275326C20.2848 0.201086 20.3219 0.163966 20.3962 0.163966L25.6023 0.136126C26.6231 0.117566 27.5511 0.358847 28.3863 0.859969C29.24 1.36109 29.9175 2.03853 30.4186 2.8923C30.9197 3.7275 31.1703 4.6555 31.1703 5.67631V13.6664C31.1703 14.7429 30.9104 15.7266 30.3908 16.6175C29.8711 17.4898 29.1751 18.1858 28.3028 18.7055C27.4304 19.2252 26.4468 19.4943 25.3517 19.5128L20.3683 19.5407ZM23.6256 16.1163H25.3517C26.0384 16.1163 26.6138 15.8751 27.0778 15.3925C27.5604 14.9099 27.8016 14.3346 27.8016 13.6664V5.64847C27.8016 5.05454 27.5789 4.54414 27.1335 4.11726C26.7066 3.67182 26.1962 3.45838 25.6023 3.47694L23.6535 3.50478L23.6256 16.1163Z" fill="#FBA403"/>
<path d="M33.4721 19.5407C33.3979 19.5407 33.3607 19.4943 33.3607 19.4015L33.3886 0.275326C33.3886 0.201086 33.4257 0.163966 33.4999 0.163966H42.4366C42.5109 0.163966 42.548 0.210366 42.548 0.303166V3.42126C42.548 3.4955 42.5109 3.53262 42.4366 3.53262H36.7294V7.87567H42.4366C42.5109 7.87567 42.548 7.91279 42.548 7.98703L42.5758 11.133C42.5758 11.2072 42.5387 11.2443 42.4645 11.2443H36.7294V16.1163H42.4645C42.5387 16.1163 42.5758 16.1627 42.5758 16.2555C42.5758 16.3483 42.5758 19.4293 42.5758 19.4293C42.5758 19.5036 42.5387 19.5407 42.4645 19.5407C42.3902 19.5407 33.4721 19.5407 33.4721 19.5407Z" fill="#FBA403"/>
</svg>
