<svg width="20" height="20" viewBox="0 0 20 20" fill="none" xmlns="http://www.w3.org/2000/svg">
<path d="M10 11.25C10.3315 11.25 10.6495 11.1183 10.8839 10.8839C11.1183 10.6495 11.25 10.3315 11.25 10C11.25 9.66848 11.1183 9.35054 10.8839 9.11612C10.6495 8.8817 10.3315 8.75 10 8.75C9.66848 8.75 9.35054 8.8817 9.11612 9.11612C8.8817 9.35054 8.75 9.66848 8.75 10C8.75 10.3315 8.8817 10.6495 9.11612 10.8839C9.35054 11.1183 9.66848 11.25 10 11.25Z" fill="#6C7275"/>
<path d="M18.2416 8.60001L17.5832 6.50001C17.5122 6.2573 17.3929 6.0314 17.2326 5.83577C17.0724 5.64015 16.8743 5.47881 16.6504 5.36137C16.4264 5.24394 16.181 5.17282 15.929 5.15225C15.6769 5.13169 15.4233 5.1621 15.1832 5.24167L14.8999 5.33334C14.6779 5.40671 14.4415 5.42533 14.2108 5.3876C13.9801 5.34987 13.7619 5.25692 13.5749 5.11667L13.4832 5.05001C13.3007 4.91032 13.1536 4.72969 13.0537 4.5227C12.9538 4.3157 12.904 4.08813 12.9082 3.85834V3.62501C12.9123 3.10169 12.7085 2.59816 12.3416 2.22501C12.1671 2.04872 11.9594 1.90864 11.7306 1.81282C11.5018 1.71701 11.2563 1.66734 11.0082 1.66667H8.88324C8.37339 1.67326 7.88678 1.881 7.52936 2.24466C7.17195 2.60832 6.97267 3.09845 6.97491 3.60834V3.80834C6.97411 4.05023 6.91903 4.28886 6.81375 4.50664C6.70847 4.72442 6.55565 4.9158 6.36657 5.06667L6.25824 5.15001C6.04936 5.30802 5.80505 5.41264 5.54654 5.45475C5.28803 5.49687 5.02314 5.47522 4.77491 5.39167C4.54692 5.31278 4.30529 5.28096 4.06466 5.29815C3.82402 5.31534 3.58937 5.38117 3.37491 5.49167C3.15162 5.60249 2.95353 5.75808 2.79296 5.94876C2.63239 6.13943 2.51278 6.36111 2.44157 6.60001L1.75824 8.76667C1.59978 9.25517 1.64041 9.78646 1.87133 10.2452C2.10225 10.7039 2.5048 11.053 2.99157 11.2167H3.12491C3.34946 11.3008 3.551 11.4367 3.71316 11.6134C3.87533 11.79 3.99356 12.0024 4.05824 12.2333L4.10824 12.3667C4.20114 12.6218 4.2322 12.8953 4.19888 13.1647C4.16557 13.4342 4.06881 13.6919 3.91657 13.9167C3.60842 14.3363 3.47844 14.8607 3.55491 15.3757C3.63138 15.8907 3.90811 16.3547 4.32491 16.6667L6.04991 17.975C6.37653 18.2125 6.7711 18.3382 7.17491 18.3333C7.28298 18.3439 7.39183 18.3439 7.49991 18.3333C7.74999 18.2849 7.98759 18.1861 8.19821 18.0428C8.40882 17.8995 8.58803 17.7148 8.72491 17.5L8.91657 17.225C9.05102 17.0321 9.22892 16.8736 9.43592 16.7621C9.64292 16.6507 9.87322 16.5894 10.1082 16.5833C10.3545 16.5773 10.5984 16.6337 10.8169 16.7474C11.0355 16.861 11.2218 17.0282 11.3582 17.2333L11.4582 17.375C11.6003 17.5865 11.7842 17.7666 11.9985 17.9043C12.2128 18.042 12.4531 18.1344 12.7044 18.1758C12.9558 18.2172 13.213 18.2067 13.4602 18.1449C13.7073 18.0831 13.9392 17.9714 14.1416 17.8167L15.8332 16.55C16.2332 16.2394 16.4992 15.7875 16.5767 15.287C16.6542 14.7865 16.5372 14.2754 16.2499 13.8583L16.0332 13.5417C15.903 13.3404 15.8176 13.1133 15.7831 12.876C15.7486 12.6387 15.7657 12.3968 15.8332 12.1667C15.902 11.9203 16.0298 11.6945 16.2055 11.5086C16.3812 11.3228 16.5995 11.1825 16.8416 11.1L17.0082 11.0417C17.4905 10.8743 17.8888 10.526 18.1189 10.0704C18.3491 9.61475 18.3931 9.08747 18.2416 8.60001ZM9.99991 12.9167C9.61689 12.9167 9.23761 12.8412 8.88375 12.6947C8.52988 12.5481 8.20835 12.3332 7.93751 12.0624C7.66668 11.7916 7.45183 11.47 7.30526 11.1162C7.15868 10.7623 7.08324 10.383 7.08324 10C7.08324 9.61698 7.15868 9.23771 7.30526 8.88385C7.45183 8.52998 7.66668 8.20845 7.93751 7.93761C8.20835 7.66677 8.52988 7.45193 8.88375 7.30536C9.23761 7.15878 9.61689 7.08334 9.99991 7.08334C10.7735 7.08334 11.5153 7.39063 12.0623 7.93761C12.6093 8.48459 12.9166 9.22646 12.9166 10C12.9166 10.7736 12.6093 11.5154 12.0623 12.0624C11.5153 12.6094 10.7735 12.9167 9.99991 12.9167Z" fill="#6C7275"/>
</svg>
