<svg width="20" height="20" viewBox="0 0 20 20" fill="none" xmlns="http://www.w3.org/2000/svg">
<path d="M16.7503 7.68483C15.242 7.68483 14.6253 6.61816 15.3753 5.30983C15.8087 4.55149 15.5503 3.58483 14.792 3.15149L13.3503 2.32649C12.692 1.93483 11.842 2.16816 11.4503 2.82649L11.3587 2.98483C10.6087 4.29316 9.37533 4.29316 8.61699 2.98483L8.52533 2.82649C8.15033 2.16816 7.30033 1.93483 6.64199 2.32649L5.20033 3.15149C4.44199 3.58483 4.18366 4.55983 4.61699 5.31816C5.37533 6.61816 4.75866 7.68483 3.25033 7.68483C2.38366 7.68483 1.66699 8.39316 1.66699 9.26816V10.7348C1.66699 11.6015 2.37533 12.3182 3.25033 12.3182C4.75866 12.3182 5.37533 13.3848 4.61699 14.6932C4.18366 15.4515 4.44199 16.4182 5.20033 16.8515L6.64199 17.6765C7.30033 18.0682 8.15033 17.8348 8.54199 17.1765L8.63366 17.0182C9.38366 15.7098 10.617 15.7098 11.3753 17.0182L11.467 17.1765C11.8587 17.8348 12.7087 18.0682 13.367 17.6765L14.8087 16.8515C15.567 16.4182 15.8253 15.4432 15.392 14.6932C14.6337 13.3848 15.2503 12.3182 16.7587 12.3182C17.6253 12.3182 18.342 11.6098 18.342 10.7348V9.26816C18.3337 8.40149 17.6253 7.68483 16.7503 7.68483ZM10.0003 12.7098C8.50866 12.7098 7.29199 11.4932 7.29199 10.0015C7.29199 8.50983 8.50866 7.29316 10.0003 7.29316C11.492 7.29316 12.7087 8.50983 12.7087 10.0015C12.7087 11.4932 11.492 12.7098 10.0003 12.7098Z" fill="#929EAE"/>
</svg>
