<svg width="20" height="20" viewBox="0 0 20 20" fill="none" xmlns="http://www.w3.org/2000/svg">
<path d="M10 11.25C10.3315 11.25 10.6495 11.1183 10.8839 10.8839C11.1183 10.6495 11.25 10.3315 11.25 10C11.25 9.66848 11.1183 9.35054 10.8839 9.11612C10.6495 8.8817 10.3315 8.75 10 8.75C9.66848 8.75 9.35054 8.8817 9.11612 9.11612C8.8817 9.35054 8.75 9.66848 8.75 10C8.75 10.3315 8.8817 10.6495 9.11612 10.8839C9.35054 11.1183 9.66848 11.25 10 11.25Z" fill="#6C7275"/>
<path d="M18.2417 8.60001L17.5833 6.50001C17.5123 6.2573 17.393 6.0314 17.2327 5.83577C17.0725 5.64015 16.8744 5.47881 16.6504 5.36137C16.4265 5.24394 16.1811 5.17282 15.9291 5.15225C15.677 5.13169 15.4234 5.1621 15.1833 5.24167L14.9 5.33334C14.678 5.40671 14.4416 5.42533 14.2109 5.3876C13.9802 5.34987 13.762 5.25692 13.575 5.11667L13.4833 5.05001C13.3008 4.91032 13.1537 4.72969 13.0538 4.5227C12.9539 4.3157 12.9041 4.08813 12.9083 3.85834V3.62501C12.9124 3.10169 12.7086 2.59816 12.3417 2.22501C12.1671 2.04872 11.9595 1.90864 11.7307 1.81282C11.5019 1.71701 11.2564 1.66734 11.0083 1.66667H8.88333C8.37348 1.67326 7.88687 1.881 7.52946 2.24466C7.17204 2.60832 6.97276 3.09845 6.975 3.60834V3.80834C6.9742 4.05023 6.91913 4.28886 6.81384 4.50664C6.70856 4.72442 6.55574 4.9158 6.36667 5.06667L6.25833 5.15001C6.04945 5.30802 5.80514 5.41264 5.54663 5.45475C5.28812 5.49687 5.02324 5.47522 4.775 5.39167C4.54701 5.31278 4.30539 5.28096 4.06475 5.29815C3.82411 5.31534 3.58946 5.38117 3.375 5.49167C3.15171 5.60249 2.95362 5.75808 2.79305 5.94876C2.63248 6.13943 2.51287 6.36111 2.44167 6.60001L1.75833 8.76667C1.59987 9.25517 1.64051 9.78646 1.87142 10.2452C2.10234 10.7039 2.50489 11.053 2.99167 11.2167H3.125C3.34955 11.3008 3.55109 11.4367 3.71326 11.6134C3.87542 11.79 3.99365 12.0024 4.05833 12.2333L4.10833 12.3667C4.20123 12.6218 4.23229 12.8953 4.19898 13.1647C4.16566 13.4342 4.06891 13.6919 3.91667 13.9167C3.60851 14.3363 3.47853 14.8607 3.555 15.3757C3.63147 15.8907 3.9082 16.3547 4.325 16.6667L6.05 17.975C6.37663 18.2125 6.77119 18.3382 7.175 18.3333C7.28307 18.3439 7.39192 18.3439 7.5 18.3333C7.75008 18.2849 7.98768 18.1861 8.1983 18.0428C8.40891 17.8995 8.58813 17.7148 8.725 17.5L8.91667 17.225C9.05112 17.0321 9.22902 16.8736 9.43601 16.7621C9.64301 16.6507 9.87331 16.5894 10.1083 16.5833C10.3546 16.5773 10.5984 16.6337 10.817 16.7474C11.0356 16.861 11.2218 17.0282 11.3583 17.2333L11.4583 17.375C11.6004 17.5865 11.7843 17.7666 11.9986 17.9043C12.2129 18.042 12.4532 18.1344 12.7045 18.1758C12.9559 18.2172 13.2131 18.2067 13.4603 18.1449C13.7074 18.0831 13.9393 17.9714 14.1417 17.8167L15.8333 16.55C16.2333 16.2394 16.4993 15.7875 16.5768 15.287C16.6542 14.7865 16.5373 14.2754 16.25 13.8583L16.0333 13.5417C15.903 13.3404 15.8177 13.1133 15.7832 12.876C15.7487 12.6387 15.7658 12.3968 15.8333 12.1667C15.9021 11.9203 16.0299 11.6945 16.2056 11.5086C16.3813 11.3228 16.5996 11.1825 16.8417 11.1L17.0083 11.0417C17.4906 10.8743 17.8889 10.526 18.119 10.0704C18.3492 9.61475 18.3932 9.08747 18.2417 8.60001ZM10 12.9167C9.61698 12.9167 9.23771 12.8412 8.88384 12.6947C8.52997 12.5481 8.20844 12.3332 7.9376 12.0624C7.66677 11.7916 7.45193 11.47 7.30535 11.1162C7.15877 10.7623 7.08333 10.383 7.08333 10C7.08333 9.61698 7.15877 9.23771 7.30535 8.88385C7.45193 8.52998 7.66677 8.20845 7.9376 7.93761C8.20844 7.66677 8.52997 7.45193 8.88384 7.30536C9.23771 7.15878 9.61698 7.08334 10 7.08334C10.7735 7.08334 11.5154 7.39063 12.0624 7.93761C12.6094 8.48459 12.9167 9.22646 12.9167 10C12.9167 10.7736 12.6094 11.5154 12.0624 12.0624C11.5154 12.6094 10.7735 12.9167 10 12.9167Z" fill="#6C7275"/>
</svg>
