<svg width="24" height="24" viewBox="0 0 24 24" fill="none" xmlns="http://www.w3.org/2000/svg">
<mask id="path-1-inside-1_14_1056" fill="white">
<path d="M8.60997 22C8.122 21.9971 7.64818 21.8357 7.25997 21.54L5.18997 20C4.71228 19.6276 4.39533 19.0863 4.3042 18.4875C4.21308 17.8887 4.35469 17.2777 4.69997 16.78C4.88266 16.5102 4.99876 16.201 5.03875 15.8777C5.07873 15.5543 5.04145 15.2261 4.92997 14.92L4.86997 14.76C4.79235 14.4829 4.65048 14.228 4.45588 14.0161C4.26128 13.8041 4.01943 13.641 3.74997 13.54H3.58997C3.00585 13.3436 2.52278 12.9247 2.24568 12.3742C1.96858 11.8237 1.91982 11.1862 2.10997 10.6L2.92997 8C3.04148 7.5566 3.28956 7.15948 3.63914 6.86482C3.98872 6.57015 4.4221 6.39285 4.87797 6.358C5.16697 6.338 5.45697 6.375 5.72997 6.47C6.02786 6.57025 6.34572 6.59624 6.65593 6.5457C6.96614 6.49516 7.25932 6.36962 7.50997 6.18L7.63997 6.08C7.86687 5.89895 8.05024 5.6693 8.17659 5.40796C8.30293 5.14663 8.36901 4.86027 8.36997 4.57V4.33C8.36729 3.71813 8.60642 3.12997 9.03532 2.69358C9.46422 2.25719 10.0482 2.00791 10.66 2H13.21C13.5077 2.0008 13.8022 2.0604 14.0768 2.17538C14.3514 2.29036 14.6005 2.45845 14.81 2.67C15.2503 3.11779 15.4948 3.72202 15.49 4.35V4.63C15.4849 4.90575 15.5447 5.17884 15.6646 5.42723C15.7844 5.67562 15.961 5.89237 16.18 6.06L16.29 6.14C16.5144 6.3083 16.7762 6.41984 17.0531 6.46511C17.3299 6.51039 17.6136 6.48805 17.88 6.4L18.22 6.29C18.508 6.19451 18.8124 6.15802 19.1149 6.1827C19.4173 6.20737 19.7117 6.29272 19.9805 6.43364C20.2493 6.57456 20.4869 6.76817 20.6793 7.00292C20.8716 7.23767 21.0147 7.50876 21.1 7.8L21.89 10.32C22.0728 10.9024 22.0228 11.533 21.7506 12.0793C21.4783 12.6256 21.005 13.0452 20.43 13.25L20.23 13.32C19.9358 13.4163 19.6698 13.5834 19.4553 13.8066C19.2409 14.0298 19.0845 14.3022 19 14.6C18.9203 14.8768 18.9014 15.1675 18.9446 15.4523C18.9877 15.7371 19.0919 16.0092 19.25 16.25L19.51 16.63C19.8548 17.1304 19.9951 17.7438 19.9021 18.3444C19.8091 18.945 19.4899 19.4872 19.01 19.86L17 21.41C16.757 21.5954 16.4787 21.7292 16.1822 21.8032C15.8857 21.8771 15.5771 21.8897 15.2756 21.84C14.974 21.7904 14.6858 21.6796 14.4286 21.5145C14.1714 21.3494 13.9507 21.1335 13.78 20.88L13.66 20.71C13.4962 20.4639 13.2727 20.2632 13.0104 20.1268C12.7481 19.9904 12.4555 19.9227 12.16 19.93C11.8779 19.9373 11.6016 20.0108 11.3532 20.1445C11.1048 20.2783 10.8913 20.4686 10.73 20.7L10.5 21.03C10.3294 21.2855 10.1083 21.5033 9.85031 21.6702C9.59234 21.837 9.30296 21.9492 8.99997 22C8.87028 22.0127 8.73966 22.0127 8.60997 22ZM4.39997 11.62C4.96466 11.8214 5.4742 12.1525 5.88757 12.5867C6.30095 13.0209 6.60661 13.5461 6.77997 14.12V14.24C6.99591 14.8366 7.06681 15.4761 6.98683 16.1055C6.90684 16.735 6.67827 17.3363 6.31997 17.86C6.25673 17.9299 6.22171 18.0208 6.22171 18.115C6.22171 18.2092 6.25673 18.3001 6.31997 18.37L8.46997 20C8.49809 20.0219 8.53053 20.0375 8.56515 20.0459C8.59977 20.0543 8.63578 20.0552 8.67078 20.0485C8.70578 20.0419 8.73896 20.0279 8.76814 20.0075C8.79731 19.987 8.8218 19.9606 8.83997 19.93L9.06997 19.6C9.41686 19.0988 9.88012 18.6891 10.42 18.4062C10.9599 18.1232 11.5604 17.9754 12.17 17.9754C12.7795 17.9754 13.38 18.1232 13.9199 18.4062C14.4598 18.6891 14.9231 19.0988 15.27 19.6L15.39 19.78C15.433 19.841 15.4971 19.8838 15.57 19.9C15.6034 19.9049 15.6374 19.903 15.6701 19.8944C15.7027 19.8859 15.7333 19.8707 15.76 19.85L17.82 18.29C17.8921 18.2328 17.9395 18.1501 17.9525 18.0589C17.9656 17.9678 17.9432 17.8751 17.89 17.8L17.63 17.42C17.2912 16.926 17.0677 16.3622 16.976 15.7703C16.8842 15.1783 16.9266 14.5734 17.1 14C17.2757 13.3974 17.5936 12.8458 18.0269 12.3916C18.4602 11.9374 18.9963 11.5939 19.59 11.39L19.79 11.32C19.8733 11.2866 19.9401 11.2216 19.9757 11.1392C20.0113 11.0567 20.0128 10.9636 19.98 10.88L19.2 8.39C19.1812 8.34643 19.1539 8.30713 19.1195 8.27446C19.0851 8.2418 19.0444 8.21647 19 8.2C18.9705 8.18507 18.938 8.17728 18.905 8.17728C18.872 8.17728 18.8394 8.18507 18.81 8.2L18.47 8.31C17.8948 8.49982 17.2822 8.54712 16.6847 8.44783C16.0872 8.34855 15.5228 8.10564 15.04 7.74L15 7.65C14.5367 7.29912 14.161 6.84561 13.9024 6.32509C13.6439 5.80456 13.5096 5.23119 13.51 4.65V4.34C13.5118 4.24362 13.4759 4.15033 13.41 4.08C13.3524 4.02801 13.2775 3.99946 13.2 4H10.66C10.6192 4.00254 10.5794 4.01311 10.5428 4.03109C10.5061 4.04906 10.4734 4.0741 10.4464 4.10476C10.4195 4.13542 10.3989 4.1711 10.3857 4.20976C10.3726 4.24841 10.3673 4.28927 10.37 4.33V4.58C10.37 5.17703 10.2329 5.76608 9.96939 6.3018C9.70586 6.83752 9.32289 7.3056 8.84997 7.67L8.71997 7.77C8.2097 8.15851 7.6117 8.41553 6.97867 8.51842C6.34564 8.62131 5.69702 8.5669 5.08997 8.36C5.04455 8.34476 4.9954 8.34476 4.94997 8.36C4.89354 8.39429 4.85103 8.44741 4.82997 8.51L3.99997 11.12C3.97104 11.2089 3.97782 11.3056 4.01888 11.3895C4.05994 11.4735 4.13205 11.5382 4.21997 11.57L4.39997 11.62Z"/>
</mask>
<path d="M8.60997 22C8.122 21.9971 7.64818 21.8357 7.25997 21.54L5.18997 20C4.71228 19.6276 4.39533 19.0863 4.3042 18.4875C4.21308 17.8887 4.35469 17.2777 4.69997 16.78C4.88266 16.5102 4.99876 16.201 5.03875 15.8777C5.07873 15.5543 5.04145 15.2261 4.92997 14.92L4.86997 14.76C4.79235 14.4829 4.65048 14.228 4.45588 14.0161C4.26128 13.8041 4.01943 13.641 3.74997 13.54H3.58997C3.00585 13.3436 2.52278 12.9247 2.24568 12.3742C1.96858 11.8237 1.91982 11.1862 2.10997 10.6L2.92997 8C3.04148 7.5566 3.28956 7.15948 3.63914 6.86482C3.98872 6.57015 4.4221 6.39285 4.87797 6.358C5.16697 6.338 5.45697 6.375 5.72997 6.47C6.02786 6.57025 6.34572 6.59624 6.65593 6.5457C6.96614 6.49516 7.25932 6.36962 7.50997 6.18L7.63997 6.08C7.86687 5.89895 8.05024 5.6693 8.17659 5.40796C8.30293 5.14663 8.36901 4.86027 8.36997 4.57V4.33C8.36729 3.71813 8.60642 3.12997 9.03532 2.69358C9.46422 2.25719 10.0482 2.00791 10.66 2H13.21C13.5077 2.0008 13.8022 2.0604 14.0768 2.17538C14.3514 2.29036 14.6005 2.45845 14.81 2.67C15.2503 3.11779 15.4948 3.72202 15.49 4.35V4.63C15.4849 4.90575 15.5447 5.17884 15.6646 5.42723C15.7844 5.67562 15.961 5.89237 16.18 6.06L16.29 6.14C16.5144 6.3083 16.7762 6.41984 17.0531 6.46511C17.3299 6.51039 17.6136 6.48805 17.88 6.4L18.22 6.29C18.508 6.19451 18.8124 6.15802 19.1149 6.1827C19.4173 6.20737 19.7117 6.29272 19.9805 6.43364C20.2493 6.57456 20.4869 6.76817 20.6793 7.00292C20.8716 7.23767 21.0147 7.50876 21.1 7.8L21.89 10.32C22.0728 10.9024 22.0228 11.533 21.7506 12.0793C21.4783 12.6256 21.005 13.0452 20.43 13.25L20.23 13.32C19.9358 13.4163 19.6698 13.5834 19.4553 13.8066C19.2409 14.0298 19.0845 14.3022 19 14.6C18.9203 14.8768 18.9014 15.1675 18.9446 15.4523C18.9877 15.7371 19.0919 16.0092 19.25 16.25L19.51 16.63C19.8548 17.1304 19.9951 17.7438 19.9021 18.3444C19.8091 18.945 19.4899 19.4872 19.01 19.86L17 21.41C16.757 21.5954 16.4787 21.7292 16.1822 21.8032C15.8857 21.8771 15.5771 21.8897 15.2756 21.84C14.974 21.7904 14.6858 21.6796 14.4286 21.5145C14.1714 21.3494 13.9507 21.1335 13.78 20.88L13.66 20.71C13.4962 20.4639 13.2727 20.2632 13.0104 20.1268C12.7481 19.9904 12.4555 19.9227 12.16 19.93C11.8779 19.9373 11.6016 20.0108 11.3532 20.1445C11.1048 20.2783 10.8913 20.4686 10.73 20.7L10.5 21.03C10.3294 21.2855 10.1083 21.5033 9.85031 21.6702C9.59234 21.837 9.30296 21.9492 8.99997 22C8.87028 22.0127 8.73966 22.0127 8.60997 22ZM4.39997 11.62C4.96466 11.8214 5.4742 12.1525 5.88757 12.5867C6.30095 13.0209 6.60661 13.5461 6.77997 14.12V14.24C6.99591 14.8366 7.06681 15.4761 6.98683 16.1055C6.90684 16.735 6.67827 17.3363 6.31997 17.86C6.25673 17.9299 6.22171 18.0208 6.22171 18.115C6.22171 18.2092 6.25673 18.3001 6.31997 18.37L8.46997 20C8.49809 20.0219 8.53053 20.0375 8.56515 20.0459C8.59977 20.0543 8.63578 20.0552 8.67078 20.0485C8.70578 20.0419 8.73896 20.0279 8.76814 20.0075C8.79731 19.987 8.8218 19.9606 8.83997 19.93L9.06997 19.6C9.41686 19.0988 9.88012 18.6891 10.42 18.4062C10.9599 18.1232 11.5604 17.9754 12.17 17.9754C12.7795 17.9754 13.38 18.1232 13.9199 18.4062C14.4598 18.6891 14.9231 19.0988 15.27 19.6L15.39 19.78C15.433 19.841 15.4971 19.8838 15.57 19.9C15.6034 19.9049 15.6374 19.903 15.6701 19.8944C15.7027 19.8859 15.7333 19.8707 15.76 19.85L17.82 18.29C17.8921 18.2328 17.9395 18.1501 17.9525 18.0589C17.9656 17.9678 17.9432 17.8751 17.89 17.8L17.63 17.42C17.2912 16.926 17.0677 16.3622 16.976 15.7703C16.8842 15.1783 16.9266 14.5734 17.1 14C17.2757 13.3974 17.5936 12.8458 18.0269 12.3916C18.4602 11.9374 18.9963 11.5939 19.59 11.39L19.79 11.32C19.8733 11.2866 19.9401 11.2216 19.9757 11.1392C20.0113 11.0567 20.0128 10.9636 19.98 10.88L19.2 8.39C19.1812 8.34643 19.1539 8.30713 19.1195 8.27446C19.0851 8.2418 19.0444 8.21647 19 8.2C18.9705 8.18507 18.938 8.17728 18.905 8.17728C18.872 8.17728 18.8394 8.18507 18.81 8.2L18.47 8.31C17.8948 8.49982 17.2822 8.54712 16.6847 8.44783C16.0872 8.34855 15.5228 8.10564 15.04 7.74L15 7.65C14.5367 7.29912 14.161 6.84561 13.9024 6.32509C13.6439 5.80456 13.5096 5.23119 13.51 4.65V4.34C13.5118 4.24362 13.4759 4.15033 13.41 4.08C13.3524 4.02801 13.2775 3.99946 13.2 4H10.66C10.6192 4.00254 10.5794 4.01311 10.5428 4.03109C10.5061 4.04906 10.4734 4.0741 10.4464 4.10476C10.4195 4.13542 10.3989 4.1711 10.3857 4.20976C10.3726 4.24841 10.3673 4.28927 10.37 4.33V4.58C10.37 5.17703 10.2329 5.76608 9.96939 6.3018C9.70586 6.83752 9.32289 7.3056 8.84997 7.67L8.71997 7.77C8.2097 8.15851 7.6117 8.41553 6.97867 8.51842C6.34564 8.62131 5.69702 8.5669 5.08997 8.36C5.04455 8.34476 4.9954 8.34476 4.94997 8.36C4.89354 8.39429 4.85103 8.44741 4.82997 8.51L3.99997 11.12C3.97104 11.2089 3.97782 11.3056 4.01888 11.3895C4.05994 11.4735 4.13205 11.5382 4.21997 11.57L4.39997 11.62Z" fill="#D84C10" stroke="#D84C10" stroke-width="2" mask="url(#path-1-inside-1_14_1056)"/>
<path d="M12 15.5C11.5404 15.5 11.0852 15.4095 10.6606 15.2336C10.236 15.0577 9.85013 14.7999 9.52513 14.4749C9.20012 14.1499 8.94231 13.764 8.76642 13.3394C8.59053 12.9148 8.5 12.4596 8.5 12C8.5 11.5404 8.59053 11.0852 8.76642 10.6606C8.94231 10.236 9.20012 9.85013 9.52513 9.52513C9.85013 9.20012 10.236 8.94231 10.6606 8.76642C11.0852 8.59053 11.5404 8.5 12 8.5C12.9283 8.5 13.8185 8.86875 14.4749 9.52513C15.1313 10.1815 15.5 11.0717 15.5 12C15.5 12.9283 15.1313 13.8185 14.4749 14.4749C13.8185 15.1313 12.9283 15.5 12 15.5ZM12 10.5C11.6022 10.5 11.2206 10.658 10.9393 10.9393C10.658 11.2206 10.5 11.6022 10.5 12C10.5 12.3978 10.658 12.7794 10.9393 13.0607C11.2206 13.342 11.6022 13.5 12 13.5C12.3978 13.5 12.7794 13.342 13.0607 13.0607C13.342 12.7794 13.5 12.3978 13.5 12C13.5 11.6022 13.342 11.2206 13.0607 10.9393C12.7794 10.658 12.3978 10.5 12 10.5Z" fill="#D84C10"/>
</svg>
