<svg width="20" height="20" viewBox="0 0 20 20" fill="none" xmlns="http://www.w3.org/2000/svg">
<path d="M10 11.25C10.3315 11.25 10.6495 11.1183 10.8839 10.8839C11.1183 10.6495 11.25 10.3315 11.25 10C11.25 9.66848 11.1183 9.35054 10.8839 9.11612C10.6495 8.8817 10.3315 8.75 10 8.75C9.66848 8.75 9.35054 8.8817 9.11612 9.11612C8.8817 9.35054 8.75 9.66848 8.75 10C8.75 10.3315 8.8817 10.6495 9.11612 10.8839C9.35054 11.1183 9.66848 11.25 10 11.25Z" fill="#6C7275"/>
<path d="M18.2417 8.60001L17.5834 6.50001C17.5123 6.2573 17.393 6.0314 17.2328 5.83577C17.0725 5.64015 16.8745 5.47881 16.6505 5.36137C16.4265 5.24394 16.1812 5.17282 15.9291 5.15225C15.677 5.13169 15.4234 5.1621 15.1834 5.24167L14.9 5.33334C14.6781 5.40671 14.4417 5.42533 14.2109 5.3876C13.9802 5.34987 13.7621 5.25692 13.575 5.11667L13.4834 5.05001C13.3009 4.91032 13.1537 4.72969 13.0538 4.5227C12.954 4.3157 12.9041 4.08813 12.9084 3.85834V3.62501C12.9124 3.10169 12.7086 2.59816 12.3417 2.22501C12.1672 2.04872 11.9595 1.90864 11.7307 1.81282C11.5019 1.71701 11.2564 1.66734 11.0084 1.66667H8.88336C8.37351 1.67326 7.8869 1.881 7.52949 2.24466C7.17207 2.60832 6.97279 3.09845 6.97503 3.60834V3.80834C6.97423 4.05023 6.91916 4.28886 6.81387 4.50664C6.70859 4.72442 6.55578 4.9158 6.3667 5.06667L6.25836 5.15001C6.04948 5.30802 5.80517 5.41264 5.54666 5.45475C5.28815 5.49687 5.02327 5.47522 4.77503 5.39167C4.54704 5.31278 4.30542 5.28096 4.06478 5.29815C3.82414 5.31534 3.58949 5.38117 3.37503 5.49167C3.15174 5.60249 2.95365 5.75808 2.79308 5.94876C2.63251 6.13943 2.5129 6.36111 2.4417 6.60001L1.75836 8.76667C1.5999 9.25517 1.64054 9.78646 1.87145 10.2452C2.10237 10.7039 2.50492 11.053 2.9917 11.2167H3.12503C3.34958 11.3008 3.55112 11.4367 3.71329 11.6134C3.87545 11.79 3.99368 12.0024 4.05836 12.2333L4.10836 12.3667C4.20126 12.6218 4.23232 12.8953 4.19901 13.1647C4.16569 13.4342 4.06894 13.6919 3.9167 13.9167C3.60854 14.3363 3.47856 14.8607 3.55503 15.3757C3.6315 15.8907 3.90823 16.3547 4.32503 16.6667L6.05003 17.975C6.37666 18.2125 6.77123 18.3382 7.17503 18.3333C7.2831 18.3439 7.39195 18.3439 7.50003 18.3333C7.75011 18.2849 7.98772 18.1861 8.19833 18.0428C8.40894 17.8995 8.58816 17.7148 8.72503 17.5L8.9167 17.225C9.05115 17.0321 9.22905 16.8736 9.43605 16.7621C9.64304 16.6507 9.87334 16.5894 10.1084 16.5833C10.3547 16.5773 10.5985 16.6337 10.8171 16.7474C11.0357 16.861 11.2219 17.0282 11.3584 17.2333L11.4584 17.375C11.6004 17.5865 11.7843 17.7666 11.9986 17.9043C12.213 18.042 12.4532 18.1344 12.7046 18.1758C12.9559 18.2172 13.2131 18.2067 13.4603 18.1449C13.7074 18.0831 13.9393 17.9714 14.1417 17.8167L15.8334 16.55C16.2333 16.2394 16.4993 15.7875 16.5768 15.287C16.6543 14.7865 16.5374 14.2754 16.25 13.8583L16.0334 13.5417C15.9031 13.3404 15.8178 13.1133 15.7832 12.876C15.7487 12.6387 15.7658 12.3968 15.8334 12.1667C15.9021 11.9203 16.0299 11.6945 16.2056 11.5086C16.3813 11.3228 16.5996 11.1825 16.8417 11.1L17.0084 11.0417C17.4906 10.8743 17.8889 10.526 18.1191 10.0704C18.3492 9.61475 18.3932 9.08747 18.2417 8.60001ZM10 12.9167C9.61701 12.9167 9.23774 12.8412 8.88387 12.6947C8.53 12.5481 8.20847 12.3332 7.93763 12.0624C7.6668 11.7916 7.45196 11.47 7.30538 11.1162C7.1588 10.7623 7.08336 10.383 7.08336 10C7.08336 9.61698 7.1588 9.23771 7.30538 8.88385C7.45196 8.52998 7.6668 8.20845 7.93763 7.93761C8.20847 7.66677 8.53 7.45193 8.88387 7.30536C9.23774 7.15878 9.61701 7.08334 10 7.08334C10.7736 7.08334 11.5154 7.39063 12.0624 7.93761C12.6094 8.48459 12.9167 9.22646 12.9167 10C12.9167 10.7736 12.6094 11.5154 12.0624 12.0624C11.5154 12.6094 10.7736 12.9167 10 12.9167Z" fill="#6C7275"/>
</svg>
