<svg width="159" height="37" viewBox="0 0 159 37" fill="none" xmlns="http://www.w3.org/2000/svg">
<g clip-path="url(#clip0_14_848)">
<path d="M18.2855 1.0896C8.59054 1.0896 0.731445 8.94869 0.731445 18.6436C0.731445 28.3386 8.59054 36.1977 18.2855 36.1977C27.9804 36.1977 35.8395 28.3386 35.8395 18.6436C35.8395 8.94869 27.9804 1.0896 18.2855 1.0896ZM22.4436 13.2202H19.805C19.4923 13.2202 19.1449 13.6316 19.1449 14.1783V16.0837H22.4454L21.9462 18.8009H19.1449V26.958H16.0309V18.8009H13.2058V16.0837H16.0309V14.4855C16.0309 12.1925 17.6217 10.3292 19.805 10.3292H22.4436V13.2202V13.2202Z" fill="white"/>
</g>
<g clip-path="url(#clip1_14_848)">
<path d="M140.189 1.0896C130.494 1.0896 122.635 8.94869 122.635 18.6436C122.635 28.3386 130.494 36.1977 140.189 36.1977C149.884 36.1977 157.743 28.3386 157.743 18.6436C157.743 8.94869 149.884 1.0896 140.189 1.0896ZM147.329 15.4693C147.336 15.6192 147.338 15.7692 147.338 15.9155C147.338 20.4868 143.862 25.7549 137.502 25.7549C135.623 25.758 133.783 25.2183 132.203 24.2006C132.472 24.2335 132.748 24.2463 133.028 24.2463C134.648 24.2463 136.138 23.6959 137.321 22.767C136.6 22.7529 135.902 22.5141 135.323 22.0841C134.744 21.654 134.314 21.0541 134.092 20.368C134.61 20.4664 135.143 20.4458 135.652 20.3076C134.869 20.1494 134.166 19.7254 133.66 19.1075C133.155 18.4896 132.878 17.7159 132.878 16.9175V16.8754C133.344 17.1333 133.878 17.2905 134.445 17.3088C133.711 16.8204 133.192 16.0703 132.993 15.2117C132.794 14.3531 132.931 13.451 133.375 12.6899C134.244 13.7578 135.327 14.6313 136.554 15.2541C137.782 15.8768 139.127 16.2348 140.501 16.3049C140.326 15.5631 140.402 14.7843 140.715 14.0897C141.029 13.395 141.563 12.8234 142.235 12.4636C142.907 12.1039 143.679 11.9763 144.431 12.1005C145.183 12.2248 145.872 12.5939 146.393 13.1507C147.167 12.9976 147.909 12.7138 148.587 12.3114C148.329 13.1125 147.789 13.7928 147.068 14.2259C147.753 14.1433 148.422 13.959 149.053 13.6791C148.59 14.3738 148.006 14.98 147.329 15.4693V15.4693Z" fill="white"/>
</g>
<g clip-path="url(#clip2_14_848)">
<path d="M84.7228 18.6436C84.7228 20.0985 84.1448 21.4938 83.1161 22.5226C82.0873 23.5513 80.692 24.1293 79.2372 24.1293C77.7823 24.1293 76.387 23.5513 75.3582 22.5226C74.3295 21.4938 73.7515 20.0985 73.7515 18.6436C73.7515 18.331 73.7844 18.0256 73.8411 17.7294H71.923V25.0381C71.923 25.5464 72.3344 25.9578 72.8427 25.9578H85.6334C85.877 25.9573 86.1105 25.8602 86.2826 25.6878C86.4547 25.5154 86.5513 25.2817 86.5513 25.0381V17.7294H84.6332C84.6899 18.0256 84.7228 18.331 84.7228 18.6436V18.6436ZM79.2372 22.3007C79.7175 22.3006 80.1932 22.2059 80.6369 22.0219C81.0807 21.838 81.4839 21.5684 81.8235 21.2287C82.1631 20.8889 82.4324 20.4856 82.6161 20.0417C82.7999 19.5979 82.8944 19.1222 82.8942 18.6418C82.8941 18.1614 82.7994 17.6858 82.6154 17.242C82.4315 16.7983 82.162 16.3951 81.8222 16.0555C81.4824 15.7159 81.0791 15.4465 80.6353 15.2628C80.1914 15.0791 79.7157 14.9846 79.2353 14.9847C78.2652 14.985 77.3348 15.3706 76.649 16.0568C75.9632 16.743 75.578 17.6735 75.5782 18.6436C75.5785 19.6138 75.9641 20.5441 76.6503 21.23C77.3365 21.9158 78.267 22.301 79.2372 22.3007V22.3007ZM83.6257 14.8037H85.8181C85.9637 14.8037 86.1035 14.746 86.2066 14.6431C86.3098 14.5403 86.368 14.4008 86.3685 14.2551V12.0627C86.3685 11.9167 86.3105 11.7767 86.2073 11.6735C86.1041 11.5703 85.9641 11.5123 85.8181 11.5123H83.6257C83.4797 11.5123 83.3397 11.5703 83.2365 11.6735C83.1333 11.7767 83.0753 11.9167 83.0753 12.0627V14.2551C83.0771 14.5568 83.324 14.8037 83.6257 14.8037V14.8037ZM79.2372 1.0896C74.5815 1.0896 70.1166 2.93904 66.8246 6.23106C63.5325 9.52308 61.6831 13.988 61.6831 18.6436C61.6831 23.2993 63.5325 27.7642 66.8246 31.0562C70.1166 34.3482 74.5815 36.1977 79.2372 36.1977C81.5424 36.1977 83.825 35.7436 85.9548 34.8615C88.0845 33.9793 90.0197 32.6863 91.6497 31.0562C93.2798 29.4262 94.5728 27.491 95.455 25.3613C96.3371 23.2315 96.7912 20.9489 96.7912 18.6436C96.7912 16.3384 96.3371 14.0558 95.455 11.926C94.5728 9.79625 93.2798 7.8611 91.6497 6.23106C90.0197 4.60102 88.0845 3.30799 85.9548 2.42582C83.825 1.54365 81.5424 1.0896 79.2372 1.0896V1.0896ZM88.3799 25.7549C88.3799 26.8721 87.4656 27.7864 86.3484 27.7864H72.1259C71.0087 27.7864 70.0944 26.8721 70.0944 25.7549V11.5324C70.0944 10.4152 71.0087 9.50091 72.1259 9.50091H86.3484C87.4656 9.50091 88.3799 10.4152 88.3799 11.5324V25.7549V25.7549Z" fill="white"/>
</g>
<defs>
<clipPath id="clip0_14_848">
<rect width="36.5709" height="36.5709" fill="white" transform="translate(0 0.358154)"/>
</clipPath>
<clipPath id="clip1_14_848">
<rect width="36.5709" height="36.5709" fill="white" transform="translate(121.903 0.358154)"/>
</clipPath>
<clipPath id="clip2_14_848">
<rect width="36.5709" height="36.5709" fill="white" transform="translate(60.9517 0.358154)"/>
</clipPath>
</defs>
</svg>
