<svg width="130" height="31" fill="none" xmlns="http://www.w3.org/2000/svg"><g clip-path="url('#clip0_569_26883')"><path d="M15 .9C7.047.9.6 7.349.6 15.3c0 7.954 6.447 14.4 14.4 14.4s14.4-6.446 14.4-14.4C29.4 7.349 22.953.9 15 .9Zm3.41 9.952h-2.164c-.256 0-.541.337-.541.786V13.2h2.707l-.41 2.229h-2.297v6.691H13.15V15.43h-2.317V13.2h2.317v-1.31c0-1.881 1.305-3.41 3.096-3.41h2.165v2.372Z" fill="#fff"/></g><g clip-path="url('#clip1_569_26883')"><path d="M115 .9c-7.953 0-14.4 6.448-14.4 14.4 0 7.954 6.447 14.4 14.4 14.4s14.4-6.446 14.4-14.4c0-7.952-6.447-14.4-14.4-14.4Zm5.857 11.797c.006.123.008.246.008.366 0 3.75-2.852 8.071-8.069 8.071a8.005 8.005 0 0 1-4.347-1.275c.221.027.447.038.677.038a5.681 5.681 0 0 0 3.522-1.214 2.844 2.844 0 0 1-2.649-1.968c.424.081.862.064 1.279-.05a2.84 2.84 0 0 1-2.275-2.78v-.035c.382.212.82.34 1.285.356a2.834 2.834 0 0 1-.877-3.79 8.066 8.066 0 0 0 5.845 2.966 2.834 2.834 0 0 1 1.422-3.15 2.836 2.836 0 0 1 3.411.563 5.688 5.688 0 0 0 1.8-.689 2.847 2.847 0 0 1-1.246 1.57 5.703 5.703 0 0 0 1.629-.448 5.77 5.77 0 0 1-1.415 1.469Z" fill="#fff"/></g><g clip-path="url('#clip2_569_26883')"><path d="M69.5 15.3a4.5 4.5 0 0 1-9 0c0-.256.027-.506.073-.75H59v5.996c0 .417.337.755.754.755h10.493a.755.755 0 0 0 .753-.755v-5.995h-1.574c.047.243.074.493.074.75Zm-4.5 3a3 3 0 1 0-.002-6 3 3 0 0 0 .002 6Zm3.6-6.15h1.798a.452.452 0 0 0 .452-.45V9.903a.452.452 0 0 0-.452-.451H68.6a.451.451 0 0 0-.452.451v1.799c.002.247.204.45.452.45ZM65 .9a14.4 14.4 0 1 0 0 28.8A14.4 14.4 0 0 0 65 .9Zm7.5 20.234c0 .917-.75 1.667-1.667 1.667H59.166c-.916 0-1.666-.75-1.666-1.667V9.467c0-.916.75-1.666 1.666-1.666h11.667c.917 0 1.667.75 1.667 1.666v11.667Z" fill="#fff"/></g><defs><clipPath id="clip0_569_26883"><path fill="#fff" transform="translate(0 .3)" d="M0 0h30v30H0z"/></clipPath><clipPath id="clip1_569_26883"><path fill="#fff" transform="translate(100 .3)" d="M0 0h30v30H0z"/></clipPath><clipPath id="clip2_569_26883"><path fill="#fff" transform="translate(50 .3)" d="M0 0h30v30H0z"/></clipPath></defs></svg>