<svg width="130" height="31" viewBox="0 0 130 31" fill="none" xmlns="http://www.w3.org/2000/svg">
<g clip-path="url(#clip0_572_50061)">
<path d="M14.9996 0.900879C7.04661 0.900879 0.599609 7.34788 0.599609 15.3009C0.599609 23.2539 7.04661 29.7009 14.9996 29.7009C22.9526 29.7009 29.3996 23.2539 29.3996 15.3009C29.3996 7.34788 22.9526 0.900879 14.9996 0.900879ZM18.4106 10.8519H16.2461C15.9896 10.8519 15.7046 11.1894 15.7046 11.6379V13.2009H18.4121L18.0026 15.4299H15.7046V22.1214H13.1501V15.4299H10.8326V13.2009H13.1501V11.8899C13.1501 10.0089 14.4551 8.48038 16.2461 8.48038H18.4106V10.8519V10.8519Z" fill="white"/>
</g>
<g clip-path="url(#clip1_572_50061)">
<path d="M115 0.900879C107.047 0.900879 100.6 7.34788 100.6 15.3009C100.6 23.2539 107.047 29.7009 115 29.7009C122.953 29.7009 129.4 23.2539 129.4 15.3009C129.4 7.34788 122.953 0.900879 115 0.900879ZM120.857 12.6969C120.863 12.8199 120.865 12.9429 120.865 13.0629C120.865 16.8129 118.013 21.1344 112.796 21.1344C111.255 21.1369 109.745 20.6942 108.449 19.8594C108.67 19.8864 108.896 19.8969 109.126 19.8969C110.455 19.8969 111.677 19.4454 112.648 18.6834C112.056 18.6718 111.483 18.4759 111.008 18.1232C110.533 17.7704 110.18 17.2783 109.999 16.7154C110.423 16.7961 110.861 16.7792 111.278 16.6659C110.636 16.5361 110.059 16.1882 109.644 15.6814C109.229 15.1745 109.003 14.5398 109.003 13.8849V13.8504C109.385 14.0619 109.823 14.1909 110.288 14.2059C109.686 13.8053 109.26 13.1899 109.097 12.4856C108.934 11.7813 109.046 11.0413 109.411 10.4169C110.123 11.2929 111.012 12.0095 112.018 12.5203C113.025 13.0312 114.128 13.3249 115.256 13.3824C115.113 12.7738 115.174 12.135 115.432 11.5651C115.689 10.9953 116.127 10.5264 116.678 10.2313C117.229 9.93619 117.863 9.83146 118.479 9.93339C119.096 10.0353 119.662 10.3382 120.089 10.7949C120.724 10.6693 121.333 10.4365 121.889 10.1064C121.678 10.7636 121.235 11.3216 120.643 11.6769C121.205 11.6092 121.754 11.458 122.272 11.2284C121.891 11.7982 121.412 12.2955 120.857 12.6969V12.6969Z" fill="white"/>
</g>
<g clip-path="url(#clip2_572_50061)">
<path d="M69.4996 15.3009C69.4996 16.4944 69.0255 17.6389 68.1816 18.4829C67.3377 19.3268 66.1931 19.8009 64.9996 19.8009C63.8061 19.8009 62.6615 19.3268 61.8176 18.4829C60.9737 17.6389 60.4996 16.4944 60.4996 15.3009C60.4996 15.0444 60.5266 14.7939 60.5731 14.5509H58.9996V20.5464C58.9996 20.9634 59.3371 21.3009 59.7541 21.3009H70.2466C70.4465 21.3005 70.638 21.2208 70.7792 21.0794C70.9203 20.9379 70.9996 20.7462 70.9996 20.5464V14.5509H69.4261C69.4726 14.7939 69.4996 15.0444 69.4996 15.3009V15.3009ZM64.9996 18.3009C65.3937 18.3008 65.7839 18.2231 66.1479 18.0722C66.5119 17.9213 66.8427 17.7002 67.1212 17.4214C67.3998 17.1427 67.6208 16.8119 67.7715 16.4478C67.9222 16.0837 67.9997 15.6934 67.9996 15.2994C67.9995 14.9053 67.9218 14.5151 67.7709 14.1511C67.62 13.7871 67.3989 13.4563 67.1202 13.1777C66.8415 12.8992 66.5106 12.6782 66.1465 12.5275C65.7824 12.3768 65.3922 12.2993 64.9981 12.2994C64.2023 12.2996 63.4391 12.6159 62.8765 13.1788C62.3139 13.7417 61.9979 14.505 61.9981 15.3009C61.9983 16.0967 62.3147 16.8599 62.8775 17.4225C63.4404 17.9851 64.2038 18.3011 64.9996 18.3009V18.3009ZM68.5996 12.1509H70.3981C70.5176 12.1509 70.6322 12.1035 70.7168 12.0192C70.8015 11.9348 70.8492 11.8204 70.8496 11.7009V9.90238C70.8496 9.78263 70.802 9.66779 70.7174 9.58312C70.6327 9.49845 70.5179 9.45088 70.3981 9.45088H68.5996C68.4799 9.45088 68.365 9.49845 68.2804 9.58312C68.1957 9.66779 68.1481 9.78263 68.1481 9.90238V11.7009C68.1496 11.9484 68.3521 12.1509 68.5996 12.1509V12.1509ZM64.9996 0.900879C61.1805 0.900879 57.5178 2.41802 54.8173 5.11854C52.1167 7.81906 50.5996 11.4818 50.5996 15.3009C50.5996 19.12 52.1167 22.7827 54.8173 25.4832C57.5178 28.1837 61.1805 29.7009 64.9996 29.7009C66.8906 29.7009 68.7632 29.3284 70.5103 28.6047C72.2573 27.8811 73.8448 26.8204 75.182 25.4832C76.5191 24.1461 77.5798 22.5586 78.3035 20.8115C79.0271 19.0644 79.3996 17.1919 79.3996 15.3009C79.3996 13.4098 79.0271 11.5373 78.3035 9.79024C77.5798 8.04315 76.5191 6.4557 75.182 5.11854C73.8448 3.78138 72.2573 2.72068 70.5103 1.99701C68.7632 1.27335 66.8906 0.900879 64.9996 0.900879V0.900879ZM72.4996 21.1344C72.4996 22.0509 71.7496 22.8009 70.8331 22.8009H59.1661C58.2496 22.8009 57.4996 22.0509 57.4996 21.1344V9.46738C57.4996 8.55088 58.2496 7.80088 59.1661 7.80088H70.8331C71.7496 7.80088 72.4996 8.55088 72.4996 9.46738V21.1344V21.1344Z" fill="white"/>
</g>
<defs>
<clipPath id="clip0_572_50061">
<rect width="30" height="30" fill="white" transform="translate(0 0.300781)"/>
</clipPath>
<clipPath id="clip1_572_50061">
<rect width="30" height="30" fill="white" transform="translate(100 0.300781)"/>
</clipPath>
<clipPath id="clip2_572_50061">
<rect width="30" height="30" fill="white" transform="translate(50 0.300781)"/>
</clipPath>
</defs>
</svg>
