<svg width="60" height="60" viewBox="0 0 60 60" fill="none" xmlns="http://www.w3.org/2000/svg">
<g clip-path="url(#clip0_14_177)">
<rect width="60" height="60" rx="10" fill="#45B058"/>
<path fill-rule="evenodd" clip-rule="evenodd" d="M33.4894 15.0001H17.5454V45H18V45.0001H43V45H43.4544V24.3751L33.4894 15.0001ZM41.4614 33.75H19.5384V16.8751H33.4894V24.3751H41.4614V33.75ZM26.3352 37.751H24.592C24.5601 37.5418 24.4951 37.3559 24.3969 37.1934C24.2988 37.0285 24.1727 36.8882 24.0188 36.7725C23.8649 36.6568 23.6872 36.5682 23.4855 36.5066C23.2865 36.4451 23.0703 36.4143 22.8368 36.4143C22.4149 36.4143 22.0474 36.5116 21.7343 36.706C21.4212 36.898 21.1784 37.1787 21.0059 37.5479C20.8335 37.9147 20.7472 38.3603 20.7472 38.8846C20.7472 39.4237 20.8335 39.8767 21.0059 40.2434C21.1811 40.6102 21.4252 40.8872 21.7383 41.0743C22.0514 41.2613 22.4136 41.3549 22.8248 41.3549C23.0557 41.3549 23.2693 41.3266 23.4656 41.27C23.6646 41.2133 23.8411 41.1309 23.995 41.0226C24.1489 40.9118 24.2762 40.7776 24.377 40.6201C24.4805 40.4625 24.5522 40.2828 24.592 40.081L26.3352 40.0884C26.2901 40.4355 26.1774 40.7702 25.9969 41.0927C25.8191 41.4127 25.579 41.6995 25.2765 41.9531C24.9767 42.2042 24.6185 42.4036 24.2019 42.5513C23.788 42.6965 23.3197 42.7691 22.797 42.7691C22.0699 42.7691 21.4199 42.6165 20.8467 42.3112C20.2763 42.006 19.8252 41.5641 19.4935 40.9856C19.1645 40.4071 19 39.7068 19 38.8846C19 38.06 19.1672 37.3584 19.5015 36.7799C19.8358 36.2014 20.2895 35.7608 20.8627 35.458C21.4358 35.1527 22.0806 35.0001 22.797 35.0001C23.2693 35.0001 23.7071 35.0616 24.1104 35.1847C24.5163 35.3078 24.8759 35.4875 25.189 35.7238C25.5021 35.9577 25.7568 36.2445 25.9531 36.5842C26.1521 36.9239 26.2795 37.3128 26.3352 37.751ZM31.9929 37.2784C31.961 36.9805 31.8244 36.7491 31.5829 36.5842C31.3415 36.4193 31.0138 36.3368 30.5998 36.3368C30.3186 36.3368 30.0811 36.3737 29.8874 36.4476C29.6937 36.519 29.5451 36.6187 29.4417 36.7467C29.3408 36.8747 29.2904 37.0199 29.2904 37.1824C29.2851 37.3178 29.3156 37.4359 29.382 37.5368C29.4509 37.6378 29.5451 37.7252 29.6645 37.799C29.7839 37.8704 29.9219 37.9332 30.0785 37.9873C30.235 38.039 30.4022 38.0833 30.5799 38.1203L31.3123 38.2827C31.6678 38.3566 31.9942 38.455 32.2914 38.5781C32.5885 38.7012 32.8459 38.8526 33.0635 39.0323C33.2811 39.212 33.4496 39.4237 33.569 39.6674C33.691 39.9111 33.7534 40.1905 33.756 40.5056C33.7534 40.9684 33.626 41.3697 33.3739 41.7094C33.1245 42.0466 32.7637 42.3088 32.2914 42.4959C31.8217 42.6805 31.2552 42.7728 30.5919 42.7728C29.9339 42.7728 29.3607 42.6793 28.8725 42.4922C28.3869 42.3051 28.0075 42.0282 27.7342 41.6614C27.4636 41.2921 27.3216 40.8355 27.3083 40.2915H28.976C28.9946 40.545 29.0728 40.7567 29.2108 40.9266C29.3514 41.094 29.5385 41.2207 29.772 41.3069C30.0081 41.3906 30.2748 41.4324 30.572 41.4324C30.8639 41.4324 31.1173 41.393 31.3322 41.3143C31.5498 41.2355 31.7182 41.126 31.8376 40.9856C31.957 40.8453 32.0167 40.6841 32.0167 40.5019C32.0167 40.3321 31.9623 40.1893 31.8536 40.0736C31.7474 39.9579 31.5909 39.8594 31.3839 39.7782C31.1796 39.697 30.9289 39.6231 30.6317 39.5566L29.7441 39.3499C29.0569 39.1948 28.5143 38.9523 28.1163 38.6224C27.7183 38.2926 27.5206 37.8482 27.5233 37.2895C27.5206 36.8316 27.652 36.4316 27.9173 36.0894C28.1853 35.7472 28.5528 35.4801 29.0198 35.2881C29.4868 35.0961 30.0174 35.0001 30.6118 35.0001C31.2168 35.0001 31.7448 35.0961 32.1958 35.2881C32.6496 35.4801 33.0025 35.7472 33.2545 36.0894C33.5066 36.4316 33.6366 36.8279 33.6446 37.2784H31.9929ZM38.358 40.849L36.3878 35.1035H34.4734L37.2873 42.6657H39.5082L42.3181 35.1035H40.4077L38.4336 40.849H38.358Z" fill="white"/>
</g>
<defs>
<clipPath id="clip0_14_177">
<rect width="60" height="60" fill="white"/>
</clipPath>
</defs>
</svg>
