<svg width="60" height="60" viewBox="0 0 60 60" fill="none" xmlns="http://www.w3.org/2000/svg">
<g clip-path="url(#clip0_14_301)">
<rect width="60" height="60" rx="10" fill="#45B058"/>
<path fill-rule="evenodd" clip-rule="evenodd" d="M33.4895 15.0001H17.5455V45H18.0001V45.0001H43.0001V45H43.4545V24.3751L33.4895 15.0001ZM41.4615 33.75H19.5385V16.8751H33.4895V24.3751H41.4615V33.75ZM26.3353 37.751H24.5921C24.5602 37.5418 24.4952 37.3559 24.397 37.1934C24.2989 37.0285 24.1728 36.8882 24.0189 36.7725C23.865 36.6568 23.6873 36.5682 23.4856 36.5066C23.2866 36.4451 23.0704 36.4143 22.8369 36.4143C22.415 36.4143 22.0475 36.5116 21.7344 36.706C21.4213 36.898 21.1785 37.1787 21.006 37.5479C20.8336 37.9147 20.7473 38.3603 20.7473 38.8846C20.7473 39.4237 20.8336 39.8767 21.006 40.2434C21.1812 40.6102 21.4253 40.8872 21.7384 41.0743C22.0515 41.2613 22.4136 41.3549 22.8249 41.3549C23.0558 41.3549 23.2694 41.3266 23.4657 41.27C23.6647 41.2133 23.8412 41.1309 23.9951 41.0226C24.1489 40.9118 24.2763 40.7776 24.3771 40.6201C24.4806 40.4625 24.5523 40.2828 24.5921 40.081L26.3353 40.0884C26.2902 40.4355 26.1774 40.7702 25.997 41.0927C25.8192 41.4127 25.5791 41.6995 25.2766 41.9531C24.9768 42.2042 24.6186 42.4036 24.202 42.5513C23.7881 42.6965 23.3198 42.7691 22.7971 42.7691C22.07 42.7691 21.42 42.6165 20.8468 42.3112C20.2764 42.006 19.8253 41.5641 19.4936 40.9856C19.1646 40.4071 19.0001 39.7068 19.0001 38.8846C19.0001 38.06 19.1673 37.3584 19.5016 36.7799C19.8359 36.2014 20.2896 35.7608 20.8628 35.458C21.4359 35.1527 22.0806 35.0001 22.7971 35.0001C23.2694 35.0001 23.7072 35.0616 24.1105 35.1847C24.5164 35.3078 24.876 35.4875 25.1891 35.7238C25.5022 35.9577 25.7569 36.2445 25.9532 36.5842C26.1522 36.9239 26.2796 37.3128 26.3353 37.751ZM31.993 37.2784C31.9611 36.9805 31.8245 36.7491 31.583 36.5842C31.3416 36.4193 31.0139 36.3368 30.5999 36.3368C30.3187 36.3368 30.0812 36.3737 29.8875 36.4476C29.6938 36.519 29.5452 36.6187 29.4417 36.7467C29.3409 36.8747 29.2905 37.0199 29.2905 37.1824C29.2852 37.3178 29.3157 37.4359 29.382 37.5368C29.451 37.6378 29.5452 37.7252 29.6646 37.799C29.784 37.8704 29.922 37.9332 30.0786 37.9873C30.2351 38.039 30.4023 38.0833 30.58 38.1203L31.3124 38.2827C31.6679 38.3566 31.9943 38.455 32.2915 38.5781C32.5886 38.7012 32.846 38.8526 33.0636 39.0323C33.2812 39.212 33.4497 39.4237 33.5691 39.6674C33.6911 39.9111 33.7535 40.1905 33.7561 40.5056C33.7535 40.9684 33.6261 41.3697 33.374 41.7094C33.1246 42.0466 32.7638 42.3088 32.2915 42.4959C31.8218 42.6805 31.2553 42.7728 30.592 42.7728C29.9339 42.7728 29.3608 42.6793 28.8726 42.4922C28.387 42.3051 28.0076 42.0282 27.7343 41.6614C27.4637 41.2921 27.3217 40.8355 27.3084 40.2915H28.9761C28.9947 40.545 29.0729 40.7567 29.2109 40.9266C29.3515 41.094 29.5386 41.2207 29.7721 41.3069C30.0082 41.3906 30.2749 41.4324 30.5721 41.4324C30.8639 41.4324 31.1173 41.393 31.3323 41.3143C31.5498 41.2355 31.7183 41.126 31.8377 40.9856C31.9571 40.8453 32.0168 40.6841 32.0168 40.5019C32.0168 40.3321 31.9624 40.1893 31.8537 40.0736C31.7475 39.9579 31.591 39.8594 31.384 39.7782C31.1797 39.697 30.929 39.6231 30.6318 39.5566L29.7442 39.3499C29.057 39.1948 28.5144 38.9523 28.1164 38.6224C27.7184 38.2926 27.5207 37.8482 27.5234 37.2895C27.5207 36.8316 27.6521 36.4316 27.9174 36.0894C28.1854 35.7472 28.5529 35.4801 29.0199 35.2881C29.4869 35.0961 30.0175 35.0001 30.6119 35.0001C31.2168 35.0001 31.7449 35.0961 32.1959 35.2881C32.6497 35.4801 33.0026 35.7472 33.2546 36.0894C33.5067 36.4316 33.6367 36.8279 33.6447 37.2784H31.993ZM38.358 40.849L36.3879 35.1035H34.4735L37.2874 42.6657H39.5083L42.3182 35.1035H40.4078L38.4337 40.849H38.358Z" fill="white"/>
</g>
<defs>
<clipPath id="clip0_14_301">
<rect width="60" height="60" fill="white"/>
</clipPath>
</defs>
</svg>
