<svg width="130" height="31" viewBox="0 0 130 31" fill="none" xmlns="http://www.w3.org/2000/svg">
<g clip-path="url(#clip0_96_4860)">
<path d="M14.9996 0.901123C7.04661 0.901123 0.599609 7.34812 0.599609 15.3011C0.599609 23.2541 7.04661 29.7011 14.9996 29.7011C22.9526 29.7011 29.3996 23.2541 29.3996 15.3011C29.3996 7.34812 22.9526 0.901123 14.9996 0.901123ZM18.4106 10.8521H16.2461C15.9896 10.8521 15.7046 11.1896 15.7046 11.6381V13.2011H18.4121L18.0026 15.4301H15.7046V22.1216H13.1501V15.4301H10.8326V13.2011H13.1501V11.8901C13.1501 10.0091 14.4551 8.48062 16.2461 8.48062H18.4106V10.8521V10.8521Z" fill="white"/>
</g>
<g clip-path="url(#clip1_96_4860)">
<path d="M115 0.901123C107.047 0.901123 100.6 7.34812 100.6 15.3011C100.6 23.2541 107.047 29.7011 115 29.7011C122.953 29.7011 129.4 23.2541 129.4 15.3011C129.4 7.34812 122.953 0.901123 115 0.901123ZM120.857 12.6971C120.863 12.8201 120.865 12.9431 120.865 13.0631C120.865 16.8131 118.013 21.1346 112.796 21.1346C111.255 21.1372 109.745 20.6944 108.449 19.8596C108.67 19.8866 108.896 19.8971 109.126 19.8971C110.455 19.8971 111.677 19.4456 112.648 18.6836C112.056 18.672 111.483 18.4762 111.008 18.1234C110.533 17.7706 110.18 17.2785 109.999 16.7156C110.423 16.7964 110.861 16.7795 111.278 16.6661C110.636 16.5363 110.059 16.1885 109.644 15.6816C109.229 15.1748 109.003 14.54 109.003 13.8851V13.8506C109.385 14.0621 109.823 14.1911 110.288 14.2061C109.686 13.8055 109.26 13.1901 109.097 12.4858C108.934 11.7815 109.046 11.0415 109.411 10.4171C110.123 11.2931 111.012 12.0097 112.018 12.5206C113.025 13.0314 114.128 13.3251 115.256 13.3826C115.113 12.7741 115.174 12.1352 115.432 11.5654C115.689 10.9955 116.127 10.5266 116.678 10.2315C117.229 9.93643 117.863 9.83171 118.479 9.93363C119.096 10.0356 119.662 10.3384 120.089 10.7951C120.724 10.6695 121.333 10.4367 121.889 10.1066C121.678 10.7638 121.235 11.3219 120.643 11.6771C121.205 11.6094 121.754 11.4582 122.272 11.2286C121.891 11.7985 121.412 12.2958 120.857 12.6971V12.6971Z" fill="white"/>
</g>
<g clip-path="url(#clip2_96_4860)">
<path d="M69.4996 15.3011C69.4996 16.4946 69.0255 17.6392 68.1816 18.4831C67.3377 19.327 66.1931 19.8011 64.9996 19.8011C63.8061 19.8011 62.6615 19.327 61.8176 18.4831C60.9737 17.6392 60.4996 16.4946 60.4996 15.3011C60.4996 15.0446 60.5266 14.7941 60.5731 14.5511H58.9996V20.5466C58.9996 20.9636 59.3371 21.3011 59.7541 21.3011H70.2466C70.4465 21.3007 70.638 21.2211 70.7792 21.0796C70.9203 20.9382 70.9996 20.7465 70.9996 20.5466V14.5511H69.4261C69.4726 14.7941 69.4996 15.0446 69.4996 15.3011V15.3011ZM64.9996 18.3011C65.3937 18.301 65.7839 18.2233 66.1479 18.0724C66.5119 17.9215 66.8427 17.7004 67.1212 17.4217C67.3998 17.143 67.6208 16.8121 67.7715 16.448C67.9222 16.0839 67.9997 15.6937 67.9996 15.2996C67.9995 14.9056 67.9218 14.5154 67.7709 14.1513C67.62 13.7873 67.3989 13.4566 67.1202 13.178C66.8415 12.8994 66.5106 12.6785 66.1465 12.5278C65.7824 12.377 65.3922 12.2995 64.9981 12.2996C64.2023 12.2998 63.4391 12.6162 62.8765 13.1791C62.3139 13.7419 61.9979 14.5053 61.9981 15.3011C61.9983 16.097 62.3147 16.8601 62.8775 17.4228C63.4404 17.9854 64.2038 18.3013 64.9996 18.3011V18.3011ZM68.5996 12.1511H70.3981C70.5176 12.1511 70.6322 12.1038 70.7168 12.0194C70.8015 11.9351 70.8492 11.8206 70.8496 11.7011V9.90262C70.8496 9.78288 70.802 9.66804 70.7174 9.58336C70.6327 9.49869 70.5179 9.45112 70.3981 9.45112H68.5996C68.4799 9.45112 68.365 9.49869 68.2804 9.58336C68.1957 9.66804 68.1481 9.78288 68.1481 9.90262V11.7011C68.1496 11.9486 68.3521 12.1511 68.5996 12.1511V12.1511ZM64.9996 0.901123C61.1805 0.901123 57.5178 2.41826 54.8173 5.11879C52.1167 7.81931 50.5996 11.482 50.5996 15.3011C50.5996 19.1202 52.1167 22.7829 54.8173 25.4835C57.5178 28.184 61.1805 29.7011 64.9996 29.7011C66.8906 29.7011 68.7632 29.3287 70.5103 28.605C72.2573 27.8813 73.8448 26.8206 75.182 25.4835C76.5191 24.1463 77.5798 22.5589 78.3035 20.8118C79.0271 19.0647 79.3996 17.1922 79.3996 15.3011C79.3996 13.4101 79.0271 11.5376 78.3035 9.79048C77.5798 8.04339 76.5191 6.45595 75.182 5.11879C73.8448 3.78162 72.2573 2.72093 70.5103 1.99726C68.7632 1.27359 66.8906 0.901123 64.9996 0.901123V0.901123ZM72.4996 21.1346C72.4996 22.0511 71.7496 22.8011 70.8331 22.8011H59.1661C58.2496 22.8011 57.4996 22.0511 57.4996 21.1346V9.46762C57.4996 8.55112 58.2496 7.80112 59.1661 7.80112H70.8331C71.7496 7.80112 72.4996 8.55112 72.4996 9.46762V21.1346V21.1346Z" fill="white"/>
</g>
<defs>
<clipPath id="clip0_96_4860">
<rect width="30" height="30" fill="white" transform="translate(0 0.301025)"/>
</clipPath>
<clipPath id="clip1_96_4860">
<rect width="30" height="30" fill="white" transform="translate(100 0.301025)"/>
</clipPath>
<clipPath id="clip2_96_4860">
<rect width="30" height="30" fill="white" transform="translate(50 0.301025)"/>
</clipPath>
</defs>
</svg>
