<svg width="60" height="60" viewBox="0 0 60 60" fill="none" xmlns="http://www.w3.org/2000/svg">
<g clip-path="url(#clip0_14_319)">
<rect width="60" height="60" rx="10" fill="#F61C0D"/>
<path d="M30.4157 16.0909C31.3235 16.0961 33.5948 16.1187 36.009 16.2178L36.8658 16.2561C39.2952 16.3726 41.7229 16.5743 42.9283 16.9168C44.5349 17.3793 45.7963 18.7251 46.2231 20.4326C46.9031 23.145 46.9881 28.4343 46.9983 29.7157L47 29.98V30.2825C46.9881 31.564 46.9031 36.855 46.2231 39.5657C45.7912 41.2784 44.5281 42.6259 42.9283 43.0814C41.7229 43.424 39.2952 43.6257 36.8658 43.7422L36.009 43.7822C33.5948 43.8795 31.3235 43.9039 30.4157 43.9073L30.0161 43.9091H29.5826C27.6615 43.8969 19.6269 43.8082 17.07 43.0814C15.4651 42.6189 14.202 41.2732 13.7752 39.5657C13.0952 36.8533 13.0102 31.564 13 30.2825V29.7157C13.0102 28.4343 13.0952 23.1433 13.7752 20.4326C14.2071 18.7199 15.4702 17.3724 17.0717 16.9186C19.6269 16.19 27.6632 16.1013 29.5843 16.0909H30.4157ZM26.599 23.9153V36.0865L36.7995 30.0009L26.599 23.9153Z" fill="white"/>
</g>
<defs>
<clipPath id="clip0_14_319">
<rect width="60" height="60" fill="white"/>
</clipPath>
</defs>
</svg>
