<svg width="159" height="37" fill="none" xmlns="http://www.w3.org/2000/svg"><g clip-path="url('#clip0_14_447')"><path d="M18.285 1.09C8.591 1.09.732 8.949.732 18.644c0 9.695 7.86 17.554 17.554 17.554 9.695 0 17.555-7.86 17.555-17.554 0-9.695-7.86-17.554-17.555-17.554Zm4.159 12.13h-2.639c-.313 0-.66.412-.66.958v1.906h3.3l-.499 2.717h-2.801v8.157H16.03v-8.157h-2.825v-2.717h2.825v-1.598c0-2.293 1.59-4.157 3.774-4.157h2.639v2.891Z" fill="#fff"/></g><g clip-path="url('#clip1_14_447')"><path d="M140.189 1.09c-9.695 0-17.555 7.859-17.555 17.554 0 9.695 7.86 17.554 17.555 17.554 9.694 0 17.554-7.86 17.554-17.554 0-9.695-7.86-17.554-17.554-17.554Zm7.14 14.38c.007.15.009.3.009.445 0 4.572-3.476 9.84-9.836 9.84a9.756 9.756 0 0 1-5.299-1.554c.269.032.545.045.825.045 1.62 0 3.11-.55 4.293-1.479a3.464 3.464 0 0 1-3.229-2.399 3.476 3.476 0 0 0 1.56-.06 3.46 3.46 0 0 1-2.774-3.39v-.043c.466.258 1 .416 1.567.434a3.455 3.455 0 0 1-1.07-4.62 9.842 9.842 0 0 0 7.126 3.616 3.46 3.46 0 0 1 5.892-3.154 6.935 6.935 0 0 0 2.194-.84 3.477 3.477 0 0 1-1.519 1.915 6.946 6.946 0 0 0 1.985-.547 6.997 6.997 0 0 1-1.724 1.79Z" fill="#fff"/></g><g clip-path="url('#clip2_14_447')"><path d="M84.723 18.644a5.486 5.486 0 0 1-10.972 0c0-.313.033-.618.09-.915h-1.918v7.31c0 .507.411.919.92.919h12.79a.92.92 0 0 0 .918-.92V17.73h-1.918c.057.297.09.602.09.915ZM79.237 22.3a3.656 3.656 0 0 0 3.378-5.059 3.657 3.657 0 1 0-3.378 5.059Zm4.389-7.497h2.192a.55.55 0 0 0 .55-.549v-2.192a.55.55 0 0 0-.55-.55h-2.192a.55.55 0 0 0-.55.55v2.192a.553.553 0 0 0 .55.549ZM79.237 1.09a17.554 17.554 0 1 0 0 35.107 17.554 17.554 0 0 0 0-35.107Zm9.143 24.665a2.038 2.038 0 0 1-2.032 2.031H72.126a2.038 2.038 0 0 1-2.032-2.031V11.532c0-1.117.915-2.031 2.032-2.031h14.222c1.118 0 2.032.914 2.032 2.031v14.223Z" fill="#fff"/></g><defs><clipPath id="clip0_14_447"><path fill="#fff" transform="translate(0 .358)" d="M0 0h36.571v36.571H0z"/></clipPath><clipPath id="clip1_14_447"><path fill="#fff" transform="translate(121.903 .358)" d="M0 0h36.571v36.571H0z"/></clipPath><clipPath id="clip2_14_447"><path fill="#fff" transform="translate(60.952 .358)" d="M0 0h36.571v36.571H0z"/></clipPath></defs></svg>