<svg width="130" height="31" viewBox="0 0 130 31" fill="none" xmlns="http://www.w3.org/2000/svg">
<g clip-path="url(#clip0_575_91413)">
<path d="M14.9996 0.986816C7.04661 0.986816 0.599609 7.43382 0.599609 15.3868C0.599609 23.3398 7.04661 29.7868 14.9996 29.7868C22.9526 29.7868 29.3996 23.3398 29.3996 15.3868C29.3996 7.43382 22.9526 0.986816 14.9996 0.986816ZM18.4106 10.9378H16.2461C15.9896 10.9378 15.7046 11.2753 15.7046 11.7238V13.2868H18.4121L18.0026 15.5158H15.7046V22.2073H13.1501V15.5158H10.8326V13.2868H13.1501V11.9758C13.1501 10.0948 14.4551 8.56632 16.2461 8.56632H18.4106V10.9378V10.9378Z" fill="white"/>
</g>
<g clip-path="url(#clip1_575_91413)">
<path d="M115 0.986816C107.047 0.986816 100.6 7.43382 100.6 15.3868C100.6 23.3398 107.047 29.7868 115 29.7868C122.953 29.7868 129.4 23.3398 129.4 15.3868C129.4 7.43382 122.953 0.986816 115 0.986816ZM120.857 12.7828C120.863 12.9058 120.865 13.0288 120.865 13.1488C120.865 16.8988 118.013 21.2203 112.796 21.2203C111.255 21.2229 109.745 20.7801 108.449 19.9453C108.67 19.9723 108.896 19.9828 109.126 19.9828C110.455 19.9828 111.677 19.5313 112.648 18.7693C112.056 18.7577 111.483 18.5619 111.008 18.2091C110.533 17.8563 110.18 17.3642 109.999 16.8013C110.423 16.8821 110.861 16.8652 111.278 16.7518C110.636 16.622 110.059 16.2742 109.644 15.7673C109.229 15.2604 109.003 14.6257 109.003 13.9708V13.9363C109.385 14.1478 109.823 14.2768 110.288 14.2918C109.686 13.8912 109.26 13.2758 109.097 12.5715C108.934 11.8672 109.046 11.1272 109.411 10.5028C110.123 11.3788 111.012 12.0954 112.018 12.6063C113.025 13.1171 114.128 13.4108 115.256 13.4683C115.113 12.8598 115.174 12.2209 115.432 11.6511C115.689 11.0812 116.127 10.6123 116.678 10.3172C117.229 10.0221 117.863 9.9174 118.479 10.0193C119.096 10.1212 119.662 10.4241 120.089 10.8808C120.724 10.7552 121.333 10.5224 121.889 10.1923C121.678 10.8495 121.235 11.4076 120.643 11.7628C121.205 11.6951 121.754 11.5439 122.272 11.3143C121.891 11.8842 121.412 12.3815 120.857 12.7828V12.7828Z" fill="white"/>
</g>
<g clip-path="url(#clip2_575_91413)">
<path d="M69.4996 15.3868C69.4996 16.5803 69.0255 17.7249 68.1816 18.5688C67.3377 19.4127 66.1931 19.8868 64.9996 19.8868C63.8061 19.8868 62.6615 19.4127 61.8176 18.5688C60.9737 17.7249 60.4996 16.5803 60.4996 15.3868C60.4996 15.1303 60.5266 14.8798 60.5731 14.6368H58.9996V20.6323C58.9996 21.0493 59.3371 21.3868 59.7541 21.3868H70.2466C70.4465 21.3864 70.638 21.3068 70.7792 21.1653C70.9203 21.0238 70.9996 20.8322 70.9996 20.6323V14.6368H69.4261C69.4726 14.8798 69.4996 15.1303 69.4996 15.3868V15.3868ZM64.9996 18.3868C65.3937 18.3867 65.7839 18.309 66.1479 18.1581C66.5119 18.0072 66.8427 17.7861 67.1212 17.5074C67.3998 17.2287 67.6208 16.8978 67.7715 16.5337C67.9222 16.1696 67.9997 15.7794 67.9996 15.3853C67.9995 14.9913 67.9218 14.6011 67.7709 14.237C67.62 13.873 67.3989 13.5423 67.1202 13.2637C66.8415 12.9851 66.5106 12.7642 66.1465 12.6134C65.7824 12.4627 65.3922 12.3852 64.9981 12.3853C64.2023 12.3855 63.4391 12.7019 62.8765 13.2647C62.3139 13.8276 61.9979 14.591 61.9981 15.3868C61.9983 16.1827 62.3147 16.9458 62.8775 17.5084C63.4404 18.0711 64.2038 18.387 64.9996 18.3868V18.3868ZM68.5996 12.2368H70.3981C70.5176 12.2368 70.6322 12.1895 70.7168 12.1051C70.8015 12.0208 70.8492 11.9063 70.8496 11.7868V9.98832C70.8496 9.86857 70.802 9.75373 70.7174 9.66906C70.6327 9.58438 70.5179 9.53682 70.3981 9.53682H68.5996C68.4799 9.53682 68.365 9.58438 68.2804 9.66906C68.1957 9.75373 68.1481 9.86857 68.1481 9.98832V11.7868C68.1496 12.0343 68.3521 12.2368 68.5996 12.2368V12.2368ZM64.9996 0.986816C61.1805 0.986816 57.5178 2.50395 54.8173 5.20448C52.1167 7.905 50.5996 11.5677 50.5996 15.3868C50.5996 19.2059 52.1167 22.8686 54.8173 25.5692C57.5178 28.2697 61.1805 29.7868 64.9996 29.7868C66.8906 29.7868 68.7632 29.4144 70.5103 28.6907C72.2573 27.967 73.8448 26.9063 75.182 25.5692C76.5191 24.232 77.5798 22.6445 78.3035 20.8975C79.0271 19.1504 79.3996 17.2779 79.3996 15.3868C79.3996 13.4958 79.0271 11.6233 78.3035 9.87617C77.5798 8.12909 76.5191 6.54164 75.182 5.20448C73.8448 3.86731 72.2573 2.80662 70.5103 2.08295C68.7632 1.35928 66.8906 0.986816 64.9996 0.986816V0.986816ZM72.4996 21.2203C72.4996 22.1368 71.7496 22.8868 70.8331 22.8868H59.1661C58.2496 22.8868 57.4996 22.1368 57.4996 21.2203V9.55332C57.4996 8.63682 58.2496 7.88682 59.1661 7.88682H70.8331C71.7496 7.88682 72.4996 8.63682 72.4996 9.55332V21.2203V21.2203Z" fill="white"/>
</g>
<defs>
<clipPath id="clip0_575_91413">
<rect width="30" height="30" fill="white" transform="translate(0 0.386719)"/>
</clipPath>
<clipPath id="clip1_575_91413">
<rect width="30" height="30" fill="white" transform="translate(100 0.386719)"/>
</clipPath>
<clipPath id="clip2_575_91413">
<rect width="30" height="30" fill="white" transform="translate(50 0.386719)"/>
</clipPath>
</defs>
</svg>
