<svg width="60" height="60" viewBox="0 0 60 60" fill="none" xmlns="http://www.w3.org/2000/svg">
<g clip-path="url(#clip0_14_95)">
<rect width="60" height="60" rx="10" fill="#00A1F6"/>
<path d="M47 19.1482C46.7726 19.6283 46.3493 20.2348 45.7302 20.9676C45.1111 21.7004 44.3468 22.3448 43.437 22.9007C43.4623 23.1029 43.4813 23.2924 43.4939 23.4692C43.592 26.1926 42.9396 29.0182 42.0346 31.3723C40.2802 35.749 37.592 39.2715 33.7525 41.6632C29.7486 43.9599 25.0856 44.4483 20.7893 44.0322C17.9371 43.7047 15.1259 42.7733 13 41.0189C16.8883 41.4836 20.517 40.1609 23.3857 38.0244C20.199 38.1051 17.8836 35.7998 16.7904 33.1348C17.2832 33.2639 17.7988 33.2484 18.2687 33.2106C18.8471 33.1563 19.3963 33.102 19.9365 32.9832C17.9045 32.3276 16.1265 31.1224 15.1985 29.3065C14.6541 28.1559 14.4083 27.0602 14.4025 25.8193C15.3546 26.3206 16.5 26.8092 17.5485 26.7669C15.9649 25.4254 14.6954 23.7109 14.4594 21.7446C14.3104 20.105 14.7206 18.6084 15.3122 17.215C17.6811 19.8184 20.339 21.9609 23.4047 23.2797C25.5013 24.1383 27.592 24.5974 29.7537 24.6063C29.5042 22.6755 29.6982 20.8082 30.6066 19.2239C31.6756 17.5206 33.2353 16.5323 34.9845 16.04C37.4874 15.3982 39.9286 16.3047 41.4661 18.0489C43.1242 17.8698 44.7126 17.1342 45.9767 16.3811C45.4396 18.0077 44.3936 19.625 42.8686 20.3989C44.3206 20.1301 45.7061 19.7003 47 19.1482Z" fill="white"/>
</g>
<defs>
<clipPath id="clip0_14_95">
<rect width="60" height="60" fill="white"/>
</clipPath>
</defs>
</svg>
