<svg width="56" height="56" viewBox="0 0 56 56" fill="none" xmlns="http://www.w3.org/2000/svg">
<path d="M19.0749 29.6187C18.1452 29.9797 17.0952 29.5859 16.6359 28.7L8.10461 12.2718C7.1093 10.325 7.86399 7.95153 9.81086 6.95621C9.93117 6.90153 10.0405 6.84684 10.1609 6.79215C12.3593 5.90621 14.7765 7.19684 15.389 9.42809L15.3999 9.4609L20.2452 27.3C20.4968 28.2515 19.9937 29.2578 19.0749 29.6187V29.6187Z" fill="#F98500"/>
<path d="M18.6157 21.3391L16.1985 22.2906C15.7501 22.4547 15.2469 22.2359 15.061 21.7875C14.886 21.3391 15.1048 20.825 15.5532 20.65L18.1454 19.6328L18.6157 21.3391Z" fill="#FA6D00"/>
<path d="M19.5563 24.7625L17.4782 25.539C17.0297 25.6922 16.5375 25.4843 16.3407 25.0359C16.1657 24.5875 16.3844 24.0734 16.8438 23.8984L19.0969 23.0562L19.5563 24.7625Z" fill="#FA6D00"/>
<path d="M29.367 13.5516C28.6342 13.0484 28.2624 12.1625 28.4264 11.2766C28.8311 9.24218 27.5186 7.26249 25.4733 6.84686C25.4514 6.84686 25.4186 6.83593 25.3967 6.83593C24.5545 6.69374 23.8545 6.09218 23.592 5.27186C23.5264 5.07499 23.4499 4.87811 23.3624 4.69218C22.4327 2.8328 20.1795 2.07811 18.3202 3.0078C16.5592 3.8828 15.7717 5.97186 16.5155 7.78749C16.8983 8.72811 17.0842 9.58124 16.4389 10.4891C15.2358 12.1844 15.6405 14.5359 17.3358 15.7281C17.3467 15.7391 17.3686 15.75 17.3795 15.7609C18.1124 16.275 18.4624 17.1719 18.2874 18.0469C17.8936 20.0812 19.228 22.0609 21.2733 22.4547C23.1108 22.8047 24.9155 21.7656 25.5389 20.0047C27.3983 20.9344 29.6514 20.1687 30.5811 18.3203C31.4124 16.6469 30.8983 14.6234 29.367 13.5516Z" fill="#598C44"/>
<path d="M37.8983 16.5594C37.4061 15.8156 37.3952 14.8531 37.8764 14.0984C39.0248 12.3703 38.5436 10.0297 36.8155 8.88123C36.7936 8.87029 36.7717 8.84842 36.7498 8.83748C35.678 8.15935 35.7545 7.19685 35.667 6.09217C35.5139 4.02498 33.6983 2.47185 31.6311 2.62498C29.6733 2.7781 28.153 4.40779 28.153 6.37654C28.153 7.39373 27.9998 8.24685 27.0702 8.84842C25.3202 9.96404 24.8061 12.2937 25.9327 14.0437C25.9436 14.0547 25.9545 14.0765 25.9655 14.0875C26.4467 14.8422 26.4467 15.8047 25.9436 16.5484C24.817 18.2875 25.3092 20.6172 27.0483 21.7547C28.6123 22.7719 30.6905 22.4875 31.9155 21.0875C33.2936 22.6406 35.667 22.7937 37.2202 21.4265C38.6202 20.2015 38.9045 18.1234 37.8983 16.5594V16.5594Z" fill="#5F9548"/>
<path d="M43.75 27.125L33.25 23.625L39.0359 6.27813C39.7359 4.18907 41.8687 2.57032 44.0891 2.625C45.4672 2.65782 46.7578 2.92032 47.8406 3.79532C49.5906 5.19532 50.2797 7.53594 49.5687 9.65782L43.75 27.125Z" fill="#FFB531"/>
<path d="M36.75 18.375V49.875H10.5V18.375L13.125 20.125L15.75 18.375L18.375 20.125L21 18.375L23.625 20.125L26.25 18.375L28.875 20.125L31.5 18.375L34.125 20.125L36.75 18.375Z" fill="#FFB531"/>
<path d="M36.75 25.6265V49.875H10.5V44.5703C20.1359 41.3328 29.6844 35.4375 36.75 25.6265Z" fill="#FCAC1F"/>
<path d="M47.25 18.375V49.875H36.75V18.375L39.375 20.125L42 18.375L44.625 20.125L47.25 18.375Z" fill="#F98500"/>
<path d="M10.6641 53.375C14.5301 53.375 17.6641 50.241 17.6641 46.375C17.6641 42.509 14.5301 39.375 10.6641 39.375C6.79807 39.375 3.66406 42.509 3.66406 46.375C3.66406 50.241 6.79807 53.375 10.6641 53.375Z" fill="#F35244"/>
<path d="M25.375 35L26.25 36.75C25.1672 37.8328 24.7297 39.4078 25.1016 40.9062L25.375 42H21.875V40.6656C21.875 38.2703 23.2312 36.0719 25.375 35Z" fill="#5F9548"/>
<path d="M20.2452 53.375C19.1406 53.375 18.1562 52.6531 17.839 51.5922L15.8702 45.0188C15.3234 43.1922 16.5265 41.125 18.5499 41.125C19.5343 41.125 20.4421 41.6391 20.9452 42.4812L22.7499 45.5V50.8703C22.7499 52.2484 21.6234 53.375 20.2452 53.375V53.375Z" fill="#FA9F0C"/>
<path d="M27.0047 53.375C28.1094 53.375 29.0937 52.6531 29.4109 51.5922L31.3797 45.0188C31.9375 43.1703 30.7125 41.125 28.7 41.125C27.7156 41.125 26.8078 41.6391 26.3047 42.4812L24.5 45.5V50.8703C24.5 52.2484 25.6266 53.375 27.0047 53.375V53.375Z" fill="#FA9F0C"/>
<path d="M23.625 41.125C25.0797 41.125 26.25 42.2953 26.25 43.75V50.75C26.25 52.2047 25.0797 53.375 23.625 53.375C22.1703 53.375 21 52.2047 21 50.75V43.75C21 42.2953 22.1703 41.125 23.625 41.125Z" fill="#FFB531"/>
<path d="M48.3874 3.11716C46.7686 1.8156 44.5483 1.42185 42.4374 2.03435C40.3811 2.63591 38.8389 4.0906 38.2045 6.00466L34.6717 16.614L34.2561 16.0015L32.7905 16.975V13.4422L35.2186 11.8234L34.2452 10.3687L32.7796 11.3422V7.3281H31.0295V11.3312L29.5749 10.3578L28.6014 11.8125L31.0295 13.4312V16.964L29.5749 15.9906L28.6014 17.4453L29.9467 18.3422L28.8639 19.064L26.7202 17.6422C26.6217 17.5765 26.5233 17.5328 26.4139 17.5109C26.4795 17.3469 26.567 17.1828 26.6655 17.0297C27.3436 15.9906 27.3436 14.6562 26.6764 13.6062C26.0639 12.6765 26.0858 11.2875 26.7202 10.3578C26.9936 9.96404 28.1092 9.1656 28.4045 8.77185C28.9842 8.00623 29.0499 7.13123 29.1155 6.3656C29.1592 5.76404 29.203 5.23904 29.4655 4.83435C30.3077 3.48904 32.0905 3.08435 33.4358 3.92654C33.7202 4.10154 33.9608 4.33123 34.1686 4.58279C34.6389 5.17341 34.6827 5.76404 34.7374 6.56248C34.7592 6.83591 34.7811 7.13123 34.8139 7.43748L36.553 7.21873C36.5202 6.95623 36.4983 6.69373 36.4874 6.44216C36.4217 5.4906 36.3452 4.51716 35.5467 3.49998C33.9608 1.48748 31.0514 1.14841 29.0389 2.72341C28.6233 3.05154 28.2624 3.44529 27.978 3.89373C27.4967 4.65935 27.4311 5.4906 27.3655 6.21248C27.3545 6.37654 27.3436 6.52966 27.3217 6.68279C26.7858 6.32185 26.1733 6.07029 25.528 5.94998C25.003 5.86248 24.5655 5.4906 24.4014 4.98748C24.0186 3.79529 23.1874 2.81091 22.0717 2.24216C20.978 1.66248 19.6983 1.5531 18.517 1.93591C16.778 2.5156 15.5092 4.14529 15.3561 6.0156C15.3014 6.72654 15.4764 7.34998 15.6514 7.90779C14.8311 6.56248 13.3983 5.70935 11.8233 5.61091L11.8561 1.7281L10.1061 1.71716L10.0842 4.24373L9.03423 1.5531L7.43735 2.22029L8.48735 4.91091L6.75923 3.07341L5.49048 4.2656L8.14829 7.10935C6.70454 8.59685 6.36548 10.8281 7.32798 12.6656L9.1436 16.1656L10.6967 15.3562L8.8811 11.8562C8.10454 10.3578 8.68423 8.50935 10.1827 7.73279C11.6811 6.95622 13.5295 7.53591 14.3061 9.03435C14.4045 9.23123 14.4811 9.4281 14.5467 9.64685L14.5795 9.75623L11.7577 10.8609L12.392 12.4906L15.0389 11.4625V11.4734C14.8749 12.0969 14.8311 12.7422 14.9405 13.3875L13.0374 14.1312L13.6717 15.7609L15.553 15.0281C15.9905 15.7609 16.7452 16.439 16.7452 16.439L14.3061 17.3906L14.5905 18.1015L13.1358 19.075L10.992 17.6531C10.5874 17.3797 10.0514 17.489 9.77798 17.8937C9.67954 18.0359 9.63579 18.2109 9.63579 18.375V36.75H11.3858V20.0047L12.6545 20.8469C12.9499 21.0437 13.3327 21.0437 13.628 20.8469L15.7717 19.425L17.9155 20.8469C18.2108 21.0437 18.5936 21.0437 18.8889 20.8469L21.0327 19.425L23.1764 20.8469C23.4717 21.0437 23.8545 21.0437 24.1499 20.8469L26.2936 19.425L28.4374 20.8469C28.7327 21.0437 29.1155 21.0437 29.4108 20.8469L31.5545 19.425L33.6983 20.8469C33.9936 21.0437 34.3764 21.0437 34.6717 20.8469L35.9405 20.0047V49H32.4405V50.75H47.3155C47.7967 50.75 48.1905 50.3562 48.1905 49.875V18.375C48.1905 18.1125 48.0702 17.8718 47.8733 17.7078L50.4655 9.94216C51.2202 7.47029 50.4108 4.74685 48.3874 3.11716V3.11716ZM25.2327 14.5906C25.3092 14.7109 25.3639 14.8422 25.3967 14.9844L24.7952 15.8703L23.4608 12.589L24.6311 10.8609C24.3249 12.1187 24.5217 13.5187 25.2327 14.5906ZM19.1295 18.5828C19.3592 17.6531 19.1733 16.6797 18.6374 15.8922C18.1233 15.1484 17.303 14.6344 16.8874 13.825C16.6686 13.3984 16.5811 12.9062 16.6358 12.425C16.767 11.3531 17.5764 10.4562 17.6967 9.38435C17.7842 8.59685 17.467 7.83123 17.303 7.05466C16.9202 5.33748 18.003 3.59841 19.8514 3.51091C20.7483 3.4781 21.6014 3.86091 22.1702 4.54998C22.6733 5.17341 22.903 5.99373 23.4061 6.6281C23.778 7.09841 24.2811 7.43748 24.8499 7.60154C25.4077 7.7656 26.0639 7.78748 26.4358 8.23591C25.7905 8.69529 25.2655 9.29685 24.9045 10.0078L23.6577 9.17654L22.6733 10.5984L21.1639 6.91248L19.5561 7.56872L21.0545 11.2656L19.3483 10.9375L18.9983 12.6437L21.8092 13.2781L23.1764 16.4937L21.4702 16.1656L21.2624 17.1937C21.2514 17.2047 19.578 18.2547 19.1295 18.5828V18.5828ZM22.1702 18.1015L23.9749 18.4734L24.0952 18.7687L23.6249 19.075L22.1702 18.1015ZM33.4577 18.6265L34.1358 18.1672L33.8842 18.9109L33.4577 18.6265ZM37.6249 20.0047L38.8936 20.8469C39.1889 21.0437 39.5717 21.0437 39.867 20.8469L41.1358 20.0047V44.2531L37.6358 47.7531V20.0047H37.6249ZM46.3749 20.0047V47.7531L42.8749 44.2531V20.0047L44.1436 20.8469C44.4389 21.0437 44.8217 21.0437 45.1171 20.8469L46.3749 20.0047ZM41.9999 45.8609L45.1389 49H38.8608L41.9999 45.8609ZM48.7374 9.38435L45.7624 18.3093L44.6249 19.064L42.4811 17.6422C42.1858 17.4453 41.803 17.4453 41.5077 17.6422L39.3639 19.064C39.3639 19.064 37.1764 17.6093 37.1545 17.5984C36.8702 17.4453 36.5202 17.4672 36.2577 17.6422L36.1264 17.7297L39.8561 6.55154C40.3155 5.18435 41.4311 4.15623 42.9295 3.70779C44.4827 3.24841 46.1124 3.53279 47.2936 4.47341C48.7483 5.65466 49.328 7.61248 48.7374 9.38435V9.38435Z" fill="black"/>
<path d="M40.9648 8.7757L46.2168 7.90214L46.5038 9.62764L41.2518 10.5012L40.9648 8.7757Z" fill="black"/>
<path d="M39.2134 14.0229L44.4654 13.1494L44.7524 14.8749L39.5004 15.7484L39.2134 14.0229Z" fill="black"/>
<path d="M28.7109 40.25C27.7484 40.2391 26.8187 40.6219 26.1406 41.3109C26.1296 41.3 26.1187 41.2891 26.1078 41.2672L25.9656 40.6875C25.9656 40.6766 25.9656 40.6766 25.9546 40.6656C25.6156 39.4734 26.2937 37.9641 26.8843 37.3734C27.1468 37.1109 27.2125 36.6953 27.0484 36.3672L26.1734 34.6172C25.9546 34.1797 25.4296 34.0047 25.0031 34.2234C22.5531 35.4375 21.0109 37.9422 21.0218 40.6656V41.1359C20.814 40.9828 20.5843 40.8406 20.3546 40.7094C18.6593 39.8016 16.4609 40.3703 15.4546 41.9672C14.875 42.8969 14.7218 44.1547 15.05 45.2594L16.1875 49.0547C14.6781 52.0844 11.0031 53.3203 7.97339 51.8219C4.97651 50.3344 3.72964 46.7141 5.17339 43.6953C5.19526 43.6516 5.21714 43.6078 5.23901 43.5641L5.27183 46.5391L7.02183 46.5172L6.96714 42.875L10.4562 43.0391L10.5437 41.2891L7.50308 41.1469C8.41089 40.5891 9.46089 40.2828 10.5218 40.25C11.7906 40.2172 13.0375 40.5781 14.0875 41.2891L15.0609 39.8344C13.0921 38.5109 10.6312 38.15 8.36714 38.8391L8.73901 37.9641L7.1312 37.275L5.92808 40.075C5.84058 40.1406 5.74214 40.2172 5.65464 40.2938L2.98589 37.625L1.74995 38.8609L4.44058 41.5516C4.38589 41.6281 4.3312 41.7047 4.27651 41.7813L1.41089 43.0063L2.09995 44.6141L3.1062 44.1766C1.89214 48.3547 4.29839 52.7188 8.47651 53.9328C11.2328 54.7313 14.2078 53.9656 16.2421 51.9313C16.45 51.7234 16.6468 51.4938 16.8328 51.2641L17.0078 51.8328C17.5437 53.6266 19.425 54.6328 21.2187 54.0969C21.4703 54.0203 21.7 53.9219 21.9296 53.7906C22.9906 54.3813 24.2812 54.3813 25.3421 53.7906C26.9609 54.7203 29.0281 54.1516 29.9578 52.5328C30.089 52.3141 30.1875 52.0734 30.264 51.8219L32.2328 45.2484C32.3531 44.8109 32.4078 44.3516 32.3859 43.8922C32.375 41.8906 30.7343 40.25 28.7109 40.25V40.25ZM25.014 36.2359L25.2109 36.6297C24.5218 37.5813 24.0296 38.9703 24.1171 40.2828C23.8656 40.2391 23.1765 40.2063 22.7609 40.3594C22.8484 38.7078 23.6796 37.1984 25.014 36.2359ZM18.6812 51.3406L16.7125 44.7672C16.5265 44.1438 16.614 43.4 16.9203 42.9078C17.4234 42.0984 18.6375 41.7922 19.5125 42.2625C19.9281 42.4813 20.0921 42.6344 20.2562 42.8422C20.1796 43.1375 20.1359 43.4438 20.1359 43.75V50.75C20.1359 51.3516 20.289 51.9422 20.5843 52.4672C19.7421 52.6422 18.9218 52.15 18.6812 51.3406ZM21.875 50.75V43.75C21.875 42.7875 22.6625 42 23.625 42C24.5875 42 25.375 42.7875 25.375 43.75V50.75C25.375 51.7125 24.5875 52.5 23.625 52.5C22.6625 52.5 21.875 51.7125 21.875 50.75ZM30.5484 44.7672L28.5796 51.3406C28.339 52.15 27.5078 52.6422 26.6765 52.4672C26.9718 51.9422 27.125 51.3516 27.125 50.75V43.75C27.125 43.4766 27.0921 43.2141 27.0265 42.9516C27.2562 42.6016 27.7812 42 28.7 42C29.7609 42 30.614 42.8641 30.614 43.9141C30.6359 44.1984 30.614 44.4938 30.5484 44.7672V44.7672Z" fill="black"/>
</svg>
