<svg width="71" height="67" fill="none" xmlns="http://www.w3.org/2000/svg"><path d="M.846 16.914c0-8.837 7.163-16 16-16h38c8.836 0 16 7.164 16 16v33.387c0 8.837-7.164 16-16 16h-38c-8.837 0-16-7.163-16-16V16.914Z" fill="#4DABFF"/><path d="M46.75 24.679c-.314-.86-1.197-1.473-2.237-1.473h-3.94v-1.459c0-.802-.709-1.458-1.576-1.458h-6.303c-.867 0-1.576.656-1.576 1.458v1.459h-3.94c-1.04 0-1.907.612-2.238 1.473l-3.105 8.268c-.11.307-.173.627-.173.963v10.442c0 1.21 1.056 2.187 2.364 2.187 1.308 0 2.364-.977 2.364-2.187v-.73H45.3v.73c0 1.195 1.056 2.187 2.364 2.187 1.292 0 2.364-.977 2.364-2.187V33.91c0-.32-.063-.656-.174-.963l-3.104-8.268ZM27.179 39.247c-1.308 0-2.364-.977-2.364-2.187s1.056-2.188 2.364-2.188c1.308 0 2.364.977 2.364 2.188 0 1.21-1.056 2.187-2.364 2.187Zm17.335 0c-1.308 0-2.364-.977-2.364-2.187s1.056-2.188 2.364-2.188c1.308 0 2.364.977 2.364 2.188 0 1.21-1.056 2.187-2.364 2.187Zm-19.699-7.291 2.364-6.563h17.335l2.364 6.563H24.814Z" fill="#fff"/></svg>