<svg width="30" height="27" viewBox="0 0 30 27" fill="none" xmlns="http://www.w3.org/2000/svg">
<path d="M25.7508 4.76458C25.4357 3.90417 24.5531 3.29167 23.513 3.29167H19.5732V1.83333C19.5732 1.03125 18.864 0.375 17.9973 0.375H11.6936C10.8268 0.375 10.1177 1.03125 10.1177 1.83333V3.29167H6.17785C5.13774 3.29167 4.27098 3.90417 3.94003 4.76458L0.835461 13.0333C0.725146 13.3396 0.662109 13.6604 0.662109 13.9958V24.4375C0.662109 25.6479 1.71798 26.625 3.026 26.625C4.33402 26.625 5.38989 25.6479 5.38989 24.4375V23.7083H24.301V24.4375C24.301 25.6333 25.3569 26.625 26.6649 26.625C27.9571 26.625 29.0288 25.6479 29.0288 24.4375V13.9958C29.0288 13.675 28.9657 13.3396 28.8554 13.0333L25.7508 4.76458ZM6.17785 19.3333C4.86983 19.3333 3.81396 18.3563 3.81396 17.1458C3.81396 15.9354 4.86983 14.9583 6.17785 14.9583C7.48587 14.9583 8.54174 15.9354 8.54174 17.1458C8.54174 18.3563 7.48587 19.3333 6.17785 19.3333ZM23.513 19.3333C22.205 19.3333 21.1491 18.3563 21.1491 17.1458C21.1491 15.9354 22.205 14.9583 23.513 14.9583C24.821 14.9583 25.8769 15.9354 25.8769 17.1458C25.8769 18.3563 24.821 19.3333 23.513 19.3333ZM3.81396 12.0417L6.17785 5.47917H23.513L25.8769 12.0417H3.81396Z" fill="white"/>
</svg>
