<svg width="71" height="67" viewBox="0 0 71 67" fill="none" xmlns="http://www.w3.org/2000/svg">
<path d="M0.845703 16.9141C0.845703 8.0775 8.00915 0.914062 16.8457 0.914062H54.8457C63.6823 0.914062 70.8457 8.07751 70.8457 16.9141V50.3011C70.8457 59.1377 63.6823 66.3011 54.8457 66.3011H16.8457C8.00915 66.3011 0.845703 59.1377 0.845703 50.3011V16.9141Z" fill="#4DABFF"/>
<path d="M46.7508 24.6786C46.4357 23.8182 45.5531 23.2057 44.513 23.2057H40.5732V21.7474C40.5732 20.9453 39.864 20.2891 38.9973 20.2891H32.6936C31.8268 20.2891 31.1177 20.9453 31.1177 21.7474V23.2057H27.1778C26.1377 23.2057 25.271 23.8182 24.94 24.6786L21.8355 32.9474C21.7251 33.2536 21.6621 33.5745 21.6621 33.9099V44.3516C21.6621 45.562 22.718 46.5391 24.026 46.5391C25.334 46.5391 26.3899 45.562 26.3899 44.3516V43.6224H45.301V44.3516C45.301 45.5474 46.3569 46.5391 47.6649 46.5391C48.9571 46.5391 50.0288 45.562 50.0288 44.3516V33.9099C50.0288 33.5891 49.9657 33.2536 49.8554 32.9474L46.7508 24.6786ZM27.1778 39.2474C25.8698 39.2474 24.814 38.2703 24.814 37.0599C24.814 35.8495 25.8698 34.8724 27.1778 34.8724C28.4859 34.8724 29.5417 35.8495 29.5417 37.0599C29.5417 38.2703 28.4859 39.2474 27.1778 39.2474ZM44.513 39.2474C43.205 39.2474 42.1491 38.2703 42.1491 37.0599C42.1491 35.8495 43.205 34.8724 44.513 34.8724C45.821 34.8724 46.8769 35.8495 46.8769 37.0599C46.8769 38.2703 45.821 39.2474 44.513 39.2474ZM24.814 31.9557L27.1778 25.3932H44.513L46.8769 31.9557H24.814Z" fill="white"/>
</svg>
