<svg width="71" height="67" viewBox="0 0 71 67" fill="none" xmlns="http://www.w3.org/2000/svg">
<path d="M0.844727 16.9141C0.844727 8.0775 8.00817 0.914062 16.8447 0.914062H54.8447C63.6813 0.914062 70.8447 8.07751 70.8447 16.9141V50.3011C70.8447 59.1377 63.6813 66.3011 54.8447 66.3011H16.8447C8.00817 66.3011 0.844727 59.1377 0.844727 50.3011V16.9141Z" fill="#4DABFF"/>
<path d="M46.7499 24.6786C46.4347 23.8182 45.5522 23.2057 44.5121 23.2057H40.5722V21.7474C40.5722 20.9453 39.8631 20.2891 38.9963 20.2891H32.6926C31.8259 20.2891 31.1167 20.9453 31.1167 21.7474V23.2057H27.1769C26.1368 23.2057 25.27 23.8182 24.9391 24.6786L21.8345 32.9474C21.7242 33.2536 21.6611 33.5745 21.6611 33.9099V44.3516C21.6611 45.562 22.717 46.5391 24.025 46.5391C25.333 46.5391 26.3889 45.562 26.3889 44.3516V43.6224H45.3V44.3516C45.3 45.5474 46.3559 46.5391 47.6639 46.5391C48.9562 46.5391 50.0278 45.562 50.0278 44.3516V33.9099C50.0278 33.5891 49.9648 33.2536 49.8544 32.9474L46.7499 24.6786ZM27.1769 39.2474C25.8689 39.2474 24.813 38.2703 24.813 37.0599C24.813 35.8495 25.8689 34.8724 27.1769 34.8724C28.4849 34.8724 29.5408 35.8495 29.5408 37.0599C29.5408 38.2703 28.4849 39.2474 27.1769 39.2474ZM44.5121 39.2474C43.204 39.2474 42.1482 38.2703 42.1482 37.0599C42.1482 35.8495 43.204 34.8724 44.5121 34.8724C45.8201 34.8724 46.8759 35.8495 46.8759 37.0599C46.8759 38.2703 45.8201 39.2474 44.5121 39.2474ZM24.813 31.9557L27.1769 25.3932H44.5121L46.8759 31.9557H24.813Z" fill="white"/>
</svg>
