<svg width="28" height="32" viewBox="0 0 28 32" fill="none" xmlns="http://www.w3.org/2000/svg">
<path d="M0.619141 23.6673C0.619141 25.134 1.27526 26.4506 2.30151 27.3673V29.5006C2.30151 30.884 3.42869 32.0006 4.82505 32.0006C6.22142 32.0006 7.3486 30.884 7.3486 29.5006V28.6673H20.8075V29.5006C20.8075 30.8673 21.9347 32.0006 23.3311 32.0006C24.7106 32.0006 25.8546 30.884 25.8546 29.5006V27.3673C26.8809 26.4506 27.537 25.134 27.537 23.6673V7.00065C27.537 1.16732 21.5141 0.333984 14.0781 0.333984C6.64201 0.333984 0.619141 1.16732 0.619141 7.00065V23.6673ZM6.50742 25.334C5.11106 25.334 3.98387 24.2173 3.98387 22.834C3.98387 21.4506 5.11106 20.334 6.50742 20.334C7.90378 20.334 9.03097 21.4506 9.03097 22.834C9.03097 24.2173 7.90378 25.334 6.50742 25.334ZM21.6487 25.334C20.2523 25.334 19.1252 24.2173 19.1252 22.834C19.1252 21.4506 20.2523 20.334 21.6487 20.334C23.0451 20.334 24.1723 21.4506 24.1723 22.834C24.1723 24.2173 23.0451 25.334 21.6487 25.334ZM24.1723 15.334H3.98387V7.00065H24.1723V15.334Z" fill="white"/>
</svg>
