<svg width="20" height="20" viewBox="0 0 20 20" fill="none" xmlns="http://www.w3.org/2000/svg">
<path d="M13.4917 1.6665H6.50841C3.47508 1.6665 1.66675 3.47484 1.66675 6.50817V13.4832C1.66675 16.5248 3.47508 18.3332 6.50841 18.3332H13.4834C16.5167 18.3332 18.3251 16.5248 18.3251 13.4915V6.50817C18.3334 3.47484 16.5251 1.6665 13.4917 1.6665ZM14.3834 8.29984L12.4584 10.7832C12.2167 11.0915 11.8751 11.2915 11.4834 11.3332C11.0917 11.3832 10.7084 11.2748 10.4001 11.0332L8.87508 9.83317C8.81675 9.78317 8.75008 9.78317 8.71675 9.7915C8.68341 9.7915 8.62508 9.80817 8.57508 9.87484L6.59175 12.4498C6.46675 12.6082 6.28341 12.6915 6.10008 12.6915C5.96675 12.6915 5.83341 12.6498 5.71675 12.5582C5.44175 12.3498 5.39175 11.9582 5.60008 11.6832L7.58341 9.10817C7.82508 8.79984 8.16675 8.59984 8.55841 8.54984C8.94175 8.49984 9.33341 8.60817 9.64175 8.84984L11.1667 10.0498C11.2251 10.0998 11.2834 10.0998 11.3251 10.0915C11.3584 10.0915 11.4167 10.0748 11.4667 10.0082L13.3917 7.52484C13.6001 7.24984 14.0001 7.19984 14.2667 7.4165C14.5417 7.6415 14.5917 8.03317 14.3834 8.29984Z" fill="#929EAE"/>
</svg>
