<svg width="271" height="187" viewBox="0 0 271 187" fill="none" xmlns="http://www.w3.org/2000/svg">
<g clip-path="url(#clip0_1_1691)">
<path d="M171.408 52.2742H137.793V44.9678C137.793 44.5043 137.61 44.0597 137.284 43.732C136.958 43.4042 136.515 43.2201 136.054 43.2201H126.183V35.4373C126.183 35.1455 126.068 34.8657 125.862 34.6594C125.657 34.4531 125.379 34.3372 125.088 34.3372H112.373C112.083 34.3372 111.804 34.4531 111.599 34.6594C111.394 34.8657 111.278 35.1455 111.278 35.4373V43.2227H99.6736C99.2124 43.2227 98.77 43.4069 98.4439 43.7346C98.1178 44.0624 97.9346 44.5069 97.9346 44.9704V52.2768H65.8807C65.7874 52.2775 65.6982 52.3152 65.6324 52.3818C65.5667 52.4483 65.5298 52.5383 65.5298 52.6321V149.624C65.5298 149.717 65.5667 149.807 65.6324 149.874C65.6982 149.94 65.7874 149.978 65.8807 149.979H87.1836C87.2774 149.979 87.3673 149.941 87.4336 149.875C87.4999 149.808 87.5372 149.718 87.5372 149.624V136.574C87.5378 136.48 87.5753 136.39 87.6415 136.324C87.7076 136.257 87.7972 136.219 87.8907 136.219H96.8896C96.9831 136.219 97.0727 136.257 97.1388 136.324C97.205 136.39 97.2425 136.48 97.2431 136.574V149.624C97.2431 149.717 97.28 149.807 97.3458 149.874C97.4115 149.94 97.5008 149.978 97.5941 149.979H139.689C139.783 149.978 139.872 149.94 139.938 149.874C140.005 149.808 140.042 149.718 140.043 149.624V136.574C140.043 136.48 140.08 136.39 140.145 136.324C140.211 136.257 140.3 136.219 140.394 136.219H149.392C149.486 136.219 149.576 136.256 149.642 136.323C149.709 136.389 149.746 136.48 149.746 136.574V149.624C149.747 149.718 149.784 149.808 149.85 149.874C149.917 149.94 150.006 149.978 150.1 149.979H171.402C171.496 149.978 171.586 149.94 171.652 149.874C171.718 149.808 171.755 149.718 171.756 149.624V52.6295C171.755 52.5363 171.719 52.4471 171.654 52.3808C171.589 52.3145 171.5 52.2762 171.408 52.2742ZM83.7239 131.687C83.7239 131.78 83.6869 131.87 83.6211 131.936C83.5553 132.002 83.466 132.039 83.373 132.039H70.2152C70.1689 132.04 70.1229 132.031 70.0801 132.013C70.0372 131.996 69.9982 131.97 69.9653 131.937C69.9324 131.904 69.9064 131.865 69.8886 131.822C69.8708 131.779 69.8616 131.733 69.8616 131.687V127.183C69.8616 127.137 69.8707 127.09 69.8885 127.047C69.9063 127.004 69.9323 126.965 69.9651 126.932C69.998 126.899 70.037 126.873 70.0799 126.855C70.1228 126.837 70.1687 126.828 70.2152 126.828H83.3808C83.4741 126.829 83.5634 126.866 83.6291 126.933C83.6949 126.999 83.7318 127.089 83.7318 127.183L83.7239 131.687ZM83.7239 120.016C83.7243 120.063 83.7154 120.109 83.698 120.152C83.6805 120.195 83.6547 120.234 83.6221 120.267C83.5894 120.3 83.5506 120.327 83.5079 120.344C83.4651 120.362 83.4193 120.372 83.373 120.372H70.2152C70.1686 120.372 70.1225 120.363 70.0794 120.345C70.0364 120.328 69.9973 120.301 69.9644 120.268C69.9315 120.235 69.9054 120.196 69.8878 120.153C69.8702 120.109 69.8612 120.063 69.8616 120.016V115.502C69.8612 115.456 69.8702 115.409 69.8878 115.366C69.9054 115.323 69.9315 115.283 69.9644 115.25C69.9973 115.217 70.0364 115.191 70.0794 115.173C70.1225 115.156 70.1686 115.147 70.2152 115.147H83.3808C83.4271 115.147 83.473 115.156 83.5157 115.174C83.5585 115.192 83.5973 115.218 83.6299 115.251C83.6625 115.284 83.6883 115.324 83.7058 115.367C83.7233 115.41 83.7321 115.456 83.7318 115.502L83.7239 120.016ZM83.7239 108.349C83.7239 108.442 83.687 108.532 83.6213 108.599C83.5555 108.666 83.4663 108.703 83.373 108.704H70.2152C70.1687 108.704 70.1228 108.695 70.0799 108.677C70.037 108.659 69.998 108.633 69.9651 108.6C69.9323 108.567 69.9063 108.528 69.8885 108.485C69.8707 108.442 69.8616 108.395 69.8616 108.349V103.832C69.8616 103.786 69.8707 103.739 69.8885 103.696C69.9063 103.653 69.9323 103.614 69.9651 103.581C69.998 103.548 70.037 103.522 70.0799 103.504C70.1228 103.486 70.1687 103.477 70.2152 103.477H83.3808C83.4741 103.478 83.5634 103.515 83.6291 103.582C83.6949 103.648 83.7318 103.738 83.7318 103.832L83.7239 108.349ZM83.7239 96.6784C83.7243 96.725 83.7154 96.7711 83.698 96.8142C83.6805 96.8573 83.6547 96.8965 83.6221 96.9295C83.5894 96.9625 83.5506 96.9888 83.5079 97.0066C83.4651 97.0245 83.4193 97.0338 83.373 97.0338H70.2152C70.1686 97.0341 70.1225 97.0251 70.0794 97.0074C70.0364 96.9897 69.9973 96.9635 69.9644 96.9305C69.9315 96.8974 69.9054 96.8581 69.8878 96.8148C69.8702 96.7715 69.8612 96.7252 69.8616 96.6784V92.1777C69.8612 92.131 69.8702 92.0846 69.8878 92.0413C69.9054 91.9981 69.9315 91.9588 69.9644 91.9257C69.9973 91.8926 70.0364 91.8665 70.0794 91.8487C70.1225 91.831 70.1686 91.8221 70.2152 91.8224H83.3808C83.4271 91.8224 83.473 91.8316 83.5157 91.8495C83.5585 91.8674 83.5973 91.8936 83.6299 91.9266C83.6625 91.9597 83.6883 91.9989 83.7058 92.042C83.7233 92.085 83.7321 92.1312 83.7318 92.1777L83.7239 96.6784ZM83.7239 85.0108C83.7239 85.1046 83.687 85.1946 83.6213 85.2611C83.5555 85.3277 83.4663 85.3654 83.373 85.3661H70.2152C70.1687 85.3661 70.1228 85.357 70.0799 85.3391C70.037 85.3212 69.998 85.2951 69.9651 85.2621C69.9323 85.2291 69.9063 85.1899 69.8885 85.1468C69.8707 85.1037 69.8616 85.0575 69.8616 85.0108V80.4943C69.8616 80.4478 69.8708 80.4017 69.8886 80.3588C69.9064 80.3158 69.9324 80.2768 69.9653 80.244C69.9982 80.2112 70.0372 80.1853 70.0801 80.1677C70.1229 80.1502 70.1689 80.1413 70.2152 80.1416H83.3808C83.4739 80.1416 83.5632 80.1788 83.629 80.2449C83.6948 80.3111 83.7318 80.4008 83.7318 80.4943L83.7239 85.0108ZM83.7239 73.3432C83.7239 73.4368 83.6869 73.5265 83.6211 73.5926C83.5553 73.6587 83.466 73.6959 83.373 73.6959H70.2152C70.1689 73.6963 70.1229 73.6874 70.0801 73.6698C70.0372 73.6523 69.9982 73.6263 69.9653 73.5935C69.9324 73.5608 69.9064 73.5218 69.8886 73.4788C69.8708 73.4358 69.8616 73.3898 69.8616 73.3432V68.8267C69.8616 68.7801 69.8707 68.7339 69.8885 68.6908C69.9063 68.6476 69.9323 68.6085 69.9651 68.5755C69.998 68.5425 70.037 68.5163 70.0799 68.4985C70.1228 68.4806 70.1687 68.4714 70.2152 68.4714H83.3808C83.4741 68.4721 83.5634 68.5098 83.6291 68.5764C83.6949 68.643 83.7318 68.7329 83.7318 68.8267L83.7239 73.3432ZM83.7239 61.673C83.7243 61.7195 83.7154 61.7657 83.698 61.8088C83.6805 61.8519 83.6547 61.891 83.6221 61.9241C83.5894 61.9571 83.5506 61.9833 83.5079 62.0012C83.4651 62.0191 83.4193 62.0283 83.373 62.0283H70.2152C70.1686 62.0287 70.1225 62.0197 70.0794 62.002C70.0364 61.9842 69.9973 61.9581 69.9644 61.925C69.9315 61.892 69.9054 61.8526 69.8878 61.8094C69.8702 61.7661 69.8612 61.7197 69.8616 61.673V57.1723C69.8612 57.1255 69.8702 57.0792 69.8878 57.0359C69.9054 56.9926 69.9315 56.9533 69.9644 56.9203C69.9973 56.8872 70.0364 56.861 70.0794 56.8433C70.1225 56.8256 70.1686 56.8166 70.2152 56.817H83.3808C83.4271 56.817 83.473 56.8262 83.5157 56.8441C83.5585 56.862 83.5973 56.8882 83.6299 56.9212C83.6625 56.9542 83.6883 56.9934 83.7058 57.0365C83.7233 57.0796 83.7321 57.1257 83.7318 57.1723L83.7239 61.673ZM114.919 131.684C114.919 131.73 114.91 131.776 114.892 131.819C114.874 131.862 114.848 131.901 114.815 131.934C114.782 131.967 114.743 131.993 114.7 132.01C114.657 132.028 114.611 132.037 114.565 132.037H101.407C101.314 132.037 101.224 131.999 101.158 131.933C101.092 131.867 101.054 131.778 101.054 131.684V127.183C101.054 127.089 101.092 126.999 101.158 126.933C101.224 126.866 101.314 126.829 101.407 126.828H114.565C114.612 126.828 114.658 126.837 114.7 126.855C114.743 126.873 114.782 126.899 114.815 126.932C114.848 126.965 114.874 127.004 114.892 127.047C114.91 127.09 114.919 127.137 114.919 127.183V131.684ZM114.919 120.014C114.919 120.06 114.91 120.107 114.893 120.15C114.875 120.193 114.849 120.233 114.816 120.266C114.783 120.299 114.744 120.325 114.701 120.343C114.658 120.36 114.612 120.369 114.565 120.369H101.407C101.314 120.369 101.224 120.332 101.157 120.265C101.091 120.198 101.054 120.108 101.054 120.014V115.502C101.054 115.408 101.091 115.318 101.157 115.251C101.224 115.185 101.314 115.147 101.407 115.147H114.565C114.612 115.147 114.658 115.156 114.701 115.173C114.744 115.191 114.783 115.217 114.816 115.25C114.849 115.283 114.875 115.323 114.893 115.366C114.91 115.409 114.919 115.456 114.919 115.502V120.014ZM114.919 108.346C114.919 108.393 114.91 108.439 114.892 108.482C114.874 108.525 114.848 108.564 114.815 108.597C114.782 108.63 114.743 108.656 114.7 108.674C114.658 108.692 114.612 108.701 114.565 108.701H101.407C101.314 108.701 101.224 108.663 101.158 108.597C101.092 108.53 101.054 108.44 101.054 108.346V103.832C101.054 103.738 101.092 103.648 101.158 103.582C101.224 103.515 101.314 103.478 101.407 103.477H114.565C114.612 103.477 114.658 103.486 114.7 103.504C114.743 103.522 114.782 103.548 114.815 103.581C114.848 103.614 114.874 103.653 114.892 103.696C114.91 103.739 114.919 103.786 114.919 103.832V108.346ZM114.919 96.6758C114.919 96.7226 114.91 96.7689 114.893 96.8122C114.875 96.8554 114.849 96.8948 114.816 96.9278C114.783 96.9609 114.744 96.987 114.701 97.0048C114.658 97.0225 114.612 97.0315 114.565 97.0311H101.407C101.314 97.0311 101.224 96.9937 101.157 96.927C101.091 96.8604 101.054 96.77 101.054 96.6758V92.1777C101.054 92.0835 101.091 91.9931 101.157 91.9265C101.224 91.8598 101.314 91.8224 101.407 91.8224H114.565C114.612 91.8221 114.658 91.831 114.701 91.8487C114.744 91.8665 114.783 91.8926 114.816 91.9257C114.849 91.9588 114.875 91.9981 114.893 92.0413C114.91 92.0846 114.919 92.131 114.919 92.1777V96.6758ZM114.919 85.0082C114.919 85.0549 114.91 85.1011 114.892 85.1442C114.874 85.1873 114.848 85.2264 114.815 85.2594C114.782 85.2924 114.743 85.3186 114.7 85.3365C114.658 85.3543 114.612 85.3635 114.565 85.3635H101.407C101.314 85.3628 101.224 85.3252 101.158 85.2587C101.092 85.1922 101.054 85.1022 101.054 85.0082V80.4943C101.054 80.4006 101.092 80.3109 101.158 80.2448C101.224 80.1787 101.314 80.1416 101.407 80.1416H114.565C114.611 80.1413 114.657 80.1502 114.7 80.1677C114.743 80.1853 114.782 80.2112 114.815 80.244C114.848 80.2768 114.874 80.3158 114.892 80.3588C114.91 80.4017 114.919 80.4478 114.919 80.4943V85.0082ZM114.919 73.3406C114.919 73.3871 114.91 73.4332 114.892 73.4762C114.874 73.5191 114.848 73.5581 114.815 73.5909C114.782 73.6237 114.743 73.6496 114.7 73.6672C114.657 73.6848 114.611 73.6936 114.565 73.6933H101.407C101.314 73.6933 101.224 73.6562 101.158 73.5901C101.092 73.5241 101.054 73.4344 101.054 73.3406V68.8267C101.054 68.7327 101.092 68.6427 101.158 68.5762C101.224 68.5098 101.314 68.4721 101.407 68.4714H114.565C114.612 68.4714 114.658 68.4806 114.7 68.4985C114.743 68.5163 114.782 68.5425 114.815 68.5755C114.848 68.6085 114.874 68.6476 114.892 68.6908C114.91 68.7339 114.919 68.7801 114.919 68.8267V73.3406ZM114.919 61.6704C114.919 61.7171 114.91 61.7635 114.893 61.8067C114.875 61.85 114.849 61.8893 114.816 61.9224C114.783 61.9554 114.744 61.9816 114.701 61.9993C114.658 62.0171 114.612 62.026 114.565 62.0257H101.407C101.314 62.0257 101.224 61.9882 101.157 61.9216C101.091 61.855 101.054 61.7646 101.054 61.6704V57.1723C101.054 57.0781 101.091 56.9877 101.157 56.921C101.224 56.8544 101.314 56.817 101.407 56.817H114.565C114.612 56.8166 114.658 56.8256 114.701 56.8433C114.744 56.861 114.783 56.8872 114.816 56.9203C114.849 56.9533 114.875 56.9926 114.893 57.0359C114.91 57.0792 114.919 57.1255 114.919 57.1723V61.6704ZM136.235 131.681C136.235 131.728 136.226 131.774 136.208 131.817C136.19 131.86 136.164 131.899 136.131 131.932C136.098 131.964 136.059 131.99 136.016 132.008C135.973 132.025 135.927 132.034 135.881 132.034H122.723C122.63 132.034 122.54 131.997 122.474 131.931C122.408 131.865 122.37 131.775 122.37 131.681V127.183C122.37 127.089 122.408 126.999 122.474 126.933C122.54 126.866 122.63 126.829 122.723 126.828H135.881C135.975 126.828 136.065 126.865 136.131 126.932C136.197 126.999 136.235 127.089 136.235 127.183V131.681ZM136.235 120.011C136.235 120.058 136.226 120.104 136.208 120.147C136.191 120.191 136.165 120.23 136.132 120.263C136.099 120.296 136.06 120.322 136.017 120.34C135.974 120.358 135.928 120.367 135.881 120.366H122.723C122.63 120.366 122.54 120.329 122.473 120.262C122.407 120.196 122.37 120.105 122.37 120.011V115.502C122.37 115.408 122.407 115.318 122.473 115.251C122.54 115.185 122.63 115.147 122.723 115.147H135.881C135.928 115.147 135.974 115.156 136.017 115.173C136.06 115.191 136.099 115.217 136.132 115.25C136.165 115.283 136.191 115.323 136.208 115.366C136.226 115.409 136.235 115.456 136.235 115.502V120.011ZM136.235 108.343C136.235 108.438 136.197 108.528 136.131 108.595C136.065 108.661 135.975 108.699 135.881 108.699H122.723C122.63 108.698 122.54 108.66 122.474 108.594C122.408 108.527 122.37 108.437 122.37 108.343V103.832C122.37 103.738 122.408 103.648 122.474 103.582C122.54 103.515 122.63 103.478 122.723 103.477H135.881C135.975 103.477 136.065 103.514 136.131 103.581C136.197 103.648 136.235 103.738 136.235 103.832V108.343ZM136.235 96.6732C136.235 96.7199 136.226 96.7663 136.208 96.8096C136.191 96.8528 136.165 96.8921 136.132 96.9252C136.099 96.9583 136.06 96.9844 136.017 97.0022C135.974 97.0199 135.928 97.0288 135.881 97.0285H122.723C122.63 97.0285 122.54 96.9911 122.473 96.9244C122.407 96.8578 122.37 96.7674 122.37 96.6732V92.1777C122.37 92.0835 122.407 91.9931 122.473 91.9265C122.54 91.8598 122.63 91.8224 122.723 91.8224H135.881C135.928 91.8221 135.974 91.831 136.017 91.8487C136.06 91.8665 136.099 91.8926 136.132 91.9257C136.165 91.9588 136.191 91.9981 136.208 92.0413C136.226 92.0846 136.235 92.131 136.235 92.1777V96.6732ZM136.235 85.0056C136.235 85.0998 136.197 85.1902 136.131 85.2568C136.065 85.3234 135.975 85.3609 135.881 85.3609H122.723C122.63 85.3602 122.54 85.3225 122.474 85.256C122.408 85.1896 122.37 85.0996 122.37 85.0056V80.4943C122.37 80.4006 122.408 80.3109 122.474 80.2448C122.54 80.1787 122.63 80.1416 122.723 80.1416H135.881C135.927 80.1413 135.973 80.1502 136.016 80.1677C136.059 80.1853 136.098 80.2112 136.131 80.244C136.164 80.2768 136.19 80.3158 136.208 80.3588C136.226 80.4017 136.235 80.4478 136.235 80.4943V85.0056ZM136.235 73.338C136.235 73.3845 136.226 73.4306 136.208 73.4735C136.19 73.5165 136.164 73.5555 136.131 73.5883C136.098 73.6211 136.059 73.647 136.016 73.6646C135.973 73.6821 135.927 73.691 135.881 73.6906H122.723C122.63 73.6907 122.54 73.6536 122.474 73.5875C122.408 73.5214 122.37 73.4317 122.37 73.338V68.8267C122.37 68.7327 122.408 68.6427 122.474 68.5762C122.54 68.5098 122.63 68.4721 122.723 68.4714H135.881C135.975 68.4714 136.065 68.5088 136.131 68.5755C136.197 68.6421 136.235 68.7325 136.235 68.8267V73.338ZM136.235 61.6677C136.235 61.7145 136.226 61.7608 136.208 61.8041C136.191 61.8474 136.165 61.8867 136.132 61.9198C136.099 61.9528 136.06 61.979 136.017 61.9967C135.974 62.0144 135.928 62.0234 135.881 62.023H122.723C122.63 62.023 122.54 61.9856 122.473 61.919C122.407 61.8523 122.37 61.762 122.37 61.6677V57.1723C122.37 57.0781 122.407 56.9877 122.473 56.921C122.54 56.8544 122.63 56.817 122.723 56.817H135.881C135.928 56.8166 135.974 56.8256 136.017 56.8433C136.06 56.861 136.099 56.8872 136.132 56.9203C136.165 56.9533 136.191 56.9926 136.208 57.0359C136.226 57.0792 136.235 57.1255 136.235 57.1723V61.6677ZM167.429 131.679C167.429 131.772 167.391 131.862 167.325 131.928C167.259 131.994 167.169 132.031 167.076 132.031H153.918C153.872 132.032 153.826 132.023 153.783 132.005C153.74 131.988 153.701 131.962 153.668 131.929C153.635 131.896 153.609 131.857 153.592 131.814C153.574 131.771 153.565 131.725 153.565 131.679V127.183C153.565 127.089 153.602 126.999 153.668 126.932C153.734 126.865 153.824 126.828 153.918 126.828H167.076C167.169 126.829 167.259 126.866 167.325 126.933C167.391 126.999 167.429 127.089 167.429 127.183V131.679ZM167.429 120.008C167.429 120.103 167.392 120.193 167.326 120.26C167.26 120.326 167.17 120.364 167.076 120.364H153.918C153.872 120.364 153.825 120.355 153.782 120.337C153.739 120.32 153.7 120.293 153.667 120.26C153.634 120.227 153.608 120.188 153.591 120.145C153.573 120.101 153.564 120.055 153.565 120.008V115.502C153.564 115.456 153.573 115.409 153.591 115.366C153.608 115.323 153.634 115.283 153.667 115.25C153.7 115.217 153.739 115.191 153.782 115.173C153.825 115.156 153.872 115.147 153.918 115.147H167.076C167.17 115.147 167.26 115.185 167.326 115.251C167.392 115.318 167.429 115.408 167.429 115.502V120.008ZM167.429 108.341C167.429 108.435 167.391 108.525 167.325 108.591C167.259 108.658 167.169 108.695 167.076 108.696H153.918C153.824 108.696 153.734 108.659 153.668 108.592C153.602 108.525 153.565 108.435 153.565 108.341V103.832C153.565 103.738 153.602 103.648 153.668 103.581C153.734 103.514 153.824 103.477 153.918 103.477H167.076C167.169 103.478 167.259 103.515 167.325 103.582C167.391 103.648 167.429 103.738 167.429 103.832V108.341ZM167.429 96.6705C167.429 96.7648 167.392 96.8551 167.326 96.9218C167.26 96.9884 167.17 97.0259 167.076 97.0259H153.918C153.826 97.0252 153.739 96.9884 153.673 96.9235C153.608 96.8586 153.571 96.7706 153.57 96.6784V92.1777C153.569 92.131 153.578 92.0846 153.596 92.0413C153.614 91.9981 153.64 91.9588 153.673 91.9257C153.705 91.8926 153.745 91.8665 153.788 91.8487C153.831 91.831 153.877 91.8221 153.923 91.8224H167.081C167.175 91.8224 167.265 91.8598 167.331 91.9265C167.397 91.9931 167.435 92.0835 167.435 92.1777L167.429 96.6705ZM167.429 85.0029C167.429 85.097 167.391 85.1869 167.325 85.2534C167.259 85.3199 167.169 85.3576 167.076 85.3582H153.918C153.824 85.3582 153.734 85.3208 153.668 85.2542C153.602 85.1875 153.565 85.0972 153.565 85.0029V80.4943C153.565 80.4478 153.574 80.4017 153.592 80.3588C153.609 80.3158 153.635 80.2768 153.668 80.244C153.701 80.2112 153.74 80.1853 153.783 80.1677C153.826 80.1502 153.872 80.1413 153.918 80.1416H167.076C167.169 80.1416 167.259 80.1787 167.325 80.2448C167.391 80.3109 167.429 80.4006 167.429 80.4943V85.0029ZM167.429 73.3353C167.429 73.4291 167.391 73.5188 167.325 73.5849C167.259 73.6509 167.169 73.688 167.076 73.688H153.918C153.872 73.6884 153.826 73.6795 153.783 73.6619C153.74 73.6444 153.701 73.6184 153.668 73.5857C153.635 73.5529 153.609 73.5139 153.592 73.4709C153.574 73.4279 153.565 73.3819 153.565 73.3353V68.8267C153.565 68.7325 153.602 68.6421 153.668 68.5755C153.734 68.5088 153.824 68.4714 153.918 68.4714H167.076C167.169 68.4721 167.259 68.5098 167.325 68.5762C167.391 68.6427 167.429 68.7327 167.429 68.8267V73.3353ZM167.429 61.6651C167.429 61.7118 167.42 61.758 167.403 61.8011C167.385 61.8442 167.359 61.8833 167.326 61.9163C167.293 61.9493 167.254 61.9755 167.211 61.9934C167.168 62.0112 167.122 62.0204 167.076 62.0204H153.918C153.826 62.0197 153.739 61.983 153.673 61.9181C153.608 61.8531 153.571 61.7652 153.57 61.673V57.1723C153.569 57.1255 153.578 57.0792 153.596 57.0359C153.614 56.9926 153.64 56.9533 153.673 56.9203C153.705 56.8872 153.745 56.861 153.788 56.8433C153.831 56.8256 153.877 56.8166 153.923 56.817H167.081C167.175 56.817 167.265 56.8544 167.331 56.921C167.397 56.9877 167.435 57.0781 167.435 57.1723L167.429 61.6651Z" fill="#F2F2F2"/>
<path d="M69.9664 11.8731L65.9017 14.463L68.3688 9.95176C67.6702 9.39161 66.8058 9.08137 65.9122 9.07005H65.8467C65.5643 9.0743 65.282 9.05315 65.0034 9.00688L63.6258 9.88333L64.2151 8.80421C63.2381 8.46189 62.3944 7.81679 61.8056 6.96182L59.3411 8.54101L60.8968 5.69584C59.4564 3.95609 57.5131 2.89014 55.3734 2.89014C52.8094 2.89014 50.5256 4.42195 49.0511 6.80917C48.6151 7.52596 47.9972 8.11334 47.2609 8.51109C46.5245 8.90884 45.6962 9.10266 44.8607 9.07268H44.7245C41.8934 9.07268 39.5992 12.2995 39.5992 16.2764C39.5992 20.2534 41.9039 23.4828 44.735 23.4828C45.357 23.4796 45.9689 23.3251 46.5185 23.0327C47.4821 22.5616 48.5361 22.3067 49.6075 22.2858C50.6788 22.2649 51.7419 22.4785 52.7229 22.9117C53.5526 23.2847 54.4513 23.4775 55.3603 23.4775C56.2692 23.4775 57.1679 23.2847 57.9976 22.9117C58.9708 22.4875 60.0235 22.2788 61.0841 22.2997C62.1447 22.3206 63.1884 22.5706 64.1443 23.0327C64.6893 23.3227 65.2955 23.477 65.9122 23.4828C68.7433 23.4828 71.0375 20.256 71.0375 16.2764C71.0543 14.7415 70.6859 13.2271 69.9664 11.8731Z" fill="#F2F2F2"/>
<path opacity="0.03" d="M62.3058 22.4144C60.827 22.1314 59.2977 22.2982 57.9137 22.8934C57.0843 23.2655 56.1861 23.4578 55.2777 23.4578C54.3694 23.4578 53.4712 23.2655 52.6417 22.8934C51.6604 22.4614 50.5975 22.2485 49.5263 22.2694C48.4551 22.2903 47.4012 22.5445 46.4373 23.0144C45.8873 23.3084 45.2741 23.4628 44.6512 23.4645C42.1369 23.4645 40.0444 20.9194 39.6096 17.561C40.1122 17.1922 40.5391 16.7292 40.8667 16.1976C42.3412 13.8104 44.625 12.2786 47.189 12.2786C49.753 12.2786 52.0079 13.792 53.4746 16.1555C53.9137 16.8693 54.5293 17.4568 55.2612 17.8608C55.9932 18.2648 56.8168 18.4716 57.6518 18.4611H57.7173C59.7287 18.4479 61.4625 20.0614 62.3058 22.4144Z" fill="black"/>
<path d="M201.37 4.71152L199.338 6.00383L200.569 3.75348C200.22 3.47434 199.789 3.31971 199.343 3.31394H199.312C199.171 3.31672 199.029 3.30615 198.89 3.28235L198.204 3.7219L198.497 3.1955C198.011 3.02413 197.591 2.70378 197.295 2.27957L196.067 3.06916L196.853 1.65052C196.528 1.22235 196.113 0.872499 195.636 0.62658C195.16 0.380662 194.635 0.244905 194.1 0.229248C192.822 0.229248 191.683 0.995157 190.957 2.18482C190.739 2.54272 190.43 2.83589 190.062 3.03429C189.693 3.23269 189.279 3.3292 188.862 3.31394H188.794C187.382 3.31394 186.238 4.92208 186.238 6.9066C186.238 8.89112 187.382 10.4993 188.794 10.4993C189.104 10.4983 189.41 10.4215 189.684 10.2755C190.165 10.0409 190.69 9.91401 191.224 9.90355C191.758 9.8931 192.288 9.99937 192.777 10.215C193.191 10.4007 193.64 10.4967 194.093 10.4967C194.547 10.4967 194.995 10.4007 195.409 10.215C195.895 10.0038 196.42 9.89994 196.949 9.91039C197.479 9.92083 197.999 10.0454 198.476 10.2755C198.748 10.4183 199.05 10.4932 199.356 10.494C200.768 10.494 201.912 8.88586 201.912 6.90134C201.916 6.13736 201.73 5.38451 201.37 4.71152Z" fill="#F2F2F2"/>
<path opacity="0.03" d="M197.549 9.96756C196.811 9.82808 196.048 9.91142 195.357 10.2071C194.945 10.3913 194.499 10.4864 194.048 10.4861C193.596 10.4837 193.15 10.3869 192.738 10.2018C192.248 9.98612 191.718 9.87983 191.184 9.89028C190.649 9.90073 190.123 10.0277 189.642 10.2623C189.368 10.4086 189.062 10.4854 188.752 10.4861C187.497 10.4861 186.455 9.21745 186.238 7.54087C186.489 7.35704 186.702 7.12651 186.866 6.86182C187.6 5.67216 188.739 4.90625 190.009 4.90625C191.279 4.90625 192.413 5.66163 193.152 6.84076C193.372 7.19852 193.681 7.49264 194.048 7.69427C194.415 7.89591 194.829 7.99814 195.247 7.99094H195.281C196.263 7.99094 197.127 8.79633 197.549 9.96756Z" fill="black"/>
<path d="M170.556 19.0105L168.173 20.5291L169.619 17.8971C169.21 17.5653 168.703 17.38 168.178 17.3707H168.139C167.973 17.3731 167.808 17.3607 167.644 17.3339L166.837 17.8603L167.183 17.226C166.611 17.0256 166.116 16.6489 165.769 16.1495L164.323 17.0707L165.237 15.402C164.853 14.9029 164.363 14.4961 163.802 14.2111C163.242 13.9261 162.625 13.7701 161.998 13.7544C160.494 13.7544 159.153 14.6545 158.289 16.0548C158.032 16.472 157.67 16.8135 157.24 17.0447C156.809 17.2758 156.326 17.3883 155.838 17.3707H155.757C154.096 17.3707 152.753 19.2631 152.753 21.5819C152.753 23.9007 154.096 25.8063 155.757 25.8063C156.122 25.8056 156.482 25.7153 156.804 25.5431C157.369 25.2672 157.987 25.1179 158.615 25.1056C159.243 25.0934 159.867 25.2184 160.442 25.472C160.929 25.6898 161.456 25.8023 161.988 25.8023C162.521 25.8023 163.048 25.6898 163.535 25.472C164.106 25.2234 164.724 25.1012 165.346 25.1134C165.968 25.1257 166.58 25.2722 167.141 25.5431C167.464 25.7141 167.824 25.8044 168.189 25.8063C169.849 25.8063 171.195 23.9165 171.195 21.5819C171.2 20.6846 170.98 19.8005 170.556 19.0105Z" fill="#F2F2F2"/>
<path opacity="0.03" d="M157.839 34.5636C156.971 34.3985 156.074 34.4966 155.262 34.8452C154.775 35.063 154.248 35.1755 153.715 35.1755C153.182 35.1755 152.655 35.063 152.169 34.8452C151.593 34.5916 150.97 34.4666 150.342 34.4789C149.714 34.4911 149.096 34.6404 148.531 34.9163C148.208 35.0882 147.848 35.1785 147.483 35.1795C146.009 35.1795 144.78 33.6872 144.526 31.7184C144.82 31.5052 145.07 31.2372 145.262 30.9288C146.127 29.5286 147.468 28.6311 148.971 28.6311C150.474 28.6311 151.799 29.5181 152.664 30.9025C152.921 31.3214 153.281 31.6663 153.71 31.9034C154.14 32.1405 154.623 32.2617 155.112 32.2554H155.141C156.325 32.2369 157.344 33.1844 157.839 34.5636Z" fill="black"/>
<path d="M248.084 150.042C248.084 150.495 248.084 150.948 248.055 151.395C247.988 153.137 247.78 154.87 247.432 156.577C245.711 165.029 240.743 171.598 234.502 173.538C233.26 173.927 231.968 174.124 230.668 174.125C221.048 174.125 213.251 163.334 213.251 150.042C213.251 136.751 221.048 125.959 230.668 125.959C239.69 125.959 247.112 135.45 247.995 147.608C248.055 148.408 248.084 149.221 248.084 150.042Z" fill="#333333"/>
<path opacity="0.1" d="M248.055 151.398C247.988 153.139 247.78 154.872 247.432 156.58C245.711 165.031 240.743 171.601 234.502 173.541C229.67 171.306 226.084 162.931 226.084 152.94C226.084 141.238 231.008 131.752 237.084 131.752C242.183 131.752 246.473 138.443 247.717 147.521C247.89 148.766 248.003 150.066 248.055 151.398Z" fill="black"/>
<path d="M160.61 96.7443C160.61 96.7443 207.751 87.006 232.632 95.9547C232.632 95.9547 236.298 97.7971 232.632 100.956C232.632 100.956 236.099 104.64 230.044 105.956L205.989 107.443L160.61 102.798V96.7443Z" fill="#2F2E30"/>
<path d="M214.823 112.536L211.68 106.22C211.68 106.22 213.057 99.829 201.859 97.9498C201.238 95.1625 198.425 93.0596 195.049 93.0596C191.755 93.0596 188.999 95.0599 188.287 97.7445C186.679 97.884 184.966 98.0735 183.133 98.3235L180.571 112.126L180.252 111.483C180.252 111.483 181.878 103.935 167.22 102.832C168.019 101.859 168.459 100.638 168.467 99.3763C168.467 96.0311 165.358 93.3228 161.526 93.3228C157.695 93.3228 154.586 96.0311 154.586 99.3763C154.596 100.751 155.115 102.072 156.042 103.082C154.671 103.214 153.226 103.382 151.705 103.588L148.824 119.116L162.181 120.959L183.395 117.8L181.517 114.023L193.609 115.692L214.823 112.536Z" fill="#6C6C6C"/>
<path d="M169.771 98.5551C169.771 98.5551 167.676 86.7427 177.366 86.4795C187.056 86.2163 183.913 103.587 183.913 103.587C183.913 103.587 191.246 105.167 191.77 108.062C192.294 110.957 166.366 111.747 166.366 111.747L169.771 98.5551Z" fill="#8F8F8F"/>
<path d="M152.753 160.965C152.753 174.914 142.434 186.232 129.705 186.232C116.977 186.232 106.658 174.914 106.658 160.965C106.658 147.015 117.106 133.46 129.836 133.46C142.567 133.46 152.753 147.01 152.753 160.965Z" fill="#333333"/>
<path opacity="0.1" d="M129.705 183.334C139.83 183.334 148.038 173.79 148.038 162.018C148.038 150.245 139.83 140.701 129.705 140.701C119.58 140.701 111.373 150.245 111.373 162.018C111.373 173.79 119.58 183.334 129.705 183.334Z" fill="black"/>
<path d="M28.3506 183.861C41.0792 183.861 51.3977 172.548 51.3977 158.594C51.3977 144.639 41.0792 133.326 28.3506 133.326C15.622 133.326 5.30347 144.639 5.30347 158.594C5.30347 172.548 15.622 183.861 28.3506 183.861Z" fill="#303030"/>
<path d="M67.6354 98.3235C67.6354 98.3235 56.8975 98.8499 57.4213 104.64C57.9451 110.431 66.5878 106.219 66.5878 106.219L67.6354 98.3235Z" fill="#373737"/>
<path d="M156.974 107.97L161.395 78.3203C161.395 78.3203 162.443 74.6356 148.3 74.6356C148.3 74.6356 102.992 71.7404 91.4682 76.478C91.4682 76.478 78.1114 81.4787 59.5165 107.272C59.5165 107.272 155.141 109.549 156.974 107.97Z" fill="#FBA403"/>
<path d="M153.417 78.3422C154.752 78.3313 155.722 79.6057 155.357 80.8894L147.253 109.378L142.161 109.254L118.067 108.665L64.3277 107.349C64.1974 105.116 83.9506 85.0753 88.9759 80.0152C89.7151 79.2708 90.7153 78.8541 91.7643 78.8455L153.417 78.3422Z" fill="#4F4F4F"/>
<path opacity="0.2" d="M118.075 108.664L120.269 100.137C120.269 100.137 118.174 88.3218 127.864 88.0586C137.555 87.7954 134.412 105.167 134.412 105.167C134.412 105.167 141.09 106.606 142.154 109.254L118.075 108.664Z" fill="#888888"/>
<path d="M248.215 148.2C246.643 132.934 236.822 129.644 236.822 129.644C227.394 129.118 221.108 165.176 221.108 165.176L148.562 171.756C148.562 171.756 151.05 141.093 133.503 136.092C115.956 131.092 111.373 167.018 110.587 172.019C109.801 177.02 4.77966 171.493 1.89877 169.387C-0.982121 167.281 0.0654748 147.015 0.851172 145.436C1.63687 143.857 3.73206 136.75 3.73206 136.75C3.73206 135.055 4.53871 132.913 5.20917 131.426C5.68059 130.373 6.08915 129.644 6.08915 129.644C8.36506 116.674 20.1819 113.534 20.9755 113.326H21.0174C24.1602 110.167 53.231 108.062 53.231 108.062L64.2307 105.956L153.661 107.722L157.467 107.799L202.932 105.601L233.679 104.114C240.751 104.114 244.417 122.011 244.417 122.011C250.965 137.803 248.215 148.2 248.215 148.2Z" fill="#FBA403"/>
<path opacity="0.1" d="M100.778 132.699C107.686 129.905 111.875 124.117 110.134 119.771C108.394 115.425 101.383 114.166 94.4754 116.96C87.5675 119.753 83.3784 125.541 85.1187 129.887C86.859 134.234 93.8698 135.492 100.778 132.699Z" fill="black"/>
<path d="M100.254 131.645C107.162 128.851 111.351 123.063 109.611 118.717C107.871 114.371 100.86 113.112 93.952 115.906C87.0441 118.699 82.855 124.487 84.5953 128.833C86.3356 133.18 93.3464 134.438 100.254 131.645Z" fill="#F2F2F2"/>
<path opacity="0.1" d="M21.4993 113.863C21.3657 116.758 20.0746 120.411 17.7515 123.93C14.0142 129.594 8.88885 132.929 5.73297 131.952C6.20439 130.9 6.61295 130.171 6.61295 130.171C8.88885 117.2 20.7057 114.06 21.4993 113.863Z" fill="black"/>
<path d="M20.7136 113.336C20.58 116.232 19.2889 119.885 16.9658 123.404C13.2285 129.068 8.10315 132.403 4.94727 131.426C5.41868 130.373 5.82725 129.644 5.82725 129.644C8.10315 116.674 19.92 113.534 20.7136 113.336Z" fill="#F2F2F2"/>
<path d="M57.4213 121.219H36.7313L35.6837 118.324H60.826L57.4213 121.219Z" fill="#373737"/>
<path d="M52.7071 142.538H18.6603V152.54H52.7071V142.538Z" fill="#373737"/>
<path opacity="0.1" d="M89.3731 162.278C91.9766 162.278 94.0872 160.157 94.0872 157.541C94.0872 154.924 91.9766 152.803 89.3731 152.803C86.7695 152.803 84.6589 154.924 84.6589 157.541C84.6589 160.157 86.7695 162.278 89.3731 162.278Z" fill="black"/>
<path d="M88.8493 161.489C91.4528 161.489 93.5634 159.367 93.5634 156.751C93.5634 154.135 91.4528 152.013 88.8493 152.013C86.2457 152.013 84.1351 154.135 84.1351 156.751C84.1351 159.367 86.2457 161.489 88.8493 161.489Z" fill="#F2F2F2"/>
<path opacity="0.1" d="M3.73209 158.857C5.03388 158.857 6.08918 156.618 6.08918 153.856C6.08918 151.094 5.03388 148.855 3.73209 148.855C2.43031 148.855 1.375 151.094 1.375 153.856C1.375 156.618 2.43031 158.857 3.73209 158.857Z" fill="black"/>
<path d="M2.94639 158.593C4.24817 158.593 5.30348 156.354 5.30348 153.593C5.30348 150.831 4.24817 148.592 2.94639 148.592C1.6446 148.592 0.589294 150.831 0.589294 153.593C0.589294 156.354 1.6446 158.593 2.94639 158.593Z" fill="#F2F2F2"/>
<path d="M210.632 132.539C207.751 141.488 207.489 155.438 207.489 155.438L206.442 159.123L155.372 164.913C155.372 164.913 155.633 139.119 156.419 127.012C156.972 118.471 154.921 111.241 153.661 107.722L157.467 107.799L202.932 105.601C210.528 110.952 213.217 124.504 210.632 132.539Z" fill="#D58A00"/>
<path d="M198.988 116.405C198.809 116.417 198.635 116.467 198.476 116.55C198.318 116.634 198.178 116.75 198.067 116.891C197.955 117.032 197.874 117.195 197.829 117.369C197.784 117.543 197.776 117.725 197.804 117.903C197.829 118.052 197.89 118.192 197.981 118.312C198.073 118.432 198.192 118.527 198.328 118.59C199.174 119.014 204.805 118.063 206.94 117.684C207.256 117.633 207.546 117.478 207.765 117.243C207.984 117.008 208.119 116.707 208.15 116.387C208.176 116.013 208.04 115.695 207.495 115.695L198.988 116.405Z" fill="#F2F2F2"/>
<path d="M153.538 106.746C153.538 106.746 154.848 112.536 161.133 110.694L163.229 102.535L159.038 100.166L153.538 106.746Z" fill="#373737"/>
<path d="M161.236 94.9887C164.116 93.2727 168.687 91.7724 173.207 95.3756C174.148 96.1222 174.812 97.1651 175.091 98.3366C175.371 99.5081 175.251 100.74 174.75 101.835C173.27 105.053 169.758 108.546 161.558 104.364C160.753 103.953 160.066 103.343 159.562 102.59L159.52 102.527C159.123 101.924 158.852 101.246 158.724 100.535C158.595 99.8235 158.612 99.0934 158.772 98.3887C158.932 97.684 159.234 97.0193 159.657 96.4349C160.08 95.8505 160.617 95.3585 161.236 94.9887Z" fill="#373737"/>
<path d="M129.836 166.095C132.729 166.095 135.074 163.738 135.074 160.831C135.074 157.923 132.729 155.567 129.836 155.567C126.944 155.567 124.598 157.923 124.598 160.831C124.598 163.738 126.944 166.095 129.836 166.095Z" fill="#F2F2F2"/>
<path d="M238.001 156.62C239.592 156.62 240.882 154.263 240.882 151.356C240.882 148.448 239.592 146.092 238.001 146.092C236.41 146.092 235.12 148.448 235.12 151.356C235.12 154.263 236.41 156.62 238.001 156.62Z" fill="#F2F2F2"/>
<path d="M129.967 144.644H129.444C127.708 144.644 126.301 146.058 126.301 147.802V150.697C126.301 152.442 127.708 153.856 129.444 153.856H129.967C131.703 153.856 133.11 152.442 133.11 150.697V147.802C133.11 146.058 131.703 144.644 129.967 144.644Z" fill="#484848"/>
<path d="M238.001 134.511C238.241 134.511 238.48 134.558 238.702 134.651C238.925 134.744 239.127 134.879 239.297 135.05C239.467 135.221 239.602 135.425 239.694 135.648C239.787 135.872 239.834 136.111 239.834 136.353V140.564C239.834 141.402 239.503 142.205 238.913 142.798C238.324 143.39 237.525 143.723 236.691 143.723C236.205 143.723 235.739 143.529 235.395 143.183C235.051 142.838 234.858 142.369 234.858 141.88V137.669C234.858 136.831 235.189 136.028 235.778 135.436C236.368 134.843 237.167 134.511 238.001 134.511Z" fill="#484848"/>
<path d="M238.001 168.203C237.167 168.203 236.368 167.87 235.778 167.278C235.189 166.685 234.858 165.882 234.858 165.044V162.149C234.858 161.311 235.189 160.508 235.778 159.916C236.368 159.323 237.167 158.991 238.001 158.991C239.729 158.991 239.572 160.412 239.572 162.149V165.044C239.569 166.781 239.734 168.203 238.001 168.203Z" fill="#484848"/>
<path d="M230.144 146.618C230.977 146.618 231.777 146.951 232.366 147.543C232.955 148.135 233.287 148.939 233.287 149.776V153.724C233.287 154.283 233.066 154.818 232.673 155.213C232.28 155.608 231.747 155.83 231.191 155.83C230.358 155.83 229.558 155.497 228.969 154.905C228.38 154.312 228.049 153.509 228.049 152.671V148.724C228.049 148.165 228.269 147.63 228.662 147.235C229.055 146.84 229.588 146.618 230.144 146.618Z" fill="#484848"/>
<path d="M248.084 150.042C248.084 150.495 248.084 150.947 248.055 151.395C247.988 153.136 247.78 154.87 247.432 156.577C247.259 156.606 247.083 156.621 246.908 156.622C246.074 156.622 245.275 156.289 244.686 155.697C244.096 155.104 243.765 154.301 243.765 153.463V150.568C243.765 149.731 244.096 148.927 244.686 148.335C245.275 147.743 246.074 147.41 246.908 147.41C247.182 147.409 247.455 147.446 247.72 147.518C247.814 147.544 247.908 147.573 247.997 147.607C248.055 148.407 248.084 149.221 248.084 150.042Z" fill="#484848"/>
<path d="M143.193 155.83H142.669C140.934 155.83 139.527 157.244 139.527 158.988V161.883C139.527 163.628 140.934 165.042 142.669 165.042H143.193C144.929 165.042 146.336 163.628 146.336 161.883V158.988C146.336 157.244 144.929 155.83 143.193 155.83Z" fill="#484848"/>
<path d="M117.527 155.83H117.003C115.268 155.83 113.861 157.244 113.861 158.988V161.883C113.861 163.628 115.268 165.042 117.003 165.042H117.527C119.263 165.042 120.67 163.628 120.67 161.883V158.988C120.67 157.244 119.263 155.83 117.527 155.83Z" fill="#484848"/>
<path d="M130.098 169.516H129.575C127.839 169.516 126.432 170.93 126.432 172.675V175.57C126.432 177.314 127.839 178.728 129.575 178.728H130.098C131.834 178.728 133.241 177.314 133.241 175.57V172.675C133.241 170.93 131.834 169.516 130.098 169.516Z" fill="#484848"/>
<path d="M221.307 54.4508C221.306 54.9528 221.217 55.4507 221.045 55.9221C220.747 56.7598 220.201 57.4859 219.48 58.0033C218.76 58.5206 217.899 58.8046 217.014 58.8172C216.129 58.8298 215.261 58.5704 214.526 58.0737C213.791 57.577 213.225 56.8668 212.903 56.0379C212.705 55.5351 212.604 54.9993 212.604 54.4587C212.604 53.3 213.062 52.1886 213.878 51.3693C214.693 50.5499 215.799 50.0896 216.952 50.0896C218.105 50.0896 219.211 50.5499 220.026 51.3693C220.841 52.1886 221.299 53.3 221.299 54.4587L221.307 54.4508Z" fill="#252525"/>
<path d="M213.487 55.5406C213.21 55.0389 213.034 54.4873 212.969 53.9172C212.904 53.3472 212.952 52.7699 213.109 52.2182C213.266 51.6666 213.529 51.1515 213.885 50.7023C214.24 50.2531 214.68 49.8786 215.179 49.6002C215.664 49.3241 216.197 49.1453 216.75 49.0738C216.151 49.0524 215.554 49.1558 214.997 49.3773C214.44 49.5989 213.934 49.9339 213.511 50.3613C213.089 50.7887 212.759 51.2992 212.542 51.8609C212.326 52.4225 212.227 53.0231 212.252 53.6249C212.278 54.2268 212.427 54.8168 212.69 55.3581C212.953 55.8993 213.325 56.38 213.781 56.77C214.238 57.16 214.77 57.4508 215.344 57.6242C215.918 57.7977 216.522 57.85 217.117 57.7778C216.372 57.7493 215.646 57.5285 215.011 57.1367C214.375 56.7449 213.85 56.1952 213.487 55.5406Z" fill="#252525"/>
<path d="M223.172 60.5359H211.525V78.794H223.172V60.5359Z" fill="#151515"/>
<path d="M193.116 126.778C193.116 126.778 191.875 130.199 188.926 130.678C185.977 131.157 184.275 131.921 184.275 131.921L191.262 136.445L194.989 135.977C194.989 135.977 195.453 131.139 197.006 130.047C198.559 128.954 193.116 126.778 193.116 126.778Z" fill="#FBBEBE"/>
<path d="M243.59 126.778C243.59 126.778 244.831 130.199 247.78 130.678C250.729 131.157 252.437 131.929 252.437 131.929L245.449 136.453L241.722 135.985C241.722 135.985 241.259 131.147 239.706 130.055C238.153 128.962 243.59 126.778 243.59 126.778Z" fill="#FBBEBE"/>
<path d="M209.585 96.5046C209.585 96.5046 207.72 97.4416 207.099 99.313C207.099 99.313 203.695 100.405 201.819 103.372C201.819 103.372 199.491 105.867 199.179 107.117C198.868 108.367 195.298 115.866 195.298 115.866C195.298 115.866 191.728 127.567 189.864 128.818C189.864 128.818 195.764 127.567 196.851 133.497C196.851 133.497 198.25 133.497 199.803 128.036C201.356 122.574 205.08 115.866 205.08 115.866C205.08 115.866 206.324 111.183 207.411 110.404C208.498 109.625 210.205 106.035 211.758 106.969C213.312 107.904 223.56 106.814 223.56 106.814C223.56 106.814 229.615 109.622 229.769 111.496C229.924 113.37 231.013 113.523 231.168 115.084C231.322 116.645 237.068 128.973 237.068 128.973C237.068 128.973 238.155 132.394 238.464 133.184C238.464 133.184 241.882 124.914 246.384 129.594C246.384 129.594 246.23 126.472 244.831 124.593C243.433 122.714 237.377 108.051 237.377 108.051C237.377 108.051 236.757 105.867 236.136 105.243C235.515 104.619 230.702 99.6262 228.997 99.6262C228.997 99.6262 228.064 97.2837 226.977 96.9731L209.585 96.5046Z" fill="#696880"/>
<path d="M195.61 134.892C194.396 135.382 193.078 135.547 191.782 135.372C190.486 135.196 189.258 134.687 188.216 133.892C187.204 133.112 186.096 132.467 184.919 131.973C183.274 131.305 181.302 130.808 180.702 131.929C179.616 133.955 193.902 138.951 193.902 138.951C193.902 138.951 195.764 137.856 195.61 134.892Z" fill="#696880"/>
<path d="M241.104 134.892C242.318 135.382 243.636 135.547 244.932 135.372C246.228 135.196 247.456 134.687 248.498 133.892C249.509 133.112 250.618 132.467 251.795 131.973C253.44 131.305 255.412 130.808 256.011 131.929C257.098 133.955 242.812 138.951 242.812 138.951C242.812 138.951 240.95 137.856 241.104 134.892Z" fill="#696880"/>
<path d="M214.66 70.8376C214.6 71.3798 214.425 71.9667 213.964 72.2562C213.586 72.4931 213.11 72.472 212.675 72.5642C212.218 72.678 211.794 72.8984 211.438 73.2075C211.082 73.5167 210.803 73.9058 210.624 74.3434C210.277 75.2268 210.209 76.1966 210.431 77.1201C210.532 77.5735 210.664 78.0193 210.826 78.4545C211.284 79.7495 211.834 81.0313 212.683 82.1104C213.409 82.9653 214.226 83.7383 215.119 84.416C215.671 84.8687 216.242 85.3319 216.923 85.5451C217.386 85.668 217.862 85.7308 218.34 85.732C218.929 85.761 219.555 85.7794 220.066 85.4846C220.852 85.0293 221.087 84.0212 221.512 83.2158C221.876 82.5289 222.415 81.9498 222.753 81.2497C222.992 80.7006 223.168 80.1257 223.277 79.5363L224.002 76.2963C224.264 75.1225 224.505 73.7959 223.845 72.7879C223.799 72.7047 223.732 72.6349 223.651 72.5852C223.526 72.5342 223.389 72.5196 223.256 72.5431C222.421 72.5995 221.587 72.4082 220.859 71.993C220.744 71.9354 220.642 71.8548 220.558 71.7561C220.451 71.5895 220.387 71.3986 220.372 71.2008C220.302 70.7988 220.189 70.4054 220.037 70.0269C219.994 69.8918 219.915 69.7709 219.809 69.6769C219.699 69.6067 219.573 69.5642 219.443 69.5532C218.321 69.3695 217.191 69.25 216.056 69.1952C215.682 69.1794 215.121 69.0294 214.867 69.3584C214.613 69.6874 214.702 70.4428 214.66 70.8376Z" fill="#FBBEBE"/>
<path opacity="0.1" d="M214.66 70.8376C214.6 71.3798 214.425 71.9667 213.964 72.2562C213.586 72.4931 213.11 72.472 212.675 72.5642C212.218 72.678 211.794 72.8984 211.438 73.2075C211.082 73.5167 210.803 73.9058 210.624 74.3434C210.277 75.2268 210.209 76.1966 210.431 77.1201C210.532 77.5735 210.664 78.0193 210.826 78.4545C211.284 79.7495 211.834 81.0313 212.683 82.1104C213.409 82.9653 214.226 83.7383 215.119 84.416C215.671 84.8687 216.242 85.3319 216.923 85.5451C217.386 85.668 217.862 85.7308 218.34 85.732C218.929 85.761 219.555 85.7794 220.066 85.4846C220.852 85.0293 221.087 84.0212 221.512 83.2158C221.876 82.5289 222.415 81.9498 222.753 81.2497C222.992 80.7006 223.168 80.1257 223.277 79.5363L224.002 76.2963C224.264 75.1225 224.505 73.7959 223.845 72.7879C223.799 72.7047 223.732 72.6349 223.651 72.5852C223.526 72.5342 223.389 72.5196 223.256 72.5431C222.421 72.5995 221.587 72.4082 220.859 71.993C220.744 71.9354 220.642 71.8548 220.558 71.7561C220.451 71.5895 220.387 71.3986 220.372 71.2008C220.302 70.7988 220.189 70.4054 220.037 70.0269C219.994 69.8918 219.915 69.7709 219.809 69.6769C219.699 69.6067 219.573 69.5642 219.443 69.5532C218.321 69.3695 217.191 69.25 216.056 69.1952C215.682 69.1794 215.121 69.0294 214.867 69.3584C214.613 69.6874 214.702 70.4428 214.66 70.8376Z" fill="black"/>
<path d="M212.557 72.701C211.95 72.5194 211.321 72.4194 210.687 72.4036C209.189 72.3667 207.589 72.8879 206.722 74.117C206.135 75.0032 205.92 76.0859 206.122 77.1306C206.332 78.1676 206.801 79.134 207.484 79.939C207.88 80.3613 208.231 80.8235 208.532 81.3181C208.946 82.1077 208.956 83.05 209.056 83.9501C209.318 86.0847 210.224 88.0955 210.585 90.2169C210.947 92.3383 210.632 94.8018 208.964 96.1547C208.684 96.381 208.346 96.6179 208.322 96.9785C208.283 97.5549 209.029 97.8023 209.603 97.8549C211.318 98.0208 213.078 98.1813 214.744 97.7365C215.435 97.5523 216.098 97.2654 216.8 97.1338C218.584 96.7995 220.375 97.4838 222.156 97.8155C223.447 98.0282 224.753 98.1347 226.061 98.1339C226.366 98.1611 226.674 98.1207 226.962 98.0155C227.104 97.9594 227.225 97.8593 227.307 97.7297C227.389 97.6 227.427 97.4476 227.417 97.2943C227.36 97.0954 227.254 96.9142 227.108 96.7679C226.207 95.6467 225.932 94.1623 225.686 92.7436L224.874 87.9665C224.432 85.4188 224.021 82.6526 225.22 80.3627C226.084 78.7177 227.671 77.5597 228.583 75.941C228.905 75.451 229.051 74.865 228.997 74.2802C228.86 73.4669 228.13 72.8852 227.381 72.5431C225.941 71.8963 224.308 71.8369 222.826 72.3773C222.852 73.5169 222.564 74.6697 222.376 75.7989L222.059 77.6412C221.898 78.7269 221.662 79.7999 221.352 80.8523C221.237 81.2724 221.044 81.667 220.783 82.0156C220.504 82.3281 220.162 82.5783 219.78 82.7499C218.953 83.1563 218.043 83.3644 217.122 83.3579C216.724 83.3661 216.327 83.3055 215.949 83.179C215.325 82.9526 214.82 82.4867 214.333 82.034C214.173 81.8973 214.029 81.7417 213.906 81.5708C213.778 81.351 213.68 81.1145 213.615 80.8681C213.403 80.2245 213.237 79.5666 213.118 78.8993C213.036 78.3887 213.013 77.8702 212.976 77.3544C212.861 75.8594 212.864 74.167 212.557 72.701Z" fill="#FBA403"/>
<path d="M210.981 102.903C210.981 102.903 210.36 111.173 214.241 112.578C218.123 113.984 214.707 105.711 214.707 105.711L213.466 103.214L210.981 102.903Z" fill="#FBBEBE"/>
<path d="M224.18 102.903C224.18 102.903 224.801 111.173 220.92 112.578C217.038 113.984 220.453 105.711 220.453 105.711L221.695 103.214L224.18 102.903Z" fill="#FBBEBE"/>
<path opacity="0.1" d="M207.565 75.283L206.324 77.3123C206.324 77.3123 207.411 84.3344 207.565 85.582C207.698 86.4805 207.906 87.3662 208.186 88.2298C208.186 88.2298 208.341 91.9751 208.341 93.378C208.341 94.7808 209.126 97.1233 209.126 97.1233C209.235 98.4499 209.499 99.7591 209.912 101.024C210.533 102.743 211.156 104.769 211.156 104.769C211.156 104.769 211.942 102.585 215.037 105.861C215.383 105.508 215.577 105.031 215.577 104.535C215.577 104.039 215.383 103.562 215.037 103.208C215.037 103.208 214.105 98.9973 214.105 96.8127C214.105 94.6282 212.397 84.1792 212.397 84.1792C212.397 84.1792 211.292 72.3168 207.565 75.283Z" fill="black"/>
<path d="M207.259 75.1278L206.018 77.1544C206.018 77.1544 207.104 84.1766 207.259 85.4268C207.393 86.3261 207.602 87.2126 207.882 88.0772C207.882 88.0772 208.045 91.8225 208.045 93.2306C208.045 94.6387 208.83 96.9759 208.83 96.9759C208.94 98.3025 209.204 99.6116 209.616 100.877C210.237 102.593 210.857 104.622 210.857 104.622C210.857 104.622 211.643 102.437 214.739 105.714C215.086 105.361 215.28 104.884 215.28 104.388C215.28 103.891 215.086 103.415 214.739 103.061C214.739 103.061 213.806 98.8499 213.806 96.6627C213.806 94.4755 212.099 84.0292 212.099 84.0292C212.099 84.0292 210.981 72.1747 207.259 75.1278Z" fill="#FBA403"/>
<path opacity="0.1" d="M227.75 74.0328L228.536 74.9619C228.536 74.9619 229.452 80.2759 227.433 86.9848L226.812 93.0726C226.812 93.0726 225.725 98.2208 225.568 99.4709C225.411 100.721 225.414 100.874 225.105 101.342C225.01 101.452 224.957 101.592 224.957 101.737C224.957 101.882 225.01 102.023 225.105 102.132L224.172 105.567C224.172 105.567 222.774 103.851 219.982 106.035C219.982 106.035 219.196 104.785 219.827 103.693C220.459 102.6 220.448 102.132 220.294 101.821C220.139 101.511 220.914 99.9473 220.914 99.6368C220.914 99.3262 222.001 92.1461 222.001 92.1461C222.001 92.1461 222.467 85.124 222.934 82.7841C223.219 81.3444 223.211 78.1334 223.164 75.8752C223.114 73.5248 225.945 72.2483 227.616 73.9038C227.661 73.938 227.705 73.9854 227.75 74.0328Z" fill="black"/>
<path d="M228.211 73.7223L228.997 74.6514C228.997 74.6514 229.911 79.9627 227.894 86.6743L227.273 92.7595C227.273 92.7595 226.186 97.9103 226.029 99.1578C225.872 100.405 225.875 100.563 225.563 101.029C225.47 101.139 225.418 101.279 225.418 101.424C225.418 101.569 225.47 101.709 225.563 101.819L224.633 105.24C224.633 105.24 223.235 103.524 220.443 105.709C220.443 105.709 219.657 104.461 220.288 103.369C220.92 102.277 220.909 101.808 220.752 101.495C220.595 101.182 221.375 99.6237 221.375 99.3105C221.375 98.9973 222.462 91.8198 222.462 91.8198C222.462 91.8198 222.928 84.7977 223.392 82.4579C223.855 80.118 223.549 73.0959 223.549 73.0959C223.549 73.0959 226.042 71.3851 228.211 73.7223Z" fill="#FBA403"/>
<path d="M217.814 71.5377C221.245 71.5377 224.026 68.7426 224.026 65.2946C224.026 61.8466 221.245 59.0515 217.814 59.0515C214.383 59.0515 211.601 61.8466 211.601 65.2946C211.601 68.7426 214.383 71.5377 217.814 71.5377Z" fill="#FBBEBE"/>
<path opacity="0.1" d="M221.053 55.9222C220.755 56.7599 220.209 57.4859 219.488 58.0033C218.768 58.5207 217.907 58.8046 217.022 58.8172C216.137 58.8298 215.269 58.5704 214.534 58.0738C213.799 57.5771 213.233 56.8668 212.911 56.038C215.333 55.0589 217.814 55.9327 217.814 55.9327C219.044 55.4931 220.124 55.5353 221.053 55.9222Z" fill="black"/>
<path d="M217.814 56.2458C217.814 56.2458 205.858 52.0346 208.807 72.4746C208.807 72.4746 211.447 74.1907 213.466 73.0984C213.466 73.0984 212.068 58.8857 217.502 59.5226C222.936 60.1596 222.007 72.7852 222.007 72.7852C222.007 72.7852 225.113 73.7222 226.042 71.9956C226.972 70.269 225.733 53.4348 217.814 56.2458Z" fill="#252525"/>
<path opacity="0.1" d="M217.502 58.5857C213.772 58.1567 213.262 64.7078 213.312 68.8637C213.359 64.7341 214.05 59.1253 217.502 59.5227C221.383 59.9675 222.017 66.537 222.064 70.2586C222.106 66.8449 221.734 59.0726 217.502 58.5857Z" fill="black"/>
<path opacity="0.1" d="M208.807 71.5377C208.537 69.744 208.382 67.9347 208.343 66.1211C208.33 68.2445 208.485 70.3655 208.807 72.4642C208.807 72.4642 211.447 74.1802 213.466 73.088C213.466 73.088 213.432 72.7511 213.395 72.1852C211.387 73.2275 208.807 71.5377 208.807 71.5377Z" fill="black"/>
<path opacity="0.1" d="M226.042 71.0691C225.176 72.6667 222.423 71.9666 222.048 71.8587C222.03 72.4377 222.007 72.7825 222.007 72.7825C222.007 72.7825 225.113 73.7195 226.042 71.9929C226.236 71.6376 226.336 70.6401 226.304 69.3057C226.278 70.1769 226.186 70.8033 226.042 71.0691Z" fill="black"/>
<path d="M110.07 28.2122C110.04 28.2122 110.025 28.1933 110.025 28.1555L110.048 20.3744C110.048 20.3442 110.063 20.3291 110.093 20.3291H112.381C112.789 20.3291 113.162 20.431 113.502 20.6349C113.849 20.8312 114.125 21.0993 114.329 21.4391C114.533 21.7713 114.635 22.1489 114.635 22.5717C114.635 22.8511 114.593 23.104 114.51 23.3306C114.427 23.5495 114.329 23.7383 114.216 23.8969C114.102 24.0479 114 24.1612 113.91 24.2367C114.318 24.6897 114.521 25.222 114.521 25.8337L114.533 28.1555C114.533 28.1933 114.514 28.2122 114.476 28.2122H113.196C113.166 28.2122 113.151 28.2008 113.151 28.1782V25.8337C113.151 25.5618 113.053 25.3278 112.857 25.1314C112.668 24.9276 112.434 24.8256 112.154 24.8256H111.407L111.395 28.1555C111.395 28.1933 111.38 28.2122 111.35 28.2122H110.07ZM111.407 23.4665H112.381C112.615 23.4665 112.823 23.3796 113.004 23.206C113.185 23.0323 113.276 22.8209 113.276 22.5717C113.276 22.3301 113.185 22.1224 113.004 21.9488C112.83 21.7751 112.622 21.6883 112.381 21.6883H111.407V23.4665Z" fill="#FBA403"/>
<path d="M115.546 28.2122C115.508 28.2122 115.489 28.1933 115.489 28.1555L115.5 20.3744C115.5 20.3442 115.515 20.3291 115.546 20.3291H116.814C116.844 20.3291 116.859 20.3442 116.859 20.3744L116.871 28.1555C116.871 28.1933 116.856 28.2122 116.825 28.2122H115.546Z" fill="#FBA403"/>
<path d="M117.924 28.2122C117.886 28.2122 117.867 28.1933 117.867 28.1555L117.89 20.3744C117.89 20.3442 117.905 20.3291 117.935 20.3291L120.053 20.3178C120.468 20.3102 120.846 20.4084 121.186 20.6123C121.533 20.8161 121.809 21.0917 122.012 21.4391C122.216 21.7789 122.318 22.1564 122.318 22.5717V25.8223C122.318 26.2603 122.213 26.6605 122.001 27.0229C121.79 27.3778 121.507 27.661 121.152 27.8724C120.797 28.0838 120.397 28.1933 119.951 28.2008L117.924 28.2122ZM119.249 26.819H119.951C120.23 26.819 120.465 26.7209 120.653 26.5246C120.85 26.3282 120.948 26.0942 120.948 25.8223V22.5604C120.948 22.3188 120.857 22.1111 120.676 21.9374C120.502 21.7562 120.295 21.6694 120.053 21.6769L119.26 21.6883L119.249 26.819Z" fill="#FBA403"/>
<path d="M123.255 28.2122C123.224 28.2122 123.209 28.1933 123.209 28.1555L123.221 20.3744C123.221 20.3442 123.236 20.3291 123.266 20.3291H126.902C126.932 20.3291 126.947 20.348 126.947 20.3857V21.6543C126.947 21.6845 126.932 21.6996 126.902 21.6996H124.58V23.4665H126.902C126.932 23.4665 126.947 23.4816 126.947 23.5118L126.958 24.7916C126.958 24.8218 126.943 24.837 126.913 24.837H124.58V26.819H126.913C126.943 26.819 126.958 26.8379 126.958 26.8757C126.958 26.9134 126.958 28.1669 126.958 28.1669C126.958 28.1971 126.943 28.2122 126.913 28.2122C126.883 28.2122 123.255 28.2122 123.255 28.2122Z" fill="#FBA403"/>
<path d="M117.257 17.2748L117.261 17.1585C117.263 17.0856 117.27 17.0057 117.281 16.9191L117.309 16.7173C117.314 16.6694 117.32 16.6261 117.326 16.5874C117.217 16.7059 117.13 16.7983 117.064 16.8644L116.867 17.0559C116.427 17.4675 116.165 17.6732 116.081 17.6732C115.957 17.6732 115.826 17.6465 115.689 17.5929C115.615 17.5632 115.573 17.5324 115.563 17.5005C115.547 17.4606 115.539 17.4065 115.539 17.3381C115.539 17.2685 115.541 17.2047 115.546 17.1465C115.55 17.0884 115.556 17.0308 115.563 16.9738C115.569 16.9157 115.576 16.8604 115.583 16.808C115.591 16.7544 115.597 16.7076 115.602 16.6677C115.613 16.5777 115.616 16.5326 115.609 16.5326L114.973 17.3141C114.673 17.6664 114.502 17.8614 114.461 17.899C114.374 17.9788 114.277 18.0187 114.171 18.0187C114.118 18.0187 114.075 18.0056 114.041 17.9793C114.006 17.9531 113.989 17.9206 113.989 17.8819C113.989 17.8043 114.022 17.7234 114.087 17.639L115.605 15.7084L115.783 15.4946C115.995 15.245 116.134 15.1201 116.2 15.1201C116.293 15.1201 116.381 15.1435 116.464 15.1902C116.538 15.2313 116.58 15.2712 116.59 15.3099C116.595 15.3248 116.585 15.3937 116.561 15.5169L116.501 15.8401C116.434 16.2003 116.401 16.4329 116.401 16.5378C116.401 16.6415 116.413 16.6934 116.436 16.6934C116.514 16.6934 116.663 16.5663 116.885 16.312L117.439 15.6485C117.561 15.5083 117.642 15.4285 117.681 15.4091C117.693 15.4034 117.709 15.4006 117.731 15.4006C117.753 15.4006 117.777 15.4034 117.803 15.4091C117.83 15.4148 117.858 15.4222 117.885 15.4313C117.913 15.4405 117.941 15.4513 117.967 15.4638C117.993 15.4764 118.017 15.4895 118.037 15.5032C118.082 15.5328 118.103 15.5573 118.102 15.5767C118.102 15.5949 118.098 15.6354 118.088 15.6981C118.079 15.7597 118.068 15.8349 118.054 15.9238C117.96 16.5133 117.91 16.8553 117.905 16.9499C117.902 17.0445 117.912 17.1038 117.935 17.1277C117.958 17.1517 117.993 17.1636 118.039 17.1636C118.122 17.1636 118.243 17.1141 118.401 17.0149C118.509 16.9476 118.597 16.914 118.666 16.914C118.737 16.914 118.772 16.9476 118.772 17.0149C118.772 17.0844 118.735 17.1688 118.66 17.268C118.551 17.4116 118.389 17.5416 118.174 17.6579C117.993 17.7548 117.82 17.8032 117.657 17.8032C117.391 17.8032 117.257 17.6271 117.257 17.2748Z" fill="#FBA403"/>
<path d="M119.436 16.9636C119.436 17.016 119.471 17.0422 119.54 17.0422C119.682 17.0422 119.922 16.8661 120.262 16.5138L120.428 16.3462C120.541 16.2356 120.615 16.1804 120.652 16.1804C120.688 16.1804 120.721 16.1866 120.749 16.1992C120.778 16.2117 120.803 16.2277 120.825 16.2471C120.869 16.287 120.891 16.3297 120.891 16.3753C120.891 16.4198 120.886 16.4694 120.876 16.5241C120.867 16.5777 120.852 16.6381 120.831 16.7053C120.794 16.8308 120.726 16.9989 120.628 17.2098L120.558 17.3603L120.848 17.097L121.444 16.5874C121.504 16.5418 121.554 16.519 121.594 16.519C121.681 16.519 121.724 16.5606 121.724 16.6438C121.724 16.7293 121.668 16.8393 121.556 16.9738C121.522 17.016 121.485 17.0553 121.445 17.0918L121.042 17.4424L120.255 18.1076C120.186 18.168 120.133 18.2159 120.098 18.2512C120.056 18.3196 120.022 18.3704 119.999 18.4034C119.976 18.4376 119.953 18.4736 119.93 18.5112C119.907 18.5499 119.885 18.583 119.863 18.6104C119.817 18.6696 119.77 18.6993 119.723 18.6993C119.674 18.6993 119.627 18.6793 119.581 18.6394C119.497 18.5653 119.455 18.4992 119.455 18.4411C119.455 18.3829 119.471 18.3151 119.503 18.2376C119.535 18.1612 119.576 18.0734 119.627 17.9742L119.99 17.3056C119.816 17.4629 119.679 17.5672 119.58 17.6185C119.48 17.6687 119.397 17.7017 119.328 17.7177C119.261 17.7348 119.189 17.7434 119.113 17.7434C119.037 17.7434 118.971 17.7274 118.914 17.6955C118.857 17.6647 118.81 17.6231 118.772 17.5706C118.699 17.4669 118.663 17.3318 118.663 17.1654C118.663 16.9886 118.707 16.8142 118.796 16.6421C118.882 16.4733 118.995 16.3377 119.135 16.2351C119.283 16.1256 119.435 16.0709 119.592 16.0709C119.748 16.0709 119.826 16.1319 119.826 16.2539C119.826 16.3303 119.761 16.4437 119.631 16.5942C119.501 16.7435 119.436 16.8667 119.436 16.9636Z" fill="#FBA403"/>
<rect x="120.107" y="22.6431" width="0.849042" height="0.812554" fill="#FBA403"/>
<rect x="119.258" y="23.4556" width="0.849042" height="0.812554" fill="#FBA403"/>
<rect x="120.107" y="24.2612" width="0.849042" height="0.812554" fill="#FBA403"/>
<rect x="119.258" y="25.074" width="0.849042" height="0.812554" fill="#FBA403"/>
<path fill-rule="evenodd" clip-rule="evenodd" d="M108.215 16.8027C107.013 16.8027 105.934 17.541 105.499 18.6614L102.348 26.7799C101.607 28.6889 103.016 30.7462 105.064 30.7462H131.937C133.985 30.7462 135.393 28.6889 134.652 26.7799L131.501 18.6614C131.066 17.541 129.988 16.8027 128.786 16.8027H123.828V16.1555H128.786C130.255 16.1555 131.573 17.0578 132.104 18.4272L135.255 26.5457C136.161 28.8789 134.44 31.3934 131.937 31.3934H105.064C102.561 31.3934 100.839 28.8789 101.745 26.5457L104.896 18.4272C105.428 17.0578 106.746 16.1555 108.215 16.1555H112.546V16.8027H108.215Z" fill="#FBA403"/>
<path d="M118.5 34.3372V31.2561" stroke="#FBA403"/>
</g>
<defs>
<clipPath id="clip0_1_1691">
<rect width="271" height="186" fill="white" transform="translate(0 0.229248)"/>
</clipPath>
</defs>
</svg>
