<svg width="271" height="187" fill="none" xmlns="http://www.w3.org/2000/svg"><g clip-path="url('#clip0_14_354')"><path d="M171.408 52.274h-33.615v-7.306c0-.464-.183-.908-.509-1.236a1.735 1.735 0 0 0-1.23-.512h-9.871v-7.783a1.1 1.1 0 0 0-1.095-1.1h-12.715c-.29 0-.569.116-.774.322a1.104 1.104 0 0 0-.321.778v7.786H99.674c-.462 0-.904.184-1.23.512-.326.327-.51.772-.51 1.235v7.307H65.882a.353.353 0 0 0-.351.355v96.992c0 .093.037.183.102.25a.356.356 0 0 0 .249.105h21.303a.355.355 0 0 0 .353-.355v-13.05a.357.357 0 0 1 .354-.355h8.999a.356.356 0 0 1 .353.355v13.05a.357.357 0 0 0 .351.355h42.095a.357.357 0 0 0 .354-.355v-13.05c0-.094.037-.184.102-.25a.349.349 0 0 1 .249-.105h8.998a.352.352 0 0 1 .354.355v13.05a.359.359 0 0 0 .354.355h21.302a.36.36 0 0 0 .354-.355V52.63a.357.357 0 0 0-.348-.355Zm-87.684 79.413a.353.353 0 0 1-.351.352H70.215a.33.33 0 0 1-.135-.026.355.355 0 0 1-.219-.326v-4.504a.358.358 0 0 1 .219-.328.35.35 0 0 1 .135-.027h13.166a.352.352 0 0 1 .35.355l-.007 4.504Zm0-11.671a.354.354 0 0 1-.351.356H70.215a.352.352 0 0 1-.353-.356v-4.514a.354.354 0 0 1 .353-.355h13.166a.347.347 0 0 1 .325.22.353.353 0 0 1 .026.135l-.008 4.514Zm0-11.667a.352.352 0 0 1-.35.355H70.214a.35.35 0 0 1-.25-.104.356.356 0 0 1-.103-.251v-4.517a.358.358 0 0 1 .218-.328.35.35 0 0 1 .135-.027h13.166a.352.352 0 0 1 .35.355l-.007 4.517Zm0-11.67a.355.355 0 0 1-.216.328.351.351 0 0 1-.135.027H70.215a.351.351 0 0 1-.353-.356v-4.5a.354.354 0 0 1 .217-.33.351.351 0 0 1 .136-.026h13.166a.35.35 0 0 1 .325.22c.017.043.026.09.026.136l-.008 4.5Zm0-11.668a.356.356 0 0 1-.351.355H70.215a.35.35 0 0 1-.327-.22.356.356 0 0 1-.026-.135v-4.517a.354.354 0 0 1 .353-.352h13.166a.35.35 0 0 1 .35.352l-.007 4.517Zm0-11.668a.353.353 0 0 1-.351.353H70.215a.348.348 0 0 1-.326-.217.354.354 0 0 1-.027-.136v-4.516a.356.356 0 0 1 .353-.356h13.166a.352.352 0 0 1 .35.356l-.007 4.516Zm0-11.67a.355.355 0 0 1-.216.328.35.35 0 0 1-.135.027H70.215a.35.35 0 0 1-.353-.355v-4.5a.354.354 0 0 1 .353-.356h13.166a.35.35 0 0 1 .325.22c.017.043.026.089.026.135l-.008 4.501Zm31.195 70.011a.35.35 0 0 1-.219.326.35.35 0 0 1-.135.027h-13.158a.354.354 0 0 1-.353-.353v-4.501a.354.354 0 0 1 .353-.355h13.158a.358.358 0 0 1 .354.355v4.501Zm0-11.67a.362.362 0 0 1-.218.329.37.37 0 0 1-.136.026h-13.158a.354.354 0 0 1-.353-.355v-4.512c0-.094.037-.184.103-.251a.358.358 0 0 1 .25-.104h13.158a.358.358 0 0 1 .328.219c.017.043.026.09.026.136v4.512Zm0-11.668a.351.351 0 0 1-.219.328.343.343 0 0 1-.135.027h-13.158a.354.354 0 0 1-.353-.355v-4.514a.354.354 0 0 1 .353-.355h13.158a.358.358 0 0 1 .354.355v4.514Zm0-11.67a.357.357 0 0 1-.354.355h-13.158a.355.355 0 0 1-.353-.355v-4.498a.355.355 0 0 1 .353-.355h13.158a.35.35 0 0 1 .354.355v4.498Zm0-11.668a.353.353 0 0 1-.219.329.346.346 0 0 1-.135.026h-13.158a.355.355 0 0 1-.353-.355v-4.514a.354.354 0 0 1 .353-.352h13.158a.353.353 0 0 1 .354.352v4.514Zm0-11.667a.35.35 0 0 1-.354.352h-13.158a.353.353 0 0 1-.353-.352v-4.514a.356.356 0 0 1 .353-.356h13.158a.344.344 0 0 1 .25.105.357.357 0 0 1 .104.25v4.515Zm0-11.67a.358.358 0 0 1-.218.329.349.349 0 0 1-.136.026h-13.158a.355.355 0 0 1-.353-.356v-4.498a.355.355 0 0 1 .353-.355h13.158a.349.349 0 0 1 .328.219c.017.043.026.09.026.136v4.498Zm21.316 70.01a.351.351 0 0 1-.354.353h-13.158a.353.353 0 0 1-.353-.353v-4.498a.354.354 0 0 1 .353-.355h13.158a.35.35 0 0 1 .25.104.358.358 0 0 1 .104.251v4.498Zm0-11.67a.351.351 0 0 1-.027.136.358.358 0 0 1-.327.219h-13.158a.354.354 0 0 1-.353-.355v-4.509c0-.094.037-.184.103-.251a.358.358 0 0 1 .25-.104h13.158a.358.358 0 0 1 .327.219c.018.043.027.09.027.136v4.509Zm0-11.668a.354.354 0 0 1-.354.356h-13.158a.359.359 0 0 1-.353-.356v-4.511a.354.354 0 0 1 .353-.355h13.158a.35.35 0 0 1 .25.104.358.358 0 0 1 .104.251v4.511Zm0-11.67a.355.355 0 0 1-.354.355h-13.158a.355.355 0 0 1-.353-.355v-4.495a.355.355 0 0 1 .353-.355h13.158a.35.35 0 0 1 .354.355v4.495Zm0-11.667a.358.358 0 0 1-.354.355h-13.158a.355.355 0 0 1-.353-.355v-4.512a.354.354 0 0 1 .353-.352h13.158a.353.353 0 0 1 .354.352v4.512Zm0-11.668a.35.35 0 0 1-.219.327.35.35 0 0 1-.135.026h-13.158a.352.352 0 0 1-.353-.353v-4.511a.356.356 0 0 1 .353-.356h13.158a.358.358 0 0 1 .354.355v4.512Zm0-11.67a.355.355 0 0 1-.354.355h-13.158a.355.355 0 0 1-.353-.355v-4.496a.355.355 0 0 1 .353-.355h13.158a.349.349 0 0 1 .327.219c.018.043.027.09.027.136v4.496Zm31.194 70.011a.354.354 0 0 1-.353.352h-13.158a.331.331 0 0 1-.135-.026.34.34 0 0 1-.191-.191.35.35 0 0 1-.027-.135v-4.496c0-.094.037-.184.103-.251a.35.35 0 0 1 .25-.104h13.158a.355.355 0 0 1 .353.355v4.496Zm0-11.671a.354.354 0 0 1-.353.356h-13.158a.355.355 0 0 1-.327-.219.34.34 0 0 1-.026-.137v-4.506a.336.336 0 0 1 .026-.136.343.343 0 0 1 .191-.193.373.373 0 0 1 .136-.026h13.158a.354.354 0 0 1 .353.355v4.506Zm0-11.667a.354.354 0 0 1-.353.355h-13.158a.35.35 0 0 1-.25-.104.357.357 0 0 1-.103-.251v-4.509c0-.094.037-.184.103-.251a.35.35 0 0 1 .25-.104h13.158a.355.355 0 0 1 .353.355v4.509Zm0-11.67a.352.352 0 0 1-.353.355h-13.158a.352.352 0 0 1-.348-.348v-4.5a.359.359 0 0 1 .218-.329.35.35 0 0 1 .135-.027h13.158a.358.358 0 0 1 .354.355l-.006 4.493Zm0-11.668a.356.356 0 0 1-.353.355h-13.158a.352.352 0 0 1-.353-.355v-4.509a.35.35 0 0 1 .218-.326.353.353 0 0 1 .135-.026h13.158a.353.353 0 0 1 .353.352v4.509Zm0-11.668a.354.354 0 0 1-.353.353h-13.158a.349.349 0 0 1-.353-.353v-4.508a.351.351 0 0 1 .353-.355h13.158a.356.356 0 0 1 .353.355v4.508Zm0-11.67a.357.357 0 0 1-.353.355h-13.158a.352.352 0 0 1-.348-.347v-4.5a.357.357 0 0 1 .353-.355h13.158c.094-.001.184.036.25.103a.358.358 0 0 1 .104.251l-.006 4.493ZM69.966 11.873l-4.064 2.59 2.467-4.511a4.008 4.008 0 0 0-2.457-.882h-.065a4.715 4.715 0 0 1-.844-.063l-1.377.876.59-1.079a4.89 4.89 0 0 1-2.41-1.842L59.34 8.54l1.556-2.845c-1.44-1.74-3.384-2.806-5.524-2.806-2.564 0-4.847 1.532-6.322 3.92a4.724 4.724 0 0 1-1.79 1.701 4.695 4.695 0 0 1-2.4.562h-.136c-2.832 0-5.126 3.226-5.126 7.203 0 3.977 2.305 7.207 5.136 7.207a3.839 3.839 0 0 0 1.784-.45 7.36 7.36 0 0 1 6.204-.121 6.432 6.432 0 0 0 5.275 0 7.361 7.361 0 0 1 6.146.12 3.84 3.84 0 0 0 1.768.45c2.831 0 5.125-3.226 5.125-7.206a9.17 9.17 0 0 0-1.07-4.403Z" fill="#F2F2F2"/><path opacity=".03" d="M62.306 22.414a7.532 7.532 0 0 0-4.392.48 6.44 6.44 0 0 1-5.272 0 7.374 7.374 0 0 0-6.205.12 3.81 3.81 0 0 1-1.786.45c-2.514 0-4.607-2.545-5.041-5.903.502-.369.93-.832 1.257-1.363 1.474-2.388 3.758-3.92 6.322-3.92s4.819 1.514 6.286 3.877a4.85 4.85 0 0 0 1.786 1.706c.732.404 1.556.61 2.39.6h.066c2.012-.013 3.745 1.6 4.589 3.953Z" fill="#000"/><path d="m201.37 4.712-2.032 1.292 1.231-2.25a2.004 2.004 0 0 0-1.226-.44h-.031a2.244 2.244 0 0 1-.422-.032l-.686.44.293-.526a2.466 2.466 0 0 1-1.202-.916l-1.228.79.786-1.42A3.597 3.597 0 0 0 194.1.23c-1.278 0-2.417.765-3.143 1.955a2.36 2.36 0 0 1-2.095 1.129h-.068c-1.412 0-2.556 1.608-2.556 3.593 0 1.984 1.144 3.592 2.556 3.592.31 0 .616-.078.89-.224a3.676 3.676 0 0 1 3.093-.06 3.22 3.22 0 0 0 2.633 0 3.673 3.673 0 0 1 3.066.06c.272.143.574.218.88.219 1.412 0 2.556-1.608 2.556-3.593a4.58 4.58 0 0 0-.542-2.19Z" fill="#F2F2F2"/><path opacity=".03" d="M197.549 9.968a3.785 3.785 0 0 0-2.192.24c-.412.183-.858.278-1.309.278a3.238 3.238 0 0 1-1.31-.284 3.675 3.675 0 0 0-3.096.06 1.897 1.897 0 0 1-.89.224c-1.254 0-2.297-1.269-2.514-2.945.251-.184.464-.414.628-.68.734-1.189 1.873-1.955 3.143-1.955 1.27 0 2.404.756 3.143 1.935a2.42 2.42 0 0 0 2.095 1.15h.034c.982 0 1.847.805 2.268 1.977Z" fill="#000"/><path d="m170.556 19.01-2.383 1.52 1.446-2.633a2.353 2.353 0 0 0-1.441-.526h-.039a2.812 2.812 0 0 1-.495-.037l-.807.526.346-.634a2.884 2.884 0 0 1-1.414-1.076l-1.446.92.914-1.668a4.225 4.225 0 0 0-3.239-1.648c-1.504 0-2.845.9-3.709 2.3a2.755 2.755 0 0 1-2.451 1.316h-.081c-1.661 0-3.004 1.893-3.004 4.212s1.343 4.224 3.004 4.224a2.23 2.23 0 0 0 1.047-.263 4.32 4.32 0 0 1 3.638-.071 3.788 3.788 0 0 0 3.093 0 4.325 4.325 0 0 1 3.606.071c.323.171.683.261 1.048.263 1.66 0 3.006-1.89 3.006-4.224a5.375 5.375 0 0 0-.639-2.572Z" fill="#F2F2F2"/><path opacity=".03" d="M157.839 34.564a4.432 4.432 0 0 0-2.577.281 3.789 3.789 0 0 1-3.093 0 4.323 4.323 0 0 0-3.638.071 2.245 2.245 0 0 1-1.048.264c-1.474 0-2.703-1.493-2.957-3.462a2.81 2.81 0 0 0 .736-.79c.865-1.4 2.206-2.297 3.709-2.297 1.503 0 2.828.887 3.693 2.271a2.828 2.828 0 0 0 2.448 1.353h.029c1.184-.018 2.203.93 2.698 2.309Z" fill="#000"/><path d="M248.084 150.042c0 .453 0 .906-.029 1.353a32.12 32.12 0 0 1-.623 5.182c-1.721 8.452-6.689 15.021-12.93 16.961a12.856 12.856 0 0 1-3.834.587c-9.62 0-17.417-10.791-17.417-24.083 0-13.291 7.797-24.083 17.417-24.083 9.022 0 16.444 9.491 17.327 21.649.06.8.089 1.613.089 2.434Z" fill="#333"/><path opacity=".1" d="M248.055 151.398a32.147 32.147 0 0 1-.623 5.182c-1.721 8.451-6.689 15.021-12.93 16.961-4.832-2.235-8.418-10.61-8.418-20.601 0-11.702 4.924-21.188 11-21.188 5.099 0 9.389 6.691 10.633 15.769.173 1.245.286 2.545.338 3.877Z" fill="#000"/><path d="M160.61 96.744s47.141-9.738 72.022-.79c0 0 3.666 1.843 0 5.002 0 0 3.467 3.684-2.588 5l-24.055 1.487-45.379-4.645v-6.054Z" fill="#2F2E30"/><path d="m214.823 112.536-3.143-6.316s1.377-6.391-9.821-8.27c-.621-2.788-3.434-4.89-6.81-4.89-3.294 0-6.05 2-6.762 4.684-1.608.14-3.321.33-5.154.58l-2.562 13.802-.319-.643s1.626-7.548-13.032-8.651a5.5 5.5 0 0 0 1.247-3.456c0-3.345-3.109-6.053-6.941-6.053-3.831 0-6.94 2.708-6.94 6.053a5.54 5.54 0 0 0 1.456 3.706c-1.371.132-2.816.3-4.337.506l-2.881 15.528 13.357 1.843 21.214-3.159-1.878-3.777 12.092 1.669 21.214-3.156Z" fill="#6C6C6C"/><path d="M169.771 98.555s-2.095-11.812 7.595-12.076c9.69-.263 6.547 17.108 6.547 17.108s7.333 1.58 7.857 4.475c.524 2.895-25.404 3.685-25.404 3.685l3.405-13.192Z" fill="#8F8F8F"/><path d="M152.753 160.965c0 13.949-10.319 25.267-23.048 25.267-12.728 0-23.047-11.318-23.047-25.267 0-13.95 10.448-27.505 23.178-27.505 12.731 0 22.917 13.55 22.917 27.505Z" fill="#333"/><path opacity=".1" d="M129.705 183.334c10.125 0 18.333-9.544 18.333-21.316 0-11.773-8.208-21.317-18.333-21.317-10.125 0-18.332 9.544-18.332 21.317 0 11.772 8.207 21.316 18.332 21.316Z" fill="#000"/><path d="M28.35 183.861c12.73 0 23.048-11.313 23.048-25.267 0-13.955-10.319-25.268-23.047-25.268-12.729 0-23.048 11.313-23.048 25.268 0 13.954 10.319 25.267 23.048 25.267Z" fill="#303030"/><path d="M67.635 98.323s-10.738.527-10.214 6.317c.524 5.791 9.167 1.579 9.167 1.579l1.047-7.895Z" fill="#373737"/><path d="m156.974 107.97 4.421-29.65s1.048-3.684-13.095-3.684c0 0-45.308-2.896-56.832 1.842 0 0-13.357 5-31.952 30.794 0 0 95.625 2.277 97.458.698Z" fill="#FBA403"/><path d="M153.417 78.342a2 2 0 0 1 1.94 2.547l-8.104 28.489-5.092-.124-24.094-.589-53.74-1.316c-.13-2.233 19.624-22.274 24.649-27.334a3.967 3.967 0 0 1 2.788-1.17l61.653-.503Z" fill="#4F4F4F"/><path opacity=".2" d="m118.075 108.664 2.194-8.527s-2.095-11.815 7.595-12.078c9.691-.264 6.548 17.108 6.548 17.108s6.678 1.439 7.742 4.087l-24.079-.59Z" fill="#888"/><path d="M248.215 148.2c-1.572-15.266-11.393-18.556-11.393-18.556-9.428-.526-15.714 35.532-15.714 35.532l-72.546 6.58s2.488-30.663-15.059-35.664c-17.547-5-22.13 30.926-22.916 35.927-.786 5.001-105.807-.526-108.688-2.632C-.982 167.281.065 147.015.85 145.436c.786-1.579 2.881-8.686 2.881-8.686 0-1.695.807-3.837 1.477-5.324.472-1.053.88-1.782.88-1.782 2.276-12.97 14.093-16.11 14.886-16.318h.042c3.143-3.159 32.214-5.264 32.214-5.264l11-2.106 89.43 1.766 3.806.077 45.465-2.198 30.747-1.487c7.072 0 10.738 17.897 10.738 17.897 6.548 15.792 3.798 26.189 3.798 26.189Z" fill="#FBA403"/><path opacity=".1" d="M100.778 132.699c6.908-2.794 11.097-8.582 9.356-12.928-1.74-4.346-8.751-5.605-15.659-2.811-6.907 2.793-11.097 8.581-9.356 12.927 1.74 4.347 8.75 5.605 15.659 2.812Z" fill="#000"/><path d="M100.254 131.645c6.908-2.794 11.097-8.582 9.357-12.928-1.74-4.346-8.751-5.605-15.659-2.811-6.908 2.793-11.097 8.581-9.357 12.927 1.74 4.347 8.751 5.605 15.659 2.812Z" fill="#F2F2F2"/><path opacity=".1" d="M21.5 113.863c-.134 2.895-1.425 6.548-3.748 10.067-3.738 5.664-8.863 8.999-12.019 8.022.471-1.052.88-1.781.88-1.781 2.276-12.971 14.093-16.111 14.886-16.308Z" fill="#000"/><path d="M20.714 113.336c-.134 2.896-1.425 6.549-3.748 10.068-3.738 5.664-8.863 8.999-12.019 8.022.472-1.053.88-1.782.88-1.782 2.276-12.97 14.093-16.11 14.887-16.308Z" fill="#F2F2F2"/><path d="M57.421 121.219h-20.69l-1.047-2.895h25.142l-3.405 2.895ZM52.707 142.538H18.66v10.002h34.047v-10.002Z" fill="#373737"/><path opacity=".1" d="M89.373 162.278c2.604 0 4.714-2.121 4.714-4.737 0-2.617-2.11-4.738-4.714-4.738-2.604 0-4.714 2.121-4.714 4.738 0 2.616 2.11 4.737 4.714 4.737Z" fill="#000"/><path d="M88.85 161.489c2.603 0 4.713-2.122 4.713-4.738 0-2.616-2.11-4.738-4.714-4.738-2.603 0-4.714 2.122-4.714 4.738 0 2.616 2.11 4.738 4.714 4.738Z" fill="#F2F2F2"/><path opacity=".1" d="M3.732 158.857c1.302 0 2.357-2.239 2.357-5.001 0-2.762-1.055-5.001-2.357-5.001-1.302 0-2.357 2.239-2.357 5.001 0 2.762 1.055 5.001 2.357 5.001Z" fill="#000"/><path d="M2.946 158.593c1.302 0 2.357-2.239 2.357-5 0-2.762-1.055-5.001-2.357-5.001-1.301 0-2.357 2.239-2.357 5.001 0 2.761 1.056 5 2.357 5Z" fill="#F2F2F2"/><path d="M210.632 132.539c-2.881 8.949-3.143 22.899-3.143 22.899l-1.047 3.685-51.07 5.79s.261-25.794 1.047-37.901c.553-8.541-1.498-15.771-2.758-19.29l3.806.077 45.465-2.198c7.596 5.351 10.285 18.903 7.7 26.938Z" fill="#D58A00"/><path d="M198.988 116.405a1.293 1.293 0 0 0-.921.486 1.287 1.287 0 0 0-.262 1.012.919.919 0 0 0 .523.687c.846.424 6.477-.527 8.612-.906.316-.051.606-.206.825-.441.219-.235.354-.536.385-.856.026-.374-.11-.692-.655-.692l-8.507.71Z" fill="#F2F2F2"/><path d="M153.538 106.746s1.31 5.79 7.595 3.948l2.096-8.159-4.191-2.369-5.5 6.58Z" fill="#373737"/><path d="M161.236 94.989c2.88-1.716 7.451-3.217 11.971.387a5.389 5.389 0 0 1 1.542 6.46c-1.479 3.217-4.991 6.71-13.191 2.528a5.303 5.303 0 0 1-1.996-1.774l-.042-.063a5.369 5.369 0 0 1 .137-6.092 5.313 5.313 0 0 1 1.579-1.446Z" fill="#373737"/><path d="M129.836 166.095c2.893 0 5.238-2.357 5.238-5.264 0-2.908-2.345-5.264-5.238-5.264-2.892 0-5.238 2.356-5.238 5.264 0 2.907 2.346 5.264 5.238 5.264ZM238.001 156.62c1.591 0 2.881-2.357 2.881-5.264 0-2.908-1.29-5.264-2.881-5.264-1.591 0-2.881 2.356-2.881 5.264 0 2.907 1.29 5.264 2.881 5.264Z" fill="#F2F2F2"/><path d="M129.967 144.644h-.523a3.15 3.15 0 0 0-3.143 3.158v2.895a3.15 3.15 0 0 0 3.143 3.159h.523a3.15 3.15 0 0 0 3.143-3.159v-2.895a3.15 3.15 0 0 0-3.143-3.158ZM238.001 134.511a1.816 1.816 0 0 1 1.296.539 1.85 1.85 0 0 1 .537 1.303v4.211c0 .838-.331 1.641-.921 2.234a3.134 3.134 0 0 1-2.222.925c-.486 0-.952-.194-1.296-.54a1.845 1.845 0 0 1-.537-1.303v-4.211c0-.838.331-1.641.92-2.233a3.134 3.134 0 0 1 2.223-.925ZM238.001 168.203a3.138 3.138 0 0 1-2.223-.925 3.17 3.17 0 0 1-.92-2.234v-2.895c0-.838.331-1.641.92-2.233a3.134 3.134 0 0 1 2.223-.925c1.728 0 1.571 1.421 1.571 3.158v2.895c-.003 1.737.162 3.159-1.571 3.159ZM230.144 146.618c.833 0 1.633.333 2.222.925.589.592.921 1.396.921 2.233v3.948a2.11 2.11 0 0 1-.614 1.489 2.09 2.09 0 0 1-1.482.617 3.136 3.136 0 0 1-2.222-.925 3.17 3.17 0 0 1-.92-2.234v-3.947c0-.559.22-1.094.613-1.489a2.09 2.09 0 0 1 1.482-.617ZM248.084 150.042c0 .453 0 .905-.029 1.353a32.134 32.134 0 0 1-.623 5.182 3.134 3.134 0 0 1-2.746-.88 3.166 3.166 0 0 1-.921-2.234v-2.895c0-.837.331-1.641.921-2.233a3.134 3.134 0 0 1 3.311-.728c.058.8.087 1.614.087 2.435ZM143.193 155.83h-.523a3.15 3.15 0 0 0-3.143 3.158v2.895a3.15 3.15 0 0 0 3.143 3.159h.523a3.15 3.15 0 0 0 3.143-3.159v-2.895a3.15 3.15 0 0 0-3.143-3.158ZM117.527 155.83h-.524a3.15 3.15 0 0 0-3.142 3.158v2.895a3.15 3.15 0 0 0 3.142 3.159h.524a3.15 3.15 0 0 0 3.143-3.159v-2.895a3.15 3.15 0 0 0-3.143-3.158ZM130.098 169.516h-.523a3.15 3.15 0 0 0-3.143 3.159v2.895a3.15 3.15 0 0 0 3.143 3.158h.523a3.15 3.15 0 0 0 3.143-3.158v-2.895a3.15 3.15 0 0 0-3.143-3.159Z" fill="#484848"/><path d="M221.307 54.45c-.001.503-.09 1-.262 1.472a4.36 4.36 0 0 1-1.565 2.081 4.333 4.333 0 0 1-4.954.07 4.362 4.362 0 0 1-1.623-2.035 4.31 4.31 0 0 1-.299-1.58c0-1.158.458-2.27 1.274-3.089a4.336 4.336 0 0 1 6.148 0 4.381 4.381 0 0 1 1.273 3.09l.008-.008Z" fill="#252525"/><path d="M213.487 55.54a4.387 4.387 0 0 1 .398-4.838c.355-.449.795-.823 1.294-1.102a4.285 4.285 0 0 1 1.571-.526 4.326 4.326 0 0 0-3.239 1.287 4.382 4.382 0 0 0 .27 6.409 4.342 4.342 0 0 0 3.336 1.008 4.327 4.327 0 0 1-2.106-.641 4.355 4.355 0 0 1-1.524-1.596Z" fill="#252525"/><path d="M223.172 60.536h-11.647v18.258h11.647V60.536Z" fill="#151515"/><path d="M193.117 126.778s-1.242 3.421-4.191 3.9c-2.949.479-4.651 1.243-4.651 1.243l6.987 4.524 3.727-.468s.464-4.838 2.017-5.93c1.553-1.093-3.889-3.269-3.889-3.269ZM243.59 126.778s1.241 3.421 4.19 3.9c2.949.479 4.657 1.251 4.657 1.251l-6.988 4.524-3.727-.468s-.463-4.838-2.016-5.93c-1.553-1.093 3.884-3.277 3.884-3.277Z" fill="#FBBEBE"/><path d="M209.585 96.505s-1.865.937-2.486 2.808c0 0-3.404 1.092-5.28 4.059 0 0-2.328 2.495-2.639 3.745-.312 1.25-3.882 8.749-3.882 8.749s-3.57 11.701-5.434 12.952c0 0 5.9-1.251 6.987 4.679 0 0 1.399 0 2.952-5.461 1.553-5.462 5.277-12.17 5.277-12.17s1.244-4.683 2.331-5.462c1.087-.779 2.794-4.369 4.348-3.435 1.553.935 11.801-.155 11.801-.155s6.055 2.808 6.209 4.682c.155 1.874 1.244 2.027 1.399 3.588.154 1.561 5.9 13.889 5.9 13.889s1.087 3.421 1.396 4.211c0 0 3.418-8.27 7.92-3.59 0 0-.154-3.122-1.553-5.001-1.398-1.879-7.454-16.542-7.454-16.542s-.62-2.184-1.241-2.808c-.621-.624-5.434-5.617-7.139-5.617 0 0-.933-2.342-2.02-2.653l-17.392-.468ZM195.61 134.892a7.53 7.53 0 0 1-7.394-1 14.754 14.754 0 0 0-3.297-1.919c-1.645-.668-3.617-1.165-4.217-.044-1.086 2.026 13.2 7.022 13.2 7.022s1.862-1.095 1.708-4.059ZM241.104 134.892a7.53 7.53 0 0 0 7.394-1 14.731 14.731 0 0 1 3.297-1.919c1.645-.668 3.617-1.165 4.216-.044 1.087 2.026-13.199 7.022-13.199 7.022s-1.862-1.095-1.708-4.059Z" fill="#696880"/><path d="M214.66 70.838c-.06.542-.235 1.129-.696 1.418-.378.237-.854.216-1.289.308a2.988 2.988 0 0 0-1.237.644c-.356.309-.635.698-.814 1.135a4.634 4.634 0 0 0-.193 2.777c.101.453.233.9.395 1.335.458 1.294 1.008 2.576 1.857 3.655a15.446 15.446 0 0 0 2.436 2.306c.552.453 1.123.916 1.804 1.13a5.57 5.57 0 0 0 1.417.186c.589.029 1.215.047 1.726-.247.786-.456 1.021-1.464 1.446-2.27.364-.686.903-1.265 1.241-1.965.239-.55.415-1.124.524-1.714l.725-3.24c.262-1.174.503-2.5-.157-3.508a.55.55 0 0 0-.194-.203.716.716 0 0 0-.395-.042 4.26 4.26 0 0 1-2.397-.55.96.96 0 0 1-.301-.237 1.195 1.195 0 0 1-.186-.555 5.906 5.906 0 0 0-.335-1.174.787.787 0 0 0-.228-.35.808.808 0 0 0-.366-.124 29.87 29.87 0 0 0-3.387-.358c-.374-.016-.935-.166-1.189.163-.254.33-.165 1.085-.207 1.48Z" fill="#FBBEBE"/><path opacity=".1" d="M214.66 70.838c-.06.542-.235 1.129-.696 1.418-.378.237-.854.216-1.289.308a2.988 2.988 0 0 0-1.237.644c-.356.309-.635.698-.814 1.135a4.634 4.634 0 0 0-.193 2.777c.101.453.233.9.395 1.335.458 1.294 1.008 2.576 1.857 3.655a15.446 15.446 0 0 0 2.436 2.306c.552.453 1.123.916 1.804 1.13a5.57 5.57 0 0 0 1.417.186c.589.029 1.215.047 1.726-.247.786-.456 1.021-1.464 1.446-2.27.364-.686.903-1.265 1.241-1.965.239-.55.415-1.124.524-1.714l.725-3.24c.262-1.174.503-2.5-.157-3.508a.55.55 0 0 0-.194-.203.716.716 0 0 0-.395-.042 4.26 4.26 0 0 1-2.397-.55.96.96 0 0 1-.301-.237 1.195 1.195 0 0 1-.186-.555 5.906 5.906 0 0 0-.335-1.174.787.787 0 0 0-.228-.35.808.808 0 0 0-.366-.124 29.87 29.87 0 0 0-3.387-.358c-.374-.016-.935-.166-1.189.163-.254.33-.165 1.085-.207 1.48Z" fill="#000"/><path d="M212.557 72.701a7.146 7.146 0 0 0-1.87-.297c-1.498-.037-3.098.484-3.965 1.713a4.062 4.062 0 0 0-.6 3.014 6.263 6.263 0 0 0 1.362 2.808 8.4 8.4 0 0 1 1.048 1.38c.414.789.424 1.731.524 2.631.261 2.135 1.168 4.145 1.529 6.267.361 2.121.047 4.585-1.621 5.938-.28.226-.618.463-.642.823-.039.577.707.824 1.281.877 1.715.166 3.475.326 5.141-.118.691-.185 1.354-.472 2.056-.603 1.783-.335 3.575.35 5.356.681a23.93 23.93 0 0 0 3.905.319c.305.027.613-.013.901-.118a.723.723 0 0 0 .455-.722 1.22 1.22 0 0 0-.309-.526c-.901-1.121-1.176-2.606-1.422-4.024l-.812-4.778c-.442-2.547-.854-5.313.346-7.603.864-1.645 2.451-2.803 3.363-4.422.322-.49.468-1.076.414-1.66-.137-.814-.867-1.396-1.616-1.738a6.052 6.052 0 0 0-4.555-.166c.026 1.14-.262 2.293-.45 3.422l-.317 1.842a23.632 23.632 0 0 1-.707 3.211c-.116.42-.308.815-.569 1.164a2.984 2.984 0 0 1-1.003.734 5.932 5.932 0 0 1-2.658.608 3.472 3.472 0 0 1-1.173-.179c-.624-.226-1.129-.692-1.616-1.145a2.635 2.635 0 0 1-.427-.463 2.833 2.833 0 0 1-.291-.703 14.339 14.339 0 0 1-.497-1.969c-.082-.51-.105-1.029-.142-1.545-.115-1.495-.112-3.187-.419-4.653Z" fill="#FBA403"/><path d="M210.981 102.903s-.621 8.27 3.26 9.675c3.882 1.406.466-6.867.466-6.867l-1.241-2.497-2.485-.311ZM224.18 102.903s.621 8.27-3.26 9.675c-3.882 1.406-.466-6.867-.466-6.867l1.241-2.497 2.485-.311Z" fill="#FBBEBE"/><path opacity=".1" d="m207.565 75.283-1.241 2.03s1.087 7.021 1.241 8.269c.133.899.341 1.784.621 2.648 0 0 .155 3.745.155 5.148 0 1.403.785 3.745.785 3.745.109 1.327.373 2.636.786 3.901a96.236 96.236 0 0 1 1.244 3.745s.786-2.184 3.881 1.092a1.895 1.895 0 0 0 0-2.653s-.932-4.21-.932-6.395c0-2.185-1.708-12.634-1.708-12.634s-1.105-11.862-4.832-8.896Z" fill="#000"/><path d="m207.259 75.128-1.241 2.026s1.086 7.023 1.241 8.273c.134.9.343 1.786.623 2.65 0 0 .163 3.746.163 5.154s.785 3.745.785 3.745c.11 1.326.374 2.636.786 3.901a91.847 91.847 0 0 1 1.241 3.745s.786-2.185 3.882 1.092a1.894 1.894 0 0 0 0-2.653s-.933-4.211-.933-6.398c0-2.188-1.707-12.634-1.707-12.634s-1.118-11.854-4.84-8.901Z" fill="#FBA403"/><path opacity=".1" d="m227.75 74.033.786.929s.916 5.314-1.103 12.023l-.621 6.088s-1.087 5.148-1.244 6.398c-.157 1.25-.154 1.403-.463 1.871a.605.605 0 0 0 0 .79l-.933 3.435s-1.398-1.716-4.19.468c0 0-.786-1.25-.154-2.342.631-1.093.62-1.561.466-1.872-.155-.31.62-1.874.62-2.184 0-.31 1.087-7.49 1.087-7.49s.466-7.023.933-9.363c.285-1.44.277-4.65.23-6.909-.05-2.35 2.781-3.627 4.452-1.971.045.034.089.081.134.129Z" fill="#000"/><path d="m228.211 73.722.786.93s.914 5.31-1.103 12.022l-.621 6.085s-1.087 5.151-1.244 6.399c-.157 1.247-.154 1.405-.466 1.871a.613.613 0 0 0 0 .79l-.93 3.421s-1.398-1.716-4.19.469c0 0-.786-1.248-.155-2.34.632-1.092.621-1.561.464-1.874-.157-.313.623-1.871.623-2.184 0-.314 1.087-7.491 1.087-7.491s.466-7.022.93-9.362.157-9.362.157-9.362 2.493-1.71 4.662.626Z" fill="#FBA403"/><path d="M217.814 71.538c3.43 0 6.212-2.795 6.212-6.243 0-3.448-2.782-6.244-6.212-6.244-3.431 0-6.213 2.796-6.213 6.244s2.782 6.243 6.213 6.243Z" fill="#FBBEBE"/><path opacity=".1" d="M221.053 55.922a4.36 4.36 0 0 1-1.565 2.081 4.332 4.332 0 0 1-4.954.07 4.363 4.363 0 0 1-1.623-2.035c2.422-.98 4.903-.105 4.903-.105 1.231-.44 2.31-.398 3.239-.01Z" fill="#000"/><path d="M217.814 56.246s-11.956-4.211-9.007 16.229c0 0 2.64 1.716 4.659.623 0 0-1.398-14.212 4.036-13.575 5.434.637 4.505 13.262 4.505 13.262s3.106.937 4.035-.79c.93-1.726-.309-18.56-8.228-15.75Z" fill="#252525"/><path opacity=".1" d="M217.502 58.586c-3.729-.43-4.24 6.122-4.19 10.278.047-4.13.738-9.739 4.19-9.341 3.881.444 4.515 7.014 4.562 10.736.042-3.414-.33-11.186-4.562-11.673ZM208.807 71.538a42.534 42.534 0 0 1-.464-5.417 40.203 40.203 0 0 0 .464 6.343s2.64 1.716 4.659.624c0 0-.034-.337-.071-.903-2.008 1.043-4.588-.647-4.588-.647ZM226.042 71.07c-.866 1.597-3.619.897-3.994.789-.018.579-.041.924-.041.924s3.106.936 4.035-.79c.194-.355.294-1.353.262-2.687-.026.87-.118 1.497-.262 1.763Z" fill="#000"/><path d="M110.07 28.212c-.03 0-.045-.019-.045-.056l.023-7.782c0-.03.015-.045.045-.045h2.288c.408 0 .781.102 1.121.306.347.196.623.464.827.804.204.332.306.71.306 1.133 0 .28-.042.532-.125.759a2.499 2.499 0 0 1-.294.566 2.109 2.109 0 0 1-.306.34c.408.453.611.985.611 1.597l.012 2.322c0 .037-.019.056-.057.056h-1.28c-.03 0-.045-.011-.045-.034v-2.344a.96.96 0 0 0-.294-.703.92.92 0 0 0-.703-.305h-.747l-.012 3.33c0 .037-.015.056-.045.056h-1.28Zm1.337-4.745h.974a.875.875 0 0 0 .623-.261.846.846 0 0 0 .272-.634.834.834 0 0 0-.272-.623.852.852 0 0 0-.623-.26h-.974v1.777ZM115.546 28.212c-.038 0-.057-.019-.057-.056l.011-7.782c0-.03.015-.045.046-.045h1.268c.03 0 .045.015.045.045l.012 7.782c0 .037-.015.056-.046.056h-1.279ZM117.924 28.212c-.038 0-.057-.019-.057-.056l.023-7.782c0-.03.015-.045.045-.045l2.118-.011c.415-.008.793.09 1.133.294.347.204.623.48.826.827.204.34.306.717.306 1.133v3.25c0 .438-.105.838-.317 1.2a2.382 2.382 0 0 1-2.05 1.178l-2.027.012Zm1.325-1.393h.702a.934.934 0 0 0 .702-.294.957.957 0 0 0 .295-.703V22.56a.834.834 0 0 0-.272-.623.796.796 0 0 0-.623-.26l-.793.011-.011 5.131ZM123.255 28.212c-.031 0-.046-.019-.046-.056l.012-7.782c0-.03.015-.045.045-.045h3.636c.03 0 .045.019.045.057v1.268c0 .03-.015.046-.045.046h-2.322v1.767h2.322c.03 0 .045.015.045.045l.011 1.28c0 .03-.015.045-.045.045h-2.333v1.982h2.333c.03 0 .045.019.045.057v1.29c0 .031-.015.046-.045.046h-3.658ZM117.257 17.275l.004-.116c.002-.073.009-.153.02-.24l.028-.202c.005-.048.011-.09.017-.13-.109.119-.196.211-.262.277l-.197.192c-.44.412-.702.617-.786.617-.124 0-.255-.026-.392-.08-.074-.03-.116-.06-.126-.093a.447.447 0 0 1-.024-.162 3.246 3.246 0 0 1 .024-.364 5.546 5.546 0 0 1 .039-.306c.011-.09.014-.135.007-.135l-.636.781c-.3.352-.471.547-.512.585a.42.42 0 0 1-.29.12.206.206 0 0 1-.13-.04.117.117 0 0 1-.052-.097c0-.078.033-.159.098-.243l1.518-1.93.178-.214c.212-.25.351-.375.417-.375a.53.53 0 0 1 .264.07c.074.041.116.081.126.12a.897.897 0 0 1-.029.207l-.06.323c-.067.36-.1.593-.1.698 0 .104.012.155.035.155.078 0 .227-.127.449-.381l.554-.664c.122-.14.203-.22.242-.239a.117.117 0 0 1 .05-.008c.022 0 .046.002.072.008a.734.734 0 0 1 .234.094c.045.03.066.054.065.074a.95.95 0 0 1-.014.121l-.034.226c-.094.59-.144.931-.149 1.026-.003.095.007.154.03.178.023.024.058.036.104.036.083 0 .204-.05.362-.15a.542.542 0 0 1 .265-.1c.071 0 .106.034.106.1 0 .07-.037.155-.112.254a1.484 1.484 0 0 1-.486.39 1.1 1.1 0 0 1-.517.145c-.266 0-.4-.176-.4-.528Z" fill="#FBA403"/><path d="M119.436 16.964c0 .052.035.078.104.078.142 0 .382-.176.722-.528l.166-.168c.113-.11.187-.166.224-.166.036 0 .069.007.097.02a.283.283 0 0 1 .076.047c.044.04.066.083.066.128a.834.834 0 0 1-.015.15 1.384 1.384 0 0 1-.045.18 3.915 3.915 0 0 1-.203.505l-.07.15.29-.263.596-.51c.06-.045.11-.068.15-.068.087 0 .13.042.13.125 0 .085-.056.195-.168.33a1.059 1.059 0 0 1-.111.118l-.403.35-.787.666c-.069.06-.122.108-.157.143-.042.069-.076.12-.099.152-.023.035-.046.07-.069.108a.867.867 0 0 1-.067.1c-.046.059-.093.088-.14.088a.215.215 0 0 1-.142-.06c-.084-.074-.126-.14-.126-.198 0-.058.016-.126.048-.203.032-.077.073-.165.124-.264l.363-.668a2.22 2.22 0 0 1-.41.313c-.1.05-.183.083-.252.099a.869.869 0 0 1-.215.025.419.419 0 0 1-.341-.173.689.689 0 0 1-.109-.405c0-.176.044-.35.133-.523a1.13 1.13 0 0 1 .339-.407.76.76 0 0 1 .457-.164c.156 0 .234.06.234.183 0 .076-.065.19-.195.34-.13.15-.195.273-.195.37ZM120.107 22.643h.849v.813h-.849zM119.258 23.456h.849v.813h-.849zM120.107 24.261h.849v.813h-.849zM119.258 25.074h.849v.813h-.849z" fill="#FBA403"/><path fill-rule="evenodd" clip-rule="evenodd" d="M108.215 16.803a2.914 2.914 0 0 0-2.716 1.858l-3.151 8.119c-.741 1.909.668 3.966 2.716 3.966h26.873c2.048 0 3.456-2.057 2.715-3.966l-3.151-8.119a2.912 2.912 0 0 0-2.715-1.858h-4.958v-.648h4.958c1.469 0 2.787.903 3.318 2.272l3.151 8.119c.906 2.333-.815 4.847-3.318 4.847h-26.873c-2.503 0-4.225-2.514-3.319-4.847l3.151-8.119a3.56 3.56 0 0 1 3.319-2.271h4.331v.647h-4.331Z" fill="#FBA403"/><path d="M118.5 34.337v-3.08" stroke="#FBA403"/></g><defs><clipPath id="clip0_14_354"><path fill="#fff" transform="translate(0 .23)" d="M0 0h271v186H0z"/></clipPath></defs></svg>