<svg width="20" height="20" viewBox="0 0 20 20" fill="none" xmlns="http://www.w3.org/2000/svg">
<path d="M10.5917 9.41168C10.436 9.25899 10.2265 9.17346 10.0084 9.17346C9.79026 9.17346 9.58083 9.25899 9.42506 9.41168L6.92506 11.8283C6.83862 11.9019 6.76813 11.9923 6.71791 12.0941C6.66769 12.1958 6.63881 12.3068 6.63304 12.4201C6.62726 12.5334 6.64472 12.6467 6.68433 12.7531C6.72395 12.8594 6.78489 12.9565 6.8634 13.0385C6.94192 13.1204 7.03636 13.1854 7.14091 13.2295C7.24547 13.2736 7.35794 13.2959 7.47142 13.2949C7.58489 13.294 7.69697 13.2698 7.80078 13.224C7.90458 13.1782 7.99792 13.1116 8.07506 13.0283L9.16672 11.97V16.67C9.16672 16.891 9.25452 17.103 9.4108 17.2593C9.56708 17.4155 9.77904 17.5033 10.0001 17.5033C10.2211 17.5033 10.433 17.4155 10.5893 17.2593C10.7456 17.103 10.8334 16.891 10.8334 16.67V12.0117L11.9084 13.095C12.0054 13.1932 12.1253 13.2657 12.2572 13.3062C12.3891 13.3466 12.5291 13.3537 12.6644 13.3268C12.7998 13.2999 12.9263 13.2398 13.0328 13.1519C13.1392 13.0641 13.2222 12.9512 13.2742 12.8233C13.3378 12.6704 13.3544 12.5019 13.3217 12.3395C13.2891 12.1771 13.2087 12.0282 13.0909 11.9117L10.5909 9.41168H10.5917Z" fill="#FEFEFE"/>
<path d="M14.725 5.83251C14.385 4.85006 13.7472 3.99803 12.9003 3.39498C12.0535 2.79193 11.0397 2.46786 10 2.46786C8.9604 2.46786 7.94662 2.79193 7.09976 3.39498C6.25289 3.99803 5.61507 4.85006 5.27504 5.83251C4.52633 5.93279 3.81897 6.23472 3.22862 6.70601C2.63827 7.17729 2.18715 7.80019 1.92351 8.50809C1.65987 9.21598 1.59363 9.98223 1.73187 10.7249C1.87012 11.4675 2.20766 12.1586 2.70837 12.7242C2.76885 12.8307 2.85208 12.9226 2.95213 12.9933C3.05217 13.064 3.16658 13.1118 3.28719 13.1332C3.40781 13.1547 3.53167 13.1493 3.64995 13.1174C3.76824 13.0855 3.87804 13.0279 3.97153 12.9488C4.06503 12.8696 4.13992 12.7708 4.19088 12.6594C4.24184 12.548 4.26761 12.4267 4.26635 12.3042C4.26509 12.1817 4.23684 12.061 4.18361 11.9507C4.13038 11.8403 4.05347 11.7431 3.95837 11.6658C3.63596 11.3054 3.42502 10.8592 3.35111 10.3813C3.27719 9.90334 3.34348 9.41425 3.54193 8.97324C3.74038 8.53224 4.06248 8.15826 4.4692 7.89662C4.87591 7.63499 5.34977 7.49693 5.83337 7.49918H5.9167C6.11166 7.50311 6.30182 7.43855 6.45408 7.31674C6.60635 7.19493 6.71108 7.02358 6.75004 6.83251C6.90305 6.07899 7.31185 5.40153 7.9072 4.91493C8.50254 4.42833 9.2478 4.1625 10.0167 4.1625C10.7856 4.1625 11.5309 4.42833 12.1262 4.91493C12.7215 5.40153 13.1304 6.07899 13.2834 6.83251C13.3223 7.02358 13.4271 7.19493 13.5793 7.31674C13.7316 7.43855 13.9217 7.50311 14.1167 7.49918H14.1667C14.6503 7.49693 15.1242 7.63499 15.5309 7.89662C15.9376 8.15826 16.2597 8.53224 16.4581 8.97324C16.6566 9.41425 16.7229 9.90334 16.649 10.3813C16.575 10.8592 16.3641 11.3054 16.0417 11.6658C15.9683 11.7482 15.912 11.8442 15.876 11.9485C15.84 12.0527 15.825 12.1631 15.832 12.2732C15.839 12.3833 15.8677 12.4908 15.9166 12.5897C15.9655 12.6886 16.0335 12.7768 16.1167 12.8492C16.2826 12.9948 16.4994 13.0688 16.7197 13.0547C16.94 13.0406 17.1457 12.9398 17.2917 12.7742C17.8063 12.2095 18.1558 11.5143 18.3019 10.7645C18.448 10.0146 18.3852 9.23903 18.1202 8.52249C17.8553 7.80595 17.3985 7.17604 16.7997 6.70163C16.2009 6.22721 15.4832 5.92655 14.725 5.83251Z" fill="#FEFEFE"/>
</svg>
