<svg width="20" height="20" viewBox="0 0 20 20" fill="none" xmlns="http://www.w3.org/2000/svg">
<path d="M10.5917 9.41168C10.4359 9.25899 10.2265 9.17346 10.0083 9.17346C9.7902 9.17346 9.58077 9.25899 9.425 9.41168L6.925 11.8283C6.83856 11.9019 6.76807 11.9923 6.71785 12.0941C6.66763 12.1958 6.63875 12.3068 6.63298 12.4201C6.6272 12.5334 6.64466 12.6467 6.68427 12.7531C6.72389 12.8594 6.78483 12.9565 6.86334 13.0385C6.94186 13.1204 7.0363 13.1854 7.14085 13.2295C7.24541 13.2736 7.35788 13.2959 7.47136 13.2949C7.58483 13.294 7.69691 13.2698 7.80072 13.224C7.90452 13.1782 7.99786 13.1116 8.075 13.0283L9.16666 11.97V16.67C9.16666 16.891 9.25446 17.103 9.41074 17.2593C9.56702 17.4155 9.77898 17.5033 10 17.5033C10.221 17.5033 10.433 17.4155 10.5893 17.2593C10.7455 17.103 10.8333 16.891 10.8333 16.67V12.0117L11.9083 13.095C12.0053 13.1932 12.1252 13.2657 12.2571 13.3062C12.3891 13.3466 12.529 13.3537 12.6644 13.3268C12.7997 13.2999 12.9263 13.2398 13.0327 13.1519C13.1391 13.0641 13.2221 12.9512 13.2742 12.8233C13.3378 12.6704 13.3543 12.5019 13.3217 12.3395C13.289 12.1771 13.2086 12.0282 13.0908 11.9117L10.5908 9.41168H10.5917Z" fill="#FEFEFE"/>
<path d="M14.725 5.83251C14.3849 4.85006 13.7471 3.99803 12.9003 3.39498C12.0534 2.79193 11.0396 2.46786 9.99997 2.46786C8.96034 2.46786 7.94656 2.79193 7.09969 3.39498C6.25283 3.99803 5.61501 4.85006 5.27497 5.83251C4.52627 5.93279 3.81891 6.23472 3.22856 6.70601C2.63821 7.17729 2.18709 7.80019 1.92345 8.50809C1.6598 9.21598 1.59357 9.98223 1.73181 10.7249C1.87006 11.4675 2.20759 12.1586 2.70831 12.7242C2.76879 12.8307 2.85202 12.9226 2.95206 12.9933C3.05211 13.064 3.16652 13.1118 3.28713 13.1332C3.40775 13.1547 3.53161 13.1493 3.64989 13.1174C3.76818 13.0855 3.87798 13.0279 3.97147 12.9488C4.06497 12.8696 4.13986 12.7708 4.19082 12.6594C4.24178 12.548 4.26754 12.4267 4.26629 12.3042C4.26503 12.1817 4.23678 12.061 4.18355 11.9507C4.13031 11.8403 4.05341 11.7431 3.95831 11.6658C3.6359 11.3054 3.42496 10.8592 3.35105 10.3813C3.27713 9.90334 3.34342 9.41425 3.54187 8.97324C3.74032 8.53224 4.06242 8.15826 4.46913 7.89662C4.87585 7.63499 5.34971 7.49693 5.83331 7.49918H5.91664C6.1116 7.50311 6.30176 7.43855 6.45402 7.31674C6.60629 7.19493 6.71102 7.02358 6.74997 6.83251C6.90298 6.07899 7.31179 5.40153 7.90714 4.91493C8.50248 4.42833 9.24774 4.1625 10.0166 4.1625C10.7855 4.1625 11.5308 4.42833 12.1261 4.91493C12.7215 5.40153 13.1303 6.07899 13.2833 6.83251C13.3223 7.02358 13.427 7.19493 13.5793 7.31674C13.7315 7.43855 13.9217 7.50311 14.1166 7.49918H14.1666C14.6502 7.49693 15.1241 7.63499 15.5308 7.89662C15.9375 8.15826 16.2596 8.53224 16.4581 8.97324C16.6565 9.41425 16.7228 9.90334 16.6489 10.3813C16.575 10.8592 16.364 11.3054 16.0416 11.6658C15.9682 11.7482 15.9119 11.8442 15.8759 11.9485C15.8399 12.0527 15.825 12.1631 15.8319 12.2732C15.8389 12.3833 15.8677 12.4908 15.9165 12.5897C15.9654 12.6886 16.0334 12.7768 16.1166 12.8492C16.2825 12.9948 16.4994 13.0688 16.7197 13.0547C16.9399 13.0406 17.1457 12.9398 17.2916 12.7742C17.8062 12.2095 18.1557 11.5143 18.3018 10.7645C18.448 10.0146 18.3851 9.23903 18.1202 8.52249C17.8552 7.80595 17.3984 7.17604 16.7996 6.70163C16.2008 6.22721 15.4831 5.92655 14.725 5.83251Z" fill="#FEFEFE"/>
</svg>
