<svg width="20" height="20" viewBox="0 0 20 20" fill="none" xmlns="http://www.w3.org/2000/svg">
<path d="M10.5916 9.41168C10.4358 9.25899 10.2264 9.17346 10.0083 9.17346C9.79014 9.17346 9.58071 9.25899 9.42494 9.41168L6.92494 11.8283C6.8385 11.9019 6.76801 11.9923 6.71779 12.0941C6.66757 12.1958 6.63869 12.3068 6.63291 12.4201C6.62714 12.5334 6.6446 12.6467 6.68421 12.7531C6.72383 12.8594 6.78476 12.9565 6.86328 13.0385C6.9418 13.1204 7.03623 13.1854 7.14079 13.2295C7.24535 13.2736 7.35782 13.2959 7.47129 13.2949C7.58477 13.294 7.69685 13.2698 7.80066 13.224C7.90446 13.1782 7.9978 13.1116 8.07494 13.0283L9.1666 11.97V16.67C9.1666 16.891 9.2544 17.103 9.41068 17.2593C9.56696 17.4155 9.77892 17.5033 9.99994 17.5033C10.2209 17.5033 10.4329 17.4155 10.5892 17.2593C10.7455 17.103 10.8333 16.891 10.8333 16.67V12.0117L11.9083 13.095C12.0053 13.1932 12.1251 13.2657 12.2571 13.3062C12.389 13.3466 12.5289 13.3537 12.6643 13.3268C12.7997 13.2999 12.9262 13.2398 13.0326 13.1519C13.1391 13.0641 13.222 12.9512 13.2741 12.8233C13.3377 12.6704 13.3543 12.5019 13.3216 12.3395C13.2889 12.1771 13.2086 12.0282 13.0908 11.9117L10.5908 9.41168H10.5916Z" fill="#FEFEFE"/>
<path d="M14.7249 5.83251C14.3849 4.85006 13.7471 3.99803 12.9002 3.39498C12.0533 2.79193 11.0395 2.46786 9.99991 2.46786C8.96028 2.46786 7.9465 2.79193 7.09963 3.39498C6.25277 3.99803 5.61495 4.85006 5.27491 5.83251C4.52621 5.93279 3.81884 6.23472 3.2285 6.70601C2.63815 7.17729 2.18703 7.80019 1.92338 8.50809C1.65974 9.21598 1.5935 9.98223 1.73175 10.7249C1.87 11.4675 2.20753 12.1586 2.70825 12.7242C2.76873 12.8307 2.85196 12.9226 2.952 12.9933C3.05205 13.064 3.16645 13.1118 3.28707 13.1332C3.40769 13.1547 3.53155 13.1493 3.64983 13.1174C3.76812 13.0855 3.87792 13.0279 3.97141 12.9488C4.06491 12.8696 4.1398 12.7708 4.19076 12.6594C4.24172 12.548 4.26748 12.4267 4.26623 12.3042C4.26497 12.1817 4.23672 12.061 4.18349 11.9507C4.13025 11.8403 4.05335 11.7431 3.95825 11.6658C3.63584 11.3054 3.4249 10.8592 3.35099 10.3813C3.27707 9.90334 3.34336 9.41425 3.54181 8.97324C3.74026 8.53224 4.06236 8.15826 4.46907 7.89662C4.87579 7.63499 5.34965 7.49693 5.83325 7.49918H5.91658C6.11154 7.50311 6.3017 7.43855 6.45396 7.31674C6.60623 7.19493 6.71095 7.02358 6.74991 6.83251C6.90292 6.07899 7.31173 5.40153 7.90707 4.91493C8.50242 4.42833 9.24768 4.1625 10.0166 4.1625C10.7855 4.1625 11.5307 4.42833 12.1261 4.91493C12.7214 5.40153 13.1302 6.07899 13.2832 6.83251C13.3222 7.02358 13.4269 7.19493 13.5792 7.31674C13.7315 7.43855 13.9216 7.50311 14.1166 7.49918H14.1666C14.6502 7.49693 15.124 7.63499 15.5308 7.89662C15.9375 8.15826 16.2596 8.53224 16.458 8.97324C16.6565 9.41425 16.7228 9.90334 16.6488 10.3813C16.5749 10.8592 16.364 11.3054 16.0416 11.6658C15.9682 11.7482 15.9118 11.8442 15.8758 11.9485C15.8398 12.0527 15.8249 12.1631 15.8319 12.2732C15.8389 12.3833 15.8676 12.4908 15.9165 12.5897C15.9654 12.6886 16.0334 12.7768 16.1166 12.8492C16.2824 12.9948 16.4993 13.0688 16.7196 13.0547C16.9399 13.0406 17.1456 12.9398 17.2916 12.7742C17.8062 12.2095 18.1556 11.5143 18.3018 10.7645C18.4479 10.0146 18.385 9.23903 18.1201 8.52249C17.8552 7.80595 17.3983 7.17604 16.7995 6.70163C16.2008 6.22721 15.4831 5.92655 14.7249 5.83251Z" fill="#FEFEFE"/>
</svg>
