<svg width="19" height="17" viewBox="0 0 19 17" fill="none" xmlns="http://www.w3.org/2000/svg">
<path d="M18.1989 5.78561L12.561 5.05563L10.0407 0.503686C9.97186 0.379056 9.85862 0.278165 9.71873 0.21684C9.36788 0.0625365 8.94154 0.191123 8.76612 0.503686L6.24584 5.05563L0.607943 5.78561C0.452507 5.80539 0.310394 5.87067 0.201588 5.96958C0.0700486 6.09003 -0.0024357 6.25208 6.24985e-05 6.42011C0.0025607 6.58815 0.079837 6.74843 0.214911 6.86573L4.294 10.4088L3.3303 15.4118C3.3077 15.5281 3.32215 15.6478 3.37203 15.7573C3.4219 15.8667 3.50519 15.9615 3.61246 16.0309C3.71972 16.1003 3.84667 16.1415 3.97891 16.15C4.11115 16.1583 4.24338 16.1336 4.36062 16.0784L9.40341 13.7164L14.4462 16.0784C14.5839 16.1437 14.7438 16.1655 14.897 16.1417C15.2833 16.0824 15.5431 15.756 15.4765 15.4118L14.5128 10.4088L18.5919 6.86573C18.7029 6.7688 18.7762 6.64219 18.7984 6.50371C18.8584 6.15752 18.5875 5.83704 18.1989 5.78561Z" fill="#FDBF00"/>
</svg>
