<svg width="17" height="18" fill="none" xmlns="http://www.w3.org/2000/svg"><path d="m16.137 6.259-5-.784L8.904.585a.654.654 0 0 0-.286-.309C8.307.11 7.928.25 7.773.584l-2.235 4.89L.54 6.26a.614.614 0 0 0-.36.197A.71.71 0 0 0 0 6.94c.002.181.07.353.19.48l3.617 3.806-.854 5.374a.729.729 0 0 0 .037.371c.044.118.118.22.213.294a.591.591 0 0 0 .663.051l4.472-2.537 4.471 2.538c.122.07.264.093.4.068.343-.064.573-.415.514-.785l-.855-5.374 3.617-3.807a.7.7 0 0 0 .183-.389c.053-.372-.187-.716-.531-.771Z" fill="#FDBF00"/></svg>