<svg width="17" height="18" fill="none" xmlns="http://www.w3.org/2000/svg"><path d="m16.106 6.259-4.99-.784-2.23-4.89A.653.653 0 0 0 8.6.275C8.29.11 7.913.25 7.758.584l-2.23 4.89-4.99.785a.612.612 0 0 0-.36.197A.712.712 0 0 0 0 6.94c.002.181.07.353.19.48l3.61 3.806-.853 5.374a.73.73 0 0 0 .037.371c.044.118.118.22.213.294a.59.59 0 0 0 .662.051l4.463-2.537 4.463 2.538c.121.07.263.093.399.068.342-.064.572-.415.513-.785l-.853-5.374 3.61-3.807a.7.7 0 0 0 .182-.389c.053-.372-.186-.716-.53-.771Z" fill="#FDBF00"/></svg>