<svg width="17" height="18" viewBox="0 0 17 18" fill="none" xmlns="http://www.w3.org/2000/svg">
<path d="M16.1058 6.35379L11.1163 5.56957L8.88591 0.679331C8.82499 0.545439 8.72477 0.43705 8.60097 0.371167C8.29048 0.205396 7.91317 0.343539 7.75792 0.679331L5.5275 5.56957L0.538023 6.35379C0.400464 6.37504 0.274695 6.44518 0.178403 6.55144C0.0619923 6.68084 -0.00215557 6.85493 5.53105e-05 7.03545C0.00226619 7.21598 0.0706549 7.38817 0.190194 7.51419L3.80015 11.3205L2.94728 16.6953C2.92728 16.8204 2.94007 16.949 2.98421 17.0665C3.02834 17.1841 3.10205 17.2859 3.19698 17.3605C3.29191 17.4351 3.40426 17.4794 3.52129 17.4884C3.63832 17.4974 3.75535 17.4708 3.8591 17.4116L8.32192 14.874L12.7847 17.4116C12.9066 17.4817 13.0481 17.5051 13.1837 17.4796C13.5256 17.4158 13.7555 17.0651 13.6966 16.6953L12.8437 11.3205L16.4536 7.51419C16.5519 7.41005 16.6167 7.27403 16.6364 7.12526C16.6895 6.75334 16.4497 6.40905 16.1058 6.35379V6.35379Z" fill="#FDBF00"/>
</svg>
