<svg width="17" height="18" viewBox="0 0 17 18" fill="none" xmlns="http://www.w3.org/2000/svg">
<path d="M16.1368 6.25925L11.1377 5.47502L8.903 0.584787C8.84197 0.450895 8.74155 0.342507 8.61751 0.276624C8.30642 0.110853 7.92839 0.248995 7.77285 0.584787L5.53813 5.47502L0.539058 6.25925C0.401234 6.2805 0.275223 6.35063 0.178747 6.4569C0.0621115 6.5863 -0.00215972 6.76039 5.54169e-05 6.94091C0.00227055 7.12143 0.0707908 7.29362 0.19056 7.41964L3.80745 11.226L2.95295 16.6008C2.93291 16.7258 2.94572 16.8544 2.98995 16.972C3.03417 17.0895 3.10802 17.1914 3.20313 17.2659C3.29825 17.3405 3.41081 17.3848 3.52806 17.3938C3.64532 17.4029 3.76257 17.3763 3.86652 17.317L8.33792 14.7794L12.8093 17.317C12.9314 17.3871 13.0732 17.4105 13.209 17.385C13.5516 17.3213 13.782 16.9706 13.7229 16.6008L12.8684 11.226L16.4853 7.41964C16.5837 7.31551 16.6487 7.17949 16.6684 7.03072C16.7216 6.6588 16.4814 6.3145 16.1368 6.25925V6.25925Z" fill="#FDBF00"/>
</svg>
