<svg width="17" height="18" viewBox="0 0 17 18" fill="none" xmlns="http://www.w3.org/2000/svg">
<path d="M16.1368 6.25882L11.1377 5.4746L8.90299 0.58436C8.84196 0.450468 8.74154 0.34208 8.6175 0.276196C8.30641 0.110426 7.92838 0.248568 7.77284 0.58436L5.53812 5.4746L0.539057 6.25882C0.401233 6.28007 0.275223 6.35021 0.178746 6.45647C0.0621114 6.58587 -0.00215971 6.75996 5.54168e-05 6.94048C0.00227055 7.12101 0.0707907 7.2932 0.19056 7.41922L3.80745 11.2256L2.95294 16.6004C2.9329 16.7254 2.94572 16.854 2.98994 16.9715C3.03416 17.0891 3.10802 17.191 3.20313 17.2655C3.29824 17.3401 3.41081 17.3844 3.52806 17.3934C3.64531 17.4024 3.76257 17.3758 3.86652 17.3166L8.33791 14.779L12.8093 17.3166C12.9314 17.3867 13.0731 17.4101 13.209 17.3846C13.5516 17.3208 13.782 16.9702 13.7229 16.6004L12.8684 11.2256L16.4853 7.41922C16.5837 7.31508 16.6487 7.17906 16.6684 7.03029C16.7215 6.65837 16.4813 6.31408 16.1368 6.25882V6.25882Z" fill="#FDBF00"/>
</svg>
