<svg width="17" height="18" viewBox="0 0 17 18" fill="none" xmlns="http://www.w3.org/2000/svg">
<path d="M16.1058 6.35379L11.1163 5.56957L8.88589 0.679331C8.82497 0.545439 8.72475 0.43705 8.60095 0.371167C8.29046 0.205396 7.91315 0.343539 7.75791 0.679331L5.52748 5.56957L0.538022 6.35379C0.400463 6.37504 0.274694 6.44518 0.178403 6.55144C0.0619921 6.68084 -0.00215557 6.85493 5.53104e-05 7.03545C0.00226619 7.21598 0.0706548 7.38817 0.190194 7.51419L3.80014 11.3205L2.94727 16.6953C2.92727 16.8204 2.94006 16.949 2.9842 17.0665C3.02833 17.1841 3.10205 17.2859 3.19698 17.3605C3.29191 17.4351 3.40426 17.4794 3.52128 17.4884C3.63831 17.4974 3.75534 17.4708 3.85909 17.4116L8.3219 14.874L12.7847 17.4116C12.9065 17.4817 13.048 17.5051 13.1836 17.4796C13.5256 17.4158 13.7555 17.0651 13.6965 16.6953L12.8437 11.3205L16.4536 7.51419C16.5519 7.41005 16.6167 7.27403 16.6364 7.12526C16.6894 6.75334 16.4497 6.40905 16.1058 6.35379V6.35379Z" fill="#FDBF00"/>
</svg>
