<svg width="17" height="18" viewBox="0 0 17 18" fill="none" xmlns="http://www.w3.org/2000/svg">
<path d="M16.1058 6.25925L11.1163 5.47502L8.88591 0.584787C8.82499 0.450895 8.72477 0.342507 8.60097 0.276624C8.29048 0.110853 7.91317 0.248995 7.75792 0.584787L5.5275 5.47502L0.538023 6.25925C0.400464 6.2805 0.274695 6.35063 0.178403 6.4569C0.0619923 6.5863 -0.00215557 6.76039 5.53105e-05 6.94091C0.00226619 7.12143 0.0706549 7.29362 0.190194 7.41964L3.80015 11.226L2.94728 16.6008C2.92728 16.7258 2.94007 16.8544 2.98421 16.972C3.02834 17.0895 3.10205 17.1914 3.19698 17.2659C3.29191 17.3405 3.40426 17.3848 3.52129 17.3938C3.63832 17.4029 3.75535 17.3763 3.8591 17.317L8.32192 14.7794L12.7847 17.317C12.9066 17.3871 13.0481 17.4105 13.1837 17.385C13.5256 17.3213 13.7555 16.9706 13.6966 16.6008L12.8437 11.226L16.4536 7.41964C16.5519 7.31551 16.6167 7.17949 16.6364 7.03072C16.6895 6.6588 16.4497 6.3145 16.1058 6.25925V6.25925Z" fill="#FDBF00"/>
</svg>
