<svg width="17" height="18" viewBox="0 0 17 18" fill="none" xmlns="http://www.w3.org/2000/svg">
<path d="M16.1058 6.25925L11.1163 5.47502L8.88589 0.584787C8.82497 0.450895 8.72475 0.342507 8.60095 0.276624C8.29046 0.110853 7.91315 0.248995 7.75791 0.584787L5.52748 5.47502L0.538022 6.25925C0.400463 6.2805 0.274694 6.35063 0.178403 6.4569C0.0619921 6.5863 -0.00215557 6.76039 5.53104e-05 6.94091C0.00226619 7.12143 0.0706548 7.29362 0.190194 7.41964L3.80014 11.226L2.94727 16.6008C2.92727 16.7258 2.94006 16.8544 2.9842 16.972C3.02833 17.0895 3.10205 17.1914 3.19698 17.2659C3.29191 17.3405 3.40426 17.3848 3.52128 17.3938C3.63831 17.4029 3.75534 17.3763 3.85909 17.317L8.3219 14.7794L12.7847 17.317C12.9065 17.3871 13.048 17.4105 13.1836 17.385C13.5256 17.3213 13.7555 16.9706 13.6965 16.6008L12.8437 11.226L16.4536 7.41964C16.5519 7.31551 16.6167 7.17949 16.6364 7.03072C16.6894 6.6588 16.4497 6.3145 16.1058 6.25925V6.25925Z" fill="#FDBF00"/>
</svg>
