<svg width="17" height="18" viewBox="0 0 17 18" fill="none" xmlns="http://www.w3.org/2000/svg">
<path d="M16.1371 6.35379L11.138 5.56957L8.90319 0.679331C8.84215 0.545439 8.74174 0.43705 8.61769 0.371167C8.3066 0.205396 7.92856 0.343539 7.77301 0.679331L5.53825 5.56957L0.539069 6.35379C0.401242 6.37504 0.275229 6.44518 0.17875 6.55144C0.0621128 6.68084 -0.00215976 6.85493 5.54181e-05 7.03545C0.0022706 7.21598 0.0707923 7.38817 0.190564 7.51419L3.80753 11.3205L2.95301 16.6953C2.93297 16.8204 2.94579 16.949 2.99001 17.0665C3.03423 17.1841 3.10809 17.2859 3.2032 17.3605C3.29832 17.4351 3.41088 17.4794 3.52814 17.4884C3.6454 17.4974 3.76265 17.4708 3.8666 17.4116L8.3381 14.874L12.8096 17.4116C12.9317 17.4817 13.0734 17.5051 13.2093 17.4796C13.5519 17.4158 13.7823 17.0651 13.7232 16.6953L12.8687 11.3205L16.4856 7.51419C16.5841 7.41005 16.6491 7.27403 16.6688 7.12526C16.7219 6.75334 16.4817 6.40905 16.1371 6.35379V6.35379Z" fill="#FDBF00"/>
</svg>
