<svg width="25" height="25" viewBox="0 0 25 25" fill="none" xmlns="http://www.w3.org/2000/svg">
<g clip-path="url(#clip0_0_1296)">
<path d="M12.873 22.6186C10.2497 22.6186 7.73382 21.5765 5.87884 19.7215C4.02386 17.8665 2.98175 15.3506 2.98175 12.7273C2.98175 10.104 4.02386 7.58807 5.87884 5.73309C7.73382 3.87811 10.2497 2.83599 12.873 2.83599C15.4964 2.83599 18.0123 3.87811 19.8673 5.73309C21.7222 7.58807 22.7643 10.104 22.7643 12.7273C22.7643 15.3506 21.7222 17.8665 19.8673 19.7215C18.0123 21.5765 15.4964 22.6186 12.873 22.6186ZM12.873 24.0316C15.8711 24.0316 18.7464 22.8406 20.8664 20.7207C22.9864 18.6007 24.1774 15.7254 24.1774 12.7273C24.1774 9.7292 22.9864 6.85389 20.8664 4.73392C18.7464 2.61394 15.8711 1.42295 12.873 1.42295C9.87495 1.42295 6.99964 2.61394 4.87967 4.73392C2.75969 6.85389 1.5687 9.7292 1.5687 12.7273C1.5687 15.7254 2.75969 18.6007 4.87967 20.7207C6.99964 22.8406 9.87495 24.0316 12.873 24.0316V24.0316Z" fill="#1262AF"/>
<path d="M10.3496 7.92716C10.4829 7.85852 10.6326 7.82798 10.7821 7.83891C10.9316 7.84983 11.0753 7.9018 11.1972 7.98909L16.9018 12.0639C17.0075 12.1392 17.0936 12.2388 17.153 12.3542C17.2124 12.4695 17.2434 12.5975 17.2434 12.7272C17.2434 12.857 17.2124 12.9849 17.153 13.1003C17.0936 13.2157 17.0075 13.3152 16.9018 13.3906L11.1972 17.4654C11.0753 17.5526 10.9317 17.6045 10.7823 17.6155C10.6328 17.6264 10.4832 17.5959 10.35 17.5273C10.2167 17.4588 10.105 17.3548 10.027 17.2268C9.94898 17.0989 9.90778 16.9519 9.9079 16.802V8.65247C9.90774 8.50265 9.94889 8.35569 10.0268 8.22773C10.1047 8.09977 10.2164 7.99577 10.3496 7.92716V7.92716Z" fill="#1262AF"/>
</g>
<defs>
<clipPath id="clip0_0_1296">
<rect width="24" height="24" fill="white" transform="translate(0.873047 0.727295)"/>
</clipPath>
</defs>
</svg>
