<svg width="25" height="26" viewBox="0 0 25 26" fill="none" xmlns="http://www.w3.org/2000/svg">
<path d="M12.5 23.1045C9.76733 23.1045 7.14661 22.019 5.21434 20.0867C3.28207 18.1544 2.19653 15.5337 2.19653 12.8011C2.19653 10.0684 3.28207 7.44769 5.21434 5.51542C7.14661 3.58315 9.76733 2.49762 12.5 2.49762C15.2326 2.49762 17.8533 3.58315 19.7856 5.51542C21.7179 7.44769 22.8034 10.0684 22.8034 12.8011C22.8034 15.5337 21.7179 18.1544 19.7856 20.0867C17.8533 22.019 15.2326 23.1045 12.5 23.1045ZM12.5 24.5764C15.623 24.5764 18.6181 23.3358 20.8264 21.1275C23.0347 18.9192 24.2753 15.9241 24.2753 12.8011C24.2753 9.67803 23.0347 6.68293 20.8264 4.47462C18.6181 2.26631 15.623 1.0257 12.5 1.0257C9.37695 1.0257 6.38184 2.26631 4.17353 4.47462C1.96522 6.68293 0.724609 9.67803 0.724609 12.8011C0.724609 15.9241 1.96522 18.9192 4.17353 21.1275C6.38184 23.3358 9.37695 24.5764 12.5 24.5764V24.5764Z" fill="#1262AF"/>
<path d="M9.87222 7.80091C10.0111 7.72941 10.167 7.6976 10.3227 7.70898C10.4785 7.72037 10.6281 7.7745 10.7551 7.86543L16.6975 12.11C16.8075 12.1885 16.8972 12.2922 16.9591 12.4124C17.021 12.5326 17.0533 12.6658 17.0533 12.801C17.0533 12.9362 17.021 13.0694 16.9591 13.1896C16.8972 13.3098 16.8075 13.4135 16.6975 13.492L10.7551 17.7366C10.6281 17.8274 10.4786 17.8815 10.3229 17.8929C10.1672 17.9043 10.0114 17.8725 9.87262 17.8011C9.73382 17.7297 9.61739 17.6213 9.53615 17.4881C9.4549 17.3548 9.41198 17.2016 9.41211 17.0455V8.55644C9.41195 8.40038 9.4548 8.2473 9.53598 8.11401C9.61715 7.98072 9.73349 7.87239 9.87222 7.80091V7.80091Z" fill="#1262AF"/>
</svg>
