<svg width="108" height="16" viewBox="0 0 108 16" fill="none" xmlns="http://www.w3.org/2000/svg">
<path d="M4.52053 8.03241L101.528 8.17033" stroke="#CACACA" stroke-width="0.836813" stroke-linecap="square" stroke-dasharray="1.67 4.18"/>
<path d="M50.3663 15.6044H52.0191L56.1511 9.24466L60.6962 9.24466C61.3821 9.24466 61.9358 8.71204 61.9358 8.0522C61.9358 7.39237 61.3821 6.85975 60.6962 6.85975L56.1511 6.85975L52.0191 0.5L50.3663 0.5L52.4323 6.85978L47.8871 6.85978L46.6475 5.26983H45.4079L46.2343 8.05224L45.4079 10.8346H46.6475L47.8871 9.24466H52.4323L50.3663 15.6044Z" fill="#1262AE"/>
<circle cx="4.61694" cy="8" r="3.66319" fill="white" stroke="#1262AE" stroke-width="1.67363"/>
<path d="M106.39 8.68406C106.39 10.5024 104.848 12.0313 102.877 12.0313C100.906 12.0313 99.3644 10.5024 99.3644 8.68406C99.3644 6.8657 100.906 5.33681 102.877 5.33681C104.848 5.33681 106.39 6.8657 106.39 8.68406Z" fill="white" stroke="#1262AE" stroke-width="1.67363"/>
</svg>
