<svg width="15" height="20" viewBox="0 0 15 20" fill="none" xmlns="http://www.w3.org/2000/svg">
<path d="M7.44376 7.72003L6.10112 8.98189C6.27705 9.61666 6.52509 10.2284 6.84022 10.8048C7.16672 11.3744 7.5609 11.901 8.01387 12.3727L9.75392 11.8116C10.2308 11.6587 10.7419 11.6549 11.221 11.8007C11.7001 11.9465 12.1251 12.2353 12.4411 12.6296L13.4327 13.8612C13.8352 14.3612 14.036 14.998 13.9947 15.6428C13.9533 16.2877 13.6728 16.8925 13.2099 17.3351C11.5942 18.8765 9.10395 19.3998 7.23948 17.8678C5.59437 16.5094 4.20888 14.8548 3.15213 12.9866C2.08302 11.1134 1.36931 9.0527 1.0481 6.91154C0.689693 4.49361 2.38332 2.55926 4.49106 1.89811C5.0987 1.709 5.75444 1.76352 6.32383 2.05048C6.89322 2.33744 7.33311 2.8351 7.55332 3.44143L8.09744 4.92997C8.27303 5.40836 8.30482 5.92905 8.18875 6.42586C8.07268 6.92267 7.81401 7.37315 7.44561 7.72003H7.44376Z" stroke="#80C904" stroke-width="2"/>
</svg>
