<svg width="18" height="15" viewBox="0 0 18 15" fill="none" xmlns="http://www.w3.org/2000/svg">
<path d="M16.2 14.7874H1.8C1.32261 14.7874 0.864773 14.603 0.527208 14.2748C0.189642 13.9466 0 13.5015 0 13.0374V2.46123C0.0201894 2.01042 0.218708 1.58462 0.55411 1.27272C0.889512 0.960816 1.33587 0.786927 1.8 0.787354H16.2C16.6774 0.787354 17.1352 0.971729 17.4728 1.29992C17.8104 1.62811 18 2.07323 18 2.53735V13.0374C18 13.5015 17.8104 13.9466 17.4728 14.2748C17.1352 14.603 16.6774 14.7874 16.2 14.7874ZM1.8 4.17185V13.0374H16.2V4.17185L9 8.83735L1.8 4.17185ZM2.52 2.53735L9 6.73735L15.48 2.53735H2.52Z" fill="#80C904"/>
</svg>
