<svg width="16" height="17" viewBox="0 0 16 17" fill="none" xmlns="http://www.w3.org/2000/svg">
<path d="M13.6 2.38735H12V1.58735C12 1.37518 11.9157 1.1717 11.7657 1.02167C11.6157 0.871639 11.4122 0.787354 11.2 0.787354C10.9878 0.787354 10.7843 0.871639 10.6343 1.02167C10.4843 1.1717 10.4 1.37518 10.4 1.58735V2.38735H5.6V1.58735C5.6 1.37518 5.51571 1.1717 5.36569 1.02167C5.21566 0.871639 5.01217 0.787354 4.8 0.787354C4.58783 0.787354 4.38434 0.871639 4.23431 1.02167C4.08429 1.1717 4 1.37518 4 1.58735V2.38735H2.4C1.76348 2.38735 1.15303 2.64021 0.702944 3.0903C0.252856 3.54038 0 4.15083 0 4.78735V14.3874C0 15.0239 0.252856 15.6343 0.702944 16.0844C1.15303 16.5345 1.76348 16.7874 2.4 16.7874H13.6C14.2365 16.7874 14.847 16.5345 15.2971 16.0844C15.7471 15.6343 16 15.0239 16 14.3874V4.78735C16 4.15083 15.7471 3.54038 15.2971 3.0903C14.847 2.64021 14.2365 2.38735 13.6 2.38735V2.38735ZM14.4 14.3874C14.4 14.5995 14.3157 14.803 14.1657 14.953C14.0157 15.1031 13.8122 15.1874 13.6 15.1874H2.4C2.18783 15.1874 1.98434 15.1031 1.83431 14.953C1.68429 14.803 1.6 14.5995 1.6 14.3874V8.78735H14.4V14.3874ZM14.4 7.18735H1.6V4.78735C1.6 4.57518 1.68429 4.3717 1.83431 4.22167C1.98434 4.07164 2.18783 3.98735 2.4 3.98735H4V4.78735C4 4.99953 4.08429 5.20301 4.23431 5.35304C4.38434 5.50307 4.58783 5.58735 4.8 5.58735C5.01217 5.58735 5.21566 5.50307 5.36569 5.35304C5.51571 5.20301 5.6 4.99953 5.6 4.78735V3.98735H10.4V4.78735C10.4 4.99953 10.4843 5.20301 10.6343 5.35304C10.7843 5.50307 10.9878 5.58735 11.2 5.58735C11.4122 5.58735 11.6157 5.50307 11.7657 5.35304C11.9157 5.20301 12 4.99953 12 4.78735V3.98735H13.6C13.8122 3.98735 14.0157 4.07164 14.1657 4.22167C14.3157 4.3717 14.4 4.57518 14.4 4.78735V7.18735Z" fill="#80C904"/>
</svg>
