<svg width="66" height="67" viewBox="0 0 66 67" fill="none" xmlns="http://www.w3.org/2000/svg">
<path d="M0.461182 16.9141C0.461182 8.0775 7.62463 0.914062 16.4612 0.914062H49.8482C58.6848 0.914062 65.8482 8.07751 65.8482 16.9141V50.3011C65.8482 59.1377 58.6848 66.3011 49.8482 66.3011H16.4612C7.62462 66.3011 0.461182 59.1377 0.461182 50.3011V16.9141Z" fill="#FF9B53"/>
<path d="M38.7604 18.9568C38.1015 18.3044 37.2081 17.938 36.2766 17.938C35.3451 17.938 34.4517 18.3044 33.7928 18.9568L18.3653 34.2418C18.0391 34.565 17.7802 34.9488 17.6037 35.3711C17.4271 35.7934 17.3362 36.2461 17.3362 36.7032C17.3362 37.1603 17.4271 37.613 17.6037 38.0353C17.7802 38.4576 18.0391 38.8413 18.3653 39.1646L20.1956 40.9762C20.992 41.7667 22.1117 41.626 22.7879 41.2268C23.1609 41.0074 23.5971 40.9173 24.0275 40.9708C24.4579 41.0243 24.8581 41.2183 25.1649 41.5222C25.4716 41.8261 25.6674 42.2225 25.7214 42.6489C25.7754 43.0753 25.6845 43.5074 25.463 43.8769C25.0617 44.5468 24.918 45.6561 25.716 46.4451L27.5478 48.2582C27.8741 48.5815 28.2614 48.8379 28.6877 49.0128C29.114 49.1878 29.571 49.2778 30.0324 49.2778C30.4938 49.2778 30.9507 49.1878 31.377 49.0128C31.8033 48.8379 32.1907 48.5815 32.517 48.2582L47.9429 32.9763C48.2692 32.6531 48.528 32.2693 48.7046 31.847C48.8812 31.4247 48.972 30.972 48.972 30.5149C48.972 30.0578 48.8812 29.6051 48.7046 29.1828C48.528 28.7605 48.2692 28.3768 47.9429 28.0535L46.1142 26.2404C45.3178 25.4514 44.1965 25.5906 43.5203 25.9897C43.1473 26.2091 42.7112 26.2992 42.2807 26.2457C41.8503 26.1922 41.4501 25.9982 41.1434 25.6944C40.8366 25.3905 40.6408 24.994 40.5868 24.5676C40.5328 24.1412 40.6237 23.7091 40.8452 23.3396C41.2481 22.6697 41.3902 21.5605 40.5922 20.7715L38.762 18.9568H38.7604Z" fill="white"/>
</svg>
