<svg width="119" height="25" viewBox="0 0 119 25" fill="none" xmlns="http://www.w3.org/2000/svg">
<line x1="5.54321" y1="12.7456" x2="109.095" y2="12.7456" stroke="#CCCCCC" stroke-dasharray="3 3"/>
<path d="M58.1235 22.6641H56.7581C56.6209 22.664 56.4859 22.6325 56.3654 22.5725C56.245 22.5125 56.1429 22.4258 56.0686 22.3204C55.9942 22.2151 55.95 22.0943 55.9399 21.9693C55.9298 21.8443 55.9541 21.7189 56.0107 21.6047L59.3171 14.9367L54.3524 14.8359L52.5417 16.8408C52.1965 17.2373 51.9211 17.4141 51.2184 17.4141H50.2992C50.1536 17.4183 50.0091 17.3905 49.8779 17.3329C49.7466 17.2753 49.6325 17.1896 49.5452 17.0831C49.4231 16.9327 49.3031 16.6777 49.42 16.3139L50.4366 12.9858C50.4443 12.9609 50.4536 12.9361 50.4638 12.9117C50.4643 12.9094 50.4643 12.907 50.4638 12.9047C50.4532 12.8803 50.4442 12.8554 50.4366 12.8302L49.419 9.48094C49.3087 9.12422 49.4292 8.87484 49.5503 8.72812C49.6316 8.62956 49.737 8.54979 49.8582 8.49524C49.9794 8.4407 50.1128 8.41289 50.2479 8.41406H51.2184C51.7431 8.41406 52.2524 8.62922 52.552 8.97656L54.3252 10.9477L59.3171 10.8802L56.0118 4.22391C55.9551 4.10974 55.9306 3.98442 55.9406 3.85939C55.9506 3.73436 55.9948 3.61362 56.069 3.5082C56.1432 3.40278 56.2452 3.31604 56.3656 3.25593C56.486 3.19581 56.6209 3.16423 56.7581 3.16406H58.1384C58.331 3.1676 58.5202 3.21073 58.692 3.29026C58.8638 3.36979 59.0139 3.48366 59.1309 3.62344L65.5452 10.7484L68.5084 10.6772C68.7254 10.6664 69.3266 10.6627 69.4656 10.6627C72.3001 10.6641 73.9928 11.505 73.9928 12.9141C73.9928 13.3575 73.7989 14.1797 72.5016 14.7028C71.7358 15.0122 70.7141 15.1688 69.4645 15.1688C69.3271 15.1688 68.7275 15.165 68.5074 15.1542L65.5447 15.082L59.1145 22.207C58.9973 22.3462 58.8475 22.4595 58.6759 22.5386C58.5044 22.6177 58.3156 22.6606 58.1235 22.6641V22.6641Z" fill="#1262AE"/>
<circle cx="5.802" cy="13.2456" r="4" fill="white" stroke="#1262AE" stroke-width="2"/>
<circle cx="113.153" cy="12.8286" r="4" fill="white" stroke="#1262AE" stroke-width="2"/>
</svg>
