<svg width="130" height="31" viewBox="0 0 130 31" fill="none" xmlns="http://www.w3.org/2000/svg">
<g clip-path="url(#clip0_16_2787)">
<path d="M15.0001 0.900391C7.0471 0.900391 0.600098 7.34739 0.600098 15.3004C0.600098 23.2534 7.0471 29.7004 15.0001 29.7004C22.9531 29.7004 29.4001 23.2534 29.4001 15.3004C29.4001 7.34739 22.9531 0.900391 15.0001 0.900391ZM18.4111 10.8514H16.2466C15.9901 10.8514 15.7051 11.1889 15.7051 11.6374V13.2004H18.4126L18.0031 15.4294H15.7051V22.1209H13.1506V15.4294H10.8331V13.2004H13.1506V11.8894C13.1506 10.0084 14.4556 8.47989 16.2466 8.47989H18.4111V10.8514V10.8514Z" fill="white"/>
</g>
<g clip-path="url(#clip1_16_2787)">
<path d="M115 0.900391C107.047 0.900391 100.6 7.34739 100.6 15.3004C100.6 23.2534 107.047 29.7004 115 29.7004C122.953 29.7004 129.4 23.2534 129.4 15.3004C129.4 7.34739 122.953 0.900391 115 0.900391ZM120.858 12.6964C120.864 12.8194 120.865 12.9424 120.865 13.0624C120.865 16.8124 118.014 21.1339 112.797 21.1339C111.255 21.1365 109.746 20.6937 108.45 19.8589C108.67 19.8859 108.897 19.8964 109.126 19.8964C110.455 19.8964 111.678 19.4449 112.648 18.6829C112.057 18.6713 111.484 18.4754 111.009 18.1227C110.534 17.7699 110.181 17.2778 109.999 16.7149C110.424 16.7957 110.861 16.7787 111.279 16.6654C110.637 16.5356 110.059 16.1878 109.645 15.6809C109.23 15.174 109.003 14.5393 109.003 13.8844V13.8499C109.386 14.0614 109.824 14.1904 110.289 14.2054C109.687 13.8048 109.261 13.1894 109.098 12.4851C108.935 11.7808 109.047 11.0408 109.411 10.4164C110.124 11.2924 111.012 12.009 112.019 12.5199C113.026 13.0307 114.129 13.3244 115.257 13.3819C115.113 12.7734 115.175 12.1345 115.432 11.5646C115.689 10.9948 116.128 10.5259 116.679 10.2308C117.23 9.9357 117.863 9.83098 118.48 9.9329C119.097 10.0348 119.663 10.3377 120.09 10.7944C120.724 10.6688 121.333 10.436 121.89 10.1059C121.678 10.7631 121.235 11.3212 120.643 11.6764C121.205 11.6087 121.754 11.4575 122.272 11.2279C121.892 11.7977 121.413 12.295 120.858 12.6964V12.6964Z" fill="white"/>
</g>
<g clip-path="url(#clip2_16_2787)">
<path d="M69.5001 15.3004C69.5001 16.4939 69.026 17.6385 68.1821 18.4824C67.3382 19.3263 66.1936 19.8004 65.0001 19.8004C63.8066 19.8004 62.662 19.3263 61.8181 18.4824C60.9742 17.6385 60.5001 16.4939 60.5001 15.3004C60.5001 15.0439 60.5271 14.7934 60.5736 14.5504H59.0001V20.5459C59.0001 20.9629 59.3376 21.3004 59.7546 21.3004H70.2471C70.4469 21.3 70.6385 21.2203 70.7796 21.0789C70.9208 20.9374 71.0001 20.7457 71.0001 20.5459V14.5504H69.4266C69.4731 14.7934 69.5001 15.0439 69.5001 15.3004V15.3004ZM65.0001 18.3004C65.3942 18.3003 65.7844 18.2226 66.1484 18.0717C66.5124 17.9208 66.8432 17.6997 67.1217 17.421C67.4003 17.1422 67.6213 16.8114 67.772 16.4473C67.9227 16.0832 68.0002 15.693 68.0001 15.2989C68 14.9048 67.9223 14.5146 67.7714 14.1506C67.6205 13.7866 67.3994 13.4558 67.1207 13.1773C66.842 12.8987 66.5111 12.6777 66.147 12.527C65.7829 12.3763 65.3927 12.2988 64.9986 12.2989C64.2028 12.2991 63.4396 12.6154 62.877 13.1783C62.3144 13.7412 61.9984 14.5045 61.9986 15.3004C61.9988 16.0962 62.3151 16.8594 62.878 17.422C63.4409 17.9846 64.2043 18.3006 65.0001 18.3004V18.3004ZM68.6001 12.1504H70.3986C70.5181 12.1504 70.6327 12.103 70.7173 12.0187C70.802 11.9343 70.8497 11.8199 70.8501 11.7004V9.90189C70.8501 9.78215 70.8025 9.6673 70.7179 9.58263C70.6332 9.49796 70.5183 9.45039 70.3986 9.45039H68.6001C68.4804 9.45039 68.3655 9.49796 68.2808 9.58263C68.1962 9.6673 68.1486 9.78215 68.1486 9.90189V11.7004C68.1501 11.9479 68.3526 12.1504 68.6001 12.1504V12.1504ZM65.0001 0.900391C61.181 0.900391 57.5183 2.41753 54.8178 5.11805C52.1172 7.81858 50.6001 11.4813 50.6001 15.3004C50.6001 19.1195 52.1172 22.7822 54.8178 25.4827C57.5183 28.1833 61.181 29.7004 65.0001 29.7004C66.8911 29.7004 68.7637 29.3279 70.5107 28.6043C72.2578 27.8806 73.8453 26.8199 75.1824 25.4827C76.5196 24.1456 77.5803 22.5581 78.304 20.811C79.0276 19.0639 79.4001 17.1914 79.4001 15.3004C79.4001 13.4094 79.0276 11.5368 78.304 9.78975C77.5803 8.04266 76.5196 6.45522 75.1824 5.11805C73.8453 3.78089 72.2578 2.72019 70.5107 1.99653C68.7637 1.27286 66.8911 0.900391 65.0001 0.900391V0.900391ZM72.5001 21.1339C72.5001 22.0504 71.7501 22.8004 70.8336 22.8004H59.1666C58.2501 22.8004 57.5001 22.0504 57.5001 21.1339V9.46689C57.5001 8.55039 58.2501 7.80039 59.1666 7.80039H70.8336C71.7501 7.80039 72.5001 8.55039 72.5001 9.46689V21.1339V21.1339Z" fill="white"/>
</g>
<defs>
<clipPath id="clip0_16_2787">
<rect width="30" height="30" fill="white" transform="translate(0 0.300781)"/>
</clipPath>
<clipPath id="clip1_16_2787">
<rect width="30" height="30" fill="white" transform="translate(100 0.300781)"/>
</clipPath>
<clipPath id="clip2_16_2787">
<rect width="30" height="30" fill="white" transform="translate(50 0.300781)"/>
</clipPath>
</defs>
</svg>
